<?xml version="1.0" encoding="utf-8"?>
<!-- Generator: Adobe Illustrator 16.0.0, SVG Export Plug-In . SVG Version: 6.00 Build 0)  -->
<!DOCTYPE svg PUBLIC "-//W3C//DTD SVG 1.1//EN" "http://www.w3.org/Graphics/SVG/1.1/DTD/svg11.dtd">
<svg version="1.1" xmlns="http://www.w3.org/2000/svg" xmlns:xlink="http://www.w3.org/1999/xlink" x="0px" y="0px" width="200px"
	 height="235px" viewBox="0 0 200 235" enable-background="new 0 0 200 235" xml:space="preserve">
<g id="Ext">
</g>
<g id="Guides">
</g>
<g id="_x31_2_Col_Grid_1_" display="none" enable-background="new    ">
	<g id="Rectangle_xA0_Image_23_" display="inline" opacity="0.102">
	</g>
	<g id="Rectangle_xA0_Image_21_" display="inline" opacity="0.102">
	</g>
	<g id="Rectangle_xA0_Image_19_" display="inline" opacity="0.102">
	</g>
	<g id="Rectangle_xA0_Image_17_" display="inline" opacity="0.102">
	</g>
	<g id="Rectangle_xA0_Image_15_" display="inline" opacity="0.102">
	</g>
	<g id="Rectangle_xA0_Image_13_" display="inline" opacity="0.102">
	</g>
	<g id="Rectangle_xA0_Image_11_" display="inline" opacity="0.102">
	</g>
	<g id="Rectangle_xA0_Image_9_" display="inline" opacity="0.102">
	</g>
	<g id="Rectangle_xA0_Image_7_" display="inline" opacity="0.102">
	</g>
	<g id="Rectangle_xA0_Image_5_" display="inline" opacity="0.102">
	</g>
	<g id="Rectangle_xA0_Image_3_" display="inline" opacity="0.102">
	</g>
	<g id="Rectangle_xA0_Image_1_" display="inline" opacity="0.102">
	</g>
</g>
<g id="Bg">
</g>
<g id="main">
	<g id="Progress">
	</g>
	<g id="Text">
	</g>
</g>
<g id="pane">
</g>
<g id="browserhead">
	<g>
		<g>
			<path fill="#F4530C" d="M73.989,195.995c-1.195-0.309-2.381-0.64-3.556-0.995c-2.877,1.956-5.994,3.739-7.889,6.003
				c-3.349,0.177-10.769,1.127-12.58,4.533c-2.929,5.504,5.952,2.949,8.601,4.691c-0.541,3.612-6.793,10.041-2.574,13.144
				c3.754,2.762,7.018-5.951,9.475-8.465c0.688,0.171,1.637,0.667,2.141,1.161c-0.175,2.549,0.959,6.271,3.312,7.465
				c3.467-5.83,1.271-10.183,0.266-16.466C70.559,203.161,71.832,199.284,73.989,195.995z"/>
			<g>
				<path fill="#F4530C" d="M73.91,196.027l-3.521-0.869l0.137-0.022c-1.346,0.976-2.726,1.9-4.045,2.888
					c-0.332,0.243-0.648,0.504-0.973,0.754c-0.324,0.252-0.623,0.528-0.936,0.791c-0.307,0.267-0.583,0.561-0.875,0.838
					c-0.277,0.291-0.527,0.602-0.792,0.899l-0.136,0.152l-0.201,0.016c-2.129,0.167-4.264,0.483-6.307,1.042
					c-0.514,0.132-1.014,0.298-1.508,0.47c-0.496,0.174-0.973,0.379-1.441,0.595c-0.457,0.232-0.9,0.479-1.305,0.767
					c-0.402,0.288-0.756,0.615-1.051,0.969c-0.133,0.172-0.252,0.399-0.355,0.539c-0.11,0.241-0.246,0.509-0.302,0.697
					c-0.155,0.413-0.214,0.861-0.131,1.1c0.048,0.115,0.114,0.205,0.222,0.305c0.129,0.091,0.277,0.192,0.486,0.262
					c0.396,0.153,0.891,0.241,1.395,0.299c1.02,0.115,2.1,0.128,3.207,0.199c0.555,0.036,1.119,0.083,1.704,0.186
					c0.583,0.109,1.199,0.251,1.832,0.642l0.456,0.281l-0.096,0.524c-0.254,1.393-0.835,2.472-1.367,3.555
					c-0.547,1.071-1.111,2.099-1.588,3.139c-0.232,0.519-0.469,1.038-0.625,1.557c-0.09,0.26-0.175,0.519-0.219,0.773
					c-0.062,0.257-0.119,0.512-0.122,0.754l-0.032,0.369c0.006,0.117,0.026,0.228,0.036,0.342c0.017,0.111,0.009,0.233,0.042,0.337
					l0.109,0.303c0.139,0.404,0.419,0.737,0.775,1.037l0.123,0.12c-0.016-0.01,0.057,0.042-0.032-0.018l0.023,0.015l0.046,0.031
					l0.094,0.061l0.186,0.121l0.106,0.042c0.134,0.072,0.337,0.112,0.499,0.129c0.342,0.008,0.736-0.119,1.137-0.389
					c0.805-0.547,1.536-1.438,2.201-2.355c0.668-0.93,1.288-1.921,1.927-2.925c0.655-1.002,1.259-2.024,2.186-3.011l0.345-0.367
					l0.438,0.145c0.232,0.077,0.469,0.151,0.693,0.237l0.629,0.3l0.599,0.369c0.198,0.146,0.394,0.314,0.585,0.475l0.236,0.198
					l0.003,0.431c0.003,0.322-0.013,0.643-0.003,0.967c0.038,0.325,0.062,0.653,0.107,0.979l0.205,0.97l0.307,0.938
					c0.127,0.299,0.271,0.589,0.404,0.886c0.066,0.149,0.169,0.27,0.25,0.406l0.258,0.4c0.079,0.14,0.201,0.23,0.298,0.35
					l0.306,0.343c0.105,0.108,0.238,0.171,0.354,0.262l0.355,0.259l-0.958,0.278c0.272-0.498,0.585-0.981,0.802-1.503
					c0.256-0.508,0.433-1.043,0.611-1.577l0.219-0.817l0.146-0.833c0.07-0.561,0.119-1.127,0.115-1.699
					c0.002-0.572-0.025-1.148-0.09-1.726c-0.05-0.578-0.144-1.157-0.236-1.738c-0.191-1.162-0.438-2.328-0.66-3.508
					c-0.114-0.588-0.208-1.183-0.297-1.778l-0.127-0.918l-0.062-0.894c-0.072-0.583,0.004-1.229,0.017-1.841
					c0.057-0.611,0.155-1.213,0.267-1.81c0.164-0.586,0.266-1.187,0.494-1.75c0.191-0.574,0.405-1.138,0.672-1.68
					c0.23-0.557,0.538-1.075,0.826-1.602C73.264,196.98,73.603,196.512,73.91,196.027z M74.031,196.022
					c-0.3,0.515-0.638,1.007-0.906,1.538s-0.558,1.053-0.769,1.61c-0.246,0.543-0.439,1.105-0.609,1.676
					c-0.207,0.56-0.287,1.153-0.43,1.729c-0.092,0.586-0.17,1.178-0.206,1.769c0.007,0.593-0.054,1.185,0.038,1.779
					c0.05,0.599,0.123,1.183,0.241,1.768c0.103,0.587,0.222,1.172,0.343,1.756c0.241,1.168,0.51,2.331,0.726,3.508
					c0.106,0.588,0.212,1.177,0.274,1.772c0.078,0.594,0.118,1.193,0.128,1.792c0.015,0.6-0.024,1.199-0.089,1.796l-0.139,0.89
					l-0.215,0.875c-0.179,0.571-0.359,1.146-0.617,1.688c-0.223,0.56-0.538,1.072-0.816,1.603l-0.038,0.071l-0.063-0.042
					l-0.451-0.305c-0.146-0.107-0.312-0.191-0.44-0.317l-0.373-0.395c-0.118-0.137-0.264-0.252-0.357-0.406l-0.298-0.452
					c-0.094-0.153-0.211-0.295-0.285-0.458c-0.151-0.327-0.312-0.648-0.455-0.979l-0.342-1.023l-0.23-1.053
					c-0.053-0.355-0.084-0.714-0.125-1.071c-0.014-0.358-0.002-0.72-0.004-1.08l0.025,0.066c-0.157-0.124-0.309-0.255-0.469-0.374
					l-0.517-0.313l-0.548-0.258c-0.188-0.069-0.38-0.127-0.57-0.192l0.084-0.023c-0.798,0.855-1.412,1.879-2.047,2.873
					c-0.629,1.003-1.252,2.014-1.938,2.983c-0.692,0.96-1.437,1.916-2.431,2.612c-0.496,0.339-1.093,0.578-1.717,0.565
					c-0.623-0.029-1.209-0.315-1.65-0.722c-0.464-0.385-0.862-0.877-1.061-1.454l-0.146-0.434c-0.041-0.146-0.037-0.301-0.057-0.45
					c-0.013-0.151-0.035-0.303-0.039-0.453l0.039-0.45c0.011-0.304,0.078-0.596,0.149-0.887c0.056-0.296,0.15-0.579,0.25-0.86
					c0.179-0.571,0.429-1.113,0.677-1.652c0.502-1.078,1.082-2.113,1.626-3.162c0.531-1.049,1.083-2.115,1.296-3.262l0.038,0.085
					c-0.443-0.277-0.97-0.42-1.495-0.518c-0.527-0.096-1.066-0.146-1.605-0.185c-1.078-0.077-2.164-0.096-3.248-0.225
					c-0.541-0.067-1.084-0.161-1.602-0.361c-0.514-0.187-1.023-0.553-1.195-1.119c-0.15-0.56-0.012-1.128,0.182-1.638
					c0.094-0.264,0.223-0.499,0.34-0.744c0.156-0.233,0.295-0.471,0.467-0.687c0.361-0.417,0.775-0.78,1.227-1.091
					c0.453-0.309,0.936-0.564,1.428-0.802c0.498-0.219,1.004-0.425,1.521-0.595c0.517-0.169,1.038-0.33,1.565-0.456
					c2.109-0.533,4.273-0.814,6.441-0.94l-0.045,0.022c0.285-0.303,0.559-0.618,0.855-0.91c0.311-0.276,0.606-0.57,0.929-0.833
					c0.326-0.257,0.642-0.529,0.977-0.773c0.337-0.243,0.666-0.496,1.009-0.73c1.359-0.952,2.766-1.831,4.137-2.76l0.021-0.015
					l0.023,0.007l3.617,1.017L74.031,196.022z"/>
			</g>
		</g>
		<g>
			<path fill="#F4530C" d="M130.824,201.007c-1.896-2.265-5.015-4.049-7.894-6.007c-1.174,0.355-2.358,0.687-3.554,0.995
				c2.16,3.29,3.434,7.169,2.808,11.075c-1.006,6.283-3.201,10.636,0.266,16.466c2.354-1.193,3.487-4.916,3.312-7.465
				c0.504-0.494,1.453-0.99,2.141-1.161c2.457,2.514,5.721,11.227,9.475,8.465c4.219-3.103-2.033-9.531-2.574-13.144
				c2.648-1.742,11.529,0.812,8.601-4.691C141.593,202.134,134.173,201.184,130.824,201.007z"/>
			<g>
				<path fill="#F4530C" d="M130.788,201.041c-0.295-0.293-0.576-0.6-0.879-0.88c-0.316-0.265-0.615-0.544-0.943-0.795
					c-0.332-0.245-0.65-0.505-0.992-0.738c-0.342-0.231-0.676-0.473-1.023-0.696c-1.382-0.905-2.812-1.741-4.221-2.636l0.305,0.046
					l-3.539,1.109l0.275-0.715c0.32,0.52,0.674,1.02,0.961,1.561c0.286,0.541,0.592,1.072,0.821,1.645
					c0.263,0.557,0.476,1.135,0.663,1.724c0.224,0.577,0.321,1.194,0.479,1.794c0.107,0.61,0.199,1.229,0.25,1.851
					c0.004,0.624,0.076,1.252-0.008,1.877c-0.041,0.628-0.111,1.261-0.217,1.835c-0.092,0.587-0.205,1.2-0.314,1.786l-0.67,3.501
					c-0.1,0.576-0.199,1.151-0.255,1.722c-0.07,0.572-0.104,1.14-0.11,1.704c-0.01,0.565,0.032,1.123,0.095,1.677l0.134,0.823
					l0.205,0.809c0.171,0.529,0.34,1.061,0.586,1.566c0.209,0.52,0.514,1.002,0.777,1.5l-1.094-0.317l0.348-0.247
					c0.113-0.087,0.242-0.145,0.347-0.25l0.304-0.331c0.098-0.116,0.219-0.203,0.298-0.341l0.254-0.395
					c0.081-0.135,0.183-0.253,0.247-0.4c0.131-0.295,0.274-0.582,0.4-0.878l0.304-0.931l0.204-0.961
					c0.044-0.323,0.068-0.648,0.105-0.971c0.01-0.321-0.005-0.638-0.002-0.956l0.003-0.474l0.259-0.218
					c0.195-0.164,0.395-0.336,0.596-0.484l0.606-0.373l0.637-0.303c0.228-0.088,0.469-0.164,0.704-0.241l0.472-0.155l0.388,0.399
					c0.482,0.497,0.838,1.012,1.188,1.52c0.344,0.509,0.663,1.019,0.978,1.523c0.628,1.012,1.235,2.01,1.894,2.946
					c0.653,0.926,1.373,1.825,2.176,2.389c0.402,0.277,0.801,0.416,1.16,0.415c0.338-0.003,0.777-0.205,1.061-0.471l0.328-0.299
					l0.164-0.149l0.066-0.126c0.082-0.173,0.228-0.284,0.274-0.522l0.112-0.313c0.033-0.107,0.025-0.231,0.043-0.346
					c0.01-0.117,0.031-0.231,0.037-0.352l-0.033-0.375c-0.002-0.247-0.061-0.506-0.123-0.766c-0.045-0.258-0.131-0.519-0.221-0.78
					c-0.158-0.522-0.396-1.045-0.63-1.565c-0.476-1.043-1.048-2.068-1.577-3.146c-0.519-1.086-1.084-2.174-1.316-3.532l-0.076-0.445
					l0.377-0.229c0.609-0.368,1.212-0.503,1.786-0.604c0.577-0.095,1.137-0.135,1.688-0.165c1.104-0.059,2.184-0.059,3.22-0.162
					c0.515-0.054,1.022-0.136,1.454-0.295c0.445-0.156,0.746-0.393,0.853-0.709c0.104-0.333,0.028-0.807-0.141-1.264
					c-0.075-0.232-0.194-0.461-0.298-0.691c-0.098-0.148-0.269-0.457-0.408-0.639c-0.285-0.346-0.648-0.697-1.066-1.004
					c-0.416-0.304-0.869-0.564-1.336-0.809c-0.477-0.228-0.961-0.444-1.463-0.627c-0.502-0.182-1.008-0.356-1.526-0.498
					c-2.065-0.593-4.212-0.942-6.368-1.137l-0.02-0.002L130.788,201.041z M130.848,200.959c2.16,0.127,4.315,0.407,6.417,0.938
					c0.528,0.127,1.049,0.287,1.564,0.457c0.518,0.17,1.021,0.375,1.521,0.594c0.491,0.237,0.973,0.493,1.425,0.801
					c0.451,0.31,0.864,0.671,1.228,1.093c0.171,0.216,0.303,0.442,0.462,0.677c0.117,0.247,0.248,0.487,0.34,0.747
					c0.191,0.507,0.33,1.074,0.181,1.629c-0.169,0.561-0.676,0.924-1.187,1.109c-0.516,0.2-1.059,0.294-1.6,0.361
					c-1.082,0.129-2.168,0.147-3.248,0.225c-0.539,0.039-1.078,0.089-1.606,0.185c-0.526,0.098-1.054,0.24-1.499,0.52l0.032-0.072
					c0.213,1.15,0.766,2.216,1.298,3.266c0.543,1.05,1.123,2.084,1.625,3.162c0.248,0.539,0.498,1.08,0.676,1.65
					c0.1,0.281,0.194,0.563,0.25,0.859c0.072,0.291,0.139,0.582,0.149,0.885l0.038,0.449c-0.004,0.15-0.025,0.301-0.037,0.451
					c-0.021,0.15-0.018,0.304-0.059,0.449l-0.145,0.433c-0.196,0.575-0.608,1.077-1.053,1.445c-0.447,0.412-1.027,0.694-1.646,0.725
					c-0.621,0.015-1.217-0.224-1.713-0.562c-0.994-0.692-1.741-1.647-2.436-2.606c-0.688-0.969-1.312-1.978-1.943-2.979
					c-0.637-0.992-1.254-2.015-2.05-2.868l0.095,0.027c-0.188,0.064-0.38,0.123-0.567,0.192l-0.546,0.256l-0.516,0.313
					c-0.16,0.118-0.311,0.249-0.467,0.372l0.029-0.076c-0.002,0.361,0.01,0.723-0.004,1.082c-0.043,0.357-0.073,0.717-0.125,1.072
					l-0.231,1.055l-0.343,1.023c-0.142,0.331-0.305,0.653-0.455,0.98c-0.075,0.164-0.192,0.306-0.286,0.459l-0.298,0.453
					c-0.095,0.154-0.24,0.27-0.358,0.407l-0.374,0.395c-0.129,0.127-0.295,0.212-0.441,0.319l-0.453,0.306l-0.074,0.049
					l-0.043-0.083c-0.28-0.531-0.596-1.044-0.818-1.604c-0.258-0.542-0.439-1.118-0.617-1.69l-0.216-0.876l-0.14-0.891
					c-0.063-0.598-0.104-1.198-0.088-1.799c0.01-0.6,0.051-1.199,0.127-1.793c0.062-0.596,0.17-1.186,0.275-1.774
					c0.217-1.176,0.484-2.34,0.727-3.508c0.12-0.585,0.238-1.167,0.342-1.755c0.119-0.588,0.191-1.175,0.241-1.767
					c0.092-0.589,0.03-1.186,0.038-1.778c-0.037-0.591-0.115-1.183-0.206-1.768c-0.143-0.576-0.223-1.17-0.43-1.729
					c-0.171-0.57-0.364-1.132-0.61-1.675c-0.211-0.557-0.5-1.078-0.768-1.609c-0.27-0.53-0.607-1.023-0.906-1.537l-0.043-0.072
					l0.079-0.022l3.552-0.991l0.028-0.008l0.022,0.016c1.37,0.933,2.775,1.814,4.135,2.77c0.342,0.235,0.671,0.489,1.008,0.732
					c0.334,0.245,0.649,0.519,0.975,0.776c0.322,0.263,0.619,0.558,0.93,0.836C130.302,200.353,130.568,200.661,130.848,200.959z"/>
			</g>
		</g>
	</g>
	<path fill="#F9C00B" stroke="#997308" stroke-width="1.122" stroke-miterlimit="10" d="M106.871,22.413
		c0.76-1.816,1.4-3.663,1.014-6.119c-1.186,1.386-2.623,2.238-3.818,3.602c0.035-1.802,0.061-3.627-0.055-5.405
		c-0.812,0.553-1.534,1.333-1.98,2.234c0.097-2.502-0.503-5.574-0.918-7.725c-1.598,3.553-3.646,7.662-5.881,11.092
		c-0.273,0.73-0.635,1.358-0.993,1.975c-0.126,0.006-0.253,0.009-0.379,0.015c0.465-0.626,0.921-1.298,1.372-1.989
		c0.109-0.291,0.206-0.595,0.28-0.925l-1.665,2.914C46.061,24.212,7.982,62.977,7.982,110.492c0,48.882,40.299,88.508,90.01,88.508
		C147.701,199,188,159.374,188,110.492C188,64.557,152.412,26.799,106.871,22.413z"/>
	<g>
		<ellipse fill="#FCFCFC" stroke="#020200" stroke-miterlimit="10" cx="64" cy="74" rx="16" ry="15"/>
		<ellipse fill="#020200" stroke="#020200" stroke-width="0.5477" stroke-miterlimit="10" cx="64" cy="74" rx="9" ry="8"/>
		<ellipse fill="#FCFCFC" stroke="#020200" stroke-miterlimit="10" cx="129" cy="73" rx="16" ry="15"/>
		<ellipse fill="#020200" stroke="#020200" stroke-width="0.5477" stroke-miterlimit="10" cx="129" cy="73" rx="9" ry="8"/>
	</g>
	<g>
		<g>
			<path fill="#F4530C" d="M97.416,79.269c-8.772-1.331-11.598,14.206-14.591,19.755c-3.411,6.322-12.048,8.215-11.591,16.201
				c0.415,7.21,6.463,7.636,12.447,8.25c6.176,0.634,8.689,5.712,14.163,6.438"/>
			<path d="M97.411,79.318c0,0-0.31-0.036-0.888-0.065c-0.569,0.003-1.431,0.058-2.427,0.464c-0.998,0.395-2.086,1.167-3.066,2.301
				c-0.993,1.122-1.897,2.572-2.718,4.23c-0.831,1.656-1.573,3.526-2.313,5.522c-0.744,1.996-1.449,4.13-2.381,6.29
				c-0.935,2.189-2.546,4.135-4.395,5.758c-1.812,1.664-3.831,3.139-5.369,5.007c-1.588,1.819-2.354,4.221-2.133,6.519
				c0.104,1.26,0.382,2.293,0.897,3.299c0.517,0.981,1.31,1.764,2.243,2.318c1.889,1.119,4.134,1.445,6.209,1.748
				c1.055,0.154,2.061,0.234,3.094,0.396c0.979,0.118,2.015,0.464,2.882,0.806c1.771,0.757,3.172,1.804,4.394,2.686
				c1.223,0.891,2.293,1.636,3.24,2.141c0.465,0.27,0.914,0.437,1.295,0.608c0.396,0.126,0.73,0.256,1.01,0.324
				c0.564,0.126,0.865,0.193,0.865,0.193l-0.012,0.1c0,0-0.31-0.047-0.889-0.133c-0.29-0.05-0.637-0.156-1.053-0.257
				c-0.398-0.146-0.874-0.286-1.369-0.526c-1.012-0.438-2.154-1.142-3.413-1.979c-1.261-0.835-2.687-1.752-4.365-2.421
				c-0.872-0.305-1.693-0.576-2.716-0.678c-0.953-0.124-2.02-0.183-3.08-0.308c-1.069-0.107-2.174-0.269-3.294-0.537
				c-1.115-0.271-2.269-0.628-3.335-1.272c-1.062-0.64-2.004-1.589-2.59-2.737c-0.588-1.119-0.883-2.488-0.949-3.664
				c-0.215-2.586,0.73-5.242,2.455-7.139c1.66-1.95,3.721-3.395,5.523-5.007c1.841-1.569,3.389-3.391,4.325-5.484
				c0.948-2.1,1.681-4.235,2.47-6.219c0.782-1.988,1.568-3.856,2.441-5.514c0.862-1.658,1.809-3.112,2.846-4.237
				c1.022-1.136,2.155-1.907,3.188-2.291c1.031-0.396,1.911-0.436,2.498-0.425c0.582,0.041,0.889,0.083,0.889,0.083L97.411,79.318z"
				/>
		</g>
		<g>
			<path fill="#F4530C" d="M97.429,79.08c8.772-1.331,11.598,14.206,14.591,19.755c3.411,6.322,12.047,8.215,11.59,16.201
				c-0.414,7.21-6.462,7.636-12.446,8.25c-6.177,0.634-8.689,5.712-14.163,6.438"/>
			<path d="M97.424,79.03c0,0,0.308-0.042,0.889-0.083c0.587-0.01,1.467,0.028,2.498,0.424c1.032,0.385,2.165,1.156,3.188,2.292
				c1.035,1.125,1.982,2.579,2.846,4.237c0.872,1.656,1.658,3.525,2.44,5.514c0.789,1.983,1.521,4.119,2.47,6.219
				c0.936,2.094,2.484,3.915,4.325,5.484c1.802,1.611,3.862,3.057,5.523,5.007c1.724,1.896,2.669,4.553,2.454,7.139
				c-0.066,1.176-0.36,2.545-0.948,3.663c-0.586,1.149-1.528,2.099-2.59,2.738c-1.067,0.645-2.22,1.001-3.335,1.272
				c-1.121,0.269-2.225,0.43-3.294,0.537c-1.06,0.125-2.128,0.184-3.08,0.308c-1.022,0.102-1.844,0.373-2.716,0.678
				c-1.679,0.669-3.105,1.586-4.365,2.421c-1.26,0.837-2.402,1.541-3.414,1.979c-0.494,0.241-0.97,0.38-1.369,0.526
				c-0.415,0.101-0.762,0.207-1.051,0.256c-0.58,0.087-0.889,0.134-0.889,0.134l-0.014-0.1c0,0,0.301-0.067,0.865-0.193
				c0.28-0.068,0.613-0.198,1.01-0.324c0.381-0.173,0.83-0.339,1.297-0.608c0.947-0.505,2.018-1.25,3.239-2.141
				c1.222-0.882,2.622-1.929,4.394-2.686c0.867-0.342,1.904-0.688,2.881-0.806c1.034-0.162,2.04-0.242,3.095-0.396
				c2.075-0.303,4.32-0.629,6.208-1.748c0.934-0.555,1.728-1.337,2.244-2.317c0.516-1.007,0.793-2.04,0.896-3.3
				c0.221-2.298-0.545-4.699-2.133-6.519c-1.537-1.868-3.557-3.343-5.368-5.008c-1.849-1.622-3.46-3.568-4.395-5.758
				c-0.933-2.159-1.638-4.293-2.382-6.289c-0.739-1.996-1.482-3.867-2.312-5.522c-0.82-1.658-1.725-3.108-2.718-4.23
				c-0.981-1.134-2.068-1.906-3.065-2.301c-0.996-0.406-1.858-0.461-2.428-0.464c-0.578,0.029-0.888,0.065-0.888,0.065L97.424,79.03
				z"/>
		</g>
	</g>
	<g>
		<g>
			<path fill="#997308" d="M145.655,124.041c-2.188,2.23-4.558,4.283-6.91,6.332c-2.359,2.046-4.713,4.092-6.969,6.227
				c-2.266,2.118-4.456,4.32-6.339,6.745c-0.948,1.205-1.821,2.464-2.558,3.789c-0.744,1.318-1.385,2.693-1.803,4.126
				c-0.428,1.428-0.679,2.896-0.708,4.37c-0.014,1.474,0.187,2.941,0.565,4.372c0.246,0.7,0.426,1.422,0.754,2.096l0.441,1.006
				l0.539,1.031c0.707,1.235,1.589,2.515,2.67,3.178c1.064,0.697,2.289,0.609,3.525-0.037c1.229-0.627,2.375-1.631,3.477-2.669
				c2.214-2.104,4.242-4.52,6.744-6.582l1.2,1.592c-0.339,0.253-0.688,0.49-1.021,0.754c-0.323,0.276-0.661,0.536-0.974,0.826
				c-0.306,0.297-0.626,0.58-0.92,0.888c-0.284,0.315-0.58,0.623-0.856,0.944l-0.779,0.998l-0.681,1.051l-0.556,1.098l-0.396,1.132
				l-0.051-0.616l0.447,0.9c0.133,0.315,0.346,0.554,0.513,0.836c0.163,0.291,0.386,0.503,0.589,0.739
				c0.191,0.26,0.444,0.405,0.669,0.6c0.226,0.199,0.499,0.267,0.739,0.42c0.275,0.038,0.523,0.188,0.811,0.166l0.42,0.021
				c0.143-0.011,0.288-0.045,0.432-0.063c0.29-0.015,0.58-0.149,0.871-0.237c0.293-0.092,0.572-0.274,0.861-0.403
				c0.28-0.162,0.552-0.357,0.83-0.532c0.534-0.403,1.053-0.84,1.541-1.326c0.255-0.228,0.475-0.503,0.713-0.751
				c0.24-0.249,0.461-0.52,0.68-0.792c0.453-0.529,0.854-1.11,1.271-1.675l1.301,1.121c-1.195,1.122-2.31,2.444-2.566,3.876
				c-0.126,0.702-0.005,1.392,0.381,1.967c0.377,0.58,0.998,1.041,1.709,1.33c1.428,0.59,3.156,0.554,4.641-0.032
				c0.377-0.142,0.73-0.331,1.076-0.536c0.275-0.201,0.702-0.502,1.008-0.76c0.291-0.285,0.592-0.545,0.88-0.848l0.847-0.957
				c0.53-0.676,1.053-1.36,1.529-2.084c0.496-0.709,0.953-1.451,1.396-2.198c0.442-0.75,0.863-1.514,1.259-2.292
				c0.403-0.773,0.773-1.566,1.136-2.361c0.355-0.799,0.697-1.604,1.006-2.423c0.319-0.814,0.602-1.645,0.863-2.479
				c0.267-0.835,0.48-1.683,0.68-2.536l0.23-1.292c0.057-0.434,0.086-0.87,0.131-1.307l0.111,0.002
				c-0.032,0.44-0.051,0.883-0.096,1.321l-0.199,1.309c-0.176,0.864-0.37,1.724-0.615,2.57c-0.241,0.848-0.504,1.689-0.803,2.518
				c-0.289,0.833-0.612,1.652-0.949,2.467c-0.344,0.811-0.695,1.619-1.082,2.41c-0.377,0.796-0.781,1.578-1.209,2.349
				c-0.43,0.77-0.872,1.533-1.357,2.269c-0.471,0.746-0.997,1.454-1.53,2.157l-0.862,1.006c-0.301,0.324-0.632,0.624-0.946,0.937
				c-0.337,0.288-0.687,0.542-1.048,0.812c-0.377,0.233-0.768,0.45-1.182,0.613c-1.64,0.674-3.542,0.76-5.209,0.11
				c-0.827-0.322-1.6-0.854-2.107-1.601c-0.521-0.737-0.705-1.692-0.558-2.574c0.144-0.888,0.542-1.71,1.042-2.44
				c0.502-0.733,1.105-1.387,1.745-1.998l0.134,0.114c-0.428,0.587-0.838,1.188-1.308,1.744c-0.226,0.284-0.454,0.567-0.706,0.831
				c-0.25,0.264-0.477,0.55-0.746,0.796c-0.514,0.518-1.067,0.991-1.648,1.434c-0.307,0.198-0.604,0.412-0.92,0.597
				c-0.332,0.155-0.643,0.355-0.992,0.473c-0.35,0.111-0.689,0.264-1.061,0.296c-0.184,0.026-0.365,0.065-0.549,0.08l-0.556-0.021
				c-0.374,0.017-0.724-0.152-1.087-0.222c-0.32-0.181-0.686-0.296-0.97-0.534c-0.284-0.233-0.602-0.436-0.827-0.729
				c-0.243-0.275-0.507-0.536-0.691-0.854c-0.189-0.312-0.433-0.595-0.578-0.931l-0.492-0.979l-0.018-0.033l0.012-0.033
				c0.146-0.428,0.286-0.859,0.44-1.285l0.604-1.213l0.729-1.141l0.826-1.07c0.291-0.343,0.602-0.67,0.9-1.006
				c0.311-0.326,0.645-0.628,0.967-0.943c0.328-0.307,0.684-0.585,1.023-0.879c0.352-0.281,0.723-0.538,1.084-0.809l0.132,0.176
				c-2.383,2.003-4.437,4.366-6.708,6.518c-1.143,1.062-2.334,2.111-3.748,2.827c-0.704,0.353-1.479,0.608-2.281,0.624
				c-0.801,0.021-1.598-0.231-2.266-0.66c-1.353-0.867-2.24-2.233-3.014-3.586c-0.755-1.364-1.334-2.841-1.787-4.338
				c-0.395-1.52-0.599-3.086-0.573-4.656c0.038-1.571,0.343-3.125,0.813-4.618c0.463-1.499,1.153-2.918,1.942-4.268
				c0.782-1.355,1.696-2.632,2.683-3.845c1.957-2.441,4.204-4.629,6.516-6.726c2.322-2.089,4.735-4.071,7.146-6.054
				c2.407-1.986,4.819-3.967,7.063-6.137L145.655,124.041z"/>
		</g>
		<g>
			<path fill="#997308" d="M55.421,123.96c2.298,2.114,4.756,4.029,7.212,5.956c2.458,1.923,4.925,3.846,7.308,5.889
				c2.352,2.076,4.646,4.248,6.667,6.7c1.017,1.218,1.966,2.505,2.788,3.885c0.827,1.372,1.559,2.826,2.062,4.379
				c0.505,1.545,0.858,3.167,0.903,4.818c0.033,1.648-0.176,3.295-0.584,4.887c-0.26,0.774-0.459,1.576-0.807,2.314
				c-0.164,0.382-0.303,0.735-0.491,1.14l-0.534,1.049c-0.415,0.734-0.836,1.444-1.369,2.107c-0.514,0.67-1.14,1.308-1.923,1.808
				c-0.772,0.503-1.755,0.821-2.726,0.797c-0.972-0.017-1.865-0.318-2.645-0.704c-1.563-0.789-2.789-1.876-3.965-2.956
				c-2.316-2.189-4.389-4.515-6.678-6.468l1.2-1.592c0.378,0.284,0.767,0.557,1.133,0.853c0.354,0.308,0.724,0.6,1.065,0.921
				c0.334,0.33,0.682,0.646,1.004,0.988c0.312,0.352,0.635,0.693,0.938,1.055l0.863,1.127l0.768,1.212l0.645,1.307
				c0.169,0.464,0.321,0.938,0.477,1.407l0.104,0.313l-0.154,0.304l-0.529,1.041c-0.155,0.353-0.422,0.673-0.631,1.008
				c-0.201,0.341-0.497,0.641-0.772,0.947c-0.253,0.321-0.622,0.567-0.955,0.833c-0.331,0.271-0.771,0.425-1.155,0.628
				c-0.435,0.095-0.865,0.279-1.311,0.267l-0.666,0.02c-0.217-0.017-0.428-0.061-0.642-0.093c-0.438-0.045-0.817-0.212-1.216-0.343
				c-0.395-0.137-0.732-0.352-1.099-0.528c-0.344-0.202-0.661-0.432-0.992-0.649c-0.619-0.473-1.202-0.978-1.736-1.52
				c-0.282-0.26-0.515-0.555-0.774-0.831c-0.26-0.275-0.494-0.568-0.727-0.863c-0.483-0.577-0.901-1.193-1.338-1.799l1.302-1.121
				c0.671,0.641,1.298,1.345,1.833,2.145c0.531,0.799,0.971,1.716,1.127,2.754c0.164,1.027-0.07,2.195-0.701,3.062
				c-0.617,0.879-1.51,1.467-2.431,1.813c-1.858,0.695-3.899,0.566-5.659-0.179c-0.443-0.183-0.861-0.42-1.265-0.677
				c-0.429-0.324-0.716-0.542-1.077-0.854c-0.334-0.335-0.688-0.664-0.996-1.008l-0.873-1.044c-0.534-0.726-1.062-1.453-1.526-2.218
				c-0.474-0.758-0.901-1.54-1.316-2.327c-0.412-0.788-0.801-1.587-1.161-2.397c-0.369-0.806-0.703-1.628-1.029-2.451
				c-0.317-0.827-0.622-1.658-0.891-2.502c-0.281-0.839-0.523-1.691-0.744-2.547c-0.227-0.855-0.399-1.725-0.555-2.595l-0.167-1.316
				c-0.034-0.441-0.042-0.885-0.063-1.325l0.111-0.002c0.034,0.437,0.053,0.875,0.098,1.311l0.2,1.3
				c0.177,0.86,0.371,1.716,0.617,2.56c0.241,0.844,0.505,1.684,0.804,2.509c0.289,0.83,0.613,1.646,0.95,2.458
				c1.37,3.23,3.019,6.371,5.173,9.145l0.857,0.996c0.297,0.32,0.621,0.611,0.93,0.919c0.33,0.281,0.696,0.546,1.039,0.802
				c0.369,0.229,0.752,0.439,1.157,0.599c1.606,0.658,3.472,0.737,5.093,0.102c0.804-0.313,1.546-0.83,2.029-1.543
				c0.497-0.705,0.669-1.608,0.527-2.455c-0.14-0.854-0.526-1.654-1.018-2.37c-0.494-0.718-1.091-1.362-1.724-1.966l0.134-0.114
				c0.426,0.582,0.834,1.179,1.301,1.729c0.225,0.282,0.452,0.563,0.701,0.824c0.248,0.261,0.475,0.544,0.741,0.786
				c0.509,0.512,1.057,0.979,1.629,1.413c0.302,0.193,0.594,0.404,0.903,0.584c0.323,0.15,0.629,0.347,0.967,0.459
				c0.34,0.106,0.669,0.256,1.025,0.284c0.176,0.024,0.35,0.062,0.525,0.076l0.53-0.021c0.358,0.018,0.688-0.147,1.034-0.211
				c0.305-0.176,0.652-0.282,0.925-0.514c0.272-0.226,0.577-0.417,0.796-0.704c0.236-0.268,0.491-0.519,0.672-0.832
				c0.186-0.307,0.422-0.581,0.564-0.913l0.484-0.963l-0.006,0.066c-0.146-0.418-0.282-0.84-0.434-1.255l-0.595-1.19l-0.72-1.123
				l-0.816-1.056c-0.289-0.338-0.597-0.661-0.894-0.993c-0.307-0.322-0.639-0.62-0.957-0.932c-0.325-0.304-0.678-0.578-1.015-0.868
				c-0.348-0.277-0.715-0.531-1.07-0.798l0.132-0.176c2.409,2.013,4.454,4.391,6.714,6.532c1.135,1.058,2.315,2.099,3.693,2.798
				c0.686,0.345,1.431,0.591,2.192,0.605c0.761,0.021,1.514-0.215,2.156-0.626c1.3-0.827,2.188-2.176,2.948-3.506
				c0.76-1.368,1.326-2.811,1.779-4.298c0.393-1.503,0.598-3.051,0.575-4.603c-0.035-1.554-0.335-3.091-0.798-4.571
				c-0.457-1.485-1.139-2.895-1.922-4.237c-0.775-1.349-1.683-2.619-2.662-3.829c-1.947-2.435-4.185-4.621-6.489-6.719
				c-2.315-2.089-4.724-4.074-7.132-6.061c-2.402-1.99-4.817-3.978-7.059-6.152L55.421,123.96z"/>
		</g>
	</g>
</g>
</svg>
