<?xml version="1.0" encoding="utf-8"?>
<!-- Generator: Adobe Illustrator 16.0.0, SVG Export Plug-In . SVG Version: 6.00 Build 0)  -->
<!DOCTYPE svg PUBLIC "-//W3C//DTD SVG 1.1//EN" "http://www.w3.org/Graphics/SVG/1.1/DTD/svg11.dtd">
<svg version="1.1" xmlns="http://www.w3.org/2000/svg" xmlns:xlink="http://www.w3.org/1999/xlink" x="0px" y="0px" width="200px"
	 height="235px" viewBox="0 0 200 235" enable-background="new 0 0 200 235" xml:space="preserve">
<g id="Ext">
</g>
<g id="Guides">
</g>
<g id="_x31_2_Col_Grid_1_" display="none" enable-background="new    ">
	<g id="Rectangle_xA0_Image_23_" display="inline" opacity="0.102">
	</g>
	<g id="Rectangle_xA0_Image_21_" display="inline" opacity="0.102">
	</g>
	<g id="Rectangle_xA0_Image_19_" display="inline" opacity="0.102">
	</g>
	<g id="Rectangle_xA0_Image_17_" display="inline" opacity="0.102">
	</g>
	<g id="Rectangle_xA0_Image_15_" display="inline" opacity="0.102">
	</g>
	<g id="Rectangle_xA0_Image_13_" display="inline" opacity="0.102">
	</g>
	<g id="Rectangle_xA0_Image_11_" display="inline" opacity="0.102">
	</g>
	<g id="Rectangle_xA0_Image_9_" display="inline" opacity="0.102">
	</g>
	<g id="Rectangle_xA0_Image_7_" display="inline" opacity="0.102">
	</g>
	<g id="Rectangle_xA0_Image_5_" display="inline" opacity="0.102">
	</g>
	<g id="Rectangle_xA0_Image_3_" display="inline" opacity="0.102">
	</g>
	<g id="Rectangle_xA0_Image_1_" display="inline" opacity="0.102">
	</g>
</g>
<g id="Bg">
</g>
<g id="main">
	<g id="Progress">
	</g>
	<g id="Text">
	</g>
</g>
<g id="pane">
</g>
<g id="browserhead">
	<g>
		<path fill="#FEFEFF" d="M120.183,189.361c2.067,5.702,10.507,8.291,14.229,12.736c3.349,0.177,10.769,1.127,12.58,4.533
			c2.929,5.504-5.952,2.949-8.601,4.691c0.541,3.612,6.793,10.041,2.574,13.144c-3.754,2.762-7.018-5.951-9.475-8.465
			c-0.688,0.171-1.637,0.667-2.141,1.161c0.175,2.549-0.959,6.271-3.312,7.465c-3.467-5.83-1.271-10.183-0.266-16.466
			c0.877-5.477-1.969-10.905-5.771-14.721c0.514-0.378,1.178-0.852,1.807-1.054"/>
		<path d="M120.234,189.339c0.179,0.36,0.342,0.732,0.533,1.083c0.227,0.329,0.422,0.672,0.667,0.984
			c0.263,0.302,0.495,0.625,0.778,0.905c0.288,0.275,0.551,0.573,0.857,0.829c1.191,1.061,2.521,1.955,3.877,2.812
			c1.357,0.856,2.751,1.67,4.112,2.569c0.683,0.448,1.345,0.935,1.991,1.454c0.322,0.259,0.627,0.549,0.941,0.823
			c0.302,0.291,0.587,0.606,0.881,0.911l-0.43-0.215c2.205,0.093,4.397,0.341,6.571,0.852c0.544,0.121,1.084,0.278,1.622,0.445
			c0.539,0.168,1.07,0.374,1.6,0.597c0.525,0.243,1.045,0.509,1.545,0.839c0.5,0.332,0.973,0.731,1.397,1.212
			c0.21,0.258,0.366,0.506,0.575,0.829c0.123,0.249,0.245,0.454,0.375,0.791c0.228,0.605,0.434,1.294,0.213,2.156
			c-0.133,0.424-0.396,0.807-0.709,1.081c-0.311,0.251-0.642,0.439-0.953,0.553c-0.63,0.245-1.221,0.343-1.795,0.419
			c-1.145,0.141-2.236,0.163-3.289,0.244c-0.523,0.04-1.038,0.091-1.514,0.181c-0.473,0.087-0.914,0.228-1.183,0.401l0.407-0.91
			c0.098,0.459,0.252,0.953,0.48,1.461c0.218,0.506,0.479,1.018,0.746,1.531c0.539,1.03,1.131,2.073,1.656,3.187
			c0.26,0.559,0.523,1.121,0.722,1.739c0.108,0.302,0.21,0.607,0.276,0.941c0.081,0.322,0.156,0.648,0.174,1.007l0.045,0.525
			c-0.004,0.182-0.026,0.369-0.041,0.554c-0.023,0.185-0.024,0.37-0.073,0.554l-0.179,0.554c-0.253,0.732-0.762,1.367-1.318,1.832
			l-0.207,0.187l-0.014,0.012l-0.006,0.006l-0.061,0.042l-0.023,0.015l-0.046,0.03l-0.093,0.061l-0.188,0.119l-0.308,0.151
			c-0.416,0.199-0.815,0.276-1.258,0.306c-0.881,0.02-1.664-0.324-2.247-0.726c-1.169-0.83-1.927-1.848-2.646-2.846
			c-0.706-1.006-1.331-2.033-1.952-3.033c-0.618-0.985-1.243-2.011-1.921-2.742l0.89,0.253c-0.15,0.054-0.301,0.097-0.454,0.151
			l-0.472,0.218l-0.439,0.264c-0.126,0.094-0.234,0.189-0.358,0.279l0.272-0.717c-0.001,0.396,0.01,0.795-0.008,1.188
			c-0.047,0.386-0.082,0.774-0.141,1.157l-0.254,1.132l-0.373,1.104c-0.156,0.358-0.334,0.711-0.502,1.065
			c-0.083,0.178-0.213,0.339-0.318,0.509l-0.334,0.501c-0.107,0.17-0.273,0.31-0.409,0.464l-0.433,0.449
			c-0.15,0.144-0.348,0.252-0.521,0.377l-0.541,0.355l-0.701,0.459l-0.437-0.789c-0.354-0.643-0.702-1.289-0.966-1.981
			c-0.272-0.687-0.496-1.398-0.646-2.126c-0.312-1.453-0.342-2.951-0.189-4.388c0.32-2.881,1.176-5.529,1.65-8.229
			c0.106-0.584,0.143-1.354,0.219-2.021c0.034-0.681-0.066-1.307-0.072-1.971c-0.068-0.657-0.235-1.319-0.347-1.983
			c-0.173-0.652-0.409-1.29-0.61-1.94c-0.26-0.628-0.559-1.242-0.838-1.868c-0.33-0.599-0.688-1.185-1.031-1.78l-1.199-1.682
			l-1.348-1.574l-0.093-0.108l0.106-0.074c0.289-0.2,0.587-0.391,0.891-0.573c0.309-0.176,0.632-0.323,0.971-0.437l0.035,0.107
			c-0.324,0.119-0.633,0.271-0.93,0.453c-0.293,0.188-0.58,0.386-0.859,0.594l0.006-0.088l1.409,1.543l1.268,1.662
			c0.368,0.592,0.749,1.175,1.105,1.773c0.304,0.627,0.63,1.245,0.916,1.88c0.229,0.658,0.492,1.307,0.692,1.974
			c0.139,0.684,0.332,1.357,0.428,2.049c0.037,0.697,0.148,1.398,0.123,2.093c-0.065,0.694-0.079,1.383-0.188,2.081
			c-0.433,2.75-1.237,5.433-1.492,8.193c-0.121,1.377-0.066,2.772,0.247,4.117c0.151,0.673,0.37,1.33,0.636,1.967
			c0.259,0.641,0.592,1.246,0.928,1.85l-0.116-0.033l0.433-0.295c0.14-0.104,0.299-0.183,0.424-0.306l0.359-0.383
			c0.113-0.133,0.255-0.243,0.346-0.395l0.29-0.441c0.091-0.15,0.204-0.287,0.278-0.448c0.146-0.32,0.305-0.637,0.444-0.96
			l0.333-1.006l0.227-1.036c0.05-0.35-0.047-0.702-0.006-1.053c0.012-0.352-0.125-0.704-0.125-1.057v-0.053l0.154-0.023
			c0.164-0.132,0.388-0.271,0.556-0.395l0.565-0.325l0.58-0.267c0.195-0.073,0.404-0.135,0.604-0.202l0.057-0.018l0.044,0.045
			c0.823,0.882,1.438,1.905,2.078,2.9c0.631,1.003,1.253,2.009,1.937,2.97c0.688,0.951,1.43,1.894,2.385,2.558
			c0.477,0.324,1.029,0.539,1.594,0.527c0.559-0.025,1.102-0.287,1.523-0.675c0.44-0.366,0.814-0.825,1-1.365l0.139-0.406
			c0.039-0.137,0.035-0.284,0.055-0.427c0.012-0.143,0.033-0.285,0.037-0.43l-0.037-0.433c-0.008-0.291-0.073-0.575-0.143-0.859
			c-0.054-0.287-0.146-0.565-0.243-0.842c-0.174-0.56-0.421-1.098-0.665-1.633c-0.496-1.07-1.072-2.104-1.617-3.158
			c-0.531-1.056-1.088-2.125-1.309-3.322l-0.012-0.062l0.055-0.034c0.482-0.301,1.027-0.443,1.564-0.543
			c0.539-0.097,1.084-0.146,1.625-0.184c1.085-0.075,2.17-0.092,3.24-0.218c0.533-0.065,1.068-0.157,1.562-0.349
			c0.493-0.18,0.944-0.512,1.097-1.008c0.136-0.496,0.012-1.039-0.175-1.529c-0.085-0.248-0.216-0.49-0.333-0.734
			c-0.146-0.213-0.281-0.448-0.445-0.654c-0.348-0.403-0.75-0.758-1.191-1.063c-0.443-0.303-0.918-0.556-1.402-0.791
			c-0.493-0.217-0.992-0.421-1.505-0.591c-0.513-0.169-1.028-0.33-1.554-0.456c-2.096-0.533-4.252-0.818-6.411-0.948l-0.03-0.002
			l-0.023-0.024c-0.273-0.292-0.536-0.595-0.82-0.878c-0.297-0.269-0.582-0.552-0.891-0.809c-0.617-0.515-1.259-1-1.915-1.465
			c-1.314-0.93-2.681-1.787-4.017-2.692c-1.334-0.904-2.65-1.852-3.824-2.968c-0.303-0.269-0.562-0.582-0.845-0.871
			c-0.278-0.294-0.506-0.632-0.761-0.946c-0.24-0.326-0.433-0.688-0.65-1.031c-0.182-0.36-0.332-0.734-0.5-1.102L120.234,189.339z"
			/>
	</g>
	<g>
		<path fill="#FEFEFF" d="M79.817,189.361c-2.067,5.702-10.507,8.291-14.229,12.736c-3.349,0.177-10.769,1.127-12.58,4.533
			c-2.929,5.504,5.952,2.949,8.601,4.691c-0.541,3.612-6.793,10.041-2.574,13.144c3.754,2.762,7.018-5.951,9.475-8.465
			c0.688,0.171,1.637,0.667,2.141,1.161c-0.175,2.549,0.959,6.271,3.312,7.465c3.467-5.83,1.271-10.183,0.266-16.466
			c-0.877-5.477,1.969-10.905,5.771-14.721c-0.514-0.378-1.178-0.852-1.807-1.054"/>
		<path d="M79.869,189.384c-0.156,0.372-0.295,0.751-0.467,1.116c-0.207,0.351-0.393,0.723-0.624,1.06
			c-0.247,0.323-0.468,0.672-0.739,0.977c-0.275,0.299-0.529,0.624-0.826,0.903c-1.15,1.161-2.449,2.155-3.762,3.104
			c-1.314,0.948-2.653,1.847-3.927,2.807c-0.632,0.484-1.259,0.968-1.851,1.481c-0.297,0.256-0.567,0.534-0.852,0.799
			c-0.269,0.277-0.514,0.57-0.771,0.854l-0.178,0.195l-0.252,0.02c-2.121,0.163-4.25,0.481-6.282,1.037
			c-0.511,0.132-1.008,0.297-1.499,0.468c-0.492,0.172-0.963,0.375-1.428,0.589c-0.451,0.23-0.889,0.474-1.285,0.756
			c-0.395,0.283-0.738,0.603-1.023,0.944c-0.127,0.164-0.244,0.39-0.339,0.514c-0.11,0.24-0.249,0.513-0.298,0.688
			c-0.152,0.396-0.21,0.821-0.145,1.018c0.04,0.094,0.088,0.169,0.182,0.258c0.117,0.08,0.254,0.176,0.456,0.243
			c0.382,0.147,0.87,0.235,1.37,0.292c1.01,0.114,2.09,0.127,3.2,0.198c0.558,0.037,1.124,0.084,1.716,0.188
			c0.59,0.11,1.217,0.253,1.872,0.657l0.515,0.317l-0.107,0.593c-0.26,1.421-0.846,2.502-1.377,3.588
			c-0.549,1.074-1.113,2.1-1.586,3.135c-0.232,0.516-0.467,1.033-0.621,1.546c-0.09,0.257-0.174,0.513-0.217,0.764
			c-0.061,0.252-0.117,0.504-0.119,0.739l-0.031,0.359c0.005,0.114,0.025,0.221,0.035,0.331c0.016,0.106,0.008,0.225,0.039,0.324
			l0.105,0.288c0.133,0.386,0.398,0.704,0.745,0.991l0.12,0.114l0.008,0.008l0.003,0.004c-0.022-0.016,0.056,0.038-0.049-0.033
			l0.023,0.015l0.046,0.03l0.094,0.06l0.186,0.121c0.033,0.01,0.064,0.021,0.095,0.036c0.117,0.064,0.309,0.103,0.454,0.117
			c0.311,0.007,0.68-0.107,1.07-0.369c0.781-0.53,1.512-1.413,2.172-2.327c0.665-0.925,1.284-1.915,1.924-2.919
			c0.656-1.004,1.258-2.026,2.199-3.03l0.392-0.417l0.499,0.165c0.236,0.077,0.479,0.153,0.709,0.242l0.64,0.305l0.608,0.375
			c0.203,0.149,0.404,0.322,0.601,0.487l0.269,0.226l0.004,0.491c0.002,0.317-0.012,0.633-0.003,0.952
			c0.038,0.321,0.062,0.645,0.105,0.967l0.203,0.958l0.302,0.928c0.127,0.295,0.27,0.581,0.4,0.874
			c0.064,0.147,0.165,0.264,0.245,0.398l0.253,0.393c0.078,0.138,0.199,0.223,0.295,0.338l0.302,0.329
			c0.104,0.105,0.231,0.161,0.345,0.247l0.344,0.245l-1.138,0.33c0.319-0.574,0.642-1.146,0.899-1.743
			c0.26-0.596,0.477-1.208,0.629-1.837c0.316-1.256,0.393-2.568,0.299-3.898c-0.195-2.666-0.955-5.377-1.35-8.166
			c-0.107-0.788-0.103-1.413-0.159-2.128c-0.017-0.705,0.104-1.465,0.171-2.187c0.12-0.716,0.336-1.398,0.501-2.095
			c0.225-0.677,0.512-1.331,0.765-1.993c0.31-0.638,0.659-1.255,0.986-1.88c0.377-0.596,0.781-1.175,1.169-1.76l1.325-1.635
			l1.461-1.507l0.014,0.183c-0.273-0.217-0.553-0.421-0.839-0.617c-0.29-0.189-0.593-0.352-0.913-0.48l0.035-0.107
			c0.336,0.123,0.652,0.28,0.955,0.464c0.297,0.189,0.586,0.389,0.868,0.597l0.052,0.038l-0.045,0.05l-1.399,1.538l-1.257,1.655
			c-0.365,0.589-0.744,1.17-1.096,1.766c-0.301,0.623-0.624,1.237-0.906,1.868c-0.227,0.654-0.486,1.298-0.684,1.96
			c-0.137,0.677-0.327,1.347-0.42,2.029c-0.035,0.688-0.145,1.373-0.119,2.063c0.066,0.688,0.084,1.396,0.189,2.068
			c0.436,2.74,1.246,5.418,1.51,8.203c0.125,1.389,0.072,2.805-0.243,4.17c-0.151,0.683-0.373,1.35-0.64,1.995
			c-0.263,0.65-0.599,1.263-0.938,1.874l-0.045,0.083l-0.072-0.049l-0.453-0.306c-0.146-0.106-0.312-0.191-0.441-0.318l-0.373-0.395
			c-0.118-0.138-0.265-0.253-0.359-0.408l-0.297-0.452c-0.095-0.153-0.211-0.295-0.286-0.459c-0.151-0.327-0.313-0.649-0.456-0.98
			l-0.342-1.023l-0.232-1.055c-0.051-0.355-0.082-0.715-0.125-1.072c-0.014-0.359-0.002-0.721-0.003-1.082l0.028,0.076
			c-0.156-0.123-0.307-0.254-0.467-0.372l-0.515-0.313l-0.547-0.257c-0.188-0.069-0.379-0.127-0.567-0.191l0.094-0.027
			c-0.795,0.854-1.409,1.878-2.045,2.871c-0.629,1.003-1.25,2.014-1.938,2.983c-0.693,0.961-1.438,1.918-2.435,2.615
			c-0.497,0.34-1.097,0.581-1.724,0.568c-0.627-0.029-1.217-0.316-1.658-0.726c-0.465-0.386-0.865-0.88-1.064-1.458l-0.146-0.436
			c-0.041-0.146-0.038-0.302-0.058-0.452c-0.013-0.151-0.035-0.303-0.039-0.454l0.039-0.451c0.011-0.305,0.078-0.597,0.15-0.889
			c0.056-0.296,0.15-0.58,0.25-0.861c0.179-0.571,0.43-1.113,0.677-1.653c0.503-1.078,1.082-2.113,1.626-3.162
			c0.531-1.049,1.084-2.115,1.295-3.259l0.043,0.097c-0.441-0.276-0.965-0.418-1.49-0.516c-0.527-0.096-1.064-0.146-1.604-0.185
			c-1.078-0.077-2.165-0.096-3.25-0.225c-0.541-0.068-1.085-0.161-1.604-0.362c-0.515-0.187-1.029-0.555-1.202-1.126
			c-0.151-0.564-0.012-1.135,0.183-1.646c0.093-0.266,0.222-0.501,0.339-0.746c0.157-0.233,0.296-0.472,0.469-0.688
			c0.362-0.419,0.776-0.782,1.229-1.094c0.453-0.309,0.936-0.564,1.428-0.803c0.5-0.219,1.005-0.425,1.523-0.595
			c0.517-0.169,1.037-0.33,1.566-0.457c2.109-0.532,4.273-0.813,6.442-0.94l-0.053,0.026c0.278-0.295,0.544-0.602,0.831-0.887
			c0.302-0.271,0.59-0.556,0.902-0.813c0.621-0.518,1.268-1.004,1.927-1.47c1.32-0.93,2.688-1.785,4.023-2.686
			c1.333-0.901,2.646-1.843,3.813-2.948c0.301-0.267,0.559-0.576,0.84-0.862c0.276-0.291,0.502-0.625,0.756-0.935
			c0.236-0.322,0.425-0.676,0.641-1.012c0.182-0.357,0.332-0.733,0.5-1.099L79.869,189.384z"/>
	</g>
	<path fill="#FDFDFE" stroke="#000000" stroke-width="1.122" stroke-miterlimit="10" d="M108.871,23.413
		c0.76-1.816,1.4-3.663,1.014-6.119c-1.185,1.386-2.623,2.238-3.818,3.602c0.035-1.802,0.061-3.627-0.055-5.405
		c-0.812,0.553-1.534,1.333-1.98,2.234c0.097-2.502-0.503-5.574-0.918-7.725c-1.598,3.553-3.646,7.662-5.881,11.092
		c-0.273,0.73-0.635,1.358-0.993,1.975c-0.126,0.006-0.253,0.009-0.379,0.015c0.465-0.626,0.921-1.298,1.372-1.989
		c0.109-0.291,0.206-0.595,0.28-0.925l-1.665,2.914C48.061,25.212,9.982,63.977,9.982,111.492c0,48.882,40.299,88.508,90.01,88.508
		C149.701,200,190,160.374,190,111.492C190,65.557,154.412,27.799,108.871,23.413z"/>
	<g>
		<g>
			<ellipse fill="none" stroke="#020200" stroke-miterlimit="10" cx="66" cy="75" rx="16" ry="15"/>
			<ellipse fill="#020200" stroke="#020200" stroke-width="0.5477" stroke-miterlimit="10" cx="66" cy="75" rx="9" ry="8"/>
		</g>
		<g>
			<ellipse fill="none" stroke="#020200" stroke-miterlimit="10" cx="131" cy="74" rx="16" ry="15"/>
			<ellipse fill="#020200" stroke="#020200" stroke-width="0.5477" stroke-miterlimit="10" cx="131" cy="74" rx="9" ry="8"/>
		</g>
	</g>
	<g>
		<g>
			<path fill="#020200" d="M99.411,80.318c0,0-0.31-0.036-0.888-0.065c-0.569,0.003-1.432,0.058-2.428,0.464
				c-0.997,0.395-2.084,1.167-3.065,2.301c-0.993,1.122-1.897,2.572-2.718,4.23c-0.83,1.655-1.573,3.526-2.312,5.521
				c-0.744,1.997-1.449,4.131-2.382,6.29c-0.935,2.189-2.546,4.136-4.395,5.758c-1.812,1.665-3.831,3.14-5.368,5.007
				c-1.589,1.82-2.354,4.221-2.133,6.52c0.104,1.26,0.381,2.293,0.896,3.299c0.517,0.981,1.311,1.764,2.244,2.318
				c1.888,1.119,4.133,1.445,6.208,1.748c1.055,0.154,2.061,0.234,3.094,0.396c0.978,0.118,2.015,0.464,2.882,0.806
				c1.771,0.757,3.172,1.804,4.394,2.686c1.222,0.891,2.292,1.636,3.239,2.141c0.467,0.27,0.916,0.437,1.297,0.608
				c0.396,0.126,0.729,0.256,1.01,0.324c0.564,0.126,0.865,0.193,0.865,0.193l-0.014,0.1c0,0-0.309-0.047-0.889-0.133
				c-0.289-0.05-0.636-0.156-1.051-0.257c-0.399-0.146-0.875-0.286-1.37-0.526c-1.011-0.438-2.153-1.142-3.413-1.979
				c-1.26-0.835-2.688-1.752-4.365-2.421c-0.872-0.305-1.693-0.576-2.716-0.678c-0.952-0.124-2.021-0.183-3.08-0.308
				c-1.069-0.107-2.174-0.269-3.294-0.537c-1.115-0.271-2.268-0.628-3.335-1.272c-1.062-0.64-2.004-1.589-2.59-2.738
				c-0.588-1.118-0.882-2.487-0.948-3.664c-0.215-2.585,0.73-5.242,2.453-7.139c1.662-1.949,3.723-3.395,5.524-5.006
				c1.841-1.569,3.39-3.391,4.325-5.484c0.948-2.1,1.681-4.235,2.47-6.219c0.782-1.988,1.568-3.857,2.44-5.514
				c0.863-1.658,1.811-3.112,2.846-4.237c1.023-1.136,2.156-1.907,3.188-2.291c1.031-0.396,1.911-0.436,2.498-0.425
				c0.581,0.041,0.889,0.083,0.889,0.083L99.411,80.318z"/>
		</g>
		<g>
			<path fill="#020200" d="M100.424,80.03c0,0,0.307-0.042,0.889-0.083c0.587-0.01,1.467,0.028,2.498,0.424
				c1.032,0.385,2.165,1.156,3.188,2.292c1.037,1.125,1.982,2.579,2.846,4.237c0.873,1.656,1.659,3.525,2.441,5.514
				c0.789,1.983,1.521,4.119,2.469,6.219c0.937,2.094,2.484,3.915,4.326,5.484c1.803,1.611,3.862,3.057,5.523,5.006
				c1.724,1.896,2.67,4.554,2.455,7.139c-0.067,1.176-0.361,2.546-0.949,3.664c-0.586,1.149-1.528,2.099-2.59,2.738
				c-1.067,0.645-2.221,1.001-3.336,1.272c-1.119,0.269-2.224,0.43-3.293,0.537c-1.061,0.125-2.128,0.184-3.08,0.308
				c-1.022,0.102-1.844,0.373-2.716,0.678c-1.679,0.669-3.104,1.586-4.365,2.421c-1.259,0.837-2.401,1.541-3.413,1.979
				c-0.495,0.241-0.971,0.38-1.369,0.526c-0.416,0.101-0.763,0.207-1.053,0.256c-0.579,0.087-0.889,0.134-0.889,0.134l-0.012-0.1
				c0,0,0.301-0.067,0.865-0.193c0.279-0.068,0.613-0.198,1.01-0.324c0.381-0.172,0.83-0.339,1.295-0.608
				c0.947-0.505,2.018-1.25,3.24-2.141c1.222-0.882,2.622-1.929,4.394-2.686c0.866-0.342,1.903-0.688,2.882-0.806
				c1.033-0.163,2.039-0.242,3.094-0.396c2.075-0.303,4.32-0.629,6.209-1.748c0.934-0.555,1.727-1.337,2.242-2.318
				c0.516-1.006,0.795-2.04,0.897-3.299c0.221-2.298-0.544-4.699-2.132-6.519c-1.538-1.868-3.558-3.343-5.369-5.008
				c-1.85-1.622-3.46-3.568-4.395-5.758c-0.932-2.159-1.637-4.293-2.382-6.289c-0.739-1.996-1.482-3.867-2.312-5.522
				c-0.82-1.658-1.725-3.108-2.718-4.23c-0.98-1.134-2.068-1.906-3.066-2.301c-0.996-0.406-1.857-0.461-2.427-0.464
				c-0.578,0.029-0.888,0.065-0.888,0.065L100.424,80.03z"/>
		</g>
	</g>
	<g>
		<path d="M147.656,125.041c-2.188,2.23-4.559,4.283-6.912,6.332c-2.357,2.046-4.713,4.092-6.968,6.227
			c-2.266,2.118-4.456,4.32-6.339,6.745c-0.948,1.205-1.821,2.464-2.558,3.789c-0.744,1.318-1.386,2.693-1.802,4.126
			c-0.428,1.428-0.68,2.896-0.709,4.37c-0.014,1.474,0.187,2.941,0.565,4.373c0.247,0.699,0.427,1.421,0.754,2.095l0.442,1.006
			l0.538,1.031c0.707,1.235,1.589,2.515,2.671,3.178c1.064,0.697,2.287,0.609,3.523-0.037c1.23-0.627,2.377-1.631,3.479-2.669
			c2.213-2.104,4.24-4.52,6.743-6.582l1.2,1.592c-0.339,0.253-0.688,0.49-1.021,0.754c-0.323,0.276-0.661,0.536-0.974,0.826
			c-0.305,0.297-0.626,0.58-0.92,0.888c-0.284,0.315-0.58,0.623-0.856,0.944l-0.779,0.998l-0.681,1.051l-0.555,1.098l-0.396,1.132
			l-0.052-0.616l0.448,0.9c0.133,0.315,0.346,0.554,0.512,0.836c0.163,0.291,0.387,0.503,0.589,0.739
			c0.191,0.26,0.444,0.405,0.669,0.6c0.225,0.199,0.499,0.267,0.74,0.42c0.273,0.038,0.523,0.188,0.81,0.166l0.42,0.021
			c0.143-0.011,0.288-0.045,0.433-0.063c0.289-0.015,0.578-0.149,0.871-0.237c0.292-0.092,0.571-0.274,0.86-0.403
			c0.28-0.162,0.552-0.357,0.829-0.532c0.535-0.403,1.055-0.84,1.542-1.326c0.255-0.228,0.474-0.503,0.714-0.751
			c0.24-0.249,0.46-0.52,0.679-0.792c0.454-0.529,0.854-1.11,1.271-1.675l1.303,1.121c-1.197,1.122-2.311,2.444-2.567,3.876
			c-0.126,0.702-0.005,1.392,0.381,1.967c0.377,0.58,0.999,1.041,1.708,1.33c1.43,0.59,3.158,0.554,4.643-0.032
			c0.375-0.142,0.73-0.331,1.075-0.536c0.274-0.201,0.702-0.502,1.009-0.76c0.289-0.285,0.59-0.545,0.879-0.848l0.848-0.957
			c0.529-0.676,1.051-1.36,1.529-2.084c0.495-0.709,0.951-1.451,1.396-2.198c0.442-0.75,0.864-1.514,1.259-2.292
			c0.404-0.773,0.773-1.566,1.136-2.361c0.354-0.799,0.698-1.604,1.006-2.423c0.319-0.814,0.603-1.645,0.863-2.479
			c0.267-0.835,0.481-1.683,0.679-2.536l0.232-1.292c0.055-0.434,0.085-0.87,0.129-1.307l0.113,0.002
			c-0.033,0.44-0.053,0.883-0.098,1.321l-0.198,1.309c-0.177,0.864-0.37,1.724-0.616,2.57c-0.24,0.848-0.503,1.689-0.803,2.518
			c-0.288,0.833-0.611,1.652-0.947,2.467c-0.344,0.811-0.695,1.619-1.082,2.41c-0.378,0.796-0.783,1.578-1.211,2.349
			c-0.429,0.77-0.871,1.533-1.356,2.269c-0.471,0.746-0.997,1.454-1.53,2.157l-0.862,1.006c-0.3,0.324-0.632,0.624-0.946,0.937
			c-0.337,0.288-0.687,0.542-1.047,0.812c-0.379,0.233-0.769,0.45-1.182,0.613c-1.641,0.674-3.543,0.76-5.21,0.11
			c-0.827-0.322-1.599-0.854-2.108-1.601c-0.521-0.737-0.704-1.692-0.557-2.574c0.145-0.888,0.542-1.71,1.041-2.44
			c0.503-0.733,1.107-1.387,1.746-1.998l0.133,0.114c-0.428,0.587-0.837,1.188-1.307,1.744c-0.227,0.284-0.454,0.567-0.705,0.831
			c-0.25,0.264-0.478,0.55-0.747,0.796c-0.513,0.518-1.067,0.991-1.649,1.434c-0.307,0.198-0.604,0.412-0.918,0.597
			c-0.332,0.155-0.645,0.355-0.992,0.473c-0.352,0.111-0.689,0.264-1.062,0.296c-0.182,0.026-0.363,0.065-0.547,0.08l-0.557-0.021
			c-0.375,0.017-0.724-0.152-1.086-0.222c-0.322-0.181-0.688-0.296-0.971-0.534c-0.285-0.233-0.602-0.436-0.827-0.729
			c-0.243-0.275-0.507-0.536-0.69-0.854c-0.191-0.312-0.434-0.595-0.579-0.931l-0.493-0.979l-0.017-0.033l0.012-0.033
			c0.147-0.428,0.286-0.859,0.44-1.285l0.604-1.213l0.729-1.141l0.825-1.07c0.292-0.343,0.602-0.67,0.902-1.006
			c0.309-0.326,0.645-0.628,0.965-0.943c0.329-0.307,0.684-0.585,1.025-0.879c0.352-0.281,0.723-0.538,1.082-0.809l0.133,0.176
			c-2.383,2.003-4.438,4.367-6.707,6.518c-1.145,1.062-2.334,2.111-3.75,2.827c-0.703,0.353-1.477,0.608-2.279,0.624
			c-0.803,0.021-1.6-0.231-2.267-0.66c-1.353-0.867-2.24-2.233-3.013-3.586c-0.756-1.364-1.336-2.841-1.787-4.338
			c-0.395-1.52-0.6-3.086-0.574-4.656c0.037-1.571,0.344-3.125,0.812-4.618c0.464-1.499,1.154-2.918,1.943-4.268
			c0.783-1.355,1.697-2.632,2.683-3.845c1.958-2.441,4.204-4.629,6.516-6.726c2.323-2.089,4.735-4.071,7.146-6.054
			c2.406-1.986,4.82-3.967,7.062-6.137L147.656,125.041z"/>
	</g>
	<g>
		<path d="M57.422,124.96c2.297,2.114,4.755,4.029,7.211,5.956c2.459,1.923,4.926,3.846,7.309,5.89
			c2.352,2.075,4.645,4.248,6.666,6.699c1.018,1.218,1.967,2.505,2.788,3.885c0.827,1.373,1.56,2.826,2.062,4.379
			c0.506,1.545,0.859,3.167,0.903,4.818c0.034,1.649-0.175,3.296-0.583,4.887c-0.26,0.774-0.46,1.577-0.807,2.314
			c-0.164,0.382-0.303,0.736-0.491,1.141l-0.534,1.048c-0.415,0.734-0.836,1.444-1.369,2.107c-0.514,0.671-1.141,1.308-1.924,1.808
			c-0.772,0.503-1.755,0.822-2.726,0.797c-0.972-0.017-1.865-0.318-2.644-0.704c-1.564-0.789-2.789-1.876-3.966-2.956
			c-2.315-2.189-4.39-4.515-6.678-6.468l1.2-1.592c0.378,0.284,0.767,0.557,1.133,0.853c0.355,0.308,0.725,0.6,1.066,0.921
			c0.334,0.33,0.681,0.646,1.002,0.988c0.313,0.352,0.635,0.693,0.938,1.055l0.862,1.127l0.77,1.212l0.644,1.307
			c0.169,0.464,0.321,0.938,0.477,1.407l0.104,0.313l-0.155,0.304l-0.528,1.041c-0.156,0.353-0.422,0.673-0.632,1.008
			c-0.201,0.341-0.497,0.641-0.772,0.947c-0.254,0.321-0.621,0.567-0.955,0.833c-0.33,0.271-0.77,0.425-1.156,0.628
			c-0.434,0.095-0.863,0.279-1.31,0.267l-0.665,0.02c-0.217-0.017-0.429-0.061-0.643-0.093c-0.438-0.045-0.818-0.212-1.215-0.343
			c-0.396-0.137-0.732-0.352-1.1-0.528c-0.344-0.202-0.662-0.432-0.992-0.649c-0.619-0.473-1.202-0.978-1.736-1.52
			c-0.281-0.26-0.516-0.555-0.774-0.831c-0.261-0.275-0.495-0.568-0.728-0.863c-0.482-0.577-0.9-1.193-1.338-1.799l1.303-1.121
			c0.671,0.641,1.297,1.345,1.834,2.145c0.529,0.799,0.971,1.716,1.127,2.754c0.163,1.027-0.07,2.195-0.703,3.062
			c-0.615,0.879-1.509,1.467-2.43,1.813c-1.857,0.695-3.898,0.566-5.66-0.179c-0.443-0.183-0.861-0.42-1.264-0.677
			c-0.428-0.324-0.716-0.542-1.077-0.854c-0.333-0.335-0.688-0.664-0.997-1.008l-0.872-1.044c-0.534-0.726-1.063-1.453-1.526-2.218
			c-0.475-0.758-0.902-1.54-1.316-2.327c-0.412-0.788-0.801-1.587-1.161-2.397c-0.37-0.806-0.704-1.628-1.028-2.451
			c-0.318-0.827-0.623-1.658-0.893-2.502c-0.279-0.839-0.522-1.691-0.744-2.547c-0.225-0.855-0.398-1.725-0.554-2.595l-0.167-1.316
			c-0.034-0.441-0.042-0.885-0.064-1.325l0.113-0.002c0.033,0.437,0.052,0.875,0.098,1.311l0.199,1.3
			c0.177,0.86,0.371,1.716,0.617,2.56c0.242,0.844,0.504,1.684,0.805,2.509c0.289,0.83,0.612,1.646,0.949,2.458
			c1.369,3.23,3.019,6.371,5.174,9.145l0.857,0.996c0.297,0.32,0.621,0.611,0.93,0.919c0.33,0.281,0.695,0.546,1.037,0.802
			c0.371,0.229,0.753,0.439,1.158,0.599c1.605,0.658,3.473,0.737,5.092,0.102c0.805-0.313,1.547-0.83,2.031-1.543
			c0.496-0.705,0.668-1.608,0.526-2.455c-0.14-0.854-0.526-1.654-1.018-2.37c-0.493-0.718-1.091-1.362-1.724-1.966l0.134-0.114
			c0.427,0.582,0.835,1.179,1.302,1.729c0.225,0.282,0.451,0.563,0.7,0.824s0.474,0.544,0.741,0.786
			c0.509,0.512,1.057,0.979,1.629,1.413c0.302,0.193,0.594,0.404,0.902,0.584c0.324,0.15,0.629,0.347,0.968,0.459
			c0.339,0.106,0.669,0.256,1.025,0.284c0.175,0.024,0.351,0.062,0.526,0.076l0.529-0.021c0.357,0.018,0.688-0.147,1.033-0.211
			c0.307-0.176,0.654-0.282,0.926-0.514c0.273-0.226,0.578-0.417,0.797-0.704c0.234-0.268,0.49-0.519,0.67-0.832
			c0.186-0.307,0.423-0.581,0.565-0.913l0.483-0.963l-0.005,0.066c-0.146-0.418-0.282-0.84-0.433-1.255l-0.596-1.19l-0.72-1.123
			l-0.817-1.056c-0.288-0.338-0.596-0.661-0.893-0.993c-0.307-0.322-0.639-0.62-0.957-0.932c-0.326-0.304-0.678-0.578-1.016-0.868
			c-0.348-0.277-0.714-0.531-1.07-0.798l0.133-0.176c2.408,2.013,4.455,4.391,6.714,6.532c1.134,1.058,2.315,2.099,3.694,2.798
			c0.686,0.345,1.43,0.591,2.191,0.605c0.762,0.021,1.514-0.215,2.156-0.626c1.301-0.827,2.188-2.176,2.949-3.506
			c0.76-1.367,1.326-2.811,1.779-4.298c0.393-1.502,0.598-3.05,0.574-4.603c-0.035-1.554-0.334-3.091-0.797-4.571
			c-0.457-1.485-1.14-2.895-1.922-4.236c-0.775-1.35-1.684-2.62-2.663-3.83c-1.946-2.435-4.185-4.621-6.489-6.719
			c-2.316-2.089-4.725-4.074-7.131-6.061c-2.403-1.989-4.818-3.978-7.061-6.152L57.422,124.96z"/>
	</g>
</g>
</svg>
