<?xml version="1.0" encoding="utf-8"?>
<!-- Generator: Adobe Illustrator 16.0.0, SVG Export Plug-In . SVG Version: 6.00 Build 0)  -->
<!DOCTYPE svg PUBLIC "-//W3C//DTD SVG 1.1//EN" "http://www.w3.org/Graphics/SVG/1.1/DTD/svg11.dtd">
<svg version="1.1" id="Layer_1" xmlns="http://www.w3.org/2000/svg" xmlns:xlink="http://www.w3.org/1999/xlink" x="0px" y="0px"
	 width="200px" height="235px" viewBox="0 0 200 235" enable-background="new 0 0 200 235" xml:space="preserve">
<g id="Ext">
</g>
<g id="Guides">
</g>
<g id="_x31_2_Col_Grid_1_" display="none" enable-background="new    ">
	<g id="Rectangle_xA0_Image_23_" display="inline" opacity="0.102">
	</g>
	<g id="Rectangle_xA0_Image_21_" display="inline" opacity="0.102">
	</g>
	<g id="Rectangle_xA0_Image_19_" display="inline" opacity="0.102">
	</g>
	<g id="Rectangle_xA0_Image_17_" display="inline" opacity="0.102">
	</g>
	<g id="Rectangle_xA0_Image_15_" display="inline" opacity="0.102">
	</g>
	<g id="Rectangle_xA0_Image_13_" display="inline" opacity="0.102">
	</g>
	<g id="Rectangle_xA0_Image_11_" display="inline" opacity="0.102">
	</g>
	<g id="Rectangle_xA0_Image_9_" display="inline" opacity="0.102">
	</g>
	<g id="Rectangle_xA0_Image_7_" display="inline" opacity="0.102">
	</g>
	<g id="Rectangle_xA0_Image_5_" display="inline" opacity="0.102">
	</g>
	<g id="Rectangle_xA0_Image_3_" display="inline" opacity="0.102">
	</g>
	<g id="Rectangle_xA0_Image_1_" display="inline" opacity="0.102">
	</g>
</g>
<g id="Bg">
</g>
<g id="main">
	<g id="Progress">
	</g>
	<g id="Text">
	</g>
</g>
<g id="pane">
</g>
<g>
	<g>
		<path fill="#FFFFFF" d="M98.75,153.25c0,0,3.998,3.986,5.75,4.5c1.266,0.37,4.125,0.188,5.25-0.5
			c1.158-0.707,3.453-4.188,3.453-4.188"/>
		<path d="M98.82,153.18c0,0,0.304,0.1,0.793,0.297c0.487,0.2,1.17,0.498,1.924,0.896c0.381,0.193,0.797,0.388,1.199,0.634
			c0.412,0.202,0.861,0.452,1.261,0.657c0.2,0.094,0.416,0.21,0.604,0.291c0.075,0.012,0.146,0.025,0.215,0.044l0.098,0.043
			l0.047,0.022l0.023,0.014l0.004,0.001c0.025,0.008-0.225-0.058-0.115-0.028l0.014,0.002l0.025,0.004l0.415,0.071
			c0.155,0.032,0.183,0.002,0.278,0.011c0.129,0.01,0.383-0.002,0.617-0.005c0.473,0.023,0.959-0.003,1.424-0.044
			c0.431-0.068,0.927-0.081,1.15-0.152l0.092-0.016l0.024-0.003l0.012-0.001l0.007-0.001h0.002c0.03-0.021-0.248,0.171-0.127,0.089
			l0.082-0.054c0.108-0.073,0.225-0.136,0.338-0.196c0.224-0.124,0.289-0.191,0.453-0.286c0.139-0.063,0.33-0.27,0.502-0.379
			c0.182-0.125,0.354-0.254,0.52-0.388c0.664-0.518,1.266-0.954,1.703-1.245c0.439-0.293,0.715-0.45,0.715-0.45l0.168,0.109
			c0,0-0.605,0.964-1.639,2.326c-0.256,0.345-0.549,0.699-0.879,1.074c-0.363,0.373-0.67,0.756-1.215,1.004
			c-0.508,0.25-1.061,0.357-1.619,0.467c-0.562,0.082-1.136,0.141-1.713,0.144c-0.566-0.002-1.193-0.057-1.72-0.194
			c-0.293-0.109-0.539-0.242-0.804-0.361c-0.239-0.146-0.463-0.305-0.688-0.452c-0.45-0.299-0.84-0.64-1.229-0.938
			c-0.37-0.32-0.72-0.623-1.042-0.903c-1.268-1.144-2.061-1.959-2.061-1.959L98.82,153.18z"/>
	</g>
	<g>
		<ellipse stroke="#050500" stroke-miterlimit="10" cx="106.33" cy="137" rx="15" ry="5"/>
		<g>
			<g>
				<path fill="#442E24" d="M106.018,142.925c0,0-0.558,3.821,0,5c0.781,1.667,4.535,4.224,6.65,5c1.49,0.55,5.111,0.479,6.648,0
					c2.17-0.677,5.885-3.327,6.647-5c0.539-1.183,0-3.75,0-5"/>
				<path fill="#020200" d="M106.07,142.934c0,0,0.008,0.526,0.02,1.45c0.008,0.458,0.023,1.017,0.083,1.64
					c0.067,0.611,0.158,1.355,0.454,1.791c0.117,0.154,0.232,0.332,0.359,0.479c0.129,0.118,0.26,0.239,0.393,0.362
					c0.234,0.244,0.625,0.508,0.941,0.771c0.705,0.505,1.479,0.996,2.301,1.474c0.797,0.479,1.746,0.908,2.521,1.176
					c0.562,0.16,0.848,0.163,1.362,0.214c0.484,0.044,0.984,0.04,1.481,0.044c0.986-0.004,2.029-0.07,2.875-0.271l0.158-0.035
					c-0.053,0.021,0.092-0.032,0.125-0.047l0.361-0.135c0.256-0.08,0.475-0.175,0.663-0.271c0.399-0.175,0.813-0.394,1.226-0.634
					c0.813-0.474,1.586-0.969,2.283-1.479c0.318-0.274,0.688-0.519,0.945-0.801c0.139-0.14,0.275-0.272,0.41-0.406
					c0.113-0.137,0.199-0.272,0.304-0.405c0.034-0.048,0.136-0.178,0.115-0.154l0.101-0.27c0.088-0.191,0.072-0.312,0.117-0.453
					c0.074-0.269,0.096-0.637,0.125-0.933c0.039-0.624,0.039-1.146,0.039-1.608c0-0.929,0.072-1.429,0.072-1.429h0.109
					c0,0,0.01,0.481,0.106,1.399c0.046,0.457,0.104,0.996,0.131,1.642c-0.002,0.629,0.056,1.41-0.353,2.119
					c-0.383,0.724-1.039,1.295-1.7,1.914c-0.696,0.584-1.461,1.162-2.31,1.68c-0.836,0.533-1.762,1.011-2.762,1.314
					c-1.021,0.257-2.084,0.325-3.141,0.351c-1.051-0.009-2.137-0.058-3.143-0.34c-0.998-0.345-1.902-0.836-2.74-1.366
					c-0.845-0.52-1.613-1.091-2.316-1.667c-0.663-0.603-1.35-1.195-1.723-1.894c-0.125-0.153-0.178-0.367-0.229-0.55
					c-0.064-0.188-0.079-0.373-0.097-0.556c-0.052-0.36-0.043-0.704-0.046-1.026c0.005-0.646,0.048-1.202,0.088-1.664
					c0.085-0.918,0.165-1.439,0.165-1.439L106.07,142.934z"/>
			</g>
			<g>
				<path fill="#442E24" d="M106.009,142.539c0,0,0.556,3.82,0,5c-0.786,1.667-4.538,4.225-6.649,5c-1.498,0.549-5.113,0.479-6.65,0
					c-2.172-0.678-5.887-3.328-6.651-5c-0.542-1.184,0-3.75,0-5"/>
				<path fill="#020200" d="M106.062,142.531c0,0,0.158,0.51,0.338,1.426c0.086,0.46,0.182,1.02,0.248,1.678
					c0.024,0.332,0.065,0.684,0.05,1.08c0.001,0.195-0.005,0.393-0.072,0.631l-0.088,0.354l-0.013,0.044l-0.006,0.021l-0.002,0.01
					c0.006-0.008-0.062,0.113-0.035,0.065l-0.035,0.063l-0.072,0.129c-0.102,0.173-0.186,0.348-0.305,0.529
					c-0.147,0.185-0.299,0.373-0.451,0.562c-0.314,0.407-0.641,0.671-0.979,1.029c-0.697,0.64-1.457,1.281-2.324,1.834
					c-0.428,0.283-0.873,0.562-1.351,0.816c-0.229,0.137-0.473,0.262-0.734,0.377l-0.388,0.17l-0.097,0.043l-0.049,0.021
					l-0.013,0.005l-0.081,0.026l-0.023,0.007l-0.187,0.053c-0.429,0.146-1.188,0.269-1.712,0.312
					c-0.561,0.062-1.113,0.072-1.668,0.082c-1.113-0.033-2.188-0.104-3.357-0.4l-0.218-0.059c-0.175-0.061-0.151-0.059-0.237-0.09
					l-0.357-0.146c-0.23-0.089-0.478-0.208-0.734-0.354c-0.521-0.263-0.975-0.545-1.399-0.828c-0.874-0.553-1.628-1.209-2.319-1.854
					c-0.328-0.355-0.672-0.648-0.952-1.027c-0.143-0.182-0.282-0.356-0.421-0.533c-0.127-0.192-0.237-0.41-0.348-0.608
					c-0.438-0.835-0.307-1.75-0.244-2.376c0.088-0.658,0.2-0.98,0.29-1.438c0.194-0.902,0.283-1.188,0.284-1.188h0.107
					c0,0-0.006,0.303-0.101,1.219c-0.044,0.458-0.099,0.899-0.12,1.537c0.006,0.628-0.043,1.322,0.35,1.999
					c0.365,0.688,1.022,1.229,1.678,1.837c0.693,0.574,1.456,1.134,2.297,1.642c0.83,0.521,1.74,0.974,2.721,1.269
					c0.99,0.241,2.047,0.305,3.092,0.319c1.049-0.004,2.092-0.043,3.086-0.312c0.959-0.324,1.871-0.811,2.701-1.328
					c0.842-0.51,1.606-1.074,2.31-1.641c0.668-0.605,1.315-1.145,1.705-1.846c0.371-0.664,0.344-1.432,0.358-2.058
					c0-0.639-0.039-1.194-0.076-1.651c-0.077-0.916-0.153-1.438-0.153-1.438L106.062,142.531z"/>
			</g>
		</g>
		<path fill="none" stroke="#000000" stroke-miterlimit="10" d="M82.999,146.359c0,0,1.183-4.041,2.381-4.396
			c1.198-0.357,4.397,2.38,4.397,2.38"/>
	</g>
</g>
</svg>
