<?xml version="1.0" encoding="utf-8"?>
<!-- Generator: Adobe Illustrator 16.0.0, SVG Export Plug-In . SVG Version: 6.00 Build 0)  -->
<!DOCTYPE svg PUBLIC "-//W3C//DTD SVG 1.1//EN" "http://www.w3.org/Graphics/SVG/1.1/DTD/svg11.dtd">
<svg version="1.1" xmlns="http://www.w3.org/2000/svg" xmlns:xlink="http://www.w3.org/1999/xlink" x="0px" y="0px" width="200px"
	 height="235px" viewBox="0 0 200 235" enable-background="new 0 0 200 235" xml:space="preserve">
<g id="Ext">
</g>
<g id="Guides">
</g>
<g id="_x31_2_Col_Grid_1_" display="none" enable-background="new    ">
	<g id="Rectangle_xA0_Image_23_" display="inline" opacity="0.102">
	</g>
	<g id="Rectangle_xA0_Image_21_" display="inline" opacity="0.102">
	</g>
	<g id="Rectangle_xA0_Image_19_" display="inline" opacity="0.102">
	</g>
	<g id="Rectangle_xA0_Image_17_" display="inline" opacity="0.102">
	</g>
	<g id="Rectangle_xA0_Image_15_" display="inline" opacity="0.102">
	</g>
	<g id="Rectangle_xA0_Image_13_" display="inline" opacity="0.102">
	</g>
	<g id="Rectangle_xA0_Image_11_" display="inline" opacity="0.102">
	</g>
	<g id="Rectangle_xA0_Image_9_" display="inline" opacity="0.102">
	</g>
	<g id="Rectangle_xA0_Image_7_" display="inline" opacity="0.102">
	</g>
	<g id="Rectangle_xA0_Image_5_" display="inline" opacity="0.102">
	</g>
	<g id="Rectangle_xA0_Image_3_" display="inline" opacity="0.102">
	</g>
	<g id="Rectangle_xA0_Image_1_" display="inline" opacity="0.102">
	</g>
</g>
<g id="Bg">
</g>
<g id="main">
	<g id="Progress">
	</g>
	<g id="Text">
	</g>
</g>
<g id="pane">
</g>
<g id="browserhead">
	<g>
		<ellipse stroke="#050500" stroke-miterlimit="10" cx="106.33" cy="137" rx="15" ry="5"/>
		<g>
			<line fill="#FFE1CC" x1="94.002" y1="155" x2="119" y2="145"/>
			<path d="M93.982,154.953c0,0,6.168-2.704,12.369-5.324c1.546-0.667,3.086-1.347,4.545-1.948c0.738-0.278,1.441-0.573,2.127-0.808
				c0.683-0.24,1.328-0.469,1.923-0.679c0.595-0.214,1.153-0.376,1.641-0.537c0.488-0.16,0.917-0.292,1.274-0.391
				c0.708-0.21,1.12-0.312,1.12-0.312l0.036,0.093c0-0.001-0.368,0.209-1.026,0.546c-0.327,0.175-0.728,0.375-1.192,0.596
				c-0.463,0.22-0.98,0.487-1.558,0.742c-0.575,0.259-1.2,0.538-1.86,0.835c-0.658,0.303-1.371,0.574-2.098,0.882
				c-1.471,0.57-3.055,1.141-4.635,1.724c-6.297,2.38-12.629,4.676-12.629,4.676L93.982,154.953z"/>
		</g>
	</g>
</g>
</svg>
