<?xml version="1.0" encoding="utf-8"?>
<!-- Generator: Adobe Illustrator 16.0.0, SVG Export Plug-In . SVG Version: 6.00 Build 0)  -->
<!DOCTYPE svg PUBLIC "-//W3C//DTD SVG 1.1//EN" "http://www.w3.org/Graphics/SVG/1.1/DTD/svg11.dtd">
<svg version="1.1" id="Layer_1" xmlns="http://www.w3.org/2000/svg" xmlns:xlink="http://www.w3.org/1999/xlink" x="0px" y="0px"
	 width="200px" height="225px" viewBox="0 0 200 225" enable-background="new 0 0 200 225" xml:space="preserve">
<g id="Ext">
</g>
<g id="Guides">
</g>
<g id="_x31_2_Col_Grid_1_" display="none" enable-background="new    ">
	<g id="Rectangle_xA0_Image_23_" display="inline" opacity="0.102">
	</g>
	<g id="Rectangle_xA0_Image_21_" display="inline" opacity="0.102">
	</g>
	<g id="Rectangle_xA0_Image_19_" display="inline" opacity="0.102">
	</g>
	<g id="Rectangle_xA0_Image_17_" display="inline" opacity="0.102">
	</g>
	<g id="Rectangle_xA0_Image_15_" display="inline" opacity="0.102">
	</g>
	<g id="Rectangle_xA0_Image_13_" display="inline" opacity="0.102">
	</g>
	<g id="Rectangle_xA0_Image_11_" display="inline" opacity="0.102">
	</g>
	<g id="Rectangle_xA0_Image_9_" display="inline" opacity="0.102">
	</g>
	<g id="Rectangle_xA0_Image_7_" display="inline" opacity="0.102">
	</g>
	<g id="Rectangle_xA0_Image_5_" display="inline" opacity="0.102">
	</g>
	<g id="Rectangle_xA0_Image_3_" display="inline" opacity="0.102">
	</g>
	<g id="Rectangle_xA0_Image_1_" display="inline" opacity="0.102">
	</g>
</g>
<g id="Bg">
</g>
<g id="main">
	<g id="Progress">
	</g>
	<g id="Text">
	</g>
</g>
<g id="pane">
</g>
<g>
	<g>
		<line fill="none" stroke="#000000" stroke-miterlimit="10" x1="80.308" y1="78.377" x2="84.548" y2="82.438"/>
		<path stroke="#000000" stroke-miterlimit="10" d="M80.341,78.343c0,0,1.203,0.865,2.348,1.793c0.289,0.229,0.6,0.435,0.857,0.663
			c0.247,0.239,0.445,0.496,0.6,0.732c0.314,0.468,0.436,0.873,0.436,0.873l-0.066,0.068c0,0-0.409-0.103-0.891-0.396
			c-0.242-0.145-0.508-0.331-0.758-0.568c-0.238-0.247-0.458-0.549-0.699-0.828c-0.976-1.104-1.893-2.269-1.893-2.269L80.341,78.343
			z"/>
	</g>
	<g>
		<line fill="none" stroke="#000000" stroke-miterlimit="10" x1="72.778" y1="80.884" x2="72.79" y2="86.653"/>
		<path stroke="#000000" stroke-miterlimit="10" d="M72.826,80.884c0,0,0.21,1.442,0.336,2.884c0.034,0.36,0.103,0.72,0.116,1.058
			c-0.001,0.338-0.048,0.654-0.111,0.924c-0.121,0.542-0.329,0.902-0.329,0.902l-0.095,0c0,0-0.21-0.359-0.331-0.901
			c-0.063-0.269-0.114-0.586-0.117-0.924c0.013-0.337,0.079-0.698,0.112-1.06c0.119-1.441,0.323-2.884,0.323-2.884H72.826z"/>
	</g>
	<g>
		<line fill="none" stroke="#000000" stroke-miterlimit="10" x1="63.36" y1="77.333" x2="60.616" y2="82.438"/>
		<path stroke="#000000" stroke-miterlimit="10" d="M63.401,77.355c0,0-0.502,1.375-1.081,2.709
			c-0.142,0.335-0.255,0.686-0.403,0.991c-0.162,0.298-0.355,0.555-0.54,0.764c-0.363,0.422-0.72,0.642-0.72,0.642l-0.082-0.045
			c0,0-0.014-0.418,0.138-0.954c0.072-0.27,0.18-0.571,0.339-0.871c0.173-0.293,0.402-0.581,0.604-0.884
			c0.794-1.219,1.663-2.396,1.663-2.396L63.401,77.355z"/>
	</g>
	
		<ellipse fill="#894231" stroke="#000000" stroke-width="0.9428" stroke-miterlimit="10" cx="73.3" cy="68.559" rx="12.801" ry="12"/>
	<g>
		<line fill="none" stroke="#000000" stroke-miterlimit="10" x1="127.309" y1="77.004" x2="131.548" y2="81.379"/>
		<path stroke="#000000" stroke-miterlimit="10" d="M127.341,76.971c0,0,1.21,0.949,2.357,1.958c0.29,0.25,0.603,0.478,0.86,0.725
			c0.246,0.257,0.443,0.53,0.598,0.779c0.312,0.494,0.426,0.913,0.425,0.913l-0.065,0.066c-0.002,0-0.416-0.128-0.9-0.454
			c-0.244-0.161-0.512-0.366-0.762-0.622c-0.238-0.266-0.455-0.585-0.695-0.882c-0.973-1.179-1.883-2.417-1.883-2.417
			L127.341,76.971z"/>
	</g>
	<g>
		<line fill="none" stroke="#000000" stroke-miterlimit="10" x1="120.598" y1="79.735" x2="120.97" y2="85.893"/>
		<path stroke="#000000" stroke-miterlimit="10" d="M120.645,79.732c0,0,0.301,1.526,0.517,3.06
			c0.058,0.382,0.146,0.764,0.183,1.123c0.019,0.361-0.009,0.7-0.056,0.994c-0.087,0.584-0.271,0.982-0.271,0.982l-0.095,0.005
			c0,0-0.231-0.373-0.387-0.942c-0.081-0.284-0.15-0.619-0.173-0.979c-0.01-0.362,0.034-0.75,0.045-1.137
			c0.028-1.547,0.143-3.099,0.143-3.099L120.645,79.732z"/>
	</g>
	<g>
		<line fill="none" stroke="#000000" stroke-miterlimit="10" x1="112.359" y1="76.879" x2="109.616" y2="82.379"/>
		<path stroke="#000000" stroke-miterlimit="10" d="M112.402,76.9c0,0-0.5,1.468-1.077,2.896c-0.142,0.359-0.252,0.732-0.401,1.061
			c-0.163,0.322-0.355,0.602-0.542,0.83c-0.364,0.462-0.723,0.713-0.724,0.713l-0.084-0.043c-0.001,0-0.018-0.437,0.134-1.006
			c0.071-0.287,0.178-0.609,0.337-0.932c0.173-0.316,0.403-0.631,0.605-0.959c0.795-1.321,1.668-2.604,1.668-2.604L112.402,76.9z"/>
	</g>
	
		<ellipse fill="#894231" stroke="#000000" stroke-width="0.9428" stroke-miterlimit="10" cx="119.3" cy="68.304" rx="12.802" ry="12"/>
</g>
</svg>
