<?xml version="1.0" encoding="utf-8"?>
<!-- Generator: Adobe Illustrator 16.0.0, SVG Export Plug-In . SVG Version: 6.00 Build 0)  -->
<!DOCTYPE svg PUBLIC "-//W3C//DTD SVG 1.1//EN" "http://www.w3.org/Graphics/SVG/1.1/DTD/svg11.dtd">
<svg version="1.1" xmlns="http://www.w3.org/2000/svg" xmlns:xlink="http://www.w3.org/1999/xlink" x="0px" y="0px" width="200px"
	 height="225px" viewBox="0 0 200 225" enable-background="new 0 0 200 225" xml:space="preserve">
<g id="Ext">
</g>
<g id="Guides">
</g>
<g id="_x31_2_Col_Grid_1_" display="none" enable-background="new    ">
	<g id="Rectangle_xA0_Image_23_" display="inline" opacity="0.102">
	</g>
	<g id="Rectangle_xA0_Image_21_" display="inline" opacity="0.102">
	</g>
	<g id="Rectangle_xA0_Image_19_" display="inline" opacity="0.102">
	</g>
	<g id="Rectangle_xA0_Image_17_" display="inline" opacity="0.102">
	</g>
	<g id="Rectangle_xA0_Image_15_" display="inline" opacity="0.102">
	</g>
	<g id="Rectangle_xA0_Image_13_" display="inline" opacity="0.102">
	</g>
	<g id="Rectangle_xA0_Image_11_" display="inline" opacity="0.102">
	</g>
	<g id="Rectangle_xA0_Image_9_" display="inline" opacity="0.102">
	</g>
	<g id="Rectangle_xA0_Image_7_" display="inline" opacity="0.102">
	</g>
	<g id="Rectangle_xA0_Image_5_" display="inline" opacity="0.102">
	</g>
	<g id="Rectangle_xA0_Image_3_" display="inline" opacity="0.102">
	</g>
	<g id="Rectangle_xA0_Image_1_" display="inline" opacity="0.102">
	</g>
</g>
<g id="Bg">
</g>
<g id="main">
	<g id="Progress">
	</g>
	<g id="Text">
	</g>
</g>
<g id="pane">
</g>
<g id="browserhead">
	<g>
		<path fill="#E0B6AD" d="M90.665,139.671c0,0,3.367-3.834,5-4.434c2.31-0.849,7.754-0.974,10,0c1.587,0.688,5,4.434,5,4.434"/>
		<path fill="#020200" d="M90.639,139.646c-0.001,0,0.201-0.312,0.596-0.83c0.405-0.505,0.955-1.26,1.736-2.065
			c0.402-0.396,0.81-0.843,1.34-1.258c0.42-0.437,1.299-0.875,1.904-1.005c0.66-0.18,1.476-0.342,2.192-0.411
			c0.741-0.106,1.495-0.133,2.251-0.174c0.758,0.032,1.512,0.039,2.258,0.141c0.373,0.036,0.742,0.077,1.109,0.162
			c0.367,0.086,0.725,0.111,1.086,0.256l0.533,0.182c0.106,0.043,0.13,0.032,0.305,0.118l0.21,0.139l0.413,0.271
			c0.137,0.113,0.272,0.226,0.406,0.337c0.553,0.445,0.941,0.871,1.35,1.271c0.781,0.802,1.342,1.547,1.754,2.047
			c0.401,0.512,0.609,0.82,0.609,0.82l-0.053,0.049c0,0-0.985-1.097-2.602-2.6c-0.414-0.362-0.852-0.777-1.359-1.143
			c-0.48-0.407-1.083-0.716-1.741-0.888c-0.319-0.125-0.676-0.144-1.021-0.217c-0.346-0.073-0.703-0.104-1.063-0.132
			c-0.718-0.083-1.454-0.073-2.188-0.09c-0.733,0.027-1.47,0.035-2.187,0.123c-0.361,0.028-0.717,0.068-1.062,0.138
			c-0.347,0.066-0.695,0.095-1.025,0.205c-0.677,0.161-1.273,0.424-1.764,0.836c-0.518,0.357-0.949,0.776-1.363,1.138
			c-1.608,1.512-2.572,2.629-2.572,2.629L90.639,139.646z"/>
	</g>
</g>
</svg>
