<?xml version="1.0" encoding="utf-8"?>
<!-- Generator: Adobe Illustrator 16.0.0, SVG Export Plug-In . SVG Version: 6.00 Build 0)  -->
<!DOCTYPE svg PUBLIC "-//W3C//DTD SVG 1.1//EN" "http://www.w3.org/Graphics/SVG/1.1/DTD/svg11.dtd">
<svg version="1.1" id="Layer_1" xmlns="http://www.w3.org/2000/svg" xmlns:xlink="http://www.w3.org/1999/xlink" x="0px" y="0px"
	 width="200px" height="225px" viewBox="0 0 200 225" enable-background="new 0 0 200 225" xml:space="preserve">
<g id="Ext">
</g>
<g id="Guides">
</g>
<g id="_x31_2_Col_Grid_1_" display="none" enable-background="new    ">
	<g id="Rectangle_xA0_Image_23_" display="inline" opacity="0.102">
	</g>
	<g id="Rectangle_xA0_Image_21_" display="inline" opacity="0.102">
	</g>
	<g id="Rectangle_xA0_Image_19_" display="inline" opacity="0.102">
	</g>
	<g id="Rectangle_xA0_Image_17_" display="inline" opacity="0.102">
	</g>
	<g id="Rectangle_xA0_Image_15_" display="inline" opacity="0.102">
	</g>
	<g id="Rectangle_xA0_Image_13_" display="inline" opacity="0.102">
	</g>
	<g id="Rectangle_xA0_Image_11_" display="inline" opacity="0.102">
	</g>
	<g id="Rectangle_xA0_Image_9_" display="inline" opacity="0.102">
	</g>
	<g id="Rectangle_xA0_Image_7_" display="inline" opacity="0.102">
	</g>
	<g id="Rectangle_xA0_Image_5_" display="inline" opacity="0.102">
	</g>
	<g id="Rectangle_xA0_Image_3_" display="inline" opacity="0.102">
	</g>
	<g id="Rectangle_xA0_Image_1_" display="inline" opacity="0.102">
	</g>
</g>
<g id="Bg">
</g>
<g id="main">
	<g id="Progress">
	</g>
	<g id="Text">
	</g>
</g>
<g id="pane">
</g>
<g>
	<g>
		<g>
			<path fill="#FFFFFF" d="M86.768,138.229c0,0,7.221,6.771,10.384,7.641c2.285,0.629,7.45,0.316,9.479-0.85
				c2.094-1.201,6.237-7.108,6.237-7.108"/>
			<path d="M86.776,138.22c0,0,1.466,1.373,3.796,3.279c1.168,0.946,2.548,2.038,4.129,3.051c0.792,0.487,1.635,1.018,2.569,1.255
				c0.971,0.221,1.954,0.277,2.957,0.273c0.999,0.002,1.997-0.086,2.97-0.214c0.484-0.075,0.961-0.175,1.433-0.265
				c0.452-0.148,0.934-0.218,1.344-0.425c0.204-0.094,0.433-0.186,0.611-0.276c0.186-0.139,0.368-0.275,0.55-0.411
				c0.384-0.253,0.651-0.597,0.972-0.877c0.606-0.593,1.15-1.209,1.637-1.777c0.983-1.138,1.732-2.145,2.279-2.831
				c0.531-0.698,0.835-1.098,0.835-1.098l0.021,0.014c0,0-0.286,0.413-0.787,1.136c-0.508,0.717-1.253,1.729-2.208,2.896
				c-0.479,0.584-1.003,1.207-1.615,1.833c-0.317,0.298-0.61,0.66-0.988,0.906c-0.182,0.136-0.365,0.272-0.55,0.411
				c-0.229,0.122-0.438,0.2-0.661,0.304c-0.435,0.216-0.917,0.285-1.384,0.437c-0.479,0.094-0.965,0.186-1.456,0.257
				c-0.987,0.117-1.994,0.194-3.003,0.181c-1.002-0.003-2.036-0.077-2.991-0.306c-0.988-0.262-1.814-0.803-2.612-1.301
				c-1.582-1.031-2.948-2.144-4.106-3.105c-2.308-1.938-3.758-3.329-3.758-3.329L86.776,138.22z"/>
		</g>
		<g>
			<path d="M86.862,138.164c0,0,0.488,0.236,1.297,0.674c0.806,0.439,1.942,1.074,3.236,1.86c0.653,0.39,1.364,0.801,2.081,1.251
				c0.722,0.419,1.483,0.861,2.271,1.318c0.387,0.225,0.773,0.41,1.158,0.597l0.541,0.216c0.166,0.07,0.265,0.081,0.395,0.139
				c0.151,0.036-0.2-0.047-0.158-0.037l0.012,0.002l0.025,0.004l0.049,0.01l0.099,0.017l0.196,0.035l0.393,0.069
				c0.304,0.067,0.402,0.023,0.603,0.046c0.306,0.03,0.812,0.018,1.274,0.019c0.465,0.02,0.949-0.021,1.423-0.023
				c0.463-0.047,0.945-0.07,1.389-0.137c0.427-0.086,0.906-0.115,1.271-0.209c0.184-0.041,0.413-0.072,0.567-0.119
				c0.135-0.053,0.276-0.099,0.424-0.14l0.056-0.016l0.028-0.007l0.007-0.002c0.148-0.094-0.191,0.125-0.154,0.101l0.021-0.013
				l0.147-0.096l0.291-0.191c0.174-0.126,0.432-0.256,0.55-0.357c0.278-0.212,0.553-0.419,0.818-0.619
				c0.622-0.535,1.207-1.039,1.748-1.507c1.094-0.956,2.045-1.765,2.735-2.317c0.688-0.558,1.107-0.867,1.107-0.867l0.216,0.1
				c0,0-1.042,1.543-2.824,3.756c-0.434,0.557-0.957,1.135-1.5,1.754c-0.301,0.299-0.609,0.605-0.926,0.92
				c-0.354,0.291-0.671,0.566-1.126,0.83c-0.899,0.474-1.948,0.692-3.003,0.885c-0.529,0.094-1.07,0.137-1.613,0.203
				c-0.545,0.022-1.092,0.078-1.642,0.071c-1.091,0-2.234-0.087-3.271-0.342c-1.057-0.339-1.892-0.878-2.688-1.397
				c-1.585-1.052-2.916-2.152-4.054-3.098c-2.257-1.902-3.655-3.248-3.655-3.248L86.862,138.164z"/>
			<path d="M86.868,138.153c0.861,0.429,1.709,0.888,2.538,1.377c0.833,0.481,1.677,0.943,2.503,1.441
				c0.827,0.493,1.649,0.99,2.487,1.466c0.83,0.49,1.666,0.961,2.531,1.384l-0.005-0.003c0.309,0.124,0.622,0.248,0.938,0.353
				l-0.008-0.003l0.03,0.008h0.004l0.004,0.001l0.009,0.004l-0.011,0.098l-0.017,0.001h-0.003l-0.009-0.002l-0.016-0.004
				l-0.06-0.014l-0.06-0.015l-0.03-0.007l-0.015-0.003l-0.008-0.002l-0.005-0.002l-0.006-0.002l-0.028-0.064l0.055-0.036
				l0.006,0.001h0.002H97.69c0.337,0.051,0.673,0.131,1.006,0.16c0.34,0.028,0.675,0.016,1.019,0.024
				c0.682,0.018,1.359-0.012,2.042-0.02h-0.008l0.81-0.082c0.274-0.032,0.535-0.042,0.804-0.096c0.538-0.091,1.071-0.17,1.602-0.293
				l-0.008,0.003c0.173-0.056,0.348-0.121,0.521-0.168l-0.019,0.009l0.033-0.021l0.003-0.001c-0.085-0.021,0.153-0.014,0.098,0.107
				c-0.013,0.016-0.01,0.01-0.016,0.016l-0.012,0.008l-0.017,0.011l-0.064,0.042l-0.064,0.042l-0.032,0.021
				c-0.021,0.005,0.035-0.002-0.055,0.015c-0.073-0.266-0.01-0.081-0.028-0.139l0.002-0.002l0.005-0.002l0.015-0.01l0.256-0.168
				l0.507-0.332c0.35-0.22,0.657-0.487,0.988-0.729l1.854-1.6l1.867-1.59c0.614-0.538,1.262-1.049,1.904-1.55l0.047-0.036
				l0.054,0.025l0.216,0.099l0.109,0.051l-0.069,0.093l-2.496,3.332c-0.4,0.569-0.885,1.07-1.323,1.604l-0.337,0.396
				c-0.107,0.133-0.241,0.276-0.36,0.389l-0.735,0.733l-0.005,0.004l-0.004,0.003c-0.203,0.161-0.395,0.332-0.607,0.483l-0.326,0.22
				c-0.099,0.068-0.227,0.16-0.346,0.203c-0.238,0.098-0.461,0.223-0.713,0.3c-0.251,0.076-0.5,0.172-0.752,0.23
				c-0.505,0.128-1.006,0.234-1.521,0.32l-1.53,0.195l-0.009,0.001h-0.004c-0.746,0.015-1.51,0.112-2.255,0.048
				c-0.374-0.021-0.748-0.03-1.122-0.065l-1.123-0.19c-0.381-0.034-0.753-0.189-1.089-0.326c-0.342-0.152-0.693-0.323-1.015-0.516
				c-0.656-0.369-1.271-0.812-1.87-1.26c-0.596-0.453-1.226-0.86-1.794-1.352c-0.576-0.483-1.17-0.938-1.729-1.443l-3.327-3.019
				l-0.015-0.014l0.016-0.011l0.195-0.135L86.868,138.153z M86.863,138.179l-0.179,0.131l0.001-0.023l3.389,2.949
				c0.558,0.492,1.159,0.942,1.736,1.415c0.57,0.482,1.208,0.885,1.808,1.33c0.605,0.441,1.213,0.868,1.868,1.228
				c0.323,0.187,0.649,0.343,0.991,0.49l0.526,0.198c0.147,0.066,0.355,0.068,0.53,0.105l1.094,0.175
				c0.37,0.031,0.747,0.033,1.12,0.053c0.75,0.067,1.483-0.028,2.233-0.04l-0.013,0.001l1.53-0.19
				c0.498-0.081,1.005-0.188,1.497-0.311c0.248-0.057,0.48-0.146,0.723-0.218c0.24-0.071,0.472-0.199,0.707-0.296
				c0.126-0.045,0.203-0.11,0.317-0.185l0.314-0.211c0.206-0.146,0.399-0.316,0.6-0.474l-0.007,0.007l0.737-0.731
				c0.133-0.126,0.236-0.235,0.348-0.371l0.338-0.395c0.441-0.535,0.926-1.032,1.325-1.597l2.499-3.312l0.04,0.144l-0.216-0.101
				l0.101-0.011c-0.65,0.501-1.288,0.999-1.906,1.536l-1.875,1.581l-1.867,1.596c-0.33,0.238-0.644,0.507-0.988,0.721l-0.52,0.338
				l-0.258,0.168l-0.018,0.011l-0.004,0.002l-0.002,0.002c-0.02-0.058,0.042,0.128-0.031-0.137
				c-0.097,0.021-0.026,0.005-0.045,0.008l0.032-0.021l0.064-0.041l0.064-0.041l0.016-0.011c0.001-0.001,0.008-0.005,0.004-0.003
				l-0.012,0.013c-0.057,0.122,0.181,0.13,0.094,0.11l-0.001,0.001l-0.031,0.02l-0.011,0.006l-0.009,0.003
				c-0.176,0.046-0.339,0.107-0.509,0.16l-0.008,0.003c-0.53,0.12-1.073,0.199-1.608,0.286c-0.266,0.052-0.551,0.065-0.816,0.095
				l-0.813,0.078h-0.003h-0.005c-0.68,0.006-1.365,0.031-2.046,0.009c-0.337-0.01-0.686-0.001-1.024-0.031
				c-0.346-0.033-0.675-0.114-1.011-0.168h-0.004h0.001l0.005,0.001l0.055-0.037l-0.029-0.064c-0.011-0.004-0.008-0.002-0.009-0.003
				l0.002,0.001l0.007,0.001l0.015,0.004l0.03,0.008l0.06,0.014l0.06,0.015l0.015,0.004l0.005,0.001l-0.006-0.001l-0.017,0.001
				l-0.012,0.098l0.009,0.003c0.002,0.001,0,0,0,0l-0.004-0.001l-0.03-0.007l0,0l-0.009-0.003c-0.316-0.106-0.623-0.23-0.933-0.356
				l-0.002-0.001l-0.003-0.002c-0.862-0.428-1.701-0.907-2.525-1.401c-0.834-0.48-1.656-0.984-2.479-1.482
				c-0.82-0.501-1.662-0.97-2.492-1.456C88.56,139.074,87.72,138.613,86.863,138.179z"/>
		</g>
	</g>
	<g id="browserhead">
		<g>
			<path fill="#E0B6AD" d="M117.665,135.227c0,0-5.974,4.226-8.75,5c-3.931,1.1-13.459,0.957-17.5,0c-2.857-0.677-8.75-5-8.75-5"/>
			<path fill="#020200" d="M117.693,135.27c0,0-0.48,0.345-1.323,0.944c-0.847,0.599-2.072,1.427-3.586,2.361
				c-0.386,0.227-0.784,0.463-1.197,0.707c-0.43,0.223-0.872,0.452-1.328,0.688c-0.481,0.193-0.963,0.426-1.512,0.563
				c-0.521,0.11-1.049,0.243-1.597,0.347c-1.117,0.154-2.277,0.312-3.442,0.372c-1.17,0.11-2.356,0.104-3.548,0.147
				c-1.188-0.014-2.38,0.018-3.552-0.055c-1.174-0.023-2.328-0.156-3.445-0.271c-0.56-0.104-1.109-0.208-1.646-0.31
				c-0.614-0.145-1.025-0.33-1.526-0.523c-0.476-0.243-0.938-0.48-1.386-0.709c-0.416-0.249-0.816-0.489-1.202-0.721
				c-3.009-1.946-4.768-3.549-4.768-3.549l0.061-0.082c0,0,0.509,0.301,1.401,0.826c0.445,0.262,0.986,0.576,1.607,0.938
				c0.616,0.368,1.338,0.735,2.104,1.165c0.389,0.201,0.793,0.412,1.211,0.632c0.414,0.184,0.844,0.374,1.283,0.569
				c0.228,0.092,0.485,0.152,0.729,0.236l0.373,0.124l0.147,0.048l0.191,0.033c0.512,0.088,1.035,0.178,1.566,0.268
				c1.084,0.137,2.204,0.283,3.357,0.361c1.148,0.119,2.324,0.137,3.498,0.198c1.174-0.008,2.353,0.038,3.504-0.033
				c1.163-0.021,2.276-0.141,3.36-0.251c0.543-0.083,1.08-0.199,1.604-0.294c0.486-0.106,0.967-0.315,1.432-0.478
				c0.455-0.213,0.896-0.418,1.326-0.618c0.42-0.224,0.824-0.44,1.215-0.647c1.541-0.863,2.801-1.637,3.67-2.195
				c0.865-0.563,1.359-0.887,1.359-0.887L117.693,135.27z"/>
		</g>
		<g>
			<path fill="#E0B6AD" d="M112.835,135.582c0,0,4.116-0.852,5,0c0.884,0.854,0,4.82,0,4.82"/>
			<path fill="#020200" d="M112.83,135.559c0,0,0.609-0.156,1.542-0.312c0.465-0.076,1.013-0.157,1.608-0.185
				c0.299-0.012,0.606-0.021,0.929,0.016c0.317,0.033,0.655,0.072,0.979,0.301c0.312,0.225,0.43,0.622,0.508,0.938
				c0.062,0.322,0.088,0.643,0.088,0.943c-0.004,0.607-0.101,1.158-0.188,1.626c-0.192,0.935-0.438,1.524-0.438,1.524l-0.049-0.012
				c0,0,0.037-0.627,0.094-1.564c0.033-0.465,0.058-1.008,0.062-1.576c0.015-0.285-0.005-0.574-0.03-0.861
				c-0.027-0.131-0.049-0.295-0.092-0.388c-0.001-0.077-0.152-0.3-0.199-0.315c-0.183-0.152-0.488-0.23-0.775-0.272
				c-0.291-0.05-0.592-0.062-0.881-0.065c-0.579-0.004-1.125,0.027-1.592,0.066c-0.938,0.081-1.556,0.188-1.556,0.188
				L112.83,135.559z"/>
		</g>
	</g>
	<line fill="#FFFFFF" stroke="#000000" stroke-miterlimit="10" x1="98.334" y1="141.333" x2="98.455" y2="144.318"/>
	<line fill="#FFFFFF" stroke="#000000" stroke-miterlimit="10" x1="106.334" y1="140.333" x2="106.455" y2="143.318"/>
	
		<line fill="#FFFFFF" stroke="#000000" stroke-width="1.2257" stroke-miterlimit="10" x1="102.334" y1="140.833" x2="102.455" y2="145.318"/>
	<line fill="#FFFFFF" stroke="#000000" stroke-miterlimit="10" x1="95.334" y1="140.333" x2="95.455" y2="143.318"/>
</g>
</svg>
