<?xml version="1.0" encoding="utf-8"?>
<!-- Generator: Adobe Illustrator 16.0.0, SVG Export Plug-In . SVG Version: 6.00 Build 0)  -->
<!DOCTYPE svg PUBLIC "-//W3C//DTD SVG 1.1//EN" "http://www.w3.org/Graphics/SVG/1.1/DTD/svg11.dtd">
<svg version="1.1" xmlns="http://www.w3.org/2000/svg" xmlns:xlink="http://www.w3.org/1999/xlink" x="0px" y="0px" width="200px"
	 height="225px" viewBox="0 0 200 225" enable-background="new 0 0 200 225" xml:space="preserve">
<g id="Ext">
</g>
<g id="Guides">
</g>
<g id="_x31_2_Col_Grid_1_" display="none" enable-background="new    ">
	<g id="Rectangle_xA0_Image_23_" display="inline" opacity="0.102">
	</g>
	<g id="Rectangle_xA0_Image_21_" display="inline" opacity="0.102">
	</g>
	<g id="Rectangle_xA0_Image_19_" display="inline" opacity="0.102">
	</g>
	<g id="Rectangle_xA0_Image_17_" display="inline" opacity="0.102">
	</g>
	<g id="Rectangle_xA0_Image_15_" display="inline" opacity="0.102">
	</g>
	<g id="Rectangle_xA0_Image_13_" display="inline" opacity="0.102">
	</g>
	<g id="Rectangle_xA0_Image_11_" display="inline" opacity="0.102">
	</g>
	<g id="Rectangle_xA0_Image_9_" display="inline" opacity="0.102">
	</g>
	<g id="Rectangle_xA0_Image_7_" display="inline" opacity="0.102">
	</g>
	<g id="Rectangle_xA0_Image_5_" display="inline" opacity="0.102">
	</g>
	<g id="Rectangle_xA0_Image_3_" display="inline" opacity="0.102">
	</g>
	<g id="Rectangle_xA0_Image_1_" display="inline" opacity="0.102">
	</g>
</g>
<g id="Bg">
</g>
<g id="main">
	<g id="Progress">
	</g>
	<g id="Text">
	</g>
</g>
<g id="pane">
</g>
<g id="browserhead">
	<g>
		<line fill="#FFE1CC" x1="89.676" y1="140.299" x2="116.169" y2="135.5"/>
		<path d="M89.667,140.25c0,0,6.584-1.417,13.184-2.744c1.648-0.344,3.294-0.702,4.843-1c0.779-0.125,1.527-0.272,2.245-0.365
			c0.717-0.1,1.395-0.194,2.021-0.281c0.625-0.091,1.204-0.138,1.714-0.198c0.511-0.059,0.957-0.103,1.326-0.128
			c0.736-0.064,1.161-0.082,1.161-0.082l0.018,0.098c0,0-0.403,0.132-1.116,0.33c-0.354,0.106-0.788,0.222-1.286,0.346
			c-0.499,0.122-1.059,0.281-1.675,0.416c-0.617,0.138-1.284,0.287-1.99,0.444c-0.705,0.166-1.458,0.29-2.231,0.445
			c-1.555,0.266-3.222,0.507-4.885,0.763c-6.646,1.072-13.31,2.055-13.31,2.055L89.667,140.25z"/>
	</g>
</g>
</svg>
