<?xml version="1.0" encoding="utf-8"?>
<!-- Generator: Adobe Illustrator 16.0.0, SVG Export Plug-In . SVG Version: 6.00 Build 0)  -->
<!DOCTYPE svg PUBLIC "-//W3C//DTD SVG 1.1//EN" "http://www.w3.org/Graphics/SVG/1.1/DTD/svg11.dtd">
<svg version="1.1" xmlns="http://www.w3.org/2000/svg" xmlns:xlink="http://www.w3.org/1999/xlink" x="0px" y="0px" width="200px"
	 height="225px" viewBox="0 0 200 225" enable-background="new 0 0 200 225" xml:space="preserve">
<g id="Ext">
</g>
<g id="Guides">
</g>
<g id="_x31_2_Col_Grid_1_" display="none" enable-background="new    ">
	<g id="Rectangle_xA0_Image_23_" display="inline" opacity="0.102">
	</g>
	<g id="Rectangle_xA0_Image_21_" display="inline" opacity="0.102">
	</g>
	<g id="Rectangle_xA0_Image_19_" display="inline" opacity="0.102">
	</g>
	<g id="Rectangle_xA0_Image_17_" display="inline" opacity="0.102">
	</g>
	<g id="Rectangle_xA0_Image_15_" display="inline" opacity="0.102">
	</g>
	<g id="Rectangle_xA0_Image_13_" display="inline" opacity="0.102">
	</g>
	<g id="Rectangle_xA0_Image_11_" display="inline" opacity="0.102">
	</g>
	<g id="Rectangle_xA0_Image_9_" display="inline" opacity="0.102">
	</g>
	<g id="Rectangle_xA0_Image_7_" display="inline" opacity="0.102">
	</g>
	<g id="Rectangle_xA0_Image_5_" display="inline" opacity="0.102">
	</g>
	<g id="Rectangle_xA0_Image_3_" display="inline" opacity="0.102">
	</g>
	<g id="Rectangle_xA0_Image_1_" display="inline" opacity="0.102">
	</g>
</g>
<g id="Bg">
</g>
<g id="main">
	<g id="Progress">
	</g>
	<g id="Text">
	</g>
</g>
<g id="pane">
</g>
<g id="browserhead">
	<g>
		<path fill="#E0B6AD" d="M84.665,135.227c0,0,5.051,4.323,7.5,5c3.464,0.957,11.631,1.098,15,0c2.381-0.776,7.5-5,7.5-5"/>
		<path fill="#020200" d="M84.695,135.19c0,0,0.408,0.32,1.123,0.88c0.717,0.556,1.764,1.321,3.054,2.182
			c0.655,0.415,1.366,0.858,2.153,1.247c0.383,0.208,0.822,0.326,1.215,0.489c0.459,0.09,0.929,0.182,1.406,0.274
			c0.955,0.115,1.926,0.241,2.945,0.278c1.012,0.079,2.045,0.06,3.074,0.078c1.028-0.048,2.061-0.049,3.063-0.162
			c1.011-0.067,1.983-0.224,2.921-0.369c0.453-0.105,0.899-0.208,1.336-0.309c0.348-0.154,0.856-0.333,1.209-0.523
			c0.741-0.376,1.456-0.81,2.112-1.219c0.643-0.428,1.259-0.785,1.776-1.146c0.526-0.35,0.984-0.655,1.362-0.906
			c0.757-0.506,1.188-0.795,1.188-0.795l0.061,0.072c0,0-1.46,1.494-3.966,3.393c-0.64,0.455-1.335,0.947-2.161,1.426
			c-0.42,0.256-0.781,0.39-1.289,0.608c-0.475,0.119-0.959,0.24-1.451,0.363c-0.988,0.131-2.007,0.272-3.04,0.29
			c-1.034,0.071-2.081,0.027-3.128,0.03c-1.045-0.054-2.09-0.07-3.115-0.186c-1.022-0.071-2.043-0.236-3.016-0.391
			c-0.475-0.109-0.94-0.218-1.396-0.323c-0.47-0.196-0.918-0.344-1.311-0.579c-0.795-0.439-1.495-0.921-2.137-1.37
			c-1.261-0.927-2.274-1.74-2.967-2.33c-0.689-0.593-1.084-0.932-1.084-0.932L84.695,135.19z"/>
	</g>
</g>
</svg>
