<?xml version="1.0" encoding="utf-8"?>
<!-- Generator: Adobe Illustrator 16.0.0, SVG Export Plug-In . SVG Version: 6.00 Build 0)  -->
<!DOCTYPE svg PUBLIC "-//W3C//DTD SVG 1.1//EN" "http://www.w3.org/Graphics/SVG/1.1/DTD/svg11.dtd">
<svg version="1.1" id="Layer_1" xmlns="http://www.w3.org/2000/svg" xmlns:xlink="http://www.w3.org/1999/xlink" x="0px" y="0px"
	 width="200px" height="235px" viewBox="0 0 200 235" enable-background="new 0 0 200 235" xml:space="preserve">
<g id="Ext">
</g>
<g id="Guides">
</g>
<g id="_x31_2_Col_Grid_1_" display="none" enable-background="new    ">
	<g id="Rectangle_xA0_Image_23_" display="inline" opacity="0.102">
	</g>
	<g id="Rectangle_xA0_Image_21_" display="inline" opacity="0.102">
	</g>
	<g id="Rectangle_xA0_Image_19_" display="inline" opacity="0.102">
	</g>
	<g id="Rectangle_xA0_Image_17_" display="inline" opacity="0.102">
	</g>
	<g id="Rectangle_xA0_Image_15_" display="inline" opacity="0.102">
	</g>
	<g id="Rectangle_xA0_Image_13_" display="inline" opacity="0.102">
	</g>
	<g id="Rectangle_xA0_Image_11_" display="inline" opacity="0.102">
	</g>
	<g id="Rectangle_xA0_Image_9_" display="inline" opacity="0.102">
	</g>
	<g id="Rectangle_xA0_Image_7_" display="inline" opacity="0.102">
	</g>
	<g id="Rectangle_xA0_Image_5_" display="inline" opacity="0.102">
	</g>
	<g id="Rectangle_xA0_Image_3_" display="inline" opacity="0.102">
	</g>
	<g id="Rectangle_xA0_Image_1_" display="inline" opacity="0.102">
	</g>
</g>
<g id="Bg">
</g>
<g id="main">
	<g id="Progress">
	</g>
	<g id="Text">
	</g>
</g>
<g id="pane">
</g>
<ellipse stroke="#050500" stroke-miterlimit="10" cx="106.33" cy="137" rx="15" ry="5"/>
<path fill="#FFFFFF" stroke="#000000" stroke-width="1.021" stroke-miterlimit="10" d="M85.775,153.673c0,0,7.182-5.692,9.967-6.883
	c2.974-1.271,9.544-1.974,12.777-2.04c3.797-0.076,11.687,0.086,15.08,1.785c2.141,1.07,6.898,6.628,6.898,6.628
	s-0.452,2.165-1.021,2.55c-0.582,0.393-2.812,0-2.812,0s-13.372-10.93-18.146-10.963c-5.744-0.039-19.167,12.492-19.167,12.492
	s-3.908,0.916-4.601,0C84.192,156.501,85.775,153.673,85.775,153.673z"/>
<line fill="none" stroke="#000000" stroke-width="1.0542" stroke-miterlimit="10" x1="100" y1="145.25" x2="100" y2="148.584"/>
<line fill="none" stroke="#000000" stroke-width="1.2583" stroke-miterlimit="10" x1="96" y1="146.667" x2="96" y2="151.417"/>
<line fill="none" stroke="#000000" stroke-width="1.4142" stroke-miterlimit="10" x1="92.5" y1="148.251" x2="92.5" y2="154.251"/>
<line fill="none" stroke="#000000" stroke-miterlimit="10" x1="115.5" y1="145.166" x2="115.5" y2="148.166"/>
<line fill="none" stroke="#000000" stroke-width="1.2911" stroke-miterlimit="10" x1="119" y1="145.25" x2="119" y2="150.251"/>
<line fill="none" stroke="#000000" stroke-width="1.4434" stroke-miterlimit="10" x1="122.583" y1="146.584" x2="122.583" y2="152.834"/>
<line fill="none" stroke="#000000" stroke-width="1.4241" stroke-miterlimit="10" x1="89.083" y1="150.833" x2="89.083" y2="156.917"/>
<line fill="none" stroke="#000000" stroke-width="1.4044" stroke-miterlimit="10" x1="126.417" y1="149.667" x2="126.417" y2="155.584"/>
</svg>
