<?xml version="1.0" encoding="utf-8"?>
<!-- Generator: Adobe Illustrator 16.0.0, SVG Export Plug-In . SVG Version: 6.00 Build 0)  -->
<!DOCTYPE svg PUBLIC "-//W3C//DTD SVG 1.1//EN" "http://www.w3.org/Graphics/SVG/1.1/DTD/svg11.dtd">
<svg version="1.1" id="Layer_1" xmlns="http://www.w3.org/2000/svg" xmlns:xlink="http://www.w3.org/1999/xlink" x="0px" y="0px"
	 width="200px" height="235px" viewBox="0 0 200 235" enable-background="new 0 0 200 235" xml:space="preserve">
<g id="Ext">
</g>
<g id="Guides">
</g>
<g id="_x31_2_Col_Grid_1_" display="none" enable-background="new    ">
	<g id="Rectangle_xA0_Image_23_" display="inline" opacity="0.102">
	</g>
	<g id="Rectangle_xA0_Image_21_" display="inline" opacity="0.102">
	</g>
	<g id="Rectangle_xA0_Image_19_" display="inline" opacity="0.102">
	</g>
	<g id="Rectangle_xA0_Image_17_" display="inline" opacity="0.102">
	</g>
	<g id="Rectangle_xA0_Image_15_" display="inline" opacity="0.102">
	</g>
	<g id="Rectangle_xA0_Image_13_" display="inline" opacity="0.102">
	</g>
	<g id="Rectangle_xA0_Image_11_" display="inline" opacity="0.102">
	</g>
	<g id="Rectangle_xA0_Image_9_" display="inline" opacity="0.102">
	</g>
	<g id="Rectangle_xA0_Image_7_" display="inline" opacity="0.102">
	</g>
	<g id="Rectangle_xA0_Image_5_" display="inline" opacity="0.102">
	</g>
	<g id="Rectangle_xA0_Image_3_" display="inline" opacity="0.102">
	</g>
	<g id="Rectangle_xA0_Image_1_" display="inline" opacity="0.102">
	</g>
</g>
<g id="Bg">
</g>
<g id="main">
	<g id="Progress">
	</g>
	<g id="Text">
	</g>
</g>
<g id="pane">
</g>
<g>
	<g>
		<path fill="#FFFFFF" d="M98.75,153.25c0,0,3.998,3.987,5.75,4.5c1.266,0.37,4.125,0.187,5.25-0.5
			c1.158-0.707,3.453-4.188,3.453-4.188"/>
		<path d="M98.82,153.179c0,0,0.304,0.1,0.793,0.298c0.487,0.2,1.17,0.497,1.924,0.896c0.381,0.194,0.797,0.388,1.199,0.634
			c0.413,0.202,0.861,0.452,1.261,0.657c0.2,0.094,0.416,0.21,0.605,0.291c0.075,0.012,0.146,0.026,0.215,0.044l0.097,0.043
			l0.047,0.023l0.023,0.013l0.004,0.001c0.025,0.008-0.224-0.057-0.115-0.028l0.014,0.002l0.025,0.004l0.415,0.071
			c0.155,0.032,0.183,0.002,0.279,0.011c0.128,0.009,0.382-0.002,0.616-0.005c0.473,0.023,0.959-0.003,1.424-0.044
			c0.431-0.069,0.927-0.081,1.151-0.152l0.092-0.016l0.024-0.003l0.012-0.001l0.006-0.001h0.003c0.03-0.02-0.249,0.171-0.128,0.089
			l0.083-0.054c0.108-0.073,0.224-0.136,0.338-0.196c0.223-0.124,0.289-0.191,0.453-0.286c0.138-0.064,0.33-0.27,0.502-0.379
			c0.181-0.125,0.354-0.254,0.519-0.388c0.664-0.518,1.266-0.954,1.704-1.245c0.439-0.293,0.714-0.45,0.714-0.45l0.168,0.109
			c0,0-0.606,0.964-1.639,2.327c-0.256,0.344-0.549,0.698-0.879,1.073c-0.363,0.374-0.67,0.757-1.215,1.005
			c-0.507,0.25-1.06,0.357-1.618,0.466c-0.562,0.082-1.136,0.141-1.714,0.144c-0.566-0.002-1.192-0.057-1.719-0.195
			c-0.293-0.109-0.539-0.241-0.804-0.361c-0.239-0.146-0.463-0.305-0.688-0.452c-0.451-0.299-0.84-0.64-1.229-0.938
			c-0.37-0.321-0.72-0.624-1.042-0.904c-1.268-1.143-2.061-1.959-2.061-1.959L98.82,153.179z"/>
	</g>
	<g>
		<ellipse stroke="#050500" stroke-miterlimit="10" cx="106.33" cy="137" rx="15" ry="5"/>
		<g>
			<g>
				<path fill="#442E24" d="M106.018,142.925c0,0-0.558,3.821,0,5c0.781,1.667,4.535,4.224,6.65,5c1.49,0.55,5.111,0.479,6.648,0
					c2.17-0.677,5.885-3.327,6.648-5c0.539-1.183,0-3.75,0-5"/>
				<path fill="#020200" d="M106.07,142.934c0,0,0.008,0.526,0.02,1.45c0.008,0.458,0.023,1.017,0.083,1.64
					c0.067,0.611,0.158,1.355,0.454,1.791c0.117,0.154,0.232,0.332,0.359,0.479c0.129,0.118,0.26,0.239,0.393,0.362
					c0.234,0.244,0.625,0.508,0.941,0.771c0.705,0.505,1.48,0.996,2.301,1.474c0.797,0.479,1.746,0.908,2.521,1.175
					c0.562,0.161,0.848,0.163,1.363,0.214c0.484,0.044,0.984,0.04,1.482,0.044c0.986-0.004,2.029-0.071,2.875-0.271l0.158-0.035
					c-0.053,0.021,0.092-0.033,0.125-0.047l0.361-0.135c0.256-0.08,0.475-0.175,0.663-0.271c0.399-0.174,0.813-0.393,1.226-0.633
					c0.813-0.474,1.586-0.969,2.283-1.48c0.318-0.275,0.688-0.518,0.945-0.801c0.139-0.139,0.275-0.273,0.41-0.406
					c0.113-0.137,0.199-0.273,0.304-0.406c0.034-0.047,0.136-0.177,0.115-0.154l0.101-0.269c0.088-0.192,0.072-0.312,0.117-0.454
					c0.074-0.268,0.096-0.636,0.125-0.932c0.039-0.624,0.039-1.146,0.039-1.609c0-0.928,0.072-1.428,0.072-1.428h0.109
					c0,0,0.01,0.482,0.107,1.4c0.046,0.457,0.104,0.996,0.131,1.641c-0.002,0.629,0.055,1.41-0.352,2.119
					c-0.383,0.723-1.039,1.295-1.701,1.914c-0.696,0.584-1.461,1.162-2.309,1.68c-0.836,0.533-1.762,1.01-2.762,1.314
					c-1.021,0.257-2.084,0.326-3.141,0.351c-1.051-0.009-2.137-0.058-3.143-0.34c-0.998-0.345-1.901-0.836-2.74-1.366
					c-0.844-0.52-1.613-1.091-2.316-1.667c-0.663-0.603-1.35-1.196-1.723-1.894c-0.125-0.153-0.178-0.367-0.228-0.549
					c-0.065-0.188-0.079-0.373-0.097-0.556c-0.051-0.36-0.043-0.704-0.046-1.026c0.005-0.646,0.048-1.203,0.088-1.664
					c0.085-0.918,0.165-1.44,0.165-1.44L106.07,142.934z"/>
			</g>
			<g>
				<path fill="#442E24" d="M106.009,142.539c0,0,0.556,3.82,0,5c-0.786,1.667-4.538,4.225-6.649,5c-1.498,0.549-5.113,0.479-6.65,0
					c-2.172-0.678-5.887-3.328-6.651-5c-0.542-1.184,0-3.75,0-5"/>
				<path fill="#020200" d="M106.062,142.531c0,0,0.158,0.51,0.338,1.426c0.086,0.46,0.182,1.02,0.248,1.678
					c0.025,0.332,0.066,0.684,0.05,1.08c0.001,0.195-0.005,0.393-0.072,0.631l-0.088,0.353l-0.013,0.044l-0.006,0.021l-0.002,0.01
					c0.006-0.008-0.062,0.113-0.035,0.065l-0.035,0.063l-0.072,0.129c-0.102,0.173-0.186,0.348-0.305,0.529
					c-0.147,0.185-0.299,0.373-0.451,0.563c-0.314,0.407-0.641,0.671-0.979,1.03c-0.697,0.639-1.457,1.281-2.324,1.834
					c-0.428,0.283-0.873,0.562-1.35,0.816c-0.229,0.137-0.473,0.262-0.734,0.377l-0.388,0.17l-0.097,0.043l-0.049,0.021
					l-0.013,0.005l-0.081,0.026l-0.023,0.007l-0.187,0.053c-0.429,0.146-1.188,0.269-1.712,0.312
					c-0.561,0.061-1.113,0.072-1.668,0.082c-1.113-0.034-2.188-0.104-3.357-0.401l-0.218-0.058c-0.175-0.061-0.151-0.059-0.237-0.09
					l-0.357-0.146c-0.23-0.089-0.478-0.208-0.734-0.354c-0.521-0.263-0.975-0.545-1.399-0.828c-0.874-0.553-1.628-1.209-2.319-1.854
					c-0.328-0.355-0.672-0.648-0.952-1.027c-0.143-0.182-0.282-0.357-0.421-0.533c-0.127-0.193-0.237-0.411-0.348-0.609
					c-0.438-0.835-0.307-1.75-0.244-2.376c0.088-0.658,0.2-0.981,0.29-1.437c0.194-0.903,0.283-1.189,0.284-1.189h0.107
					c0,0-0.006,0.303-0.101,1.219c-0.044,0.458-0.099,0.899-0.12,1.537c0.006,0.628-0.043,1.322,0.35,1.999
					c0.365,0.687,1.022,1.229,1.678,1.837c0.693,0.574,1.456,1.133,2.297,1.641c0.83,0.521,1.74,0.974,2.721,1.269
					c0.99,0.241,2.047,0.305,3.092,0.319c1.049-0.004,2.092-0.043,3.086-0.312c0.959-0.324,1.87-0.811,2.7-1.328
					c0.842-0.51,1.607-1.074,2.31-1.641c0.668-0.605,1.315-1.145,1.705-1.846c0.371-0.664,0.344-1.431,0.358-2.057
					c0-0.639-0.039-1.195-0.076-1.652c-0.077-0.916-0.153-1.438-0.153-1.438L106.062,142.531z"/>
			</g>
		</g>
		<path fill="none" stroke="#000000" stroke-miterlimit="10" d="M82.999,146.359c0,0,1.183-4.041,2.381-4.396
			c1.198-0.357,4.397,2.38,4.397,2.38"/>
	</g>
</g>
</svg>
