<?xml version="1.0" encoding="utf-8"?>
<!-- Generator: Adobe Illustrator 16.0.0, SVG Export Plug-In . SVG Version: 6.00 Build 0)  -->
<!DOCTYPE svg PUBLIC "-//W3C//DTD SVG 1.1//EN" "http://www.w3.org/Graphics/SVG/1.1/DTD/svg11.dtd">
<svg version="1.1" xmlns="http://www.w3.org/2000/svg" xmlns:xlink="http://www.w3.org/1999/xlink" x="0px" y="0px" width="200px"
	 height="235px" viewBox="0 0 200 235" enable-background="new 0 0 200 235" xml:space="preserve">
<g id="Ext">
</g>
<g id="Guides">
</g>
<g id="_x31_2_Col_Grid_1_" display="none" enable-background="new    ">
	<g id="Rectangle_xA0_Image_23_" display="inline" opacity="0.102">
	</g>
	<g id="Rectangle_xA0_Image_21_" display="inline" opacity="0.102">
	</g>
	<g id="Rectangle_xA0_Image_19_" display="inline" opacity="0.102">
	</g>
	<g id="Rectangle_xA0_Image_17_" display="inline" opacity="0.102">
	</g>
	<g id="Rectangle_xA0_Image_15_" display="inline" opacity="0.102">
	</g>
	<g id="Rectangle_xA0_Image_13_" display="inline" opacity="0.102">
	</g>
	<g id="Rectangle_xA0_Image_11_" display="inline" opacity="0.102">
	</g>
	<g id="Rectangle_xA0_Image_9_" display="inline" opacity="0.102">
	</g>
	<g id="Rectangle_xA0_Image_7_" display="inline" opacity="0.102">
	</g>
	<g id="Rectangle_xA0_Image_5_" display="inline" opacity="0.102">
	</g>
	<g id="Rectangle_xA0_Image_3_" display="inline" opacity="0.102">
	</g>
	<g id="Rectangle_xA0_Image_1_" display="inline" opacity="0.102">
	</g>
</g>
<g id="Bg">
</g>
<g id="main">
	<g id="Progress">
	</g>
	<g id="Text">
	</g>
</g>
<g id="pane">
</g>
<g id="browserhead">
	<g>
		<g>
			<g>
				<line fill="#442E24" x1="88.186" y1="97.544" x2="92.424" y2="101.605"/>
				<path fill="#231713" d="M88.218,97.51c0,0,1.204,0.865,2.348,1.793c0.289,0.229,0.6,0.435,0.857,0.663
					c0.247,0.239,0.445,0.496,0.6,0.732c0.314,0.468,0.435,0.873,0.434,0.873l-0.064,0.068c-0.001,0-0.41-0.103-0.891-0.396
					c-0.243-0.145-0.509-0.332-0.758-0.568c-0.239-0.248-0.458-0.549-0.699-0.828c-0.976-1.104-1.891-2.269-1.891-2.269
					L88.218,97.51z"/>
			</g>
			<g>
				<line fill="#442E24" x1="79.711" y1="100.218" x2="81.607" y2="105.666"/>
				<path fill="#231713" d="M79.756,100.202c0,0,0.67,1.294,1.26,2.616c0.15,0.329,0.332,0.647,0.455,0.962
					c0.109,0.32,0.168,0.634,0.196,0.91c0.064,0.551-0.015,0.96-0.015,0.96l-0.09,0.031c0,0-0.316-0.271-0.607-0.743
					c-0.149-0.234-0.299-0.517-0.411-0.835c-0.099-0.323-0.154-0.686-0.241-1.038c-0.358-1.401-0.637-2.832-0.637-2.832
					L79.756,100.202z"/>
			</g>
			<g>
				<line fill="#442E24" x1="71.237" y1="96.5" x2="68.492" y2="101.605"/>
				<path fill="#231713" d="M71.279,96.522c-0.001,0-0.504,1.375-1.082,2.709c-0.142,0.335-0.255,0.686-0.404,0.991
					c-0.162,0.298-0.354,0.555-0.54,0.764c-0.363,0.422-0.719,0.642-0.719,0.642l-0.084-0.045c0,0-0.013-0.418,0.139-0.954
					c0.072-0.27,0.18-0.571,0.34-0.871c0.172-0.293,0.402-0.581,0.604-0.884c0.794-1.219,1.664-2.396,1.663-2.396L71.279,96.522z"/>
			</g>
		</g>
		<g>
			<g>
				<line fill="#442E24" x1="138.186" y1="97.544" x2="142.424" y2="101.605"/>
				<path fill="#231713" d="M138.218,97.51c0,0,1.204,0.865,2.348,1.793c0.289,0.229,0.6,0.435,0.857,0.663
					c0.247,0.239,0.445,0.496,0.6,0.732c0.314,0.468,0.435,0.873,0.434,0.873l-0.064,0.068c-0.001,0-0.41-0.103-0.891-0.396
					c-0.243-0.145-0.509-0.332-0.758-0.568c-0.239-0.248-0.458-0.549-0.699-0.828c-0.976-1.104-1.891-2.269-1.891-2.269
					L138.218,97.51z"/>
			</g>
			<g>
				<line fill="#442E24" x1="129.711" y1="100.218" x2="131.607" y2="105.666"/>
				<path fill="#231713" d="M129.756,100.202c0,0,0.67,1.294,1.26,2.616c0.15,0.329,0.332,0.647,0.455,0.962
					c0.109,0.32,0.168,0.634,0.196,0.91c0.064,0.551-0.015,0.96-0.015,0.96l-0.09,0.031c0,0-0.316-0.271-0.607-0.743
					c-0.149-0.234-0.299-0.517-0.411-0.835c-0.099-0.323-0.154-0.686-0.241-1.038c-0.358-1.401-0.637-2.832-0.637-2.832
					L129.756,100.202z"/>
			</g>
			<g>
				<line fill="#442E24" x1="121.237" y1="96.5" x2="118.492" y2="101.605"/>
				<path fill="#231713" d="M121.279,96.522c-0.001,0-0.504,1.375-1.082,2.709c-0.142,0.335-0.255,0.686-0.404,0.991
					c-0.162,0.298-0.354,0.555-0.54,0.764c-0.363,0.422-0.719,0.642-0.719,0.642l-0.084-0.045c0,0-0.013-0.418,0.139-0.954
					c0.072-0.27,0.18-0.571,0.34-0.871c0.172-0.293,0.402-0.581,0.604-0.884c0.794-1.219,1.664-2.396,1.663-2.396L121.279,96.522z"
					/>
			</g>
		</g>
		
			<ellipse fill="#442E24" stroke="#231713" stroke-width="0.9428" stroke-miterlimit="10" cx="78.777" cy="87.025" rx="12.799" ry="12"/>
		
			<ellipse fill="#442E24" stroke="#231713" stroke-width="0.9428" stroke-miterlimit="10" cx="130.777" cy="86.225" rx="12.799" ry="12"/>
	</g>
</g>
</svg>
