<?xml version="1.0" encoding="utf-8"?>
<!-- Generator: Adobe Illustrator 16.0.0, SVG Export Plug-In . SVG Version: 6.00 Build 0)  -->
<!DOCTYPE svg PUBLIC "-//W3C//DTD SVG 1.1//EN" "http://www.w3.org/Graphics/SVG/1.1/DTD/svg11.dtd">
<svg version="1.1" xmlns="http://www.w3.org/2000/svg" xmlns:xlink="http://www.w3.org/1999/xlink" x="0px" y="0px" width="200px"
	 height="235px" viewBox="0 0 200 235" enable-background="new 0 0 200 235" xml:space="preserve">
<g id="Ext">
</g>
<g id="Guides">
</g>
<g id="_x31_2_Col_Grid_1_" display="none" enable-background="new    ">
	<g id="Rectangle_xA0_Image_23_" display="inline" opacity="0.102">
	</g>
	<g id="Rectangle_xA0_Image_21_" display="inline" opacity="0.102">
	</g>
	<g id="Rectangle_xA0_Image_19_" display="inline" opacity="0.102">
	</g>
	<g id="Rectangle_xA0_Image_17_" display="inline" opacity="0.102">
	</g>
	<g id="Rectangle_xA0_Image_15_" display="inline" opacity="0.102">
	</g>
	<g id="Rectangle_xA0_Image_13_" display="inline" opacity="0.102">
	</g>
	<g id="Rectangle_xA0_Image_11_" display="inline" opacity="0.102">
	</g>
	<g id="Rectangle_xA0_Image_9_" display="inline" opacity="0.102">
	</g>
	<g id="Rectangle_xA0_Image_7_" display="inline" opacity="0.102">
	</g>
	<g id="Rectangle_xA0_Image_5_" display="inline" opacity="0.102">
	</g>
	<g id="Rectangle_xA0_Image_3_" display="inline" opacity="0.102">
	</g>
	<g id="Rectangle_xA0_Image_1_" display="inline" opacity="0.102">
	</g>
</g>
<g id="Bg">
</g>
<g id="main">
	<g id="Progress">
	</g>
	<g id="Text">
	</g>
</g>
<g id="pane">
</g>
<g id="browserhead">
	<g>
		<ellipse stroke="#050500" stroke-miterlimit="10" cx="106.33" cy="137" rx="15" ry="5"/>
		<g>
			<path fill="#442E24" d="M122.816,153.849c0,0,0.827-3.057,0-4c-1.174-1.334-6.767-3.379-9.917-4
				c-2.231-0.439-7.626-0.383-9.917,0c-3.239,0.541-8.777,2.662-9.917,4c-0.809,0.946,0,3,0,4"/>
			<path fill="#020200" d="M122.748,153.831c0-0.001,0.076-0.628,0.08-1.693c-0.006-0.51-0.025-1.217-0.283-1.726
				c-0.076-0.117-0.115-0.187-0.223-0.222c-0.169-0.112-0.342-0.228-0.521-0.347c-0.364-0.169-0.673-0.318-1.071-0.487
				c-1.656-0.666-3.709-1.306-5.898-1.86c-0.547-0.139-1.104-0.272-1.659-0.368l-0.419-0.081l-0.053-0.011l-0.025-0.026
				c-0.077-0.012,0.09-0.01,0.066-0.01h-0.014l-0.113,0.012l-0.227-0.006l-0.908-0.085l-0.914-0.088l-0.873-0.005l-1.75-0.021
				l-1.812,0.036l-0.901,0.019l-0.861,0.078l-0.857,0.073c-0.126,0.01-0.324,0.014-0.39,0.029l-0.444,0.077
				c-0.607,0.092-1.148,0.217-1.67,0.345c-1.059,0.268-2.143,0.547-3.132,0.851c-0.994,0.309-1.915,0.646-2.735,1
				c-0.404,0.176-0.762,0.388-1.114,0.554c-0.146,0.095-0.288,0.187-0.426,0.276l-0.108,0.067c0.111-0.156,0.027-0.039,0.051-0.072
				l-0.006,0.008l-0.01,0.015l-0.022,0.03l-0.044,0.06l-0.17,0.234c-0.044,0.124-0.064,0.196-0.115,0.318
				c-0.023,0.155-0.045,0.304-0.066,0.447c-0.008,0.306-0.017,0.593,0.004,0.862c0.037,0.531,0.043,1.052,0.049,1.347
				c-0.018,0.303-0.026,0.539-0.026,0.539h-0.141c0,0-0.013-0.227-0.038-0.51c-0.051-0.287-0.123-0.744-0.217-1.278
				c-0.068-0.536-0.24-1.225,0.035-2.01c0.344-0.731,1.185-1.151,1.975-1.614c1.66-0.866,3.693-1.667,5.941-2.314
				c1.123-0.335,2.304-0.585,3.535-0.677c1.221-0.172,2.467-0.126,3.711-0.195l1.87,0.052l0.931,0.026l0.914,0.103
				c1.215,0.091,2.416,0.387,3.524,0.724c2.237,0.665,4.277,1.444,5.945,2.295c0.812,0.483,1.634,0.826,1.985,1.603
				c0.239,0.758,0.145,1.438,0.098,1.978c-0.139,1.086-0.32,1.687-0.32,1.686L122.748,153.831z"/>
		</g>
	</g>
</g>
</svg>
