<?xml version="1.0" encoding="utf-8"?>
<!-- Generator: Adobe Illustrator 16.0.0, SVG Export Plug-In . SVG Version: 6.00 Build 0)  -->
<!DOCTYPE svg PUBLIC "-//W3C//DTD SVG 1.1//EN" "http://www.w3.org/Graphics/SVG/1.1/DTD/svg11.dtd">
<svg version="1.1" id="Layer_1" xmlns="http://www.w3.org/2000/svg" xmlns:xlink="http://www.w3.org/1999/xlink" x="0px" y="0px"
	 width="200px" height="235px" viewBox="0 0 200 235" enable-background="new 0 0 200 235" xml:space="preserve">
<g id="Ext">
</g>
<g id="Guides">
</g>
<g id="_x31_2_Col_Grid_1_" display="none" enable-background="new    ">
	<g id="Rectangle_xA0_Image_23_" display="inline" opacity="0.102">
	</g>
	<g id="Rectangle_xA0_Image_21_" display="inline" opacity="0.102">
	</g>
	<g id="Rectangle_xA0_Image_19_" display="inline" opacity="0.102">
	</g>
	<g id="Rectangle_xA0_Image_17_" display="inline" opacity="0.102">
	</g>
	<g id="Rectangle_xA0_Image_15_" display="inline" opacity="0.102">
	</g>
	<g id="Rectangle_xA0_Image_13_" display="inline" opacity="0.102">
	</g>
	<g id="Rectangle_xA0_Image_11_" display="inline" opacity="0.102">
	</g>
	<g id="Rectangle_xA0_Image_9_" display="inline" opacity="0.102">
	</g>
	<g id="Rectangle_xA0_Image_7_" display="inline" opacity="0.102">
	</g>
	<g id="Rectangle_xA0_Image_5_" display="inline" opacity="0.102">
	</g>
	<g id="Rectangle_xA0_Image_3_" display="inline" opacity="0.102">
	</g>
	<g id="Rectangle_xA0_Image_1_" display="inline" opacity="0.102">
	</g>
</g>
<g id="Bg">
</g>
<g id="main">
	<g id="Progress">
	</g>
	<g id="Text">
	</g>
</g>
<g id="pane">
</g>
<g>
	<g>
		
			<ellipse transform="matrix(-0.4436 -0.8962 0.8962 -0.4436 28.5758 190.7416)" fill="#442E24" stroke="#442E24" stroke-width="0.9428" stroke-miterlimit="10" cx="73.5" cy="86.5" rx="12.5" ry="13.5"/>
		<path fill="#FCFCFC" stroke="#020200" stroke-width="0.8385" stroke-miterlimit="10" d="M79.876,82.415
			c0.156,0.227,0.303,0.463,0.429,0.717c1.633,3.3-0.09,7.483-3.849,9.343c-3.758,1.86-8.13,0.693-9.763-2.607
			c-0.125-0.253-0.226-0.513-0.31-0.776l-5.313,2.629c0.106,0.255,0.206,0.514,0.331,0.766c3.062,6.187,10.96,8.523,17.644,5.215
			c6.683-3.308,9.617-11.004,6.555-17.191c-0.125-0.252-0.27-0.488-0.41-0.727L79.876,82.415z"/>
		<path stroke="#020200" stroke-width="0.4593" stroke-miterlimit="10" d="M66.385,89.092c0.084,0.263,0.185,0.522,0.31,0.776
			c1.633,3.3,6.004,4.467,9.763,2.607c3.759-1.86,5.482-6.043,3.849-9.343c-0.125-0.254-0.273-0.49-0.429-0.717L66.385,89.092z"/>
	</g>
	<g>
		
			<ellipse transform="matrix(0.4499 -0.8931 0.8931 0.4499 -6.016 163.2328)" fill="#442E24" stroke="#442E24" stroke-width="0.9428" stroke-miterlimit="10" cx="129.5" cy="86.5" rx="12.5" ry="13.5"/>
		<path fill="#FCFCFC" stroke="#020200" stroke-width="0.8385" stroke-miterlimit="10" d="M136.598,89.143
			c-0.089,0.261-0.189,0.521-0.316,0.773c-1.657,3.288-6.036,4.424-9.782,2.537c-3.745-1.887-5.439-6.083-3.782-9.372
			c0.127-0.252,0.274-0.488,0.434-0.714l-5.293-2.667c-0.141,0.238-0.287,0.473-0.414,0.725c-3.105,6.165-0.228,13.882,6.433,17.237
			c6.659,3.355,14.574,1.076,17.681-5.089c0.126-0.251,0.228-0.509,0.334-0.764L136.598,89.143z"/>
		<path stroke="#020200" stroke-width="0.4593" stroke-miterlimit="10" d="M123.152,82.369c-0.159,0.225-0.306,0.461-0.433,0.714
			c-1.657,3.289,0.035,7.484,3.781,9.371s8.125,0.751,9.781-2.537c0.128-0.253,0.229-0.512,0.316-0.773L123.152,82.369z"/>
	</g>
	<g>
		<path fill="#CFEFFF" d="M81.399,108.137c0,3.514-2.308,6.363-5.156,6.363s-5.156-2.85-5.156-6.363
			c0-3.513,2.308-13.637,5.156-13.637S81.399,104.623,81.399,108.137z"/>
		<path d="M81.399,108.137c0,0-0.004,0.167-0.012,0.48c-0.013,0.313-0.059,0.773-0.185,1.355c-0.142,0.581-0.364,1.287-0.843,2.071
			c-0.238,0.392-0.541,0.804-0.984,1.211c-0.447,0.401-0.992,0.83-1.897,1.115c-0.891,0.317-2.296,0.206-3.102-0.199
			c-0.858-0.379-1.446-0.89-1.918-1.423c-0.921-1.079-1.425-2.294-1.638-3.556c-0.222-1.267-0.084-2.572,0.103-3.888
			c0.19-1.317,0.456-2.653,0.796-3.984c0.376-1.33,0.817-2.656,1.419-3.95c0.305-0.647,0.644-1.287,1.132-1.907
			c0.266-0.308,0.52-0.616,1.027-0.896c0.194-0.134,0.744-0.299,1.202-0.216c0.138,0.012,0.473,0.112,0.571,0.175
			c0.128,0.068,0.258,0.138,0.34,0.212c1.301,1.177,1.611,2.386,2.083,3.517c0.404,1.136,0.693,2.216,0.922,3.213
			c0.464,1.995,0.749,3.662,0.87,4.832C81.42,107.468,81.399,108.137,81.399,108.137z M81.399,108.137c0,0-0.041-2.683-1.192-6.656
			c-0.301-0.992-0.659-2.064-1.14-3.187c-0.52-1.101-0.988-2.348-2.22-3.37c-0.38-0.249-0.619-0.34-0.99-0.113
			c-0.351,0.204-0.6,0.503-0.821,0.792c-0.435,0.591-0.759,1.221-1.042,1.858c-0.559,1.278-0.958,2.599-1.304,3.92
			c-0.375,1.321-0.672,2.647-0.899,3.955c-0.198,1.309-0.418,2.598-0.29,3.835c0.121,1.238,0.536,2.437,1.36,3.497
			c0.419,0.525,0.96,1.024,1.733,1.388c0.73,0.384,1.916,0.498,2.775,0.225c0.862-0.251,1.442-0.661,1.881-1.057
			c0.45-0.399,0.761-0.807,1.008-1.194c0.495-0.777,0.735-1.48,0.895-2.059c0.138-0.581,0.199-1.04,0.217-1.354
			C81.394,108.304,81.399,108.137,81.399,108.137z"/>
	</g>
	<g>
		<path fill="#CFEFFF" d="M134.749,111.137c0,3.514-2.102,6.363-4.688,6.363c-2.593,0-4.688-2.85-4.688-6.363
			c0-3.513,2.095-13.637,4.688-13.637C132.647,97.5,134.749,107.623,134.749,111.137z"/>
		<path d="M134.749,111.137c0,0-0.003,0.167-0.011,0.48c-0.013,0.313-0.055,0.773-0.17,1.355c-0.127,0.581-0.332,1.287-0.764,2.071
			c-0.22,0.392-0.494,0.804-0.899,1.211c-0.402,0.401-0.899,0.83-1.721,1.115c-0.812,0.316-2.088,0.206-2.82-0.199
			c-0.784-0.379-1.314-0.889-1.745-1.423c-0.837-1.079-1.295-2.294-1.486-3.556c-0.204-1.267-0.077-2.572,0.091-3.888
			c0.174-1.317,0.414-2.653,0.724-3.984c0.342-1.33,0.741-2.656,1.291-3.951c0.278-0.646,0.584-1.286,1.029-1.906
			c0.241-0.308,0.476-0.616,0.938-0.896c0.176-0.134,0.676-0.298,1.091-0.217c0.126,0.013,0.431,0.113,0.519,0.175
			c0.115,0.069,0.234,0.139,0.312,0.213c1.181,1.177,1.465,2.386,1.892,3.517c0.367,1.136,0.633,2.216,0.84,3.213
			c0.423,1.995,0.682,3.662,0.791,4.832C134.768,110.468,134.749,111.137,134.749,111.137z M134.749,111.137
			c0,0-0.038-2.683-1.087-6.656c-0.273-0.992-0.6-2.063-1.037-3.187c-0.473-1.101-0.898-2.348-2.014-3.371
			c-0.347-0.248-0.564-0.338-0.903-0.112c-0.318,0.204-0.546,0.503-0.745,0.792c-0.396,0.591-0.692,1.221-0.948,1.858
			c-0.507,1.278-0.872,2.599-1.185,3.92c-0.339,1.321-0.61,2.647-0.815,3.955c-0.179,1.309-0.379,2.598-0.264,3.835
			c0.11,1.238,0.487,2.437,1.234,3.498c0.383,0.524,0.872,1.022,1.575,1.388c0.664,0.383,1.743,0.498,2.523,0.225
			c0.783-0.251,1.314-0.661,1.713-1.057c0.407-0.399,0.689-0.808,0.914-1.194c0.45-0.777,0.67-1.48,0.815-2.059
			c0.128-0.581,0.181-1.04,0.197-1.354C134.742,111.304,134.749,111.137,134.749,111.137z"/>
	</g>
	<g>
		<path fill="#CFEFFF" d="M80.261,132.727c0,3.515-1.892,6.363-4.219,6.363c-2.333,0-4.219-2.85-4.219-6.363
			c0-3.513,1.886-13.637,4.219-13.637C78.367,119.09,80.261,129.213,80.261,132.727z"/>
		<path d="M80.261,132.727c0,0-0.003,0.168-0.01,0.48c-0.011,0.312-0.048,0.773-0.152,1.355c-0.115,0.58-0.298,1.287-0.688,2.07
			c-0.196,0.393-0.444,0.805-0.808,1.211c-0.363,0.401-0.81,0.83-1.549,1.115c-0.729,0.316-1.878,0.206-2.538-0.199
			c-0.706-0.379-1.184-0.889-1.572-1.423c-0.753-1.079-1.164-2.294-1.338-3.556c-0.182-1.268-0.069-2.572,0.083-3.889
			c0.157-1.316,0.373-2.652,0.651-3.983c0.309-1.33,0.668-2.656,1.161-3.951c0.251-0.646,0.527-1.286,0.926-1.906
			c0.219-0.308,0.429-0.616,0.844-0.896c0.159-0.135,0.609-0.299,0.982-0.217c0.114,0.013,0.388,0.112,0.467,0.175
			c0.104,0.069,0.211,0.139,0.28,0.213c1.063,1.177,1.318,2.386,1.702,3.517c0.332,1.137,0.57,2.217,0.757,3.213
			c0.38,1.995,0.613,3.662,0.712,4.832C80.275,132.059,80.261,132.727,80.261,132.727z M80.261,132.727c0,0-0.034-2.683-0.979-6.656
			c-0.245-0.991-0.538-2.062-0.933-3.187c-0.426-1.101-0.809-2.348-1.813-3.37c-0.311-0.248-0.507-0.339-0.812-0.113
			c-0.287,0.205-0.491,0.504-0.67,0.793c-0.356,0.591-0.623,1.221-0.854,1.857c-0.458,1.278-0.786,2.6-1.067,3.92
			c-0.305,1.321-0.548,2.647-0.734,3.955c-0.162,1.309-0.34,2.598-0.237,3.835c0.099,1.238,0.438,2.438,1.111,3.498
			c0.345,0.524,0.785,1.023,1.417,1.388c0.598,0.384,1.568,0.498,2.271,0.225c0.706-0.251,1.182-0.661,1.541-1.057
			c0.366-0.399,0.62-0.808,0.823-1.194c0.405-0.777,0.603-1.479,0.732-2.06c0.115-0.58,0.164-1.039,0.179-1.354
			C80.254,132.895,80.261,132.727,80.261,132.727z"/>
	</g>
	<g>
		<path fill="#CFEFFF" d="M134.593,136.727c0,3.515-1.892,6.363-4.218,6.363c-2.334,0-4.219-2.85-4.219-6.363
			c0-3.513,1.885-13.637,4.219-13.637C132.701,123.09,134.593,133.213,134.593,136.727z"/>
		<path d="M134.593,136.727c0,0-0.003,0.168-0.01,0.48c-0.01,0.312-0.046,0.773-0.151,1.355c-0.115,0.58-0.298,1.287-0.688,2.07
			c-0.194,0.393-0.443,0.805-0.808,1.211c-0.362,0.401-0.811,0.83-1.549,1.115c-0.729,0.316-1.879,0.206-2.538-0.199
			c-0.705-0.379-1.183-0.889-1.572-1.423c-0.751-1.079-1.163-2.294-1.338-3.556c-0.181-1.268-0.069-2.572,0.083-3.889
			c0.158-1.316,0.374-2.652,0.652-3.983c0.308-1.33,0.669-2.656,1.16-3.951c0.252-0.646,0.527-1.286,0.926-1.906
			c0.221-0.308,0.429-0.616,0.844-0.896c0.16-0.135,0.609-0.299,0.982-0.217c0.115,0.013,0.389,0.112,0.468,0.175
			c0.105,0.069,0.211,0.139,0.28,0.213c1.062,1.177,1.318,2.386,1.7,3.517c0.333,1.137,0.57,2.217,0.758,3.213
			c0.379,1.995,0.613,3.662,0.712,4.832C134.609,136.059,134.593,136.727,134.593,136.727z M134.593,136.727
			c0,0-0.032-2.683-0.979-6.656c-0.244-0.991-0.537-2.062-0.933-3.187c-0.425-1.101-0.808-2.348-1.812-3.37
			c-0.31-0.248-0.508-0.339-0.811-0.113c-0.287,0.205-0.491,0.504-0.669,0.793c-0.356,0.591-0.623,1.221-0.854,1.857
			c-0.458,1.278-0.786,2.6-1.068,3.92c-0.305,1.321-0.547,2.647-0.734,3.955c-0.162,1.309-0.34,2.598-0.237,3.835
			c0.099,1.238,0.438,2.438,1.112,3.498c0.344,0.524,0.784,1.023,1.417,1.388c0.598,0.384,1.566,0.498,2.272,0.225
			c0.705-0.251,1.18-0.661,1.539-1.057c0.365-0.399,0.619-0.808,0.823-1.194c0.405-0.777,0.604-1.479,0.732-2.06
			c0.115-0.58,0.164-1.039,0.179-1.354C134.587,136.895,134.593,136.727,134.593,136.727z"/>
	</g>
</g>
</svg>
