<?xml version="1.0" encoding="utf-8"?>
<!-- Generator: Adobe Illustrator 16.0.0, SVG Export Plug-In . SVG Version: 6.00 Build 0)  -->
<!DOCTYPE svg PUBLIC "-//W3C//DTD SVG 1.1//EN" "http://www.w3.org/Graphics/SVG/1.1/DTD/svg11.dtd">
<svg version="1.1" xmlns="http://www.w3.org/2000/svg" xmlns:xlink="http://www.w3.org/1999/xlink" x="0px" y="0px" width="200px"
	 height="235px" viewBox="0 0 200 235" enable-background="new 0 0 200 235" xml:space="preserve">
<g id="Ext">
</g>
<g id="Guides">
</g>
<g id="_x31_2_Col_Grid_1_" display="none" enable-background="new    ">
	<g id="Rectangle_xA0_Image_23_" display="inline" opacity="0.102">
	</g>
	<g id="Rectangle_xA0_Image_21_" display="inline" opacity="0.102">
	</g>
	<g id="Rectangle_xA0_Image_19_" display="inline" opacity="0.102">
	</g>
	<g id="Rectangle_xA0_Image_17_" display="inline" opacity="0.102">
	</g>
	<g id="Rectangle_xA0_Image_15_" display="inline" opacity="0.102">
	</g>
	<g id="Rectangle_xA0_Image_13_" display="inline" opacity="0.102">
	</g>
	<g id="Rectangle_xA0_Image_11_" display="inline" opacity="0.102">
	</g>
	<g id="Rectangle_xA0_Image_9_" display="inline" opacity="0.102">
	</g>
	<g id="Rectangle_xA0_Image_7_" display="inline" opacity="0.102">
	</g>
	<g id="Rectangle_xA0_Image_5_" display="inline" opacity="0.102">
	</g>
	<g id="Rectangle_xA0_Image_3_" display="inline" opacity="0.102">
	</g>
	<g id="Rectangle_xA0_Image_1_" display="inline" opacity="0.102">
	</g>
</g>
<g id="Bg">
</g>
<g id="main">
	<g id="Progress">
	</g>
	<g id="Text">
	</g>
</g>
<g id="pane">
</g>
<g id="browserhead">
	<g>
		<ellipse stroke="#050500" stroke-miterlimit="10" cx="106.33" cy="137" rx="15" ry="5"/>
		<g>
			<g>
				<path fill="#442E24" d="M105.562,141.925c0,0-0.418,3.821,0,5c0.589,1.667,3.411,4.224,5,5c1.122,0.549,3.844,0.479,5,0
					c1.632-0.677,4.425-3.328,5-5c0.405-1.183,0-3.75,0-5"/>
				<path fill="#020200" d="M105.609,141.93c0,0,0.021,0.466,0.047,1.272c0.014,0.403,0.031,0.892,0.074,1.446
					c0.048,0.548,0.107,1.191,0.234,1.781c0.047,0.12,0.064,0.307,0.129,0.377c0.088,0.157,0.178,0.317,0.268,0.48
					c0.215,0.281,0.382,0.511,0.645,0.79c0.504,0.551,1.104,1.085,1.727,1.628c0.626,0.523,1.326,1.066,2.028,1.418l0.131,0.072
					l0.017,0.009c0.064,0.028-0.08-0.033-0.062-0.026l0.011,0.004l0.04,0.014l0.081,0.027l0.324,0.11l0.504,0.08
					c0.406,0.043,0.826,0.054,1.252,0.049c0.832,0.005,1.768-0.071,2.338-0.345c0.443-0.194,0.74-0.412,1.059-0.614
					c0.324-0.249,0.672-0.487,0.974-0.765c0.617-0.542,1.21-1.083,1.706-1.641c0.484-0.576,0.902-1.092,1.038-1.691
					c0.116-0.57,0.176-1.19,0.205-1.749c0.03-0.555,0.039-1.009,0.049-1.415c0.022-0.812,0.089-1.242,0.089-1.242h0.094
					c0,0,0.006,0.42,0.07,1.225c0.027,0.402,0.061,0.873,0.098,1.435c0.026,0.561,0.045,1.193-0.062,1.89
					c-0.113,0.701-0.557,1.35-1.028,1.981c-0.491,0.628-1.064,1.242-1.713,1.82c-0.644,0.568-1.36,1.158-2.181,1.553
					c-0.848,0.411-1.801,0.471-2.724,0.501c-0.909-0.013-1.905-0.048-2.72-0.502c-0.812-0.438-1.508-1.014-2.16-1.583
					c-0.65-0.576-1.234-1.183-1.732-1.806c-0.483-0.641-0.936-1.26-1.043-1.979c-0.186-1.39-0.047-2.545-0.012-3.35
					c0.072-0.805,0.113-1.265,0.113-1.265L105.609,141.93z"/>
			</g>
			<g>
				<path fill="#442E24" d="M105.557,141.539c0,0,0.417,3.821,0,5c-0.592,1.667-3.412,4.224-5,5c-1.125,0.549-3.845,0.479-5,0
					c-1.633-0.677-4.426-3.328-5-5c-0.408-1.183,0-3.75,0-5"/>
				<path fill="#020200" d="M105.604,141.534c0,0,0.121,0.451,0.266,1.254c0.064,0.402,0.143,0.891,0.211,1.46
					c0.063,0.573,0.143,1.206,0.053,1.981c-0.049,0.21-0.031,0.393-0.147,0.64c-0.068,0.167-0.138,0.337-0.21,0.509
					c-0.187,0.344-0.43,0.773-0.675,1.101c-0.489,0.684-1.056,1.354-1.73,1.953c-0.677,0.606-1.368,1.206-2.271,1.712l-0.165,0.098
					l-0.021,0.012l-0.091,0.039l-0.04,0.016l-0.08,0.03l-0.318,0.123c-0.258,0.073-0.569,0.145-0.842,0.194
					c-0.504,0.073-1.005,0.11-1.502,0.116c-0.996-0.058-1.963-0.102-3.034-0.623c-0.386-0.186-0.824-0.49-1.241-0.788
					c-0.371-0.305-0.738-0.583-1.062-0.902c-0.678-0.604-1.23-1.288-1.714-1.976c-0.245-0.34-0.446-0.712-0.64-1.068
					c-0.08-0.197-0.16-0.392-0.236-0.582c-0.023-0.066-0.028-0.051-0.065-0.186l-0.022-0.131l-0.044-0.259
					c-0.099-0.796-0.008-1.454,0.071-2.015c0.08-0.568,0.167-0.822,0.235-1.222C90.436,142.226,90.51,142,90.51,142h0.094
					c0,0-0.002,0.234-0.062,1.039c-0.024,0.402-0.055,0.775-0.089,1.335c-0.023,0.56-0.036,1.138,0.071,1.808
					c0.115,0.68,0.547,1.277,1.018,1.902c0.488,0.617,1.061,1.211,1.707,1.778c0.652,0.565,1.332,1.118,2.154,1.508
					c0.795,0.384,1.744,0.441,2.648,0.463c0.912-0.012,1.845-0.032,2.639-0.466c0.791-0.42,1.488-0.988,2.138-1.549
					c0.647-0.566,1.229-1.164,1.726-1.777c0.467-0.602,0.936-1.248,1.03-1.916c0.189-1.354,0.062-2.521,0.032-3.319
					c-0.067-0.803-0.105-1.262-0.105-1.262L105.604,141.534z"/>
			</g>
		</g>
	</g>
</g>
</svg>
