<?xml version="1.0" encoding="utf-8"?>
<!-- Generator: Adobe Illustrator 16.0.0, SVG Export Plug-In . SVG Version: 6.00 Build 0)  -->
<!DOCTYPE svg PUBLIC "-//W3C//DTD SVG 1.1//EN" "http://www.w3.org/Graphics/SVG/1.1/DTD/svg11.dtd">
<svg version="1.1" xmlns="http://www.w3.org/2000/svg" xmlns:xlink="http://www.w3.org/1999/xlink" x="0px" y="0px" width="200px"
	 height="235px" viewBox="0 0 200 235" enable-background="new 0 0 200 235" xml:space="preserve">
<g id="Ext">
</g>
<g id="Guides">
</g>
<g id="_x31_2_Col_Grid_1_" display="none" enable-background="new    ">
	<g id="Rectangle_xA0_Image_23_" display="inline" opacity="0.102">
	</g>
	<g id="Rectangle_xA0_Image_21_" display="inline" opacity="0.102">
	</g>
	<g id="Rectangle_xA0_Image_19_" display="inline" opacity="0.102">
	</g>
	<g id="Rectangle_xA0_Image_17_" display="inline" opacity="0.102">
	</g>
	<g id="Rectangle_xA0_Image_15_" display="inline" opacity="0.102">
	</g>
	<g id="Rectangle_xA0_Image_13_" display="inline" opacity="0.102">
	</g>
	<g id="Rectangle_xA0_Image_11_" display="inline" opacity="0.102">
	</g>
	<g id="Rectangle_xA0_Image_9_" display="inline" opacity="0.102">
	</g>
	<g id="Rectangle_xA0_Image_7_" display="inline" opacity="0.102">
	</g>
	<g id="Rectangle_xA0_Image_5_" display="inline" opacity="0.102">
	</g>
	<g id="Rectangle_xA0_Image_3_" display="inline" opacity="0.102">
	</g>
	<g id="Rectangle_xA0_Image_1_" display="inline" opacity="0.102">
	</g>
</g>
<g id="Bg">
</g>
<g id="main">
	<g id="Progress">
	</g>
	<g id="Text">
	</g>
</g>
<g id="pane">
</g>
<g id="browserhead">
	<g>
		
			<ellipse fill="#442E24" stroke="#442E24" stroke-width="0.9428" stroke-miterlimit="10" cx="73.5" cy="86.5" rx="13.5" ry="12.5"/>
		<path fill="#FCFCFC" stroke="#020200" stroke-width="0.8385" stroke-miterlimit="10" d="M81.027,85.667
			c0.039,0.273,0.066,0.55,0.066,0.833c0,3.682-3.4,6.667-7.594,6.667s-7.594-2.985-7.594-6.667c0-0.283,0.025-0.56,0.066-0.833
			h-5.928C60.025,85.943,60,86.219,60,86.5C60,93.403,66.043,99,73.5,99S87,93.403,87,86.5c0-0.281-0.025-0.557-0.045-0.833H81.027z
			"/>
		<path stroke="#020200" stroke-width="0.4593" stroke-miterlimit="10" d="M65.973,85.667c-0.041,0.273-0.066,0.55-0.066,0.833
			c0,3.682,3.4,6.667,7.594,6.667s7.594-2.985,7.594-6.667c0-0.283-0.027-0.56-0.066-0.833H65.973z"/>
		
			<ellipse fill="#442E24" stroke="#442E24" stroke-width="0.9428" stroke-miterlimit="10" cx="129.5" cy="86.5" rx="13.5" ry="12.5"/>
		<path fill="#FCFCFC" stroke="#020200" stroke-width="0.8385" stroke-miterlimit="10" d="M137.027,85.667
			c0.039,0.273,0.066,0.55,0.066,0.833c0,3.682-3.4,6.667-7.594,6.667s-7.594-2.985-7.594-6.667c0-0.283,0.025-0.56,0.066-0.833
			h-5.928C116.025,85.943,116,86.219,116,86.5c0,6.903,6.043,12.5,13.5,12.5S143,93.403,143,86.5c0-0.281-0.025-0.557-0.045-0.833
			H137.027z"/>
		<path stroke="#020200" stroke-width="0.4593" stroke-miterlimit="10" d="M121.973,85.667c-0.041,0.273-0.066,0.55-0.066,0.833
			c0,3.682,3.4,6.667,7.594,6.667s7.594-2.985,7.594-6.667c0-0.283-0.027-0.56-0.066-0.833H121.973z"/>
		<g>
			<path fill="#CFEFFF" d="M75.812,108.137c0,3.514-1.119,6.363-2.5,6.363s-2.5-2.85-2.5-6.363s1.119-13.637,2.5-13.637
				S75.812,104.623,75.812,108.137z"/>
			<path d="M75.812,108.137c0,0-0.002,0.167-0.006,0.48c-0.006,0.313-0.028,0.773-0.089,1.355c-0.069,0.581-0.177,1.287-0.409,2.071
				c-0.115,0.392-0.262,0.804-0.477,1.211c-0.217,0.401-0.481,0.83-0.92,1.115c-0.432,0.317-1.113,0.206-1.504-0.199
				c-0.416-0.379-0.701-0.89-0.93-1.423c-0.447-1.079-0.691-2.294-0.794-3.556c-0.108-1.267-0.041-2.572,0.05-3.888
				c0.092-1.317,0.221-2.653,0.386-3.984c0.183-1.33,0.396-2.656,0.688-3.95c0.148-0.647,0.312-1.287,0.549-1.907
				c0.129-0.308,0.252-0.616,0.498-0.896c0.094-0.134,0.361-0.299,0.583-0.216c0.067,0.012,0.229,0.112,0.277,0.175
				c0.062,0.068,0.125,0.138,0.165,0.212c0.631,1.177,0.781,2.386,1.01,3.517c0.196,1.136,0.336,2.216,0.447,3.213
				c0.225,1.995,0.363,3.662,0.422,4.832C75.822,107.468,75.812,108.137,75.812,108.137z M75.812,108.137
				c0,0-0.02-2.683-0.578-6.656c-0.146-0.992-0.32-2.064-0.553-3.187c-0.252-1.101-0.479-2.348-1.076-3.37
				c-0.184-0.249-0.3-0.34-0.48-0.113c-0.17,0.204-0.291,0.503-0.398,0.792c-0.211,0.591-0.368,1.221-0.505,1.858
				c-0.271,1.278-0.464,2.599-0.632,3.92c-0.182,1.321-0.326,2.647-0.436,3.955c-0.096,1.309-0.203,2.598-0.141,3.835
				c0.059,1.238,0.26,2.437,0.66,3.497c0.203,0.525,0.465,1.024,0.84,1.388c0.354,0.384,0.929,0.498,1.346,0.225
				c0.418-0.251,0.699-0.661,0.912-1.057c0.218-0.399,0.369-0.807,0.489-1.194c0.24-0.777,0.356-1.48,0.434-2.059
				c0.067-0.581,0.096-1.04,0.105-1.354C75.809,108.304,75.812,108.137,75.812,108.137z"/>
		</g>
		<g>
			<path fill="#CFEFFF" d="M134.814,113.137c0,3.514-1.121,6.363-2.5,6.363c-1.383,0-2.5-2.85-2.5-6.363s1.117-13.637,2.5-13.637
				C133.693,99.5,134.814,109.623,134.814,113.137z"/>
			<path d="M134.814,113.137c0,0-0.002,0.167-0.006,0.48c-0.006,0.313-0.028,0.773-0.09,1.355c-0.068,0.581-0.177,1.287-0.408,2.071
				c-0.116,0.392-0.263,0.804-0.479,1.211c-0.215,0.401-0.48,0.83-0.918,1.115c-0.432,0.317-1.113,0.206-1.504-0.199
				c-0.418-0.379-0.701-0.889-0.931-1.423c-0.446-1.079-0.69-2.294-0.793-3.556c-0.108-1.267-0.041-2.572,0.049-3.888
				c0.093-1.317,0.221-2.653,0.386-3.984c0.183-1.33,0.396-2.656,0.688-3.951c0.149-0.646,0.312-1.286,0.549-1.906
				c0.13-0.308,0.254-0.616,0.5-0.896c0.094-0.134,0.361-0.298,0.582-0.217c0.068,0.013,0.23,0.113,0.277,0.175
				c0.062,0.069,0.125,0.139,0.166,0.213c0.63,1.177,0.781,2.386,1.008,3.517c0.197,1.136,0.338,2.216,0.449,3.213
				c0.225,1.995,0.363,3.662,0.422,4.832C134.824,112.468,134.814,113.137,134.814,113.137z M134.814,113.137
				c0,0-0.02-2.683-0.58-6.656c-0.145-0.992-0.319-2.063-0.553-3.187c-0.252-1.101-0.479-2.348-1.074-3.371
				c-0.184-0.248-0.301-0.338-0.481-0.112c-0.17,0.204-0.291,0.503-0.397,0.792c-0.211,0.591-0.369,1.221-0.506,1.858
				c-0.271,1.278-0.465,2.599-0.632,3.92c-0.181,1.321-0.325,2.647-0.435,3.955c-0.096,1.309-0.202,2.598-0.141,3.835
				c0.059,1.238,0.26,2.437,0.659,3.498c0.204,0.524,0.465,1.023,0.84,1.387c0.354,0.384,0.929,0.498,1.346,0.225
				c0.418-0.251,0.7-0.661,0.913-1.057c0.217-0.399,0.367-0.807,0.488-1.194c0.24-0.777,0.357-1.48,0.434-2.059
				c0.068-0.581,0.097-1.04,0.106-1.354C134.811,113.304,134.814,113.137,134.814,113.137z"/>
		</g>
		<g>
			<path fill="#CFEFFF" d="M75.645,144.727c0,3.514-1.121,6.363-2.5,6.363c-1.383,0-2.5-2.85-2.5-6.363s1.117-13.637,2.5-13.637
				C74.523,131.09,75.645,141.213,75.645,144.727z"/>
			<path d="M75.645,144.727c0,0-0.002,0.167-0.006,0.48c-0.006,0.313-0.028,0.773-0.09,1.355c-0.068,0.581-0.177,1.287-0.408,2.071
				c-0.116,0.392-0.263,0.804-0.479,1.211c-0.215,0.401-0.48,0.83-0.918,1.115c-0.432,0.317-1.113,0.206-1.504-0.199
				c-0.418-0.379-0.701-0.889-0.931-1.423c-0.446-1.079-0.69-2.294-0.793-3.556c-0.108-1.267-0.041-2.572,0.049-3.888
				c0.093-1.317,0.221-2.653,0.386-3.984c0.183-1.33,0.396-2.656,0.688-3.951c0.149-0.646,0.312-1.286,0.549-1.906
				c0.13-0.308,0.254-0.616,0.5-0.896c0.094-0.134,0.361-0.298,0.582-0.217c0.068,0.013,0.23,0.113,0.277,0.175
				c0.062,0.069,0.125,0.139,0.166,0.213c0.63,1.177,0.781,2.386,1.008,3.517c0.197,1.136,0.338,2.216,0.449,3.213
				c0.225,1.995,0.363,3.662,0.422,4.832C75.654,144.058,75.645,144.727,75.645,144.727z M75.645,144.727c0,0-0.02-2.683-0.58-6.656
				c-0.145-0.992-0.319-2.063-0.553-3.187c-0.252-1.101-0.479-2.348-1.074-3.371c-0.184-0.248-0.301-0.338-0.481-0.112
				c-0.17,0.204-0.291,0.503-0.397,0.792c-0.211,0.591-0.369,1.221-0.506,1.858c-0.271,1.278-0.465,2.599-0.632,3.92
				c-0.181,1.321-0.325,2.647-0.435,3.955c-0.096,1.309-0.202,2.598-0.141,3.835c0.059,1.238,0.26,2.437,0.659,3.498
				c0.204,0.524,0.465,1.023,0.84,1.387c0.354,0.384,0.929,0.498,1.346,0.225c0.418-0.251,0.7-0.661,0.913-1.057
				c0.217-0.399,0.367-0.807,0.488-1.194c0.24-0.777,0.357-1.48,0.434-2.059c0.068-0.581,0.097-1.04,0.106-1.354
				C75.641,144.894,75.645,144.727,75.645,144.727z"/>
		</g>
		<g>
			<path fill="#CFEFFF" d="M135.645,139.727c0,3.514-1.121,6.363-2.5,6.363c-1.383,0-2.5-2.85-2.5-6.363s1.117-13.637,2.5-13.637
				C134.523,126.09,135.645,136.213,135.645,139.727z"/>
			<path d="M135.645,139.727c0,0-0.002,0.167-0.006,0.48c-0.006,0.313-0.028,0.773-0.09,1.355c-0.068,0.581-0.177,1.287-0.408,2.071
				c-0.116,0.392-0.263,0.804-0.479,1.211c-0.215,0.401-0.48,0.83-0.918,1.115c-0.432,0.317-1.113,0.206-1.504-0.199
				c-0.418-0.379-0.701-0.889-0.931-1.423c-0.446-1.079-0.69-2.294-0.793-3.556c-0.108-1.267-0.041-2.572,0.049-3.888
				c0.093-1.317,0.221-2.653,0.386-3.984c0.183-1.33,0.396-2.656,0.688-3.951c0.149-0.646,0.312-1.286,0.549-1.906
				c0.13-0.308,0.254-0.616,0.5-0.896c0.094-0.134,0.361-0.298,0.582-0.217c0.068,0.013,0.23,0.113,0.277,0.175
				c0.062,0.069,0.125,0.139,0.166,0.213c0.63,1.177,0.781,2.386,1.008,3.517c0.197,1.136,0.338,2.216,0.449,3.213
				c0.225,1.995,0.363,3.662,0.422,4.832C135.654,139.058,135.645,139.727,135.645,139.727z M135.645,139.727
				c0,0-0.02-2.683-0.58-6.656c-0.145-0.992-0.319-2.063-0.553-3.187c-0.252-1.101-0.479-2.348-1.074-3.371
				c-0.184-0.248-0.301-0.338-0.481-0.112c-0.17,0.204-0.291,0.503-0.397,0.792c-0.211,0.591-0.369,1.221-0.506,1.858
				c-0.271,1.278-0.465,2.599-0.632,3.92c-0.181,1.321-0.325,2.647-0.435,3.955c-0.096,1.309-0.202,2.598-0.141,3.835
				c0.059,1.238,0.26,2.437,0.659,3.498c0.204,0.524,0.465,1.023,0.84,1.387c0.354,0.384,0.929,0.498,1.346,0.225
				c0.418-0.251,0.7-0.661,0.913-1.057c0.217-0.399,0.367-0.807,0.488-1.194c0.24-0.777,0.357-1.48,0.434-2.059
				c0.068-0.581,0.097-1.04,0.106-1.354C135.641,139.894,135.645,139.727,135.645,139.727z"/>
		</g>
	</g>
</g>
</svg>
