<?xml version="1.0" encoding="utf-8"?>
<!-- Generator: Adobe Illustrator 16.0.0, SVG Export Plug-In . SVG Version: 6.00 Build 0)  -->
<!DOCTYPE svg PUBLIC "-//W3C//DTD SVG 1.1//EN" "http://www.w3.org/Graphics/SVG/1.1/DTD/svg11.dtd">
<svg version="1.1" xmlns="http://www.w3.org/2000/svg" xmlns:xlink="http://www.w3.org/1999/xlink" x="0px" y="0px"
	 width="201.332px" height="242.865px" viewBox="0 0 201.332 242.865" enable-background="new 0 0 201.332 242.865"
	 xml:space="preserve">
<g id="Ext">
</g>
<g id="Guides">
</g>
<g id="_x31_2_Col_Grid_1_" display="none" enable-background="new    ">
	<g id="Rectangle_xA0_Image_23_" display="inline" opacity="0.102">
	</g>
	<g id="Rectangle_xA0_Image_21_" display="inline" opacity="0.102">
	</g>
	<g id="Rectangle_xA0_Image_19_" display="inline" opacity="0.102">
	</g>
	<g id="Rectangle_xA0_Image_17_" display="inline" opacity="0.102">
	</g>
	<g id="Rectangle_xA0_Image_15_" display="inline" opacity="0.102">
	</g>
	<g id="Rectangle_xA0_Image_13_" display="inline" opacity="0.102">
	</g>
	<g id="Rectangle_xA0_Image_11_" display="inline" opacity="0.102">
	</g>
	<g id="Rectangle_xA0_Image_9_" display="inline" opacity="0.102">
	</g>
	<g id="Rectangle_xA0_Image_7_" display="inline" opacity="0.102">
	</g>
	<g id="Rectangle_xA0_Image_5_" display="inline" opacity="0.102">
	</g>
	<g id="Rectangle_xA0_Image_3_" display="inline" opacity="0.102">
	</g>
	<g id="Rectangle_xA0_Image_1_" display="inline" opacity="0.102">
	</g>
</g>
<g id="Bg">
</g>
<g id="main">
	<g id="Progress">
	</g>
	<g id="Text">
	</g>
</g>
<g id="pane">
	<g>
		<polygon fill="none" stroke="#020200" stroke-miterlimit="10" points="40.042,79.525 39.878,77.627 38.011,55.858 64.011,63.23 
			54.668,66.334 50.198,68.273 44.511,73.317 		"/>
		<g>
			<polygon fill="none" stroke="#020200" stroke-miterlimit="10" points="159.312,79.191 159.477,77.294 161.344,55.525 
				135.344,62.896 144.687,66 149.156,67.939 154.844,72.984 			"/>
			<polygon fill="none" stroke="#020200" stroke-miterlimit="10" points="163.632,74.334 163.796,72.436 165.663,50.667 
				139.663,58.039 149.006,61.143 153.476,63.082 159.163,68.126 			"/>
		</g>
		<polygon fill="none" stroke="#020200" stroke-miterlimit="10" points="36.027,74.334 35.863,72.436 33.996,50.667 59.996,58.039 
			50.653,61.143 46.184,63.082 40.496,68.126 		"/>
	</g>
	<path fill="none" stroke="#020200" stroke-miterlimit="10" d="M86.998,140"/>
	<path fill="none" stroke="#020200" stroke-miterlimit="10" d="M39.997,195.33"/>
	<path fill="none" stroke="#020200" stroke-miterlimit="10" d="M86.998,142"/>
	<path fill="none" stroke="#020200" stroke-miterlimit="10" d="M39.997,197.33"/>
	<rect x="11.666" y="-16.751" fill="none" width="179" height="16.751"/>
	<text transform="matrix(1 0 0 1 74.5537 -3.9707)" fill="#686868" font-family="'MyriadPro-Regular'" font-size="18">default</text>
	<rect x="15.154" y="-2.252" fill="none" width="179" height="16.751"/>
	<text transform="matrix(1 0 0 1 56.1094 10.5283)" fill="#686868" font-family="'MyriadPro-Regular'" font-size="18">default - ears</text>
</g>
<g id="browserhead">
</g>
</svg>
