<?xml version="1.0" encoding="utf-8"?>
<!-- Generator: Adobe Illustrator 16.0.0, SVG Export Plug-In . SVG Version: 6.00 Build 0)  -->
<!DOCTYPE svg PUBLIC "-//W3C//DTD SVG 1.1//EN" "http://www.w3.org/Graphics/SVG/1.1/DTD/svg11.dtd">
<svg version="1.1" id="Layer_1" xmlns="http://www.w3.org/2000/svg" xmlns:xlink="http://www.w3.org/1999/xlink" x="0px" y="0px"
	 width="200px" height="235px" viewBox="0 0 200 235" enable-background="new 0 0 200 235" xml:space="preserve">
<g id="Ext">
</g>
<g id="Guides">
</g>
<g id="_x31_2_Col_Grid_1_" display="none" enable-background="new    ">
	<g id="Rectangle_xA0_Image_23_" display="inline" opacity="0.102">
	</g>
	<g id="Rectangle_xA0_Image_21_" display="inline" opacity="0.102">
	</g>
	<g id="Rectangle_xA0_Image_19_" display="inline" opacity="0.102">
	</g>
	<g id="Rectangle_xA0_Image_17_" display="inline" opacity="0.102">
	</g>
	<g id="Rectangle_xA0_Image_15_" display="inline" opacity="0.102">
	</g>
	<g id="Rectangle_xA0_Image_13_" display="inline" opacity="0.102">
	</g>
	<g id="Rectangle_xA0_Image_11_" display="inline" opacity="0.102">
	</g>
	<g id="Rectangle_xA0_Image_9_" display="inline" opacity="0.102">
	</g>
	<g id="Rectangle_xA0_Image_7_" display="inline" opacity="0.102">
	</g>
	<g id="Rectangle_xA0_Image_5_" display="inline" opacity="0.102">
	</g>
	<g id="Rectangle_xA0_Image_3_" display="inline" opacity="0.102">
	</g>
	<g id="Rectangle_xA0_Image_1_" display="inline" opacity="0.102">
	</g>
</g>
<g id="Bg">
</g>
<g id="main">
	<g id="Progress">
	</g>
	<g id="Text">
	</g>
</g>
<g id="pane">
</g>
<g>
	
		<ellipse transform="matrix(-0.4432 -0.8964 0.8964 -0.4432 2.8664 226.6745)" fill="#F7EB0F" stroke="#000000" stroke-miterlimit="10" cx="71.834" cy="112.447" rx="15" ry="16"/>
	<path fill="#FCFCFC" stroke="#020200" stroke-miterlimit="10" d="M79.389,107.597c0.188,0.273,0.363,0.558,0.513,0.862
		c1.958,3.96-0.066,8.957-4.522,11.16c-4.457,2.203-9.656,0.777-11.613-3.184c-0.15-0.304-0.27-0.616-0.374-0.931l-6.297,3.113
		c0.126,0.307,0.246,0.616,0.396,0.92c3.671,7.425,13.069,10.272,20.991,6.355c7.921-3.915,11.366-13.111,7.696-20.537
		c-0.15-0.303-0.324-0.586-0.493-0.872L79.389,107.597z"/>
	<path stroke="#020200" stroke-width="0.5477" stroke-miterlimit="10" d="M63.393,115.505c0.104,0.314,0.223,0.626,0.374,0.931
		c1.958,3.961,7.157,5.387,11.613,3.184c4.456-2.203,6.48-7.2,4.522-11.16c-0.15-0.304-0.326-0.589-0.513-0.862L63.393,115.505z"/>
	
		<ellipse transform="matrix(0.3787 -0.9255 0.9255 0.3787 -22.781 190.9607)" fill="#F7EB0F" stroke="#000000" stroke-miterlimit="10" cx="130.834" cy="112.447" rx="15" ry="16"/>
	<path fill="#FCFCFC" stroke="#020200" stroke-miterlimit="10" d="M139.471,114.9c-0.081,0.321-0.179,0.641-0.307,0.955
		c-1.673,4.089-6.759,5.878-11.359,3.996c-4.601-1.882-6.974-6.724-5.301-10.812c0.129-0.314,0.284-0.61,0.451-0.896l-6.502-2.66
		c-0.145,0.299-0.3,0.592-0.428,0.906c-3.137,7.666,0.949,16.596,9.129,19.941c8.178,3.346,17.352-0.157,20.488-7.824
		c0.128-0.313,0.225-0.63,0.328-0.946L139.471,114.9z"/>
	<path stroke="#020200" stroke-width="0.5477" stroke-miterlimit="10" d="M122.955,108.143c-0.167,0.286-0.322,0.582-0.451,0.896
		c-1.673,4.089,0.7,8.93,5.301,10.812c4.601,1.882,9.687,0.093,11.359-3.996c0.128-0.314,0.226-0.634,0.307-0.955L122.955,108.143z"
		/>
	<g>
		<path fill="#CFEFFF" d="M81.079,136.083c0,3.515-2.448,6.364-5.469,6.364s-5.469-2.85-5.469-6.364
			c0-3.513,2.448-13.636,5.469-13.636S81.079,132.57,81.079,136.083z"/>
		<path d="M81.079,136.083c0,0-0.004,0.167-0.013,0.479c-0.013,0.313-0.062,0.772-0.197,1.356c-0.149,0.58-0.385,1.286-0.892,2.07
			c-0.252,0.391-0.574,0.805-1.043,1.211c-0.475,0.401-1.05,0.83-2.013,1.114c-0.947,0.316-2.435,0.207-3.29-0.198
			c-0.91-0.38-1.534-0.89-2.037-1.423c-0.979-1.078-1.509-2.293-1.737-3.555c-0.234-1.268-0.09-2.572,0.107-3.889
			c0.206-1.318,0.488-2.652,0.847-3.984c0.402-1.328,0.866-2.654,1.505-3.949c0.326-0.646,0.685-1.287,1.2-1.907
			c0.284-0.308,0.554-0.615,1.092-0.896c0.206-0.134,0.79-0.3,1.273-0.218c0.144,0.013,0.503,0.112,0.605,0.175
			c0.136,0.068,0.273,0.139,0.363,0.213c1.381,1.176,1.709,2.385,2.21,3.517c0.426,1.136,0.735,2.215,0.978,3.213
			c0.492,1.996,0.794,3.662,0.924,4.832C81.101,135.414,81.079,136.083,81.079,136.083z M81.079,136.083
			c0,0-0.043-2.683-1.267-6.655c-0.319-0.992-0.697-2.063-1.207-3.188c-0.551-1.1-1.048-2.348-2.354-3.371
			c-0.403-0.249-0.658-0.338-1.05-0.111c-0.372,0.203-0.637,0.502-0.868,0.791c-0.461,0.592-0.808,1.221-1.104,1.858
			c-0.593,1.278-1.018,2.599-1.385,3.92c-0.397,1.319-0.71,2.647-0.954,3.955c-0.209,1.31-0.439,2.597-0.308,3.835
			c0.128,1.236,0.568,2.438,1.443,3.497c0.445,0.524,1.018,1.024,1.838,1.388c0.774,0.383,2.034,0.497,2.944,0.223
			c0.915-0.25,1.53-0.66,1.995-1.057c0.477-0.398,0.808-0.807,1.07-1.193c0.522-0.776,0.779-1.479,0.949-2.061
			c0.147-0.581,0.212-1.04,0.228-1.354C81.071,136.25,81.079,136.083,81.079,136.083z"/>
	</g>
	<g>
		<path fill="#CFEFFF" d="M134.747,138.083c0,3.515-2.432,6.364-5.431,6.364c-3,0-5.431-2.85-5.431-6.364s2.431-13.636,5.431-13.636
			C132.315,124.447,134.747,134.57,134.747,138.083z"/>
		<path d="M134.747,138.083c0,0-0.005,0.167-0.013,0.479c-0.013,0.313-0.062,0.772-0.195,1.356c-0.148,0.58-0.382,1.286-0.887,2.07
			c-0.25,0.391-0.568,0.805-1.035,1.211c-0.474,0.401-1.044,0.83-1.998,1.114c-0.942,0.316-2.419,0.207-3.268-0.198
			c-0.903-0.38-1.522-0.89-2.023-1.423c-0.972-1.078-1.498-2.293-1.725-3.555c-0.231-1.268-0.089-2.572,0.105-3.889
			c0.206-1.318,0.486-2.652,0.843-3.984c0.398-1.328,0.859-2.654,1.493-3.949c0.322-0.646,0.679-1.287,1.192-1.907
			c0.282-0.308,0.55-0.615,1.084-0.896c0.204-0.134,0.782-0.3,1.265-0.218c0.142,0.013,0.498,0.112,0.6,0.175
			c0.136,0.068,0.271,0.139,0.361,0.213c1.372,1.176,1.696,2.385,2.195,3.517c0.422,1.136,0.729,2.215,0.97,3.213
			c0.489,1.996,0.789,3.662,0.916,4.832C134.768,137.414,134.747,138.083,134.747,138.083z M134.747,138.083
			c0,0-0.043-2.683-1.259-6.655c-0.315-0.992-0.693-2.063-1.198-3.188c-0.547-1.1-1.039-2.348-2.338-3.371
			c-0.398-0.249-0.653-0.338-1.043-0.111c-0.369,0.203-0.633,0.502-0.861,0.791c-0.458,0.592-0.802,1.221-1.097,1.858
			c-0.588,1.278-1.012,2.599-1.377,3.92c-0.395,1.319-0.704,2.647-0.946,3.955c-0.208,1.31-0.437,2.597-0.306,3.835
			c0.128,1.236,0.564,2.438,1.435,3.497c0.44,0.524,1.01,1.024,1.824,1.388c0.768,0.383,2.02,0.497,2.923,0.223
			c0.908-0.25,1.52-0.66,1.981-1.057c0.474-0.398,0.802-0.807,1.062-1.193c0.521-0.776,0.774-1.479,0.942-2.061
			c0.146-0.581,0.21-1.04,0.227-1.354C134.738,138.25,134.747,138.083,134.747,138.083z"/>
	</g>
	<g>
		<path fill="#CFEFFF" d="M82.362,163.083c0,3.515-2.714,6.364-6.063,6.364c-3.349,0-6.063-2.85-6.063-6.364
			c0-3.513,2.714-13.636,6.063-13.636C79.648,149.447,82.362,159.57,82.362,163.083z"/>
		<path d="M82.362,163.083c0,0-0.005,0.167-0.015,0.479c-0.014,0.313-0.068,0.772-0.219,1.356c-0.164,0.58-0.426,1.286-0.988,2.07
			c-0.28,0.391-0.636,0.805-1.157,1.211c-0.526,0.401-1.164,0.83-2.231,1.114c-1.05,0.316-2.7,0.207-3.647-0.198
			c-1.009-0.38-1.7-0.89-2.258-1.423c-1.084-1.078-1.673-2.293-1.925-3.555c-0.259-1.268-0.1-2.572,0.119-3.889
			c0.228-1.318,0.541-2.652,0.938-3.984c0.447-1.328,0.961-2.654,1.669-3.949c0.361-0.646,0.759-1.287,1.331-1.907
			c0.314-0.308,0.613-0.615,1.21-0.896c0.229-0.134,0.875-0.3,1.412-0.218c0.16,0.013,0.558,0.112,0.671,0.175
			c0.15,0.068,0.303,0.139,0.402,0.213c1.531,1.176,1.895,2.385,2.45,3.517c0.472,1.136,0.814,2.215,1.083,3.213
			c0.546,1.996,0.881,3.662,1.024,4.832C82.386,162.414,82.362,163.083,82.362,163.083z M82.362,163.083
			c0,0-0.049-2.683-1.405-6.655c-0.354-0.992-0.773-2.063-1.338-3.188c-0.61-1.1-1.161-2.348-2.609-3.371
			c-0.446-0.249-0.729-0.338-1.164-0.111c-0.412,0.203-0.706,0.502-0.963,0.791c-0.512,0.592-0.895,1.221-1.224,1.858
			c-0.657,1.278-1.128,2.599-1.536,3.92c-0.44,1.319-0.787,2.647-1.057,3.955c-0.232,1.31-0.487,2.597-0.341,3.835
			c0.142,1.236,0.63,2.438,1.6,3.497c0.493,0.524,1.128,1.024,2.038,1.388c0.859,0.383,2.254,0.497,3.264,0.223
			c1.014-0.25,1.696-0.66,2.212-1.057c0.528-0.398,0.895-0.807,1.187-1.193c0.579-0.776,0.863-1.479,1.051-2.061
			c0.164-0.581,0.236-1.04,0.252-1.354C82.353,163.25,82.362,163.083,82.362,163.083z"/>
	</g>
	<g>
		<path fill="#CFEFFF" d="M134.742,163.083c0,3.515-2.501,6.364-5.587,6.364s-5.587-2.85-5.587-6.364s2.501-13.636,5.587-13.636
			S134.742,159.57,134.742,163.083z"/>
		<path d="M134.742,163.083c0,0-0.005,0.167-0.014,0.479c-0.013,0.313-0.062,0.772-0.2,1.356c-0.153,0.58-0.394,1.286-0.912,2.07
			c-0.258,0.391-0.585,0.805-1.065,1.211c-0.486,0.401-1.073,0.83-2.056,1.114c-0.969,0.316-2.487,0.207-3.36-0.198
			c-0.93-0.38-1.567-0.89-2.082-1.423c-1-1.078-1.541-2.293-1.774-3.555c-0.237-1.268-0.092-2.572,0.109-3.889
			c0.212-1.318,0.499-2.652,0.866-3.984c0.41-1.328,0.884-2.654,1.536-3.949c0.332-0.646,0.698-1.287,1.227-1.907
			c0.29-0.308,0.565-0.615,1.115-0.896c0.21-0.134,0.806-0.3,1.301-0.218c0.146,0.013,0.513,0.112,0.617,0.175
			c0.14,0.068,0.279,0.139,0.371,0.213c1.412,1.176,1.746,2.385,2.259,3.517c0.435,1.136,0.751,2.215,0.997,3.213
			c0.505,1.996,0.812,3.662,0.943,4.832C134.764,162.414,134.742,163.083,134.742,163.083z M134.742,163.083
			c0,0-0.044-2.683-1.294-6.655c-0.325-0.992-0.714-2.063-1.233-3.188c-0.562-1.1-1.069-2.348-2.404-3.371
			c-0.411-0.249-0.673-0.338-1.074-0.111c-0.38,0.203-0.65,0.502-0.886,0.791c-0.472,0.592-0.825,1.221-1.129,1.858
			c-0.604,1.278-1.04,2.599-1.416,3.92c-0.406,1.319-0.725,2.647-0.974,3.955c-0.214,1.31-0.449,2.597-0.313,3.835
			c0.131,1.236,0.58,2.438,1.475,3.497c0.454,0.524,1.039,1.024,1.877,1.388c0.79,0.383,2.077,0.497,3.007,0.223
			c0.935-0.25,1.562-0.66,2.039-1.057c0.486-0.398,0.824-0.807,1.093-1.193c0.535-0.776,0.797-1.479,0.969-2.061
			c0.151-0.581,0.217-1.04,0.233-1.354C134.733,163.25,134.742,163.083,134.742,163.083z"/>
	</g>
</g>
</svg>
