<?xml version="1.0" encoding="utf-8"?>
<!-- Generator: Adobe Illustrator 16.0.0, SVG Export Plug-In . SVG Version: 6.00 Build 0)  -->
<!DOCTYPE svg PUBLIC "-//W3C//DTD SVG 1.1//EN" "http://www.w3.org/Graphics/SVG/1.1/DTD/svg11.dtd">
<svg version="1.1" id="Layer_1" xmlns="http://www.w3.org/2000/svg" xmlns:xlink="http://www.w3.org/1999/xlink" x="0px" y="0px"
	 width="200px" height="235px" viewBox="0 0 200 235" enable-background="new 0 0 200 235" xml:space="preserve">
<g id="Ext">
</g>
<g id="Guides">
</g>
<g id="_x31_2_Col_Grid_1_" display="none" enable-background="new    ">
	<g id="Rectangle_xA0_Image_23_" display="inline" opacity="0.102">
	</g>
	<g id="Rectangle_xA0_Image_21_" display="inline" opacity="0.102">
	</g>
	<g id="Rectangle_xA0_Image_19_" display="inline" opacity="0.102">
	</g>
	<g id="Rectangle_xA0_Image_17_" display="inline" opacity="0.102">
	</g>
	<g id="Rectangle_xA0_Image_15_" display="inline" opacity="0.102">
	</g>
	<g id="Rectangle_xA0_Image_13_" display="inline" opacity="0.102">
	</g>
	<g id="Rectangle_xA0_Image_11_" display="inline" opacity="0.102">
	</g>
	<g id="Rectangle_xA0_Image_9_" display="inline" opacity="0.102">
	</g>
	<g id="Rectangle_xA0_Image_7_" display="inline" opacity="0.102">
	</g>
	<g id="Rectangle_xA0_Image_5_" display="inline" opacity="0.102">
	</g>
	<g id="Rectangle_xA0_Image_3_" display="inline" opacity="0.102">
	</g>
	<g id="Rectangle_xA0_Image_1_" display="inline" opacity="0.102">
	</g>
</g>
<g id="Bg">
</g>
<g id="main">
	<g id="Progress">
	</g>
	<g id="Text">
	</g>
</g>
<g id="pane">
</g>
<g>
	<g>
		
			<ellipse transform="matrix(-0.3119 -0.9501 0.9501 -0.3119 13.7917 194.9878)" fill="#C9C9D6" stroke="#000000" stroke-miterlimit="10" cx="77.5" cy="92.5" rx="12.5" ry="13.5"/>
		<path fill="#FCFCFC" stroke="#020200" stroke-width="0.8385" stroke-miterlimit="10" d="M84.392,89.361
			c0.122,0.247,0.234,0.501,0.322,0.771c1.148,3.499-1.15,7.395-5.135,8.703c-3.984,1.309-8.146-0.467-9.295-3.965
			c-0.088-0.269-0.149-0.54-0.197-0.812l-5.632,1.849c0.069,0.268,0.131,0.538,0.219,0.805c2.153,6.559,9.642,9.991,16.726,7.666
			s11.08-9.529,8.927-16.087c-0.087-0.268-0.197-0.521-0.302-0.778L84.392,89.361z"/>
		<path stroke="#020200" stroke-width="0.4593" stroke-miterlimit="10" d="M70.089,94.057c0.047,0.271,0.109,0.543,0.197,0.812
			c1.148,3.498,5.31,5.273,9.294,3.965c3.985-1.308,6.284-5.205,5.136-8.703c-0.088-0.269-0.201-0.523-0.323-0.771L70.089,94.057z"
			/>
	</g>
	<g>
		
			<ellipse transform="matrix(0.346 -0.9382 0.9382 0.346 -7.3267 174.489)" fill="#C9C9D6" stroke="#000000" stroke-miterlimit="10" cx="121.5" cy="92.5" rx="12.5" ry="13.5"/>
		<path fill="#FCFCFC" stroke="#020200" stroke-width="0.8385" stroke-miterlimit="10" d="M128.851,94.323
			c-0.058,0.27-0.129,0.539-0.227,0.804c-1.274,3.455-5.496,5.079-9.432,3.628s-6.093-5.428-4.819-8.883
			c0.099-0.266,0.22-0.516,0.351-0.759l-5.562-2.051c-0.111,0.253-0.231,0.503-0.328,0.767c-2.389,6.477,1.346,13.819,8.341,16.399
			c6.996,2.58,14.604-0.581,16.991-7.057c0.098-0.264,0.169-0.532,0.246-0.797L128.851,94.323z"/>
		<path stroke="#020200" stroke-width="0.4593" stroke-miterlimit="10" d="M114.726,89.114c-0.131,0.242-0.251,0.493-0.35,0.759
			c-1.273,3.455,0.883,7.432,4.818,8.882c3.936,1.451,8.158-0.173,9.433-3.627c0.098-0.266,0.168-0.535,0.226-0.805L114.726,89.114z
			"/>
	</g>
	<g>
		<path fill="#CFEFFF" d="M83.167,114.637c0,3.514-1.802,6.363-4.027,6.363c-2.224,0-4.027-2.85-4.027-6.363
			c0-3.513,1.803-13.637,4.027-13.637C81.364,101,83.167,111.123,83.167,114.637z"/>
		<path d="M83.167,114.637c0,0-0.003,0.166-0.009,0.48c-0.01,0.312-0.047,0.773-0.144,1.355c-0.111,0.58-0.285,1.286-0.658,2.07
			c-0.186,0.393-0.422,0.805-0.769,1.211c-0.347,0.401-0.773,0.829-1.481,1.115c-0.696,0.316-1.793,0.206-2.422-0.199
			c-0.67-0.379-1.129-0.889-1.499-1.423c-0.72-1.078-1.113-2.293-1.28-3.556c-0.172-1.268-0.064-2.571,0.079-3.889
			c0.152-1.317,0.359-2.652,0.624-3.984c0.297-1.329,0.638-2.655,1.108-3.95c0.24-0.646,0.504-1.286,0.884-1.907
			c0.209-0.307,0.408-0.615,0.804-0.896c0.151-0.133,0.581-0.298,0.938-0.217c0.107,0.012,0.37,0.113,0.446,0.175
			c0.1,0.069,0.201,0.139,0.267,0.212c1.017,1.177,1.259,2.387,1.627,3.518c0.314,1.136,0.541,2.215,0.72,3.213
			c0.363,1.995,0.585,3.662,0.68,4.831C83.183,113.967,83.167,114.637,83.167,114.637z M83.167,114.637c0,0-0.032-2.684-0.934-6.656
			c-0.23-0.992-0.512-2.064-0.887-3.188c-0.406-1.1-0.771-2.348-1.733-3.37c-0.296-0.249-0.484-0.338-0.773-0.112
			c-0.274,0.205-0.469,0.504-0.641,0.793c-0.34,0.591-0.595,1.22-0.813,1.857c-0.438,1.279-0.748,2.6-1.019,3.921
			c-0.292,1.32-0.524,2.647-0.702,3.955c-0.154,1.309-0.327,2.597-0.227,3.835c0.094,1.237,0.418,2.438,1.062,3.497
			c0.327,0.524,0.75,1.024,1.354,1.388c0.57,0.383,1.498,0.498,2.167,0.225c0.673-0.251,1.126-0.661,1.469-1.059
			c0.351-0.397,0.595-0.807,0.786-1.192c0.389-0.777,0.576-1.48,0.699-2.061c0.11-0.581,0.157-1.04,0.169-1.353
			C83.16,114.803,83.167,114.637,83.167,114.637z"/>
	</g>
	<g>
		<path fill="#CFEFFF" d="M125.333,115.637c0,3.513-1.839,6.363-4.107,6.363s-4.106-2.85-4.106-6.363S118.957,102,121.226,102
			S125.333,112.123,125.333,115.637z"/>
		<path d="M125.333,115.637c0,0-0.004,0.166-0.01,0.48c-0.01,0.312-0.048,0.773-0.147,1.355c-0.112,0.581-0.289,1.287-0.671,2.071
			c-0.189,0.393-0.43,0.805-0.783,1.211c-0.356,0.401-0.789,0.829-1.511,1.115c-0.711,0.316-1.829,0.206-2.471-0.199
			c-0.684-0.379-1.152-0.889-1.529-1.423c-0.734-1.078-1.134-2.293-1.306-3.555c-0.175-1.268-0.065-2.572,0.08-3.889
			c0.155-1.317,0.367-2.652,0.637-3.984c0.302-1.329,0.65-2.655,1.13-3.95c0.244-0.646,0.514-1.286,0.901-1.907
			c0.214-0.307,0.416-0.615,0.82-0.896c0.155-0.133,0.592-0.298,0.956-0.217c0.11,0.012,0.377,0.113,0.454,0.175
			c0.103,0.069,0.205,0.139,0.272,0.212c1.038,1.177,1.283,2.387,1.66,3.518c0.319,1.136,0.552,2.215,0.733,3.213
			c0.37,1.995,0.597,3.662,0.694,4.831C125.349,114.967,125.333,115.637,125.333,115.637z M125.333,115.637
			c0,0-0.032-2.684-0.953-6.656c-0.234-0.992-0.523-2.064-0.905-3.188c-0.414-1.1-0.786-2.348-1.768-3.37
			c-0.302-0.249-0.494-0.338-0.789-0.112c-0.279,0.205-0.479,0.504-0.653,0.793c-0.347,0.591-0.606,1.22-0.829,1.857
			c-0.446,1.279-0.764,2.6-1.04,3.921c-0.298,1.32-0.534,2.647-0.716,3.955c-0.156,1.309-0.333,2.597-0.23,3.835
			c0.096,1.237,0.427,2.438,1.084,3.497c0.334,0.524,0.764,1.024,1.38,1.388c0.581,0.383,1.527,0.498,2.211,0.225
			c0.687-0.251,1.148-0.661,1.498-1.059c0.358-0.397,0.606-0.807,0.803-1.192c0.395-0.777,0.587-1.48,0.712-2.061
			c0.112-0.581,0.16-1.04,0.174-1.353C125.326,115.803,125.333,115.637,125.333,115.637z"/>
	</g>
	<g>
		<path fill="#CFEFFF" d="M83,137.97c0,3.514-1.515,6.363-3.384,6.363s-3.384-2.85-3.384-6.363c0-3.513,1.515-13.637,3.384-13.637
			S83,134.456,83,137.97z"/>
		<path d="M83,137.97c0,0-0.003,0.166-0.008,0.48c-0.008,0.312-0.04,0.773-0.121,1.355c-0.093,0.58-0.239,1.286-0.553,2.07
			c-0.156,0.393-0.355,0.805-0.646,1.211c-0.292,0.4-0.649,0.829-1.245,1.115c-0.585,0.316-1.507,0.206-2.036-0.199
			c-0.563-0.379-0.949-0.889-1.259-1.423c-0.605-1.078-0.936-2.293-1.076-3.556c-0.145-1.268-0.054-2.571,0.066-3.889
			c0.127-1.316,0.302-2.652,0.524-3.984c0.249-1.328,0.536-2.654,0.931-3.949c0.202-0.646,0.424-1.286,0.743-1.907
			c0.176-0.308,0.342-0.614,0.676-0.896c0.127-0.133,0.488-0.299,0.788-0.217c0.091,0.012,0.312,0.112,0.375,0.174
			c0.084,0.069,0.169,0.14,0.225,0.213c0.854,1.177,1.058,2.387,1.367,3.518c0.264,1.137,0.455,2.215,0.605,3.213
			c0.305,1.995,0.492,3.662,0.572,4.831C83.014,137.3,83,137.97,83,137.97z M83,137.97c0,0-0.027-2.684-0.786-6.656
			c-0.193-0.991-0.43-2.063-0.745-3.188c-0.341-1.1-0.648-2.348-1.457-3.37c-0.249-0.249-0.407-0.338-0.649-0.112
			c-0.23,0.205-0.394,0.504-0.539,0.793c-0.286,0.592-0.5,1.221-0.684,1.857c-0.368,1.279-0.628,2.6-0.856,3.921
			c-0.246,1.32-0.441,2.647-0.59,3.955c-0.129,1.31-0.274,2.597-0.19,3.835c0.079,1.237,0.352,2.438,0.893,3.497
			c0.275,0.524,0.63,1.024,1.138,1.388c0.479,0.383,1.258,0.497,1.821,0.225c0.566-0.252,0.947-0.661,1.235-1.059
			c0.294-0.397,0.5-0.807,0.66-1.192c0.327-0.777,0.484-1.48,0.587-2.061c0.093-0.581,0.132-1.04,0.142-1.353
			C82.995,138.136,83,137.97,83,137.97z"/>
	</g>
	<g>
		<path fill="#CFEFFF" d="M125,138.637c0,3.514-1.587,6.363-3.545,6.363s-3.545-2.85-3.545-6.363c0-3.513,1.587-13.637,3.545-13.637
			S125,135.123,125,138.637z"/>
		<path d="M125,138.637c0,0-0.003,0.166-0.009,0.48c-0.008,0.312-0.041,0.773-0.127,1.355c-0.097,0.58-0.249,1.286-0.579,2.07
			c-0.163,0.393-0.371,0.805-0.676,1.211c-0.308,0.4-0.681,0.829-1.305,1.115c-0.613,0.316-1.578,0.206-2.132-0.199
			c-0.59-0.379-0.994-0.889-1.319-1.423c-0.635-1.078-0.979-2.293-1.127-3.556c-0.151-1.268-0.058-2.571,0.068-3.889
			c0.135-1.316,0.317-2.652,0.55-3.984c0.261-1.328,0.562-2.654,0.976-3.949c0.21-0.646,0.442-1.286,0.777-1.907
			c0.185-0.308,0.359-0.614,0.708-0.896c0.134-0.133,0.511-0.299,0.825-0.217c0.096,0.012,0.325,0.112,0.392,0.174
			c0.089,0.069,0.178,0.14,0.235,0.213c0.896,1.177,1.108,2.387,1.434,3.518c0.275,1.137,0.477,2.215,0.633,3.213
			c0.319,1.995,0.515,3.662,0.6,4.831C125.014,137.967,125,138.637,125,138.637z M125,138.637c0,0-0.028-2.684-0.822-6.656
			c-0.203-0.991-0.452-2.063-0.781-3.188c-0.357-1.1-0.679-2.348-1.526-3.37c-0.26-0.249-0.426-0.338-0.681-0.112
			c-0.241,0.205-0.413,0.504-0.563,0.793c-0.3,0.592-0.523,1.221-0.716,1.857c-0.386,1.279-0.659,2.6-0.897,3.921
			c-0.258,1.32-0.461,2.647-0.618,3.955c-0.136,1.31-0.288,2.597-0.199,3.835c0.083,1.237,0.368,2.438,0.937,3.497
			c0.288,0.524,0.659,1.024,1.19,1.388c0.501,0.383,1.318,0.497,1.908,0.225c0.593-0.252,0.991-0.661,1.293-1.059
			c0.309-0.397,0.523-0.807,0.692-1.192c0.341-0.777,0.507-1.48,0.615-2.061c0.097-0.581,0.139-1.04,0.149-1.353
			C124.994,138.803,125,138.637,125,138.637z"/>
	</g>
</g>
</svg>
