<?xml version="1.0" encoding="utf-8"?>
<!-- Generator: Adobe Illustrator 16.0.0, SVG Export Plug-In . SVG Version: 6.00 Build 0)  -->
<!DOCTYPE svg PUBLIC "-//W3C//DTD SVG 1.1//EN" "http://www.w3.org/Graphics/SVG/1.1/DTD/svg11.dtd">
<svg version="1.1" xmlns="http://www.w3.org/2000/svg" xmlns:xlink="http://www.w3.org/1999/xlink" x="0px" y="0px" width="200px"
	 height="235px" viewBox="0 0 200 235" enable-background="new 0 0 200 235" xml:space="preserve">
<g id="Ext">
</g>
<g id="Guides">
</g>
<g id="_x31_2_Col_Grid_1_" display="none" enable-background="new    ">
	<g id="Rectangle_xA0_Image_23_" display="inline" opacity="0.102">
	</g>
	<g id="Rectangle_xA0_Image_21_" display="inline" opacity="0.102">
	</g>
	<g id="Rectangle_xA0_Image_19_" display="inline" opacity="0.102">
	</g>
	<g id="Rectangle_xA0_Image_17_" display="inline" opacity="0.102">
	</g>
	<g id="Rectangle_xA0_Image_15_" display="inline" opacity="0.102">
	</g>
	<g id="Rectangle_xA0_Image_13_" display="inline" opacity="0.102">
	</g>
	<g id="Rectangle_xA0_Image_11_" display="inline" opacity="0.102">
	</g>
	<g id="Rectangle_xA0_Image_9_" display="inline" opacity="0.102">
	</g>
	<g id="Rectangle_xA0_Image_7_" display="inline" opacity="0.102">
	</g>
	<g id="Rectangle_xA0_Image_5_" display="inline" opacity="0.102">
	</g>
	<g id="Rectangle_xA0_Image_3_" display="inline" opacity="0.102">
	</g>
	<g id="Rectangle_xA0_Image_1_" display="inline" opacity="0.102">
	</g>
</g>
<g id="Bg">
</g>
<g id="main">
	<g id="Progress">
	</g>
	<g id="Text">
	</g>
</g>
<g id="pane">
</g>
<g id="browserhead">
	<g>
		<g>
			<path d="M98.977,142.25c2.76,0,5-4.25,5-8.25h-10C93.977,138,96.215,142.25,98.977,142.25z"/>
			<path d="M98.975,142.066c0.215-0.032,0.443-0.021,0.646-0.089c0.208-0.05,0.412-0.11,0.605-0.21
				c0.203-0.075,0.379-0.205,0.562-0.316c0.184-0.113,0.333-0.275,0.498-0.411c0.298-0.313,0.569-0.647,0.798-1.012
				s0.403-0.76,0.56-1.157c0.306-0.8,0.498-1.637,0.591-2.479c0.095-0.843,0.101-1.689,0.038-2.525l0.703,0.703
				c-0.834,0.081-1.666,0.103-2.5,0.147c-0.834,0.03-1.666,0.034-2.5,0.049c-0.834-0.019-1.666-0.017-2.5-0.053
				c-0.834-0.043-1.666-0.069-2.5-0.148l0.698-0.698c-0.063,0.836-0.057,1.683,0.038,2.526c0.094,0.844,0.287,1.681,0.593,2.48
				c0.157,0.396,0.331,0.793,0.562,1.156c0.229,0.365,0.5,0.698,0.798,1.012c0.165,0.136,0.315,0.297,0.498,0.41
				c0.184,0.112,0.36,0.241,0.562,0.316c0.193,0.1,0.399,0.16,0.61,0.211C98.542,142.047,98.76,142.034,98.975,142.066z
				 M98.979,142.166c-0.221-0.028-0.451-0.012-0.666-0.077c-0.22-0.048-0.436-0.107-0.637-0.206
				c-0.417-0.166-0.777-0.438-1.121-0.719c-0.324-0.306-0.623-0.636-0.879-0.999s-0.479-0.748-0.674-1.146
				c-0.388-0.798-0.61-1.647-0.783-2.516c-0.176-0.868-0.219-1.752-0.219-2.638V134h-0.023c3.334,0,6.666,0,10,0H104v-0.134
				c0,0.886-0.065,1.77-0.242,2.638c-0.173,0.868-0.436,1.718-0.822,2.515c-0.195,0.398-0.41,0.783-0.666,1.146
				c-0.256,0.363-0.551,0.694-0.875,1c-0.344,0.281-0.702,0.553-1.119,0.719c-0.201,0.099-0.417,0.158-0.638,0.206
				C99.419,142.155,99.197,142.138,98.979,142.166z"/>
		</g>
		<g>
			<line fill="#FFE1CC" x1="90.001" y1="155" x2="115" y2="145"/>
			<path d="M89.982,154.953c0,0,6.168-2.704,12.369-5.324c1.546-0.667,3.086-1.347,4.545-1.948c0.738-0.278,1.441-0.573,2.127-0.808
				c0.683-0.24,1.328-0.469,1.923-0.679c0.595-0.214,1.153-0.376,1.641-0.537c0.488-0.16,0.917-0.292,1.273-0.391
				c0.709-0.21,1.121-0.312,1.121-0.313l0.037,0.094c0-0.001-0.369,0.209-1.027,0.546c-0.327,0.175-0.728,0.375-1.192,0.596
				c-0.464,0.22-0.98,0.487-1.558,0.742c-0.576,0.259-1.2,0.538-1.86,0.835c-0.658,0.303-1.371,0.574-2.098,0.882
				c-1.471,0.57-3.055,1.141-4.635,1.724c-6.297,2.38-12.629,4.676-12.629,4.676L89.982,154.953z"/>
		</g>
	</g>
</g>
</svg>
