<?xml version="1.0" encoding="utf-8"?>
<!-- Generator: Adobe Illustrator 16.0.0, SVG Export Plug-In . SVG Version: 6.00 Build 0)  -->
<!DOCTYPE svg PUBLIC "-//W3C//DTD SVG 1.1//EN" "http://www.w3.org/Graphics/SVG/1.1/DTD/svg11.dtd">
<svg version="1.1" xmlns="http://www.w3.org/2000/svg" xmlns:xlink="http://www.w3.org/1999/xlink" x="0px" y="0px" width="200px"
	 height="235px" viewBox="0 0 200 235" enable-background="new 0 0 200 235" xml:space="preserve">
<g id="Ext">
</g>
<g id="Guides">
</g>
<g id="_x31_2_Col_Grid_1_" display="none" enable-background="new    ">
	<g id="Rectangle_xA0_Image_23_" display="inline" opacity="0.102">
	</g>
	<g id="Rectangle_xA0_Image_21_" display="inline" opacity="0.102">
	</g>
	<g id="Rectangle_xA0_Image_19_" display="inline" opacity="0.102">
	</g>
	<g id="Rectangle_xA0_Image_17_" display="inline" opacity="0.102">
	</g>
	<g id="Rectangle_xA0_Image_15_" display="inline" opacity="0.102">
	</g>
	<g id="Rectangle_xA0_Image_13_" display="inline" opacity="0.102">
	</g>
	<g id="Rectangle_xA0_Image_11_" display="inline" opacity="0.102">
	</g>
	<g id="Rectangle_xA0_Image_9_" display="inline" opacity="0.102">
	</g>
	<g id="Rectangle_xA0_Image_7_" display="inline" opacity="0.102">
	</g>
	<g id="Rectangle_xA0_Image_5_" display="inline" opacity="0.102">
	</g>
	<g id="Rectangle_xA0_Image_3_" display="inline" opacity="0.102">
	</g>
	<g id="Rectangle_xA0_Image_1_" display="inline" opacity="0.102">
	</g>
</g>
<g id="Bg">
</g>
<g id="main">
	<g id="Progress">
	</g>
	<g id="Text">
	</g>
</g>
<g id="pane">
</g>
<g id="browserhead">
	<g>
		<path d="M98.977,142.25c2.76,0,5-4.25,5-8.25h-10C93.977,138,96.215,142.25,98.977,142.25z"/>
		<path d="M98.975,142.066c0.215-0.032,0.443-0.021,0.646-0.089c0.208-0.05,0.412-0.11,0.605-0.21
			c0.203-0.075,0.379-0.205,0.562-0.316c0.184-0.113,0.333-0.275,0.498-0.411c0.298-0.313,0.569-0.647,0.798-1.012
			s0.403-0.76,0.56-1.157c0.306-0.8,0.498-1.637,0.591-2.479c0.095-0.843,0.101-1.689,0.038-2.525l0.703,0.703
			c-0.834,0.081-1.666,0.103-2.5,0.147c-0.834,0.03-1.666,0.034-2.5,0.049c-0.834-0.019-1.666-0.017-2.5-0.053
			c-0.834-0.043-1.666-0.069-2.5-0.148l0.698-0.698c-0.063,0.836-0.057,1.683,0.038,2.526c0.094,0.844,0.287,1.681,0.593,2.48
			c0.157,0.396,0.331,0.793,0.562,1.156c0.229,0.365,0.5,0.698,0.798,1.012c0.165,0.136,0.315,0.297,0.498,0.41
			c0.184,0.112,0.36,0.241,0.562,0.316c0.193,0.1,0.399,0.16,0.61,0.211C98.542,142.047,98.76,142.034,98.975,142.066z
			 M98.979,142.166c-0.221-0.028-0.451-0.012-0.666-0.077c-0.22-0.048-0.436-0.107-0.637-0.206
			c-0.417-0.166-0.777-0.438-1.121-0.719c-0.324-0.306-0.623-0.636-0.879-0.999s-0.479-0.748-0.674-1.146
			c-0.388-0.798-0.61-1.647-0.783-2.516c-0.176-0.868-0.219-1.752-0.219-2.638V134h-0.023c3.334,0,6.666,0,10,0H104v-0.134
			c0,0.886-0.065,1.77-0.242,2.638c-0.173,0.868-0.436,1.718-0.822,2.515c-0.195,0.398-0.41,0.783-0.666,1.146
			c-0.256,0.363-0.551,0.694-0.875,1c-0.344,0.281-0.702,0.553-1.119,0.719c-0.201,0.099-0.417,0.158-0.638,0.206
			C99.419,142.155,99.197,142.138,98.979,142.166z"/>
	</g>
	<g>
		<path fill="#C9C9D6" d="M89.941,155.185c0,0-0.719-3.804,0-4.999c1.072-1.788,6.943-5.254,10.633-5.185
			c3.432,0.066,8.273,3.504,9.146,5.185c0.629,1.209,0,4.999,0,4.999"/>
		<path d="M89.941,155.185c0,0-0.182-0.49-0.395-1.383c-0.104-0.446-0.221-0.992-0.303-1.641c-0.046-0.656-0.264-1.392,0.365-2.358
			c0.431-0.592,1.168-1.254,1.919-1.792c0.379-0.253,0.756-0.536,1.165-0.782c0.412-0.236,0.834-0.479,1.264-0.725
			c0.888-0.438,1.804-0.893,2.797-1.227c0.48-0.203,0.998-0.329,1.519-0.454c0.261-0.062,0.517-0.136,0.781-0.188l0.821-0.074
			c0.293-0.012,0.506-0.073,0.865-0.042l0.766,0.099c0.499,0.024,1.047,0.241,1.569,0.386c1.03,0.346,1.946,0.785,2.81,1.288
			c0.443,0.229,0.842,0.512,1.239,0.779c0.404,0.255,0.774,0.546,1.128,0.84c0.365,0.272,0.694,0.583,1.001,0.903
			c0.325,0.281,0.587,0.675,0.838,1.035c0.46,0.773,0.35,1.7,0.279,2.306c-0.081,0.646-0.188,1.193-0.285,1.641
			c-0.2,0.895-0.364,1.39-0.364,1.39s0.01-0.523-0.007-1.427c-0.008-0.45-0.028-0.998-0.094-1.609
			c-0.044-0.294-0.069-0.651-0.155-0.908c-0.052-0.146-0.014-0.263-0.082-0.455l-0.081-0.27l-0.044-0.136l-0.005-0.017l-0.003-0.009
			c-0.007-0.018,0.051,0.118,0.024,0.058l-0.019-0.024l-0.037-0.05c-0.201-0.268-0.374-0.56-0.685-0.83
			c-0.271-0.283-0.568-0.565-0.915-0.824c-0.33-0.273-0.676-0.547-1.061-0.789c-0.376-0.252-0.754-0.521-1.172-0.736
			c-0.805-0.473-1.709-0.898-2.6-1.197c-0.457-0.121-0.863-0.321-1.4-0.352l-0.767-0.099c-0.151-0.016-0.456,0.035-0.676,0.048
			l-0.721,0.062c-0.239,0.049-0.479,0.118-0.72,0.176c-0.479,0.115-0.957,0.229-1.416,0.424c-0.937,0.313-1.814,0.751-2.662,1.168
			c-0.41,0.235-0.814,0.466-1.209,0.692c-0.389,0.234-0.741,0.501-1.101,0.739c-0.683,0.503-1.229,0.942-1.721,1.602
			c-0.123,0.134-0.16,0.501-0.233,0.794c-0.076,0.312-0.125,0.633-0.156,0.937c-0.064,0.609-0.077,1.157-0.08,1.607
			C89.922,154.661,89.941,155.185,89.941,155.185z"/>
	</g>
</g>
</svg>
