<?xml version="1.0" encoding="utf-8"?>
<!-- Generator: Adobe Illustrator 16.0.0, SVG Export Plug-In . SVG Version: 6.00 Build 0)  -->
<!DOCTYPE svg PUBLIC "-//W3C//DTD SVG 1.1//EN" "http://www.w3.org/Graphics/SVG/1.1/DTD/svg11.dtd">
<svg version="1.1" id="Layer_1" xmlns="http://www.w3.org/2000/svg" xmlns:xlink="http://www.w3.org/1999/xlink" x="0px" y="0px"
	 width="200px" height="235px" viewBox="0 0 200 235" enable-background="new 0 0 200 235" xml:space="preserve">
<g id="Ext">
</g>
<g id="Guides">
</g>
<g id="_x31_2_Col_Grid_1_" display="none" enable-background="new    ">
	<g id="Rectangle_xA0_Image_23_" display="inline" opacity="0.102">
	</g>
	<g id="Rectangle_xA0_Image_21_" display="inline" opacity="0.102">
	</g>
	<g id="Rectangle_xA0_Image_19_" display="inline" opacity="0.102">
	</g>
	<g id="Rectangle_xA0_Image_17_" display="inline" opacity="0.102">
	</g>
	<g id="Rectangle_xA0_Image_15_" display="inline" opacity="0.102">
	</g>
	<g id="Rectangle_xA0_Image_13_" display="inline" opacity="0.102">
	</g>
	<g id="Rectangle_xA0_Image_11_" display="inline" opacity="0.102">
	</g>
	<g id="Rectangle_xA0_Image_9_" display="inline" opacity="0.102">
	</g>
	<g id="Rectangle_xA0_Image_7_" display="inline" opacity="0.102">
	</g>
	<g id="Rectangle_xA0_Image_5_" display="inline" opacity="0.102">
	</g>
	<g id="Rectangle_xA0_Image_3_" display="inline" opacity="0.102">
	</g>
	<g id="Rectangle_xA0_Image_1_" display="inline" opacity="0.102">
	</g>
</g>
<g id="Bg">
</g>
<g id="main">
	<g id="Progress">
	</g>
	<g id="Text">
	</g>
</g>
<g id="pane">
</g>
<g>
	<g>
		<line fill="#C9C9D6" stroke="#66666B" stroke-miterlimit="10" x1="70.941" y1="107.424" x2="71.836" y2="113.225"/>
		<path fill="#C9C9D6" stroke="#66666B" stroke-miterlimit="10" d="M70.99,107.416c0,0,0.442,1.417,0.793,2.848
			c0.091,0.357,0.217,0.709,0.284,1.046c0.051,0.34,0.048,0.666,0.024,0.947c-0.042,0.565-0.206,0.961-0.207,0.96l-0.098,0.016
			c-0.001,0-0.275-0.33-0.486-0.854c-0.108-0.261-0.208-0.571-0.262-0.91c-0.039-0.341-0.025-0.715-0.044-1.083
			c-0.097-1.47-0.103-2.953-0.103-2.953L70.99,107.416z"/>
	</g>
	<g>
		<line fill="#C9C9D6" stroke="#66666B" stroke-miterlimit="10" x1="80.186" y1="104.544" x2="84.424" y2="108.605"/>
		<path fill="#C9C9D6" stroke="#66666B" stroke-miterlimit="10" d="M80.22,104.508c0,0,1.213,0.856,2.361,1.778
			c0.29,0.228,0.604,0.431,0.862,0.658c0.247,0.239,0.443,0.499,0.595,0.737c0.31,0.474,0.421,0.888,0.42,0.888l-0.068,0.072
			c-0.001,0-0.419-0.094-0.905-0.382c-0.245-0.142-0.513-0.327-0.762-0.563c-0.238-0.248-0.455-0.553-0.694-0.833
			c-0.971-1.108-1.877-2.283-1.877-2.283L80.22,104.508z"/>
	</g>
	<g>
		<line fill="#C9C9D6" stroke="#66666B" stroke-miterlimit="10" x1="63.237" y1="103.5" x2="60.492" y2="108.605"/>
		<path fill="#C9C9D6" stroke="#66666B" stroke-miterlimit="10" d="M63.281,103.523c0,0-0.492,1.381-1.064,2.719
			c-0.14,0.336-0.249,0.688-0.397,0.994c-0.162,0.299-0.357,0.554-0.546,0.761c-0.37,0.418-0.737,0.632-0.737,0.632l-0.088-0.047
			c0,0-0.024-0.425,0.12-0.964c0.069-0.271,0.175-0.575,0.334-0.875c0.173-0.292,0.406-0.578,0.61-0.88
			c0.8-1.215,1.681-2.387,1.681-2.387L63.281,103.523z"/>
	</g>
	<g>
		<line fill="#C9C9D6" stroke="#66666B" stroke-miterlimit="10" x1="130.186" y1="103.544" x2="134.424" y2="107.605"/>
		<path fill="#C9C9D6" stroke="#66666B" stroke-miterlimit="10" d="M130.221,103.508c0,0,1.213,0.856,2.36,1.778
			c0.29,0.228,0.604,0.431,0.862,0.658c0.246,0.239,0.442,0.499,0.595,0.737c0.31,0.474,0.421,0.888,0.42,0.888l-0.067,0.072
			c-0.002,0-0.42-0.094-0.906-0.382c-0.244-0.142-0.512-0.327-0.762-0.563c-0.238-0.248-0.455-0.553-0.693-0.833
			c-0.971-1.108-1.877-2.283-1.877-2.283L130.221,103.508z"/>
	</g>
	<g>
		<line fill="#C9C9D6" stroke="#66666B" stroke-miterlimit="10" x1="122.862" y1="106.168" x2="124.456" y2="111.713"/>
		<path fill="#C9C9D6" stroke="#66666B" stroke-miterlimit="10" d="M122.91,106.154c0,0,0.611,1.326,1.134,2.675
			c0.134,0.336,0.302,0.664,0.408,0.984c0.091,0.325,0.13,0.644,0.138,0.922c0.028,0.555-0.086,0.962-0.086,0.962l-0.096,0.028
			c-0.002,0-0.314-0.286-0.586-0.77c-0.141-0.241-0.277-0.531-0.371-0.855c-0.08-0.329-0.112-0.695-0.177-1.051
			c-0.273-1.421-0.46-2.869-0.46-2.869L122.91,106.154z"/>
	</g>
	<g>
		<line fill="#C9C9D6" stroke="#66666B" stroke-miterlimit="10" x1="114.236" y1="103.5" x2="111.492" y2="108.605"/>
		<path fill="#C9C9D6" stroke="#66666B" stroke-miterlimit="10" d="M114.281,103.523c0,0-0.492,1.381-1.064,2.719
			c-0.14,0.336-0.249,0.688-0.396,0.994c-0.162,0.299-0.357,0.554-0.547,0.761c-0.369,0.418-0.736,0.632-0.736,0.632l-0.088-0.047
			c0,0-0.024-0.425,0.119-0.964c0.07-0.271,0.176-0.575,0.334-0.875c0.174-0.292,0.406-0.578,0.611-0.88
			c0.799-1.215,1.68-2.387,1.68-2.387L114.281,103.523z"/>
	</g>
	<ellipse fill="#C9C9D6" stroke="#66666B" stroke-miterlimit="10" cx="70.777" cy="95.025" rx="12.799" ry="12"/>
	<ellipse fill="#C9C9D6" stroke="#66666B" stroke-miterlimit="10" cx="122.777" cy="94.225" rx="12.799" ry="12"/>
</g>
</svg>
