<?xml version="1.0" encoding="utf-8"?>
<!-- Generator: Adobe Illustrator 16.0.0, SVG Export Plug-In . SVG Version: 6.00 Build 0)  -->
<!DOCTYPE svg PUBLIC "-//W3C//DTD SVG 1.1//EN" "http://www.w3.org/Graphics/SVG/1.1/DTD/svg11.dtd">
<svg version="1.1" xmlns="http://www.w3.org/2000/svg" xmlns:xlink="http://www.w3.org/1999/xlink" x="0px" y="0px" width="200px"
	 height="225px" viewBox="0 0 200 225" enable-background="new 0 0 200 225" xml:space="preserve">
<g id="Ext">
</g>
<g id="Guides">
</g>
<g id="_x31_2_Col_Grid_1_" display="none" enable-background="new    ">
	<g id="Rectangle_xA0_Image_23_" display="inline" opacity="0.102">
	</g>
	<g id="Rectangle_xA0_Image_21_" display="inline" opacity="0.102">
	</g>
	<g id="Rectangle_xA0_Image_19_" display="inline" opacity="0.102">
	</g>
	<g id="Rectangle_xA0_Image_17_" display="inline" opacity="0.102">
	</g>
	<g id="Rectangle_xA0_Image_15_" display="inline" opacity="0.102">
	</g>
	<g id="Rectangle_xA0_Image_13_" display="inline" opacity="0.102">
	</g>
	<g id="Rectangle_xA0_Image_11_" display="inline" opacity="0.102">
	</g>
	<g id="Rectangle_xA0_Image_9_" display="inline" opacity="0.102">
	</g>
	<g id="Rectangle_xA0_Image_7_" display="inline" opacity="0.102">
	</g>
	<g id="Rectangle_xA0_Image_5_" display="inline" opacity="0.102">
	</g>
	<g id="Rectangle_xA0_Image_3_" display="inline" opacity="0.102">
	</g>
	<g id="Rectangle_xA0_Image_1_" display="inline" opacity="0.102">
	</g>
</g>
<g id="Bg">
</g>
<g id="main">
	<g id="Progress">
	</g>
	<g id="Text">
	</g>
</g>
<g id="pane">
</g>
<g id="browserhead">
	<g>
		<path fill="#F980C8" stroke="#A8548A" stroke-miterlimit="10" d="M129.689,190.497c-4.751,1.394-9.666,2.406-14.711,3.015
			l2.056,13.247c0.117,0.771,0.355,1.491,0.688,2.154l6.346-5.744l7.785,3.553c0.113-0.731,0.121-1.494,0.002-2.265L129.689,190.497
			z"/>
		<path fill="#F980C8" stroke="#A8548A" stroke-miterlimit="10" d="M70.164,190.497l-1.173,14.941
			c-0.062,0.772,0.003,1.533,0.172,2.254l7.498-4.129l6.76,5.25c0.279-0.688,0.463-1.426,0.523-2.203l1.034-13.166
			C79.9,192.861,74.947,191.876,70.164,190.497z"/>
	</g>
	<path fill="#F980C8" stroke="#A8548A" stroke-miterlimit="10" d="M159.699,173.208c18.582-16.213,30.297-39.869,30.297-66.22
		c0-48.882-40.298-88.508-90.008-88.508c-49.711,0-90.01,39.626-90.01,88.508c0,26.253,11.627,49.832,30.091,66.041
		c14.349-8.61,35.747-14.08,59.663-14.08C123.814,158.949,145.352,164.492,159.699,173.208z"/>
	<path fill="#F9D4EB" d="M159.699,173.208c-14.348-8.717-35.885-14.26-59.967-14.26c-23.916,0-45.314,5.469-59.663,14.08
		C55.984,187,76.975,195.497,99.988,195.497C122.901,195.497,143.811,187.072,159.699,173.208z"/>
	<ellipse fill="#FCFCFC" stroke="#020200" stroke-miterlimit="10" cx="65.979" cy="85.497" rx="16" ry="15"/>
	<ellipse fill="#020200" stroke="#020200" stroke-width="0.5477" stroke-miterlimit="10" cx="65.979" cy="85.497" rx="9" ry="8"/>
	<ellipse fill="#FCFCFC" stroke="#020200" stroke-miterlimit="10" cx="130.979" cy="84.497" rx="16" ry="15"/>
	<ellipse fill="#020200" stroke="#020200" stroke-width="0.5477" stroke-miterlimit="10" cx="130.979" cy="84.497" rx="9" ry="8"/>
	<g>
		<path fill="#F9D4EB" d="M129.979,122.699c0,7.066-13.433,12.798-30,12.798s-30-5.729-30-12.798c0-5.545,13.432-21.327,30-21.327
			C116.546,101.372,129.979,114.861,129.979,122.699z"/>
		<path stroke="#020200" stroke-width="0.3844" stroke-miterlimit="10" d="M91.973,130.32c-7.291-0.996-12.519-5.332-11.981-10.308
			c0.54-4.971,6.651-8.839,14.092-9.217L91.973,130.32z"/>
		<path stroke="#020200" stroke-width="0.3853" stroke-miterlimit="10" d="M107.828,130.01c7.334-1.028,12.619-5.391,12.115-10.36
			c-0.506-4.97-6.62-8.81-14.096-9.151L107.828,130.01z"/>
	</g>
	<path fill="#F980C8" stroke="#A8548A" stroke-miterlimit="10" d="M157.719,100.325c8.594-0.753,16.004-9.54,17.118-20.958
		c1.113-11.417-4.46-21.473-12.743-23.871L157.719,100.325z"/>
	<path fill="#F980C8" stroke="#A8548A" stroke-miterlimit="10" d="M39.979,100.497c-8.594-0.753-16.004-9.54-17.118-20.958
		c-1.113-11.417,4.46-21.473,12.743-23.871L39.979,100.497z"/>
	<path fill="#F9F9F9" stroke="#020200" stroke-width="0.7603" stroke-miterlimit="10" d="M77.289,154.023l-0.4,0.118
		c0.043,0.068,0.08,0.145,0.121,0.214L77.289,154.023z"/>
	<path fill="#F9F9F9" stroke="#020200" stroke-width="0.7603" stroke-miterlimit="10" d="M67.629,165.497l0.283-0.333
		c-0.079-0.03-0.156-0.053-0.234-0.083L67.629,165.497z"/>
	<g>
		<path fill="#F980C8" stroke="#A8548A" stroke-miterlimit="10" d="M76.889,154.141c-0.396-0.628-0.891-1.206-1.485-1.708
			l-15.099-12.712c-3.129-2.632-7.826-2.196-10.492,0.972c-2.67,3.17-2.297,7.871,0.83,10.504l15.103,12.711
			c0.595,0.504,1.248,0.893,1.935,1.175l1.008-8.5L76.889,154.141z"/>
		<path fill="#F980C8" stroke="#A8548A" stroke-miterlimit="10" d="M125.379,154.141c0.396-0.628,0.891-1.206,1.486-1.708
			l15.1-12.712c3.127-2.632,7.824-2.196,10.49,0.972c2.67,3.17,2.297,7.871-0.83,10.504l-15.102,12.711
			c-0.594,0.504-1.248,0.893-1.936,1.175l-1.008-8.5L125.379,154.141z"/>
	</g>
	<path fill="#F9F9F9" stroke="#020200" stroke-width="0.7603" stroke-miterlimit="10" d="M124.979,154.023l0.398,0.118
		c-0.043,0.068-0.078,0.145-0.119,0.214L124.979,154.023z"/>
	<path fill="#F9F9F9" stroke="#020200" stroke-width="0.7603" stroke-miterlimit="10" d="M134.639,165.497l-0.283-0.333
		c0.08-0.03,0.156-0.053,0.234-0.083L134.639,165.497z"/>
</g>
</svg>
