<?xml version="1.0" encoding="utf-8"?>
<!-- Generator: Adobe Illustrator 16.0.0, SVG Export Plug-In . SVG Version: 6.00 Build 0)  -->
<!DOCTYPE svg PUBLIC "-//W3C//DTD SVG 1.1//EN" "http://www.w3.org/Graphics/SVG/1.1/DTD/svg11.dtd">
<svg version="1.1" xmlns="http://www.w3.org/2000/svg" xmlns:xlink="http://www.w3.org/1999/xlink" x="0px" y="0px" width="200px"
	 height="225px" viewBox="0 0 200 225" enable-background="new 0 0 200 225" xml:space="preserve">
<g id="Ext">
</g>
<g id="Guides">
</g>
<g id="_x31_2_Col_Grid_1_" display="none" enable-background="new    ">
	<g id="Rectangle_xA0_Image_23_" display="inline" opacity="0.102">
	</g>
	<g id="Rectangle_xA0_Image_21_" display="inline" opacity="0.102">
	</g>
	<g id="Rectangle_xA0_Image_19_" display="inline" opacity="0.102">
	</g>
	<g id="Rectangle_xA0_Image_17_" display="inline" opacity="0.102">
	</g>
	<g id="Rectangle_xA0_Image_15_" display="inline" opacity="0.102">
	</g>
	<g id="Rectangle_xA0_Image_13_" display="inline" opacity="0.102">
	</g>
	<g id="Rectangle_xA0_Image_11_" display="inline" opacity="0.102">
	</g>
	<g id="Rectangle_xA0_Image_9_" display="inline" opacity="0.102">
	</g>
	<g id="Rectangle_xA0_Image_7_" display="inline" opacity="0.102">
	</g>
	<g id="Rectangle_xA0_Image_5_" display="inline" opacity="0.102">
	</g>
	<g id="Rectangle_xA0_Image_3_" display="inline" opacity="0.102">
	</g>
	<g id="Rectangle_xA0_Image_1_" display="inline" opacity="0.102">
	</g>
</g>
<g id="Bg">
</g>
<g id="main">
	<g id="Progress">
	</g>
	<g id="Text">
	</g>
</g>
<g id="pane">
	<ellipse fill="#F980C8" stroke="#000000" stroke-miterlimit="10" cx="65.979" cy="85.492" rx="16" ry="15"/>
	<path fill="#FCFCFC" stroke="#020200" stroke-miterlimit="10" d="M74.9,84.492c0.047,0.328,0.078,0.661,0.078,1
		c0,4.418-4.029,8-9,8s-9-3.582-9-8c0-0.339,0.031-0.672,0.078-1h-7.025c-0.022,0.332-0.053,0.662-0.053,1c0,8.284,7.163,15,16,15
		c8.836,0,16-6.716,16-15c0-0.338-0.031-0.668-0.054-1H74.9z"/>
	<path stroke="#020200" stroke-width="0.5477" stroke-miterlimit="10" d="M57.057,84.492c-0.047,0.328-0.078,0.661-0.078,1
		c0,4.418,4.029,8,9,8s9-3.582,9-8c0-0.339-0.031-0.672-0.078-1H57.057z"/>
	<g>
		<ellipse fill="#F980C8" stroke="#000000" stroke-miterlimit="10" cx="130.291" cy="84.5" rx="16" ry="15"/>
		<path fill="#FCFCFC" stroke="#020200" stroke-miterlimit="10" d="M139.213,83.5c0.047,0.328,0.078,0.661,0.078,1
			c0,4.418-4.029,8-9,8s-9-3.582-9-8c0-0.339,0.031-0.672,0.078-1h-7.025c-0.022,0.332-0.053,0.662-0.053,1c0,8.284,7.163,15,16,15
			c8.836,0,16-6.716,16-15c0-0.338-0.031-0.668-0.054-1H139.213z"/>
		<path stroke="#020200" stroke-width="0.5477" stroke-miterlimit="10" d="M121.369,83.5c-0.047,0.328-0.078,0.661-0.078,1
			c0,4.418,4.029,8,9,8s9-3.582,9-8c0-0.339-0.031-0.672-0.078-1H121.369z"/>
	</g>
</g>
<g id="browserhead">
</g>
</svg>
