<?xml version="1.0" encoding="utf-8"?>
<!-- Generator: Adobe Illustrator 16.0.0, SVG Export Plug-In . SVG Version: 6.00 Build 0)  -->
<!DOCTYPE svg PUBLIC "-//W3C//DTD SVG 1.1//EN" "http://www.w3.org/Graphics/SVG/1.1/DTD/svg11.dtd">
<svg version="1.1" id="Layer_1" xmlns="http://www.w3.org/2000/svg" xmlns:xlink="http://www.w3.org/1999/xlink" x="0px" y="0px"
	 width="200px" height="225px" viewBox="0 0 200 225" enable-background="new 0 0 200 225" xml:space="preserve">
<g id="Ext">
</g>
<g id="Guides">
</g>
<g id="_x31_2_Col_Grid_1_" display="none" enable-background="new    ">
	<g id="Rectangle_xA0_Image_23_" display="inline" opacity="0.102">
	</g>
	<g id="Rectangle_xA0_Image_21_" display="inline" opacity="0.102">
	</g>
	<g id="Rectangle_xA0_Image_19_" display="inline" opacity="0.102">
	</g>
	<g id="Rectangle_xA0_Image_17_" display="inline" opacity="0.102">
	</g>
	<g id="Rectangle_xA0_Image_15_" display="inline" opacity="0.102">
	</g>
	<g id="Rectangle_xA0_Image_13_" display="inline" opacity="0.102">
	</g>
	<g id="Rectangle_xA0_Image_11_" display="inline" opacity="0.102">
	</g>
	<g id="Rectangle_xA0_Image_9_" display="inline" opacity="0.102">
	</g>
	<g id="Rectangle_xA0_Image_7_" display="inline" opacity="0.102">
	</g>
	<g id="Rectangle_xA0_Image_5_" display="inline" opacity="0.102">
	</g>
	<g id="Rectangle_xA0_Image_3_" display="inline" opacity="0.102">
	</g>
	<g id="Rectangle_xA0_Image_1_" display="inline" opacity="0.102">
	</g>
</g>
<g id="Bg">
</g>
<g id="main">
	<g id="Progress">
	</g>
	<g id="Text">
	</g>
</g>
<g id="pane">
</g>
<g>
	<g>
		<path fill="#FFFFFF" d="M91.75,144.979c0,0,5.848,6.77,8.41,7.64c1.851,0.629,6.033,0.317,7.678-0.849
			c1.694-1.201,5.051-7.109,5.051-7.109"/>
		<path d="M91.826,144.914c0,0,0.395,0.237,1.051,0.674c0.653,0.439,1.572,1.074,2.621,1.86c0.529,0.39,1.104,0.801,1.685,1.251
			c0.584,0.419,1.201,0.861,1.839,1.318c0.313,0.225,0.626,0.411,0.937,0.597l0.438,0.216c0.134,0.07,0.215,0.081,0.32,0.139
			c0.122,0.036-0.162-0.047-0.129-0.038l0.011,0.003l0.02,0.004l0.04,0.009l0.079,0.017l0.159,0.035l0.318,0.069
			c0.245,0.068,0.324,0.024,0.488,0.046c0.247,0.03,0.657,0.018,1.032,0.019c0.377,0.019,0.768-0.021,1.151-0.023
			c0.375-0.048,0.766-0.071,1.125-0.138c0.347-0.085,0.734-0.114,1.03-0.208c0.149-0.042,0.334-0.072,0.459-0.12
			c0.11-0.052,0.225-0.098,0.344-0.139l0.045-0.016l0.022-0.007l0.006-0.002c0.12-0.094-0.156,0.126-0.125,0.101l0.016-0.013
			l0.119-0.096l0.237-0.191c0.141-0.126,0.35-0.256,0.445-0.357c0.226-0.212,0.447-0.419,0.663-0.62
			c0.503-0.534,0.978-1.039,1.416-1.506c0.885-0.956,1.655-1.765,2.214-2.318c0.558-0.557,0.898-0.867,0.898-0.867l0.174,0.1
			c0,0-0.843,1.543-2.286,3.755c-0.352,0.558-0.776,1.136-1.215,1.754c-0.244,0.299-0.495,0.606-0.751,0.92
			c-0.286,0.292-0.542,0.567-0.911,0.83c-0.729,0.474-1.578,0.693-2.432,0.886c-0.429,0.093-0.868,0.136-1.307,0.203
			c-0.441,0.022-0.884,0.077-1.33,0.071c-0.883,0-1.809-0.087-2.649-0.342c-0.856-0.339-1.532-0.878-2.177-1.398
			c-1.284-1.051-2.362-2.152-3.283-3.097c-1.828-1.902-2.96-3.248-2.96-3.248L91.826,144.914z"/>
	</g>
	<g id="browserhead">
		<g>
			<path fill="#020200" d="M76.527,139.061c0,0,0.736,0.345,2.024,0.947c0.646,0.301,1.437,0.645,2.345,1.039
				c0.912,0.383,1.939,0.823,3.08,1.244c1.135,0.434,2.383,0.865,3.714,1.215c1.315,0.348,2.788,0.473,4.305,0.613
				c1.509,0.105,3.067,0.199,4.667,0.229c1.594,0.069,3.217,0.032,4.838,0.049c1.619-0.058,3.242-0.053,4.83-0.168
				c0.795-0.047,1.582-0.095,2.361-0.141c0.772-0.07,1.537-0.14,2.289-0.208c0.758-0.04,1.471-0.185,2.188-0.269l0.531-0.072
				l0.131-0.018c0.008,0,0.076-0.012,0.034-0.004l0.065-0.017l0.262-0.065c0.35-0.084,0.692-0.164,1.033-0.244
				c1.319-0.362,2.524-0.774,3.674-1.205c2.281-0.822,4.164-1.588,5.492-2.104c1.324-0.523,2.082-0.822,2.082-0.822l0.055,0.108
				c0,0-0.698,0.425-1.955,1.103c-0.623,0.35-1.396,0.746-2.287,1.188c-0.896,0.434-1.895,0.949-3.029,1.425
				c-1.113,0.485-2.389,0.996-3.745,1.44c-0.336,0.096-0.677,0.193-1.022,0.292l-0.26,0.069l-0.064,0.019
				c-0.086,0.021-0.062,0.012-0.102,0.019l-0.137,0.021l-0.553,0.084c-0.74,0.098-1.5,0.26-2.268,0.312
				c-0.769,0.053-1.549,0.108-2.34,0.164c-0.789,0.043-1.589,0.045-2.395,0.068c-1.61,0.061-3.243-0.003-4.876-0.002
				c-1.633-0.062-3.265-0.071-4.869-0.188c-1.602-0.074-3.186-0.213-4.717-0.363c-1.513-0.188-2.988-0.34-4.369-0.76
				c-1.356-0.412-2.596-0.895-3.723-1.375c-1.131-0.467-2.145-0.945-3.046-1.363c-0.896-0.428-1.675-0.805-2.31-1.129
				c-1.267-0.651-1.99-1.024-1.99-1.024L76.527,139.061z"/>
		</g>
		<path fill="none" stroke="#020200" stroke-miterlimit="10" d="M126.279,134.5c0,0,4.115-0.884,5,0c0.884,0.884,0,5,0,5"/>
	</g>
</g>
</svg>
