<?xml version="1.0" encoding="utf-8"?>
<!-- Generator: Adobe Illustrator 16.0.0, SVG Export Plug-In . SVG Version: 6.00 Build 0)  -->
<!DOCTYPE svg PUBLIC "-//W3C//DTD SVG 1.1//EN" "http://www.w3.org/Graphics/SVG/1.1/DTD/svg11.dtd">
<svg version="1.1" xmlns="http://www.w3.org/2000/svg" xmlns:xlink="http://www.w3.org/1999/xlink" x="0px" y="0px" width="200px"
	 height="225px" viewBox="0 0 200 225" enable-background="new 0 0 200 225" xml:space="preserve">
<g id="Ext">
</g>
<g id="Guides">
</g>
<g id="_x31_2_Col_Grid_1_" display="none" enable-background="new    ">
	<g id="Rectangle_xA0_Image_23_" display="inline" opacity="0.102">
	</g>
	<g id="Rectangle_xA0_Image_21_" display="inline" opacity="0.102">
	</g>
	<g id="Rectangle_xA0_Image_19_" display="inline" opacity="0.102">
	</g>
	<g id="Rectangle_xA0_Image_17_" display="inline" opacity="0.102">
	</g>
	<g id="Rectangle_xA0_Image_15_" display="inline" opacity="0.102">
	</g>
	<g id="Rectangle_xA0_Image_13_" display="inline" opacity="0.102">
	</g>
	<g id="Rectangle_xA0_Image_11_" display="inline" opacity="0.102">
	</g>
	<g id="Rectangle_xA0_Image_9_" display="inline" opacity="0.102">
	</g>
	<g id="Rectangle_xA0_Image_7_" display="inline" opacity="0.102">
	</g>
	<g id="Rectangle_xA0_Image_5_" display="inline" opacity="0.102">
	</g>
	<g id="Rectangle_xA0_Image_3_" display="inline" opacity="0.102">
	</g>
	<g id="Rectangle_xA0_Image_1_" display="inline" opacity="0.102">
	</g>
</g>
<g id="Bg">
</g>
<g id="main">
	<g id="Progress">
	</g>
	<g id="Text">
	</g>
</g>
<g id="pane">
</g>
<g id="browserhead">
	<g>
		<ellipse fill="#F980C8" stroke="#A8548A" stroke-miterlimit="10" cx="62.501" cy="82.5" rx="13.5" ry="12.5"/>
		<path fill="#FCFCFC" stroke="#020200" stroke-width="0.8385" stroke-miterlimit="10" d="M70.028,81.667
			c0.039,0.273,0.066,0.55,0.066,0.833c0,3.682-3.4,6.667-7.594,6.667s-7.594-2.985-7.594-6.667c0-0.283,0.026-0.56,0.066-0.833
			h-5.928c-0.02,0.276-0.045,0.552-0.045,0.833c0,6.903,6.044,12.5,13.5,12.5s13.5-5.597,13.5-12.5c0-0.281-0.025-0.557-0.045-0.833
			H70.028z"/>
		<path stroke="#020200" stroke-width="0.4593" stroke-miterlimit="10" d="M54.974,81.667c-0.04,0.273-0.066,0.55-0.066,0.833
			c0,3.682,3.4,6.667,7.594,6.667s7.594-2.985,7.594-6.667c0-0.283-0.027-0.56-0.066-0.833H54.974z"/>
		<ellipse fill="#F980C8" stroke="#A8548A" stroke-miterlimit="10" cx="130.501" cy="81.5" rx="13.5" ry="12.5"/>
		<path fill="#FCFCFC" stroke="#020200" stroke-width="0.8385" stroke-miterlimit="10" d="M138.028,80.667
			c0.039,0.273,0.066,0.55,0.066,0.833c0,3.682-3.4,6.667-7.594,6.667s-7.594-2.985-7.594-6.667c0-0.283,0.026-0.56,0.066-0.833
			h-5.928c-0.02,0.276-0.045,0.552-0.045,0.833c0,6.903,6.044,12.5,13.5,12.5s13.5-5.597,13.5-12.5c0-0.281-0.025-0.557-0.045-0.833
			H138.028z"/>
		<path stroke="#020200" stroke-width="0.4593" stroke-miterlimit="10" d="M122.974,80.667c-0.04,0.273-0.066,0.55-0.066,0.833
			c0,3.682,3.4,6.667,7.594,6.667s7.594-2.985,7.594-6.667c0-0.283-0.027-0.56-0.066-0.833H122.974z"/>
		<g>
			<path fill="#CFEFFF" d="M66.291,103.137c0,3.514-1.121,6.363-2.5,6.363c-1.383,0-2.5-2.85-2.5-6.363s1.117-13.637,2.5-13.637
				C65.17,89.5,66.291,99.623,66.291,103.137z"/>
			<path d="M66.291,103.137c0,0-0.002,0.167-0.006,0.48c-0.006,0.313-0.028,0.773-0.09,1.355c-0.068,0.581-0.177,1.287-0.408,2.071
				c-0.116,0.392-0.263,0.804-0.479,1.211c-0.215,0.401-0.48,0.83-0.918,1.115c-0.432,0.317-1.113,0.206-1.504-0.199
				c-0.418-0.379-0.701-0.889-0.931-1.423c-0.446-1.079-0.69-2.294-0.793-3.556c-0.108-1.267-0.041-2.572,0.049-3.888
				c0.093-1.317,0.221-2.653,0.386-3.984c0.183-1.33,0.396-2.656,0.688-3.951c0.149-0.646,0.312-1.286,0.549-1.906
				c0.13-0.308,0.254-0.616,0.5-0.896c0.094-0.134,0.361-0.298,0.582-0.217c0.068,0.013,0.23,0.113,0.277,0.175
				c0.062,0.069,0.125,0.139,0.166,0.213c0.63,1.177,0.781,2.386,1.008,3.517c0.197,1.136,0.338,2.216,0.449,3.213
				c0.225,1.995,0.363,3.662,0.422,4.832C66.301,102.468,66.291,103.137,66.291,103.137z M66.291,103.137c0,0-0.02-2.683-0.58-6.656
				c-0.145-0.992-0.319-2.063-0.553-3.187c-0.252-1.101-0.479-2.348-1.074-3.371c-0.184-0.248-0.301-0.338-0.481-0.112
				c-0.17,0.204-0.291,0.503-0.397,0.792c-0.211,0.591-0.369,1.221-0.506,1.858c-0.271,1.278-0.465,2.599-0.632,3.92
				c-0.181,1.321-0.325,2.647-0.435,3.955c-0.096,1.309-0.202,2.598-0.141,3.835c0.059,1.238,0.26,2.437,0.659,3.498
				c0.204,0.524,0.465,1.023,0.84,1.387c0.354,0.384,0.929,0.498,1.346,0.225c0.418-0.251,0.7-0.661,0.913-1.057
				c0.217-0.399,0.367-0.807,0.488-1.194c0.24-0.777,0.357-1.48,0.434-2.059c0.068-0.581,0.097-1.04,0.106-1.354
				C66.287,103.304,66.291,103.137,66.291,103.137z"/>
		</g>
		<g>
			<path fill="#CFEFFF" d="M131.291,103.137c0,3.514-1.121,6.363-2.5,6.363c-1.383,0-2.5-2.85-2.5-6.363s1.117-13.637,2.5-13.637
				C130.17,89.5,131.291,99.623,131.291,103.137z"/>
			<path d="M131.291,103.137c0,0-0.002,0.167-0.006,0.48c-0.006,0.313-0.028,0.773-0.09,1.355c-0.068,0.581-0.177,1.287-0.408,2.071
				c-0.116,0.392-0.263,0.804-0.479,1.211c-0.215,0.401-0.48,0.83-0.918,1.115c-0.432,0.317-1.113,0.206-1.504-0.199
				c-0.418-0.379-0.701-0.889-0.931-1.423c-0.446-1.079-0.69-2.294-0.793-3.556c-0.108-1.267-0.041-2.572,0.049-3.888
				c0.093-1.317,0.221-2.653,0.386-3.984c0.183-1.33,0.396-2.656,0.688-3.951c0.149-0.646,0.312-1.286,0.549-1.906
				c0.13-0.308,0.254-0.616,0.5-0.896c0.094-0.134,0.361-0.298,0.582-0.217c0.068,0.013,0.23,0.113,0.277,0.175
				c0.062,0.069,0.125,0.139,0.166,0.213c0.63,1.177,0.781,2.386,1.008,3.517c0.197,1.136,0.338,2.216,0.449,3.213
				c0.225,1.995,0.363,3.662,0.422,4.832C131.301,102.468,131.291,103.137,131.291,103.137z M131.291,103.137
				c0,0-0.02-2.683-0.58-6.656c-0.145-0.992-0.319-2.063-0.553-3.187c-0.252-1.101-0.479-2.348-1.074-3.371
				c-0.184-0.248-0.301-0.338-0.481-0.112c-0.17,0.204-0.291,0.503-0.397,0.792c-0.211,0.591-0.369,1.221-0.506,1.858
				c-0.271,1.278-0.465,2.599-0.632,3.92c-0.181,1.321-0.325,2.647-0.435,3.955c-0.096,1.309-0.202,2.598-0.141,3.835
				c0.059,1.238,0.26,2.437,0.659,3.498c0.204,0.524,0.465,1.023,0.84,1.387c0.354,0.384,0.929,0.498,1.346,0.225
				c0.418-0.251,0.7-0.661,0.913-1.057c0.217-0.399,0.367-0.807,0.488-1.194c0.24-0.777,0.357-1.48,0.434-2.059
				c0.068-0.581,0.097-1.04,0.106-1.354C131.287,103.304,131.291,103.137,131.291,103.137z"/>
		</g>
		<g>
			<path fill="#CFEFFF" d="M66.291,128.137c0,3.514-1.121,6.363-2.5,6.363c-1.383,0-2.5-2.85-2.5-6.363s1.117-13.637,2.5-13.637
				C65.17,114.5,66.291,124.623,66.291,128.137z"/>
			<path d="M66.291,128.137c0,0-0.002,0.167-0.006,0.48c-0.006,0.313-0.028,0.773-0.09,1.355c-0.068,0.581-0.177,1.287-0.408,2.071
				c-0.116,0.392-0.263,0.804-0.479,1.211c-0.215,0.401-0.48,0.83-0.918,1.115c-0.432,0.317-1.113,0.206-1.504-0.199
				c-0.418-0.379-0.701-0.889-0.931-1.423c-0.446-1.079-0.69-2.294-0.793-3.556c-0.108-1.267-0.041-2.572,0.049-3.888
				c0.093-1.317,0.221-2.653,0.386-3.984c0.183-1.33,0.396-2.656,0.688-3.951c0.149-0.646,0.312-1.286,0.549-1.906
				c0.13-0.308,0.254-0.616,0.5-0.896c0.094-0.134,0.361-0.298,0.582-0.217c0.068,0.013,0.23,0.113,0.277,0.175
				c0.062,0.069,0.125,0.139,0.166,0.213c0.63,1.177,0.781,2.386,1.008,3.517c0.197,1.136,0.338,2.216,0.449,3.213
				c0.225,1.995,0.363,3.662,0.422,4.832C66.301,127.468,66.291,128.137,66.291,128.137z M66.291,128.137c0,0-0.02-2.683-0.58-6.656
				c-0.145-0.992-0.319-2.063-0.553-3.187c-0.252-1.101-0.479-2.348-1.074-3.371c-0.184-0.248-0.301-0.338-0.481-0.112
				c-0.17,0.204-0.291,0.503-0.397,0.792c-0.211,0.591-0.369,1.221-0.506,1.858c-0.271,1.278-0.465,2.599-0.632,3.92
				c-0.181,1.321-0.325,2.647-0.435,3.955c-0.096,1.309-0.202,2.598-0.141,3.835c0.059,1.238,0.26,2.437,0.659,3.498
				c0.204,0.524,0.465,1.023,0.84,1.387c0.354,0.384,0.929,0.498,1.346,0.225c0.418-0.251,0.7-0.661,0.913-1.057
				c0.217-0.399,0.367-0.807,0.488-1.194c0.24-0.777,0.357-1.48,0.434-2.059c0.068-0.581,0.097-1.04,0.106-1.354
				C66.287,128.304,66.291,128.137,66.291,128.137z"/>
		</g>
		<g>
			<path fill="#CFEFFF" d="M131.291,128.137c0,3.514-1.121,6.363-2.5,6.363c-1.383,0-2.5-2.85-2.5-6.363s1.117-13.637,2.5-13.637
				C130.17,114.5,131.291,124.623,131.291,128.137z"/>
			<path d="M131.291,128.137c0,0-0.002,0.167-0.006,0.48c-0.006,0.313-0.028,0.773-0.09,1.355c-0.068,0.581-0.177,1.287-0.408,2.071
				c-0.116,0.392-0.263,0.804-0.479,1.211c-0.215,0.401-0.48,0.83-0.918,1.115c-0.432,0.317-1.113,0.206-1.504-0.199
				c-0.418-0.379-0.701-0.889-0.931-1.423c-0.446-1.079-0.69-2.294-0.793-3.556c-0.108-1.267-0.041-2.572,0.049-3.888
				c0.093-1.317,0.221-2.653,0.386-3.984c0.183-1.33,0.396-2.656,0.688-3.951c0.149-0.646,0.312-1.286,0.549-1.906
				c0.13-0.308,0.254-0.616,0.5-0.896c0.094-0.134,0.361-0.298,0.582-0.217c0.068,0.013,0.23,0.113,0.277,0.175
				c0.062,0.069,0.125,0.139,0.166,0.213c0.63,1.177,0.781,2.386,1.008,3.517c0.197,1.136,0.338,2.216,0.449,3.213
				c0.225,1.995,0.363,3.662,0.422,4.832C131.301,127.468,131.291,128.137,131.291,128.137z M131.291,128.137
				c0,0-0.02-2.683-0.58-6.656c-0.145-0.992-0.319-2.063-0.553-3.187c-0.252-1.101-0.479-2.348-1.074-3.371
				c-0.184-0.248-0.301-0.338-0.481-0.112c-0.17,0.204-0.291,0.503-0.397,0.792c-0.211,0.591-0.369,1.221-0.506,1.858
				c-0.271,1.278-0.465,2.599-0.632,3.92c-0.181,1.321-0.325,2.647-0.435,3.955c-0.096,1.309-0.202,2.598-0.141,3.835
				c0.059,1.238,0.26,2.437,0.659,3.498c0.204,0.524,0.465,1.023,0.84,1.387c0.354,0.384,0.929,0.498,1.346,0.225
				c0.418-0.251,0.7-0.661,0.913-1.057c0.217-0.399,0.367-0.807,0.488-1.194c0.24-0.777,0.357-1.48,0.434-2.059
				c0.068-0.581,0.097-1.04,0.106-1.354C131.287,128.304,131.291,128.137,131.291,128.137z"/>
		</g>
	</g>
</g>
</svg>
