<?xml version="1.0" encoding="utf-8"?>
<!-- Generator: Adobe Illustrator 16.0.0, SVG Export Plug-In . SVG Version: 6.00 Build 0)  -->
<!DOCTYPE svg PUBLIC "-//W3C//DTD SVG 1.1//EN" "http://www.w3.org/Graphics/SVG/1.1/DTD/svg11.dtd">
<svg version="1.1" id="Layer_1" xmlns="http://www.w3.org/2000/svg" xmlns:xlink="http://www.w3.org/1999/xlink" x="0px" y="0px"
	 width="200px" height="225px" viewBox="0 0 200 225" enable-background="new 0 0 200 225" xml:space="preserve">
<g id="Ext">
</g>
<g id="Guides">
</g>
<g id="_x31_2_Col_Grid_1_" display="none" enable-background="new    ">
	<g id="Rectangle_xA0_Image_23_" display="inline" opacity="0.102">
	</g>
	<g id="Rectangle_xA0_Image_21_" display="inline" opacity="0.102">
	</g>
	<g id="Rectangle_xA0_Image_19_" display="inline" opacity="0.102">
	</g>
	<g id="Rectangle_xA0_Image_17_" display="inline" opacity="0.102">
	</g>
	<g id="Rectangle_xA0_Image_15_" display="inline" opacity="0.102">
	</g>
	<g id="Rectangle_xA0_Image_13_" display="inline" opacity="0.102">
	</g>
	<g id="Rectangle_xA0_Image_11_" display="inline" opacity="0.102">
	</g>
	<g id="Rectangle_xA0_Image_9_" display="inline" opacity="0.102">
	</g>
	<g id="Rectangle_xA0_Image_7_" display="inline" opacity="0.102">
	</g>
	<g id="Rectangle_xA0_Image_5_" display="inline" opacity="0.102">
	</g>
	<g id="Rectangle_xA0_Image_3_" display="inline" opacity="0.102">
	</g>
	<g id="Rectangle_xA0_Image_1_" display="inline" opacity="0.102">
	</g>
</g>
<g id="Bg">
</g>
<g id="main">
	<g id="Progress">
	</g>
	<g id="Text">
	</g>
</g>
<g id="pane">
</g>
<path fill="#F9F9F9" stroke="#020200" stroke-width="0.7603" stroke-miterlimit="10" d="M129.918,208.977
	c0.113-0.732,0.121-1.494,0.002-2.265l-3.025-19.504c-0.627-4.04-4.453-6.799-8.545-6.162c-4.096,0.634-6.904,4.423-6.277,8.462
	l3.027,19.506c0.117,0.77,0.355,1.491,0.687,2.154l6.346-5.744L129.918,208.977z"/>
<path fill="#F9F9F9" stroke="#020200" stroke-width="0.7603" stroke-miterlimit="10" d="M130.297,209.15l-0.379-0.174
	c-0.014,0.078-0.034,0.159-0.049,0.239L130.297,209.15z"/>
<path fill="#F9F9F9" stroke="#020200" stroke-width="0.7603" stroke-miterlimit="10" d="M115.477,211.45l0.433-0.065
	c-0.04-0.074-0.084-0.142-0.123-0.217L115.477,211.45z"/>
<path fill="#F9F9F9" stroke="#020200" stroke-width="0.7603" stroke-miterlimit="10" d="M89.893,211.193
	c0.279-0.688,0.462-1.426,0.523-2.203l1.546-19.676c0.319-4.076-2.769-7.644-6.897-7.965c-4.131-0.326-7.737,2.715-8.058,6.789
	l-1.544,19.68c-0.062,0.773,0.003,1.533,0.172,2.254l7.498-4.129L89.893,211.193z"/>
<path fill="#F9F9F9" stroke="#020200" stroke-width="0.7603" stroke-miterlimit="10" d="M90.222,211.45l-0.329-0.257
	c-0.031,0.074-0.07,0.147-0.104,0.223L90.222,211.45z"/>
<path fill="#F9F9F9" stroke="#020200" stroke-width="0.7603" stroke-miterlimit="10" d="M75.269,210.275l0.436,0.035
	c-0.021-0.082-0.049-0.156-0.069-0.238L75.269,210.275z"/>
<path fill="#FCFCFC" stroke="#020200" stroke-miterlimit="10" d="M161.705,174.162c18.582-16.213,30.297-39.869,30.297-66.22
	c0-48.882-40.298-88.508-90.008-88.508c-49.711,0-90.01,39.626-90.01,88.508c0,26.253,11.628,49.832,30.091,66.041
	c14.349-8.611,35.747-14.08,59.663-14.08C125.82,159.902,147.357,165.445,161.705,174.162z"/>
<path fill="#FFFEFD" stroke="#000000" stroke-miterlimit="10" d="M161.705,174.162c-14.348-8.717-35.885-14.26-59.967-14.26
	c-23.916,0-45.314,5.469-59.663,14.08c15.915,13.972,36.906,22.468,59.919,22.468C124.907,196.45,145.816,188.025,161.705,174.162z"
	/>
<path fill="#FFFEFD" stroke="#020200" stroke-width="0.8551" stroke-miterlimit="10" d="M131.984,123.652
	c0,7.067-13.432,12.798-30,12.798c-16.567,0-30-5.729-30-12.798c0-5.545,13.432-21.327,30-21.327
	C118.552,102.325,131.984,115.814,131.984,123.652z"/>
<g>
	<ellipse fill="none" stroke="#020200" stroke-miterlimit="10" cx="67.984" cy="86.45" rx="16" ry="15"/>
	<ellipse fill="#020200" stroke="#020200" stroke-width="0.5477" stroke-miterlimit="10" cx="67.984" cy="86.45" rx="9" ry="8"/>
</g>
<g>
	<ellipse fill="none" stroke="#020200" stroke-miterlimit="10" cx="132.984" cy="85.45" rx="16" ry="15"/>
	<ellipse fill="#020200" stroke="#020200" stroke-width="0.5477" stroke-miterlimit="10" cx="132.984" cy="85.45" rx="9" ry="8"/>
</g>
<path stroke="#020200" stroke-width="0.3844" stroke-miterlimit="10" d="M93.979,131.273c-7.292-0.996-12.519-5.332-11.982-10.307
	c0.54-4.971,6.651-8.839,14.092-9.217L93.979,131.273z"/>
<path stroke="#020200" stroke-width="0.3853" stroke-miterlimit="10" d="M109.834,130.964c7.334-1.028,12.619-5.391,12.115-10.36
	c-0.506-4.97-6.62-8.81-14.096-9.152L109.834,130.964z"/>
<path fill="#F9F9F9" stroke="#020200" stroke-width="0.6249" stroke-miterlimit="10" d="M159.725,101.279
	c8.594-0.753,16.004-9.54,17.118-20.958c1.113-11.417-4.46-21.473-12.743-23.871L159.725,101.279z"/>
<path fill="#F9F9F9" stroke="#020200" stroke-width="0.6249" stroke-miterlimit="10" d="M41.984,101.45
	c-8.593-0.753-16.003-9.54-17.118-20.958c-1.113-11.417,4.46-21.473,12.744-23.871L41.984,101.45z"/>
<path fill="#F9F9F9" stroke="#020200" stroke-width="0.7603" stroke-miterlimit="10" d="M78.895,155.095
	c-0.396-0.628-0.891-1.206-1.486-1.708L62.31,140.675c-3.128-2.632-7.825-2.196-10.491,0.972c-2.67,3.17-2.297,7.871,0.83,10.504
	l15.102,12.711c0.594,0.503,1.248,0.892,1.934,1.174l1.008-8.5L78.895,155.095z"/>
<path fill="#F9F9F9" stroke="#020200" stroke-width="0.7603" stroke-miterlimit="10" d="M79.295,154.977l-0.4,0.118
	c0.043,0.068,0.079,0.144,0.121,0.214L79.295,154.977z"/>
<path fill="#F9F9F9" stroke="#020200" stroke-width="0.7603" stroke-miterlimit="10" d="M69.635,166.45l0.283-0.333
	c-0.079-0.03-0.156-0.053-0.234-0.083L69.635,166.45z"/>
<path fill="#F9F9F9" stroke="#020200" stroke-width="0.7603" stroke-miterlimit="10" d="M127.385,155.095
	c0.396-0.628,0.891-1.206,1.486-1.708l15.1-12.712c3.127-2.632,7.824-2.196,10.49,0.972c2.67,3.17,2.297,7.871-0.83,10.504
	l-15.102,12.711c-0.594,0.503-1.248,0.892-1.935,1.174l-1.008-8.5L127.385,155.095z"/>
<path fill="#F9F9F9" stroke="#020200" stroke-width="0.7603" stroke-miterlimit="10" d="M126.984,154.977l0.399,0.118
	c-0.043,0.068-0.079,0.144-0.12,0.214L126.984,154.977z"/>
<path fill="#F9F9F9" stroke="#020200" stroke-width="0.7603" stroke-miterlimit="10" d="M136.645,166.45l-0.283-0.333
	c0.08-0.03,0.156-0.053,0.234-0.083L136.645,166.45z"/>
</svg>
