<?xml version="1.0" encoding="utf-8"?>
<!-- Generator: Adobe Illustrator 16.0.0, SVG Export Plug-In . SVG Version: 6.00 Build 0)  -->
<!DOCTYPE svg PUBLIC "-//W3C//DTD SVG 1.1//EN" "http://www.w3.org/Graphics/SVG/1.1/DTD/svg11.dtd">
<svg version="1.1" xmlns="http://www.w3.org/2000/svg" xmlns:xlink="http://www.w3.org/1999/xlink" x="0px" y="0px" width="200px"
	 height="225px" viewBox="0 0 200 225" enable-background="new 0 0 200 225" xml:space="preserve">
<g id="Ext">
</g>
<g id="Guides">
</g>
<g id="_x31_2_Col_Grid_1_" display="none" enable-background="new    ">
	<g id="Rectangle_xA0_Image_23_" display="inline" opacity="0.102">
	</g>
	<g id="Rectangle_xA0_Image_21_" display="inline" opacity="0.102">
	</g>
	<g id="Rectangle_xA0_Image_19_" display="inline" opacity="0.102">
	</g>
	<g id="Rectangle_xA0_Image_17_" display="inline" opacity="0.102">
	</g>
	<g id="Rectangle_xA0_Image_15_" display="inline" opacity="0.102">
	</g>
	<g id="Rectangle_xA0_Image_13_" display="inline" opacity="0.102">
	</g>
	<g id="Rectangle_xA0_Image_11_" display="inline" opacity="0.102">
	</g>
	<g id="Rectangle_xA0_Image_9_" display="inline" opacity="0.102">
	</g>
	<g id="Rectangle_xA0_Image_7_" display="inline" opacity="0.102">
	</g>
	<g id="Rectangle_xA0_Image_5_" display="inline" opacity="0.102">
	</g>
	<g id="Rectangle_xA0_Image_3_" display="inline" opacity="0.102">
	</g>
	<g id="Rectangle_xA0_Image_1_" display="inline" opacity="0.102">
	</g>
</g>
<g id="Bg">
</g>
<g id="main">
	<g id="Progress">
	</g>
	<g id="Text">
	</g>
</g>
<g id="pane">
	<g>
		<g>
			<ellipse fill="#F980C8" stroke="#000000" stroke-miterlimit="10" cx="66.847" cy="84.5" rx="16" ry="15"/>
			<path fill="#F980C8" stroke="#000000" stroke-miterlimit="10" d="M85.179,109.5"/>
			<g>
				<line fill="#F980C8" x1="75.847" y1="96.5" x2="80.847" y2="101.5"/>
				<path d="M75.882,96.465c0,0,1.406,1.094,2.748,2.252c0.338,0.287,0.7,0.549,1.003,0.833c0.292,0.294,0.529,0.604,0.716,0.886
					c0.378,0.559,0.533,1.028,0.533,1.029l-0.07,0.07c0,0-0.47-0.155-1.029-0.534c-0.282-0.187-0.592-0.423-0.886-0.715
					c-0.283-0.303-0.546-0.665-0.833-1.003c-1.158-1.341-2.252-2.748-2.252-2.748L75.882,96.465z"/>
			</g>
			<g>
				<line fill="#F980C8" x1="65.847" y1="99.792" x2="68.082" y2="106.5"/>
				<path d="M65.895,99.776c0,0,0.768,1.607,1.449,3.244c0.175,0.408,0.381,0.805,0.525,1.193c0.129,0.394,0.202,0.776,0.243,1.112
					c0.088,0.669,0.018,1.159,0.018,1.159l-0.096,0.031c0,0-0.351-0.349-0.681-0.938c-0.169-0.293-0.34-0.644-0.473-1.036
					c-0.117-0.397-0.19-0.839-0.296-1.27c-0.437-1.718-0.786-3.465-0.786-3.465L65.895,99.776z"/>
			</g>
			<g>
				<line fill="#F980C8" x1="55.847" y1="95.214" x2="52.608" y2="101.5"/>
				<path d="M55.892,95.237c-0.001,0-0.614,1.672-1.309,3.303c-0.17,0.41-0.31,0.834-0.487,1.209
					c-0.191,0.368-0.414,0.688-0.626,0.952c-0.417,0.531-0.816,0.822-0.816,0.822l-0.09-0.046c0,0,0.005-0.495,0.195-1.143
					c0.092-0.326,0.224-0.693,0.411-1.062c0.202-0.362,0.468-0.723,0.702-1.099c0.925-1.512,1.931-2.983,1.93-2.983L55.892,95.237z"
					/>
			</g>
		</g>
		<g>
			<ellipse fill="#F980C8" stroke="#000000" stroke-miterlimit="10" cx="130.847" cy="84.5" rx="16" ry="15"/>
			<path fill="#F980C8" stroke="#000000" stroke-miterlimit="10" d="M149.179,109.5"/>
			<g>
				<line fill="#F980C8" x1="139.847" y1="96.5" x2="144.847" y2="101.5"/>
				<path d="M139.882,96.465c0,0,1.406,1.094,2.748,2.252c0.338,0.287,0.7,0.549,1.003,0.833c0.292,0.294,0.529,0.604,0.716,0.886
					c0.378,0.559,0.533,1.028,0.533,1.029l-0.07,0.07c0,0-0.47-0.155-1.029-0.534c-0.282-0.187-0.592-0.423-0.886-0.715
					c-0.283-0.303-0.546-0.665-0.833-1.003c-1.158-1.341-2.252-2.748-2.252-2.748L139.882,96.465z"/>
			</g>
			<g>
				<line fill="#F980C8" x1="129.847" y1="99.792" x2="132.082" y2="106.5"/>
				<path d="M129.895,99.776c0,0,0.768,1.607,1.449,3.244c0.175,0.408,0.381,0.805,0.525,1.193c0.129,0.394,0.202,0.776,0.243,1.112
					c0.088,0.669,0.018,1.159,0.018,1.159l-0.096,0.031c0,0-0.351-0.349-0.681-0.938c-0.169-0.293-0.34-0.644-0.473-1.036
					c-0.117-0.397-0.19-0.839-0.296-1.27c-0.437-1.718-0.786-3.465-0.786-3.465L129.895,99.776z"/>
			</g>
			<g>
				<line fill="#F980C8" x1="119.847" y1="95.214" x2="116.608" y2="101.5"/>
				<path d="M119.892,95.237c-0.001,0-0.614,1.672-1.309,3.303c-0.17,0.41-0.31,0.834-0.487,1.209
					c-0.191,0.368-0.414,0.688-0.626,0.952c-0.417,0.531-0.816,0.822-0.816,0.822l-0.09-0.046c0,0,0.005-0.495,0.195-1.143
					c0.092-0.326,0.224-0.693,0.411-1.062c0.202-0.362,0.468-0.723,0.702-1.099c0.925-1.512,1.931-2.983,1.93-2.983L119.892,95.237z
					"/>
			</g>
		</g>
	</g>
</g>
<g id="browserhead">
</g>
</svg>
