<?xml version="1.0" encoding="utf-8"?>
<!-- Generator: Adobe Illustrator 16.0.0, SVG Export Plug-In . SVG Version: 6.00 Build 0)  -->
<!DOCTYPE svg PUBLIC "-//W3C//DTD SVG 1.1//EN" "http://www.w3.org/Graphics/SVG/1.1/DTD/svg11.dtd">
<svg version="1.1" xmlns="http://www.w3.org/2000/svg" xmlns:xlink="http://www.w3.org/1999/xlink" x="0px" y="0px"
	 width="201.332px" height="242.865px" viewBox="0 0 201.332 242.865" enable-background="new 0 0 201.332 242.865"
	 xml:space="preserve">
<g id="Ext">
</g>
<g id="Guides">
</g>
<g id="_x31_2_Col_Grid_1_" display="none" enable-background="new    ">
	<g id="Rectangle_xA0_Image_23_" display="inline" opacity="0.102">
	</g>
	<g id="Rectangle_xA0_Image_21_" display="inline" opacity="0.102">
	</g>
	<g id="Rectangle_xA0_Image_19_" display="inline" opacity="0.102">
	</g>
	<g id="Rectangle_xA0_Image_17_" display="inline" opacity="0.102">
	</g>
	<g id="Rectangle_xA0_Image_15_" display="inline" opacity="0.102">
	</g>
	<g id="Rectangle_xA0_Image_13_" display="inline" opacity="0.102">
	</g>
	<g id="Rectangle_xA0_Image_11_" display="inline" opacity="0.102">
	</g>
	<g id="Rectangle_xA0_Image_9_" display="inline" opacity="0.102">
	</g>
	<g id="Rectangle_xA0_Image_7_" display="inline" opacity="0.102">
	</g>
	<g id="Rectangle_xA0_Image_5_" display="inline" opacity="0.102">
	</g>
	<g id="Rectangle_xA0_Image_3_" display="inline" opacity="0.102">
	</g>
	<g id="Rectangle_xA0_Image_1_" display="inline" opacity="0.102">
	</g>
</g>
<g id="Bg">
</g>
<g id="main">
	<g id="Progress">
	</g>
	<g id="Text">
	</g>
</g>
<g id="pane">
	<g>
		<path fill="none" stroke="#020200" stroke-miterlimit="10" d="M109.415,152.916v5.5l0.5,7l3.5,3c0,0,7.852,1.637,10.5,1.5
			c2.059-0.106,8-2,8-2s3.919-1.614,5-2.5c1.103-0.903,3.5-4.5,3.5-4.5l2.5-6l1-3.5"/>
		<path fill="none" stroke="#020200" stroke-miterlimit="10" d="M109.415,153.416v5.5l-0.5,7l-3.5,3c0,0-7.852,1.637-10.5,1.5
			c-2.059-0.106-6.063-1.294-8-2c-1.312-0.479-3.919-1.614-5-2.5c-1.103-0.903-3.5-4.5-3.5-4.5l-2.5-6l-1-3.5"/>
	</g>
	<path fill="none" stroke="#020200" stroke-miterlimit="10" d="M93.997,140.666"/>
	<path fill="none" stroke="#020200" stroke-miterlimit="10" d="M46.996,195.996"/>
	<path fill="#020200" d="M109.33,153.663c0,0-7.878-6.239-8.334-9.333c-0.201-1.364,2.334-5,2.334-5l5-2.667l4,0.667l2.666,2.333
		c0,0,1.763,2.664,1.667,3.667C116.362,146.483,109.33,153.663,109.33,153.663z"/>
	<path fill="none" stroke="#020200" stroke-miterlimit="10" d="M92.332,140.666"/>
	<path fill="none" stroke="#020200" stroke-miterlimit="10" d="M101,142.666"/>
	<path fill="none" stroke="#020200" stroke-miterlimit="10" d="M99.666,142.666"/>
	<path fill="none" stroke="#020200" stroke-miterlimit="10" d="M87,142.666"/>
	<path fill="none" stroke="#020200" stroke-miterlimit="10" d="M39.998,197.996"/>
	<rect x="11.668" y="-16.084" fill="none" width="179" height="16.75"/>
	<text transform="matrix(1 0 0 1 74.5537 -3.3047)" fill="#686868" font-family="'MyriadPro-Regular'" font-size="18">default</text>
	<rect x="12.002" y="-16.084" fill="none" width="179" height="16.75"/>
	<text transform="matrix(1 0 0 1 74.8877 -3.3047)" fill="#686868" font-family="'MyriadPro-Regular'" font-size="18">default</text>
	<rect x="23.334" y="-16.084" fill="none" width="179" height="16.75"/>
	<text transform="matrix(1 0 0 1 68.2939 -3.3047)" fill="#686868" font-family="'MyriadPro-Regular'" font-size="18">default -eye</text>
	<rect x="23.668" y="-16.084" fill="none" width="179" height="16.75"/>
	<text transform="matrix(1 0 0 1 47.458 -3.3047)" fill="#686868" font-family="'MyriadPro-Regular'" font-size="18">default - eye-shut</text>
	<path fill="none" stroke="#020200" stroke-miterlimit="10" d="M92.33,140.666"/>
	<path fill="none" stroke="#020200" stroke-miterlimit="10" d="M100.998,142.666"/>
	<path fill="none" stroke="#020200" stroke-miterlimit="10" d="M99.664,142.666"/>
	<path fill="none" stroke="#020200" stroke-miterlimit="10" d="M86.998,142.666"/>
	<path fill="none" stroke="#020200" stroke-miterlimit="10" d="M39.996,197.996"/>
	<rect x="11.666" y="-16.084" fill="none" width="179" height="16.75"/>
	<text transform="matrix(1 0 0 1 74.5527 -3.3037)" fill="#686868" font-family="'MyriadPro-Regular'" font-size="18">default</text>
	<rect x="12" y="-16.084" fill="none" width="179" height="16.75"/>
	<text transform="matrix(1 0 0 1 74.8867 -3.3037)" fill="#686868" font-family="'MyriadPro-Regular'" font-size="18">default</text>
	<rect x="23.332" y="-16.084" fill="none" width="179" height="16.75"/>
	<text transform="matrix(1 0 0 1 68.292 -3.3037)" fill="#686868" font-family="'MyriadPro-Regular'" font-size="18">default -eye</text>
	<rect x="23.666" y="-16.084" fill="none" width="179" height="16.75"/>
	<text transform="matrix(1 0 0 1 47.457 -3.3037)" fill="#686868" font-family="'MyriadPro-Regular'" font-size="18">default - eye-shut</text>
</g>
<g id="browserhead">
</g>
</svg>
