<?xml version="1.0" encoding="utf-8"?>
<!-- Generator: Adobe Illustrator 16.0.0, SVG Export Plug-In . SVG Version: 6.00 Build 0)  -->
<!DOCTYPE svg PUBLIC "-//W3C//DTD SVG 1.1//EN" "http://www.w3.org/Graphics/SVG/1.1/DTD/svg11.dtd">
<svg version="1.1" id="Layer_1" xmlns="http://www.w3.org/2000/svg" xmlns:xlink="http://www.w3.org/1999/xlink" x="0px" y="0px"
	 width="200px" height="235px" viewBox="0 0 200 235" enable-background="new 0 0 200 235" xml:space="preserve">
<g id="Ext">
</g>
<g id="Guides">
</g>
<g id="_x31_2_Col_Grid_1_" display="none" enable-background="new    ">
	<g id="Rectangle_xA0_Image_23_" display="inline" opacity="0.102">
	</g>
	<g id="Rectangle_xA0_Image_21_" display="inline" opacity="0.102">
	</g>
	<g id="Rectangle_xA0_Image_19_" display="inline" opacity="0.102">
	</g>
	<g id="Rectangle_xA0_Image_17_" display="inline" opacity="0.102">
	</g>
	<g id="Rectangle_xA0_Image_15_" display="inline" opacity="0.102">
	</g>
	<g id="Rectangle_xA0_Image_13_" display="inline" opacity="0.102">
	</g>
	<g id="Rectangle_xA0_Image_11_" display="inline" opacity="0.102">
	</g>
	<g id="Rectangle_xA0_Image_9_" display="inline" opacity="0.102">
	</g>
	<g id="Rectangle_xA0_Image_7_" display="inline" opacity="0.102">
	</g>
	<g id="Rectangle_xA0_Image_5_" display="inline" opacity="0.102">
	</g>
	<g id="Rectangle_xA0_Image_3_" display="inline" opacity="0.102">
	</g>
	<g id="Rectangle_xA0_Image_1_" display="inline" opacity="0.102">
	</g>
</g>
<g id="Bg">
</g>
<g id="main">
	<g id="Progress">
	</g>
	<g id="Text">
	</g>
</g>
<g id="pane">
</g>
<g>
	<ellipse stroke="#050500" stroke-miterlimit="10" cx="106.33" cy="137" rx="15" ry="5"/>
	<g>
		<path fill="#442E24" d="M124.41,153.85c0,0,0.934-3.058,0-4c-1.326-1.334-7.645-3.38-11.204-4c-2.521-0.439-8.615-0.384-11.202,0
			c-3.66,0.541-9.916,2.661-11.205,4c-0.914,0.945,0,3,0,4"/>
		<path fill="#020200" d="M124.334,153.831c0-0.001,0.086-0.628,0.09-1.692c-0.007-0.511-0.028-1.218-0.32-1.727
			c-0.086-0.117-0.13-0.188-0.251-0.223c-0.191-0.111-0.387-0.228-0.59-0.347c-0.41-0.169-0.76-0.317-1.208-0.487
			c-1.871-0.666-4.19-1.306-6.665-1.859c-0.617-0.139-1.246-0.271-1.874-0.368l-0.473-0.081l-0.06-0.011l-0.029-0.026
			c-0.086-0.012,0.102-0.01,0.076-0.01h-0.017l-0.128,0.012l-0.256-0.006l-1.026-0.085l-1.032-0.088l-0.985-0.005l-1.978-0.021
			l-2.048,0.036l-1.018,0.019l-0.973,0.078l-0.969,0.074c-0.142,0.01-0.366,0.014-0.439,0.028l-0.503,0.077
			c-0.686,0.092-1.297,0.217-1.887,0.345c-1.195,0.269-2.42,0.547-3.538,0.851c-1.123,0.31-2.164,0.646-3.09,1
			c-0.457,0.177-0.861,0.389-1.259,0.555c-0.165,0.095-0.325,0.188-0.481,0.275l-0.122,0.067c0.125-0.155,0.03-0.039,0.057-0.071
			l-0.006,0.008l-0.012,0.015l-0.025,0.03l-0.05,0.06l-0.192,0.233c-0.05,0.125-0.072,0.197-0.13,0.318
			c-0.026,0.155-0.051,0.305-0.075,0.447c-0.009,0.307-0.02,0.593,0.005,0.862c0.041,0.53,0.048,1.052,0.056,1.347
			c-0.021,0.303-0.03,0.539-0.03,0.539h-0.159c0,0-0.015-0.227-0.043-0.51c-0.057-0.287-0.139-0.744-0.244-1.278
			c-0.078-0.536-0.272-1.226,0.039-2.01c0.389-0.731,1.339-1.151,2.231-1.614c1.875-0.865,4.172-1.667,6.712-2.314
			c1.269-0.334,2.603-0.584,3.995-0.676c1.378-0.173,2.785-0.127,4.192-0.195l2.111,0.052l1.052,0.026l1.033,0.103
			c1.372,0.091,2.729,0.387,3.979,0.724c2.528,0.666,4.833,1.444,6.718,2.295c0.918,0.483,1.846,0.826,2.241,1.604
			c0.272,0.758,0.164,1.438,0.111,1.979c-0.157,1.086-0.36,1.687-0.36,1.686L124.334,153.831z"/>
	</g>
</g>
</svg>
