<?xml version="1.0" encoding="utf-8"?>
<!-- Generator: Adobe Illustrator 16.0.0, SVG Export Plug-In . SVG Version: 6.00 Build 0)  -->
<!DOCTYPE svg PUBLIC "-//W3C//DTD SVG 1.1//EN" "http://www.w3.org/Graphics/SVG/1.1/DTD/svg11.dtd">
<svg version="1.1" xmlns="http://www.w3.org/2000/svg" xmlns:xlink="http://www.w3.org/1999/xlink" x="0px" y="0px" width="200px"
	 height="235px" viewBox="0 0 200 235" enable-background="new 0 0 200 235" xml:space="preserve">
<g id="Ext">
</g>
<g id="Guides">
</g>
<g id="_x31_2_Col_Grid_1_" display="none" enable-background="new    ">
	<g id="Rectangle_xA0_Image_23_" display="inline" opacity="0.102">
	</g>
	<g id="Rectangle_xA0_Image_21_" display="inline" opacity="0.102">
	</g>
	<g id="Rectangle_xA0_Image_19_" display="inline" opacity="0.102">
	</g>
	<g id="Rectangle_xA0_Image_17_" display="inline" opacity="0.102">
	</g>
	<g id="Rectangle_xA0_Image_15_" display="inline" opacity="0.102">
	</g>
	<g id="Rectangle_xA0_Image_13_" display="inline" opacity="0.102">
	</g>
	<g id="Rectangle_xA0_Image_11_" display="inline" opacity="0.102">
	</g>
	<g id="Rectangle_xA0_Image_9_" display="inline" opacity="0.102">
	</g>
	<g id="Rectangle_xA0_Image_7_" display="inline" opacity="0.102">
	</g>
	<g id="Rectangle_xA0_Image_5_" display="inline" opacity="0.102">
	</g>
	<g id="Rectangle_xA0_Image_3_" display="inline" opacity="0.102">
	</g>
	<g id="Rectangle_xA0_Image_1_" display="inline" opacity="0.102">
	</g>
</g>
<g id="Bg">
</g>
<g id="main">
	<g id="Progress">
	</g>
	<g id="Text">
	</g>
</g>
<g id="pane">
</g>
<g id="browserhead">
	<ellipse stroke="#050500" stroke-miterlimit="10" cx="106.33" cy="137" rx="15" ry="5"/>
	<g>
		<path fill="#442E24" d="M114.557,153.849c0,0,0.417-3.057,0-4c-0.592-1.334-3.412-3.379-5-4c-1.125-0.439-3.845-0.383-5,0
			c-1.633,0.541-4.426,2.662-5,4c-0.408,0.946,0,3,0,4"/>
		<path fill="#020200" d="M114.507,153.842c0,0-0.017-0.409-0.048-1.127c-0.012-0.356-0.036-0.788-0.086-1.271
			c-0.039-0.236-0.051-0.504-0.119-0.747c-0.037-0.252-0.127-0.521-0.182-0.628c-0.175-0.256-0.363-0.53-0.564-0.685
			c-0.171-0.184-0.438-0.391-0.689-0.598c-0.521-0.409-1.12-0.791-1.725-1.192c-0.592-0.38-1.328-0.771-1.877-0.966
			c-0.441-0.13-0.656-0.134-1.029-0.166c-0.367-0.03-0.749-0.023-1.129-0.022c-0.752-0.008-1.561,0.041-2.172,0.192l-0.059,0.013
			c0.08-0.032-0.018,0.006-0.018,0.006l-0.141,0.055l-0.279,0.107c-0.202,0.068-0.33,0.151-0.484,0.227
			c-0.293,0.135-0.611,0.337-0.919,0.522c-0.6,0.4-1.196,0.782-1.709,1.198c-0.511,0.411-0.961,0.854-1.214,1.259
			c-0.001-0.011-0.039,0.078-0.009-0.015l-0.021,0.054l-0.039,0.106l-0.076,0.208c-0.028,0.118-0.037,0.218-0.072,0.325
			c-0.043,0.233-0.084,0.495-0.098,0.734c-0.042,0.482-0.045,0.994-0.057,1.354c-0.018,0.723-0.086,1.215-0.087,1.215h-0.1
			c-0.001,0-0.007-0.479-0.081-1.189c-0.031-0.355-0.08-0.825-0.1-1.325c-0.002-0.486-0.055-1.115,0.198-1.692
			c0.282-0.565,0.737-1.075,1.247-1.562c0.512-0.485,1.097-0.953,1.734-1.385c0.637-0.427,1.338-0.839,2.105-1.103
			c0.793-0.222,1.617-0.281,2.438-0.301c0.812,0.006,1.665,0.048,2.437,0.292c0.771,0.3,1.449,0.709,2.09,1.137
			c0.637,0.431,1.225,0.888,1.744,1.366c0.512,0.475,0.988,0.991,1.266,1.532c0.244,0.607,0.195,1.18,0.213,1.678
			c-0.011,0.499-0.04,0.934-0.07,1.29c-0.064,0.713-0.122,1.118-0.122,1.118L114.507,153.842z"/>
	</g>
</g>
</svg>
