<?xml version="1.0" encoding="utf-8"?>
<!-- Generator: Adobe Illustrator 16.0.0, SVG Export Plug-In . SVG Version: 6.00 Build 0)  -->
<!DOCTYPE svg PUBLIC "-//W3C//DTD SVG 1.1//EN" "http://www.w3.org/Graphics/SVG/1.1/DTD/svg11.dtd">
<svg version="1.1" xmlns="http://www.w3.org/2000/svg" xmlns:xlink="http://www.w3.org/1999/xlink" x="0px" y="0px" width="200px"
	 height="225px" viewBox="0 0 200 225" enable-background="new 0 0 200 225" xml:space="preserve">
<g id="Ext">
</g>
<g id="Guides">
</g>
<g id="_x31_2_Col_Grid_1_" display="none" enable-background="new    ">
	<g id="Rectangle_xA0_Image_23_" display="inline" opacity="0.102">
	</g>
	<g id="Rectangle_xA0_Image_21_" display="inline" opacity="0.102">
	</g>
	<g id="Rectangle_xA0_Image_19_" display="inline" opacity="0.102">
	</g>
	<g id="Rectangle_xA0_Image_17_" display="inline" opacity="0.102">
	</g>
	<g id="Rectangle_xA0_Image_15_" display="inline" opacity="0.102">
	</g>
	<g id="Rectangle_xA0_Image_13_" display="inline" opacity="0.102">
	</g>
	<g id="Rectangle_xA0_Image_11_" display="inline" opacity="0.102">
	</g>
	<g id="Rectangle_xA0_Image_9_" display="inline" opacity="0.102">
	</g>
	<g id="Rectangle_xA0_Image_7_" display="inline" opacity="0.102">
	</g>
	<g id="Rectangle_xA0_Image_5_" display="inline" opacity="0.102">
	</g>
	<g id="Rectangle_xA0_Image_3_" display="inline" opacity="0.102">
	</g>
	<g id="Rectangle_xA0_Image_1_" display="inline" opacity="0.102">
	</g>
</g>
<g id="Bg">
</g>
<g id="main">
	<g id="Progress">
	</g>
	<g id="Text">
	</g>
</g>
<g id="pane">
</g>
<g id="browserhead">
	<g>
		<g>
			<path fill="#F9DEFC" d="M132.374,122.5c0-3.634-2.372-7.008-6.435-9.805c-0.168-0.117-0.34-0.227-0.515-0.337
				c-6.799-4.452-17.942-7.358-30.551-7.358c-12.602,0-23.742,2.904-30.542,7.353c-0.177,0.113-0.356,0.226-0.528,0.347
				c-4.058,2.796-6.43,6.169-6.43,9.801c0,0.353,0.031,0.703,0.074,1.051c-0.046,0.478-0.074,0.96-0.074,1.449
				c0,8.284,6.717,15,15,15c2.056,0,3.999-0.443,5.781-1.193c2.203-5.101,8.981,3.733,16.846,3.733
				c7.865,0,14.391-8.833,16.596-3.733c1.779,0.751,3.724,1.193,5.777,1.193c8.283,0,15-6.716,15-15
				c0-0.488-0.027-0.969-0.073-1.445C132.346,123.206,132.374,122.854,132.374,122.5z"/>
			<path fill="#020200" d="M132.197,122.501c0.006-1.883-0.619-3.706-1.672-5.249c-1.052-1.556-2.418-2.849-3.912-3.979
				c-1.51-1.116-3.145-2.039-4.835-2.847c-1.697-0.801-3.437-1.503-5.226-2.071c-3.572-1.157-7.258-1.94-10.979-2.427
				c-1.86-0.251-3.729-0.415-5.602-0.525c-1.873-0.106-3.751-0.146-5.622-0.118c-1.887,0.033-3.749,0.107-5.618,0.267
				c-1.869,0.146-3.73,0.371-5.58,0.661c-3.699,0.588-7.355,1.461-10.872,2.724c-1.753,0.642-3.474,1.371-5.124,2.229
				c-1.643,0.868-3.229,1.859-4.652,3.03c-1.417,1.175-2.682,2.546-3.557,4.132c-0.877,1.578-1.289,3.395-1.046,5.167l0.007,0.046
				l-0.006,0.054c-0.23,2.498,0.18,5.035,1.215,7.312c1.02,2.28,2.658,4.268,4.662,5.741c2.011,1.469,4.398,2.414,6.869,2.686
				c0.611,0.075,1.248,0.101,1.848,0.095c0.666-0.015,1.236-0.058,1.859-0.153c1.228-0.175,2.422-0.544,3.569-1.016l-0.315,0.312
				c0.175-0.397,0.401-0.799,0.738-1.15c0.336-0.351,0.806-0.627,1.293-0.726c0.986-0.196,1.84,0.081,2.6,0.355
				c1.521,0.595,2.848,1.391,4.209,2.105c2.684,1.437,5.499,2.749,8.443,2.783c2.939,0.021,5.776-1.237,8.463-2.668
				c1.361-0.71,2.688-1.509,4.191-2.108c0.751-0.273,1.592-0.558,2.541-0.356c0.469,0.099,0.908,0.371,1.222,0.71
				c0.315,0.34,0.526,0.729,0.69,1.115l-0.232-0.229c1.151,0.494,2.357,0.877,3.6,1.067c0.619,0.104,1.246,0.155,1.875,0.175
				c0.629,0.013,1.272-0.007,1.888-0.076c2.513-0.251,4.956-1.188,7.024-2.668c2.068-1.48,3.642-3.51,4.688-5.846
				c1.068-2.325,1.157-4.937,1.157-7.493v-0.008v-0.008C132,123.198,132.189,122.851,132.197,122.501z M132.25,122.499
				c-0.002,0.355-0.25,0.711-0.25,1.064v-0.016c1,2.577,0.056,5.229-0.995,7.61c-1.037,2.387-2.622,4.486-4.692,6.079
				c-2.08,1.583-4.538,2.633-7.151,2.973c-0.665,0.093-1.29,0.132-1.948,0.139c-0.662-0.001-1.312-0.035-1.968-0.125
				c-1.314-0.162-2.593-0.526-3.825-1.013l-0.153-0.062l-0.075-0.169c-0.289-0.646-0.726-1.147-1.306-1.242
				c-0.586-0.111-1.298,0.09-1.97,0.361c-1.359,0.568-2.68,1.388-4.041,2.132c-1.358,0.754-2.761,1.479-4.258,2.027
				c-0.748,0.277-1.521,0.5-2.314,0.653c-0.783,0.15-1.623,0.236-2.422,0.225c-1.637-0.018-3.229-0.396-4.721-0.94
				c-1.494-0.546-2.902-1.256-4.273-1.988c-1.368-0.722-2.707-1.515-4.067-2.043c-0.671-0.257-1.377-0.43-1.922-0.309
				c-0.534,0.103-0.925,0.557-1.196,1.186l-0.097,0.223l-0.219,0.09c-1.236,0.507-2.534,0.885-3.864,1.064
				c-0.651,0.097-1.371,0.141-1.994,0.146c-0.689,0.001-1.344-0.033-2.012-0.119c-2.658-0.319-5.219-1.362-7.358-2.956
				c-2.135-1.601-3.861-3.743-4.926-6.188c-1.082-2.432-1.231-5.159-1.231-7.796v0.1c0-1.973,0.225-4.004,1.188-5.7
				c0.959-1.709,2.309-3.139,3.792-4.35c1.493-1.211,3.124-2.211,4.813-3.089c1.695-0.865,3.451-1.595,5.236-2.232
				c3.58-1.256,7.283-2.11,11.021-2.675c1.869-0.28,3.749-0.493,5.634-0.626c1.88-0.15,3.783-0.201,5.659-0.204
				c7.547,0.018,15.129,1.002,22.289,3.403c1.791,0.593,3.538,1.317,5.233,2.143c1.694,0.83,3.326,1.787,4.849,2.9
				c1.502,1.136,2.814,2.437,3.877,4.008C131.654,118.74,132.258,120.598,132.25,122.499z"/>
		</g>
		<path fill="#020202" stroke="#020200" stroke-width="1.7652" stroke-miterlimit="10" d="M75.241,135.447
			c-1.959,1.945-6.476,0.574-10.084-3.061c-3.604-3.635-4.942-8.16-2.982-10.105c1.962-1.945,6.476-0.575,10.083,3.061
			C75.866,128.978,77.201,133.504,75.241,135.447z"/>
		
			<ellipse transform="matrix(-0.5125 0.8587 -0.8587 -0.5125 293.1925 90.2788)" fill="#020202" stroke="#020200" stroke-width="1.7652" stroke-miterlimit="10" cx="120.969" cy="128.368" rx="9.274" ry="5"/>
	</g>
</g>
</svg>
