<?xml version="1.0" encoding="utf-8"?>
<!-- Generator: Adobe Illustrator 16.0.0, SVG Export Plug-In . SVG Version: 6.00 Build 0)  -->
<!DOCTYPE svg PUBLIC "-//W3C//DTD SVG 1.1//EN" "http://www.w3.org/Graphics/SVG/1.1/DTD/svg11.dtd">
<svg version="1.1" xmlns="http://www.w3.org/2000/svg" xmlns:xlink="http://www.w3.org/1999/xlink" x="0px" y="0px" width="200px"
	 height="225px" viewBox="0 0 200 225" enable-background="new 0 0 200 225" xml:space="preserve">
<g id="Ext">
</g>
<g id="Guides">
</g>
<g id="_x31_2_Col_Grid_1_" display="none" enable-background="new    ">
	<g id="Rectangle_xA0_Image_23_" display="inline" opacity="0.102">
	</g>
	<g id="Rectangle_xA0_Image_21_" display="inline" opacity="0.102">
	</g>
	<g id="Rectangle_xA0_Image_19_" display="inline" opacity="0.102">
	</g>
	<g id="Rectangle_xA0_Image_17_" display="inline" opacity="0.102">
	</g>
	<g id="Rectangle_xA0_Image_15_" display="inline" opacity="0.102">
	</g>
	<g id="Rectangle_xA0_Image_13_" display="inline" opacity="0.102">
	</g>
	<g id="Rectangle_xA0_Image_11_" display="inline" opacity="0.102">
	</g>
	<g id="Rectangle_xA0_Image_9_" display="inline" opacity="0.102">
	</g>
	<g id="Rectangle_xA0_Image_7_" display="inline" opacity="0.102">
	</g>
	<g id="Rectangle_xA0_Image_5_" display="inline" opacity="0.102">
	</g>
	<g id="Rectangle_xA0_Image_3_" display="inline" opacity="0.102">
	</g>
	<g id="Rectangle_xA0_Image_1_" display="inline" opacity="0.102">
	</g>
</g>
<g id="Bg">
</g>
<g id="main">
	<g id="Progress">
	</g>
	<g id="Text">
	</g>
</g>
<g id="pane">
</g>
<g id="browserhead">
	<g>
		<g>
			<path fill="#231105" d="M72.24,24.334c0.267,1.163,0.137,2.239-0.388,3.229c-6.269-1.108-7.752,0.167-12.812-3.679
				c-4.054-3.081-7.192-6.966-8.688-11.2c-0.006,5.699-0.094,9.141,3.108,13.68c2.491,3.53,5.903,7.354,10.089,8.637
				c3.024-2.057,6.075-6.169,8.261-8.521"/>
			<path fill="#473733" d="M72.313,24.323l0.134,0.819c0.01,0.281-0.001,0.568-0.003,0.854c-0.045,0.279-0.107,0.556-0.161,0.835
				l-0.317,0.792l-0.031,0.08l-0.104-0.014l-1.727-0.228c-0.573-0.088-1.155-0.109-1.733-0.167
				c-1.156-0.094-2.324-0.156-3.496-0.322c-0.576-0.146-1.182-0.193-1.732-0.434l-0.844-0.306c-0.279-0.107-0.531-0.268-0.799-0.398
				l-0.791-0.417c-0.258-0.146-0.492-0.324-0.74-0.484c-0.484-0.341-0.994-0.635-1.459-1.017c-0.926-0.694-1.82-1.472-2.691-2.283
				l-1.244-1.263l-1.161-1.345l-1.067-1.425l-0.961-1.504l-0.838-1.581l-0.699-1.654l1.042-0.178
				c0.013,1.158,0.026,2.316,0.068,3.462c0.005,0.577,0.074,1.138,0.109,1.707c0.024,0.571,0.149,1.116,0.218,1.675
				c0.073,0.558,0.252,1.084,0.371,1.626c0.146,0.534,0.375,1.041,0.555,1.562c0.223,0.505,0.5,0.989,0.744,1.484
				c0.273,0.481,0.605,0.937,0.899,1.409c0.269,0.446,0.673,0.924,1.003,1.384c0.346,0.469,0.712,0.879,1.061,1.325
				c0.35,0.441,0.74,0.854,1.107,1.283c0.375,0.423,0.787,0.804,1.18,1.208c0.4,0.395,0.842,0.734,1.252,1.117
				c0.424,0.362,0.887,0.668,1.33,1.007c0.459,0.309,0.949,0.561,1.424,0.847c0.497,0.231,1.01,0.425,1.516,0.644l-0.515,0.078
				c0.384-0.281,0.773-0.553,1.155-0.841l1.115-0.93c0.723-0.654,1.432-1.332,2.119-2.04l2.057-2.142
				c0.685-0.718,1.376-1.436,2.1-2.12l0.107,0.1c-1.237,1.548-2.39,3.164-3.674,4.694c-0.637,0.769-1.305,1.518-1.997,2.252
				l-1.097,1.058c-0.395,0.327-0.805,0.643-1.208,0.965l-0.229,0.184l-0.286-0.105c-0.57-0.211-1.153-0.403-1.717-0.638
				c-0.534-0.285-1.089-0.544-1.606-0.857c-0.496-0.342-1.018-0.656-1.492-1.025c-0.463-0.381-0.941-0.752-1.373-1.164
				c-0.421-0.422-0.865-0.825-1.267-1.265c-0.394-0.446-0.806-0.873-1.183-1.336c-0.367-0.466-0.756-0.938-1.092-1.407
				c-0.336-0.488-0.683-0.902-1.01-1.451c-0.313-0.516-0.652-1.012-0.932-1.547c-0.254-0.551-0.536-1.089-0.762-1.65
				c-0.186-0.579-0.414-1.146-0.557-1.733c-0.113-0.593-0.287-1.18-0.348-1.775c-0.055-0.594-0.166-1.19-0.174-1.78
				c-0.019-0.59-0.071-1.185-0.063-1.768c-0.014-1.174,0.001-2.335,0.018-3.495l0.038-2.728l1.004,2.549l0.621,1.581l0.762,1.524
				l0.884,1.463l0.993,1.397l1.09,1.328l1.178,1.256l1.245,1.178c0.422,0.389,0.891,0.746,1.331,1.124
				c0.424,0.374,0.918,0.682,1.375,1.026c0.234,0.164,0.461,0.347,0.703,0.495l0.742,0.422c0.251,0.134,0.489,0.299,0.75,0.408
				l0.789,0.314c0.515,0.248,1.091,0.309,1.637,0.469c1.129,0.198,2.287,0.3,3.449,0.432c0.579,0.078,1.162,0.119,1.738,0.227
				l1.729,0.286l-0.136,0.066l0.324-0.739c0.059-0.263,0.128-0.524,0.18-0.789c0.009-0.268,0.03-0.535,0.031-0.806l-0.107-0.823
				L72.313,24.323z"/>
		</g>
		<g>
			<path fill="#231105" d="M122.508,24.334c-0.266,1.163-0.136,2.239,0.389,3.229c6.27-1.108,7.752,0.167,12.812-3.679
				c4.053-3.081,7.191-6.966,8.688-11.2c0.006,5.699,0.094,9.141-3.109,13.68c-2.49,3.53-5.902,7.354-10.088,8.637
				c-3.025-2.057-6.074-6.169-8.261-8.521"/>
			<path fill="#473733" d="M122.581,24.345l-0.107,0.823c0.002,0.271,0.023,0.538,0.031,0.806c0.053,0.265,0.122,0.526,0.18,0.789
				l0.326,0.739l-0.137-0.066l1.73-0.286c0.576-0.107,1.158-0.148,1.738-0.227c1.16-0.132,2.32-0.233,3.448-0.432
				c0.546-0.16,1.122-0.221,1.637-0.469l0.789-0.314c0.261-0.109,0.499-0.274,0.749-0.407l0.743-0.422
				c0.243-0.149,0.468-0.332,0.703-0.495c0.456-0.346,0.951-0.653,1.375-1.026c0.44-0.378,0.909-0.736,1.331-1.125l1.246-1.178
				l1.177-1.256l1.09-1.328l0.993-1.396l0.884-1.464l0.761-1.524l0.623-1.581l1.003-2.549l0.038,2.728
				c0.016,1.16,0.031,2.321,0.018,3.495c0.008,0.583-0.045,1.178-0.062,1.768c-0.008,0.59-0.119,1.187-0.176,1.78
				c-0.061,0.596-0.232,1.183-0.347,1.775c-0.144,0.588-0.372,1.154-0.556,1.733c-0.227,0.562-0.509,1.1-0.763,1.65
				c-0.279,0.535-0.619,1.031-0.932,1.546c-0.327,0.55-0.675,0.964-1.011,1.452c-0.336,0.47-0.725,0.941-1.091,1.407
				c-0.377,0.463-0.79,0.89-1.183,1.336c-0.4,0.439-0.846,0.843-1.268,1.265c-0.432,0.412-0.91,0.783-1.372,1.164
				c-0.475,0.369-0.997,0.684-1.492,1.025c-0.517,0.313-1.073,0.572-1.606,0.857c-0.562,0.234-1.146,0.427-1.717,0.638l-0.285,0.105
				l-0.23-0.184c-0.403-0.322-0.812-0.638-1.207-0.965l-1.098-1.058c-0.693-0.734-1.36-1.483-1.998-2.252
				c-1.283-1.53-2.436-3.146-3.673-4.694l0.107-0.1c0.724,0.684,1.415,1.402,2.101,2.12l2.056,2.142
				c0.687,0.708,1.396,1.386,2.119,2.04l1.115,0.93c0.382,0.288,0.771,0.56,1.155,0.841l-0.516-0.078
				c0.506-0.219,1.02-0.412,1.517-0.644c0.475-0.286,0.965-0.538,1.425-0.847c0.441-0.339,0.904-0.645,1.329-1.007
				c0.409-0.383,0.853-0.723,1.253-1.117c0.391-0.404,0.804-0.785,1.179-1.208c0.368-0.429,0.757-0.842,1.106-1.283
				c0.35-0.446,0.716-0.857,1.062-1.325c0.329-0.46,0.733-0.938,1.003-1.385c0.293-0.473,0.626-0.927,0.899-1.409
				c0.244-0.495,0.521-0.979,0.743-1.483c0.181-0.521,0.408-1.027,0.556-1.562c0.118-0.542,0.298-1.068,0.371-1.626
				c0.068-0.559,0.192-1.104,0.218-1.675c0.035-0.569,0.104-1.13,0.109-1.707c0.042-1.146,0.056-2.304,0.068-3.462l1.041,0.178
				l-0.698,1.654l-0.839,1.581l-0.961,1.504l-1.066,1.425l-1.16,1.345l-1.245,1.263c-0.871,0.812-1.765,1.59-2.691,2.284
				c-0.465,0.381-0.974,0.675-1.458,1.016c-0.248,0.161-0.484,0.338-0.742,0.485l-0.791,0.416c-0.267,0.131-0.518,0.292-0.797,0.398
				l-0.845,0.306c-0.552,0.24-1.157,0.288-1.731,0.434c-1.174,0.166-2.341,0.229-3.498,0.322c-0.576,0.058-1.159,0.079-1.732,0.167
				l-1.727,0.228l-0.104,0.014l-0.033-0.08l-0.316-0.792c-0.054-0.279-0.117-0.556-0.161-0.835
				c-0.001-0.285-0.013-0.572-0.003-0.854l0.133-0.819L122.581,24.345z"/>
		</g>
		<g>
			<g>
				<path fill="#705750" d="M58.049,31.697c-4.723-2.29-8.506-11.205-13.733-11.377c-3.864-0.126-9.623,6.614-9.401,10.684
					c0.403,7.412,17.895,5.572,20.436,0.979"/>
				<path fill="#473733" d="M58.024,31.74c0,0-0.195-0.108-0.562-0.312c-0.188-0.095-0.409-0.229-0.654-0.418
					c-0.246-0.183-0.546-0.377-0.834-0.645c-1.221-1.004-2.712-2.699-4.469-4.725c-0.891-1-1.858-2.087-3.012-3.072
					c-1.145-0.968-2.543-1.866-4.137-1.951c-1.594,0.003-3.071,0.962-4.373,2.072c-1.303,1.125-2.414,2.52-3.301,4.017
					c-0.426,0.758-0.809,1.545-1.035,2.36c-0.246,0.822-0.365,1.615-0.193,2.433c0.143,0.735,0.547,1.432,1.116,1.955
					c0.569,0.53,1.284,0.909,2.022,1.188c1.482,0.586,3.072,0.776,4.568,0.863c1.502,0.085,2.937-0.014,4.244-0.188
					c1.309-0.183,2.502-0.422,3.527-0.74c1.026-0.316,1.891-0.685,2.561-1.059c0.668-0.379,1.141-0.763,1.417-1.067
					c0.276-0.303,0.396-0.492,0.396-0.492l0.088,0.049c0,0-0.029,0.049-0.084,0.144c-0.062,0.09-0.125,0.25-0.265,0.412
					c-0.249,0.354-0.71,0.793-1.364,1.253c-0.656,0.461-1.522,0.912-2.562,1.302c-1.038,0.389-2.243,0.75-3.59,0.983
					c-1.345,0.232-2.823,0.392-4.398,0.364c-1.573-0.019-3.254-0.233-4.916-0.853c-0.82-0.325-1.642-0.769-2.333-1.431
					c-0.694-0.656-1.202-1.555-1.361-2.561c-0.02-0.239-0.063-0.393-0.063-0.703l0.033-0.729c0.086-0.468,0.16-0.942,0.325-1.38
					c0.278-0.898,0.708-1.723,1.18-2.512c0.969-1.561,2.152-2.979,3.544-4.133c0.689-0.581,1.439-1.087,2.238-1.496
					c0.797-0.378,1.734-0.673,2.605-0.632c1.807,0.141,3.273,1.148,4.42,2.175c1.16,1.049,2.104,2.171,2.969,3.2
					c1.705,2.08,3.135,3.799,4.312,4.824c0.28,0.274,0.564,0.47,0.803,0.655c0.232,0.192,0.449,0.332,0.635,0.433
					c0.36,0.214,0.553,0.329,0.553,0.329L58.024,31.74z"/>
			</g>
			<g>
				<path fill="#705750" d="M37.837,27.693c6.31-5.959,8.28-0.351,14.436,2.295"/>
				<path fill="#473733" d="M37.804,27.655c0,0,0.188-0.179,0.516-0.492c0.164-0.156,0.363-0.346,0.592-0.563
					c0.253-0.197,0.539-0.419,0.851-0.662c0.313-0.243,0.706-0.431,1.099-0.672c0.432-0.158,0.877-0.392,1.396-0.441
					c0.254-0.044,0.515-0.098,0.783-0.07c0.266,0.016,0.546-0.009,0.808,0.067c0.543,0.088,1.06,0.28,1.558,0.497
					c1.98,0.913,3.562,2.221,4.789,3.126c0.613,0.456,1.138,0.827,1.513,1.08c0.374,0.254,0.585,0.418,0.585,0.418l-0.039,0.092
					c0,0-0.256-0.058-0.699-0.193c-0.223-0.063-0.497-0.141-0.787-0.276c-0.291-0.131-0.642-0.252-0.99-0.438
					c-0.708-0.353-1.496-0.841-2.289-1.393c-0.387-0.286-0.785-0.582-1.191-0.882c-0.402-0.296-0.818-0.572-1.248-0.818
					c-0.434-0.228-0.879-0.431-1.34-0.539c-0.225-0.087-0.46-0.075-0.689-0.108c-0.23-0.044-0.459-0.011-0.684,0.012
					c-0.459,0.002-0.875,0.199-1.287,0.3c-0.385,0.19-0.775,0.33-1.096,0.533c-0.322,0.204-0.618,0.391-0.88,0.557
					c-0.249,0.194-0.465,0.363-0.644,0.503c-0.355,0.28-0.559,0.44-0.559,0.44L37.804,27.655z"/>
			</g>
		</g>
		<g>
			<path fill="#705750" d="M136.967,32.396c4.059-3.328,5.658-12.88,10.701-14.266c3.729-1.023,10.9,4.188,11.635,8.196
				c1.336,7.302-16.102,9.592-19.645,5.719"/>
			<path fill="#473733" d="M136.933,32.36c0,0,0.16-0.156,0.461-0.449c0.158-0.141,0.336-0.327,0.518-0.568
				c0.188-0.236,0.418-0.492,0.627-0.824c0.906-1.272,1.896-3.276,3.068-5.697c0.602-1.202,1.257-2.514,2.141-3.804
				c0.875-1.267,2.066-2.588,3.791-3.146c0.838-0.243,1.818-0.176,2.682,0.007c0.871,0.212,1.719,0.528,2.525,0.933
				c1.622,0.798,3.104,1.901,4.41,3.193c0.643,0.656,1.254,1.358,1.732,2.166c0.263,0.388,0.445,0.832,0.639,1.267l0.202,0.7
				c0.072,0.303,0.065,0.462,0.103,0.699c0.078,1.016-0.205,2.007-0.729,2.807c-0.518,0.805-1.212,1.429-1.935,1.936
				c-1.472,0.99-3.056,1.591-4.581,1.976c-1.525,0.395-3,0.584-4.363,0.672c-1.363,0.086-2.619,0.017-3.72-0.119
				c-1.102-0.137-2.05-0.373-2.795-0.668c-0.744-0.296-1.296-0.615-1.619-0.9c-0.175-0.125-0.271-0.267-0.353-0.339
				c-0.076-0.079-0.116-0.12-0.116-0.12l0.074-0.068c-0.001,0.001,0.16,0.157,0.499,0.387c0.34,0.231,0.889,0.494,1.627,0.707
				c0.739,0.207,1.665,0.364,2.736,0.433c1.072,0.069,2.289,0.024,3.604-0.104c1.312-0.135,2.73-0.373,4.172-0.806
				c1.434-0.434,2.936-0.99,4.24-1.905c0.653-0.444,1.26-0.979,1.689-1.627c0.432-0.642,0.662-1.413,0.631-2.161
				c-0.023-0.835-0.324-1.579-0.756-2.321c-0.41-0.74-0.967-1.416-1.557-2.053c-1.212-1.25-2.619-2.347-4.147-3.137
				c-1.524-0.776-3.186-1.364-4.735-0.996c-1.53,0.454-2.682,1.653-3.568,2.861c-0.892,1.228-1.58,2.511-2.213,3.691
				c-1.234,2.379-2.29,4.375-3.242,5.636c-0.219,0.327-0.465,0.587-0.662,0.821c-0.193,0.241-0.378,0.423-0.537,0.559
				c-0.31,0.284-0.475,0.436-0.475,0.436L136.933,32.36z"/>
		</g>
		<g>
			<path fill="#705750" d="M155.688,23.79c-7.525-4.323-8.134,1.59-13.502,5.598"/>
			<path fill="#473733" d="M155.665,23.834c0,0-0.235-0.107-0.646-0.297c-0.207-0.095-0.457-0.209-0.743-0.34
				c-0.294-0.1-0.624-0.213-0.985-0.336c-0.359-0.122-0.771-0.167-1.189-0.263c-0.425-0.001-0.875-0.097-1.322,0.009
				c-0.225,0.03-0.453,0.052-0.668,0.147c-0.215,0.086-0.445,0.129-0.645,0.267c-0.422,0.213-0.809,0.514-1.178,0.836
				c-0.359,0.34-0.7,0.706-1.022,1.087c-0.324,0.387-0.644,0.768-0.952,1.135c-0.644,0.723-1.295,1.381-1.902,1.889
				c-0.295,0.263-0.607,0.461-0.859,0.657c-0.252,0.199-0.5,0.338-0.702,0.452c-0.398,0.234-0.634,0.351-0.634,0.351l-0.061-0.08
				c0,0,0.167-0.209,0.473-0.543c0.305-0.333,0.729-0.816,1.218-1.403c0.982-1.167,2.215-2.806,3.929-4.156
				c0.434-0.327,0.891-0.634,1.398-0.846c0.236-0.136,0.515-0.177,0.77-0.255c0.255-0.089,0.521-0.098,0.778-0.113
				c0.517-0.073,1.005,0.05,1.462,0.104c0.437,0.143,0.861,0.233,1.224,0.397c0.36,0.163,0.689,0.312,0.981,0.445
				c0.273,0.158,0.512,0.296,0.707,0.409c0.393,0.229,0.615,0.359,0.615,0.359L155.665,23.834z"/>
		</g>
	</g>
	<g>
		<g>
			<path fill="#705750" d="M59.265,186.045c-0.643,0.811-1.133,1.763-1.4,2.832l-3.647,14.55c-1.008,4.019,1.433,8.092,5.451,9.099
				s8.091-1.433,9.1-5.451l3.646-14.55c0.088-0.349,0.14-0.696,0.176-1.043C67.974,190.013,63.521,188.193,59.265,186.045z"/>
			<path fill="#473733" d="M59.281,186.109c-0.729,0.951-1.179,2.046-1.435,3.207l-0.84,3.514l-1.679,7.027l-0.839,3.513
				c-0.301,1.165-0.293,2.308-0.038,3.455c0.511,2.265,2.188,4.221,4.339,5.047c0.543,0.226,1.069,0.345,1.676,0.449
				c0.555,0.059,1.125,0.091,1.697,0.021c1.137-0.118,2.248-0.503,3.193-1.145c0.947-0.632,1.75-1.482,2.283-2.484
				c0.281-0.492,0.48-1.027,0.629-1.572c0.154-0.557,0.285-1.163,0.428-1.742c0.562-2.342,1.125-4.684,1.718-7.018l0.894-3.5
				l0.466-1.745c0.069-0.278,0.174-0.61,0.214-0.844l0.164-0.888l0.303,0.501c-2.258-0.853-4.512-1.71-6.749-2.6
				C63.544,188.271,61.412,187.181,59.281,186.109z M59.287,186c2.226,0.911,4.448,1.809,6.646,2.75
				c2.276,0.746,4.535,1.524,6.791,2.308l0.36,0.125l-0.058,0.377l-0.137,0.893c-0.059,0.36-0.135,0.604-0.201,0.913l-0.412,1.759
				l-0.862,3.508c-0.577,2.338-1.185,4.668-1.794,6.998c-0.158,0.587-0.292,1.156-0.47,1.757c-0.182,0.61-0.419,1.208-0.747,1.756
				c-0.625,1.113-1.543,2.046-2.611,2.727c-1.062,0.693-2.301,1.1-3.559,1.21c-0.627,0.065-1.265,0.023-1.904-0.062
				c-0.577-0.107-1.23-0.265-1.795-0.515c-2.342-0.947-4.121-3.106-4.629-5.556c-0.262-1.202-0.229-2.534,0.098-3.698l0.918-3.494
				l1.834-6.988l0.918-3.494c0.279-1.17,0.789-2.324,1.551-3.257l0.025-0.031L59.287,186z"/>
		</g>
		<g>
			<path fill="#705750" d="M138.329,187.17c-0.038-0.152-0.09-0.299-0.137-0.446c-4.545,2.016-9.293,3.669-14.203,4.928
				l3.438,13.716c1.006,4.019,5.078,6.458,9.098,5.451c4.019-1.007,6.458-5.08,5.451-9.099L138.329,187.17z"/>
			<path fill="#473733" d="M138.28,187.183l-0.137-0.445l0.068,0.032l-3.5,1.382l-3.486,1.423l-7.181,2.294l0.161-0.271
				l3.328,12.748c0.141,0.547,0.267,1.042,0.443,1.566c0.09,0.252,0.199,0.472,0.297,0.709c0.125,0.227,0.246,0.459,0.382,0.681
				c0.562,0.878,1.315,1.628,2.192,2.182c1.748,1.135,3.99,1.393,5.946,0.745c0.988-0.323,1.87-0.833,2.632-1.532
				c0.74-0.705,1.337-1.56,1.732-2.503c0.396-0.943,0.579-1.973,0.545-2.998c-0.023-0.518-0.095-1.013-0.213-1.538l-0.367-1.605
				c-0.48-2.144-0.922-4.296-1.388-6.442C139.292,191.456,138.771,189.324,138.28,187.183z M138.378,187.157
				c0.578,2.118,1.123,4.246,1.748,6.354c0.602,2.112,1.227,4.219,1.815,6.335l0.433,1.59c0.146,0.541,0.258,1.13,0.305,1.709
				c0.089,1.169-0.136,2.353-0.572,3.438c-0.438,1.086-1.119,2.077-1.988,2.867c-0.863,0.778-1.932,1.383-3.039,1.709
				c-2.229,0.684-4.762,0.327-6.68-0.982c-0.963-0.642-1.787-1.488-2.391-2.473c-0.146-0.248-0.276-0.507-0.41-0.762
				c-0.109-0.271-0.234-0.55-0.323-0.816c-0.165-0.52-0.303-1.091-0.425-1.609l-3.078-12.81l-0.051-0.212l0.212-0.06l7.228-2.045
				c2.348-0.869,4.682-1.787,7.011-2.712l0.052-0.021l0.018,0.053L138.378,187.157z"/>
		</g>
		<g>
			<ellipse transform="matrix(0.9786 0.206 -0.206 0.9786 44.1249 -8.0996)" cx="60.962" cy="207.868" rx="7.5" ry="5"/>
			<path fill="#473733" d="M68.313,209.416c0,0-0.043,0.149-0.123,0.429c-0.099,0.272-0.273,0.672-0.621,1.093
				c-0.66,0.873-2.089,1.707-3.936,1.991c-1.84,0.292-4.097,0.059-6.219-0.95c-1.057-0.497-2.068-1.213-2.859-2.166
				c-0.771-0.951-1.296-2.228-1.029-3.518c0.258-1.258,1.254-2.255,2.342-2.817c1.109-0.567,2.33-0.819,3.503-0.854
				c2.356-0.086,4.532,0.63,6.101,1.651c1.582,1.015,2.543,2.374,2.788,3.444c0.144,0.528,0.14,0.964,0.118,1.253
				C68.336,209.262,68.313,209.416,68.313,209.416z M68.29,209.41c0,0,0.018-0.152,0.053-0.439c0.016-0.287,0.01-0.718-0.144-1.234
				c-0.265-1.047-1.237-2.364-2.813-3.323c-1.562-0.966-3.707-1.602-6.006-1.541c-1.145,0.032-2.329,0.283-3.403,0.814
				c-1.058,0.543-1.994,1.45-2.257,2.664c-0.254,1.183,0.224,2.428,0.969,3.354c0.764,0.934,1.752,1.646,2.789,2.145
				c2.078,1.002,4.32,1.274,6.146,1.011c1.839-0.25,3.26-1.087,3.918-1.944c0.348-0.416,0.522-0.809,0.622-1.078
				C68.246,209.559,68.29,209.41,68.29,209.41z"/>
		</g>
		<g>
			<path d="M127.214,207.706c0.668,2.724,4.764,4.296,9.151,3.513s7.403-3.624,6.737-6.348c-0.668-2.724-4.765-4.296-9.15-3.514
				C129.562,202.142,126.547,204.983,127.214,207.706z"/>
			<g>
				<path fill="#473733" d="M127.227,207.702c0,0,0.052,0.154,0.148,0.445c0.12,0.278,0.321,0.686,0.712,1.103
					c0.744,0.865,2.252,1.694,4.186,1.983c1.922,0.295,4.283,0.124,6.537-0.799c1.119-0.468,2.225-1.124,3.083-2.063
					c0.851-0.912,1.433-2.228,1.11-3.468c-0.323-1.271-1.379-2.161-2.5-2.715c-1.146-0.534-2.389-0.813-3.598-0.876
					c-2.422-0.121-4.703,0.421-6.42,1.322c-1.732,0.89-2.848,2.217-3.166,3.309c-0.188,0.539-0.18,0.996-0.162,1.298
					C127.202,207.542,127.227,207.702,127.227,207.702z M127.201,207.71c0,0-0.028-0.162-0.08-0.466
					c-0.024-0.305-0.042-0.768,0.136-1.32c0.299-1.119,1.407-2.492,3.146-3.438c1.726-0.959,4.04-1.58,6.518-1.432
					c1.234,0.064,2.512,0.345,3.691,0.915c1.148,0.572,2.268,1.545,2.59,2.869c0.342,1.364-0.299,2.719-1.178,3.654
					c-0.891,0.96-2.02,1.616-3.158,2.083c-2.298,0.926-4.67,1.055-6.605,0.73c-1.939-0.324-3.455-1.15-4.201-2.031
					c-0.391-0.423-0.594-0.836-0.711-1.118C127.253,207.865,127.201,207.71,127.201,207.71z"/>
			</g>
		</g>
	</g>
	<g>
		<g>
			<ellipse fill="#705750" stroke="#473733" stroke-miterlimit="10" cx="100.053" cy="108.508" rx="90.008" ry="88.508"/>
			<path fill="#422009" stroke="#422009" stroke-miterlimit="10" d="M10.952,95.864c0,12.117-3.409,26.083,2.052,37.434
				c1.186,2.464,3.127,7.185,4.697,9.368c2.803,3.896,8.756,3.053,12.619,0.838c4.62-2.648,7.479-8.307,9.077-13.223
				c1.896-5.831,0.704-9.115-2.169-13.911c-2.92-4.872-3.561-8.712-1.404-14.625c1.498-4.108,6.103-7.11,4.666-11.889
				c-1.158-3.855-6.932-8.01-10.728-7.724c-5.122,0.386-11.233,5.988-14.194,10.183c-5.621,7.961-5.045,18.962-5.045,28.442"/>
			<path fill="#422009" stroke="#422009" stroke-miterlimit="10" d="M188.998,99.344c0,6.941,0.33,14.046-0.615,20.816
				c-0.826,5.931-3.096,11.58-4.82,17.304c-1.55,5.149-2.502,10.53-4.443,15.344c-1.728,4.272-6.391,7.123-8.767,11.052
				c-1.435-4.814-10.266-7.285-13.252-11.995c-2.341-3.69-3.456-8.008-4.285-12.086c-1.962-9.646-3.368-17.322,7.619-21.037
				c8.128-2.747,17.616,0.652,17.692-10.086c0.027-3.771-0.848-6.984,2.014-8.833c2.46-1.589,6.264-0.943,9.353-0.943"/>
		</g>
		<path fill="#703D05" stroke="#703D05" stroke-miterlimit="10" d="M88.145,16.584c-8.766-0.305-24.617,10.324-8.576,12.979
			c1.766,0.291,7.344-0.603,8.49,0.412c2.277,2.018-0.562,6.424-0.353,8.486c0.298,2.918,0.923,4.023,4.302,3.443
			c4.314-0.74,4.527-5.579,7.318-8.592c5.158-5.567,11.338-0.066,17.939-0.915c0.359-2.279-0.16-7.549-1.74-9.312
			c-1.932-2.156-5.947-1.171-7.229-3.811c-1.719-3.54,1.889-9.448,0.375-13.787c-8.176-2.314-11.744,3.979-14.562,10.888
			c-2.615-2.764-6.473-15.506-10.802-9.328c-2.247,3.207-0.063,7.473,1.403,10.395"/>
	</g>
	<g>
		<path fill="#422009" stroke="#422009" stroke-width="3" stroke-miterlimit="10" d="M104.26,70.953
			c6.104-8.296,21.057-24.495,32.963-14.593c3.596,2.992,5.865,8.285,8.182,12.429c1.261,2.253,2.562,4.084,2.977,6.844
			c0.716,4.761,1.068,19.415-3.275,21.974c-0.037,7.74-13.092,16.415-19.408,10.363c-1.955-1.874-2.215-4.645-4.697-6.458
			c-1.434-1.046-4.252-1.43-6.096-1.802c-4.303-0.87-10.769,0.854-14.494-1.806c-7.525-5.375,0.854-19.786,4.613-25.257
			c1.929-2.806,3.951-5.999,6.212-8.464c1.761-1.918,4.603-3.311,5.901-6.106"/>
		<ellipse fill="#FCFCFC" stroke="#020200" stroke-miterlimit="10" cx="61.375" cy="81" rx="16" ry="15"/>
		<ellipse fill="#020200" stroke="#020200" stroke-width="0.5477" stroke-miterlimit="10" cx="61.375" cy="81" rx="9" ry="8"/>
		<ellipse fill="#FCFCFC" stroke="#020200" stroke-miterlimit="10" cx="126.375" cy="80" rx="16" ry="15"/>
		<ellipse fill="#020200" stroke="#020200" stroke-width="0.5477" stroke-miterlimit="10" cx="126.375" cy="80" rx="9" ry="8"/>
	</g>
	<g>
		<path fill="#473733" d="M52.437,132.195c0,0,0.01,0.11,0.028,0.323c0.012,0.218,0.079,0.514,0.214,0.9
			c0.262,0.775,0.881,1.828,1.867,3.009c0.986,1.175,2.306,2.527,3.841,4.024c1.582,1.423,3.583,2.821,5.778,4.289
			c2.21,1.45,4.602,3.058,7.245,4.516c2.646,1.465,5.485,2.957,8.54,4.153c0.76,0.321,1.544,0.547,2.332,0.777
			c0.761,0.153,1.658,0.323,2.463,0.339c1.642,0.125,3.385,0.048,5.105-0.009c1.736-0.099,3.486-0.198,5.242-0.299
			c1.775-0.104,3.553-0.092,5.314-0.105c1.767-0.014,3.533-0.028,5.293-0.043c0.867-0.007,1.777-0.023,2.65,0.011
			c0.883,0.057,1.763,0.113,2.639,0.17c1.722,0.111,3.443,0.21,5.037,0.014c0.405-0.032,0.746-0.17,1.123-0.241l1.115-0.496
			c0.686-0.388,1.367-0.774,2.045-1.243c1.355-0.891,2.643-1.864,3.832-2.886c1.195-1.02,2.326-2.058,3.213-3.21
			c1.842-2.384,3.289-4.806,4.783-7.04c1.518-2.175,2.906-4.169,4.139-5.936c1.23-1.769,2.314-3.303,3.219-4.558
			c1.801-2.518,2.829-3.955,2.829-3.955l0.102,0.066c0,0-0.938,1.499-2.579,4.12c-0.814,1.314-1.821,2.9-2.986,4.711
			c-1.165,1.812-2.479,3.855-3.912,6.086c-1.4,2.203-2.85,4.757-4.667,7.225c-0.931,1.282-2.11,2.38-3.333,3.432
			c-1.223,1.062-2.531,2.068-3.938,3.007c-0.689,0.471-1.462,0.904-2.252,1.329l-1.203,0.517c-0.453,0.097-0.922,0.255-1.367,0.286
			c-1.799,0.207-3.543,0.056-5.286-0.08c-0.858-0.069-1.72-0.14-2.583-0.21c-0.879-0.049-1.725-0.046-2.619-0.054
			c-1.76-0.015-3.526-0.029-5.293-0.043c-1.773-0.01-3.531-0.045-5.273,0.035c-1.759,0.077-3.511,0.154-5.25,0.231
			c-3.441,0.073-7.107,0.189-10.191-1.288c-3.098-1.266-5.932-2.788-8.568-4.313c-2.65-1.524-5.004-3.166-7.199-4.661
			c-2.182-1.516-4.154-2.941-5.752-4.43c-1.521-1.535-2.805-2.897-3.787-4.108c-0.975-1.209-1.588-2.29-1.843-3.092
			c-0.132-0.395-0.199-0.729-0.206-0.938c-0.016-0.213-0.023-0.323-0.023-0.323L52.437,132.195z"/>
	</g>
	<g>
		<g>
			<path fill="#705750" d="M132.234,161.686c0.279-0.481,0.627-0.925,1.047-1.311l10.623-9.753c2.199-2.021,5.505-1.685,7.381,0.746
				c1.877,2.432,1.615,6.04-0.584,8.059l-10.625,9.754c-0.418,0.387-0.879,0.684-1.361,0.9l-0.709-6.522L132.234,161.686z"/>
			<path fill="#473733" d="M132.192,161.657c0.493-0.912,1.334-1.595,2.062-2.297l2.245-2.116l4.492-4.231l2.245-2.115
				c0.199-0.181,0.349-0.342,0.59-0.537l0.614-0.466c0.184-0.172,0.471-0.264,0.713-0.39c0.252-0.117,0.502-0.252,0.771-0.29
				c1.045-0.34,2.193-0.203,3.205,0.164c1.053,0.357,1.871,1.108,2.556,1.989c0.601,0.788,1.024,1.94,1.175,2.987
				c0.078,1.078,0.02,2.199-0.423,3.215c-0.07,0.268-0.23,0.497-0.36,0.739c-0.15,0.23-0.244,0.5-0.445,0.695
				c-0.359,0.427-0.727,0.846-1.104,1.173l-2.248,2.114c-1.498,1.409-2.998,2.815-4.516,4.204l-2.283,2.075
				c-0.396,0.353-0.735,0.664-1.187,1.043c-0.208,0.154-0.403,0.312-0.622,0.463l-0.773,0.413l-0.57,0.305l-0.061-0.665
				c-0.201-2.179-0.399-4.356-0.558-6.539l0.203,0.25c-1.906-0.678-3.804-1.382-5.695-2.107l-0.056-0.021L132.192,161.657z
				 M132.315,161.656c1.936,0.518,3.863,1.056,5.781,1.62l0.176,0.051l0.028,0.199c0.314,2.166,0.589,4.336,0.86,6.506l-0.631-0.361
				l0.579-0.328c0.198-0.147,0.399-0.32,0.599-0.479l1.096-1.031l2.262-2.098c1.514-1.394,3.042-2.77,4.574-4.142l2.299-2.059
				c0.409-0.339,0.72-0.692,1.035-1.043c0.182-0.159,0.261-0.396,0.396-0.591c0.117-0.207,0.268-0.398,0.33-0.634
				c0.408-0.878,0.473-1.87,0.428-2.829c-0.102-0.47-0.136-0.972-0.338-1.392c-0.098-0.219-0.131-0.441-0.274-0.661l-0.403-0.656
				c-0.554-0.728-1.294-1.462-2.209-1.775c-0.887-0.339-1.9-0.489-2.834-0.2c-0.248,0.027-0.453,0.143-0.67,0.235
				c-0.213,0.108-0.441,0.15-0.645,0.33l-0.623,0.453c-0.162,0.123-0.374,0.331-0.559,0.492l-2.299,2.057l-4.6,4.114l-2.299,2.057
				C133.632,160.177,132.839,160.783,132.315,161.656z"/>
		</g>
		<g>
			<path fill="#705750" d="M58.768,164.559l-0.709,6.522c-0.482-0.217-0.943-0.514-1.361-0.9l-10.625-9.754
				c-2.199-2.019-2.461-5.627-0.584-8.059c1.876-2.431,5.182-2.767,7.381-0.746l10.623,9.753c0.42,0.386,0.768,0.829,1.047,1.311
				L58.768,164.559z"/>
			<path fill="#473733" d="M58.813,164.598l-0.621,6.498l-0.018,0.18l-0.172-0.071c-0.996-0.414-1.723-1.218-2.49-1.874
				l-2.299-2.057l-4.592-4.122l-2.293-2.064c-0.197-0.187-0.369-0.312-0.586-0.549l-0.518-0.571
				c-0.186-0.168-0.305-0.454-0.457-0.68c-0.139-0.242-0.309-0.478-0.381-0.738c-0.457-0.999-0.537-2.112-0.479-3.193
				c0.148-1.077,0.495-2.142,1.138-3.041l0.108-0.176c0.092-0.115,0.101-0.113,0.154-0.176l0.262-0.284
				c0.188-0.185,0.311-0.39,0.567-0.554l0.699-0.508c0.242-0.147,0.505-0.24,0.758-0.361c1.028-0.398,2.212-0.563,3.304-0.233
				c0.285,0.036,0.537,0.166,0.797,0.278c0.252,0.126,0.535,0.201,0.749,0.389l0.683,0.501c0.215,0.17,0.388,0.345,0.584,0.517
				l2.277,2.081c1.514,1.392,3.01,2.803,4.496,4.226l2.235,2.127c0.379,0.365,0.727,0.69,1.118,1.102
				c0.168,0.198,0.343,0.377,0.504,0.592l0.453,0.702l0.207,0.322l-0.373,0.109C62.7,163.536,60.761,164.077,58.813,164.598z
				 M58.752,164.511c1.892-0.726,3.789-1.43,5.695-2.107l-0.165,0.431l-0.416-0.571c-0.158-0.188-0.355-0.367-0.531-0.551
				c-0.334-0.315-0.767-0.663-1.139-1l-2.309-2.046c-1.545-1.359-3.078-2.729-4.595-4.12l-2.268-2.091
				c-0.188-0.17-0.376-0.364-0.563-0.513l-0.557-0.419c-0.172-0.164-0.404-0.222-0.607-0.331c-0.209-0.098-0.412-0.217-0.645-0.245
				c-0.887-0.3-1.865-0.179-2.734,0.13c-0.212,0.097-0.443,0.168-0.641,0.282l-0.562,0.381c-0.195,0.096-0.363,0.336-0.545,0.505
				l-0.268,0.277c-0.031,0.033-0.12,0.122-0.104,0.109l-0.098,0.151c-0.578,0.771-0.897,1.703-1.053,2.655
				c-0.064,0.957-0.021,1.956,0.373,2.851c0.059,0.242,0.199,0.428,0.31,0.635c0.132,0.199,0.187,0.419,0.384,0.607l0.506,0.581
				c0.123,0.149,0.357,0.344,0.53,0.514l2.253,2.108l4.498,4.224l2.246,2.115c0.767,0.692,1.441,1.479,2.365,1.885l-0.189,0.108
				l0.797-6.544L58.752,164.511z"/>
		</g>
	</g>
	<g>
		<path fill="#F9DEFC" stroke="#020200" stroke-width="0.75" stroke-miterlimit="10" d="M104.971,130.825
			c-3.004,1.386-6.82,2.22-10.981,2.22s-7.979-0.834-10.981-2.22c-1.375,0.794-2.576,1.73-3.561,2.782
			c3.141,2.676,8.479,4.438,14.542,4.438c6.062,0,11.401-1.763,14.542-4.438C107.547,132.555,106.346,131.618,104.971,130.825z"/>
		<g>
			<g>
				<path fill="#F9DEFC" d="M132.375,122.5c0-3.634-2.373-7.008-6.436-9.805c-0.168-0.117-0.34-0.227-0.514-0.337
					c-6.799-4.452-17.943-7.358-30.551-7.358c-12.602,0-23.743,2.904-30.543,7.353c-0.178,0.113-0.355,0.226-0.527,0.347
					c-4.059,2.796-6.43,6.169-6.43,9.801c0,0.353,0.029,0.703,0.073,1.051c-0.046,0.478-0.073,0.96-0.073,1.449
					c0,8.284,6.716,15,15,15c2.055,0,3.998-0.443,5.779-1.193c2.205-5.101,8.857-8.807,16.723-8.807
					c7.863,0,14.515,3.707,16.72,8.807c1.78,0.751,3.724,1.193,5.778,1.193c8.283,0,15-6.716,15-15c0-0.488-0.028-0.969-0.074-1.445
					C132.346,123.206,132.375,122.854,132.375,122.5z"/>
				<path fill="#020200" d="M132.193,122.502c0.001-1.898-0.622-3.698-1.673-5.25c-1.047-1.561-2.425-2.843-3.92-3.966
					c-0.733-0.594-1.525-1.065-2.348-1.522c-0.822-0.459-1.609-0.971-2.481-1.32c-0.859-0.375-1.693-0.798-2.569-1.134l-2.65-0.945
					c-0.881-0.323-1.802-0.52-2.702-0.784c-0.902-0.257-1.806-0.504-2.731-0.668l-2.758-0.563l-2.787-0.396
					c-1.852-0.313-3.733-0.366-5.6-0.542c-1.869-0.08-3.756-0.125-5.617-0.117l-2.82,0.101l-1.409,0.053l-1.397,0.128l-2.793,0.253
					l-2.778,0.411c-1.862,0.226-3.674,0.713-5.508,1.082l-2.698,0.763c-0.447,0.134-0.902,0.245-1.344,0.398l-1.314,0.482
					c-1.775,0.588-3.453,1.403-5.134,2.203l-2.404,1.406c-0.203,0.112-0.389,0.243-0.589,0.374
					c-0.164,0.102-0.369,0.271-0.553,0.404c-0.37,0.286-0.764,0.558-1.115,0.854c-1.4,1.155-2.623,2.547-3.492,4.127
					c-0.879,1.59-1.018,3.362-1.018,5.189v0.072c0,0.621-0.149,1.258-0.084,1.864l0.031,0.966c0.032,0.313,0.083,0.609,0.126,0.915
					c0.066,0.608,0.259,1.21,0.407,1.814c0.197,0.59,0.397,1.184,0.658,1.748c0.271,0.562,0.533,1.127,0.883,1.646
					c0.303,0.546,0.702,1.027,1.073,1.527c0.404,0.472,0.815,0.944,1.271,1.367c0.459,0.422,0.919,0.84,1.435,1.191
					c0.484,0.394,1.038,0.684,1.566,1.011c0.554,0.278,1.106,0.57,1.688,0.785c0.583,0.216,1.166,0.431,1.775,0.559
					c0.596,0.179,1.216,0.243,1.829,0.338c0.604,0.073,1.265,0.082,1.832,0.097c0.632-0.053,1.315-0.034,1.892-0.166l0.896-0.149
					l0.898-0.242c0.606-0.132,1.168-0.414,1.757-0.607l-0.315,0.312c0.373-0.795,0.795-1.568,1.326-2.26
					c0.26-0.351,0.525-0.695,0.828-1.007c0.284-0.329,0.594-0.631,0.917-0.919c0.632-0.591,1.323-1.11,2.04-1.583
					c0.717-0.474,1.469-0.89,2.242-1.257c0.773-0.365,1.566-0.687,2.379-0.95c0.809-0.268,1.632-0.499,2.467-0.663
					c0.831-0.188,1.677-0.303,2.521-0.394c0.847-0.095,1.696-0.118,2.547-0.137c0.861,0.02,1.664,0.04,2.541,0.135
					c0.855,0.089,1.693,0.207,2.523,0.404c0.834,0.171,1.654,0.409,2.461,0.683c0.809,0.271,1.598,0.598,2.366,0.968
					c0.769,0.372,1.515,0.793,2.225,1.271c0.71,0.477,1.394,0.999,2.017,1.591c0.318,0.29,0.624,0.592,0.903,0.921
					c0.299,0.311,0.558,0.657,0.81,1.008c0.516,0.692,0.922,1.463,1.277,2.251l-0.231-0.229c0.591,0.205,1.156,0.495,1.769,0.635
					l0.906,0.255l0.926,0.164c0.615,0.141,1.248,0.125,1.875,0.185c0.596-0.005,1.287-0.012,1.9-0.079
					c0.616-0.09,1.238-0.147,1.85-0.323c0.621-0.125,1.217-0.337,1.813-0.552c0.595-0.213,1.162-0.504,1.729-0.783
					c0.543-0.327,1.111-0.619,1.61-1.015c0.53-0.354,1.005-0.777,1.479-1.204c0.469-0.429,0.896-0.905,1.312-1.388
					c0.381-0.51,0.791-1.003,1.105-1.561c0.357-0.531,0.631-1.108,0.909-1.685c0.27-0.578,0.479-1.186,0.683-1.79
					c0.155-0.62,0.359-1.23,0.433-1.869c0.047-0.316,0.109-0.632,0.144-0.949l-0.065-0.96c0.069-0.64-0.157-1.279-0.157-1.926
					v-0.005v-0.007L132.193,122.502z M132.245,122.498l-0.256,1.065v-0.012c0,0.642,0.314,1.289,0.254,1.937l0.054,0.972
					c-0.03,0.322-0.042,0.643-0.085,0.964c-0.064,0.647-0.236,1.27-0.385,1.901c-0.197,0.617-0.39,1.237-0.654,1.83
					c-0.274,0.589-0.539,1.182-0.895,1.728c-0.312,0.574-0.718,1.083-1.101,1.609c-0.416,0.498-0.833,1.003-1.304,1.455
					c-0.471,0.45-0.946,0.898-1.479,1.278c-0.502,0.422-1.075,0.74-1.626,1.094c-0.578,0.306-1.156,0.623-1.766,0.862
					c-0.61,0.24-1.223,0.479-1.865,0.628c-0.626,0.199-1.289,0.284-1.945,0.396c-0.664,0.09-1.269,0.112-1.957,0.14
					c-0.657-0.041-1.324-0.009-1.977-0.135l-0.981-0.145l-0.964-0.238c-0.652-0.132-1.256-0.414-1.887-0.616l-0.143-0.045
					l-0.09-0.186c-0.352-0.713-0.742-1.407-1.238-2.033c-0.242-0.316-0.491-0.627-0.773-0.912c-0.262-0.301-0.552-0.576-0.854-0.841
					c-0.589-0.542-1.238-1.02-1.913-1.457c-0.675-0.437-1.385-0.821-2.116-1.16c-0.732-0.338-1.484-0.635-2.256-0.877
					c-0.768-0.247-1.551-0.46-2.346-0.607c-0.787-0.171-1.6-0.274-2.393-0.362c-0.775-0.089-1.633-0.112-2.43-0.131
					c-0.811,0.019-1.62,0.039-2.426,0.13c-0.803,0.085-1.607,0.193-2.396,0.372c-0.793,0.155-1.572,0.375-2.338,0.627
					c-0.768,0.249-1.516,0.552-2.242,0.895c-0.727,0.345-1.432,0.734-2.1,1.175s-1.31,0.921-1.89,1.465
					c-0.298,0.265-0.583,0.541-0.841,0.842c-0.277,0.284-0.518,0.597-0.754,0.913c-0.481,0.626-0.855,1.318-1.189,2.024
					l-0.116,0.245l-0.199,0.067c-0.634,0.214-1.242,0.502-1.899,0.643l-0.973,0.251l-1.013,0.159
					c-0.69,0.136-1.308,0.105-1.959,0.154c-0.718-0.018-1.353-0.038-2.025-0.122c-0.66-0.106-1.325-0.186-1.968-0.382
					c-0.654-0.146-1.279-0.381-1.904-0.62c-0.623-0.238-1.215-0.555-1.807-0.86c-0.564-0.355-1.153-0.675-1.67-1.1
					c-0.549-0.384-1.039-0.835-1.525-1.292c-0.483-0.457-0.919-0.967-1.346-1.476c-0.395-0.537-0.812-1.058-1.134-1.644
					c-0.366-0.559-0.645-1.164-0.927-1.767c-0.272-0.606-0.484-1.241-0.688-1.872c-0.156-0.648-0.357-1.279-0.43-1.957
					c-0.045-0.333-0.106-0.671-0.137-0.999l-0.047-0.966c-0.064-0.681,0.055-1.332,0.055-1.999v0.072
					c0-1.918,0.242-3.982,1.209-5.666c0.963-1.709,2.288-3.142,3.796-4.365c0.369-0.306,0.755-0.566,1.13-0.853
					c0.199-0.142,0.355-0.275,0.59-0.424c0.195-0.125,0.395-0.264,0.605-0.378l2.478-1.425c1.722-0.806,3.44-1.622,5.246-2.206
					l1.339-0.48c0.448-0.151,0.91-0.261,1.364-0.394l2.737-0.752c1.857-0.359,3.693-0.837,5.573-1.052l2.808-0.394l2.83-0.235
					c1.888-0.212,3.764-0.148,5.646-0.219c1.898,0.02,3.777,0.092,5.663,0.2c1.876,0.204,3.766,0.285,5.624,0.626l2.795,0.439
					l2.764,0.606c0.927,0.178,1.833,0.439,2.736,0.71c0.9,0.28,1.823,0.488,2.705,0.823l2.653,0.981
					c0.876,0.348,1.718,0.784,2.577,1.172c0.874,0.364,1.661,0.884,2.477,1.352c0.814,0.47,1.635,0.949,2.368,1.542
					c1.503,1.129,2.825,2.419,3.883,3.994C131.645,118.734,132.251,120.61,132.245,122.498z"/>
			</g>
			
				<ellipse transform="matrix(0.7044 0.7098 -0.7098 0.7044 111.7754 -10.6786)" fill="#020202" stroke="#020200" stroke-width="1.7652" stroke-miterlimit="10" cx="68.709" cy="128.864" rx="9.275" ry="5.002"/>
			
				<ellipse transform="matrix(-0.5125 0.8587 -0.8587 -0.5125 293.1925 90.2788)" fill="#020202" stroke="#020200" stroke-width="1.7652" stroke-miterlimit="10" cx="120.969" cy="128.368" rx="9.274" ry="5"/>
		</g>
	</g>
</g>
</svg>
