<?xml version="1.0" encoding="utf-8"?>
<!-- Generator: Adobe Illustrator 16.0.0, SVG Export Plug-In . SVG Version: 6.00 Build 0)  -->
<!DOCTYPE svg PUBLIC "-//W3C//DTD SVG 1.1//EN" "http://www.w3.org/Graphics/SVG/1.1/DTD/svg11.dtd">
<svg version="1.1" id="Layer_1" xmlns="http://www.w3.org/2000/svg" xmlns:xlink="http://www.w3.org/1999/xlink" x="0px" y="0px"
	 width="200px" height="225px" viewBox="0 0 200 225" enable-background="new 0 0 200 225" xml:space="preserve">
<g id="Ext">
</g>
<g id="Guides">
</g>
<g id="_x31_2_Col_Grid_1_" display="none" enable-background="new    ">
	<g id="Rectangle_xA0_Image_23_" display="inline" opacity="0.102">
	</g>
	<g id="Rectangle_xA0_Image_21_" display="inline" opacity="0.102">
	</g>
	<g id="Rectangle_xA0_Image_19_" display="inline" opacity="0.102">
	</g>
	<g id="Rectangle_xA0_Image_17_" display="inline" opacity="0.102">
	</g>
	<g id="Rectangle_xA0_Image_15_" display="inline" opacity="0.102">
	</g>
	<g id="Rectangle_xA0_Image_13_" display="inline" opacity="0.102">
	</g>
	<g id="Rectangle_xA0_Image_11_" display="inline" opacity="0.102">
	</g>
	<g id="Rectangle_xA0_Image_9_" display="inline" opacity="0.102">
	</g>
	<g id="Rectangle_xA0_Image_7_" display="inline" opacity="0.102">
	</g>
	<g id="Rectangle_xA0_Image_5_" display="inline" opacity="0.102">
	</g>
	<g id="Rectangle_xA0_Image_3_" display="inline" opacity="0.102">
	</g>
	<g id="Rectangle_xA0_Image_1_" display="inline" opacity="0.102">
	</g>
</g>
<g id="Bg">
</g>
<g id="main">
	<g id="Progress">
	</g>
	<g id="Text">
	</g>
</g>
<g>
	<path fill="#422009" stroke="#422009" stroke-width="3" stroke-miterlimit="10" d="M104.259,74.62
		c6.105-8.296,21.058-24.495,32.964-14.593c3.596,2.992,5.864,8.285,8.184,12.429c1.26,2.253,2.561,4.084,2.976,6.844
		c0.716,4.761,1.068,19.415-3.276,21.974c-0.035,7.74-13.09,16.415-19.405,10.363c-1.958-1.874-2.216-4.645-4.698-6.458
		c-1.434-1.046-4.252-1.43-6.095-1.802c-4.304-0.87-10.771,0.854-14.496-1.806c-7.524-5.375,0.854-19.786,4.614-25.257
		c1.929-2.806,3.951-5.999,6.211-8.464c1.762-1.918,4.603-3.311,5.902-6.106"/>
	<ellipse fill="#705750" stroke="#000000" stroke-miterlimit="10" cx="61.375" cy="81" rx="16" ry="15"/>
	<g>
		<line fill="none" stroke="#000000" stroke-miterlimit="10" x1="50" y1="92.54" x2="45.002" y2="97.54"/>
		<path stroke="#000000" stroke-miterlimit="10" d="M50.035,92.575c0,0-1.094,1.406-2.252,2.748c-0.286,0.338-0.549,0.7-0.832,1.003
			c-0.293,0.292-0.604,0.528-0.885,0.716c-0.56,0.378-1.029,0.533-1.029,0.533l-0.07-0.07c0,0,0.154-0.47,0.533-1.029
			c0.187-0.281,0.424-0.592,0.715-0.886c0.303-0.283,0.665-0.546,1.004-0.833c1.34-1.158,2.746-2.252,2.746-2.252L50.035,92.575z"/>
	</g>
	<g>
		<line fill="none" stroke="#000000" stroke-miterlimit="10" x1="61.083" y1="96.859" x2="59.89" y2="103.829"/>
		<path stroke="#000000" stroke-miterlimit="10" d="M61.132,96.869c0,0-0.081,1.779-0.252,3.544
			c-0.039,0.442-0.043,0.889-0.099,1.301c-0.073,0.407-0.189,0.78-0.31,1.095c-0.239,0.632-0.531,1.03-0.531,1.03l-0.1-0.017
			c0,0-0.145-0.473-0.158-1.147c-0.01-0.338,0.004-0.729,0.073-1.137c0.083-0.405,0.227-0.829,0.337-1.259
			c0.426-1.721,0.942-3.426,0.942-3.426L61.132,96.869z"/>
	</g>
	<g>
		<line fill="none" stroke="#000000" stroke-miterlimit="10" x1="71.527" y1="93.063" x2="77" y2="97.54"/>
		<path stroke="#000000" stroke-miterlimit="10" d="M71.559,93.024c0,0,1.508,0.949,2.959,1.968c0.364,0.252,0.751,0.478,1.08,0.729
			c0.32,0.264,0.587,0.548,0.801,0.811c0.432,0.519,0.633,0.97,0.633,0.97L76.97,97.58c0,0-0.482-0.108-1.077-0.429
			c-0.3-0.158-0.631-0.363-0.953-0.624c-0.312-0.273-0.608-0.607-0.929-0.915c-1.285-1.22-2.514-2.509-2.514-2.509L71.559,93.024z"
			/>
	</g>
	<ellipse fill="#705750" stroke="#000000" stroke-miterlimit="10" cx="124.375" cy="80.667" rx="16" ry="15"/>
	<g>
		<line fill="none" stroke="#000000" stroke-miterlimit="10" x1="113.001" y1="92.54" x2="108.002" y2="97.54"/>
		<path stroke="#000000" stroke-miterlimit="10" d="M113.036,92.575c0,0-1.095,1.406-2.252,2.748c-0.286,0.338-0.55,0.7-0.832,1.003
			c-0.294,0.292-0.604,0.529-0.886,0.716c-0.561,0.378-1.029,0.533-1.029,0.533l-0.07-0.07c0,0,0.155-0.47,0.533-1.029
			c0.188-0.282,0.424-0.592,0.716-0.886c0.304-0.283,0.665-0.546,1.003-0.833c1.342-1.158,2.747-2.252,2.747-2.252L113.036,92.575z"
			/>
	</g>
	<g>
		<line fill="none" stroke="#000000" stroke-miterlimit="10" x1="124.711" y1="96.816" x2="124.264" y2="103.873"/>
		<path stroke="#000000" stroke-miterlimit="10" d="M124.761,96.82c0,0,0.108,1.778,0.126,3.55c0.009,0.443,0.051,0.889,0.04,1.304
			c-0.029,0.413-0.105,0.796-0.194,1.123c-0.168,0.653-0.419,1.081-0.419,1.081l-0.1-0.007c0,0-0.193-0.455-0.279-1.124
			c-0.046-0.335-0.073-0.725-0.048-1.138c0.039-0.411,0.138-0.848,0.202-1.287c0.241-1.757,0.573-3.507,0.573-3.507L124.761,96.82z"
			/>
	</g>
	<g>
		<line fill="none" stroke="#000000" stroke-miterlimit="10" x1="134.527" y1="93.063" x2="140.001" y2="97.54"/>
		<path stroke="#000000" stroke-miterlimit="10" d="M134.559,93.024c0,0,1.51,0.949,2.959,1.968
			c0.365,0.252,0.752,0.477,1.082,0.729c0.318,0.264,0.586,0.548,0.801,0.811c0.432,0.519,0.634,0.97,0.633,0.97l-0.062,0.078
			c-0.001,0-0.482-0.108-1.076-0.429c-0.301-0.158-0.631-0.362-0.953-0.624c-0.312-0.272-0.609-0.607-0.93-0.915
			c-1.285-1.22-2.515-2.509-2.515-2.509L134.559,93.024z"/>
	</g>
</g>
</svg>
