<?xml version="1.0" encoding="utf-8"?>
<!-- Generator: Adobe Illustrator 16.0.0, SVG Export Plug-In . SVG Version: 6.00 Build 0)  -->
<!DOCTYPE svg PUBLIC "-//W3C//DTD SVG 1.1//EN" "http://www.w3.org/Graphics/SVG/1.1/DTD/svg11.dtd">
<svg version="1.1" id="Layer_1" xmlns="http://www.w3.org/2000/svg" xmlns:xlink="http://www.w3.org/1999/xlink" x="0px" y="0px"
	 width="200px" height="225px" viewBox="0 0 200 225" enable-background="new 0 0 200 225" xml:space="preserve">
<g id="Ext">
</g>
<g id="Guides">
</g>
<g id="_x31_2_Col_Grid_1_" display="none" enable-background="new    ">
	<g id="Rectangle_xA0_Image_23_" display="inline" opacity="0.102">
	</g>
	<g id="Rectangle_xA0_Image_21_" display="inline" opacity="0.102">
	</g>
	<g id="Rectangle_xA0_Image_19_" display="inline" opacity="0.102">
	</g>
	<g id="Rectangle_xA0_Image_17_" display="inline" opacity="0.102">
	</g>
	<g id="Rectangle_xA0_Image_15_" display="inline" opacity="0.102">
	</g>
	<g id="Rectangle_xA0_Image_13_" display="inline" opacity="0.102">
	</g>
	<g id="Rectangle_xA0_Image_11_" display="inline" opacity="0.102">
	</g>
	<g id="Rectangle_xA0_Image_9_" display="inline" opacity="0.102">
	</g>
	<g id="Rectangle_xA0_Image_7_" display="inline" opacity="0.102">
	</g>
	<g id="Rectangle_xA0_Image_5_" display="inline" opacity="0.102">
	</g>
	<g id="Rectangle_xA0_Image_3_" display="inline" opacity="0.102">
	</g>
	<g id="Rectangle_xA0_Image_1_" display="inline" opacity="0.102">
	</g>
</g>
<g id="Bg">
</g>
<g id="main">
	<g id="Progress">
	</g>
	<g id="Text">
	</g>
</g>
<g id="pane">
</g>
<g>
	<path fill="#422009" stroke="#422009" stroke-width="3" stroke-miterlimit="10" d="M104.259,70.953
		c6.104-8.296,21.058-24.495,32.964-14.593c3.596,2.992,5.864,8.285,8.184,12.429c1.261,2.253,2.562,4.084,2.976,6.844
		c0.716,4.761,1.068,19.415-3.276,21.974c-0.035,7.74-13.09,16.415-19.405,10.363c-1.958-1.874-2.216-4.645-4.698-6.458
		c-1.434-1.046-4.252-1.43-6.095-1.802c-4.304-0.87-10.771,0.854-14.496-1.806c-7.524-5.375,0.854-19.786,4.614-25.257
		c1.928-2.806,3.951-5.999,6.211-8.464c1.762-1.918,4.604-3.311,5.902-6.106"/>
	<ellipse fill="#FCFCFC" stroke="#020200" stroke-miterlimit="10" cx="61.375" cy="81" rx="16" ry="15"/>
	<ellipse fill="#020200" stroke="#020200" stroke-width="0.5477" stroke-miterlimit="10" cx="61.375" cy="81" rx="9" ry="8"/>
	<ellipse fill="#FCFCFC" stroke="#020200" stroke-miterlimit="10" cx="126.375" cy="80" rx="16" ry="15"/>
	<ellipse fill="#020200" stroke="#020200" stroke-width="0.5477" stroke-miterlimit="10" cx="126.375" cy="80" rx="9" ry="8"/>
</g>
<g>
	<g>
		<polygon fill="#020200" stroke="#000000" stroke-width="8.1774" stroke-miterlimit="10" points="98.074,81.169 142.834,51.333 
			101.736,85.076 		"/>
	</g>
	<g>
		<polygon fill="#020200" stroke="#000000" stroke-width="8.1774" stroke-miterlimit="10" points="76.652,78.751 42.667,51.333 
			80.229,74.78 		"/>
	</g>
</g>
</svg>
