<?xml version="1.0" encoding="utf-8"?>
<!-- Generator: Adobe Illustrator 16.0.0, SVG Export Plug-In . SVG Version: 6.00 Build 0)  -->
<!DOCTYPE svg PUBLIC "-//W3C//DTD SVG 1.1//EN" "http://www.w3.org/Graphics/SVG/1.1/DTD/svg11.dtd">
<svg version="1.1" id="Layer_1" xmlns="http://www.w3.org/2000/svg" xmlns:xlink="http://www.w3.org/1999/xlink" x="0px" y="0px"
	 width="200px" height="225px" viewBox="0 0 200 225" enable-background="new 0 0 200 225" xml:space="preserve">
<g>
	<path fill="#F9DEFC" stroke="#000000" stroke-miterlimit="10" d="M57.25,119.75c3.101-4.918,15.123-9.038,20.75-10.5
		c6.054-1.573,18.826-2.001,25-1c5.152,0.836,15.478,3.392,20,6c2.073,1.195,6.142,4.129,7.25,6.25
		c0.988,1.891,1.069,6.391,0.75,8.5c-0.402,2.653-3.111,7.594-5,9.5c-1.818,1.834-7.045,3.791-9.627,3.751
		c-1.596-0.024-5.873-2.501-5.873-2.501s-0.205-3.194-1-3.75c-2.264-1.582-11,1-11,1l-10,1.75l-8,1.25c0,0-1.923-0.771-2.5-0.5
		c-0.401,0.188-0.846,1.559-0.846,1.559s-5.727,1.389-7.654,1.191c-2.336-0.239-6.688-2.506-8.5-4
		c-1.753-1.446-4.077-5.58-4.75-7.75C55.45,127.922,55.811,122.033,57.25,119.75z"/>
	<line fill="#F9DEFC" stroke="#000000" stroke-miterlimit="10" x1="80.5" y1="140" x2="110.5" y2="139.75"/>
	<line fill="#F9DEFC" stroke="#000000" stroke-miterlimit="10" x1="106.5" y1="135.5" x2="106.5" y2="139.5"/>
	<line fill="#F9DEFC" stroke="#000000" stroke-width="0.9354" stroke-miterlimit="10" x1="102.5" y1="136" x2="102.5" y2="139.5"/>
	
		<line fill="#F9DEFC" stroke="#000000" stroke-width="0.9186" stroke-miterlimit="10" x1="98.5" y1="136.5" x2="98.5" y2="139.875"/>
	<line fill="#F9DEFC" stroke="#000000" stroke-width="0.7906" stroke-miterlimit="10" x1="94.5" y1="137.5" x2="94.5" y2="140"/>
</g>
<g id="Ext">
</g>
<g id="Guides">
</g>
<g id="_x31_2_Col_Grid_1_" display="none" enable-background="new    ">
	<g id="Rectangle_xA0_Image_23_" display="inline" opacity="0.102">
	</g>
	<g id="Rectangle_xA0_Image_21_" display="inline" opacity="0.102">
	</g>
	<g id="Rectangle_xA0_Image_19_" display="inline" opacity="0.102">
	</g>
	<g id="Rectangle_xA0_Image_17_" display="inline" opacity="0.102">
	</g>
	<g id="Rectangle_xA0_Image_15_" display="inline" opacity="0.102">
	</g>
	<g id="Rectangle_xA0_Image_13_" display="inline" opacity="0.102">
	</g>
	<g id="Rectangle_xA0_Image_11_" display="inline" opacity="0.102">
	</g>
	<g id="Rectangle_xA0_Image_9_" display="inline" opacity="0.102">
	</g>
	<g id="Rectangle_xA0_Image_7_" display="inline" opacity="0.102">
	</g>
	<g id="Rectangle_xA0_Image_5_" display="inline" opacity="0.102">
	</g>
	<g id="Rectangle_xA0_Image_3_" display="inline" opacity="0.102">
	</g>
	<g id="Rectangle_xA0_Image_1_" display="inline" opacity="0.102">
	</g>
</g>
<g id="Bg">
</g>
<g id="main">
	<g id="Progress">
	</g>
	<g id="Text">
	</g>
</g>
<g id="pane">
</g>
<path fill="#020202" stroke="#020200" stroke-width="1.7652" stroke-miterlimit="10" d="M75.241,135.447
	c-1.959,1.945-6.476,0.574-10.084-3.062c-3.604-3.635-4.942-8.159-2.982-10.104c1.962-1.945,6.476-0.575,10.083,3.061
	C75.866,128.979,77.201,133.504,75.241,135.447z"/>
<ellipse transform="matrix(0.8587 0.5125 -0.5125 0.8587 82.8814 -43.8554)" fill="#020202" stroke="#020200" stroke-width="1.7652" stroke-miterlimit="10" cx="120.966" cy="128.366" rx="5" ry="9.275"/>
</svg>
