<?xml version="1.0" encoding="utf-8"?>
<!-- Generator: Adobe Illustrator 16.0.0, SVG Export Plug-In . SVG Version: 6.00 Build 0)  -->
<!DOCTYPE svg PUBLIC "-//W3C//DTD SVG 1.1//EN" "http://www.w3.org/Graphics/SVG/1.1/DTD/svg11.dtd">
<svg version="1.1" xmlns="http://www.w3.org/2000/svg" xmlns:xlink="http://www.w3.org/1999/xlink" x="0px" y="0px" width="200px"
	 height="225px" viewBox="0 0 200 225" enable-background="new 0 0 200 225" xml:space="preserve">
<g id="Ext">
</g>
<g id="Guides">
</g>
<g id="_x31_2_Col_Grid_1_" display="none" enable-background="new    ">
	<g id="Rectangle_xA0_Image_23_" display="inline" opacity="0.102">
	</g>
	<g id="Rectangle_xA0_Image_21_" display="inline" opacity="0.102">
	</g>
	<g id="Rectangle_xA0_Image_19_" display="inline" opacity="0.102">
	</g>
	<g id="Rectangle_xA0_Image_17_" display="inline" opacity="0.102">
	</g>
	<g id="Rectangle_xA0_Image_15_" display="inline" opacity="0.102">
	</g>
	<g id="Rectangle_xA0_Image_13_" display="inline" opacity="0.102">
	</g>
	<g id="Rectangle_xA0_Image_11_" display="inline" opacity="0.102">
	</g>
	<g id="Rectangle_xA0_Image_9_" display="inline" opacity="0.102">
	</g>
	<g id="Rectangle_xA0_Image_7_" display="inline" opacity="0.102">
	</g>
	<g id="Rectangle_xA0_Image_5_" display="inline" opacity="0.102">
	</g>
	<g id="Rectangle_xA0_Image_3_" display="inline" opacity="0.102">
	</g>
	<g id="Rectangle_xA0_Image_1_" display="inline" opacity="0.102">
	</g>
</g>
<g id="Bg">
</g>
<g id="main">
	<g id="Progress">
	</g>
	<g id="Text">
	</g>
</g>
<g id="pane">
</g>
<g id="browserhead">
	<g>
		<g>
			<path fill="#231105" d="M72.241,24.334c0.266,1.163,0.135,2.239-0.389,3.229c-6.269-1.108-7.752,0.167-12.812-3.679
				c-4.054-3.081-7.192-6.966-8.688-11.2c-0.006,5.699-0.094,9.141,3.108,13.68c2.491,3.53,5.903,7.354,10.089,8.637
				c3.025-2.057,6.074-6.169,8.261-8.521"/>
			<path fill="#473733" d="M72.314,24.323l0.133,0.819c0.01,0.281-0.002,0.568-0.004,0.854c-0.043,0.279-0.106,0.556-0.16,0.835
				l-0.316,0.791l-0.033,0.081l-0.104-0.014l-1.727-0.228c-0.573-0.088-1.156-0.109-1.732-0.167
				c-1.157-0.094-2.324-0.156-3.498-0.322c-0.574-0.146-1.18-0.193-1.731-0.434l-0.845-0.306c-0.279-0.107-0.53-0.268-0.797-0.398
				l-0.791-0.417c-0.258-0.146-0.494-0.324-0.742-0.484c-0.484-0.341-0.993-0.635-1.458-1.017c-0.926-0.694-1.819-1.472-2.691-2.283
				l-1.245-1.263l-1.16-1.345l-1.066-1.425l-0.961-1.504l-0.839-1.581l-0.698-1.654l1.041-0.178
				c0.013,1.158,0.026,2.316,0.068,3.462c0.006,0.577,0.074,1.138,0.109,1.707c0.025,0.571,0.149,1.116,0.218,1.675
				c0.073,0.558,0.253,1.084,0.37,1.626c0.148,0.534,0.375,1.041,0.557,1.562c0.223,0.505,0.498,0.989,0.742,1.484
				c0.273,0.481,0.606,0.937,0.9,1.409c0.269,0.446,0.673,0.924,1.002,1.384c0.346,0.469,0.713,0.879,1.062,1.325
				c0.35,0.441,0.738,0.854,1.105,1.283c0.376,0.423,0.789,0.804,1.18,1.208c0.4,0.395,0.844,0.734,1.253,1.117
				c0.425,0.362,0.888,0.668,1.329,1.007c0.46,0.309,0.95,0.561,1.425,0.847c0.497,0.231,1.011,0.425,1.517,0.644l-0.516,0.078
				c0.384-0.281,0.773-0.553,1.155-0.841l1.115-0.93c0.724-0.654,1.433-1.332,2.119-2.04l2.056-2.142
				c0.686-0.718,1.377-1.437,2.101-2.12l0.107,0.1c-1.237,1.548-2.39,3.164-3.673,4.694c-0.638,0.769-1.305,1.518-1.998,2.252
				l-1.098,1.058c-0.395,0.327-0.804,0.643-1.207,0.965l-0.23,0.184l-0.285-0.105c-0.57-0.211-1.154-0.403-1.717-0.638
				c-0.533-0.285-1.09-0.544-1.606-0.857c-0.495-0.342-1.018-0.656-1.492-1.025c-0.462-0.381-0.94-0.752-1.372-1.164
				c-0.422-0.422-0.867-0.825-1.268-1.265c-0.394-0.446-0.806-0.873-1.184-1.336c-0.365-0.466-0.754-0.938-1.091-1.407
				c-0.337-0.488-0.683-0.902-1.011-1.451c-0.312-0.516-0.652-1.012-0.932-1.547c-0.254-0.551-0.535-1.089-0.762-1.65
				c-0.185-0.579-0.412-1.146-0.557-1.733c-0.113-0.593-0.285-1.18-0.346-1.775c-0.057-0.594-0.168-1.19-0.176-1.78
				c-0.018-0.59-0.07-1.185-0.062-1.768c-0.014-1.174,0.002-2.335,0.018-3.495l0.038-2.728l1.003,2.549l0.623,1.581l0.761,1.524
				l0.884,1.463l0.993,1.397l1.09,1.328l1.178,1.256l1.245,1.178c0.422,0.389,0.891,0.746,1.331,1.124
				c0.425,0.374,0.919,0.682,1.375,1.026c0.235,0.164,0.461,0.347,0.704,0.495l0.742,0.422c0.25,0.134,0.488,0.299,0.75,0.408
				l0.788,0.314c0.515,0.248,1.091,0.309,1.638,0.469c1.127,0.198,2.287,0.3,3.447,0.432c0.58,0.078,1.162,0.119,1.738,0.227
				l1.73,0.286l-0.137,0.066l0.325-0.739c0.059-0.263,0.128-0.524,0.18-0.789c0.009-0.268,0.03-0.535,0.031-0.806l-0.106-0.823
				L72.314,24.323z"/>
		</g>
		<g>
			<path fill="#231105" d="M122.507,24.334c-0.266,1.163-0.135,2.239,0.39,3.229c6.27-1.108,7.752,0.167,12.812-3.679
				c4.054-3.081,7.192-6.966,8.688-11.2c0.006,5.699,0.095,9.141-3.109,13.68c-2.49,3.53-5.902,7.354-10.088,8.637
				c-3.025-2.057-6.075-6.169-8.261-8.521"/>
			<path fill="#473733" d="M122.58,24.345l-0.106,0.823c0.001,0.271,0.022,0.538,0.031,0.806c0.052,0.265,0.122,0.526,0.181,0.789
				l0.324,0.739l-0.136-0.066l1.729-0.286c0.576-0.107,1.159-0.148,1.738-0.227c1.162-0.132,2.32-0.233,3.449-0.432
				c0.546-0.16,1.122-0.221,1.637-0.469l0.789-0.314c0.261-0.109,0.499-0.274,0.75-0.408l0.742-0.422
				c0.242-0.148,0.469-0.331,0.703-0.495c0.457-0.345,0.951-0.652,1.375-1.026c0.44-0.378,0.909-0.735,1.331-1.124l1.245-1.178
				l1.178-1.256l1.09-1.328l0.993-1.397l0.884-1.463l0.762-1.524l0.621-1.581l1.004-2.549l0.038,2.728
				c0.017,1.16,0.031,2.321,0.018,3.495c0.008,0.583-0.044,1.178-0.062,1.768c-0.008,0.59-0.119,1.187-0.175,1.78
				c-0.061,0.596-0.233,1.183-0.348,1.775c-0.143,0.588-0.371,1.154-0.557,1.733c-0.226,0.562-0.508,1.1-0.762,1.65
				c-0.279,0.535-0.619,1.031-0.932,1.546c-0.328,0.549-0.674,0.964-1.01,1.452c-0.337,0.47-0.725,0.941-1.092,1.407
				c-0.377,0.463-0.789,0.89-1.183,1.336c-0.401,0.439-0.847,0.843-1.267,1.265c-0.432,0.412-0.91,0.783-1.373,1.164
				c-0.475,0.369-0.996,0.684-1.492,1.025c-0.518,0.313-1.072,0.572-1.606,0.857c-0.563,0.234-1.146,0.427-1.717,0.638l-0.286,0.105
				l-0.229-0.184c-0.403-0.322-0.813-0.638-1.208-0.965l-1.097-1.058c-0.692-0.734-1.36-1.483-1.998-2.252
				c-1.283-1.53-2.436-3.146-3.673-4.694l0.107-0.1c0.724,0.685,1.415,1.402,2.1,2.12l2.057,2.143
				c0.688,0.707,1.396,1.385,2.119,2.039l1.115,0.93c0.382,0.288,0.771,0.56,1.154,0.841l-0.514-0.078
				c0.506-0.219,1.019-0.412,1.516-0.644c0.475-0.286,0.965-0.538,1.424-0.847c0.443-0.339,0.906-0.645,1.33-1.007
				c0.41-0.383,0.852-0.723,1.252-1.117c0.393-0.404,0.805-0.785,1.18-1.208c0.367-0.429,0.758-0.842,1.107-1.283
				c0.348-0.446,0.715-0.857,1.061-1.325c0.33-0.461,0.733-0.938,1.002-1.385c0.295-0.473,0.627-0.927,0.9-1.409
				c0.244-0.495,0.521-0.979,0.744-1.483c0.18-0.521,0.408-1.027,0.555-1.562c0.119-0.542,0.298-1.068,0.371-1.626
				c0.068-0.559,0.193-1.104,0.218-1.675c0.035-0.569,0.104-1.13,0.109-1.707c0.042-1.146,0.056-2.304,0.068-3.462l1.042,0.178
				l-0.699,1.654l-0.838,1.581l-0.961,1.504l-1.067,1.425l-1.161,1.345l-1.244,1.263c-0.871,0.812-1.766,1.589-2.691,2.283
				c-0.465,0.382-0.975,0.676-1.459,1.017c-0.248,0.16-0.482,0.338-0.74,0.484l-0.791,0.417c-0.268,0.131-0.52,0.292-0.799,0.398
				l-0.844,0.306c-0.551,0.24-1.156,0.288-1.732,0.434c-1.172,0.166-2.34,0.229-3.496,0.322c-0.578,0.058-1.16,0.079-1.733,0.167
				l-1.727,0.228l-0.104,0.014l-0.031-0.08l-0.317-0.792c-0.054-0.278-0.117-0.556-0.161-0.835
				c-0.002-0.285-0.014-0.572-0.004-0.853l0.133-0.82L122.58,24.345z"/>
		</g>
		<g>
			<g>
				<path fill="#705750" d="M58.049,31.697c-4.724-2.29-8.507-11.205-13.733-11.377c-3.864-0.126-9.623,6.614-9.401,10.684
					c0.403,7.412,17.894,5.572,20.436,0.979"/>
				<path fill="#473733" d="M58.023,31.74c0,0-0.195-0.108-0.562-0.312c-0.187-0.095-0.408-0.229-0.652-0.418
					c-0.248-0.183-0.547-0.377-0.836-0.645c-1.22-1.003-2.711-2.698-4.468-4.724c-0.891-1.001-1.858-2.088-3.013-3.073
					c-1.143-0.968-2.543-1.866-4.135-1.951c-1.594,0.003-3.072,0.962-4.373,2.072c-1.303,1.125-2.416,2.52-3.302,4.017
					c-0.426,0.758-0.81,1.545-1.036,2.36c-0.246,0.822-0.364,1.615-0.193,2.433c0.145,0.735,0.548,1.432,1.117,1.955
					c0.568,0.531,1.283,0.909,2.023,1.188c1.48,0.586,3.072,0.776,4.566,0.863c1.502,0.085,2.938-0.014,4.246-0.188
					c1.307-0.183,2.5-0.422,3.527-0.74c1.025-0.316,1.89-0.686,2.561-1.059c0.667-0.379,1.141-0.764,1.416-1.067
					c0.276-0.303,0.396-0.492,0.396-0.492l0.088,0.049c0,0-0.028,0.049-0.085,0.144c-0.062,0.09-0.123,0.25-0.264,0.412
					c-0.248,0.354-0.71,0.792-1.364,1.253c-0.655,0.461-1.522,0.912-2.562,1.302c-1.039,0.389-2.244,0.75-3.59,0.983
					c-1.346,0.232-2.824,0.392-4.4,0.364c-1.572-0.019-3.252-0.233-4.914-0.853c-0.822-0.325-1.643-0.769-2.334-1.431
					c-0.693-0.656-1.201-1.555-1.361-2.561c-0.02-0.239-0.063-0.393-0.064-0.703l0.034-0.729c0.087-0.467,0.16-0.942,0.325-1.38
					c0.277-0.898,0.708-1.723,1.18-2.512c0.969-1.561,2.152-2.979,3.543-4.133c0.691-0.581,1.441-1.087,2.239-1.496
					c0.797-0.378,1.733-0.673,2.606-0.632c1.807,0.141,3.271,1.148,4.42,2.175c1.159,1.049,2.102,2.172,2.968,3.2
					c1.704,2.081,3.134,3.799,4.312,4.825c0.28,0.273,0.564,0.469,0.802,0.654c0.232,0.192,0.449,0.332,0.635,0.433
					c0.361,0.214,0.555,0.329,0.555,0.329L58.023,31.74z"/>
			</g>
			<g>
				<path fill="#705750" d="M37.837,27.693c6.31-5.959,8.28-0.351,14.436,2.295"/>
				<path fill="#473733" d="M37.805,27.655c0,0,0.187-0.179,0.514-0.492c0.164-0.156,0.363-0.346,0.592-0.563
					c0.254-0.197,0.54-0.419,0.852-0.662c0.314-0.243,0.706-0.431,1.098-0.672c0.432-0.158,0.877-0.392,1.396-0.441
					c0.256-0.044,0.516-0.098,0.784-0.07c0.267,0.016,0.546-0.009,0.808,0.067c0.543,0.088,1.059,0.28,1.557,0.497
					c1.982,0.913,3.562,2.221,4.791,3.126c0.613,0.456,1.137,0.827,1.512,1.08c0.375,0.254,0.585,0.418,0.585,0.418l-0.039,0.092
					c0,0-0.257-0.058-0.698-0.193c-0.224-0.063-0.498-0.141-0.788-0.276c-0.292-0.131-0.642-0.252-0.989-0.438
					c-0.709-0.353-1.496-0.841-2.291-1.393c-0.386-0.286-0.785-0.582-1.19-0.882c-0.402-0.296-0.818-0.572-1.247-0.818
					c-0.436-0.228-0.881-0.431-1.34-0.539c-0.227-0.087-0.461-0.075-0.69-0.108c-0.23-0.044-0.458-0.011-0.685,0.012
					c-0.458,0.002-0.874,0.199-1.287,0.3c-0.383,0.19-0.774,0.33-1.094,0.533c-0.323,0.204-0.619,0.391-0.881,0.557
					c-0.248,0.194-0.465,0.363-0.644,0.503c-0.356,0.28-0.56,0.44-0.56,0.44L37.805,27.655z"/>
			</g>
		</g>
		<g>
			<path fill="#705750" d="M136.967,32.396c4.058-3.328,5.657-12.88,10.701-14.266c3.729-1.023,10.9,4.188,11.635,8.196
				c1.336,7.302-16.102,9.592-19.646,5.719"/>
			<path fill="#473733" d="M136.933,32.36c0,0,0.161-0.156,0.462-0.449c0.156-0.141,0.335-0.327,0.516-0.568
				c0.188-0.236,0.419-0.492,0.627-0.824c0.906-1.272,1.896-3.277,3.068-5.697c0.603-1.203,1.258-2.515,2.141-3.805
				c0.877-1.266,2.067-2.587,3.792-3.145c0.839-0.243,1.818-0.176,2.682,0.007c0.872,0.212,1.719,0.528,2.526,0.933
				c1.621,0.798,3.104,1.901,4.409,3.193c0.643,0.657,1.253,1.358,1.733,2.167c0.262,0.387,0.444,0.832,0.638,1.266l0.202,0.7
				c0.072,0.303,0.065,0.462,0.102,0.7c0.08,1.016-0.205,2.007-0.727,2.807c-0.519,0.805-1.213,1.428-1.936,1.935
				c-1.473,0.99-3.057,1.591-4.582,1.976c-1.525,0.395-3,0.584-4.363,0.672c-1.363,0.086-2.619,0.017-3.72-0.119
				c-1.102-0.137-2.05-0.373-2.795-0.669c-0.744-0.295-1.295-0.614-1.619-0.899c-0.175-0.125-0.271-0.267-0.353-0.339
				c-0.076-0.079-0.116-0.12-0.116-0.12l0.074-0.068c-0.001,0.001,0.16,0.157,0.499,0.387c0.34,0.231,0.889,0.494,1.627,0.707
				c0.739,0.207,1.666,0.364,2.736,0.433c1.072,0.069,2.289,0.024,3.604-0.104c1.312-0.135,2.73-0.373,4.172-0.806
				c1.434-0.434,2.937-0.99,4.24-1.904c0.654-0.444,1.262-0.979,1.69-1.628c0.433-0.642,0.663-1.413,0.632-2.161
				c-0.024-0.835-0.326-1.578-0.756-2.32c-0.411-0.74-0.967-1.417-1.559-2.054c-1.211-1.25-2.617-2.346-4.146-3.137
				c-1.524-0.776-3.186-1.364-4.736-0.996c-1.529,0.454-2.681,1.653-3.567,2.861c-0.892,1.228-1.58,2.51-2.212,3.69
				c-1.236,2.38-2.291,4.376-3.243,5.637c-0.219,0.327-0.464,0.586-0.662,0.821c-0.193,0.241-0.378,0.423-0.538,0.559
				c-0.309,0.284-0.474,0.436-0.474,0.436L136.933,32.36z"/>
		</g>
		<g>
			<path fill="#705750" d="M155.688,23.79c-7.525-4.323-8.134,1.59-13.502,5.598"/>
			<path fill="#473733" d="M155.664,23.834c0,0-0.234-0.107-0.646-0.297c-0.205-0.095-0.455-0.209-0.742-0.34
				c-0.293-0.1-0.625-0.213-0.986-0.336c-0.358-0.122-0.771-0.167-1.188-0.263c-0.425-0.001-0.876-0.097-1.321,0.009
				c-0.225,0.03-0.454,0.052-0.668,0.147c-0.216,0.086-0.447,0.129-0.646,0.267c-0.422,0.213-0.807,0.514-1.177,0.836
				c-0.36,0.34-0.7,0.706-1.022,1.087c-0.324,0.387-0.643,0.768-0.952,1.135c-0.644,0.723-1.296,1.381-1.902,1.889
				c-0.295,0.263-0.607,0.461-0.86,0.657c-0.25,0.199-0.499,0.338-0.701,0.452c-0.398,0.234-0.635,0.351-0.635,0.351l-0.059-0.08
				c0,0,0.166-0.209,0.471-0.543c0.306-0.333,0.729-0.816,1.219-1.403c0.982-1.167,2.215-2.806,3.929-4.156
				c0.434-0.327,0.892-0.634,1.398-0.846c0.237-0.136,0.515-0.177,0.77-0.255c0.255-0.089,0.521-0.098,0.778-0.113
				c0.518-0.073,1.004,0.05,1.461,0.104c0.438,0.143,0.862,0.233,1.225,0.397c0.359,0.163,0.689,0.312,0.982,0.445
				c0.272,0.158,0.511,0.296,0.707,0.409c0.391,0.229,0.615,0.359,0.615,0.359L155.664,23.834z"/>
		</g>
	</g>
</g>
</svg>
