<?xml version="1.0" encoding="utf-8"?>
<!-- Generator: Adobe Illustrator 16.0.0, SVG Export Plug-In . SVG Version: 6.00 Build 0)  -->
<!DOCTYPE svg PUBLIC "-//W3C//DTD SVG 1.1//EN" "http://www.w3.org/Graphics/SVG/1.1/DTD/svg11.dtd">
<svg version="1.1" xmlns="http://www.w3.org/2000/svg" xmlns:xlink="http://www.w3.org/1999/xlink" x="0px" y="0px" width="200px"
	 height="225px" viewBox="0 0 200 225" enable-background="new 0 0 200 225" xml:space="preserve">
<g id="Ext">
</g>
<g id="Guides">
</g>
<g id="_x31_2_Col_Grid_1_" display="none" enable-background="new    ">
	<g id="Rectangle_xA0_Image_23_" display="inline" opacity="0.102">
	</g>
	<g id="Rectangle_xA0_Image_21_" display="inline" opacity="0.102">
	</g>
	<g id="Rectangle_xA0_Image_19_" display="inline" opacity="0.102">
	</g>
	<g id="Rectangle_xA0_Image_17_" display="inline" opacity="0.102">
	</g>
	<g id="Rectangle_xA0_Image_15_" display="inline" opacity="0.102">
	</g>
	<g id="Rectangle_xA0_Image_13_" display="inline" opacity="0.102">
	</g>
	<g id="Rectangle_xA0_Image_11_" display="inline" opacity="0.102">
	</g>
	<g id="Rectangle_xA0_Image_9_" display="inline" opacity="0.102">
	</g>
	<g id="Rectangle_xA0_Image_7_" display="inline" opacity="0.102">
	</g>
	<g id="Rectangle_xA0_Image_5_" display="inline" opacity="0.102">
	</g>
	<g id="Rectangle_xA0_Image_3_" display="inline" opacity="0.102">
	</g>
	<g id="Rectangle_xA0_Image_1_" display="inline" opacity="0.102">
	</g>
</g>
<g id="Bg">
</g>
<g id="main">
	<g id="Progress">
	</g>
	<g id="Text">
	</g>
</g>
<g id="pane">
</g>
<g id="browserhead">
	<g>
		<path fill="#F9DEFC" stroke="#020200" stroke-width="0.8796" stroke-miterlimit="10" d="M111.104,147.54
			c-4.132-1.386-9.383-2.22-15.105-2.22c-5.725,0-10.976,0.834-15.106,2.22c-1.889-0.794-3.54-1.73-4.893-2.782
			c4.313-2.676,11.662-4.438,19.999-4.438c8.336,0,15.681,1.763,20.001,4.438C114.646,145.811,112.995,146.747,111.104,147.54z"/>
		<g>
			<g>
				<path fill="#F9DEFC" d="M133.375,124.5c0-3.634-2.373-7.008-6.436-9.805c-0.168-0.117-0.34-0.227-0.515-0.337
					c-6.798-4.452-17.942-7.358-30.55-7.358c-12.603,0-23.743,2.904-30.543,7.353c-0.178,0.113-0.356,0.226-0.528,0.347
					c-4.058,2.796-6.429,6.169-6.429,9.801c0,0.353,0.03,0.703,0.072,1.051c-0.045,0.478-0.072,0.96-0.072,1.449
					c0,8.284,6.716,15,15,15c2.055,0,3.998-0.443,5.779-1.193c2.204-5.101,8.857-8.807,16.723-8.807
					c7.863,0,14.515,3.707,16.72,8.807c1.78,0.751,3.724,1.193,5.778,1.193c8.282,0,15-6.716,15-15c0-0.488-0.029-0.969-0.074-1.445
					C133.346,125.206,133.375,124.854,133.375,124.5z"/>
				<path fill="#020200" d="M133.197,124.502c0.002-1.898-0.625-3.698-1.676-5.251c-1.047-1.56-2.426-2.842-3.92-3.966
					c-0.734-0.593-1.526-1.064-2.35-1.521c-0.82-0.459-1.609-0.97-2.48-1.32c-0.859-0.375-1.695-0.798-2.569-1.134l-2.65-0.945
					c-0.882-0.323-1.802-0.52-2.702-0.784c-0.903-0.257-1.807-0.504-2.732-0.668l-2.758-0.563l-2.787-0.396
					c-1.852-0.313-3.732-0.366-5.6-0.542c-1.869-0.08-3.756-0.125-5.617-0.117l-2.82,0.101l-1.408,0.053l-1.398,0.128l-2.793,0.253
					l-2.779,0.411c-1.861,0.226-3.674,0.713-5.506,1.082l-2.699,0.763c-0.447,0.135-0.902,0.245-1.344,0.398l-1.314,0.482
					c-1.775,0.588-3.453,1.403-5.133,2.204l-2.404,1.406c-0.203,0.111-0.389,0.242-0.588,0.373
					c-0.166,0.102-0.371,0.271-0.555,0.404c-0.37,0.285-0.764,0.558-1.115,0.854c-1.4,1.155-2.666,2.547-3.535,4.127
					c-0.879,1.59-1.281,3.361-1.059,5.189l-0.002,0.072c-0.006,0.621-0.107,1.258-0.041,1.864l0.053,0.966
					c0.033,0.313,0.094,0.609,0.137,0.915c0.066,0.608,0.264,1.21,0.412,1.814c0.197,0.591,0.4,1.184,0.662,1.749
					c0.27,0.562,0.535,1.127,0.883,1.646c0.305,0.547,0.703,1.028,1.074,1.528c0.404,0.471,0.816,0.944,1.271,1.367
					c0.459,0.421,0.92,0.84,1.436,1.191c0.484,0.394,1.038,0.684,1.566,1.011c0.553,0.278,1.107,0.569,1.689,0.784
					c0.582,0.216,1.165,0.432,1.773,0.559c0.598,0.18,1.217,0.243,1.83,0.338c0.604,0.073,1.264,0.083,1.832,0.097
					c0.633-0.053,1.316-0.035,1.893-0.166l0.896-0.149l0.898-0.242c0.605-0.132,1.168-0.414,1.757-0.607l-0.315,0.312
					c0.373-0.796,0.795-1.569,1.324-2.262c0.261-0.35,0.527-0.694,0.83-1.006c0.283-0.33,0.594-0.631,0.916-0.92
					c0.631-0.591,1.324-1.109,2.04-1.583c0.718-0.473,1.47-0.89,2.241-1.256c0.773-0.365,1.568-0.687,2.379-0.95
					c0.811-0.268,1.633-0.499,2.469-0.663c0.83-0.188,1.676-0.303,2.521-0.394c0.846-0.095,1.695-0.118,2.547-0.137
					c0.861,0.02,1.664,0.04,2.541,0.136c0.854,0.088,1.692,0.206,2.523,0.403c0.834,0.171,1.654,0.409,2.46,0.683
					c0.808,0.271,1.599,0.598,2.366,0.968c0.768,0.372,1.514,0.793,2.225,1.271c0.71,0.477,1.395,0.999,2.017,1.591
					c0.318,0.29,0.624,0.592,0.903,0.921c0.299,0.311,0.557,0.657,0.809,1.008c0.518,0.692,0.922,1.463,1.279,2.251l-0.232-0.229
					c0.59,0.205,1.156,0.495,1.768,0.636l0.907,0.254l0.927,0.164c0.615,0.141,1.246,0.125,1.873,0.185
					c0.598-0.005,1.288-0.012,1.9-0.08c0.617-0.089,1.238-0.146,1.85-0.322c0.622-0.125,1.218-0.338,1.814-0.552
					c0.595-0.214,1.162-0.504,1.729-0.783c0.543-0.327,1.111-0.619,1.61-1.016c0.53-0.354,1.005-0.776,1.479-1.203
					c0.469-0.429,0.896-0.906,1.312-1.388c0.381-0.511,0.791-1.003,1.105-1.561c0.357-0.531,0.631-1.109,0.908-1.685
					c0.27-0.578,0.48-1.186,0.684-1.79c0.155-0.62,0.359-1.23,0.432-1.869c0.048-0.316,0.11-0.632,0.145-0.949l-0.061-0.96
					c0.069-0.64-0.15-1.279-0.15-1.926v-0.005v-0.007L133.197,124.502z M133.25,124.498l-0.25,1.065v-0.012
					c0,0.642,0.307,1.289,0.247,1.937l0.052,0.972c-0.031,0.322-0.043,0.643-0.086,0.964c-0.064,0.647-0.238,1.27-0.387,1.901
					c-0.197,0.616-0.39,1.237-0.654,1.829c-0.274,0.59-0.539,1.183-0.895,1.729c-0.312,0.574-0.718,1.082-1.101,1.609
					c-0.416,0.498-0.833,1.003-1.302,1.454c-0.473,0.451-0.949,0.898-1.481,1.279c-0.503,0.422-1.075,0.74-1.626,1.094
					c-0.576,0.306-1.156,0.623-1.766,0.862c-0.609,0.24-1.223,0.479-1.865,0.627c-0.625,0.2-1.288,0.285-1.945,0.396
					c-0.664,0.09-1.268,0.112-1.957,0.14c-0.656-0.041-1.324-0.009-1.975-0.135l-0.982-0.145l-0.964-0.238
					c-0.651-0.132-1.256-0.414-1.888-0.616l-0.141-0.045l-0.092-0.186c-0.35-0.713-0.74-1.407-1.238-2.033
					c-0.242-0.316-0.49-0.627-0.771-0.912c-0.264-0.301-0.553-0.576-0.855-0.841c-0.588-0.542-1.237-1.02-1.912-1.457
					c-0.676-0.437-1.385-0.821-2.116-1.16c-0.731-0.338-1.485-0.635-2.255-0.877c-0.769-0.247-1.551-0.46-2.346-0.607
					c-0.788-0.171-1.6-0.274-2.395-0.362c-0.774-0.089-1.631-0.112-2.428-0.132c-0.811,0.02-1.621,0.04-2.426,0.131
					c-0.805,0.085-1.609,0.193-2.396,0.372c-0.793,0.154-1.573,0.374-2.338,0.627c-0.768,0.249-1.518,0.552-2.244,0.895
					c-0.727,0.344-1.43,0.733-2.098,1.174s-1.311,0.922-1.891,1.465c-0.297,0.266-0.582,0.541-0.84,0.842
					c-0.278,0.284-0.518,0.598-0.754,0.914c-0.482,0.626-0.855,1.318-1.189,2.024l-0.115,0.245l-0.201,0.067
					c-0.633,0.214-1.242,0.502-1.898,0.643l-0.973,0.251l-1.014,0.159c-0.689,0.136-1.307,0.105-1.959,0.154
					c-0.717-0.018-1.352-0.038-2.025-0.122c-0.66-0.106-1.326-0.185-1.967-0.382c-0.654-0.146-1.28-0.381-1.904-0.62
					c-0.623-0.237-1.216-0.555-1.807-0.86c-0.566-0.354-1.154-0.675-1.672-1.1c-0.547-0.383-1.039-0.835-1.525-1.291
					c-0.482-0.458-0.918-0.967-1.346-1.477c-0.394-0.537-0.812-1.057-1.135-1.643c-0.364-0.559-0.643-1.164-0.926-1.768
					c-0.273-0.605-0.484-1.241-0.688-1.872c-0.156-0.648-0.357-1.279-0.429-1.957c-0.046-0.333-0.108-0.671-0.138-0.999
					l-0.045-0.966c-0.064-0.681,0.043-1.332,0.059-1.999l-0.002,0.072c-0.225-1.917,0.24-3.982,1.207-5.666
					c0.963-1.709,2.287-3.142,3.795-4.365c0.369-0.306,0.754-0.566,1.129-0.853c0.199-0.142,0.355-0.275,0.59-0.423
					c0.194-0.125,0.396-0.265,0.605-0.379l2.479-1.424c1.721-0.807,3.439-1.623,5.246-2.207l1.338-0.48
					c0.447-0.151,0.91-0.261,1.363-0.393l2.738-0.752c1.857-0.36,3.693-0.838,5.574-1.053l2.807-0.394l2.83-0.235
					c1.887-0.212,3.764-0.148,5.646-0.219c1.898,0.02,3.778,0.092,5.664,0.2c1.875,0.204,3.765,0.284,5.623,0.626l2.795,0.439
					l2.764,0.606c0.928,0.178,1.834,0.439,2.737,0.71c0.9,0.28,1.823,0.488,2.704,0.823l2.654,0.981
					c0.875,0.348,1.717,0.784,2.576,1.172c0.875,0.364,1.66,0.884,2.477,1.353c0.814,0.469,1.635,0.947,2.369,1.541
					c1.502,1.129,2.828,2.419,3.885,3.994C132.646,120.734,133.256,122.61,133.25,124.498z"/>
			</g>
			<path fill="#020202" stroke="#020200" stroke-width="1.7652" stroke-miterlimit="10" d="M76.241,137.447
				c-1.959,1.945-6.476,0.574-10.085-3.061c-3.604-3.635-4.941-8.16-2.982-10.105c1.963-1.945,6.477-0.575,10.084,3.061
				C76.866,130.978,78.201,135.504,76.241,137.447z"/>
			
				<ellipse transform="matrix(-0.5124 0.8587 -0.8587 -0.5124 296.4199 92.4376)" fill="#020202" stroke="#020200" stroke-width="1.7652" stroke-miterlimit="10" cx="121.968" cy="130.368" rx="9.274" ry="5"/>
		</g>
	</g>
</g>
</svg>
