<?xml version="1.0" encoding="utf-8"?>
<!-- Generator: Adobe Illustrator 16.0.0, SVG Export Plug-In . SVG Version: 6.00 Build 0)  -->
<!DOCTYPE svg PUBLIC "-//W3C//DTD SVG 1.1//EN" "http://www.w3.org/Graphics/SVG/1.1/DTD/svg11.dtd">
<svg version="1.1" id="Layer_1" xmlns="http://www.w3.org/2000/svg" xmlns:xlink="http://www.w3.org/1999/xlink" x="0px" y="0px"
	 width="200px" height="235px" viewBox="0 0 200 235" enable-background="new 0 0 200 235" xml:space="preserve">
<g id="Ext">
</g>
<g id="Guides">
</g>
<g id="_x31_2_Col_Grid_1_" display="none" enable-background="new    ">
	<g id="Rectangle_xA0_Image_23_" display="inline" opacity="0.102">
	</g>
	<g id="Rectangle_xA0_Image_21_" display="inline" opacity="0.102">
	</g>
	<g id="Rectangle_xA0_Image_19_" display="inline" opacity="0.102">
	</g>
	<g id="Rectangle_xA0_Image_17_" display="inline" opacity="0.102">
	</g>
	<g id="Rectangle_xA0_Image_15_" display="inline" opacity="0.102">
	</g>
	<g id="Rectangle_xA0_Image_13_" display="inline" opacity="0.102">
	</g>
	<g id="Rectangle_xA0_Image_11_" display="inline" opacity="0.102">
	</g>
	<g id="Rectangle_xA0_Image_9_" display="inline" opacity="0.102">
	</g>
	<g id="Rectangle_xA0_Image_7_" display="inline" opacity="0.102">
	</g>
	<g id="Rectangle_xA0_Image_5_" display="inline" opacity="0.102">
	</g>
	<g id="Rectangle_xA0_Image_3_" display="inline" opacity="0.102">
	</g>
	<g id="Rectangle_xA0_Image_1_" display="inline" opacity="0.102">
	</g>
</g>
<g id="Bg">
</g>
<g id="main">
	<g id="Progress">
	</g>
	<g id="Text">
	</g>
</g>
<g id="pane">
</g>
<path d="M98.977,142.25c2.759,0,5-4.25,5-8.25h-10C93.977,138,96.215,142.25,98.977,142.25z"/>
<path d="M98.975,142.066c0.215-0.032,0.443-0.021,0.646-0.09c0.208-0.05,0.412-0.109,0.605-0.209
	c0.203-0.076,0.379-0.205,0.562-0.316c0.185-0.113,0.333-0.275,0.498-0.411c0.298-0.313,0.569-0.647,0.798-1.013
	c0.229-0.364,0.402-0.76,0.561-1.156c0.306-0.801,0.498-1.637,0.59-2.479c0.096-0.844,0.102-1.689,0.039-2.525l0.703,0.703
	c-0.834,0.08-1.666,0.103-2.5,0.146c-0.834,0.03-1.667,0.034-2.5,0.049c-0.834-0.019-1.666-0.017-2.5-0.053
	c-0.834-0.043-1.666-0.068-2.5-0.148l0.698-0.697c-0.063,0.836-0.057,1.683,0.038,2.525c0.094,0.844,0.287,1.682,0.593,2.48
	c0.157,0.396,0.331,0.793,0.562,1.156c0.229,0.365,0.5,0.697,0.798,1.012c0.165,0.136,0.315,0.297,0.498,0.41
	c0.184,0.111,0.36,0.24,0.562,0.316c0.193,0.1,0.399,0.159,0.61,0.211C98.542,142.047,98.76,142.034,98.975,142.066z
	 M98.979,142.166c-0.221-0.027-0.451-0.012-0.666-0.077c-0.22-0.048-0.436-0.106-0.637-0.206c-0.417-0.166-0.777-0.438-1.121-0.719
	c-0.324-0.307-0.623-0.637-0.879-0.999c-0.256-0.363-0.479-0.748-0.674-1.146c-0.388-0.799-0.61-1.647-0.783-2.517
	c-0.176-0.868-0.219-1.752-0.219-2.638V134h-0.023c3.334,0,6.666,0,10,0H104v-0.134c0,0.886-0.064,1.77-0.242,2.638
	c-0.173,0.868-0.436,1.719-0.822,2.516c-0.194,0.397-0.41,0.782-0.666,1.146c-0.256,0.362-0.551,0.694-0.875,1
	c-0.344,0.28-0.701,0.553-1.119,0.719c-0.201,0.099-0.417,0.158-0.638,0.206C99.419,142.155,99.197,142.139,98.979,142.166z"/>
<path fill="#FFFFFF" stroke="#000000" stroke-width="1.021" stroke-miterlimit="10" d="M77.775,152.673c0,0,7.182-5.692,9.967-6.883
	c2.974-1.271,9.544-1.974,12.777-2.04c3.797-0.076,11.687,0.086,15.08,1.785c2.141,1.07,6.899,6.628,6.899,6.628
	s-0.452,2.165-1.022,2.55c-0.582,0.393-2.812,0-2.812,0s-13.372-10.93-18.146-10.963c-5.744-0.039-19.167,12.492-19.167,12.492
	s-3.908,0.916-4.601,0C76.192,155.501,77.775,152.673,77.775,152.673z"/>
<line fill="none" stroke="#000000" stroke-width="1.0542" stroke-miterlimit="10" x1="92" y1="144.25" x2="92" y2="147.584"/>
<line fill="none" stroke="#000000" stroke-width="1.2583" stroke-miterlimit="10" x1="88" y1="145.667" x2="88" y2="150.417"/>
<line fill="none" stroke="#000000" stroke-width="1.4142" stroke-miterlimit="10" x1="84.5" y1="147.251" x2="84.5" y2="153.251"/>
<line fill="none" stroke="#000000" stroke-miterlimit="10" x1="107.5" y1="144.166" x2="107.5" y2="147.166"/>
<line fill="none" stroke="#000000" stroke-width="1.2911" stroke-miterlimit="10" x1="111" y1="144.25" x2="111" y2="149.251"/>
<line fill="none" stroke="#000000" stroke-width="1.4434" stroke-miterlimit="10" x1="114.583" y1="145.584" x2="114.583" y2="151.834"/>
<line fill="none" stroke="#000000" stroke-width="1.4241" stroke-miterlimit="10" x1="81.083" y1="149.833" x2="81.083" y2="155.917"/>
<line fill="none" stroke="#000000" stroke-width="1.4044" stroke-miterlimit="10" x1="118.417" y1="148.667" x2="118.417" y2="154.584"/>
</svg>
