<?xml version="1.0" encoding="utf-8"?>
<!-- Generator: Adobe Illustrator 16.0.0, SVG Export Plug-In . SVG Version: 6.00 Build 0)  -->
<!DOCTYPE svg PUBLIC "-//W3C//DTD SVG 1.1//EN" "http://www.w3.org/Graphics/SVG/1.1/DTD/svg11.dtd">
<svg version="1.1" id="Layer_1" xmlns="http://www.w3.org/2000/svg" xmlns:xlink="http://www.w3.org/1999/xlink" x="0px" y="0px"
	 width="200px" height="235px" viewBox="0 0 200 235" enable-background="new 0 0 200 235" xml:space="preserve">
<g id="Ext">
</g>
<g id="Guides">
</g>
<g id="_x31_2_Col_Grid_1_" display="none" enable-background="new    ">
	<g id="Rectangle_xA0_Image_23_" display="inline" opacity="0.102">
	</g>
	<g id="Rectangle_xA0_Image_21_" display="inline" opacity="0.102">
	</g>
	<g id="Rectangle_xA0_Image_19_" display="inline" opacity="0.102">
	</g>
	<g id="Rectangle_xA0_Image_17_" display="inline" opacity="0.102">
	</g>
	<g id="Rectangle_xA0_Image_15_" display="inline" opacity="0.102">
	</g>
	<g id="Rectangle_xA0_Image_13_" display="inline" opacity="0.102">
	</g>
	<g id="Rectangle_xA0_Image_11_" display="inline" opacity="0.102">
	</g>
	<g id="Rectangle_xA0_Image_9_" display="inline" opacity="0.102">
	</g>
	<g id="Rectangle_xA0_Image_7_" display="inline" opacity="0.102">
	</g>
	<g id="Rectangle_xA0_Image_5_" display="inline" opacity="0.102">
	</g>
	<g id="Rectangle_xA0_Image_3_" display="inline" opacity="0.102">
	</g>
	<g id="Rectangle_xA0_Image_1_" display="inline" opacity="0.102">
	</g>
</g>
<g id="Bg">
</g>
<g id="main">
	<g id="Progress">
	</g>
	<g id="Text">
	</g>
</g>
<g id="pane">
</g>
<g>
	<g>
		<path fill="#442E24" d="M144.484,198.734c-4.295,2.888-8.856,5.336-13.633,7.3l2.351,9.377c1.007,4.019,5.079,6.458,9.099,5.45
			c4.02-1.006,6.458-5.079,5.451-9.098L144.484,198.734z"/>
		<g>
			<path fill="#231713" d="M144.453,198.812l-3.184,2.082l-3.351,1.959l-3.444,1.787l-3.533,1.611l0.139-0.273l1.469,5.644
				l0.735,2.821c0.233,0.957,0.487,1.857,0.958,2.648c0.917,1.612,2.488,2.83,4.268,3.312c0.887,0.244,1.818,0.312,2.727,0.201
				c0.896-0.106,1.82-0.408,2.591-0.842c1.603-0.875,2.813-2.396,3.356-4.13c0.272-0.868,0.364-1.788,0.299-2.696
				c-0.064-0.891-0.348-1.84-0.555-2.791c-0.449-1.892-0.877-3.789-1.289-5.688C145.214,202.583,144.844,200.693,144.453,198.812z
				 M144.531,198.723c0.55,1.866,1.121,3.729,1.637,5.604c0.534,1.869,1.053,3.744,1.549,5.624c0.235,0.938,0.553,1.854,0.674,2.903
				c0.118,1.023,0.01,2.073-0.287,3.062c-0.582,1.988-2.006,3.706-3.834,4.669c-0.938,0.491-1.903,0.774-2.938,0.882
				c-1.022,0.102-2.062,0-3.043-0.296c-1.962-0.587-3.667-1.957-4.642-3.745c-0.51-0.896-0.763-1.898-0.973-2.828l-0.684-2.836
				l-1.367-5.67l-0.047-0.195l0.186-0.08l3.553-1.516l3.473-1.695l3.382-1.869l3.347-2.073L144.531,198.723z"/>
		</g>
	</g>
	<g>
		<path fill="#442E24" d="M69.206,199.824l-2.993,11.939c-1.007,4.019,1.434,8.092,5.451,9.098c4.017,1.008,8.091-1.432,9.1-5.45
			l2.215-8.838C78.168,204.798,73.562,202.529,69.206,199.824z"/>
		<g>
			<path fill="#231713" d="M69.236,199.9l-2.582,10.875c-0.221,0.91-0.449,1.822-0.438,2.72c0,0.907,0.168,1.813,0.497,2.657
				c0.653,1.689,1.959,3.115,3.588,3.884c1.628,0.776,3.534,0.924,5.232,0.387c1.708-0.522,3.188-1.718,4.06-3.257
				c0.456-0.781,0.693-1.585,0.896-2.521l0.659-2.733c0.433-1.823,0.91-3.636,1.371-5.452l0.295,0.559l-3.564-1.488
				c-1.159-0.562-2.326-1.104-3.475-1.682l-3.363-1.887L69.236,199.9z M69.176,199.755l3.447,1.823l3.445,1.67
				c1.178,0.492,2.337,1.02,3.504,1.525l3.57,1.355l0.396,0.15l-0.101,0.408c-0.449,1.818-0.884,3.643-1.361,5.453l-0.709,2.721
				c-0.209,0.888-0.527,1.899-1.049,2.728c-1.019,1.701-2.691,2.976-4.578,3.519c-1.891,0.556-3.971,0.352-5.709-0.523
				c-1.752-0.868-3.125-2.434-3.789-4.251c-0.336-0.908-0.498-1.88-0.471-2.844c0.016-0.984,0.277-1.901,0.518-2.804L69.176,199.755
				z"/>
		</g>
	</g>
</g>
<g>
	<g>
		<path fill="#442E24" d="M89.062,35.584c-0.645-0.313-1.287-0.625-1.929-0.937c-4.312-1.177-8.156-1.642-12.485-1.337
			c-4.25,0.299-7.095,1.472-12.187-0.268c5.019,2.337,8.6,8.926,12.679,12.184c2.538,2.023,7.986,5.542,12.552,7.424
			C87.43,46.886,87.876,41.167,89.062,35.584z"/>
		<path fill="#231713" d="M89.019,35.572l-1.881-0.933l0.017,0.007l-3.102-0.666l-3.113-0.437l-3.104-0.164l-3.068,0.118
			c-1.007,0.088-2.023,0.215-3.015,0.361c-1.005,0.143-2.02,0.281-3.06,0.34c-0.524,0-1.043,0.063-1.577,0.014
			c-0.529-0.053-1.062-0.029-1.59-0.146c-0.527-0.103-1.066-0.152-1.586-0.303l-1.56-0.44l0.203-0.544l0.938,0.486l0.887,0.558
			c0.569,0.401,1.118,0.823,1.633,1.275c1.032,0.9,1.967,1.878,2.864,2.871c1.793,1.985,3.419,4.072,5.319,5.882
			c0.472,0.447,0.969,0.884,1.487,1.256l1.648,1.184c0.542,0.412,1.123,0.735,1.684,1.104l1.689,1.077
			c0.573,0.348,1.171,0.663,1.754,0.996l1.752,1c1.198,0.602,2.416,1.155,3.621,1.746l-0.693,0.401l0.008-4.348
			c0.093-1.437,0.175-2.875,0.297-4.304l0.614-4.259L89.019,35.572z M89.107,35.586l-0.562,4.254l-0.348,4.255l-0.115,4.284
			l0.134,4.308l0.023,0.732l-0.716-0.334l-1.876-0.873c-0.624-0.298-1.258-0.576-1.869-0.89c-1.197-0.674-2.396-1.342-3.573-2.049
			l-1.73-1.128c-0.568-0.385-1.169-0.74-1.697-1.158l-1.626-1.213c-0.571-0.427-1.08-0.893-1.568-1.373
			c-1.941-1.927-3.523-4.042-5.266-6.019c-0.869-0.99-1.766-1.955-2.745-2.836c-0.488-0.442-1.006-0.849-1.54-1.236l-0.827-0.539
			l-0.868-0.463l-2.529-1.354l2.734,0.811l1.496,0.443c0.499,0.153,1.01,0.205,1.515,0.313c0.505,0.119,1.017,0.102,1.524,0.161
			c0.509,0.056,1.014,0.004,1.522,0.012c1.012-0.044,2.017-0.156,3.024-0.28c1.021-0.128,2.029-0.231,3.061-0.298l3.11-0.052
			l3.134,0.235l3.113,0.546l3.077,0.787l0.008,0.004l0.008,0.004L89.107,35.586z"/>
	</g>
	<g>
		<path fill="#442E24" d="M86.85,34.51c0.094,0.046,0.189,0.092,0.283,0.138c0.624,0.17,1.255,0.355,1.902,0.554L86.85,34.51z"/>
		<path fill="#231713" d="M86.734,34.427l0.137,0.041l0.305,0.092l-0.023-0.008c0.659,0.066,1.317,0.174,1.976,0.284l-0.189,0.732
			c-0.402,0.03-0.766-0.093-1.119-0.253c-0.347-0.177-0.685-0.392-0.984-0.758L86.734,34.427z M86.863,34.464
			c0.43-0.136,0.822-0.119,1.201-0.066c0.377,0.07,0.744,0.179,1.069,0.439l2.177,1.738l-2.366-1.006
			c-0.609-0.26-1.221-0.523-1.829-0.824l-0.023-0.008L86.754,34.5L86.863,34.464z"/>
	</g>
</g>
<g>
	<g>
		<path fill="#442E24" d="M124.098,50.935c3.849-1.621,8.207-4.531,10.27-6.27c3.479-2.932,6.358-9.14,10.716-11.122
			c-4.451,1.394-7.038,0.083-10.836-0.461c-3.867-0.553-7.268-0.326-11.051,0.566c-0.472,0.224-0.945,0.45-1.418,0.676
			C123.195,39.796,123.955,45.361,124.098,50.935z"/>
		<path fill="#231713" d="M124.144,50.859l1.48-0.734c0.512-0.262,1.038-0.499,1.539-0.782l1.478-0.883
			c0.487-0.302,0.995-0.571,1.467-0.9c0.934-0.667,1.921-1.261,2.81-1.985l1.345-1.056c0.434-0.386,0.837-0.789,1.215-1.203
			c1.521-1.7,2.813-3.611,4.259-5.418c0.723-0.903,1.481-1.788,2.331-2.596c0.421-0.409,0.878-0.782,1.351-1.137l0.742-0.492
			l0.79-0.424l0.232,0.605l-1.369,0.359c-0.455,0.125-0.935,0.147-1.4,0.226c-0.468,0.088-0.946,0.042-1.42,0.069
			c-0.476,0.024-0.943-0.058-1.415-0.083c-0.938-0.106-1.854-0.28-2.761-0.459l-1.35-0.258L134.14,33.5l-2.756-0.233l-2.695,0.036
			l-2.702,0.299l-2.679,0.512l0.095-0.034l-1.42,0.667l0.251-0.539l0.879,4.134c0.213,1.393,0.434,2.783,0.625,4.177l0.35,4.203
			L124.144,50.859z M124.058,51.006l-0.396-4.249l-0.573-4.149l-0.771-4.108l-0.952-3.973l-0.052-0.29l0.344-0.165l1.42-0.679
			l0.051-0.024l0.002-0.096l2.729-0.594c0.932-0.112,1.855-0.21,2.788-0.305l2.83-0.002l2.746,0.285l1.399,0.244l1.359,0.289
			c0.898,0.198,1.791,0.386,2.684,0.502c0.447,0.029,0.894,0.116,1.341,0.099c0.446-0.019,0.898,0.036,1.341-0.044
			c0.441-0.068,0.894-0.079,1.33-0.192l1.312-0.32l2.687-0.657l-2.457,1.261l-0.737,0.378l-0.704,0.451
			c-0.453,0.33-0.894,0.678-1.308,1.064c-0.831,0.766-1.59,1.618-2.32,2.5c-1.457,1.765-2.785,3.659-4.378,5.356
			c-0.408,0.427-0.829,0.825-1.266,1.196l-1.392,1.049c-0.915,0.711-1.92,1.285-2.874,1.934c-0.479,0.32-0.998,0.582-1.496,0.875
			l-1.504,0.856c-0.509,0.27-1.039,0.496-1.558,0.747L124.058,51.006z"/>
	</g>
	<g>
		<path fill="#442E24" d="M121.696,34.029c0,0,0.001,0.001,0.003,0.005c0.505-0.139,1.005-0.269,1.497-0.384
			c0.082-0.04,0.165-0.079,0.246-0.118L121.696,34.029z"/>
		<path fill="#231713" d="M121.738,34.008l0.004,0.005l-0.057-0.027c0.471-0.234,0.947-0.466,1.434-0.663l-0.067,0.024l0.228-0.155
			l0.266,0.701c-0.249,0.229-0.543,0.303-0.847,0.34c-0.309,0.022-0.626,0.007-0.988-0.16L121.738,34.008z M121.686,33.982
			c0.221-0.333,0.481-0.512,0.756-0.656c0.278-0.128,0.565-0.219,0.898-0.158l1.614,0.297l-1.35,0.406l-0.264,0.079l-0.068,0.023
			c-0.51,0.06-1.033,0.083-1.561,0.106l-0.047,0l-0.004-0.029l-0.002-0.003L121.686,33.982z"/>
	</g>
</g>
<path fill="#F1D2F7" d="M122.159,37.111c6.559-2.233,10.764-1.801,16.477-0.838c-2.269,2.377-2.944,4.888-4.996,7.415
	c-2.329,2.868-5.341,4.143-9.065,5.993"/>
<path fill="#F1D2F7" d="M86.488,36.161c-6.737-1.618-10.885-0.797-16.483,0.688c2.478,2.159,3.382,4.595,5.659,6.922
	c2.583,2.641,5.701,3.632,9.58,5.13"/>
<g>
	
		<ellipse fill="#442E24" stroke="#231713" stroke-width="0.9428" stroke-miterlimit="10" cx="106.332" cy="122.295" rx="80" ry="88.508"/>
	<path fill="#EFD8CE" stroke="#EFD8CE" stroke-width="0.9428" stroke-miterlimit="10" d="M177.338,167.284
		c-11.094-15.343-38.332-26.195-70.201-26.195c-32.451,0-60.113,11.248-70.807,27.034c16.398,26.171,41.767,42.966,70.246,42.966
		C135.357,211.089,160.96,193.934,177.338,167.284z"/>
</g>
<path stroke="#050500" stroke-width="2.0235" stroke-miterlimit="10" d="M78.286,69.6c7.156,3.849,8.531,15.195,3.07,25.351
	c-5.46,10.149-15.684,15.26-22.845,11.411c-7.156-3.851-8.528-15.201-3.071-25.349C60.901,70.859,71.127,65.75,78.286,69.6z"/>
<g>
	<path fill="#442E24" d="M77.33,102c0,0-2.708,27.881,0,36.718c1.587,5.179,6.99,15.938,12.224,18.358
		c4.093,1.893,18.334,0,18.334,0c-3.424-0.609,18.172,0.117,18.334,0c5.985-4.381,6.09-20.514,6.109-27.538
		c0.02-6.886,0-27.538,0-27.538"/>
	<path fill="#020200" d="M77.377,102.005c-0.452,6.465-0.737,12.944-0.754,19.414c-0.031,1.617-0.019,3.233-0.012,4.849
		c0.041,1.613,0.073,3.229,0.183,4.834c0.032,0.807,0.118,1.604,0.194,2.401c0.061,0.804,0.18,1.592,0.309,2.377
		c0.227,1.572,0.662,3.079,1.256,4.563c1.177,2.966,2.638,5.851,4.335,8.555c0.843,1.357,1.773,2.656,2.788,3.863
		c1.016,1.197,2.129,2.334,3.4,3.123c0.314,0.154,0.666,0.402,0.945,0.482c0.387,0.143,0.771,0.272,1.106,0.315l0.522,0.104
		l0.579,0.069c0.384,0.052,0.772,0.092,1.169,0.106c1.572,0.104,3.175,0.092,4.775,0.022c3.202-0.125,6.422-0.462,9.604-0.844
		l-0.036,1.657c-0.123-0.025-0.203-0.032-0.416-0.102l-0.089-0.033c-0.088-0.039-0.174-0.092-0.246-0.152
		c0.046,0.049-0.284-0.207-0.301-0.601c0.012-0.425,0.133-0.5,0.183-0.579c0.078-0.099,0.185-0.183,0.287-0.236
		c0.104-0.051,0.065-0.028,0.104-0.047c0.213-0.07,0.236-0.058,0.326-0.074c0.262-0.032,0.458-0.038,0.669-0.047l1.208-0.02
		l2.377,0.02l4.732,0.104l4.725,0.134c1.566,0.041,3.164-0.091,4.697-0.076l0.115-0.191h0.006c0.04,0-0.098,0.197-0.172,0.234
		c-0.041-0.004-0.238,0.254-0.191,0.217l0.057-0.002l0.219-0.172l0.441-0.383c0.329-0.254,0.518-0.531,0.728-0.807
		c0.452-0.503,0.797-1.201,1.179-1.837c0.641-1.368,1.198-2.797,1.564-4.301c0.414-1.486,0.688-3.021,0.939-4.558
		c0.23-1.541,0.41-3.092,0.541-4.65c0.529-6.236,0.371-12.547,0.477-18.846L132.285,102h0.094l0.012,18.898l0.002,9.447
		c-0.008,3.15-0.088,6.303-0.326,9.446c-0.118,1.572-0.289,3.14-0.51,4.701c-0.242,1.557-0.508,3.114-0.92,4.64
		c-0.363,1.537-0.926,3.021-1.586,4.458c-0.4,0.683-0.74,1.402-1.27,2.009c-0.243,0.317-0.477,0.646-0.788,0.889l-0.438,0.396
		l-0.219,0.198l-0.055,0.049c-0.062,0.042-0.104,0.029-0.121,0.034l-0.15,0.004c-3.156-0.022-6.301-0.122-9.451-0.174l-4.723-0.068
		l-2.359-0.002l-1.179,0.027c-0.194,0.009-0.392,0.019-0.579,0.043c-0.045,0.007-0.097,0.015-0.125,0.024
		c-0.041,0.027,0.066-0.035,0-0.111c0.002-0.001,0.012,0.006,0.037,0.013c0.08,0.027,0.18,0.044,0.273,0.062l0.582,0.111
		l-0.586,0.073c-3.221,0.401-6.453,0.687-9.697,0.797c-1.621,0.058-3.247,0.06-4.868-0.062c-1.604-0.144-3.294-0.312-4.685-1.237
		c-1.386-0.879-2.524-2.071-3.564-3.313c-1.035-1.254-1.973-2.584-2.818-3.971c-1.703-2.763-3.152-5.681-4.328-8.707
		c-0.592-1.511-1.033-3.09-1.254-4.699c-0.125-0.803-0.238-1.605-0.293-2.416c-0.072-0.809-0.152-1.615-0.178-2.427
		c-0.098-1.62-0.119-3.241-0.146-4.862c0.006-1.621,0.004-3.242,0.051-4.862c0.154-6.482,0.576-12.956,1.164-19.413L77.377,102.005z
		"/>
</g>
<g>
	<path fill="#442E24" stroke="#442E24" stroke-width="0.9428" stroke-miterlimit="10" d="M143.46,156.77
		c-1.272,3.006,0.07,6.816,3,8.514l0,0c2.931,1.695,6.337,0.632,7.61-2.376l4.611-10.89c1.272-3.006-0.07-6.816-3-8.513l0,0
		c-2.932-1.696-6.338-0.632-7.611,2.375L143.46,156.77z"/>
	<path fill="#442E24" stroke="#442E24" stroke-width="0.9428" stroke-miterlimit="10" d="M72.498,155.16
		c1.273,3.007-0.07,6.816-3,8.514l0,0c-2.931,1.695-6.338,0.633-7.611-2.376l-4.611-10.889c-1.272-3.007,0.07-6.817,3-8.513l0,0
		c2.932-1.696,6.338-0.633,7.611,2.375L72.498,155.16z"/>
</g>
</svg>
