<?xml version="1.0" encoding="utf-8"?>
<!-- Generator: Adobe Illustrator 16.0.0, SVG Export Plug-In . SVG Version: 6.00 Build 0)  -->
<!DOCTYPE svg PUBLIC "-//W3C//DTD SVG 1.1//EN" "http://www.w3.org/Graphics/SVG/1.1/DTD/svg11.dtd">
<svg version="1.1" xmlns="http://www.w3.org/2000/svg" xmlns:xlink="http://www.w3.org/1999/xlink" x="0px" y="0px" width="200px"
	 height="235px" viewBox="0 0 200 235" enable-background="new 0 0 200 235" xml:space="preserve">
<g id="Ext">
</g>
<g id="Guides">
</g>
<g id="_x31_2_Col_Grid_1_" display="none" enable-background="new    ">
	<g id="Rectangle_xA0_Image_23_" display="inline" opacity="0.102">
	</g>
	<g id="Rectangle_xA0_Image_21_" display="inline" opacity="0.102">
	</g>
	<g id="Rectangle_xA0_Image_19_" display="inline" opacity="0.102">
	</g>
	<g id="Rectangle_xA0_Image_17_" display="inline" opacity="0.102">
	</g>
	<g id="Rectangle_xA0_Image_15_" display="inline" opacity="0.102">
	</g>
	<g id="Rectangle_xA0_Image_13_" display="inline" opacity="0.102">
	</g>
	<g id="Rectangle_xA0_Image_11_" display="inline" opacity="0.102">
	</g>
	<g id="Rectangle_xA0_Image_9_" display="inline" opacity="0.102">
	</g>
	<g id="Rectangle_xA0_Image_7_" display="inline" opacity="0.102">
	</g>
	<g id="Rectangle_xA0_Image_5_" display="inline" opacity="0.102">
	</g>
	<g id="Rectangle_xA0_Image_3_" display="inline" opacity="0.102">
	</g>
	<g id="Rectangle_xA0_Image_1_" display="inline" opacity="0.102">
	</g>
</g>
<g id="Bg">
</g>
<g id="main">
	<g id="Progress">
	</g>
	<g id="Text">
	</g>
</g>
<g id="pane">
</g>
<g id="browserhead">
	<g>
		
			<ellipse fill="#442E24" stroke="#020200" stroke-width="1.0873" stroke-miterlimit="10" cx="77.5" cy="92.5" rx="13.5" ry="12.5"/>
		<path fill="#FCFCFC" stroke="#020200" stroke-width="0.8385" stroke-miterlimit="10" d="M85.027,91.667
			c0.039,0.273,0.066,0.55,0.066,0.833c0,3.682-3.4,6.667-7.594,6.667s-7.594-2.985-7.594-6.667c0-0.283,0.026-0.56,0.066-0.833
			h-5.928C64.025,91.943,64,92.219,64,92.5c0,6.903,6.044,12.5,13.5,12.5S91,99.403,91,92.5c0-0.281-0.025-0.557-0.045-0.833H85.027
			z"/>
		<path stroke="#020200" stroke-width="0.4593" stroke-miterlimit="10" d="M69.973,91.667c-0.04,0.273-0.066,0.55-0.066,0.833
			c0,3.682,3.4,6.667,7.594,6.667s7.594-2.985,7.594-6.667c0-0.283-0.027-0.56-0.066-0.833H69.973z"/>
	</g>
	
		<ellipse fill="#442E24" stroke="#020200" stroke-width="1.0873" stroke-miterlimit="10" cx="132.5" cy="92.5" rx="13.5" ry="12.5"/>
	<path fill="#FCFCFC" stroke="#020200" stroke-width="0.8385" stroke-miterlimit="10" d="M140.027,91.667
		c0.039,0.273,0.066,0.55,0.066,0.833c0,3.682-3.4,6.667-7.594,6.667s-7.594-2.985-7.594-6.667c0-0.283,0.026-0.56,0.066-0.833
		h-5.928C119.025,91.943,119,92.219,119,92.5c0,6.903,6.044,12.5,13.5,12.5S146,99.403,146,92.5c0-0.281-0.025-0.557-0.045-0.833
		H140.027z"/>
	<path stroke="#020200" stroke-width="0.4593" stroke-miterlimit="10" d="M124.973,91.667c-0.04,0.273-0.066,0.55-0.066,0.833
		c0,3.682,3.4,6.667,7.594,6.667s7.594-2.985,7.594-6.667c0-0.283-0.027-0.56-0.066-0.833H124.973z"/>
</g>
</svg>
