<?xml version="1.0" encoding="utf-8"?>
<!-- Generator: Adobe Illustrator 16.0.0, SVG Export Plug-In . SVG Version: 6.00 Build 0)  -->
<!DOCTYPE svg PUBLIC "-//W3C//DTD SVG 1.1//EN" "http://www.w3.org/Graphics/SVG/1.1/DTD/svg11.dtd">
<svg version="1.1" id="Layer_1" xmlns="http://www.w3.org/2000/svg" xmlns:xlink="http://www.w3.org/1999/xlink" x="0px" y="0px"
	 width="200px" height="235px" viewBox="0 0 200 235" enable-background="new 0 0 200 235" xml:space="preserve">
<g id="Ext">
</g>
<g id="Guides">
</g>
<g id="_x31_2_Col_Grid_1_" display="none" enable-background="new    ">
	<g id="Rectangle_xA0_Image_23_" display="inline" opacity="0.102">
	</g>
	<g id="Rectangle_xA0_Image_21_" display="inline" opacity="0.102">
	</g>
	<g id="Rectangle_xA0_Image_19_" display="inline" opacity="0.102">
	</g>
	<g id="Rectangle_xA0_Image_17_" display="inline" opacity="0.102">
	</g>
	<g id="Rectangle_xA0_Image_15_" display="inline" opacity="0.102">
	</g>
	<g id="Rectangle_xA0_Image_13_" display="inline" opacity="0.102">
	</g>
	<g id="Rectangle_xA0_Image_11_" display="inline" opacity="0.102">
	</g>
	<g id="Rectangle_xA0_Image_9_" display="inline" opacity="0.102">
	</g>
	<g id="Rectangle_xA0_Image_7_" display="inline" opacity="0.102">
	</g>
	<g id="Rectangle_xA0_Image_5_" display="inline" opacity="0.102">
	</g>
	<g id="Rectangle_xA0_Image_3_" display="inline" opacity="0.102">
	</g>
	<g id="Rectangle_xA0_Image_1_" display="inline" opacity="0.102">
	</g>
</g>
<g id="Bg">
</g>
<g id="main">
	<g id="Progress">
	</g>
	<g id="Text">
	</g>
</g>
<g id="pane">
</g>
<g>
	<g>
		<line fill="none" stroke="#000000" stroke-miterlimit="10" x1="87.186" y1="96.544" x2="91.424" y2="100.605"/>
		<path fill="#231713" stroke="#000000" stroke-miterlimit="10" d="M87.218,96.51c0,0,1.204,0.865,2.348,1.793
			c0.289,0.229,0.6,0.435,0.857,0.663c0.247,0.239,0.445,0.496,0.6,0.732c0.314,0.468,0.435,0.873,0.434,0.873l-0.064,0.068
			c-0.001,0-0.41-0.103-0.891-0.396c-0.243-0.145-0.509-0.332-0.758-0.568c-0.239-0.248-0.458-0.549-0.699-0.828
			c-0.976-1.104-1.891-2.269-1.891-2.269L87.218,96.51z"/>
	</g>
	<g>
		<line fill="none" stroke="#000000" stroke-miterlimit="10" x1="79.486" y1="98.058" x2="79.833" y2="103.816"/>
		<path fill="#231713" stroke="#000000" stroke-miterlimit="10" d="M79.533,98.054c0,0,0.294,1.427,0.504,2.86
			c0.055,0.357,0.144,0.713,0.177,1.05c0.018,0.337-0.01,0.655-0.058,0.929c-0.088,0.548-0.275,0.919-0.275,0.919l-0.095,0.006
			c0,0-0.231-0.346-0.383-0.88c-0.08-0.266-0.147-0.579-0.17-0.915c-0.007-0.338,0.039-0.702,0.05-1.064
			c0.035-1.446,0.155-2.899,0.155-2.899L79.533,98.054z"/>
	</g>
	<g>
		<line fill="none" stroke="#000000" stroke-miterlimit="10" x1="71.237" y1="95.5" x2="68.492" y2="100.605"/>
		<path fill="#231713" stroke="#000000" stroke-miterlimit="10" d="M71.279,95.522c-0.001,0-0.504,1.375-1.082,2.709
			c-0.142,0.335-0.255,0.686-0.404,0.991c-0.162,0.298-0.354,0.555-0.54,0.764c-0.363,0.422-0.719,0.642-0.719,0.642l-0.084-0.045
			c0,0-0.013-0.418,0.139-0.954c0.072-0.27,0.18-0.571,0.34-0.871c0.172-0.293,0.402-0.581,0.604-0.884
			c0.794-1.219,1.664-2.396,1.663-2.396L71.279,95.522z"/>
	</g>
	<g>
		<line fill="none" stroke="#000000" stroke-miterlimit="10" x1="138.186" y1="95.544" x2="142.424" y2="99.605"/>
		<path fill="#231713" stroke="#000000" stroke-miterlimit="10" d="M138.218,95.51c0,0,1.204,0.865,2.349,1.793
			c0.289,0.229,0.6,0.435,0.856,0.663c0.247,0.239,0.445,0.496,0.601,0.732c0.313,0.468,0.435,0.873,0.434,0.873l-0.064,0.068
			c0,0-0.41-0.103-0.891-0.396c-0.243-0.145-0.509-0.332-0.758-0.568c-0.239-0.248-0.458-0.549-0.699-0.828
			c-0.977-1.104-1.891-2.269-1.891-2.269L138.218,95.51z"/>
	</g>
	<g>
		<line fill="none" stroke="#000000" stroke-miterlimit="10" x1="131.643" y1="98.051" x2="131.678" y2="103.82"/>
		<path fill="#231713" stroke="#000000" stroke-miterlimit="10" d="M131.69,98.051c0,0,0.216,1.441,0.347,2.882
			c0.036,0.36,0.105,0.72,0.12,1.058c0,0.338-0.046,0.654-0.108,0.924c-0.117,0.542-0.323,0.904-0.323,0.904l-0.096,0
			c0,0-0.212-0.359-0.334-0.9c-0.065-0.269-0.116-0.585-0.12-0.923c0.011-0.337,0.077-0.699,0.107-1.06
			c0.114-1.441,0.312-2.886,0.312-2.886H131.69z"/>
	</g>
	<g>
		<line fill="none" stroke="#000000" stroke-miterlimit="10" x1="123.236" y1="94.5" x2="120.492" y2="99.605"/>
		<path fill="#231713" stroke="#000000" stroke-miterlimit="10" d="M123.279,94.522c-0.002,0-0.504,1.375-1.082,2.709
			c-0.143,0.335-0.256,0.686-0.404,0.991c-0.162,0.298-0.354,0.555-0.54,0.764c-0.362,0.422-0.719,0.642-0.719,0.642l-0.084-0.045
			c0,0-0.013-0.418,0.139-0.954c0.072-0.27,0.181-0.571,0.341-0.871c0.172-0.293,0.401-0.581,0.604-0.884
			c0.794-1.219,1.664-2.396,1.662-2.396L123.279,94.522z"/>
	</g>
	
		<ellipse fill="#442E24" stroke="#231713" stroke-width="0.9428" stroke-miterlimit="10" cx="78.777" cy="87.025" rx="12.799" ry="12"/>
	
		<ellipse fill="#442E24" stroke="#231713" stroke-width="0.9428" stroke-miterlimit="10" cx="130.777" cy="86.225" rx="12.799" ry="12"/>
</g>
</svg>
