<?xml version="1.0" encoding="utf-8"?>
<!-- Generator: Adobe Illustrator 16.0.0, SVG Export Plug-In . SVG Version: 6.00 Build 0)  -->
<!DOCTYPE svg PUBLIC "-//W3C//DTD SVG 1.1//EN" "http://www.w3.org/Graphics/SVG/1.1/DTD/svg11.dtd">
<svg version="1.1" xmlns="http://www.w3.org/2000/svg" xmlns:xlink="http://www.w3.org/1999/xlink" x="0px" y="0px" width="200px"
	 height="235px" viewBox="0 0 200 235" enable-background="new 0 0 200 235" xml:space="preserve">
<g id="Ext">
</g>
<g id="Guides">
</g>
<g id="_x31_2_Col_Grid_1_" display="none" enable-background="new    ">
	<g id="Rectangle_xA0_Image_23_" display="inline" opacity="0.102">
	</g>
	<g id="Rectangle_xA0_Image_21_" display="inline" opacity="0.102">
	</g>
	<g id="Rectangle_xA0_Image_19_" display="inline" opacity="0.102">
	</g>
	<g id="Rectangle_xA0_Image_17_" display="inline" opacity="0.102">
	</g>
	<g id="Rectangle_xA0_Image_15_" display="inline" opacity="0.102">
	</g>
	<g id="Rectangle_xA0_Image_13_" display="inline" opacity="0.102">
	</g>
	<g id="Rectangle_xA0_Image_11_" display="inline" opacity="0.102">
	</g>
	<g id="Rectangle_xA0_Image_9_" display="inline" opacity="0.102">
	</g>
	<g id="Rectangle_xA0_Image_7_" display="inline" opacity="0.102">
	</g>
	<g id="Rectangle_xA0_Image_5_" display="inline" opacity="0.102">
	</g>
	<g id="Rectangle_xA0_Image_3_" display="inline" opacity="0.102">
	</g>
	<g id="Rectangle_xA0_Image_1_" display="inline" opacity="0.102">
	</g>
</g>
<g id="Bg">
</g>
<g id="main">
	<g id="Progress">
	</g>
	<g id="Text">
	</g>
</g>
<g id="pane">
</g>
<g id="browserhead">
	<g>
		<ellipse stroke="#050500" stroke-miterlimit="10" cx="106.33" cy="137" rx="15" ry="5"/>
		<g>
			<g>
				<path fill="#442E24" d="M106.017,141.925c0,0-0.557,3.821,0,5c0.782,1.667,4.536,4.224,6.651,5c1.49,0.549,5.111,0.479,6.648,0
					c2.171-0.677,5.885-3.328,6.65-5c0.539-1.183,0-3.75,0-5"/>
				<path fill="#020200" d="M106.07,141.933c0,0,0.008,0.527,0.02,1.451c0.007,0.458,0.023,1.016,0.083,1.64
					c0.067,0.611,0.158,1.355,0.454,1.79c0.117,0.155,0.233,0.333,0.359,0.479c0.129,0.118,0.26,0.239,0.393,0.362
					c0.234,0.245,0.625,0.508,0.941,0.771c0.705,0.503,1.482,0.996,2.301,1.473c0.797,0.48,1.746,0.907,2.521,1.174
					c0.562,0.162,0.848,0.164,1.365,0.214c0.484,0.044,0.984,0.04,1.482,0.044c0.988-0.004,2.031-0.071,2.875-0.271l0.16-0.034
					c-0.053,0.02,0.09-0.034,0.125-0.047l0.361-0.135c0.256-0.081,0.474-0.174,0.663-0.272c0.399-0.173,0.813-0.393,1.226-0.633
					c0.813-0.472,1.586-0.969,2.283-1.48c0.318-0.275,0.686-0.518,0.945-0.801c0.139-0.138,0.276-0.273,0.41-0.406
					c0.114-0.137,0.2-0.273,0.304-0.406c0.034-0.047,0.135-0.177,0.115-0.154l0.101-0.269c0.087-0.192,0.072-0.311,0.117-0.454
					c0.074-0.268,0.096-0.636,0.125-0.932c0.039-0.624,0.039-1.146,0.039-1.609c0-0.928,0.072-1.428,0.072-1.428h0.109
					c0,0,0.01,0.482,0.109,1.4c0.046,0.457,0.104,0.996,0.131,1.641c-0.002,0.629,0.053,1.41-0.352,2.119
					c-0.382,0.723-1.039,1.295-1.701,1.914c-0.696,0.584-1.461,1.162-2.307,1.68c-0.836,0.533-1.762,1.009-2.762,1.315
					c-1.023,0.256-2.084,0.326-3.141,0.35c-1.051-0.009-2.136-0.058-3.143-0.34c-0.998-0.345-1.901-0.836-2.739-1.366
					c-0.845-0.519-1.614-1.091-2.317-1.667c-0.663-0.603-1.35-1.197-1.723-1.894c-0.125-0.153-0.178-0.367-0.227-0.549
					c-0.066-0.187-0.08-0.373-0.096-0.554c-0.05-0.362-0.043-0.705-0.046-1.028c0.005-0.645,0.048-1.203,0.088-1.663
					c0.085-0.919,0.165-1.441,0.165-1.441L106.07,141.933z"/>
			</g>
			<g>
				<path fill="#442E24" d="M106.009,141.539c0,0,0.555,3.821,0,5c-0.787,1.667-4.538,4.224-6.649,5
					c-1.498,0.549-5.113,0.479-6.65,0c-2.172-0.677-5.887-3.328-6.651-5c-0.542-1.183,0-3.75,0-5"/>
				<path fill="#020200" d="M106.062,141.531c0,0,0.159,0.51,0.339,1.426c0.085,0.46,0.181,1.019,0.247,1.678
					c0.027,0.332,0.068,0.683,0.05,1.08c0.001,0.195-0.005,0.392-0.072,0.631l-0.088,0.351l-0.012,0.044l-0.006,0.022l-0.003,0.011
					c0.006-0.008-0.061,0.113-0.035,0.065l-0.035,0.064l-0.072,0.128c-0.101,0.173-0.186,0.348-0.305,0.529
					c-0.147,0.185-0.298,0.373-0.451,0.565c-0.315,0.407-0.641,0.671-0.979,1.03c-0.697,0.639-1.457,1.282-2.324,1.834
					c-0.427,0.285-0.872,0.563-1.348,0.818c-0.229,0.137-0.473,0.262-0.734,0.376l-0.388,0.17l-0.097,0.043l-0.049,0.021
					l-0.013,0.005l-0.081,0.026l-0.023,0.007l-0.187,0.053c-0.429,0.146-1.188,0.267-1.712,0.311
					c-0.561,0.06-1.113,0.071-1.668,0.081c-1.113-0.034-2.188-0.104-3.357-0.401l-0.218-0.057c-0.175-0.06-0.151-0.058-0.237-0.09
					l-0.357-0.145c-0.23-0.089-0.478-0.208-0.734-0.353c-0.521-0.263-0.975-0.545-1.399-0.828c-0.874-0.554-1.628-1.209-2.319-1.854
					c-0.328-0.356-0.672-0.648-0.952-1.027c-0.143-0.182-0.282-0.359-0.421-0.534c-0.127-0.194-0.237-0.412-0.348-0.61
					c-0.438-0.835-0.307-1.75-0.244-2.376c0.088-0.658,0.2-0.982,0.29-1.436c0.194-0.904,0.283-1.19,0.284-1.19h0.107
					c0,0-0.006,0.303-0.101,1.219c-0.044,0.458-0.099,0.899-0.12,1.537c0.006,0.628-0.043,1.322,0.35,1.999
					c0.365,0.686,1.022,1.231,1.678,1.837c0.693,0.574,1.456,1.131,2.297,1.639c0.83,0.521,1.74,0.974,2.721,1.269
					c0.99,0.241,2.047,0.305,3.092,0.32c1.049-0.005,2.092-0.044,3.086-0.313c0.959-0.324,1.869-0.81,2.699-1.328
					c0.841-0.51,1.608-1.074,2.309-1.641c0.668-0.605,1.316-1.144,1.705-1.846c0.371-0.663,0.344-1.429,0.359-2.055
					c-0.001-0.639-0.039-1.196-0.076-1.654c-0.078-0.916-0.154-1.436-0.154-1.436L106.062,141.531z"/>
			</g>
		</g>
		<path fill="none" stroke="#000000" stroke-miterlimit="10" d="M82.47,143.591c0,0,2.089-3.655,3.337-3.724
			s3.724,3.336,3.724,3.336"/>
	</g>
</g>
</svg>
