<?xml version="1.0" encoding="utf-8"?>
<!-- Generator: Adobe Illustrator 16.0.0, SVG Export Plug-In . SVG Version: 6.00 Build 0)  -->
<!DOCTYPE svg PUBLIC "-//W3C//DTD SVG 1.1//EN" "http://www.w3.org/Graphics/SVG/1.1/DTD/svg11.dtd">
<svg version="1.1" id="Layer_1" xmlns="http://www.w3.org/2000/svg" xmlns:xlink="http://www.w3.org/1999/xlink" x="0px" y="0px"
	 width="200px" height="235px" viewBox="0 0 200 235" enable-background="new 0 0 200 235" xml:space="preserve">
<g id="Ext">
</g>
<g id="Guides">
</g>
<g id="_x31_2_Col_Grid_1_" display="none" enable-background="new    ">
	<g id="Rectangle_xA0_Image_23_" display="inline" opacity="0.102">
	</g>
	<g id="Rectangle_xA0_Image_21_" display="inline" opacity="0.102">
	</g>
	<g id="Rectangle_xA0_Image_19_" display="inline" opacity="0.102">
	</g>
	<g id="Rectangle_xA0_Image_17_" display="inline" opacity="0.102">
	</g>
	<g id="Rectangle_xA0_Image_15_" display="inline" opacity="0.102">
	</g>
	<g id="Rectangle_xA0_Image_13_" display="inline" opacity="0.102">
	</g>
	<g id="Rectangle_xA0_Image_11_" display="inline" opacity="0.102">
	</g>
	<g id="Rectangle_xA0_Image_9_" display="inline" opacity="0.102">
	</g>
	<g id="Rectangle_xA0_Image_7_" display="inline" opacity="0.102">
	</g>
	<g id="Rectangle_xA0_Image_5_" display="inline" opacity="0.102">
	</g>
	<g id="Rectangle_xA0_Image_3_" display="inline" opacity="0.102">
	</g>
	<g id="Rectangle_xA0_Image_1_" display="inline" opacity="0.102">
	</g>
</g>
<g id="Bg">
</g>
<g id="main">
	<g id="Progress">
	</g>
	<g id="Text">
	</g>
</g>
<g id="pane">
</g>
<g>
	<g>
		<g>
			<path fill="#442E24" d="M106.562,141.925c0,0-0.418,3.821,0,5c0.588,1.667,3.41,4.224,5,5c1.121,0.55,3.844,0.479,5,0
				c1.631-0.677,4.424-3.327,5-5c0.404-1.183,0-3.75,0-5"/>
			<path fill="#020200" d="M106.609,141.93c0,0,0.021,0.467,0.047,1.272c0.014,0.403,0.031,0.892,0.074,1.446
				c0.047,0.547,0.106,1.19,0.233,1.781c0.047,0.119,0.063,0.307,0.129,0.377c0.089,0.156,0.179,0.316,0.269,0.479
				c0.215,0.28,0.382,0.511,0.645,0.79c0.504,0.551,1.104,1.085,1.727,1.628c0.627,0.522,1.326,1.065,2.028,1.418l0.132,0.071
				l0.017,0.01c0.063,0.027-0.08-0.033-0.062-0.026l0.01,0.005l0.041,0.014l0.08,0.027l0.324,0.109l0.504,0.08
				c0.406,0.043,0.826,0.054,1.252,0.049c0.832,0.005,1.769-0.07,2.338-0.345c0.443-0.194,0.74-0.412,1.06-0.614
				c0.323-0.249,0.672-0.486,0.974-0.766c0.617-0.541,1.211-1.082,1.706-1.641c0.484-0.576,0.902-1.092,1.038-1.69
				c0.116-0.57,0.176-1.19,0.205-1.749c0.03-0.555,0.039-1.01,0.049-1.415c0.022-0.812,0.09-1.242,0.09-1.242h0.094
				c0,0,0.006,0.42,0.07,1.226c0.026,0.401,0.061,0.873,0.098,1.435c0.025,0.562,0.045,1.192-0.062,1.89
				c-0.113,0.701-0.557,1.35-1.027,1.981c-0.491,0.628-1.064,1.241-1.713,1.819c-0.645,0.568-1.36,1.158-2.182,1.553
				c-0.848,0.412-1.801,0.472-2.725,0.502c-0.908-0.014-1.904-0.049-2.719-0.502c-0.812-0.438-1.509-1.014-2.16-1.584
				c-0.65-0.575-1.234-1.182-1.732-1.805c-0.482-0.642-0.936-1.261-1.043-1.979c-0.186-1.39-0.047-2.545-0.012-3.351
				c0.072-0.805,0.113-1.265,0.113-1.265L106.609,141.93z"/>
		</g>
		<g>
			<path fill="#442E24" d="M106.557,141.539c0,0,0.418,3.82,0,5c-0.592,1.667-3.412,4.225-5,5c-1.125,0.549-3.845,0.479-5,0
				c-1.633-0.678-4.426-3.328-5-5c-0.408-1.184,0-3.75,0-5"/>
			<path fill="#020200" d="M106.604,141.534c0,0,0.121,0.45,0.267,1.254c0.063,0.401,0.144,0.892,0.211,1.46
				c0.063,0.572,0.144,1.206,0.053,1.98c-0.049,0.211-0.03,0.394-0.147,0.641c-0.067,0.167-0.137,0.337-0.209,0.509
				c-0.188,0.345-0.43,0.772-0.676,1.101c-0.488,0.685-1.056,1.354-1.729,1.953c-0.677,0.606-1.368,1.207-2.271,1.713l-0.166,0.098
				l-0.021,0.012l-0.091,0.039l-0.04,0.016l-0.08,0.03l-0.318,0.123c-0.258,0.073-0.569,0.146-0.842,0.194
				c-0.504,0.072-1.005,0.109-1.502,0.115c-0.996-0.058-1.963-0.102-3.034-0.623c-0.386-0.186-0.824-0.489-1.241-0.787
				c-0.371-0.305-0.738-0.584-1.062-0.902c-0.678-0.604-1.23-1.288-1.714-1.977c-0.245-0.34-0.446-0.711-0.64-1.067
				c-0.08-0.197-0.16-0.392-0.236-0.582c-0.023-0.065-0.028-0.051-0.065-0.187l-0.022-0.131l-0.044-0.259
				c-0.099-0.796-0.008-1.454,0.071-2.015c0.08-0.568,0.167-0.822,0.235-1.223c0.146-0.793,0.22-1.02,0.22-1.02h0.094
				c0,0-0.002,0.234-0.062,1.039c-0.024,0.402-0.055,0.775-0.089,1.335c-0.023,0.56-0.036,1.138,0.071,1.808
				c0.115,0.68,0.547,1.277,1.018,1.902c0.488,0.617,1.061,1.211,1.707,1.777c0.652,0.565,1.332,1.119,2.154,1.509
				c0.795,0.384,1.744,0.44,2.648,0.463c0.912-0.013,1.846-0.032,2.639-0.466c0.791-0.42,1.488-0.988,2.139-1.549
				c0.646-0.566,1.229-1.164,1.727-1.777c0.467-0.602,0.936-1.248,1.029-1.916c0.189-1.354,0.062-2.521,0.032-3.318
				c-0.067-0.804-0.105-1.263-0.105-1.263L106.604,141.534z"/>
		</g>
	</g>
	<ellipse stroke="#050500" stroke-miterlimit="10" cx="106.33" cy="137" rx="15" ry="5"/>
</g>
</svg>
