<?xml version="1.0" encoding="utf-8"?>
<!-- Generator: Adobe Illustrator 16.0.0, SVG Export Plug-In . SVG Version: 6.00 Build 0)  -->
<!DOCTYPE svg PUBLIC "-//W3C//DTD SVG 1.1//EN" "http://www.w3.org/Graphics/SVG/1.1/DTD/svg11.dtd">
<svg version="1.1" id="Layer_1" xmlns="http://www.w3.org/2000/svg" xmlns:xlink="http://www.w3.org/1999/xlink" x="0px" y="0px"
	 width="530px" height="235px" viewBox="0 -17.5 530 235" enable-background="new 0 -17.5 530 235" xml:space="preserve">
<g id="Ext">
</g>
<g id="Guides">
</g>
<g id="_x31_2_Col_Grid_1_" display="none" enable-background="new    ">
	<g id="Rectangle_xA0_Image_23_" display="inline" opacity="0.102">
	</g>
	<g id="Rectangle_xA0_Image_21_" display="inline" opacity="0.102">
	</g>
	<g id="Rectangle_xA0_Image_19_" display="inline" opacity="0.102">
	</g>
	<g id="Rectangle_xA0_Image_17_" display="inline" opacity="0.102">
	</g>
	<g id="Rectangle_xA0_Image_15_" display="inline" opacity="0.102">
	</g>
	<g id="Rectangle_xA0_Image_13_" display="inline" opacity="0.102">
	</g>
	<g id="Rectangle_xA0_Image_11_" display="inline" opacity="0.102">
	</g>
	<g id="Rectangle_xA0_Image_9_" display="inline" opacity="0.102">
	</g>
	<g id="Rectangle_xA0_Image_7_" display="inline" opacity="0.102">
	</g>
	<g id="Rectangle_xA0_Image_5_" display="inline" opacity="0.102">
	</g>
	<g id="Rectangle_xA0_Image_3_" display="inline" opacity="0.102">
	</g>
	<g id="Rectangle_xA0_Image_1_" display="inline" opacity="0.102">
	</g>
</g>
<g id="Bg">
</g>
<g id="pane">
</g>
<g id="browserhead">
</g>
<g>
	<g id="browserhead_1_">
		<path fill="none" stroke="#020200" stroke-width="0.582" stroke-miterlimit="10" d="M233.5,129c0,0,3.856,1.934,5.292,2.5
			c2.27,0.896,7.625,2.5,10.583,2.5s8.312-1.604,10.583-2.5c1.435-0.566,5.292-2.5,5.292-2.5"/>
	</g>
	<path fill="none" stroke="#020200" stroke-width="0.582" stroke-miterlimit="10" d="M264,126c0,0,3.057,0.434,3.5,1.25
		c0.521,0.959-1,4.25-1,4.25"/>
	<path fill="#ED8D24" stroke="#020200" stroke-width="0.7234" stroke-miterlimit="10" d="M237.167,131c0,0,8.931,5.139,13.036,5.111
		c3.631-0.023,11.298-4.668,11.298-4.668s-5.547,7.39-9.994,7.557C246.215,139.2,237.167,131,237.167,131z"/>
</g>
</svg>
