<?xml version="1.0" encoding="utf-8"?>
<!-- Generator: Adobe Illustrator 16.0.0, SVG Export Plug-In . SVG Version: 6.00 Build 0)  -->
<!DOCTYPE svg PUBLIC "-//W3C//DTD SVG 1.1//EN" "http://www.w3.org/Graphics/SVG/1.1/DTD/svg11.dtd">
<svg version="1.1" xmlns="http://www.w3.org/2000/svg" xmlns:xlink="http://www.w3.org/1999/xlink" x="0px" y="0px" width="200px"
	 height="225px" viewBox="0 0 200 225" enable-background="new 0 0 200 225" xml:space="preserve">
<g id="Ext">
</g>
<g id="Guides">
</g>
<g id="_x31_2_Col_Grid_1_" display="none" enable-background="new    ">
	<g id="Rectangle_xA0_Image_23_" display="inline" opacity="0.102">
	</g>
	<g id="Rectangle_xA0_Image_21_" display="inline" opacity="0.102">
	</g>
	<g id="Rectangle_xA0_Image_19_" display="inline" opacity="0.102">
	</g>
	<g id="Rectangle_xA0_Image_17_" display="inline" opacity="0.102">
	</g>
	<g id="Rectangle_xA0_Image_15_" display="inline" opacity="0.102">
	</g>
	<g id="Rectangle_xA0_Image_13_" display="inline" opacity="0.102">
	</g>
	<g id="Rectangle_xA0_Image_11_" display="inline" opacity="0.102">
	</g>
	<g id="Rectangle_xA0_Image_9_" display="inline" opacity="0.102">
	</g>
	<g id="Rectangle_xA0_Image_7_" display="inline" opacity="0.102">
	</g>
	<g id="Rectangle_xA0_Image_5_" display="inline" opacity="0.102">
	</g>
	<g id="Rectangle_xA0_Image_3_" display="inline" opacity="0.102">
	</g>
	<g id="Rectangle_xA0_Image_1_" display="inline" opacity="0.102">
	</g>
</g>
<g id="Bg">
</g>
<g id="main">
	<g id="Progress">
	</g>
	<g id="Text">
	</g>
</g>
<g id="pane">
</g>
<g id="browserhead">
	<g>
		<path fill="none" stroke="#020200" stroke-miterlimit="10" d="M123.069,212.01l4.11-7.741l-2.284-10.77
			c-0.344-1.621,0.473-3.167,1.823-3.453s2.725,0.795,3.068,2.416L132,202.896l6.901,6.033c1.039,0.909,1.146,2.488,0.236,3.528
			c-0.908,1.04-2.488,1.146-3.527,0.237l-1.882-1.646l1.037,4.892c0.345,1.621-0.472,3.167-1.823,3.453
			c-1.351,0.287-2.724-0.795-3.068-2.416l-1.078-5.09l-1.311,2.467c-0.646,1.219-2.16,1.684-3.381,1.036
			C122.886,214.743,122.423,213.229,123.069,212.01z"/>
		<path fill="none" stroke="#020200" stroke-miterlimit="10" d="M76.442,212.01l-4.11-7.741l2.284-10.77
			c0.344-1.621-0.473-3.167-1.823-3.453s-2.725,0.795-3.068,2.416l-2.213,10.435l-6.901,6.033c-1.039,0.909-1.146,2.488-0.236,3.528
			c0.908,1.04,2.488,1.146,3.527,0.237l1.882-1.646l-1.037,4.892c-0.345,1.621,0.472,3.167,1.823,3.453
			c1.351,0.287,2.724-0.795,3.068-2.416l1.078-5.09l1.311,2.467c0.646,1.219,2.16,1.684,3.381,1.036
			C76.626,214.743,77.089,213.229,76.442,212.01z"/>
	</g>
	<g>
		<ellipse fill="#FCFCFC" stroke="#020200" stroke-miterlimit="10" cx="99.766" cy="108.04" rx="90.008" ry="88.508"/>
		<path fill="#FFFEFD" stroke="#000000" stroke-miterlimit="10" d="M34.756,168.519c13.135,16.763,37.477,28.029,65.355,28.029
			c30.078,0,56.057-13.106,68.266-32.09C156.525,149.973,131.717,140,103.021,140C71.717,140,45.031,151.869,34.756,168.519z"/>
	</g>
	<path fill="none" stroke="#020200" stroke-miterlimit="10" d="M98.665,113.751"/>
	<path fill="none" stroke="#020200" stroke-miterlimit="10" d="M85.998,113.751"/>
	<path fill="none" stroke="#020200" stroke-miterlimit="10" d="M38.997,169.081"/>
	<g>
		<g>
			<ellipse fill="none" stroke="#020200" stroke-miterlimit="10" cx="65.756" cy="86" rx="16" ry="15"/>
			<ellipse fill="#020200" stroke="#020200" stroke-width="0.5477" stroke-miterlimit="10" cx="65.756" cy="86" rx="9" ry="8"/>
		</g>
		<g>
			<ellipse fill="none" stroke="#020200" stroke-miterlimit="10" cx="130.756" cy="85" rx="16" ry="15"/>
			<ellipse fill="#020200" stroke="#020200" stroke-width="0.5477" stroke-miterlimit="10" cx="130.756" cy="85" rx="9" ry="8"/>
		</g>
	</g>
	<g>
		<polygon fill="#F4530C" stroke="#F4530C" stroke-miterlimit="10" points="99.975,110 113.635,110 106.805,122.5 99.975,135 
			93.145,122.5 86.314,110 		"/>
		<polygon fill="#F4530C" stroke="#F4530C" stroke-miterlimit="10" points="99.975,110 113.635,110 106.805,105 99.975,100 
			93.145,105 86.314,110 		"/>
	</g>
	<g>
		<path fill="#F9F9F9" stroke="#020200" stroke-width="0.5477" stroke-miterlimit="10" d="M122.326,151.893
			c7.041,4.876,16.769,3.985,22.766-2.474c5.996-6.458,6.164-16.226,0.778-22.885L122.326,151.893z"/>
		<path fill="#F9F9F9" stroke="#020200" stroke-width="0.5477" stroke-miterlimit="10" d="M82.186,151.893
			c-7.041,4.876-16.769,3.985-22.766-2.474c-5.996-6.458-6.164-16.226-0.778-22.885L82.186,151.893z"/>
	</g>
</g>
</svg>
