<?xml version="1.0" encoding="utf-8"?>
<!-- Generator: Adobe Illustrator 16.0.0, SVG Export Plug-In . SVG Version: 6.00 Build 0)  -->
<!DOCTYPE svg PUBLIC "-//W3C//DTD SVG 1.1//EN" "http://www.w3.org/Graphics/SVG/1.1/DTD/svg11.dtd">
<svg version="1.1" xmlns="http://www.w3.org/2000/svg" xmlns:xlink="http://www.w3.org/1999/xlink" x="0px" y="0px" width="200px"
	 height="225px" viewBox="0 0 200 225" enable-background="new 0 0 200 225" xml:space="preserve">
<g id="Ext">
</g>
<g id="Guides">
</g>
<g id="_x31_2_Col_Grid_1_" display="none" enable-background="new    ">
	<g id="Rectangle_xA0_Image_23_" display="inline" opacity="0.102">
	</g>
	<g id="Rectangle_xA0_Image_21_" display="inline" opacity="0.102">
	</g>
	<g id="Rectangle_xA0_Image_19_" display="inline" opacity="0.102">
	</g>
	<g id="Rectangle_xA0_Image_17_" display="inline" opacity="0.102">
	</g>
	<g id="Rectangle_xA0_Image_15_" display="inline" opacity="0.102">
	</g>
	<g id="Rectangle_xA0_Image_13_" display="inline" opacity="0.102">
	</g>
	<g id="Rectangle_xA0_Image_11_" display="inline" opacity="0.102">
	</g>
	<g id="Rectangle_xA0_Image_9_" display="inline" opacity="0.102">
	</g>
	<g id="Rectangle_xA0_Image_7_" display="inline" opacity="0.102">
	</g>
	<g id="Rectangle_xA0_Image_5_" display="inline" opacity="0.102">
	</g>
	<g id="Rectangle_xA0_Image_3_" display="inline" opacity="0.102">
	</g>
	<g id="Rectangle_xA0_Image_1_" display="inline" opacity="0.102">
	</g>
</g>
<g id="Bg">
</g>
<g id="main">
	<g id="Progress">
	</g>
	<g id="Text">
	</g>
</g>
<g id="pane">
</g>
<g id="browserhead">
	<g>
		<path fill="#F4530C" stroke="#F4530C" stroke-miterlimit="10" d="M131.715,200.077l-2.214-10.436
			c-0.065-0.31-0.179-0.592-0.312-0.855c-1.527,0.524-3.072,1.012-4.635,1.457c0.012,0.145,0.023,0.289,0.055,0.436l2.284,10.77
			l-4.11,7.74c-0.646,1.219-0.184,2.732,1.035,3.381c1.22,0.648,2.735,0.184,3.381-1.037l1.311-2.467l1.078,5.09
			c0.344,1.621,1.718,2.703,3.067,2.416c1.353-0.285,2.169-1.832,1.823-3.451l-1.036-4.893l1.882,1.645
			c1.039,0.908,2.619,0.803,3.525-0.236c0.911-1.041,0.805-2.619-0.234-3.527L131.715,200.077z"/>
		<path fill="#F4530C" stroke="#F4530C" stroke-miterlimit="10" d="M70.067,201.448l2.283-10.77
			c0.031-0.148,0.043-0.295,0.055-0.441c-1.562-0.444-3.105-0.932-4.632-1.457c-0.135,0.266-0.249,0.55-0.314,0.861l-2.213,10.436
			l-6.901,6.031c-1.04,0.908-1.146,2.486-0.236,3.527c0.908,1.039,2.488,1.145,3.527,0.236l1.881-1.645l-1.036,4.893
			c-0.345,1.619,0.472,3.166,1.823,3.451c1.35,0.287,2.724-0.795,3.066-2.416l1.08-5.09l1.31,2.467
			c0.648,1.221,2.161,1.686,3.381,1.037s1.684-2.162,1.035-3.381L70.067,201.448z"/>
	</g>
	<g>
		<ellipse fill="#F7E42D" stroke="#665C12" stroke-miterlimit="10" cx="98.744" cy="105.533" rx="90.009" ry="88.508"/>
		<path fill="#F9F0D7" d="M32.977,165.133c13.135,16.764,37.478,28.029,65.357,28.029c30.078,0,56.059-13.105,68.268-32.09
			c-11.852-14.484-36.661-24.457-65.357-24.457C69.938,136.615,43.252,148.483,32.977,165.133z"/>
	</g>
	<path fill="none" stroke="#020200" stroke-miterlimit="10" d="M97.645,111.244"/>
	<path fill="none" stroke="#020200" stroke-miterlimit="10" d="M84.979,111.244"/>
	<path fill="none" stroke="#020200" stroke-miterlimit="10" d="M37.977,166.574"/>
	<g>
		<ellipse fill="#FDFDFE" stroke="#020200" stroke-miterlimit="10" cx="64.735" cy="83.494" rx="16" ry="15"/>
		<ellipse fill="#020200" stroke="#020200" stroke-width="0.5477" stroke-miterlimit="10" cx="64.735" cy="83.494" rx="9" ry="8"/>
		<ellipse fill="#FCFCFC" stroke="#020200" stroke-miterlimit="10" cx="129.735" cy="82.494" rx="16" ry="15"/>
		<ellipse fill="#020200" stroke="#020200" stroke-width="0.5477" stroke-miterlimit="10" cx="129.735" cy="82.494" rx="9" ry="8"/>
	</g>
	<g>
		<g>
			<polygon fill="#F4530C" points="98.954,107.617 112.613,107.617 105.784,120.056 98.954,132.525 92.124,120.071 85.293,107.617 
							"/>
			<path fill="#F4530C" d="M98.469,106.994l13.902,0.081l0.83,0.004l-0.281,0.616l-13.776,24.919l-0.208,0.401l-0.209-0.401
				l-13.509-24.979l-0.062-0.019h0.137l13.176-0.123V106.994z M98.469,107.494l-13.418,0.123h0.192l13.931,25h-0.439l13.512-25.203
				l0.125,0.56l-13.902,0.021V107.494z"/>
		</g>
		<g>
			<polygon fill="#F4530C" points="98.954,107.617 112.613,107.617 105.784,102.556 98.954,97.525 92.124,102.571 85.293,107.617 
							"/>
			<path fill="#F4530C" d="M98.469,106.994l13.902,0.111l-0.108,0.662l-13.456-10.15h0.295l-13.742,9.928l-0.309-0.182l13.418,0.131
				V106.994z M98.469,107.494l-13.418,0.111l-0.22,0.003l0.335-0.204l13.61-10.111l0.159-0.108l0.158,0.108l13.745,9.888
				l0.964,0.692l-1.434,0.01l-13.9,0.111V107.494z"/>
		</g>
	</g>
	<g>
		<path fill="#F7E42D" stroke="#665C12" stroke-miterlimit="10" d="M121.306,149.387c7.04,4.876,16.769,3.984,22.766-2.475
			c5.996-6.459,6.164-16.227,0.778-22.885L121.306,149.387z"/>
		<path fill="#F7E42D" stroke="#665C12" stroke-miterlimit="10" d="M81.164,149.387c-7.04,4.876-16.768,3.984-22.766-2.475
			c-5.995-6.459-6.163-16.227-0.778-22.885L81.164,149.387z"/>
	</g>
</g>
</svg>
