<?xml version="1.0" encoding="utf-8"?>
<!-- Generator: Adobe Illustrator 16.0.0, SVG Export Plug-In . SVG Version: 6.00 Build 0)  -->
<!DOCTYPE svg PUBLIC "-//W3C//DTD SVG 1.1//EN" "http://www.w3.org/Graphics/SVG/1.1/DTD/svg11.dtd">
<svg version="1.1" xmlns="http://www.w3.org/2000/svg" xmlns:xlink="http://www.w3.org/1999/xlink" x="0px" y="0px" width="200px"
	 height="225px" viewBox="0 0 200 225" enable-background="new 0 0 200 225" xml:space="preserve">
<g id="Ext">
</g>
<g id="Guides">
</g>
<g id="_x31_2_Col_Grid_1_" display="none" enable-background="new    ">
	<g id="Rectangle_xA0_Image_23_" display="inline" opacity="0.102">
	</g>
	<g id="Rectangle_xA0_Image_21_" display="inline" opacity="0.102">
	</g>
	<g id="Rectangle_xA0_Image_19_" display="inline" opacity="0.102">
	</g>
	<g id="Rectangle_xA0_Image_17_" display="inline" opacity="0.102">
	</g>
	<g id="Rectangle_xA0_Image_15_" display="inline" opacity="0.102">
	</g>
	<g id="Rectangle_xA0_Image_13_" display="inline" opacity="0.102">
	</g>
	<g id="Rectangle_xA0_Image_11_" display="inline" opacity="0.102">
	</g>
	<g id="Rectangle_xA0_Image_9_" display="inline" opacity="0.102">
	</g>
	<g id="Rectangle_xA0_Image_7_" display="inline" opacity="0.102">
	</g>
	<g id="Rectangle_xA0_Image_5_" display="inline" opacity="0.102">
	</g>
	<g id="Rectangle_xA0_Image_3_" display="inline" opacity="0.102">
	</g>
	<g id="Rectangle_xA0_Image_1_" display="inline" opacity="0.102">
	</g>
</g>
<g id="Bg">
</g>
<g id="main">
	<g id="Progress">
	</g>
	<g id="Text">
	</g>
</g>
<g id="pane">
</g>
<g id="browserhead">
	<g>
		<g>
			<path fill="#050500" d="M114.953,23.572l0.652-2.132c0.13-0.349,0.302-0.684,0.451-1.026l0.465-1.024
				c0.17-0.334,0.394-0.636,0.588-0.955l0.605-0.947c0.197-0.32,0.472-0.58,0.703-0.873l0.729-0.857
				c0.482-0.59,1.028-1.075,1.578-1.592c0.549-0.511,1.101-0.999,1.609-1.527c0.271-0.251,0.479-0.547,0.723-0.817
				c0.229-0.28,0.402-0.596,0.609-0.889c0.161-0.319,0.309-0.645,0.457-0.969l0.293-1.031l0.486-1.712l0.059,1.776
				c0.015,0.445,0.073,0.893,0.222,1.327c0.139,0.436,0.329,0.86,0.554,1.27c0.445,0.823,0.998,1.599,1.568,2.365
				c0.572,0.767,1.171,1.521,1.74,2.312c0.564,0.791,1.118,1.625,1.474,2.59c0.168,0.439,0.32,0.943,0.448,1.406
				c0.131,0.473,0.247,0.948,0.346,1.427c0.202,0.958,0.353,1.926,0.441,2.905c0.085,0.98,0.104,1.973-0.004,2.976
				c-0.055,0.501-0.146,1.005-0.303,1.504c-0.144,0.501-0.388,0.991-0.705,1.451l-0.24,0.347l-0.418-0.212l-1.691-0.854l-1.75-0.727
				l-1.801-0.594c-0.615-0.154-1.227-0.323-1.844-0.468c-0.626-0.113-1.248-0.245-1.878-0.345l-1.901-0.244
				c-1.271-0.142-2.553-0.236-3.839-0.308l-0.255-0.014l0.006-0.228c0.037-1.546,0.084-3.09,0.153-4.629h0.1
				c0.103,1.538,0.185,3.071,0.255,4.604l-0.249-0.241c1.295-0.01,2.593,0.005,3.894,0.067c0.648,0.04,1.297,0.116,1.947,0.174
				c0.648,0.079,1.293,0.19,1.941,0.284c0.643,0.126,1.283,0.277,1.926,0.416c0.632,0.179,1.262,0.375,1.889,0.575l1.833,0.739
				l1.765,0.889l-0.658,0.136c0.229-0.332,0.434-0.703,0.561-1.127c0.138-0.417,0.227-0.863,0.283-1.316
				c0.121-0.908,0.129-1.85,0.07-2.788c-0.061-0.938-0.183-1.879-0.354-2.809c-0.084-0.466-0.185-0.928-0.3-1.386
				c-0.117-0.467-0.234-0.888-0.4-1.352c-0.293-0.853-0.793-1.654-1.33-2.436c-0.539-0.782-1.123-1.547-1.686-2.335
				c-0.563-0.787-1.116-1.595-1.57-2.474c-0.229-0.438-0.427-0.899-0.57-1.383c-0.153-0.482-0.215-0.996-0.219-1.513l0.545,0.064
				l-0.338,1.107c-0.166,0.349-0.334,0.698-0.514,1.037c-0.225,0.312-0.426,0.644-0.674,0.933c-0.26,0.276-0.493,0.584-0.775,0.833
				c-0.537,0.529-1.113,1.012-1.664,1.499c-0.545,0.485-1.129,0.98-1.601,1.53l-0.737,0.824c-0.236,0.283-0.516,0.533-0.716,0.843
				l-0.62,0.916c-0.199,0.31-0.43,0.603-0.604,0.926l-0.482,0.994c-0.156,0.334-0.335,0.658-0.473,1.002l-0.71,2.114L114.953,23.572
				z"/>
		</g>
		<g>
			<path fill="#050500" d="M117.285,24.91l0.328-1.523c0.051-0.254,0.153-0.498,0.229-0.749l0.244-0.75
				c0.076-0.253,0.207-0.481,0.309-0.725l0.324-0.719c0.25-0.462,0.525-0.912,0.791-1.367c0.308-0.426,0.611-0.858,0.934-1.274
				c0.342-0.397,0.674-0.807,1.025-1.195c0.711-0.771,1.445-1.513,2.188-2.243l0.322-0.316l0.269,0.414l0.469,0.723
				c0.184,0.225,0.357,0.454,0.549,0.673c0.394,0.433,0.812,0.848,1.248,1.264c0.437,0.416,0.879,0.841,1.295,1.308
				c0.209,0.233,0.423,0.461,0.6,0.728l0.279,0.387c0.137,0.184,0.166,0.276,0.254,0.42c0.145,0.272,0.312,0.497,0.418,0.832
				c0.107,0.312,0.264,0.621,0.318,0.933c0.064,0.312,0.168,0.619,0.192,0.934c0.03,0.313,0.101,0.625,0.089,0.937
				c0.039,1.248-0.09,2.451-0.242,3.657h-0.1c-0.077-0.604-0.122-1.21-0.182-1.811c-0.049-0.6-0.104-1.195-0.205-1.773
				c-0.037-0.293-0.11-0.572-0.166-0.856c-0.043-0.287-0.162-0.549-0.241-0.822c-0.071-0.282-0.222-0.505-0.325-0.758
				c-0.092-0.239-0.291-0.506-0.432-0.764c-0.072-0.112-0.166-0.3-0.223-0.35l-0.26-0.342c-0.166-0.231-0.361-0.449-0.545-0.675
				c-0.375-0.445-0.79-0.873-1.199-1.318c-0.414-0.442-0.828-0.901-1.222-1.387c-0.192-0.246-0.37-0.509-0.556-0.762l-0.48-0.82
				l0.591,0.098c-0.77,0.691-1.527,1.393-2.257,2.116c-0.361,0.365-0.701,0.748-1.053,1.122c-0.332,0.39-0.641,0.797-0.968,1.192
				c-0.282,0.424-0.575,0.845-0.846,1.279l-0.356,0.681c-0.113,0.229-0.255,0.448-0.344,0.688l-0.281,0.715
				c-0.088,0.242-0.201,0.474-0.269,0.725l-0.417,1.5L117.285,24.91z"/>
		</g>
		<g>
			<g>
				<path fill="#050500" d="M86.305,23.604l-0.71-2.114c-0.138-0.344-0.316-0.668-0.473-1.002l-0.482-0.994
					c-0.175-0.323-0.405-0.616-0.604-0.926l-0.62-0.916c-0.2-0.31-0.479-0.56-0.716-0.843l-0.737-0.824
					c-0.472-0.55-1.056-1.045-1.601-1.53c-0.551-0.487-1.127-0.97-1.664-1.499c-0.282-0.249-0.516-0.557-0.775-0.833
					c-0.248-0.289-0.449-0.621-0.674-0.933c-0.18-0.339-0.348-0.688-0.514-1.037l-0.338-1.107l0.545-0.064
					c-0.004,0.517-0.065,1.03-0.219,1.513c-0.144,0.483-0.341,0.945-0.57,1.383c-0.454,0.879-1.007,1.687-1.57,2.474
					c-0.562,0.788-1.146,1.553-1.686,2.335c-0.537,0.781-1.037,1.583-1.33,2.436c-0.166,0.464-0.283,0.885-0.4,1.352
					c-0.115,0.458-0.216,0.92-0.3,1.386c-0.172,0.93-0.294,1.87-0.354,2.809c-0.059,0.938-0.051,1.88,0.07,2.788
					c0.057,0.453,0.146,0.899,0.283,1.316c0.127,0.424,0.332,0.795,0.561,1.127l-0.658-0.136l1.765-0.889l1.833-0.739
					c0.627-0.2,1.257-0.396,1.889-0.575c0.643-0.139,1.283-0.29,1.926-0.416c0.648-0.094,1.293-0.205,1.941-0.284
					c0.65-0.058,1.299-0.134,1.947-0.174c1.301-0.062,2.599-0.077,3.894-0.067l-0.249,0.241c0.07-1.532,0.152-3.065,0.255-4.604h0.1
					c0.069,1.539,0.116,3.083,0.153,4.629l0.006,0.228l-0.255,0.014c-1.286,0.071-2.567,0.166-3.839,0.308l-1.901,0.244
					c-0.63,0.1-1.252,0.231-1.878,0.345c-0.617,0.145-1.229,0.313-1.844,0.468l-1.801,0.594l-1.75,0.727l-1.691,0.854l-0.418,0.212
					l-0.24-0.347c-0.317-0.46-0.562-0.95-0.705-1.451c-0.157-0.499-0.248-1.003-0.303-1.504c-0.107-1.003-0.089-1.995-0.004-2.976
					c0.089-0.979,0.239-1.947,0.441-2.905c0.099-0.479,0.215-0.954,0.346-1.427c0.128-0.463,0.28-0.967,0.448-1.406
					c0.355-0.965,0.909-1.799,1.474-2.59c0.569-0.791,1.168-1.545,1.74-2.312c0.57-0.767,1.123-1.542,1.568-2.365
					c0.225-0.409,0.415-0.834,0.554-1.27c0.148-0.435,0.207-0.882,0.222-1.327l0.059-1.776l0.486,1.712l0.293,1.031
					c0.148,0.324,0.296,0.649,0.457,0.969c0.207,0.293,0.381,0.608,0.609,0.889c0.243,0.271,0.452,0.566,0.723,0.817
					c0.509,0.528,1.061,1.017,1.609,1.527c0.55,0.517,1.096,1.002,1.578,1.592l0.729,0.857c0.231,0.293,0.506,0.553,0.703,0.873
					l0.605,0.947c0.194,0.319,0.418,0.621,0.588,0.955l0.465,1.024c0.149,0.343,0.321,0.678,0.451,1.026l0.652,2.132L86.305,23.604z
					"/>
			</g>
			<g>
				<path fill="#050500" d="M83.969,24.934l-0.417-1.5c-0.067-0.251-0.181-0.482-0.269-0.725l-0.281-0.715
					c-0.089-0.24-0.23-0.459-0.344-0.688l-0.356-0.681c-0.271-0.435-0.563-0.855-0.846-1.279c-0.327-0.396-0.636-0.803-0.968-1.192
					c-0.352-0.374-0.691-0.757-1.053-1.122c-0.729-0.724-1.487-1.425-2.257-2.116l0.591-0.098l-0.48,0.82
					c-0.186,0.253-0.363,0.516-0.556,0.762c-0.394,0.485-0.808,0.944-1.222,1.387c-0.409,0.445-0.824,0.873-1.199,1.318
					c-0.184,0.226-0.379,0.443-0.545,0.675l-0.26,0.342c-0.057,0.05-0.15,0.237-0.223,0.35c-0.141,0.258-0.34,0.524-0.432,0.764
					c-0.104,0.253-0.254,0.476-0.325,0.758c-0.079,0.273-0.198,0.535-0.241,0.822c-0.056,0.284-0.129,0.563-0.166,0.856
					c-0.102,0.578-0.156,1.174-0.205,1.773c-0.06,0.601-0.104,1.206-0.182,1.811h-0.1c-0.152-1.206-0.281-2.409-0.242-3.657
					c-0.012-0.312,0.059-0.623,0.089-0.937c0.024-0.314,0.128-0.621,0.192-0.934c0.055-0.312,0.211-0.62,0.318-0.933
					c0.106-0.335,0.273-0.56,0.418-0.832c0.088-0.144,0.117-0.236,0.254-0.42l0.279-0.387c0.177-0.267,0.391-0.494,0.6-0.728
					c0.416-0.467,0.858-0.892,1.295-1.308c0.436-0.416,0.854-0.831,1.248-1.264c0.191-0.219,0.365-0.448,0.549-0.673l0.469-0.723
					l0.269-0.414l0.322,0.316c0.743,0.73,1.478,1.473,2.188,2.243c0.352,0.389,0.684,0.798,1.025,1.195
					c0.322,0.416,0.626,0.849,0.934,1.274c0.266,0.455,0.541,0.905,0.791,1.367l0.324,0.719c0.102,0.243,0.232,0.472,0.309,0.725
					l0.244,0.75c0.075,0.251,0.178,0.495,0.229,0.749l0.328,1.523L83.969,24.934z"/>
			</g>
		</g>
	</g>
	<g>
		<g>
			<g>
				<path fill="#FFFFFF" d="M71.458,205.322c-1.008,4.019-5.08,6.458-9.099,5.451l0,0c-4.019-1.007-6.458-5.08-5.451-9.099
					l3.647-14.55c1.007-4.019,5.08-6.458,9.098-5.451l0,0c4.02,1.007,6.459,5.08,5.451,9.099L71.458,205.322z"/>
				<path d="M71.518,205.339c0,0-0.078,0.292-0.262,0.828c-0.207,0.531-0.559,1.302-1.233,2.127
					c-0.674,0.814-1.675,1.688-3.054,2.26c-1.365,0.576-3.123,0.798-4.92,0.31c-1.78-0.457-3.573-1.691-4.651-3.562
					c-0.545-0.926-0.901-2.002-1.009-3.132c-0.135-1.118,0.082-2.337,0.374-3.399c1.056-4.394,2.183-9.079,3.31-13.766
					c0.105-0.342,0.155-0.583,0.276-0.9c0.126-0.305,0.237-0.627,0.397-0.901c0.279-0.582,0.666-1.104,1.078-1.598
					c0.84-0.978,1.931-1.722,3.113-2.202c1.184-0.484,2.485-0.647,3.736-0.526c0.316,0.016,0.622,0.089,0.93,0.146
					c0.379,0.068,0.581,0.16,0.879,0.238c0.283,0.095,0.595,0.233,0.887,0.354c0.27,0.148,0.551,0.279,0.809,0.446
					c2.064,1.329,3.438,3.534,3.664,5.767c0.135,1.108,0.013,2.217-0.26,3.202c-0.251,0.941-0.531,1.842-0.78,2.711
					c-1.005,3.475-1.886,6.359-2.415,8.4C71.834,204.175,71.518,205.339,71.518,205.339z M71.398,205.306
					c0,0,0.27-1.173,0.742-3.229c0.495-2.05,1.079-5.008,1.832-8.546c0.189-0.884,0.367-1.81,0.591-2.759
					c0.206-0.902,0.261-1.836,0.104-2.781c-0.295-1.878-1.42-3.739-3.183-4.834c-0.216-0.142-0.45-0.254-0.675-0.385
					c-0.234-0.095-0.441-0.201-0.7-0.293c-0.255-0.072-0.59-0.202-0.782-0.228c-0.26-0.049-0.519-0.119-0.785-0.133
					c-1.056-0.112-2.162-0.014-3.186,0.379c-2.066,0.742-3.746,2.56-4.318,4.748c-1.217,4.664-2.435,9.327-3.576,13.699
					c-0.322,1.106-0.514,2.11-0.419,3.167c0.081,1.036,0.386,2.03,0.852,2.909c0.935,1.772,2.563,3.002,4.257,3.505
					c1.687,0.532,3.402,0.381,4.749-0.144c1.369-0.505,2.37-1.361,3.024-2.169c0.664-0.811,1.01-1.57,1.211-2.086
					C71.319,205.597,71.398,205.306,71.398,205.306z"/>
			</g>
			<g>
				
					<ellipse transform="matrix(0.9786 0.206 -0.206 0.9786 43.7549 -8.5456)" fill="#020202" cx="62.919" cy="205.868" rx="7.5" ry="5"/>
				<path d="M70.319,207.428c0,0-0.044,0.151-0.125,0.431c-0.101,0.276-0.281,0.685-0.633,1.107
					c-0.681,0.867-2.075,1.759-3.948,2.108c-0.932,0.184-1.975,0.224-3.06,0.097c-0.272-0.043-0.538-0.069-0.829-0.128
					c-0.268-0.065-0.532-0.109-0.812-0.195c-0.564-0.162-1.123-0.349-1.666-0.609c-1.094-0.496-2.152-1.218-3.001-2.211
					c-0.821-1-1.438-2.339-1.144-3.844l0.119-0.449c0.051-0.159,0.139-0.345,0.212-0.515c0.168-0.327,0.353-0.621,0.586-0.885
					c0.453-0.531,1.005-0.952,1.591-1.274c1.18-0.632,2.469-0.909,3.7-0.961c1.228-0.025,2.442,0.134,3.479,0.465
					c1.107,0.334,2.035,0.835,2.824,1.418c1.586,1.152,2.461,2.621,2.686,3.714c0.125,0.545,0.123,0.986,0.093,1.281
					C70.345,207.27,70.319,207.428,70.319,207.428z M70.198,207.398c0,0,0.015-0.149,0.045-0.433
					c0.007-0.281,0.005-0.706-0.169-1.207c-0.154-0.503-0.473-1.074-0.977-1.603c-0.496-0.533-1.153-1.038-1.94-1.451
					c-0.78-0.409-1.708-0.747-2.655-0.977c-1.016-0.234-2.051-0.386-3.146-0.332c-1.086,0.014-2.203,0.239-3.206,0.706
					c-0.995,0.505-1.815,1.232-2.091,2.359c-0.227,0.968,0.16,2.15,0.854,3.027c0.706,0.894,1.646,1.601,2.647,2.1
					c0.495,0.262,1.02,0.456,1.521,0.624c0.533,0.169,1.051,0.287,1.555,0.386c1.022,0.187,2.016,0.206,2.922,0.114
					c0.908-0.092,1.725-0.331,2.393-0.659c0.675-0.316,1.187-0.745,1.514-1.167c0.342-0.414,0.512-0.797,0.609-1.063
					C70.156,207.544,70.198,207.398,70.198,207.398z"/>
			</g>
		</g>
		<g>
			<g>
				<path fill="#FFFFFF" d="M129.206,204.875c1.008,4.019,5.08,6.458,9.099,5.451l0,0c4.019-1.007,6.458-5.08,5.451-9.099
					l-3.647-14.55c-1.007-4.019-5.08-6.458-9.098-5.451l0,0c-4.02,1.007-6.459,5.08-5.451,9.099L129.206,204.875z"/>
				<path d="M129.266,204.858c0,0,0.079,0.291,0.262,0.822c0.201,0.516,0.547,1.275,1.211,2.086
					c0.654,0.808,1.655,1.664,3.024,2.169c1.347,0.524,3.062,0.676,4.749,0.144c1.693-0.503,3.322-1.732,4.257-3.505
					c0.466-0.879,0.771-1.873,0.852-2.909c0.095-1.057-0.097-2.061-0.419-3.167c-1.142-4.372-2.359-9.035-3.576-13.699
					c-0.572-2.188-2.252-4.006-4.318-4.748c-1.023-0.393-2.13-0.491-3.186-0.379c-0.267,0.014-0.525,0.084-0.785,0.133
					c-0.192,0.025-0.527,0.155-0.782,0.228c-0.259,0.092-0.466,0.198-0.7,0.293c-0.225,0.131-0.459,0.243-0.675,0.385
					c-1.763,1.095-2.888,2.956-3.183,4.834c-0.156,0.945-0.102,1.879,0.104,2.781c0.224,0.949,0.401,1.875,0.591,2.759
					c0.753,3.538,1.337,6.496,1.832,8.546C128.996,203.686,129.266,204.858,129.266,204.858z M129.146,204.892
					c0,0-0.316-1.164-0.869-3.199c-0.529-2.041-1.41-4.926-2.415-8.4c-0.249-0.869-0.529-1.77-0.78-2.711
					c-0.272-0.985-0.395-2.094-0.26-3.202c0.227-2.232,1.6-4.438,3.664-5.767c0.258-0.167,0.539-0.298,0.809-0.446
					c0.292-0.12,0.604-0.259,0.887-0.354c0.298-0.078,0.5-0.17,0.879-0.238c0.308-0.057,0.613-0.13,0.93-0.146
					c1.251-0.121,2.553,0.042,3.736,0.526c1.183,0.48,2.273,1.225,3.113,2.202c0.412,0.493,0.799,1.016,1.078,1.598
					c0.16,0.274,0.271,0.597,0.397,0.901c0.121,0.317,0.171,0.559,0.276,0.9c1.127,4.687,2.254,9.372,3.31,13.766
					c0.292,1.062,0.509,2.281,0.374,3.399c-0.107,1.13-0.464,2.206-1.009,3.132c-1.078,1.871-2.871,3.105-4.651,3.562
					c-1.797,0.488-3.555,0.267-4.92-0.31c-1.379-0.571-2.38-1.445-3.054-2.26c-0.675-0.825-1.026-1.596-1.233-2.127
					C129.225,205.184,129.146,204.892,129.146,204.892z"/>
			</g>
			<g>
				
					<ellipse transform="matrix(-0.9786 0.206 -0.206 -0.9786 314.8488 378.0634)" fill="#020202" cx="137.745" cy="205.421" rx="7.5" ry="5"/>
				<path d="M130.466,206.951c0,0,0.042,0.146,0.124,0.425c0.098,0.267,0.268,0.649,0.609,1.063
					c0.327,0.422,0.839,0.851,1.514,1.167c0.668,0.328,1.484,0.567,2.393,0.659c0.906,0.092,1.899,0.072,2.922-0.114
					c0.504-0.099,1.021-0.217,1.555-0.386c0.502-0.168,1.026-0.362,1.521-0.624c1.001-0.499,1.941-1.206,2.647-2.1
					c0.694-0.877,1.081-2.06,0.854-3.027c-0.275-1.127-1.096-1.854-2.091-2.359c-1.003-0.467-2.12-0.692-3.206-0.706
					c-1.096-0.054-2.131,0.098-3.146,0.332c-0.947,0.229-1.875,0.567-2.655,0.977c-0.787,0.413-1.444,0.918-1.94,1.451
					c-0.504,0.528-0.822,1.1-0.977,1.603c-0.174,0.501-0.176,0.926-0.169,1.207C130.451,206.802,130.466,206.951,130.466,206.951z
					 M130.345,206.98c0,0-0.025-0.158-0.072-0.45c-0.03-0.295-0.032-0.736,0.093-1.281c0.225-1.093,1.1-2.562,2.686-3.714
					c0.789-0.583,1.717-1.084,2.824-1.418c1.037-0.331,2.252-0.49,3.479-0.465c1.231,0.052,2.521,0.329,3.7,0.961
					c0.586,0.322,1.138,0.743,1.591,1.274c0.233,0.264,0.418,0.558,0.586,0.885c0.073,0.17,0.161,0.355,0.212,0.515l0.119,0.449
					c0.294,1.505-0.322,2.844-1.144,3.844c-0.849,0.993-1.907,1.715-3.001,2.211c-0.543,0.261-1.102,0.447-1.666,0.609
					c-0.28,0.086-0.545,0.13-0.812,0.195c-0.291,0.059-0.557,0.085-0.829,0.128c-1.085,0.127-2.128,0.087-3.06-0.097
					c-1.873-0.35-3.268-1.241-3.948-2.108c-0.352-0.423-0.532-0.831-0.633-1.107C130.389,207.132,130.345,206.98,130.345,206.98z"/>
			</g>
		</g>
	</g>
	
		<ellipse fill="#FCFCFC" stroke="#020200" stroke-width="0.9428" stroke-miterlimit="10" cx="100.002" cy="110.508" rx="79.999" ry="88.508"/>
	<g>
		<path fill="#0A0A07" d="M85.297,25.125c0.888-5.64,10.397-11.845,16.339-9.341c5.64,2.376,6.484,12.285,6.44,17.466
			c-1.796-2.373-3.795-4.337-5.645-6.582c-0.538,2.901,1.912,4.543,1.329,7.462c-1.159-2.658-3.966-4.466-5.285-7.154
			c-0.523,2.111-0.314,5.109-0.294,7.584c-0.992-3.008-2.78-4.878-4.321-7.468c0.242,1.422-0.06,2.785-0.409,3.989
			c-1.16-2.357-0.863-6.985-2.994-8.826c-2.646-2.286-3.331,0.019-5.16,0.846"/>
		<path fill="#050500" d="M85.248,25.113c0.1-0.409,0.151-0.828,0.29-1.229c0.166-0.39,0.276-0.818,0.495-1.184
			c0.384-0.761,0.863-1.473,1.4-2.135c0.537-0.666,1.142-1.271,1.773-1.849l0.988-0.82l1.053-0.74
			c0.726-0.458,1.469-0.897,2.258-1.253c0.382-0.206,0.799-0.333,1.205-0.485c0.403-0.163,0.824-0.276,1.25-0.378l0.635-0.162
			l0.653-0.096c0.435-0.073,0.874-0.123,1.321-0.111l0.668-0.009c0.224,0.01,0.447,0.051,0.671,0.076l0.672,0.088
			c0.22,0.054,0.438,0.127,0.657,0.19c0.238,0.077,0.391,0.107,0.702,0.227l0.562,0.285c0.37,0.153,0.762,0.448,1.148,0.739
			c0.757,0.581,1.329,1.263,1.86,1.994c0.263,0.363,0.469,0.757,0.704,1.136c0.214,0.388,0.39,0.791,0.585,1.188
			c0.351,0.806,0.639,1.632,0.873,2.468c0.47,1.672,0.766,3.372,0.959,5.076c0.192,1.705,0.28,3.414,0.281,5.127l0.002,2.271
			l-1.508-1.772l-2.764-3.251l-2.9-3.271l1.563-0.404c-0.01,0.26-0.025,0.516-0.048,0.773c-0.009,0.129,0.035,0.26,0.049,0.39
			l0.052,0.392c0.062,0.267,0.161,0.54,0.237,0.812l0.336,0.861c0.12,0.313,0.245,0.618,0.361,0.938l0.154,0.516
			c0.046,0.175,0.112,0.337,0.139,0.523l0.074,0.562c0.016,0.188,0.062,0.373,0.049,0.562l-0.104,1.14l-0.257,2.813l-1.379-2.638
			l-0.461-0.88l-0.584-0.849c-0.434-0.553-0.902-1.104-1.396-1.654c-0.5-0.553-0.996-1.132-1.484-1.736l-0.693-0.965l-0.602-1.059
			l1.51-0.162l-0.139,0.871c-0.039,0.294-0.111,0.574-0.127,0.88c-0.026,0.613-0.065,1.222-0.083,1.841l0.022,3.792l0.023,3.954
			l-1.489-3.713l-0.764-1.903c-0.15-0.311-0.339-0.607-0.506-0.912l-0.516-0.911l-1.172-1.803l-1.16-1.87l1.095-0.403l0.073,1.103
			c-0.015,0.362-0.056,0.722-0.085,1.082c-0.057,0.353-0.137,0.696-0.204,1.044c-0.087,0.339-0.187,0.67-0.28,1.005l-0.389,1.395
			l-0.575-1.31c-0.574-1.307-0.721-2.607-0.92-3.875c-0.195-1.264-0.384-2.525-0.868-3.656c-0.129-0.274-0.262-0.553-0.441-0.792
			c-0.162-0.257-0.372-0.463-0.6-0.666c-0.245-0.222-0.488-0.396-0.74-0.556c-0.264-0.141-0.538-0.278-0.826-0.304
			c-0.584-0.103-1.146,0.244-1.647,0.624c-0.507,0.383-1.021,0.805-1.625,1.061l-0.041-0.092c0.577-0.268,1.063-0.691,1.563-1.098
			c0.249-0.204,0.514-0.398,0.81-0.541c0.291-0.15,0.632-0.22,0.96-0.183c0.666,0.065,1.24,0.455,1.73,0.856
			c0.248,0.206,0.494,0.433,0.678,0.701c0.204,0.255,0.355,0.545,0.503,0.833c0.555,1.179,0.786,2.463,1.026,3.723
			c0.244,1.257,0.426,2.549,0.963,3.705l-0.121,0.011c0.084-0.324,0.174-0.648,0.252-0.975c0.058-0.329,0.128-0.658,0.174-0.988
			c0.02-0.333,0.053-0.667,0.062-1l-0.084-0.996l-0.024-0.285l0.152,0.238c0.771,1.214,1.57,2.413,2.387,3.604l0.555,0.933
			c0.18,0.314,0.38,0.617,0.544,0.939l0.851,2.002l-0.152,0.025l-0.059-3.805c0.013-0.635,0.049-1.271,0.072-1.906
			c0.014-0.317,0.088-0.632,0.129-0.947l0.146-0.947l0.036-0.23l0.124,0.214l0.552,0.957l0.653,0.896
			c0.47,0.572,0.955,1.133,1.459,1.682c0.501,0.55,0.988,1.114,1.455,1.7c0.221,0.304,0.43,0.615,0.645,0.923l0.53,0.996
			l-0.179,0.02l0.079-0.939c0.015-0.156-0.032-0.312-0.046-0.468l-0.062-0.468c-0.146-0.614-0.365-1.212-0.615-1.802
			c-0.251-0.592-0.478-1.199-0.637-1.832l-0.071-0.485c-0.016-0.162-0.061-0.323-0.053-0.486l0.071-0.98l0.017-0.225l0.156,0.18
			l2.852,3.261l2.789,3.329l-0.162,0.054c0.011-1.678-0.064-3.356-0.24-5.024c-0.178-1.667-0.455-3.326-0.896-4.943
			c-0.223-0.808-0.494-1.601-0.809-2.375c-0.18-0.378-0.339-0.766-0.533-1.135c-0.216-0.357-0.402-0.734-0.641-1.076
			c-0.475-0.683-1.011-1.336-1.66-1.851c-0.326-0.254-0.643-0.521-1.032-0.694l-0.558-0.296l-0.587-0.191
			c-0.198-0.061-0.395-0.133-0.595-0.186l-0.619-0.092c-0.206-0.026-0.411-0.069-0.619-0.083l-0.625-0.001
			c-0.418-0.021-0.834,0.02-1.248,0.082l-0.621,0.077l-0.611,0.145c-0.408,0.09-0.814,0.19-1.205,0.341
			c-0.396,0.138-0.798,0.257-1.175,0.442c-0.774,0.318-1.511,0.722-2.233,1.145l-1.051,0.688l-0.993,0.77
			c-0.636,0.545-1.249,1.117-1.797,1.752c-0.548,0.632-1.04,1.312-1.442,2.047c-0.228,0.353-0.342,0.758-0.52,1.134
			c-0.15,0.388-0.218,0.81-0.33,1.213L85.248,25.113z"/>
	</g>
	<g>
		<g>
			<ellipse fill="none" stroke="#020200" stroke-width="0.8" stroke-miterlimit="10" cx="70.178" cy="62.726" rx="12.8" ry="12"/>
			
				<ellipse fill="#020200" stroke="#020200" stroke-width="0.4382" stroke-miterlimit="10" cx="70.178" cy="62.726" rx="7.199" ry="6.4"/>
		</g>
		<g>
			<ellipse fill="none" stroke="#020200" stroke-width="0.8" stroke-miterlimit="10" cx="122.178" cy="61.925" rx="12.8" ry="12"/>
			
				<ellipse fill="#020200" stroke="#020200" stroke-width="0.4382" stroke-miterlimit="10" cx="122.178" cy="61.925" rx="7.199" ry="6.4"/>
		</g>
	</g>
	<path fill="#FCFCFC" stroke="#020200" stroke-width="1.2127" stroke-miterlimit="10" d="M170,153.403
		c-11.093-16.396-38.332-27.993-70.201-27.993c-32.451,0-60.113,12.02-70.806,28.889c16.397,27.968,41.767,45.914,70.245,45.914
		C128.02,200.213,153.622,181.881,170,153.403z"/>
	<g>
		<g>
			<path fill="#FDFDFE" d="M70,74.296c0,0-2.709,30.374,0,40.001c1.587,5.641,6.989,17.363,12.223,20c4.093,2.062,18.334,0,18.334,0
				c-3.422-0.663,18.172,0.129,18.334,0c5.985-4.771,6.091-22.347,6.11-30.001c0.019-7.5,0-30,0-30"/>
			<path fill="#050500" d="M70.078,74.303c-0.355,6.863-0.537,13.737-0.482,20.593c-0.008,1.714,0.002,3.425,0.038,5.135
				c0.046,1.708,0.082,3.419,0.201,5.116c0.092,1.7,0.249,3.392,0.466,5.057c0.148,0.816,0.209,1.678,0.428,2.454l0.283,1.186
				c0.089,0.357,0.252,0.804,0.375,1.201c0.529,1.544,1.188,3.126,1.881,4.653c0.682,1.541,1.42,3.06,2.232,4.53
				c0.809,1.47,1.667,2.915,2.633,4.255c0.961,1.338,2.006,2.62,3.18,3.618c0.585,0.479,1.211,0.932,1.809,1.142
				c0.434,0.191,0.743,0.226,1.06,0.295c0.284,0.086,0.755,0.111,1.124,0.172c1.594,0.175,3.275,0.176,4.95,0.126
				c3.355-0.108,6.765-0.486,10.101-0.923l-0.065,2.759c-0.161-0.041-0.212-0.027-0.573-0.161l-0.074-0.031
				c-0.072-0.034-0.145-0.076-0.213-0.122c-0.068-0.047-0.134-0.099-0.193-0.154c0.053,0.098-0.529-0.553-0.44-1.071
				c0.067-0.61,0.199-0.662,0.312-0.844c0.134-0.166,0.312-0.305,0.483-0.39c0.104-0.05,0.149-0.064,0.23-0.092l0.109-0.032
				l0.047-0.01l0.092-0.019l0.145-0.022c0.316-0.039,0.525-0.044,0.758-0.055l1.305-0.021l2.539,0.022l5.041,0.117l5.027,0.146
				l2.505,0.068l1.222,0.021l0.118-0.001c0.028-0.001,0.012-0.001-0.013,0.002c0.059-0.003-0.064-0.006-0.294,0.072
				c-0.079-0.026-0.521,0.354-0.427,0.275l0.029-0.027l0.225-0.219l0.45-0.438c0.134-0.145,0.338-0.296,0.413-0.435l0.281-0.415
				c0.188-0.281,0.4-0.512,0.569-0.882l0.54-1.015l0.447-1.091c0.324-0.713,0.509-1.51,0.768-2.265
				c0.207-0.78,0.406-1.566,0.582-2.36c0.334-1.598,0.59-3.219,0.814-4.853c0.229-1.633,0.396-3.281,0.527-4.936
				c0.539-6.611,0.455-13.334,0.643-20.034l0.638-20.106h0.156l0.02,20.107l0.009,10.054c-0.004,3.352-0.052,6.706-0.264,10.055
				c-0.102,1.674-0.238,3.347-0.44,5.014c-0.187,1.668-0.456,3.326-0.782,4.974c-0.355,1.642-0.764,3.279-1.381,4.849
				c-0.559,1.578-1.41,3.105-2.551,4.354l-0.447,0.441l-0.224,0.221l-0.028,0.027c-0.016,0.029-0.121,0.054-0.117,0.049
				l-0.088,0.005l-0.161,0.004l-1.261-0.012l-2.514-0.053l-5.025-0.111l-5.023-0.083l-2.511-0.005l-1.251,0.028
				c-0.207,0.01-0.416,0.02-0.611,0.045c-0.048,0.006-0.1,0.016-0.128,0.024l-0.016,0.004c0.034-0.024,0.038-0.012,0.063-0.106
				c-0.033-0.141-0.05-0.092-0.043-0.105c-0.006-0.004-0.007-0.002,0.008,0.002c0.068,0.027,0.178,0.049,0.273,0.068l0.889,0.186
				l-0.896,0.12c-3.412,0.459-6.839,0.79-10.283,0.885c-1.721,0.038-3.448,0.029-5.168-0.171c-0.844-0.114-1.748-0.248-2.54-0.576
				c-0.827-0.312-1.534-0.847-2.201-1.398c-1.315-1.138-2.397-2.5-3.394-3.905c-0.998-1.407-1.869-2.898-2.688-4.412
				c-1.628-3.035-3.013-6.196-4.093-9.474c-0.539-1.636-0.822-3.356-1.031-5.061c-0.191-1.712-0.316-3.429-0.377-5.147
				c-0.087-1.719-0.09-3.438-0.104-5.157c-0.002-1.72,0.017-3.438,0.062-5.156c0.173-6.874,0.581-13.738,1.161-20.588L70.078,74.303
				z"/>
		</g>
		<g>
			<ellipse fill="#FCFCFC" cx="100" cy="130.213" rx="20" ry="10"/>
			<path fill="#020200" d="M120.058,130.219c0,0-0.022,0.378-0.108,1.082c-0.182,0.694-0.502,1.734-1.367,2.775
				c-0.846,1.042-2.113,2.098-3.736,3.008c-1.62,0.919-3.588,1.676-5.785,2.32c-2.203,0.628-4.662,1.067-7.289,1.262
				c-0.662,0.031-1.314,0.085-2.012,0.099c-0.67-0.001-1.34,0.018-2.031-0.001c-1.401-0.047-2.822-0.146-4.256-0.349
				c-2.861-0.414-5.84-1.114-8.603-2.608c-1.385-0.719-2.735-1.62-3.86-2.862c-1.117-1.212-2.031-2.877-2.047-4.731l0.009-0.139
				l0.004-0.035l0.009-0.071L79,129.827l0.031-0.282c0.032-0.199,0.019-0.35,0.088-0.59c0.139-0.451,0.252-0.969,0.457-1.351
				c0.376-0.799,0.875-1.503,1.436-2.121c1.125-1.241,2.476-2.143,3.859-2.862c2.762-1.494,5.743-2.187,8.604-2.604
				c5.74-0.783,11.175-0.233,15.586,1.008c2.196,0.644,4.166,1.397,5.785,2.318c1.622,0.91,2.891,1.966,3.736,3.007
				c0.865,1.042,1.184,2.082,1.366,2.769c0.088,0.712,0.11,1.095,0.109,1.095V130.219z M119.942,130.213
				c0,0-0.027-0.374-0.121-1.067c-0.188-0.669-0.509-1.678-1.37-2.688c-0.842-1.011-2.104-2.034-3.717-2.912
				c-1.611-0.882-3.564-1.63-5.76-2.182c-4.385-1.093-9.771-1.463-15.361-0.524c-2.775,0.499-5.645,1.261-8.248,2.692
				c-1.303,0.696-2.549,1.561-3.537,2.681c-0.99,1.113-1.705,2.483-1.713,4.001c0.004,1.495,0.725,2.901,1.714,4.001
				c0.987,1.12,2.233,1.984,3.536,2.68c2.604,1.433,5.473,2.193,8.248,2.693c5.584,0.938,10.979,0.568,15.361-0.524
				c2.195-0.552,4.148-1.3,5.76-2.182c1.613-0.878,2.875-1.901,3.717-2.912c0.861-1.011,1.182-2.021,1.369-2.683
				c0.096-0.699,0.123-1.079,0.122-1.079V130.213z"/>
		</g>
		<g>
			<path fill="#050500" d="M85.039,129.393c0,0,0.41,0.317,1.129,0.872c0.721,0.551,1.773,1.31,3.066,2.16
				c0.657,0.409,1.371,0.847,2.156,1.229c0.381,0.203,0.818,0.317,1.199,0.475c0.461,0.088,0.932,0.177,1.41,0.269
				c0.951,0.109,1.914,0.229,2.935,0.261c1.009,0.073,2.04,0.049,3.067,0.062c1.025-0.054,2.055-0.062,3.054-0.181
				c1.007-0.075,1.973-0.234,2.903-0.382c0.447-0.103,0.888-0.202,1.318-0.301c0.324-0.144,0.855-0.33,1.195-0.515
				c0.723-0.369,1.439-0.793,2.105-1.187c0.648-0.415,1.27-0.764,1.793-1.114c0.533-0.341,0.997-0.637,1.38-0.881
				c0.771-0.488,1.21-0.767,1.21-0.767l0.078,0.094c0,0-0.355,0.387-1.023,1.012c-0.327,0.321-0.738,0.694-1.227,1.104
				c-0.48,0.418-1.036,0.879-1.659,1.361c-0.321,0.232-0.654,0.475-1,0.726c-0.352,0.245-0.767,0.48-1.17,0.731
				c-0.431,0.262-0.771,0.389-1.302,0.617c-0.479,0.122-0.97,0.246-1.469,0.372c-0.994,0.129-2.021,0.269-3.058,0.278
				c-1.038,0.065-2.089,0.015-3.138,0.011c-1.047-0.06-2.094-0.081-3.121-0.202c-1.023-0.076-2.052-0.248-3.027-0.408
				c-0.473-0.111-0.938-0.222-1.395-0.329c-0.48-0.202-0.93-0.354-1.324-0.593c-0.797-0.448-1.494-0.935-2.135-1.389
				c-1.256-0.937-2.265-1.758-2.954-2.353c-0.686-0.598-1.077-0.939-1.077-0.939L85.039,129.393z"/>
		</g>
	</g>
	<g>
		<g>
			<g>
				<path fill="#FFFFFF" d="M65.017,150.643c1.458,3.687,0.334,8.205-2.513,10.096l0,0c-2.846,1.89-6.335,0.433-7.794-3.254
					l-5.283-13.348c-1.46-3.688-0.335-8.206,2.511-10.096l0,0c2.848-1.89,6.337-0.434,7.795,3.253L65.017,150.643z"/>
				<path d="M65.068,150.623c0,0,0.09,0.263,0.256,0.752c0.137,0.504,0.324,1.249,0.371,2.221c0.043,0.969-0.05,2.16-0.438,3.462
					c-0.424,1.272-1.164,2.716-2.556,3.726c-0.675,0.488-1.534,0.885-2.462,0.965c-0.93,0.087-1.916-0.115-2.796-0.58
					c-0.875-0.476-1.63-1.2-2.208-2.058c-0.598-0.86-0.94-1.86-1.333-2.801c-1.561-3.84-3.226-7.935-4.891-12.03
					c-0.852-2.12-0.927-4.586-0.216-6.764c0.365-1.089,0.926-2.123,1.711-2.975c0.404-0.418,0.832-0.796,1.348-1.101l0.339-0.2
					l0.417-0.188c0.28-0.139,0.559-0.19,0.838-0.28c1.138-0.24,2.344-0.101,3.332,0.395c1,0.475,1.819,1.21,2.395,2.05
					c0.594,0.819,0.969,1.779,1.258,2.595c0.316,0.835,0.591,1.653,0.87,2.433c1.112,3.12,2.003,5.735,2.7,7.536
					C64.681,149.589,65.068,150.623,65.068,150.623z M64.965,150.662c0,0-0.425-1.018-1.17-2.8c-0.725-1.79-1.865-4.307-3.189-7.343
					c-0.33-0.76-0.689-1.544-1.029-2.369c-0.343-0.85-0.686-1.611-1.236-2.315c-0.534-0.696-1.228-1.284-2.028-1.663
					c-0.799-0.391-1.727-0.478-2.608-0.288c-1.819,0.411-3.252,2.039-3.93,3.965c-0.676,1.938-0.684,4.145,0.066,6.144
					c1.584,4.113,3.168,8.227,4.654,12.084c0.383,0.972,0.691,1.924,1.225,2.715c0.521,0.8,1.195,1.473,1.971,1.939
					c0.783,0.448,1.666,0.665,2.518,0.617c0.86-0.048,1.64-0.366,2.318-0.818c1.355-0.903,2.129-2.284,2.578-3.522
					c0.431-1.265,0.533-2.449,0.482-3.405c-0.046-0.961-0.232-1.698-0.365-2.191C65.055,150.922,64.965,150.662,64.965,150.662z"/>
			</g>
			<g>
				<path fill="#020202" d="M65.383,153.005c1.045,2.409-0.369,6.004-3.157,8.032c-2.788,2.029-5.896,1.723-6.939-0.686
					c-1.045-2.408,0.37-6.004,3.156-8.032C61.232,150.29,64.339,150.598,65.383,153.005z"/>
				<path d="M65.436,152.989c0,0,0.037,0.13,0.109,0.373c0.068,0.243,0.207,0.591,0.2,1.08c0.064,0.483-0.025,1.056-0.11,1.717
					c-0.088,0.322-0.183,0.664-0.282,1.025c-0.147,0.345-0.303,0.708-0.465,1.087c-0.202,0.358-0.431,0.725-0.667,1.105
					c-0.285,0.343-0.574,0.707-0.895,1.061c-0.36,0.313-0.704,0.664-1.12,0.961c-0.38,0.281-0.863,0.562-1.335,0.778
					c-0.959,0.434-2.092,0.692-3.249,0.487c-1.157-0.19-2.251-1.021-2.737-2.138c-0.459-1.031-0.486-2.372-0.264-3.462
					c0.158-0.545,0.279-1.107,0.545-1.596c0.21-0.52,0.507-0.979,0.809-1.426c0.285-0.46,0.693-0.812,1.024-1.206
					c0.382-0.36,0.764-0.657,1.183-0.977c0.371-0.245,0.81-0.492,1.25-0.674c0.428-0.183,0.863-0.312,1.289-0.387
					c0.848-0.161,1.658-0.128,2.328,0.063c0.67,0.193,1.189,0.531,1.535,0.872c0.703,0.69,0.824,1.268,0.85,1.248L65.436,152.989z
					 M65.332,153.026c0,0-0.063-0.116-0.184-0.335c-0.129-0.209-0.339-0.516-0.697-0.803c-0.352-0.291-0.866-0.545-1.49-0.617
					c-0.619-0.081-1.332,0-2.049,0.255c-0.361,0.117-0.716,0.305-1.074,0.497c-0.35,0.194-0.68,0.426-1.07,0.712
					c-0.291,0.277-0.66,0.574-0.981,0.886c-0.282,0.359-0.644,0.67-0.882,1.082c-0.274,0.389-0.553,0.784-0.744,1.232
					c-0.248,0.426-0.371,0.899-0.535,1.367c-0.215,0.981-0.289,1.873,0.062,2.875c0.359,0.889,1.141,1.544,2.086,1.748
					c0.942,0.207,1.957,0.032,2.846-0.332c0.455-0.191,0.848-0.395,1.265-0.676c0.386-0.256,0.729-0.577,1.091-0.846
					c0.322-0.314,0.617-0.642,0.912-0.952c0.248-0.348,0.49-0.684,0.721-1.006c0.187-0.353,0.365-0.69,0.535-1.012
					c0.118-0.345,0.23-0.672,0.335-0.979c0.132-0.634,0.229-1.204,0.158-1.666c0.011-0.467-0.128-0.82-0.196-1.063
					c-0.071-0.243-0.109-0.373-0.109-0.373L65.332,153.026z"/>
			</g>
		</g>
		<g>
			<g>
				<path fill="#FFFFFF" d="M135.497,147.643c-1.458,3.687-0.334,8.205,2.513,10.096l0,0c2.846,1.89,6.335,0.433,7.794-3.254
					l5.283-13.348c1.46-3.688,0.335-8.206-2.511-10.096l0,0c-2.848-1.89-6.337-0.434-7.795,3.253L135.497,147.643z"/>
				<path d="M135.549,147.662c0,0-0.09,0.26-0.256,0.748c-0.133,0.493-0.319,1.23-0.365,2.191c-0.051,0.956,0.052,2.141,0.482,3.405
					c0.449,1.238,1.223,2.619,2.578,3.522c0.679,0.452,1.458,0.771,2.318,0.818c0.852,0.048,1.734-0.169,2.518-0.617
					c0.775-0.467,1.449-1.14,1.971-1.939c0.533-0.791,0.842-1.743,1.225-2.715c1.486-3.857,3.07-7.971,4.654-12.084
					c0.75-1.999,0.742-4.206,0.066-6.144c-0.678-1.926-2.11-3.554-3.93-3.965c-0.882-0.189-1.81-0.103-2.608,0.288
					c-0.801,0.379-1.494,0.967-2.028,1.663c-0.551,0.704-0.894,1.466-1.236,2.315c-0.34,0.825-0.699,1.609-1.029,2.369
					c-1.324,3.036-2.465,5.553-3.189,7.343C135.974,146.645,135.549,147.662,135.549,147.662z M135.445,147.623
					c0,0,0.388-1.034,1.064-2.844c0.697-1.801,1.588-4.416,2.7-7.536c0.279-0.779,0.554-1.598,0.87-2.433
					c0.289-0.815,0.664-1.775,1.258-2.595c0.575-0.84,1.395-1.575,2.395-2.05c0.988-0.495,2.194-0.635,3.332-0.395
					c0.279,0.09,0.558,0.142,0.838,0.28l0.417,0.188l0.339,0.2c0.516,0.305,0.943,0.683,1.348,1.101
					c0.785,0.852,1.346,1.886,1.711,2.975c0.711,2.178,0.636,4.644-0.216,6.764c-1.665,4.096-3.33,8.19-4.891,12.03
					c-0.393,0.94-0.735,1.94-1.333,2.801c-0.578,0.857-1.333,1.582-2.208,2.058c-0.88,0.465-1.866,0.667-2.796,0.58
					c-0.928-0.08-1.787-0.477-2.462-0.965c-1.392-1.01-2.132-2.453-2.556-3.726c-0.388-1.302-0.48-2.493-0.438-3.462
					c0.047-0.972,0.234-1.717,0.371-2.221C135.355,147.886,135.445,147.623,135.445,147.623z"/>
			</g>
			<g>
				<path fill="#020202" d="M135.131,150.005c-1.045,2.409,0.369,6.004,3.157,8.032c2.788,2.029,5.896,1.723,6.939-0.686
					c1.045-2.408-0.37-6.004-3.156-8.032C139.281,147.29,136.175,147.598,135.131,150.005z"/>
				<path d="M135.184,150.021c0,0-0.038,0.13-0.109,0.373c-0.068,0.243-0.207,0.597-0.196,1.063
					c-0.071,0.462,0.026,1.032,0.158,1.666c0.104,0.308,0.217,0.635,0.335,0.979c0.17,0.321,0.349,0.659,0.535,1.012
					c0.23,0.322,0.473,0.658,0.721,1.006c0.295,0.311,0.59,0.638,0.912,0.952c0.362,0.269,0.705,0.59,1.091,0.846
					c0.417,0.281,0.81,0.484,1.265,0.676c0.889,0.364,1.903,0.539,2.846,0.332c0.945-0.204,1.727-0.859,2.086-1.748
					c0.352-1.002,0.277-1.894,0.062-2.875c-0.164-0.468-0.287-0.941-0.535-1.367c-0.191-0.448-0.47-0.844-0.744-1.232
					c-0.238-0.412-0.6-0.723-0.882-1.082c-0.321-0.312-0.69-0.608-0.981-0.886c-0.391-0.286-0.721-0.518-1.07-0.712
					c-0.358-0.192-0.713-0.38-1.074-0.497c-0.717-0.255-1.43-0.336-2.049-0.255c-0.624,0.072-1.139,0.326-1.49,0.617
					c-0.358,0.287-0.568,0.594-0.697,0.803c-0.12,0.219-0.184,0.335-0.184,0.335L135.184,150.021z M135.08,149.982L135.08,149.982
					c0.025,0.021,0.146-0.557,0.85-1.247c0.346-0.341,0.865-0.679,1.535-0.872c0.67-0.191,1.48-0.225,2.328-0.063
					c0.426,0.075,0.861,0.204,1.289,0.387c0.44,0.182,0.879,0.429,1.25,0.674c0.419,0.319,0.801,0.616,1.183,0.977
					c0.331,0.395,0.739,0.746,1.024,1.206c0.302,0.447,0.599,0.906,0.809,1.426c0.266,0.488,0.387,1.051,0.545,1.596
					c0.223,1.09,0.195,2.431-0.264,3.462c-0.486,1.116-1.58,1.947-2.737,2.138c-1.157,0.205-2.29-0.054-3.249-0.487
					c-0.472-0.216-0.955-0.497-1.335-0.778c-0.416-0.297-0.76-0.647-1.12-0.961c-0.32-0.354-0.609-0.718-0.895-1.061
					c-0.236-0.381-0.465-0.747-0.667-1.105c-0.162-0.379-0.317-0.742-0.465-1.087c-0.1-0.361-0.194-0.703-0.282-1.025
					c-0.085-0.661-0.175-1.233-0.11-1.717c-0.007-0.489,0.132-0.837,0.2-1.08c0.072-0.243,0.109-0.373,0.109-0.373L135.08,149.982z"
					/>
			</g>
		</g>
	</g>
</g>
</svg>
