<?xml version="1.0" encoding="utf-8"?>
<!-- Generator: Adobe Illustrator 16.0.0, SVG Export Plug-In . SVG Version: 6.00 Build 0)  -->
<!DOCTYPE svg PUBLIC "-//W3C//DTD SVG 1.1//EN" "http://www.w3.org/Graphics/SVG/1.1/DTD/svg11.dtd">
<svg version="1.1" id="Layer_1" xmlns="http://www.w3.org/2000/svg" xmlns:xlink="http://www.w3.org/1999/xlink" x="0px" y="0px"
	 width="200px" height="225px" viewBox="0 0 200 225" enable-background="new 0 0 200 225" xml:space="preserve">
<g id="Ext">
</g>
<g id="Guides">
</g>
<g id="_x31_2_Col_Grid_1_" display="none" enable-background="new    ">
	<g id="Rectangle_xA0_Image_23_" display="inline" opacity="0.102">
	</g>
	<g id="Rectangle_xA0_Image_21_" display="inline" opacity="0.102">
	</g>
	<g id="Rectangle_xA0_Image_19_" display="inline" opacity="0.102">
	</g>
	<g id="Rectangle_xA0_Image_17_" display="inline" opacity="0.102">
	</g>
	<g id="Rectangle_xA0_Image_15_" display="inline" opacity="0.102">
	</g>
	<g id="Rectangle_xA0_Image_13_" display="inline" opacity="0.102">
	</g>
	<g id="Rectangle_xA0_Image_11_" display="inline" opacity="0.102">
	</g>
	<g id="Rectangle_xA0_Image_9_" display="inline" opacity="0.102">
	</g>
	<g id="Rectangle_xA0_Image_7_" display="inline" opacity="0.102">
	</g>
	<g id="Rectangle_xA0_Image_5_" display="inline" opacity="0.102">
	</g>
	<g id="Rectangle_xA0_Image_3_" display="inline" opacity="0.102">
	</g>
	<g id="Rectangle_xA0_Image_1_" display="inline" opacity="0.102">
	</g>
</g>
<g id="Bg">
</g>
<g id="main">
	<g id="Progress">
	</g>
	<g id="Text">
	</g>
</g>
<g id="pane">
</g>
<g>
	
		<ellipse transform="matrix(-0.5322 -0.8466 0.8466 -0.5322 47.8069 161.4164)" fill="#894231" stroke="#000000" stroke-width="0.9428" stroke-miterlimit="10" cx="68.5" cy="67.5" rx="12.5" ry="13.5"/>
	<path fill="#FCFCFC" stroke="#020200" stroke-width="0.8385" stroke-miterlimit="10" d="M74.429,62.789
		c0.178,0.21,0.349,0.431,0.499,0.67c1.959,3.117,0.669,7.454-2.881,9.686c-3.551,2.232-8.018,1.514-9.978-1.603
		c-0.151-0.24-0.277-0.488-0.387-0.741l-5.019,3.155c0.131,0.243,0.257,0.49,0.407,0.729c3.674,5.844,11.769,7.367,18.082,3.398
		s8.451-11.923,4.777-17.768c-0.15-0.238-0.317-0.458-0.481-0.681L74.429,62.789z"/>
	<path stroke="#020200" stroke-width="0.4593" stroke-miterlimit="10" d="M61.684,70.8c0.111,0.253,0.237,0.5,0.388,0.74
		c1.959,3.118,6.426,3.835,9.977,1.604s4.841-6.569,2.882-9.686c-0.151-0.24-0.321-0.459-0.5-0.67L61.684,70.8z"/>
	<g>
		
			<ellipse transform="matrix(0.3922 -0.9199 0.9199 0.3922 13.5803 155.5529)" fill="#894231" stroke="#000000" stroke-width="0.9428" stroke-miterlimit="10" cx="124.5" cy="67.5" rx="12.5" ry="13.5"/>
		<path fill="#FCFCFC" stroke="#020200" stroke-width="0.8385" stroke-miterlimit="10" d="M131.751,69.686
			c-0.071,0.266-0.155,0.531-0.267,0.792c-1.444,3.387-5.742,4.799-9.6,3.154c-3.858-1.645-5.816-5.724-4.372-9.111
			c0.111-0.261,0.243-0.505,0.388-0.74l-5.452-2.325c-0.125,0.247-0.257,0.491-0.366,0.749c-2.708,6.35,0.656,13.869,7.516,16.793
			s14.613,0.146,17.32-6.204c0.11-0.259,0.195-0.522,0.286-0.784L131.751,69.686z"/>
		<path stroke="#020200" stroke-width="0.4593" stroke-miterlimit="10" d="M117.902,63.782c-0.145,0.235-0.275,0.48-0.387,0.74
			c-1.444,3.387,0.512,7.466,4.37,9.111s8.157,0.233,9.602-3.154c0.111-0.26,0.194-0.526,0.266-0.792L117.902,63.782z"/>
	</g>
	<g>
		<path fill="#CFEFFF" d="M76.399,89.137c0,3.514-2.309,6.363-5.156,6.363c-2.848,0-5.156-2.85-5.156-6.363
			c0-3.513,2.308-13.637,5.156-13.637C74.091,75.5,76.399,85.623,76.399,89.137z"/>
		<path d="M76.399,89.137c0,0-0.004,0.166-0.012,0.48c-0.013,0.312-0.059,0.773-0.184,1.355c-0.143,0.581-0.365,1.287-0.843,2.071
			c-0.238,0.392-0.541,0.804-0.984,1.211c-0.445,0.401-0.99,0.829-1.897,1.115c-0.891,0.317-2.296,0.206-3.102-0.199
			c-0.858-0.379-1.446-0.889-1.918-1.423c-0.921-1.078-1.425-2.293-1.637-3.555c-0.223-1.268-0.085-2.572,0.101-3.889
			c0.192-1.317,0.458-2.652,0.798-3.984c0.376-1.329,0.817-2.655,1.419-3.95c0.307-0.646,0.646-1.286,1.132-1.907
			c0.268-0.307,0.521-0.615,1.029-0.896c0.194-0.133,0.745-0.298,1.201-0.217c0.138,0.012,0.474,0.113,0.571,0.175
			c0.128,0.069,0.258,0.139,0.342,0.212c1.302,1.177,1.611,2.387,2.084,3.518c0.401,1.136,0.693,2.215,0.921,3.213
			c0.464,1.995,0.749,3.662,0.87,4.831C76.419,88.467,76.399,89.137,76.399,89.137z M76.399,89.137c0,0-0.042-2.684-1.194-6.656
			c-0.299-0.992-0.658-2.064-1.138-3.188c-0.52-1.1-0.988-2.348-2.22-3.37c-0.379-0.249-0.62-0.338-0.99-0.112
			c-0.351,0.205-0.601,0.504-0.821,0.793c-0.435,0.591-0.761,1.22-1.042,1.857c-0.559,1.279-0.958,2.6-1.304,3.921
			c-0.375,1.32-0.672,2.647-0.899,3.955c-0.198,1.309-0.416,2.597-0.29,3.835c0.121,1.237,0.536,2.437,1.36,3.497
			c0.419,0.524,0.96,1.024,1.733,1.388c0.73,0.383,1.917,0.497,2.775,0.224c0.862-0.251,1.442-0.661,1.881-1.058
			c0.45-0.398,0.762-0.807,1.008-1.193c0.496-0.777,0.735-1.48,0.895-2.061c0.138-0.581,0.199-1.04,0.217-1.353
			C76.393,89.303,76.399,89.137,76.399,89.137z"/>
	</g>
	<g>
		<path fill="#CFEFFF" d="M129.714,92.137c0,3.514-2.588,6.363-5.781,6.363s-5.781-2.85-5.781-6.363
			c0-3.513,2.588-13.637,5.781-13.637S129.714,88.623,129.714,92.137z"/>
		<path d="M129.714,92.137c0,0-0.004,0.167-0.014,0.48c-0.016,0.313-0.062,0.773-0.205,1.355c-0.16,0.581-0.411,1.287-0.941,2.071
			c-0.271,0.392-0.612,0.804-1.109,1.211c-0.496,0.401-1.108,0.83-2.125,1.115c-0.998,0.317-2.572,0.206-3.478-0.199
			c-0.964-0.379-1.621-0.89-2.15-1.423c-1.034-1.079-1.601-2.294-1.838-3.556c-0.248-1.267-0.095-2.572,0.113-3.888
			c0.217-1.317,0.513-2.653,0.896-3.984c0.422-1.33,0.914-2.656,1.592-3.95c0.344-0.647,0.721-1.287,1.27-1.907
			c0.298-0.308,0.587-0.616,1.156-0.897c0.217-0.133,0.833-0.297,1.346-0.215c0.153,0.012,0.53,0.112,0.639,0.174
			c0.143,0.069,0.289,0.139,0.382,0.213c1.459,1.177,1.81,2.386,2.335,3.517c0.454,1.136,0.777,2.216,1.037,3.213
			c0.517,1.995,0.835,3.662,0.971,4.832C129.741,91.468,129.714,92.137,129.714,92.137z M129.714,92.137
			c0,0-0.045-2.683-1.337-6.656c-0.336-0.992-0.738-2.064-1.278-3.187c-0.582-1.101-1.108-2.348-2.483-3.37
			c-0.427-0.249-0.696-0.34-1.116-0.113c-0.391,0.204-0.673,0.503-0.917,0.792c-0.487,0.591-0.854,1.221-1.169,1.858
			c-0.626,1.278-1.075,2.599-1.462,3.92c-0.42,1.321-0.756,2.647-1.005,3.955c-0.226,1.309-0.47,2.598-0.329,3.835
			c0.138,1.238,0.604,2.437,1.524,3.497c0.474,0.525,1.077,1.024,1.944,1.388c0.819,0.384,2.149,0.498,3.111,0.225
			c0.967-0.251,1.622-0.661,2.114-1.057c0.501-0.399,0.849-0.807,1.129-1.194c0.554-0.777,0.824-1.48,1.003-2.059
			c0.158-0.581,0.221-1.04,0.241-1.354C129.705,92.304,129.714,92.137,129.714,92.137z"/>
	</g>
	<g>
		<path fill="#CFEFFF" d="M77.057,114.137c0,3.514-2.448,6.363-5.469,6.363s-5.469-2.85-5.469-6.363
			c0-3.513,2.448-13.637,5.469-13.637S77.057,110.623,77.057,114.137z"/>
		<path d="M77.057,114.137c0,0-0.004,0.166-0.013,0.48c-0.014,0.312-0.062,0.773-0.195,1.355c-0.151,0.58-0.387,1.286-0.894,2.07
			c-0.252,0.393-0.574,0.805-1.043,1.211c-0.472,0.401-1.05,0.829-2.013,1.115c-0.945,0.316-2.435,0.206-3.29-0.199
			c-0.91-0.379-1.534-0.889-2.035-1.423c-0.978-1.078-1.512-2.293-1.737-3.556c-0.236-1.268-0.089-2.571,0.107-3.889
			c0.204-1.317,0.486-2.652,0.847-3.984c0.399-1.329,0.866-2.655,1.505-3.95c0.326-0.646,0.685-1.286,1.201-1.907
			c0.284-0.307,0.553-0.615,1.092-0.896c0.206-0.133,0.789-0.298,1.273-0.217c0.146,0.012,0.503,0.113,0.605,0.175
			c0.136,0.069,0.273,0.139,0.363,0.212c1.381,1.177,1.709,2.387,2.21,3.518c0.426,1.136,0.735,2.215,0.978,3.213
			c0.492,1.995,0.795,3.662,0.923,4.831C77.078,113.467,77.057,114.137,77.057,114.137z M77.057,114.137
			c0,0-0.043-2.684-1.267-6.656c-0.317-0.992-0.697-2.064-1.207-3.188c-0.551-1.1-1.048-2.348-2.354-3.37
			c-0.403-0.249-0.658-0.338-1.05-0.112c-0.372,0.205-0.637,0.504-0.87,0.793c-0.462,0.591-0.808,1.22-1.104,1.857
			c-0.593,1.279-1.016,2.6-1.383,3.921c-0.397,1.32-0.712,2.647-0.954,3.955c-0.209,1.309-0.441,2.597-0.308,3.835
			c0.128,1.237,0.568,2.438,1.443,3.497c0.444,0.524,1.018,1.024,1.838,1.388c0.774,0.383,2.033,0.498,2.943,0.225
			c0.915-0.251,1.53-0.661,1.995-1.059c0.478-0.397,0.808-0.807,1.069-1.192c0.525-0.777,0.78-1.48,0.95-2.061
			c0.146-0.581,0.21-1.04,0.229-1.353C77.05,114.303,77.057,114.137,77.057,114.137z"/>
	</g>
	<g>
		<path fill="#CFEFFF" d="M129.739,120.5c0,3.514-2.217,6.363-4.953,6.363c-2.735,0-4.952-2.85-4.952-6.363
			s2.217-13.637,4.952-13.637C127.522,106.863,129.739,116.986,129.739,120.5z"/>
		<path d="M129.739,120.5c0,0-0.004,0.166-0.012,0.48c-0.014,0.312-0.058,0.772-0.178,1.354c-0.136,0.581-0.351,1.287-0.809,2.071
			c-0.229,0.392-0.521,0.804-0.946,1.211c-0.428,0.4-0.95,0.828-1.822,1.115c-0.857,0.316-2.206,0.205-2.979-0.199
			c-0.824-0.379-1.389-0.889-1.844-1.424c-0.886-1.077-1.368-2.293-1.571-3.555c-0.215-1.268-0.081-2.572,0.097-3.889
			c0.185-1.316,0.439-2.652,0.767-3.984c0.361-1.329,0.785-2.655,1.362-3.95c0.296-0.646,0.621-1.286,1.087-1.907
			c0.259-0.307,0.503-0.615,0.99-0.896c0.186-0.133,0.714-0.298,1.153-0.217c0.132,0.012,0.455,0.113,0.548,0.175
			c0.121,0.069,0.247,0.139,0.328,0.212c1.25,1.177,1.548,2.387,2.003,3.518c0.385,1.136,0.665,2.215,0.884,3.213
			c0.447,1.995,0.72,3.662,0.836,4.831C129.759,119.83,129.739,120.5,129.739,120.5z M129.739,120.5c0,0-0.041-2.684-1.149-6.656
			c-0.286-0.992-0.631-2.063-1.091-3.188c-0.499-1.1-0.95-2.348-2.132-3.37c-0.366-0.249-0.596-0.338-0.952-0.112
			c-0.337,0.205-0.576,0.504-0.789,0.793c-0.418,0.591-0.731,1.22-0.998,1.857c-0.538,1.279-0.921,2.6-1.254,3.921
			c-0.36,1.319-0.646,2.647-0.863,3.955c-0.189,1.309-0.4,2.597-0.278,3.835c0.116,1.236,0.515,2.438,1.306,3.497
			c0.402,0.524,0.923,1.024,1.666,1.388c0.7,0.383,1.842,0.497,2.666,0.225c0.828-0.252,1.385-0.662,1.807-1.059
			c0.432-0.398,0.731-0.807,0.968-1.193c0.476-0.776,0.706-1.479,0.858-2.06c0.134-0.581,0.191-1.04,0.209-1.353
			C129.731,120.666,129.739,120.5,129.739,120.5z"/>
	</g>
</g>
</svg>
