<?xml version="1.0" encoding="utf-8"?>
<!-- Generator: Adobe Illustrator 16.0.0, SVG Export Plug-In . SVG Version: 6.00 Build 0)  -->
<!DOCTYPE svg PUBLIC "-//W3C//DTD SVG 1.1//EN" "http://www.w3.org/Graphics/SVG/1.1/DTD/svg11.dtd">
<svg version="1.1" xmlns="http://www.w3.org/2000/svg" xmlns:xlink="http://www.w3.org/1999/xlink" x="0px" y="0px" width="200px"
	 height="225px" viewBox="0 0 200 225" enable-background="new 0 0 200 225" xml:space="preserve">
<g id="Ext">
</g>
<g id="Guides">
</g>
<g id="_x31_2_Col_Grid_1_" display="none" enable-background="new    ">
	<g id="Rectangle_xA0_Image_23_" display="inline" opacity="0.102">
	</g>
	<g id="Rectangle_xA0_Image_21_" display="inline" opacity="0.102">
	</g>
	<g id="Rectangle_xA0_Image_19_" display="inline" opacity="0.102">
	</g>
	<g id="Rectangle_xA0_Image_17_" display="inline" opacity="0.102">
	</g>
	<g id="Rectangle_xA0_Image_15_" display="inline" opacity="0.102">
	</g>
	<g id="Rectangle_xA0_Image_13_" display="inline" opacity="0.102">
	</g>
	<g id="Rectangle_xA0_Image_11_" display="inline" opacity="0.102">
	</g>
	<g id="Rectangle_xA0_Image_9_" display="inline" opacity="0.102">
	</g>
	<g id="Rectangle_xA0_Image_7_" display="inline" opacity="0.102">
	</g>
	<g id="Rectangle_xA0_Image_5_" display="inline" opacity="0.102">
	</g>
	<g id="Rectangle_xA0_Image_3_" display="inline" opacity="0.102">
	</g>
	<g id="Rectangle_xA0_Image_1_" display="inline" opacity="0.102">
	</g>
</g>
<g id="Bg">
</g>
<g id="main">
	<g id="Progress">
	</g>
	<g id="Text">
	</g>
</g>
<g id="pane">
</g>
<g id="browserhead">
	<g>
		<path fill="#E0B6AD" d="M117.665,135.227c0,0-5.973,4.224-8.75,5c-3.931,1.098-13.459,0.957-17.5,0c-2.857-0.677-8.75-5-8.75-5"/>
		<path fill="#020200" d="M117.694,135.269c0,0-0.481,0.344-1.324,0.945c-0.846,0.598-2.072,1.426-3.586,2.361
			c-0.385,0.227-0.784,0.463-1.197,0.707c-0.43,0.223-0.872,0.453-1.328,0.689c-0.482,0.194-0.963,0.426-1.512,0.564
			c-0.521,0.112-1.049,0.244-1.597,0.347c-1.117,0.154-2.277,0.312-3.442,0.372c-1.17,0.11-2.357,0.103-3.548,0.148
			c-1.188-0.014-2.38,0.017-3.552-0.055c-1.174-0.024-2.328-0.155-3.445-0.27c-0.56-0.104-1.109-0.208-1.646-0.31
			c-0.614-0.143-1.025-0.329-1.526-0.523c-0.476-0.243-0.938-0.48-1.386-0.709c-0.416-0.249-0.816-0.489-1.202-0.721
			c-3.009-1.946-4.768-3.549-4.768-3.549l0.061-0.082c0,0,0.509,0.301,1.401,0.828c0.445,0.261,0.986,0.576,1.607,0.938
			c0.616,0.369,1.338,0.737,2.104,1.165c0.389,0.203,0.793,0.413,1.211,0.632c0.414,0.184,0.844,0.374,1.283,0.57
			c0.228,0.091,0.485,0.153,0.729,0.237l0.373,0.124l0.147,0.048l0.191,0.033c0.512,0.088,1.035,0.177,1.566,0.268
			c1.084,0.135,2.204,0.283,3.357,0.361c1.148,0.119,2.324,0.137,3.498,0.198c1.174-0.008,2.352,0.038,3.504-0.033
			c1.163-0.022,2.277-0.141,3.361-0.251c0.543-0.083,1.079-0.199,1.604-0.294c0.486-0.107,0.965-0.315,1.43-0.477
			c0.455-0.213,0.898-0.419,1.327-0.619c0.419-0.224,0.825-0.44,1.214-0.648c1.542-0.863,2.802-1.636,3.67-2.195
			c0.866-0.564,1.361-0.887,1.361-0.887L117.694,135.269z"/>
	</g>
	<g>
		<path fill="#E0B6AD" d="M112.835,135.582c0,0,4.116-0.852,5,0c0.884,0.853,0,4.821,0,4.821"/>
		<path fill="#020200" d="M112.83,135.558c0,0,0.609-0.155,1.542-0.312c0.465-0.076,1.013-0.157,1.609-0.183
			c0.298-0.012,0.607-0.021,0.928,0.014c0.317,0.034,0.656,0.074,0.98,0.301c0.312,0.224,0.43,0.622,0.507,0.938
			c0.062,0.323,0.089,0.642,0.089,0.944c-0.005,0.607-0.1,1.158-0.188,1.626c-0.193,0.934-0.438,1.524-0.438,1.524l-0.049-0.012
			c0,0,0.038-0.626,0.094-1.564c0.034-0.465,0.057-1.008,0.061-1.576c0.013-0.285-0.005-0.574-0.032-0.861
			c-0.027-0.131-0.047-0.295-0.09-0.388c-0.001-0.078-0.154-0.3-0.201-0.316c-0.181-0.153-0.487-0.231-0.775-0.273
			c-0.291-0.05-0.592-0.06-0.881-0.066c-0.579-0.005-1.125,0.028-1.592,0.067c-0.936,0.081-1.554,0.188-1.554,0.188L112.83,135.558z
			"/>
	</g>
</g>
</svg>
