<?xml version="1.0" encoding="utf-8"?>
<!-- Generator: Adobe Illustrator 16.0.0, SVG Export Plug-In . SVG Version: 6.00 Build 0)  -->
<!DOCTYPE svg PUBLIC "-//W3C//DTD SVG 1.1//EN" "http://www.w3.org/Graphics/SVG/1.1/DTD/svg11.dtd">
<svg version="1.1" xmlns="http://www.w3.org/2000/svg" xmlns:xlink="http://www.w3.org/1999/xlink" x="0px" y="0px" width="200px"
	 height="225px" viewBox="0 0 200 225" enable-background="new 0 0 200 225" xml:space="preserve">
<g id="Ext">
</g>
<g id="Guides">
</g>
<g id="_x31_2_Col_Grid_1_" display="none" enable-background="new    ">
	<g id="Rectangle_xA0_Image_23_" display="inline" opacity="0.102">
	</g>
	<g id="Rectangle_xA0_Image_21_" display="inline" opacity="0.102">
	</g>
	<g id="Rectangle_xA0_Image_19_" display="inline" opacity="0.102">
	</g>
	<g id="Rectangle_xA0_Image_17_" display="inline" opacity="0.102">
	</g>
	<g id="Rectangle_xA0_Image_15_" display="inline" opacity="0.102">
	</g>
	<g id="Rectangle_xA0_Image_13_" display="inline" opacity="0.102">
	</g>
	<g id="Rectangle_xA0_Image_11_" display="inline" opacity="0.102">
	</g>
	<g id="Rectangle_xA0_Image_9_" display="inline" opacity="0.102">
	</g>
	<g id="Rectangle_xA0_Image_7_" display="inline" opacity="0.102">
	</g>
	<g id="Rectangle_xA0_Image_5_" display="inline" opacity="0.102">
	</g>
	<g id="Rectangle_xA0_Image_3_" display="inline" opacity="0.102">
	</g>
	<g id="Rectangle_xA0_Image_1_" display="inline" opacity="0.102">
	</g>
</g>
<g id="Bg">
</g>
<g id="main">
	<g id="Progress">
	</g>
	<g id="Text">
	</g>
</g>
<g id="pane">
</g>
<g id="browserhead">
	<ellipse fill="#894231" stroke="#000000" stroke-width="0.9428" stroke-miterlimit="10" cx="68.5" cy="67.5" rx="13.5" ry="12.5"/>
	<path fill="#FCFCFC" stroke="#020200" stroke-width="0.8385" stroke-miterlimit="10" d="M76.027,66.667
		c0.039,0.273,0.066,0.55,0.066,0.833c0,3.682-3.4,6.667-7.594,6.667s-7.594-2.985-7.594-6.667c0-0.283,0.025-0.56,0.066-0.833
		h-5.928C55.025,66.943,55,67.219,55,67.5C55,74.403,61.043,80,68.5,80S82,74.403,82,67.5c0-0.281-0.025-0.557-0.045-0.833H76.027z"
		/>
	<path stroke="#020200" stroke-width="0.4593" stroke-miterlimit="10" d="M60.973,66.667c-0.041,0.273-0.066,0.55-0.066,0.833
		c0,3.682,3.4,6.667,7.594,6.667s7.594-2.985,7.594-6.667c0-0.283-0.027-0.56-0.066-0.833H60.973z"/>
	
		<ellipse fill="#894231" stroke="#000000" stroke-width="0.9428" stroke-miterlimit="10" cx="124.5" cy="67.5" rx="13.5" ry="12.5"/>
	<path fill="#FCFCFC" stroke="#020200" stroke-width="0.8385" stroke-miterlimit="10" d="M132.027,66.667
		c0.039,0.273,0.066,0.55,0.066,0.833c0,3.682-3.4,6.667-7.594,6.667s-7.594-2.985-7.594-6.667c0-0.283,0.025-0.56,0.066-0.833
		h-5.928C111.025,66.943,111,67.219,111,67.5c0,6.903,6.043,12.5,13.5,12.5S138,74.403,138,67.5c0-0.281-0.025-0.557-0.045-0.833
		H132.027z"/>
	<path stroke="#020200" stroke-width="0.4593" stroke-miterlimit="10" d="M116.973,66.667c-0.041,0.273-0.066,0.55-0.066,0.833
		c0,3.682,3.4,6.667,7.594,6.667s7.594-2.985,7.594-6.667c0-0.283-0.027-0.56-0.066-0.833H116.973z"/>
	<g>
		<path fill="#CFEFFF" d="M70.812,89.137c0,3.514-1.119,6.363-2.5,6.363s-2.5-2.85-2.5-6.363s1.119-13.637,2.5-13.637
			S70.812,85.623,70.812,89.137z"/>
		<path d="M70.812,89.137c0,0-0.002,0.166-0.006,0.48c-0.006,0.312-0.028,0.773-0.089,1.355c-0.069,0.581-0.177,1.287-0.409,2.071
			c-0.115,0.392-0.262,0.804-0.477,1.211c-0.216,0.401-0.48,0.829-0.92,1.115c-0.432,0.317-1.113,0.206-1.504-0.199
			c-0.416-0.379-0.701-0.889-0.93-1.423c-0.447-1.078-0.691-2.293-0.794-3.555c-0.108-1.268-0.041-2.572,0.049-3.889
			c0.093-1.317,0.222-2.652,0.387-3.984c0.183-1.329,0.396-2.655,0.688-3.95c0.149-0.646,0.313-1.286,0.549-1.907
			c0.13-0.307,0.253-0.615,0.499-0.896c0.094-0.133,0.361-0.298,0.582-0.217c0.067,0.012,0.23,0.113,0.277,0.175
			c0.062,0.069,0.125,0.139,0.166,0.212c0.631,1.177,0.781,2.387,1.01,3.518c0.195,1.136,0.336,2.215,0.447,3.213
			c0.225,1.995,0.363,3.662,0.422,4.831C70.822,88.467,70.812,89.137,70.812,89.137z M70.812,89.137c0,0-0.02-2.684-0.579-6.656
			c-0.145-0.992-0.319-2.064-0.552-3.188c-0.252-1.1-0.479-2.348-1.076-3.37c-0.184-0.249-0.301-0.338-0.48-0.112
			c-0.17,0.205-0.291,0.504-0.398,0.793c-0.211,0.591-0.369,1.22-0.505,1.857c-0.271,1.279-0.464,2.6-0.632,3.921
			c-0.182,1.32-0.326,2.647-0.436,3.955c-0.096,1.309-0.202,2.597-0.141,3.835c0.059,1.237,0.26,2.437,0.66,3.497
			c0.203,0.524,0.465,1.024,0.84,1.388c0.354,0.383,0.93,0.497,1.346,0.224c0.418-0.251,0.699-0.661,0.912-1.058
			c0.218-0.398,0.369-0.807,0.489-1.193c0.24-0.777,0.356-1.48,0.434-2.06c0.067-0.581,0.096-1.04,0.105-1.353
			C70.809,89.303,70.812,89.137,70.812,89.137z"/>
	</g>
	<g>
		<path fill="#CFEFFF" d="M129.813,94.137c0,3.514-1.119,6.363-2.5,6.363s-2.5-2.85-2.5-6.363s1.119-13.637,2.5-13.637
			S129.813,90.623,129.813,94.137z"/>
		<path d="M129.813,94.137c0,0-0.003,0.167-0.007,0.48c-0.006,0.313-0.027,0.773-0.088,1.355c-0.069,0.581-0.178,1.287-0.408,2.071
			c-0.117,0.392-0.264,0.804-0.479,1.211c-0.215,0.401-0.48,0.83-0.919,1.115c-0.432,0.317-1.112,0.206-1.504-0.199
			c-0.417-0.379-0.701-0.89-0.93-1.423c-0.447-1.079-0.692-2.294-0.794-3.556c-0.108-1.267-0.041-2.572,0.049-3.888
			c0.093-1.317,0.221-2.653,0.387-3.984c0.183-1.33,0.396-2.656,0.688-3.95c0.149-0.647,0.312-1.287,0.549-1.907
			c0.129-0.308,0.254-0.616,0.5-0.897c0.094-0.133,0.361-0.297,0.582-0.215c0.067,0.012,0.23,0.112,0.277,0.174
			c0.062,0.069,0.125,0.139,0.165,0.213c0.631,1.177,0.782,2.386,1.009,3.517c0.197,1.136,0.337,2.216,0.449,3.213
			c0.223,1.995,0.361,3.662,0.42,4.832C129.824,93.468,129.813,94.137,129.813,94.137z M129.813,94.137c0,0-0.02-2.683-0.579-6.656
			c-0.145-0.992-0.319-2.064-0.553-3.187c-0.252-1.101-0.479-2.348-1.074-3.37c-0.184-0.249-0.301-0.34-0.482-0.113
			c-0.169,0.204-0.291,0.503-0.397,0.792c-0.21,0.591-0.368,1.221-0.505,1.858c-0.271,1.278-0.465,2.599-0.632,3.92
			c-0.182,1.321-0.327,2.647-0.435,3.955c-0.098,1.309-0.203,2.598-0.143,3.835c0.06,1.238,0.262,2.437,0.66,3.497
			c0.205,0.525,0.465,1.024,0.841,1.388c0.354,0.384,0.929,0.498,1.345,0.225c0.418-0.251,0.701-0.661,0.914-1.057
			c0.217-0.399,0.367-0.807,0.488-1.194c0.24-0.777,0.357-1.48,0.434-2.059c0.068-0.581,0.096-1.04,0.105-1.354
			C129.809,94.304,129.813,94.137,129.813,94.137z"/>
	</g>
	<g>
		<path fill="#CFEFFF" d="M70.812,114.137c0,3.514-1.119,6.363-2.5,6.363s-2.5-2.85-2.5-6.363s1.119-13.637,2.5-13.637
			S70.812,110.623,70.812,114.137z"/>
		<path d="M70.812,114.137c0,0-0.002,0.166-0.006,0.48c-0.006,0.312-0.028,0.773-0.089,1.355c-0.069,0.581-0.177,1.287-0.409,2.071
			c-0.115,0.392-0.262,0.804-0.477,1.211c-0.216,0.401-0.48,0.829-0.92,1.115c-0.432,0.317-1.113,0.206-1.504-0.199
			c-0.416-0.379-0.701-0.889-0.93-1.423c-0.447-1.078-0.691-2.293-0.794-3.555c-0.108-1.268-0.041-2.572,0.049-3.889
			c0.093-1.317,0.222-2.652,0.387-3.984c0.183-1.329,0.396-2.655,0.688-3.95c0.149-0.646,0.313-1.286,0.549-1.907
			c0.13-0.307,0.253-0.615,0.499-0.896c0.094-0.133,0.361-0.298,0.582-0.217c0.067,0.012,0.23,0.113,0.277,0.175
			c0.062,0.069,0.125,0.139,0.166,0.212c0.631,1.177,0.781,2.387,1.01,3.518c0.195,1.136,0.336,2.215,0.447,3.213
			c0.225,1.995,0.363,3.662,0.422,4.831C70.822,113.467,70.812,114.137,70.812,114.137z M70.812,114.137c0,0-0.02-2.684-0.579-6.656
			c-0.145-0.992-0.319-2.064-0.552-3.188c-0.252-1.1-0.479-2.348-1.076-3.37c-0.184-0.249-0.301-0.338-0.48-0.112
			c-0.17,0.205-0.291,0.504-0.398,0.793c-0.211,0.591-0.369,1.22-0.505,1.857c-0.271,1.279-0.464,2.6-0.632,3.921
			c-0.182,1.32-0.326,2.647-0.436,3.955c-0.096,1.309-0.202,2.597-0.141,3.835c0.059,1.237,0.26,2.437,0.66,3.497
			c0.203,0.524,0.465,1.024,0.84,1.388c0.354,0.383,0.93,0.497,1.346,0.224c0.418-0.251,0.699-0.661,0.912-1.058
			c0.218-0.398,0.369-0.807,0.489-1.193c0.24-0.777,0.356-1.48,0.434-2.06c0.067-0.581,0.096-1.04,0.105-1.353
			C70.809,114.303,70.812,114.137,70.812,114.137z"/>
	</g>
	<g>
		<path fill="#CFEFFF" d="M130.812,120.5c0,3.514-1.119,6.363-2.5,6.363s-2.5-2.85-2.5-6.363s1.119-13.637,2.5-13.637
			S130.812,116.986,130.812,120.5z"/>
		<path d="M130.812,120.5c0,0-0.002,0.166-0.006,0.48c-0.006,0.312-0.028,0.773-0.089,1.355c-0.069,0.581-0.177,1.287-0.409,2.071
			c-0.115,0.392-0.262,0.804-0.477,1.211c-0.216,0.401-0.48,0.829-0.92,1.115c-0.432,0.317-1.113,0.206-1.504-0.199
			c-0.416-0.379-0.701-0.889-0.93-1.423c-0.447-1.078-0.691-2.293-0.794-3.555c-0.108-1.268-0.041-2.572,0.049-3.889
			c0.093-1.317,0.222-2.652,0.387-3.984c0.183-1.329,0.396-2.655,0.688-3.95c0.149-0.646,0.313-1.286,0.549-1.907
			c0.13-0.307,0.253-0.615,0.499-0.896c0.094-0.133,0.361-0.298,0.582-0.217c0.067,0.012,0.23,0.113,0.277,0.175
			c0.062,0.069,0.125,0.139,0.166,0.212c0.631,1.177,0.781,2.387,1.01,3.518c0.195,1.136,0.336,2.215,0.447,3.213
			c0.225,1.995,0.363,3.662,0.422,4.831C130.822,119.83,130.812,120.5,130.812,120.5z M130.812,120.5c0,0-0.02-2.684-0.579-6.656
			c-0.145-0.992-0.319-2.064-0.552-3.188c-0.252-1.1-0.479-2.348-1.076-3.37c-0.184-0.249-0.301-0.338-0.48-0.112
			c-0.17,0.205-0.291,0.504-0.398,0.793c-0.211,0.591-0.369,1.22-0.505,1.857c-0.271,1.279-0.464,2.6-0.632,3.921
			c-0.182,1.32-0.326,2.647-0.436,3.955c-0.096,1.309-0.202,2.597-0.141,3.835c0.059,1.237,0.26,2.437,0.66,3.497
			c0.203,0.524,0.465,1.024,0.84,1.388c0.354,0.383,0.93,0.497,1.346,0.224c0.418-0.251,0.699-0.661,0.912-1.058
			c0.218-0.398,0.369-0.807,0.489-1.193c0.24-0.777,0.356-1.48,0.434-2.06c0.067-0.581,0.096-1.04,0.105-1.353
			C130.809,120.666,130.812,120.5,130.812,120.5z"/>
	</g>
</g>
</svg>
