<?xml version="1.0" encoding="utf-8"?>
<!-- Generator: Adobe Illustrator 16.0.0, SVG Export Plug-In . SVG Version: 6.00 Build 0)  -->
<!DOCTYPE svg PUBLIC "-//W3C//DTD SVG 1.1//EN" "http://www.w3.org/Graphics/SVG/1.1/DTD/svg11.dtd">
<svg version="1.1" xmlns="http://www.w3.org/2000/svg" xmlns:xlink="http://www.w3.org/1999/xlink" x="0px" y="0px" width="200px"
	 height="225px" viewBox="0 0 200 225" enable-background="new 0 0 200 225" xml:space="preserve">
<g id="Ext">
</g>
<g id="Guides">
</g>
<g id="_x31_2_Col_Grid_1_" display="none" enable-background="new    ">
	<g id="Rectangle_xA0_Image_23_" display="inline" opacity="0.102">
	</g>
	<g id="Rectangle_xA0_Image_21_" display="inline" opacity="0.102">
	</g>
	<g id="Rectangle_xA0_Image_19_" display="inline" opacity="0.102">
	</g>
	<g id="Rectangle_xA0_Image_17_" display="inline" opacity="0.102">
	</g>
	<g id="Rectangle_xA0_Image_15_" display="inline" opacity="0.102">
	</g>
	<g id="Rectangle_xA0_Image_13_" display="inline" opacity="0.102">
	</g>
	<g id="Rectangle_xA0_Image_11_" display="inline" opacity="0.102">
	</g>
	<g id="Rectangle_xA0_Image_9_" display="inline" opacity="0.102">
	</g>
	<g id="Rectangle_xA0_Image_7_" display="inline" opacity="0.102">
	</g>
	<g id="Rectangle_xA0_Image_5_" display="inline" opacity="0.102">
	</g>
	<g id="Rectangle_xA0_Image_3_" display="inline" opacity="0.102">
	</g>
	<g id="Rectangle_xA0_Image_1_" display="inline" opacity="0.102">
	</g>
</g>
<g id="Bg">
</g>
<g id="main">
	<g id="Progress">
	</g>
	<g id="Text">
	</g>
</g>
<g id="pane">
</g>
<g id="browserhead">
	<g>
		<g>
			<g>
				<g>
					<line fill="#894231" x1="80.308" y1="78.377" x2="84.548" y2="82.438"/>
					<path d="M80.341,78.343c0,0,1.203,0.865,2.348,1.793c0.289,0.229,0.6,0.435,0.857,0.663c0.247,0.239,0.445,0.496,0.6,0.732
						c0.314,0.468,0.436,0.873,0.436,0.873l-0.066,0.068c0,0-0.409-0.103-0.891-0.396c-0.242-0.145-0.508-0.331-0.758-0.568
						c-0.238-0.247-0.458-0.549-0.699-0.828c-0.976-1.104-1.893-2.269-1.893-2.269L80.341,78.343z"/>
				</g>
				<g>
					<line fill="#894231" x1="71.835" y1="81.051" x2="73.731" y2="86.499"/>
					<path d="M71.88,81.035c0,0,0.67,1.294,1.26,2.616c0.15,0.329,0.332,0.647,0.455,0.962c0.109,0.32,0.168,0.634,0.197,0.91
						c0.063,0.551-0.016,0.96-0.016,0.96l-0.09,0.031c0,0-0.316-0.271-0.607-0.743c-0.148-0.234-0.299-0.517-0.412-0.835
						c-0.098-0.323-0.154-0.686-0.24-1.038c-0.358-1.401-0.637-2.832-0.637-2.832L71.88,81.035z"/>
				</g>
				<g>
					<line fill="#894231" x1="63.36" y1="77.333" x2="60.616" y2="82.438"/>
					<path d="M63.401,77.355c0,0-0.502,1.375-1.081,2.709c-0.142,0.335-0.255,0.686-0.403,0.991
						c-0.162,0.298-0.355,0.555-0.54,0.764c-0.363,0.422-0.72,0.642-0.72,0.642l-0.082-0.045c0,0-0.014-0.418,0.138-0.954
						c0.072-0.27,0.18-0.571,0.339-0.871c0.173-0.293,0.402-0.581,0.604-0.884c0.794-1.219,1.663-2.396,1.663-2.396L63.401,77.355z"
						/>
				</g>
			</g>
			
				<ellipse fill="#894231" stroke="#000000" stroke-width="0.9428" stroke-miterlimit="10" cx="73.3" cy="68.559" rx="12.801" ry="12"/>
		</g>
		<g>
			<g>
				<line fill="#894231" x1="129.308" y1="78.004" x2="133.548" y2="82.379"/>
				<path d="M129.341,77.971c0,0,1.21,0.949,2.357,1.958c0.29,0.25,0.603,0.478,0.86,0.725c0.247,0.257,0.444,0.53,0.598,0.779
					c0.312,0.494,0.426,0.913,0.425,0.913l-0.066,0.066c-0.001,0-0.416-0.128-0.9-0.454c-0.244-0.161-0.511-0.366-0.761-0.622
					c-0.239-0.266-0.456-0.585-0.696-0.882c-0.973-1.179-1.883-2.417-1.883-2.417L129.341,77.971z"/>
			</g>
			<g>
				<line fill="#894231" x1="120.835" y1="80.884" x2="122.731" y2="86.754"/>
				<path d="M120.88,80.869c0,0,0.672,1.403,1.262,2.834c0.152,0.356,0.333,0.703,0.457,1.042c0.109,0.345,0.167,0.681,0.195,0.976
					c0.062,0.588-0.018,1.019-0.018,1.019l-0.09,0.029c0,0-0.318-0.303-0.61-0.816c-0.149-0.255-0.3-0.562-0.412-0.904
					c-0.099-0.349-0.153-0.735-0.239-1.113c-0.358-1.505-0.635-3.036-0.635-3.036L120.88,80.869z"/>
			</g>
			<g>
				<line fill="#894231" x1="112.36" y1="76.879" x2="109.616" y2="82.379"/>
				<path d="M112.402,76.9c0,0-0.5,1.468-1.077,2.896c-0.141,0.359-0.252,0.732-0.401,1.061c-0.163,0.322-0.356,0.602-0.542,0.83
					c-0.364,0.462-0.723,0.713-0.724,0.713l-0.084-0.043c-0.001,0-0.017-0.437,0.134-1.006c0.071-0.287,0.178-0.609,0.337-0.932
					c0.173-0.316,0.403-0.631,0.606-0.959c0.795-1.321,1.667-2.604,1.667-2.604L112.402,76.9z"/>
			</g>
			
				<ellipse fill="#894231" stroke="#000000" stroke-width="0.9428" stroke-miterlimit="10" cx="119.3" cy="68.304" rx="12.801" ry="12"/>
		</g>
	</g>
</g>
</svg>
