<?xml version="1.0" encoding="utf-8"?>
<!-- Generator: Adobe Illustrator 16.0.0, SVG Export Plug-In . SVG Version: 6.00 Build 0)  -->
<!DOCTYPE svg PUBLIC "-//W3C//DTD SVG 1.1//EN" "http://www.w3.org/Graphics/SVG/1.1/DTD/svg11.dtd">
<svg version="1.1" id="Layer_1" xmlns="http://www.w3.org/2000/svg" xmlns:xlink="http://www.w3.org/1999/xlink" x="0px" y="0px"
	 width="200px" height="225px" viewBox="0 0 200 225" enable-background="new 0 0 200 225" xml:space="preserve">
<g id="Ext">
</g>
<g id="Guides">
</g>
<g id="_x31_2_Col_Grid_1_" display="none" enable-background="new    ">
	<g id="Rectangle_xA0_Image_23_" display="inline" opacity="0.102">
	</g>
	<g id="Rectangle_xA0_Image_21_" display="inline" opacity="0.102">
	</g>
	<g id="Rectangle_xA0_Image_19_" display="inline" opacity="0.102">
	</g>
	<g id="Rectangle_xA0_Image_17_" display="inline" opacity="0.102">
	</g>
	<g id="Rectangle_xA0_Image_15_" display="inline" opacity="0.102">
	</g>
	<g id="Rectangle_xA0_Image_13_" display="inline" opacity="0.102">
	</g>
	<g id="Rectangle_xA0_Image_11_" display="inline" opacity="0.102">
	</g>
	<g id="Rectangle_xA0_Image_9_" display="inline" opacity="0.102">
	</g>
	<g id="Rectangle_xA0_Image_7_" display="inline" opacity="0.102">
	</g>
	<g id="Rectangle_xA0_Image_5_" display="inline" opacity="0.102">
	</g>
	<g id="Rectangle_xA0_Image_3_" display="inline" opacity="0.102">
	</g>
	<g id="Rectangle_xA0_Image_1_" display="inline" opacity="0.102">
	</g>
</g>
<g id="Bg">
</g>
<g id="main">
	<g id="Progress">
	</g>
	<g id="Text">
	</g>
</g>
<g id="pane">
</g>
<g>
	<g>
		<path fill="#FFFFFF" d="M90.25,139.229c0,0,5.848,6.77,8.41,7.64c1.851,0.629,6.033,0.317,7.678-0.849
			c1.694-1.201,5.051-7.109,5.051-7.109"/>
		<path d="M90.326,139.164c0,0,0.395,0.237,1.051,0.674c0.653,0.439,1.572,1.074,2.621,1.86c0.529,0.39,1.104,0.801,1.685,1.251
			c0.584,0.419,1.201,0.861,1.839,1.318c0.313,0.225,0.626,0.411,0.937,0.597l0.438,0.216c0.134,0.07,0.215,0.081,0.32,0.139
			c0.122,0.036-0.162-0.047-0.128-0.038l0.01,0.003l0.02,0.004l0.04,0.009l0.08,0.017l0.159,0.035l0.318,0.069
			c0.246,0.068,0.325,0.024,0.488,0.046c0.248,0.03,0.658,0.018,1.033,0.019c0.377,0.019,0.768-0.021,1.151-0.023
			c0.375-0.048,0.766-0.071,1.125-0.138c0.347-0.085,0.734-0.114,1.03-0.208c0.149-0.042,0.334-0.072,0.459-0.12
			c0.11-0.052,0.225-0.098,0.344-0.139l0.045-0.016l0.022-0.007l0.006-0.002c0.12-0.094-0.156,0.126-0.125,0.101l0.016-0.013
			l0.119-0.096l0.237-0.191c0.141-0.126,0.35-0.256,0.445-0.357c0.226-0.212,0.447-0.419,0.663-0.62
			c0.503-0.534,0.978-1.039,1.416-1.506c0.885-0.956,1.655-1.765,2.214-2.318c0.558-0.557,0.898-0.867,0.898-0.867l0.174,0.1
			c0,0-0.843,1.543-2.286,3.755c-0.352,0.558-0.776,1.136-1.215,1.754c-0.244,0.299-0.495,0.606-0.751,0.92
			c-0.286,0.292-0.542,0.567-0.911,0.83c-0.729,0.474-1.578,0.693-2.432,0.886c-0.429,0.093-0.868,0.136-1.307,0.203
			c-0.441,0.022-0.884,0.077-1.33,0.071c-0.883,0-1.809-0.087-2.649-0.342c-0.856-0.339-1.532-0.878-2.177-1.398
			c-1.284-1.051-2.362-2.152-3.283-3.097c-1.828-1.902-2.96-3.248-2.96-3.248L90.326,139.164z"/>
	</g>
	<g id="browserhead">
		<g>
			<path fill="#E0B6AD" d="M117.665,135.227c0,0-5.974,4.225-8.75,5c-3.931,1.099-13.459,0.957-17.5,0c-2.857-0.677-8.75-5-8.75-5"
				/>
			<path fill="#020200" d="M117.693,135.27c0,0-0.48,0.344-1.323,0.944c-0.847,0.599-2.072,1.427-3.586,2.361
				c-0.386,0.227-0.784,0.463-1.197,0.707c-0.43,0.223-0.872,0.452-1.328,0.688c-0.481,0.194-0.963,0.426-1.512,0.564
				c-0.521,0.111-1.049,0.244-1.597,0.347c-1.117,0.154-2.277,0.312-3.442,0.372c-1.17,0.11-2.356,0.104-3.548,0.148
				c-1.188-0.014-2.38,0.017-3.552-0.055c-1.174-0.024-2.328-0.156-3.445-0.271c-0.56-0.104-1.109-0.208-1.646-0.31
				c-0.614-0.144-1.025-0.33-1.526-0.523c-0.476-0.243-0.938-0.48-1.386-0.709c-0.416-0.249-0.816-0.489-1.202-0.721
				c-3.009-1.946-4.768-3.549-4.768-3.549l0.061-0.082c0,0,0.509,0.301,1.401,0.827c0.445,0.261,0.986,0.576,1.607,0.938
				c0.616,0.369,1.338,0.736,2.104,1.165c0.389,0.202,0.793,0.413,1.211,0.632c0.414,0.184,0.844,0.374,1.283,0.57
				c0.228,0.091,0.485,0.152,0.729,0.236l0.373,0.124l0.147,0.048l0.191,0.033c0.512,0.088,1.035,0.178,1.566,0.268
				c1.084,0.136,2.204,0.283,3.357,0.361c1.148,0.119,2.324,0.137,3.498,0.198c1.174-0.008,2.353,0.038,3.504-0.033
				c1.163-0.021,2.276-0.141,3.36-0.251c0.543-0.083,1.08-0.199,1.604-0.294c0.486-0.106,0.966-0.315,1.431-0.477
				c0.455-0.214,0.897-0.419,1.326-0.619c0.42-0.224,0.825-0.44,1.215-0.647c1.541-0.863,2.801-1.637,3.67-2.195
				c0.865-0.564,1.36-0.887,1.36-0.887L117.693,135.27z"/>
		</g>
		<g>
			<path fill="#E0B6AD" d="M112.835,135.582c0,0,4.116-0.852,5,0c0.884,0.854,0,4.82,0,4.82"/>
			<path fill="#020200" d="M112.83,135.559c0,0,0.609-0.156,1.542-0.312c0.465-0.076,1.013-0.157,1.608-0.184
				c0.299-0.012,0.607-0.021,0.929,0.015c0.317,0.034,0.655,0.073,0.979,0.301c0.312,0.224,0.43,0.622,0.508,0.938
				c0.062,0.322,0.088,0.642,0.088,0.943c-0.004,0.607-0.1,1.158-0.188,1.626c-0.193,0.935-0.438,1.524-0.438,1.524l-0.049-0.012
				c0,0,0.037-0.627,0.094-1.564c0.033-0.465,0.057-1.008,0.061-1.576c0.014-0.285-0.005-0.574-0.031-0.861
				c-0.027-0.131-0.048-0.295-0.091-0.388c-0.001-0.077-0.153-0.3-0.2-0.315c-0.182-0.153-0.488-0.231-0.775-0.273
				c-0.291-0.05-0.592-0.061-0.881-0.066c-0.579-0.004-1.125,0.028-1.592,0.067c-0.937,0.081-1.555,0.188-1.555,0.188
				L112.83,135.559z"/>
		</g>
	</g>
</g>
</svg>
