<?xml version="1.0" encoding="utf-8"?>
<!-- Generator: Adobe Illustrator 16.0.0, SVG Export Plug-In . SVG Version: 6.00 Build 0)  -->
<!DOCTYPE svg PUBLIC "-//W3C//DTD SVG 1.1//EN" "http://www.w3.org/Graphics/SVG/1.1/DTD/svg11.dtd">
<svg version="1.1" xmlns="http://www.w3.org/2000/svg" xmlns:xlink="http://www.w3.org/1999/xlink" x="0px" y="0px" width="200px"
	 height="225px" viewBox="0 0 200 225" enable-background="new 0 0 200 225" xml:space="preserve">
<g id="Ext">
</g>
<g id="Guides">
</g>
<g id="_x31_2_Col_Grid_1_" display="none" enable-background="new    ">
	<g id="Rectangle_xA0_Image_23_" display="inline" opacity="0.102">
	</g>
	<g id="Rectangle_xA0_Image_21_" display="inline" opacity="0.102">
	</g>
	<g id="Rectangle_xA0_Image_19_" display="inline" opacity="0.102">
	</g>
	<g id="Rectangle_xA0_Image_17_" display="inline" opacity="0.102">
	</g>
	<g id="Rectangle_xA0_Image_15_" display="inline" opacity="0.102">
	</g>
	<g id="Rectangle_xA0_Image_13_" display="inline" opacity="0.102">
	</g>
	<g id="Rectangle_xA0_Image_11_" display="inline" opacity="0.102">
	</g>
	<g id="Rectangle_xA0_Image_9_" display="inline" opacity="0.102">
	</g>
	<g id="Rectangle_xA0_Image_7_" display="inline" opacity="0.102">
	</g>
	<g id="Rectangle_xA0_Image_5_" display="inline" opacity="0.102">
	</g>
	<g id="Rectangle_xA0_Image_3_" display="inline" opacity="0.102">
	</g>
	<g id="Rectangle_xA0_Image_1_" display="inline" opacity="0.102">
	</g>
</g>
<g id="Bg">
</g>
<g id="main">
	<g id="Progress">
	</g>
	<g id="Text">
	</g>
</g>
<g id="pane">
</g>
<g id="browserhead">
	<g>
		<path fill="#E0B6AD" d="M84.665,140.998c0,0,5.051-4.323,7.5-5c3.464-0.957,11.631-1.098,15,0c2.381,0.776,7.5,5,7.5,5"/>
		<path fill="#020200" d="M84.635,140.962c0,0,0.394-0.339,1.083-0.932c0.693-0.59,1.707-1.403,2.968-2.33
			c0.642-0.449,1.341-0.931,2.137-1.37c0.393-0.235,0.841-0.383,1.31-0.579c0.457-0.105,0.924-0.214,1.397-0.323
			c0.972-0.154,1.993-0.319,3.015-0.391c1.025-0.115,2.071-0.132,3.117-0.186c1.046,0.003,2.093-0.041,3.127,0.03
			c1.033,0.018,2.053,0.159,3.04,0.29c0.493,0.123,0.978,0.244,1.452,0.363c0.507,0.219,0.867,0.353,1.287,0.608
			c0.826,0.479,1.522,0.971,2.162,1.426c2.506,1.898,3.966,3.393,3.965,3.393l-0.059,0.072c0,0-0.434-0.289-1.189-0.795
			c-0.377-0.251-0.836-0.557-1.361-0.906c-0.52-0.36-1.135-0.718-1.777-1.146c-0.656-0.409-1.371-0.843-2.113-1.219
			c-0.352-0.19-0.859-0.369-1.208-0.523c-0.437-0.101-0.882-0.203-1.336-0.309c-0.938-0.146-1.911-0.302-2.921-0.369
			c-1.004-0.113-2.035-0.114-3.064-0.162c-1.029,0.019-2.062-0.001-3.072,0.078c-1.021,0.037-1.992,0.163-2.945,0.278
			c-0.479,0.093-0.948,0.185-1.408,0.274c-0.393,0.163-0.832,0.281-1.215,0.489c-0.786,0.389-1.498,0.832-2.152,1.247
			c-1.29,0.86-2.338,1.626-3.055,2.182c-0.714,0.56-1.122,0.88-1.122,0.88L84.635,140.962z"/>
	</g>
</g>
</svg>
