<?xml version="1.0" encoding="utf-8"?>
<!-- Generator: Adobe Illustrator 16.0.0, SVG Export Plug-In . SVG Version: 6.00 Build 0)  -->
<!DOCTYPE svg PUBLIC "-//W3C//DTD SVG 1.1//EN" "http://www.w3.org/Graphics/SVG/1.1/DTD/svg11.dtd">
<svg version="1.1" xmlns="http://www.w3.org/2000/svg" xmlns:xlink="http://www.w3.org/1999/xlink" x="0px" y="0px" width="200px"
	 height="225px" viewBox="0 0 200 225" enable-background="new 0 0 200 225" xml:space="preserve">
<g id="Ext">
</g>
<g id="Guides">
</g>
<g id="_x31_2_Col_Grid_1_" display="none" enable-background="new    ">
	<g id="Rectangle_xA0_Image_23_" display="inline" opacity="0.102">
	</g>
	<g id="Rectangle_xA0_Image_21_" display="inline" opacity="0.102">
	</g>
	<g id="Rectangle_xA0_Image_19_" display="inline" opacity="0.102">
	</g>
	<g id="Rectangle_xA0_Image_17_" display="inline" opacity="0.102">
	</g>
	<g id="Rectangle_xA0_Image_15_" display="inline" opacity="0.102">
	</g>
	<g id="Rectangle_xA0_Image_13_" display="inline" opacity="0.102">
	</g>
	<g id="Rectangle_xA0_Image_11_" display="inline" opacity="0.102">
	</g>
	<g id="Rectangle_xA0_Image_9_" display="inline" opacity="0.102">
	</g>
	<g id="Rectangle_xA0_Image_7_" display="inline" opacity="0.102">
	</g>
	<g id="Rectangle_xA0_Image_5_" display="inline" opacity="0.102">
	</g>
	<g id="Rectangle_xA0_Image_3_" display="inline" opacity="0.102">
	</g>
	<g id="Rectangle_xA0_Image_1_" display="inline" opacity="0.102">
	</g>
</g>
<g id="Bg">
</g>
<g id="main">
	<g id="Progress">
	</g>
	<g id="Text">
	</g>
</g>
<g id="pane">
</g>
<g id="browserhead">
	<g>
		<g>
			<path fill="#050505" d="M100.377,120.25c2.758,0,5-4.25,5-8.25h-10C95.377,116,97.614,120.25,100.377,120.25z"/>
			<path d="M100.371,120c0.215,0,0.447-0.146,0.648-0.214c0.206-0.051,0.408-0.174,0.601-0.273c0.202-0.076,0.376-0.235,0.559-0.349
				c0.182-0.113,0.329-0.292,0.491-0.429c0.292-0.315,0.558-0.659,0.78-1.024s0.386-0.768,0.534-1.165
				c0.287-0.802,0.46-1.638,0.533-2.477c0.076-0.838,0.064-1.678-0.018-2.502l0.877,0.876c-0.834,0.1-1.666,0.127-2.5,0.184
				c-0.834,0.037-1.666,0.042-2.5,0.06c-0.834-0.022-1.666-0.021-2.5-0.064c-0.834-0.054-1.666-0.087-2.5-0.186l0.87-0.87
				c-0.081,0.825-0.093,1.664-0.017,2.503c0.074,0.839,0.248,1.674,0.535,2.475c0.148,0.397,0.311,0.797,0.535,1.161
				c0.223,0.366,0.489,0.701,0.782,1.017c0.162,0.137,0.31,0.301,0.491,0.413c0.183,0.112,0.357,0.241,0.559,0.316
				c0.191,0.101,0.396,0.285,0.606,0.336c0.205,0.068,0.425,0.213,0.638,0.213H100.371z M100.377,120
				c-0.222,0-0.451-0.072-0.668-0.138c-0.22-0.048-0.436-0.138-0.639-0.236c-0.418-0.166-0.781-0.454-1.125-0.735
				c-0.326-0.307-0.625-0.645-0.883-1.009c-0.256-0.363-0.48-0.753-0.676-1.151c-0.389-0.799-0.803-1.651-0.977-2.521
				c-0.176-0.869-0.41-1.757-0.41-2.644V111h0.377c3.334,0,6.666,0,10,0H105v0.566c0,0.887,0.143,1.772-0.033,2.642
				s-0.332,1.72-0.722,2.518c-0.195,0.398-0.358,0.784-0.616,1.147c-0.256,0.364-0.526,0.695-0.851,1.001
				c-0.346,0.282-0.692,0.555-1.11,0.721c-0.201,0.099-0.412,0.22-0.635,0.268c-0.221,0.066-0.432,0.138-0.65,0.138H100.377z"/>
		</g>
		<g>
			<path fill="#FFE1CC" d="M100.562,119.926c0,0-0.417,3.82,0,5c0.589,1.666,3.412,4.223,5,5c1.123,0.549,3.845,0.479,5,0
				c1.633-0.678,4.425-3.328,5-5c0.406-1.184,0-3.75,0-5"/>
			<path d="M100.635,119.934c0,0,0.012,0.116,0.035,0.336c0.017,0.217,0.076,0.539,0.098,0.941c0.035,0.403,0.08,0.892,0.153,1.442
				c0.078,0.54,0.177,1.188,0.328,1.724c0.05,0.093,0.079,0.281,0.13,0.296c0.097,0.154,0.194,0.311,0.294,0.47
				c0.226,0.259,0.357,0.435,0.622,0.703c0.498,0.52,1.097,1.031,1.721,1.54c0.615,0.497,1.343,0.983,1.969,1.313l0.12,0.066
				l0.015,0.009c0.104,0.045-0.133-0.057-0.104-0.045l0.01,0.003l0.04,0.015l0.081,0.027l0.323,0.111l0.403,0.058
				c0.378,0.04,0.774,0.052,1.181,0.049c0.785,0.009,1.713-0.093,2.127-0.304c0.455-0.209,0.709-0.394,1.004-0.56
				c0.314-0.228,0.66-0.448,0.961-0.708c0.617-0.505,1.205-1.023,1.696-1.55c0.254-0.257,0.441-0.533,0.646-0.777
				c0.08-0.122,0.159-0.242,0.235-0.359l0.031-0.045l0.015-0.022l0.008-0.011c-0.042,0.144-0.011,0.035-0.019,0.065l0.002-0.009
				l0.045-0.126l0.087-0.248c0.138-0.503,0.237-1.115,0.296-1.672c0.061-0.552,0.096-1.046,0.127-1.452
				c0.025-0.409,0.082-0.694,0.117-0.916c0.037-0.219,0.057-0.299,0.057-0.299h0.146c0,0,0.006,0.419,0.072,1.223
				c0.027,0.403,0.062,0.874,0.101,1.436c0.027,0.562,0.048,1.195-0.06,1.898c-0.114,0.707-0.561,1.363-1.032,1.998
				c-0.491,0.631-1.065,1.248-1.715,1.828c-0.642,0.569-1.367,1.167-2.188,1.563c-0.862,0.42-1.816,0.479-2.744,0.512
				c-0.468-0.002-0.935-0.03-1.399-0.091c-0.484-0.086-0.926-0.177-1.343-0.422c-0.817-0.443-1.513-1.021-2.167-1.594
				c-0.65-0.578-1.234-1.188-1.732-1.813c-0.488-0.65-0.938-1.262-1.048-1.997c-0.184-1.399-0.044-2.551-0.007-3.357
				c0.073-0.806,0.115-1.266,0.115-1.266L100.635,119.934z"/>
		</g>
		<g>
			<path fill="#FFE1CC" d="M100.557,119.539c0,0,0.417,3.822,0,5c-0.59,1.668-3.412,4.225-5,5c-1.123,0.549-3.845,0.479-5,0
				c-1.633-0.676-4.426-3.328-5-5c-0.406-1.182,0-3.75,0-5"/>
			<path d="M100.629,119.531c0.001,0,0.16,0.447,0.352,1.249c0.087,0.401,0.191,0.891,0.291,1.464
				c0.094,0.581,0.211,1.209,0.146,2.04c-0.047,0.236-0.016,0.419-0.146,0.72c-0.06,0.17-0.122,0.344-0.185,0.52
				c-0.175,0.365-0.452,0.85-0.695,1.187c-0.496,0.716-1.064,1.408-1.738,2.043c-0.687,0.633-1.353,1.288-2.33,1.816l-0.177,0.103
				l-0.022,0.013l-0.133,0.058l-0.039,0.015l-0.08,0.03l-0.32,0.122c-0.279,0.082-0.643,0.165-0.942,0.218
				c-0.534,0.075-1.058,0.11-1.574,0.115c-1.043-0.062-2.017-0.08-3.245-0.664c-0.211-0.122-0.377-0.18-0.621-0.354l-0.676-0.487
				c-0.38-0.327-0.75-0.623-1.075-0.96c-0.678-0.64-1.234-1.348-1.723-2.066c-0.245-0.357-0.46-0.745-0.647-1.131
				c-0.078-0.215-0.154-0.427-0.23-0.635l-0.027-0.077l-0.013-0.039l-0.007-0.019c-0.043-0.148-0.012-0.046-0.021-0.081
				l-0.002-0.009l-0.016-0.133l-0.031-0.262c-0.078-0.864,0.054-1.528,0.162-2.092c0.11-0.571,0.224-1.054,0.313-1.451
				c0.078-0.396,0.188-0.476,0.229-0.687c0.051-0.213,0.077-0.096,0.077-0.096h0.146c0,0-0.001,0.236-0.06,1.041
				c-0.024,0.402-0.053,0.775-0.086,1.335c-0.023,0.559-0.033,1.136,0.072,1.797c0.115,0.674,0.545,1.267,1.015,1.888
				c0.487,0.613,1.06,1.206,1.704,1.771c0.655,0.564,1.326,1.109,2.148,1.497c0.781,0.375,1.729,0.434,2.629,0.453
				c0.912-0.012,1.826-0.027,2.614-0.456c0.786-0.415,1.484-0.981,2.132-1.538c0.647-0.563,1.23-1.16,1.725-1.769
				c0.254-0.301,0.451-0.614,0.651-0.922c0.171-0.342,0.335-0.645,0.374-0.978c0.191-1.344,0.067-2.515,0.037-3.312
				c-0.064-0.803-0.102-1.261-0.102-1.261L100.629,119.531z"/>
		</g>
	</g>
</g>
</svg>
