<?xml version="1.0" encoding="utf-8"?>
<!-- Generator: Adobe Illustrator 16.0.0, SVG Export Plug-In . SVG Version: 6.00 Build 0)  -->
<!DOCTYPE svg PUBLIC "-//W3C//DTD SVG 1.1//EN" "http://www.w3.org/Graphics/SVG/1.1/DTD/svg11.dtd">
<svg version="1.1" id="Layer_1" xmlns="http://www.w3.org/2000/svg" xmlns:xlink="http://www.w3.org/1999/xlink" x="0px" y="0px"
	 width="200px" height="225px" viewBox="0 0 200 225" enable-background="new 0 0 200 225" xml:space="preserve">
<g id="Ext">
</g>
<g id="Guides">
</g>
<g id="_x31_2_Col_Grid_1_" display="none" enable-background="new    ">
	<g id="Rectangle_xA0_Image_23_" display="inline" opacity="0.102">
	</g>
	<g id="Rectangle_xA0_Image_21_" display="inline" opacity="0.102">
	</g>
	<g id="Rectangle_xA0_Image_19_" display="inline" opacity="0.102">
	</g>
	<g id="Rectangle_xA0_Image_17_" display="inline" opacity="0.102">
	</g>
	<g id="Rectangle_xA0_Image_15_" display="inline" opacity="0.102">
	</g>
	<g id="Rectangle_xA0_Image_13_" display="inline" opacity="0.102">
	</g>
	<g id="Rectangle_xA0_Image_11_" display="inline" opacity="0.102">
	</g>
	<g id="Rectangle_xA0_Image_9_" display="inline" opacity="0.102">
	</g>
	<g id="Rectangle_xA0_Image_7_" display="inline" opacity="0.102">
	</g>
	<g id="Rectangle_xA0_Image_5_" display="inline" opacity="0.102">
	</g>
	<g id="Rectangle_xA0_Image_3_" display="inline" opacity="0.102">
	</g>
	<g id="Rectangle_xA0_Image_1_" display="inline" opacity="0.102">
	</g>
</g>
<g id="Bg">
</g>
<g id="main">
	<g id="Progress">
	</g>
	<g id="Text">
	</g>
</g>
<g id="pane">
</g>
<g>
	<g>
		<path fill="#050505" d="M100.377,120.25c2.758,0,5-4.25,5-8.25h-10C95.377,116,97.614,120.25,100.377,120.25z"/>
		<path d="M100.371,120c0.215,0,0.447-0.146,0.648-0.214c0.205-0.052,0.407-0.175,0.601-0.272c0.202-0.076,0.376-0.236,0.56-0.35
			c0.182-0.113,0.328-0.292,0.49-0.43c0.292-0.314,0.559-0.658,0.78-1.023s0.386-0.768,0.534-1.165
			c0.287-0.802,0.459-1.638,0.533-2.478c0.075-0.838,0.063-1.677-0.019-2.501l0.877,0.876c-0.834,0.1-1.666,0.127-2.5,0.184
			c-0.834,0.037-1.666,0.042-2.5,0.06c-0.834-0.022-1.666-0.021-2.5-0.064c-0.834-0.054-1.666-0.087-2.5-0.186l0.87-0.87
			c-0.081,0.825-0.093,1.664-0.017,2.503c0.074,0.839,0.248,1.674,0.535,2.475c0.148,0.396,0.311,0.797,0.535,1.161
			c0.223,0.366,0.489,0.701,0.782,1.017c0.162,0.137,0.31,0.301,0.491,0.413c0.183,0.112,0.357,0.241,0.559,0.316
			c0.191,0.101,0.396,0.284,0.606,0.336c0.205,0.067,0.425,0.213,0.638,0.213L100.371,120L100.371,120z M100.377,120
			c-0.222,0-0.451-0.072-0.668-0.139c-0.22-0.047-0.436-0.137-0.639-0.235c-0.418-0.166-0.781-0.454-1.125-0.735
			c-0.326-0.307-0.625-0.645-0.883-1.009c-0.256-0.362-0.48-0.753-0.676-1.151c-0.389-0.799-0.803-1.65-0.977-2.521
			c-0.176-0.869-0.41-1.757-0.41-2.644V111h0.377c3.334,0,6.666,0,10,0H105v0.566c0,0.887,0.143,1.772-0.033,2.642
			s-0.332,1.72-0.722,2.519c-0.195,0.397-0.358,0.783-0.616,1.146c-0.256,0.363-0.525,0.695-0.852,1.001
			c-0.346,0.282-0.691,0.556-1.109,0.721c-0.201,0.099-0.412,0.22-0.635,0.269c-0.221,0.066-0.432,0.138-0.65,0.138L100.377,120
			L100.377,120z"/>
	</g>
	<path fill="#FFFFFF" stroke="#020000" stroke-miterlimit="10" d="M86,128.834c0,0,5.763-3.714,7.833-4.668
		c1.753-0.808,5.571-1.884,7.5-1.832c1.87,0.051,5.545,1.23,7.166,2.166c1.516,0.875,5.5,4.334,5.5,4.334s-0.461,2.704-1.166,3.166
		c-0.594,0.39-2.834-0.166-2.834-0.166s-2.175-4.044-3.333-5c-1.077-0.889-3.937-1.648-5.333-1.668
		c-1.688-0.023-5.053,0.965-6.5,1.834c-1.747,1.049-6.167,5.334-6.167,5.334s-2.839,0.342-3.333-0.334
		C84.856,131.348,86,128.834,86,128.834z"/>
	
		<line fill="#FFFFFF" stroke="#020000" stroke-width="1.176" stroke-miterlimit="10" x1="86" y1="128.834" x2="89.417" y2="131.667"/>
	<line fill="#FFFFFF" stroke="#020000" stroke-miterlimit="10" x1="90" y1="125.834" x2="93" y2="128.167"/>
	<line fill="#FFFFFF" stroke="#020000" stroke-width="0.7072" stroke-miterlimit="10" x1="96" y1="123.458" x2="98" y2="125.209"/>
	
		<line fill="#FFFFFF" stroke="#020000" stroke-width="0.7072" stroke-miterlimit="10" x1="109.834" y1="130.833" x2="113" y2="127.833"/>
	
		<line fill="#FFFFFF" stroke="#020000" stroke-width="0.564" stroke-miterlimit="10" x1="107.834" y1="127.833" x2="110.334" y2="125.417"/>
	
		<line fill="#FFFFFF" stroke="#020000" stroke-width="0.5542" stroke-miterlimit="10" x1="104.834" y1="125.833" x2="107.334" y2="123.5"/>
	
		<line fill="#FFFFFF" stroke="#020000" stroke-width="0.564" stroke-miterlimit="10" x1="100.916" y1="122.5" x2="101.083" y2="125"/>
</g>
</svg>
