<?xml version="1.0" encoding="utf-8"?>
<!-- Generator: Adobe Illustrator 16.0.0, SVG Export Plug-In . SVG Version: 6.00 Build 0)  -->
<!DOCTYPE svg PUBLIC "-//W3C//DTD SVG 1.1//EN" "http://www.w3.org/Graphics/SVG/1.1/DTD/svg11.dtd">
<svg version="1.1" id="Layer_1" xmlns="http://www.w3.org/2000/svg" xmlns:xlink="http://www.w3.org/1999/xlink" x="0px" y="0px"
	 width="200px" height="225px" viewBox="0 0 200 225" enable-background="new 0 0 200 225" xml:space="preserve">
<g id="Ext">
</g>
<g id="Guides">
</g>
<g id="_x31_2_Col_Grid_1_" display="none" enable-background="new    ">
	<g id="Rectangle_xA0_Image_23_" display="inline" opacity="0.102">
	</g>
	<g id="Rectangle_xA0_Image_21_" display="inline" opacity="0.102">
	</g>
	<g id="Rectangle_xA0_Image_19_" display="inline" opacity="0.102">
	</g>
	<g id="Rectangle_xA0_Image_17_" display="inline" opacity="0.102">
	</g>
	<g id="Rectangle_xA0_Image_15_" display="inline" opacity="0.102">
	</g>
	<g id="Rectangle_xA0_Image_13_" display="inline" opacity="0.102">
	</g>
	<g id="Rectangle_xA0_Image_11_" display="inline" opacity="0.102">
	</g>
	<g id="Rectangle_xA0_Image_9_" display="inline" opacity="0.102">
	</g>
	<g id="Rectangle_xA0_Image_7_" display="inline" opacity="0.102">
	</g>
	<g id="Rectangle_xA0_Image_5_" display="inline" opacity="0.102">
	</g>
	<g id="Rectangle_xA0_Image_3_" display="inline" opacity="0.102">
	</g>
	<g id="Rectangle_xA0_Image_1_" display="inline" opacity="0.102">
	</g>
</g>
<g id="Bg">
</g>
<g id="main">
	<g id="Progress">
	</g>
	<g id="Text">
	</g>
</g>
<g id="pane">
</g>
<g>
	<g>
		<path fill="#FFE1CC" stroke="#FCAD77" stroke-width="1.4655" stroke-miterlimit="10" d="M76.502,209.248
			c-1.008,4.018-5.08,6.457-9.1,5.451l0,0c-4.018-1.008-6.458-5.08-5.451-9.1l3.648-14.551c1.007-4.018,5.079-6.457,9.098-5.451l0,0
			c4.02,1.008,6.459,5.08,5.451,9.101L76.502,209.248z"/>
		
			<ellipse transform="matrix(0.206 -0.9786 0.9786 0.206 -150.6375 233.8893)" stroke="#000000" stroke-width="0.25" stroke-miterlimit="10" cx="68.809" cy="209.771" rx="4.999" ry="7.659"/>
		<path fill="#FFE1CC" stroke="#FCAD77" stroke-width="1.4655" stroke-miterlimit="10" d="M134.252,208.801
			c1.005,4.018,5.077,6.457,9.098,5.451l0,0c4.019-1.008,6.457-5.08,5.45-9.1l-3.647-14.551c-1.006-4.018-5.079-6.457-9.098-5.451
			l0,0c-4.02,1.009-6.46,5.08-5.451,9.101L134.252,208.801z"/>
		
			<ellipse transform="matrix(0.206 0.9785 -0.9785 0.206 317.413 27.47)" stroke="#000000" stroke-width="0.25" stroke-miterlimit="10" cx="141.778" cy="209.338" rx="5" ry="7.5"/>
	</g>
	<path fill="#FFFFE3" stroke="#F4F071" stroke-miterlimit="10" d="M195.377,102.425c0-3.662-2.625-6.705-6.095-7.363
		c-0.013-0.09-0.027-0.178-0.039-0.268c3.487-0.643,6.134-3.693,6.134-7.369c0-4.143-3.359-7.5-7.5-7.5
		c-0.652,0-1.281,0.092-1.884,0.248c-0.086-0.271-0.179-0.541-0.269-0.812c2.729-1.121,4.651-3.803,4.651-6.936
		c0-4.143-3.358-7.5-7.5-7.5c-1.071,0-2.089,0.229-3.011,0.633c-0.143-0.266-0.284-0.533-0.43-0.797
		c3.393-0.719,5.939-3.729,5.939-7.336c0-4.143-3.359-7.5-7.5-7.5c-1.165,0-2.266,0.273-3.249,0.748
		c0.474-0.984,0.749-2.082,0.749-3.248c0-4.143-3.359-7.5-7.5-7.5c-2.247,0-4.258,0.992-5.632,2.557
		c-0.252-0.238-0.511-0.473-0.767-0.707c0.877-1.229,1.397-2.727,1.397-4.35c0-4.143-3.358-7.5-7.5-7.5
		c-2.298,0-4.351,1.035-5.728,2.66c-0.285-0.188-0.57-0.375-0.859-0.559c0.99-1.271,1.587-2.865,1.587-4.602
		c0-4.143-3.358-7.5-7.5-7.5c-3.354,0-6.188,2.199-7.151,5.234c-0.25-0.107-0.5-0.219-0.753-0.322
		c0.257-0.758,0.404-1.566,0.404-2.412c0-4.143-3.358-7.5-7.5-7.5c-3.392,0-6.252,2.25-7.181,5.338
		c-0.271-0.062-0.541-0.123-0.812-0.184c0.312-0.826,0.493-1.719,0.493-2.654c0-4.143-3.358-7.5-7.5-7.5c-4.144,0-7.5,3.357-7.5,7.5
		c0,0.219,0.013,0.434,0.032,0.648c-0.022-0.002-0.045-0.004-0.065-0.004c0.019-0.213,0.033-0.428,0.033-0.645
		c0-4.143-3.358-7.5-7.5-7.5c-4.144,0-7.5,3.357-7.5,7.5c0,0.334,0.028,0.66,0.07,0.982c-0.049,0.004-0.098,0.012-0.146,0.016
		c0.044-0.326,0.076-0.658,0.076-0.998c0-4.143-3.359-7.5-7.5-7.5c-4.144,0-7.5,3.357-7.5,7.5c0,1.303,0.333,2.529,0.917,3.596
		c-0.338,0.09-0.677,0.178-1.013,0.271c-0.547-3.604-3.649-6.367-7.404-6.367c-4.144,0-7.5,3.357-7.5,7.5
		c0,1.459,0.422,2.816,1.143,3.967c-0.392,0.184-0.78,0.369-1.168,0.555c-0.247-3.918-3.494-7.021-7.475-7.021
		c-4.144,0-7.5,3.357-7.5,7.5c0,1.166,0.272,2.264,0.746,3.248c-0.983-0.475-2.082-0.748-3.246-0.748c-4.144,0-7.5,3.357-7.5,7.5
		c0,2.057,0.826,3.918,2.167,5.273c-0.278,0.262-0.553,0.527-0.827,0.793c-1.124-0.672-2.435-1.066-3.84-1.066
		c-4.144,0-7.5,3.357-7.5,7.5c0,0.887,0.161,1.734,0.441,2.523c-0.146-0.01-0.292-0.023-0.441-0.023c-4.144,0-7.5,3.357-7.5,7.5
		c0,2.09,0.855,3.98,2.235,5.34c-0.707-0.221-1.457-0.34-2.235-0.34c-4.144,0-7.5,3.357-7.5,7.5c0,2.883,1.625,5.381,4.01,6.637
		c-0.105,0.322-0.217,0.643-0.318,0.967c-0.39-0.062-0.786-0.104-1.191-0.104c-4.144,0-7.5,3.357-7.5,7.5
		c0,3.42,2.291,6.299,5.419,7.201c-0.027,0.207-0.06,0.412-0.086,0.619c-3.085,0.93-5.333,3.791-5.333,7.18
		c0,3.145,1.935,5.831,4.676,6.946c0.014,0.365,0.027,0.729,0.044,1.092c-2.766,1.105-4.72,3.804-4.72,6.963
		c0,3.832,2.875,6.986,6.585,7.439c0.17,0.78,0.35,1.561,0.54,2.336c-1.314,1.35-2.125,3.19-2.125,5.225
		c0,3.72,2.709,6.796,6.256,7.39c0.317,0.762,0.644,1.52,0.979,2.27c-1.379,1.361-2.235,3.25-2.235,5.342c0,4.143,3.356,7.5,7.5,7.5
		c0.587,0,1.154-0.074,1.704-0.203c0.477,0.717,0.963,1.426,1.459,2.129c-0.425,0.939-0.663,1.978-0.663,3.074
		c0,4.143,3.356,7.5,7.5,7.5c0.595,0,1.171-0.076,1.725-0.209c0.546,0.568,1.097,1.129,1.657,1.68
		c-0.562,1.054-0.882,2.252-0.882,3.529c0,4.143,3.356,7.499,7.5,7.499c1.164,0,2.263-0.272,3.246-0.745
		c-0.474,0.981-0.746,2.082-0.746,3.245c0,4.144,3.356,7.5,7.5,7.5c3.021,0,5.618-1.788,6.805-4.362
		c0.28,0.137,0.558,0.272,0.838,0.408c-0.093,0.471-0.143,0.956-0.143,1.454c0,4.144,3.356,7.5,7.5,7.5
		c2.738,0,5.128-1.473,6.437-3.666c0.371,0.109,0.739,0.222,1.113,0.324c-0.031,0.276-0.05,0.558-0.05,0.842
		c0,4.144,3.356,7.501,7.5,7.501c3.459,0,6.366-2.348,7.229-5.535c0.187,0.02,0.369,0.043,0.555,0.062
		c0.885,3.155,3.774,5.474,7.216,5.474c3.314,0,6.125-2.154,7.113-5.138c0.252-0.015,0.503-0.031,0.755-0.047
		c0.976,3.009,3.798,5.185,7.132,5.185c4.064,0,7.366-3.236,7.486-7.273c0.009-0.002,0.017-0.004,0.022-0.006
		c0.118,4.039,3.421,7.279,7.49,7.279c4.142,0,7.5-3.357,7.5-7.501c0-1.514-0.452-2.918-1.226-4.098
		c0.416-0.168,0.83-0.336,1.244-0.509c0.205,3.957,3.471,7.105,7.48,7.105c4.141,0,7.5-3.357,7.5-7.5
		c0-1.164-0.275-2.264-0.749-3.246c0.983,0.473,2.084,0.746,3.249,0.746c4.141,0,7.5-3.357,7.5-7.5c0-1.164-0.275-2.263-0.749-3.247
		c0.983,0.476,2.084,0.748,3.249,0.748c4.141,0,7.5-3.356,7.5-7.5c0-1.166-0.275-2.264-0.749-3.248
		c0.983,0.476,2.084,0.748,3.249,0.748c4.141,0,7.5-3.356,7.5-7.5c0-1.166-0.275-2.264-0.749-3.248
		c0.983,0.476,2.084,0.748,3.249,0.748c4.141,0,7.5-3.356,7.5-7.5c0-3.989-3.12-7.243-7.053-7.479
		c0.17-0.404,0.342-0.808,0.502-1.216c1.169,0.752,2.557,1.193,4.051,1.193c4.141,0,7.5-3.357,7.5-7.5
		c0-4.088-3.273-7.406-7.339-7.492c0.001-0.006,0.002-0.012,0.005-0.018c4.062-0.088,7.334-3.404,7.334-7.49
		c0-3.43-2.307-6.316-5.448-7.209c0.007-0.195,0.017-0.393,0.022-0.588C193.084,108.727,195.377,105.847,195.377,102.425z"/>
	
		<ellipse fill="#FFE1CC" stroke="#FCAD77" stroke-width="1.4655" stroke-miterlimit="10" cx="100.377" cy="86.425" rx="45" ry="52.501"/>
	<g>
		<path fill="#FFE1CC" stroke="#FCAD77" stroke-miterlimit="10" d="M68.877,161.645l-0.66,5.361
			c-0.449-0.178-0.877-0.422-1.266-0.74l-9.865-8.018c-2.046-1.66-2.289-4.625-0.545-6.625c1.742-1.998,4.812-2.273,6.854-0.611
			l9.868,8.016c0.389,0.318,0.713,0.683,0.971,1.078L68.877,161.645z"/>
		<path fill="#FFFFE3" stroke="#F4F071" stroke-miterlimit="10" d="M60.377,144.926c-2.763,0-5,2.238-5,5c0-2.762-2.24-5-5-5
			c-2.763,0-5,2.238-5,5s2.237,5,5,5c0,2.762,2.237,5,5,5c2.76,0,5-2.238,5-5c2.76,0,5-2.238,5-5S63.137,144.926,60.377,144.926z"/>
		<path fill="#FFE1CC" stroke="#FCAD77" stroke-miterlimit="10" d="M124.234,160.105c0.26-0.396,0.582-0.761,0.973-1.078
			l9.867-8.017c2.043-1.661,5.113-1.387,6.854,0.611c1.745,2,1.502,4.965-0.542,6.625l-9.868,8.019
			c-0.388,0.317-0.814,0.562-1.265,0.739l-0.659-5.36L124.234,160.105z"/>
		<path fill="#FFFFE3" stroke="#F4F071" stroke-miterlimit="10" d="M138.096,144.926c2.762,0,5,2.238,5,5c0-2.762,2.238-5,5-5
			s5,2.238,5,5s-2.238,5-5,5c0,2.762-2.238,5-5,5s-5-2.238-5-5c-2.762,0-5-2.238-5-5S135.334,144.926,138.096,144.926z"/>
	</g>
	<g>
		<path fill="#FFE1CC" d="M57.995,47.623c-5.144,1.817-6.236,6.121-7.175,11.166c-0.944,5.083-5.634,9.368-5.566,14.242
			C56.176,72.99,73.17,69.72,69.051,54.743"/>
		<path fill="#FCAD77" d="M58.022,47.691L57.2,48.114c-0.266,0.154-0.511,0.323-0.763,0.481L55.72,49.13l-0.654,0.597
			c-0.402,0.431-0.772,0.882-1.076,1.379c-0.307,0.495-0.575,1.011-0.783,1.558c-0.22,0.54-0.395,1.1-0.564,1.663
			c-0.166,0.565-0.299,1.144-0.418,1.73c-0.118,0.585-0.221,1.179-0.314,1.777l-0.136,0.902l-0.033,0.226l-0.051,0.266l-0.085,0.453
			c-0.121,0.601-0.331,1.333-0.543,1.916c-0.213,0.617-0.46,1.216-0.725,1.794c-0.549,1.149-1.159,2.235-1.728,3.305
			c-0.286,0.534-0.555,1.066-0.814,1.597c-0.252,0.53-0.478,1.059-0.678,1.587l-0.26,0.793l-0.192,0.79l-0.112,0.782l-0.023,0.772
			l-1.283-1.26c1.453-0.023,2.9-0.13,4.346-0.211c1.446-0.102,2.885-0.258,4.309-0.492c1.423-0.232,2.831-0.536,4.203-0.934
			c1.375-0.39,2.697-0.911,3.977-1.493c0.639-0.292,1.255-0.624,1.853-0.985c0.592-0.367,1.151-0.777,1.683-1.221
			c0.512-0.459,1.004-0.944,1.427-1.488c0.419-0.542,0.807-1.116,1.094-1.743c0.161-0.307,0.296-0.626,0.418-0.952
			c0.142-0.32,0.237-0.657,0.329-0.998c0.191-0.676,0.311-1.384,0.358-2.101c0.042-0.359,0.043-0.72,0.036-1.083
			c0.005-0.363-0.002-0.728-0.046-1.092c-0.026-0.734-0.146-1.462-0.25-2.199l0.142-0.04c0.172,0.725,0.364,1.445,0.459,2.188
			c0.069,0.366,0.104,0.738,0.128,1.111c0.033,0.372,0.06,0.743,0.042,1.118c0.007,0.745-0.063,1.495-0.211,2.228
			c-0.072,0.368-0.146,0.735-0.272,1.088c-0.102,0.361-0.228,0.713-0.388,1.053c-0.282,0.694-0.67,1.34-1.102,1.951
			c-0.431,0.613-0.939,1.167-1.473,1.691c-0.551,0.507-1.133,0.977-1.75,1.4c-0.62,0.417-1.262,0.801-1.926,1.144
			c-2.662,1.363-5.565,2.173-8.49,2.706c-2.932,0.522-5.91,0.766-8.886,0.769l-0.147,0.001l0.006-0.138l0.044-0.935l0.15-0.924
			l0.236-0.902l0.305-0.878c0.229-0.576,0.483-1.139,0.756-1.691c0.28-0.549,0.569-1.095,0.868-1.632
			c0.596-1.075,1.209-2.139,1.757-3.232c0.548-1.094,1.029-2.22,1.329-3.4c0.286-1.184,0.469-2.411,0.781-3.601
			c0.299-1.193,0.672-2.378,1.217-3.489c0.262-0.561,0.591-1.09,0.956-1.59c0.363-0.504,0.793-0.954,1.249-1.374l0.73-0.574
			c0.263-0.164,0.518-0.34,0.788-0.494c0.277-0.139,0.551-0.289,0.832-0.418l0.854-0.342L58.022,47.691z"/>
	</g>
	<g>
		<path fill="#FFE1CC" d="M146.949,48.525c4.682,2.8,4.9,7.234,4.82,12.365c-0.081,5.17,3.666,10.299,2.636,15.063
			c-10.699-2.205-26.71-8.777-19.702-22.64"/>
		<path fill="#FCAD77" d="M146.989,48.463l0.815,0.435c0.266,0.161,0.527,0.342,0.795,0.518c0.26,0.184,0.491,0.402,0.736,0.605
			c0.227,0.222,0.447,0.455,0.668,0.689c0.408,0.495,0.789,1.023,1.096,1.597c0.307,0.57,0.571,1.169,0.764,1.786
			c0.424,1.23,0.574,2.513,0.691,3.767c0.054,0.63,0.088,1.255,0.112,1.879l0.031,0.932l0.006,0.232
			c0.005-0.004,0.011,0.131,0.016,0.189l0.033,0.461c0.057,0.612,0.141,1.078,0.274,1.668c0.125,0.563,0.282,1.125,0.468,1.69
			c0.324,1.136,0.725,2.282,1.113,3.462c0.196,0.591,0.383,1.195,0.561,1.809c0.173,0.619,0.324,1.254,0.449,1.904l0.146,0.997
			l0.069,1.028l-0.03,1.052l-0.15,1.06l-0.178,1.241l-1.33-0.26c-1.49-0.292-2.976-0.615-4.426-1.077
			c-1.454-0.445-2.894-0.948-4.307-1.527c-1.413-0.58-2.803-1.231-4.147-1.984c-1.339-0.76-2.661-1.586-3.846-2.613
			c-0.592-0.512-1.154-1.062-1.689-1.645c-0.526-0.586-1.012-1.217-1.454-1.877c-0.423-0.675-0.812-1.375-1.105-2.118
			c-0.295-0.741-0.536-1.509-0.654-2.297l-0.096-0.586l-0.026-0.595c-0.032-0.396-0.007-0.789,0.02-1.18
			c0.049-0.78,0.184-1.549,0.39-2.29c0.083-0.376,0.208-0.736,0.339-1.096c0.122-0.36,0.257-0.715,0.421-1.057
			c0.301-0.696,0.698-1.338,1.071-1.985l0.13,0.066c-0.308,0.673-0.632,1.337-0.866,2.04c-0.139,0.343-0.244,0.697-0.338,1.054
			c-0.104,0.355-0.2,0.711-0.256,1.075c-0.147,0.723-0.224,1.461-0.221,2.195c-0.001,0.369-0.001,0.736,0.055,1.102
			c0.029,0.367,0.083,0.731,0.172,1.089c0.139,0.722,0.391,1.419,0.688,2.089c0.3,0.673,0.685,1.301,1.1,1.91
			c0.437,0.594,0.908,1.16,1.424,1.688c0.521,0.522,1.07,1.016,1.647,1.475c2.321,1.834,4.993,3.181,7.743,4.263
			c2.758,1.077,5.62,1.874,8.517,2.49l-0.165,0.108l0.139-0.894l0.04-0.906l-0.048-0.908l-0.12-0.905
			c-0.104-0.598-0.237-1.195-0.392-1.786c-0.161-0.589-0.334-1.178-0.517-1.763c-0.364-1.17-0.752-2.338-1.07-3.529
			c-0.315-1.188-0.564-2.409-0.619-3.649c-0.04-1.237,0.03-2.457-0.035-3.682c-0.052-1.222-0.176-2.444-0.48-3.626
			c-0.143-0.594-0.352-1.167-0.603-1.721c-0.249-0.556-0.571-1.073-0.926-1.568l-0.59-0.698c-0.22-0.209-0.431-0.431-0.657-0.632
			c-0.24-0.188-0.468-0.383-0.715-0.565l-0.768-0.508L146.989,48.463z"/>
	</g>
	<path fill="#FFFFE3" stroke="#F4F071" stroke-miterlimit="10" d="M140.377,44.925c-0.262,0-0.511,0.039-0.759,0.076
		c-0.272-0.434-0.613-0.859-1.025-1.277c1.082-0.916,1.784-2.27,1.784-3.799c0-2.762-2.24-5-5-5c-2.511,0-4.566,1.854-4.927,4.264
		c-0.558-0.197-1.125-0.393-1.72-0.578c1.004-0.916,1.646-2.221,1.646-3.686c0-2.762-2.24-5-5-5c-2.763,0-5,2.238-5,5
		c0,0.613,0.125,1.193,0.326,1.736c-0.205-0.039-0.413-0.076-0.619-0.111c0.176-0.512,0.293-1.053,0.293-1.625c0-2.762-2.24-5-5-5
		c-2.763,0-5,2.238-5,5c0,0.137,0.028,0.264,0.039,0.398c-0.026-0.002-0.054-0.006-0.08-0.008c0.011-0.131,0.041-0.256,0.041-0.391
		c0-2.762-2.24-5-5-5c-2.763,0-5,2.238-5,5c0-2.762-2.24-5-5-5c-2.763,0-5,2.238-5,5c0,0.135,0.028,0.26,0.039,0.391
		c-0.027,0.002-0.054,0.006-0.08,0.008c0.011-0.135,0.041-0.262,0.041-0.398c0-2.762-2.24-5-5-5c-2.763,0-5,2.238-5,5
		c0,0.572,0.114,1.113,0.291,1.625c-0.206,0.035-0.414,0.072-0.619,0.111c0.203-0.543,0.328-1.123,0.328-1.736c0-2.762-2.24-5-5-5
		c-2.763,0-5,2.238-5,5c0,1.465,0.64,2.77,1.643,3.686c-0.593,0.186-1.162,0.381-1.719,0.578c-0.358-2.41-2.416-4.264-4.924-4.264
		c-2.763,0-5,2.238-5,5c0,1.529,0.7,2.883,1.782,3.799c-1.157,1.17-1.782,2.414-1.782,3.701c0,0.408,0.065,0.811,0.188,1.209
		c-0.112,0.414-0.188,0.842-0.188,1.291c0,2.762,2.237,5,5,5c0,2.762,2.237,5,5,5c1.995,0,3.704-1.178,4.504-2.867
		c0.401,0.104,0.812,0.203,1.225,0.301c-0.453,0.752-0.729,1.625-0.729,2.566c0,2.762,2.237,5,5,5c2.76,0,5-2.238,5-5
		c0-0.316-0.038-0.623-0.095-0.924c0.062,0.008,0.123,0.016,0.185,0.023c-0.054,0.293-0.09,0.592-0.09,0.9c0,2.762,2.237,5,5,5
		c2.76,0,5-1.899,5-4.661c0-0.033-0.011,0.236-0.011,0.236s0.014,0,0.019,0c0,0-0.008-0.271-0.008-0.236c0,2.762,2.237,4.83,5,4.83
		c2.76,0,5-1.985,5-4.747c0-0.034-0.011,0.153-0.011,0.153s0.014,0,0.019,0c0,0-0.008-0.27-0.008-0.236c0,2.762,2.237,4.83,5,4.83
		c2.76,0,5-2.321,5-5.083c0-0.309-0.038-0.651-0.092-0.944c0.062-0.008,0.122-0.036,0.184-0.044
		c-0.056,0.301-0.092,0.597-0.092,0.913c0,2.762,2.237,4.995,5,4.995c2.76,0,5-2.242,5-5.004c0-0.941-0.276-1.814-0.731-2.566
		c0.414-0.099,0.823-0.199,1.225-0.303c0.801,1.69,2.511,2.867,4.508,2.867c2.76,0,5-2.238,5-5c0-0.467-0.084-0.908-0.205-1.338
		c0.419-0.229,0.821-0.463,1.193-0.701c0.91,1.23,2.359,2.039,4.012,2.039c2.76,0,5-2.238,5-5
		C145.377,47.162,143.137,44.925,140.377,44.925z"/>
</g>
</svg>
