<?xml version="1.0" encoding="utf-8"?>
<!-- Generator: Adobe Illustrator 16.0.0, SVG Export Plug-In . SVG Version: 6.00 Build 0)  -->
<!DOCTYPE svg PUBLIC "-//W3C//DTD SVG 1.1//EN" "http://www.w3.org/Graphics/SVG/1.1/DTD/svg11.dtd">
<svg version="1.1" xmlns="http://www.w3.org/2000/svg" xmlns:xlink="http://www.w3.org/1999/xlink" x="0px" y="0px" width="200px"
	 height="225px" viewBox="0 0 200 225" enable-background="new 0 0 200 225" xml:space="preserve">
<g id="Ext">
</g>
<g id="Guides">
</g>
<g id="_x31_2_Col_Grid_1_" display="none" enable-background="new    ">
	<g id="Rectangle_xA0_Image_23_" display="inline" opacity="0.102">
	</g>
	<g id="Rectangle_xA0_Image_21_" display="inline" opacity="0.102">
	</g>
	<g id="Rectangle_xA0_Image_19_" display="inline" opacity="0.102">
	</g>
	<g id="Rectangle_xA0_Image_17_" display="inline" opacity="0.102">
	</g>
	<g id="Rectangle_xA0_Image_15_" display="inline" opacity="0.102">
	</g>
	<g id="Rectangle_xA0_Image_13_" display="inline" opacity="0.102">
	</g>
	<g id="Rectangle_xA0_Image_11_" display="inline" opacity="0.102">
	</g>
	<g id="Rectangle_xA0_Image_9_" display="inline" opacity="0.102">
	</g>
	<g id="Rectangle_xA0_Image_7_" display="inline" opacity="0.102">
	</g>
	<g id="Rectangle_xA0_Image_5_" display="inline" opacity="0.102">
	</g>
	<g id="Rectangle_xA0_Image_3_" display="inline" opacity="0.102">
	</g>
	<g id="Rectangle_xA0_Image_1_" display="inline" opacity="0.102">
	</g>
</g>
<g id="Bg">
</g>
<g id="main">
	<g id="Progress">
	</g>
	<g id="Text">
	</g>
</g>
<g id="pane">
</g>
<g id="browserhead">
	<g>
		<ellipse fill="#FFFFE3" stroke="#000000" stroke-miterlimit="10" cx="77.5" cy="87.5" rx="13.5" ry="12.5"/>
		<path fill="#FCFCFC" stroke="#020200" stroke-width="0.8385" stroke-miterlimit="10" d="M85.027,86.667
			c0.039,0.273,0.066,0.55,0.066,0.833c0,3.682-3.4,6.667-7.594,6.667s-7.594-2.985-7.594-6.667c0-0.283,0.026-0.56,0.066-0.833
			h-5.928C64.025,86.943,64,87.219,64,87.5c0,6.903,6.044,12.5,13.5,12.5S91,94.403,91,87.5c0-0.281-0.025-0.557-0.045-0.833H85.027
			z"/>
		<path stroke="#020200" stroke-width="0.4593" stroke-miterlimit="10" d="M69.973,86.667c-0.04,0.273-0.066,0.55-0.066,0.833
			c0,3.682,3.4,6.667,7.594,6.667s7.594-2.985,7.594-6.667c0-0.283-0.027-0.56-0.066-0.833H69.973z"/>
	</g>
	<ellipse fill="#FFFFE3" stroke="#000000" stroke-miterlimit="10" cx="121.5" cy="87.5" rx="13.5" ry="12.5"/>
	<path fill="#FCFCFC" stroke="#020200" stroke-width="0.8385" stroke-miterlimit="10" d="M129.027,86.667
		c0.039,0.273,0.066,0.55,0.066,0.833c0,3.682-3.4,6.667-7.594,6.667s-7.594-2.985-7.594-6.667c0-0.283,0.026-0.56,0.066-0.833
		h-5.928C108.025,86.943,108,87.219,108,87.5c0,6.903,6.044,12.5,13.5,12.5S135,94.403,135,87.5c0-0.281-0.025-0.557-0.045-0.833
		H129.027z"/>
	<path stroke="#020200" stroke-width="0.4593" stroke-miterlimit="10" d="M113.973,86.667c-0.04,0.273-0.066,0.55-0.066,0.833
		c0,3.682,3.4,6.667,7.594,6.667s7.594-2.985,7.594-6.667c0-0.283-0.027-0.56-0.066-0.833H113.973z"/>
	<g>
		<path fill="#CFEFFF" d="M80,108.637c0,3.514-1.119,6.363-2.5,6.363s-2.5-2.85-2.5-6.363S76.119,95,77.5,95S80,105.123,80,108.637z
			"/>
		<path d="M80,108.637c0,0-0.002,0.166-0.006,0.48c-0.006,0.312-0.028,0.773-0.089,1.355c-0.069,0.581-0.177,1.287-0.409,2.071
			c-0.115,0.392-0.262,0.804-0.477,1.211c-0.216,0.401-0.48,0.829-0.92,1.115c-0.432,0.317-1.113,0.206-1.504-0.199
			c-0.416-0.379-0.701-0.889-0.93-1.423c-0.447-1.078-0.691-2.293-0.794-3.555c-0.108-1.268-0.041-2.572,0.049-3.889
			c0.093-1.317,0.222-2.652,0.387-3.984c0.183-1.329,0.396-2.655,0.688-3.95c0.149-0.646,0.313-1.286,0.549-1.907
			c0.13-0.307,0.253-0.615,0.499-0.896c0.094-0.133,0.361-0.298,0.582-0.217c0.067,0.012,0.23,0.113,0.277,0.175
			c0.062,0.069,0.125,0.139,0.166,0.212c0.631,1.177,0.781,2.387,1.01,3.518c0.195,1.136,0.336,2.215,0.447,3.213
			c0.225,1.995,0.363,3.662,0.422,4.831C80.01,107.967,80,108.637,80,108.637z M80,108.637c0,0-0.02-2.684-0.579-6.656
			c-0.145-0.992-0.319-2.064-0.552-3.188c-0.252-1.1-0.479-2.348-1.076-3.37c-0.184-0.249-0.301-0.338-0.48-0.112
			c-0.17,0.205-0.291,0.504-0.398,0.793c-0.211,0.591-0.369,1.22-0.505,1.857c-0.271,1.279-0.464,2.6-0.632,3.921
			c-0.182,1.32-0.326,2.647-0.436,3.955c-0.096,1.309-0.202,2.597-0.141,3.835c0.059,1.237,0.26,2.437,0.66,3.497
			c0.203,0.524,0.465,1.024,0.84,1.388c0.354,0.383,0.93,0.497,1.346,0.224c0.418-0.251,0.699-0.661,0.912-1.058
			c0.218-0.398,0.369-0.807,0.489-1.193c0.24-0.777,0.356-1.48,0.434-2.06c0.067-0.581,0.096-1.04,0.105-1.353
			C79.996,108.803,80,108.637,80,108.637z"/>
	</g>
	<g>
		<path fill="#CFEFFF" d="M125,113.637c0,3.514-1.119,6.363-2.5,6.363s-2.5-2.85-2.5-6.363S121.119,100,122.5,100
			S125,110.123,125,113.637z"/>
		<path d="M125,113.637c0,0-0.002,0.166-0.006,0.48c-0.006,0.312-0.028,0.773-0.089,1.355c-0.069,0.581-0.177,1.287-0.409,2.071
			c-0.115,0.392-0.262,0.804-0.477,1.211c-0.216,0.401-0.48,0.829-0.92,1.115c-0.432,0.317-1.113,0.206-1.504-0.199
			c-0.416-0.379-0.701-0.889-0.93-1.423c-0.447-1.078-0.691-2.293-0.794-3.555c-0.108-1.268-0.041-2.572,0.049-3.889
			c0.093-1.317,0.222-2.652,0.387-3.984c0.183-1.329,0.396-2.655,0.688-3.95c0.149-0.646,0.313-1.286,0.549-1.907
			c0.13-0.307,0.253-0.615,0.499-0.896c0.094-0.133,0.361-0.298,0.582-0.217c0.067,0.012,0.23,0.113,0.277,0.175
			c0.062,0.069,0.125,0.139,0.166,0.212c0.631,1.177,0.781,2.387,1.01,3.518c0.195,1.136,0.336,2.215,0.447,3.213
			c0.225,1.995,0.363,3.662,0.422,4.831C125.01,112.967,125,113.637,125,113.637z M125,113.637c0,0-0.02-2.684-0.579-6.656
			c-0.145-0.992-0.319-2.064-0.552-3.188c-0.252-1.1-0.479-2.348-1.076-3.37c-0.184-0.249-0.301-0.338-0.48-0.112
			c-0.17,0.205-0.291,0.504-0.398,0.793c-0.211,0.591-0.369,1.22-0.505,1.857c-0.271,1.279-0.464,2.6-0.632,3.921
			c-0.182,1.32-0.326,2.647-0.436,3.955c-0.096,1.309-0.202,2.597-0.141,3.835c0.059,1.237,0.26,2.437,0.66,3.497
			c0.203,0.524,0.465,1.024,0.84,1.388c0.354,0.383,0.93,0.497,1.346,0.224c0.418-0.251,0.699-0.661,0.912-1.058
			c0.218-0.398,0.369-0.807,0.489-1.193c0.24-0.777,0.356-1.48,0.434-2.06c0.067-0.581,0.096-1.04,0.105-1.353
			C124.996,113.803,125,113.637,125,113.637z"/>
	</g>
	<g>
		<path fill="#CFEFFF" d="M80,133.637c0,3.514-1.119,6.363-2.5,6.363s-2.5-2.85-2.5-6.363S76.119,120,77.5,120
			S80,130.123,80,133.637z"/>
		<path d="M80,133.637c0,0-0.002,0.166-0.006,0.48c-0.006,0.312-0.028,0.773-0.089,1.355c-0.069,0.581-0.177,1.287-0.409,2.071
			c-0.115,0.392-0.262,0.804-0.477,1.211c-0.216,0.401-0.48,0.829-0.92,1.115c-0.432,0.317-1.113,0.206-1.504-0.199
			c-0.416-0.379-0.701-0.889-0.93-1.423c-0.447-1.078-0.691-2.293-0.794-3.555c-0.108-1.268-0.041-2.572,0.049-3.889
			c0.093-1.317,0.222-2.652,0.387-3.984c0.183-1.329,0.396-2.655,0.688-3.95c0.149-0.646,0.313-1.286,0.549-1.907
			c0.13-0.307,0.253-0.615,0.499-0.896c0.094-0.133,0.361-0.298,0.582-0.217c0.067,0.012,0.23,0.113,0.277,0.175
			c0.062,0.069,0.125,0.139,0.166,0.212c0.631,1.177,0.781,2.387,1.01,3.518c0.195,1.136,0.336,2.215,0.447,3.213
			c0.225,1.995,0.363,3.662,0.422,4.831C80.01,132.967,80,133.637,80,133.637z M80,133.637c0,0-0.02-2.684-0.579-6.656
			c-0.145-0.992-0.319-2.064-0.552-3.188c-0.252-1.1-0.479-2.348-1.076-3.37c-0.184-0.249-0.301-0.338-0.48-0.112
			c-0.17,0.205-0.291,0.504-0.398,0.793c-0.211,0.591-0.369,1.22-0.505,1.857c-0.271,1.279-0.464,2.6-0.632,3.921
			c-0.182,1.32-0.326,2.647-0.436,3.955c-0.096,1.309-0.202,2.597-0.141,3.835c0.059,1.237,0.26,2.437,0.66,3.497
			c0.203,0.524,0.465,1.024,0.84,1.388c0.354,0.383,0.93,0.497,1.346,0.224c0.418-0.251,0.699-0.661,0.912-1.058
			c0.218-0.398,0.369-0.807,0.489-1.193c0.24-0.777,0.356-1.48,0.434-2.06c0.067-0.581,0.096-1.04,0.105-1.353
			C79.996,133.803,80,133.637,80,133.637z"/>
	</g>
	<g>
		<path fill="#CFEFFF" d="M125,138.637c0,3.514-1.119,6.363-2.5,6.363s-2.5-2.85-2.5-6.363S121.119,125,122.5,125
			S125,135.123,125,138.637z"/>
		<path d="M125,138.637c0,0-0.002,0.166-0.006,0.48c-0.006,0.312-0.028,0.773-0.089,1.355c-0.069,0.581-0.177,1.287-0.409,2.071
			c-0.115,0.392-0.262,0.804-0.477,1.211c-0.216,0.401-0.48,0.829-0.92,1.115c-0.432,0.317-1.113,0.206-1.504-0.199
			c-0.416-0.379-0.701-0.889-0.93-1.423c-0.447-1.078-0.691-2.293-0.794-3.555c-0.108-1.268-0.041-2.572,0.049-3.889
			c0.093-1.317,0.222-2.652,0.387-3.984c0.183-1.329,0.396-2.655,0.688-3.95c0.149-0.646,0.313-1.286,0.549-1.907
			c0.13-0.307,0.253-0.615,0.499-0.896c0.094-0.133,0.361-0.298,0.582-0.217c0.067,0.012,0.23,0.113,0.277,0.175
			c0.062,0.069,0.125,0.139,0.166,0.212c0.631,1.177,0.781,2.387,1.01,3.518c0.195,1.136,0.336,2.215,0.447,3.213
			c0.225,1.995,0.363,3.662,0.422,4.831C125.01,137.967,125,138.637,125,138.637z M125,138.637c0,0-0.02-2.684-0.579-6.656
			c-0.145-0.992-0.319-2.064-0.552-3.188c-0.252-1.1-0.479-2.348-1.076-3.37c-0.184-0.249-0.301-0.338-0.48-0.112
			c-0.17,0.205-0.291,0.504-0.398,0.793c-0.211,0.591-0.369,1.22-0.505,1.857c-0.271,1.279-0.464,2.6-0.632,3.921
			c-0.182,1.32-0.326,2.647-0.436,3.955c-0.096,1.309-0.202,2.597-0.141,3.835c0.059,1.237,0.26,2.437,0.66,3.497
			c0.203,0.524,0.465,1.024,0.84,1.388c0.354,0.383,0.93,0.497,1.346,0.224c0.418-0.251,0.699-0.661,0.912-1.058
			c0.218-0.398,0.369-0.807,0.489-1.193c0.24-0.777,0.356-1.48,0.434-2.06c0.067-0.581,0.096-1.04,0.105-1.353
			C124.996,138.803,125,138.637,125,138.637z"/>
	</g>
</g>
</svg>
