<?xml version="1.0" encoding="utf-8"?>
<!-- Generator: Adobe Illustrator 16.0.0, SVG Export Plug-In . SVG Version: 6.00 Build 0)  -->
<!DOCTYPE svg PUBLIC "-//W3C//DTD SVG 1.1//EN" "http://www.w3.org/Graphics/SVG/1.1/DTD/svg11.dtd">
<svg version="1.1" xmlns="http://www.w3.org/2000/svg" xmlns:xlink="http://www.w3.org/1999/xlink" x="0px" y="0px" width="200px"
	 height="225px" viewBox="0 0 200 225" enable-background="new 0 0 200 225" xml:space="preserve">
<g id="Ext">
</g>
<g id="Guides">
</g>
<g id="_x31_2_Col_Grid_1_" display="none" enable-background="new    ">
	<g id="Rectangle_xA0_Image_23_" display="inline" opacity="0.102">
	</g>
	<g id="Rectangle_xA0_Image_21_" display="inline" opacity="0.102">
	</g>
	<g id="Rectangle_xA0_Image_19_" display="inline" opacity="0.102">
	</g>
	<g id="Rectangle_xA0_Image_17_" display="inline" opacity="0.102">
	</g>
	<g id="Rectangle_xA0_Image_15_" display="inline" opacity="0.102">
	</g>
	<g id="Rectangle_xA0_Image_13_" display="inline" opacity="0.102">
	</g>
	<g id="Rectangle_xA0_Image_11_" display="inline" opacity="0.102">
	</g>
	<g id="Rectangle_xA0_Image_9_" display="inline" opacity="0.102">
	</g>
	<g id="Rectangle_xA0_Image_7_" display="inline" opacity="0.102">
	</g>
	<g id="Rectangle_xA0_Image_5_" display="inline" opacity="0.102">
	</g>
	<g id="Rectangle_xA0_Image_3_" display="inline" opacity="0.102">
	</g>
	<g id="Rectangle_xA0_Image_1_" display="inline" opacity="0.102">
	</g>
</g>
<g id="Bg">
</g>
<g id="main">
	<g id="Progress">
	</g>
	<g id="Text">
	</g>
</g>
<g id="pane">
</g>
<g id="browserhead">
	<g>
		<path fill="#FFFFE3" stroke="#000000" stroke-miterlimit="10" d="M97.095,61"/>
		<g>
			<g>
				<line fill="#FFFFE3" x1="80.185" y1="97.544" x2="84.424" y2="101.605"/>
				<path d="M80.219,97.508c0,0,1.213,0.856,2.362,1.778c0.29,0.228,0.604,0.431,0.861,0.658c0.247,0.239,0.443,0.499,0.596,0.737
					c0.31,0.474,0.421,0.888,0.42,0.888l-0.068,0.072c-0.001,0-0.419-0.094-0.905-0.382c-0.245-0.142-0.513-0.327-0.763-0.563
					c-0.238-0.248-0.454-0.553-0.694-0.833c-0.97-1.108-1.877-2.283-1.877-2.283L80.219,97.508z"/>
			</g>
			<g>
				<line fill="#FFFFE3" x1="71.711" y1="100.218" x2="73.607" y2="105.666"/>
				<path d="M71.758,100.201c0,0,0.683,1.29,1.279,2.609c0.152,0.328,0.338,0.646,0.462,0.96c0.109,0.32,0.165,0.635,0.189,0.913
					c0.058,0.553-0.033,0.966-0.034,0.966l-0.094,0.033c-0.001,0-0.329-0.268-0.627-0.736c-0.153-0.233-0.306-0.515-0.418-0.833
					c-0.098-0.324-0.15-0.688-0.234-1.04c-0.352-1.404-0.617-2.839-0.617-2.839L71.758,100.201z"/>
			</g>
			<g>
				<line fill="#FFFFE3" x1="63.237" y1="96.5" x2="60.492" y2="101.605"/>
				<path d="M63.281,96.523c0,0-0.492,1.381-1.064,2.719c-0.14,0.336-0.249,0.688-0.397,0.994c-0.162,0.299-0.357,0.554-0.546,0.761
					c-0.37,0.418-0.737,0.632-0.737,0.632l-0.088-0.047c0,0-0.024-0.425,0.12-0.964c0.069-0.271,0.175-0.575,0.334-0.875
					c0.173-0.292,0.406-0.578,0.61-0.88c0.8-1.215,1.681-2.387,1.681-2.387L63.281,96.523z"/>
			</g>
		</g>
		<g>
			<line fill="#FFFFE3" x1="135.185" y1="96.625" x2="139.424" y2="101"/>
			<path d="M135.221,96.59c0,0,1.218,0.94,2.371,1.944c0.291,0.248,0.606,0.473,0.865,0.719c0.246,0.258,0.441,0.533,0.592,0.785
				c0.306,0.499,0.411,0.927,0.411,0.927l-0.072,0.07c0,0-0.425-0.119-0.913-0.44c-0.248-0.158-0.517-0.361-0.767-0.616
				c-0.237-0.267-0.452-0.589-0.691-0.888c-0.967-1.184-1.868-2.431-1.868-2.431L135.221,96.59z"/>
		</g>
		<g>
			<line fill="#FFFFE3" x1="126.711" y1="99.505" x2="128.607" y2="105.375"/>
			<path d="M126.759,99.489c0,0,0.684,1.4,1.281,2.828c0.153,0.355,0.338,0.7,0.463,1.04c0.109,0.345,0.164,0.682,0.188,0.978
				c0.057,0.59-0.036,1.024-0.036,1.024l-0.096,0.031c0,0-0.33-0.299-0.629-0.81c-0.153-0.255-0.306-0.56-0.419-0.903
				c-0.098-0.349-0.149-0.736-0.233-1.115c-0.351-1.507-0.615-3.042-0.615-3.042L126.759,99.489z"/>
		</g>
		<g>
			<line fill="#FFFFE3" x1="118.237" y1="95.5" x2="115.492" y2="101"/>
			<path d="M118.282,95.522c0,0-0.489,1.474-1.06,2.906c-0.139,0.36-0.248,0.735-0.396,1.063c-0.163,0.321-0.359,0.6-0.548,0.827
				c-0.372,0.458-0.742,0.703-0.742,0.703l-0.09-0.045c0,0-0.027-0.442,0.116-1.016c0.068-0.288,0.172-0.611,0.331-0.935
				c0.174-0.316,0.408-0.629,0.612-0.956c0.802-1.317,1.686-2.594,1.686-2.594L118.282,95.522z"/>
		</g>
		<ellipse fill="#FFFFE3" stroke="#000000" stroke-miterlimit="10" cx="73.176" cy="87.726" rx="12.801" ry="12"/>
		<ellipse fill="#FFFFE3" stroke="#000000" stroke-miterlimit="10" cx="125.176" cy="86.925" rx="12.801" ry="12"/>
	</g>
</g>
</svg>
