<?xml version="1.0" encoding="utf-8"?>
<!-- Generator: Adobe Illustrator 16.0.0, SVG Export Plug-In . SVG Version: 6.00 Build 0)  -->
<!DOCTYPE svg PUBLIC "-//W3C//DTD SVG 1.1//EN" "http://www.w3.org/Graphics/SVG/1.1/DTD/svg11.dtd">
<svg version="1.1" id="Layer_1" xmlns="http://www.w3.org/2000/svg" xmlns:xlink="http://www.w3.org/1999/xlink" x="0px" y="0px"
	 width="200px" height="225px" viewBox="0 0 200 225" enable-background="new 0 0 200 225" xml:space="preserve">
<g id="Ext">
</g>
<g id="Guides">
</g>
<g id="_x31_2_Col_Grid_1_" display="none" enable-background="new    ">
	<g id="Rectangle_xA0_Image_23_" display="inline" opacity="0.102">
	</g>
	<g id="Rectangle_xA0_Image_21_" display="inline" opacity="0.102">
	</g>
	<g id="Rectangle_xA0_Image_19_" display="inline" opacity="0.102">
	</g>
	<g id="Rectangle_xA0_Image_17_" display="inline" opacity="0.102">
	</g>
	<g id="Rectangle_xA0_Image_15_" display="inline" opacity="0.102">
	</g>
	<g id="Rectangle_xA0_Image_13_" display="inline" opacity="0.102">
	</g>
	<g id="Rectangle_xA0_Image_11_" display="inline" opacity="0.102">
	</g>
	<g id="Rectangle_xA0_Image_9_" display="inline" opacity="0.102">
	</g>
	<g id="Rectangle_xA0_Image_7_" display="inline" opacity="0.102">
	</g>
	<g id="Rectangle_xA0_Image_5_" display="inline" opacity="0.102">
	</g>
	<g id="Rectangle_xA0_Image_3_" display="inline" opacity="0.102">
	</g>
	<g id="Rectangle_xA0_Image_1_" display="inline" opacity="0.102">
	</g>
</g>
<g id="Bg">
</g>
<g id="main">
	<g id="Progress">
	</g>
	<g id="Text">
	</g>
</g>
<g id="pane">
</g>
<g>
	<g>
		<path fill="#FFFFFF" d="M88.75,126.979c0,0,5.848,6.77,8.41,7.64c1.851,0.629,6.033,0.317,7.678-0.849
			c1.694-1.201,5.051-7.109,5.051-7.109"/>
		<path d="M88.826,126.914c0,0,0.395,0.237,1.051,0.674c0.653,0.439,1.572,1.074,2.621,1.86c0.529,0.39,1.104,0.801,1.685,1.251
			c0.584,0.419,1.201,0.861,1.839,1.318c0.313,0.225,0.626,0.411,0.937,0.597l0.438,0.216c0.134,0.07,0.215,0.081,0.32,0.139
			c0.122,0.036-0.162-0.047-0.128-0.038l0.01,0.003l0.02,0.004l0.04,0.009l0.08,0.017l0.159,0.035l0.318,0.069
			c0.246,0.068,0.325,0.024,0.488,0.046c0.248,0.03,0.658,0.018,1.033,0.019c0.377,0.019,0.768-0.021,1.151-0.023
			c0.375-0.048,0.766-0.071,1.125-0.138c0.347-0.085,0.734-0.114,1.03-0.208c0.149-0.042,0.334-0.072,0.459-0.12
			c0.11-0.052,0.225-0.098,0.344-0.139l0.045-0.016l0.022-0.007l0.006-0.002c0.12-0.094-0.156,0.126-0.125,0.101l0.016-0.013
			l0.119-0.096l0.237-0.191c0.141-0.126,0.35-0.256,0.445-0.357c0.226-0.212,0.447-0.419,0.663-0.62
			c0.503-0.534,0.978-1.039,1.416-1.506c0.885-0.956,1.655-1.765,2.214-2.318c0.558-0.557,0.898-0.867,0.898-0.867l0.174,0.1
			c0,0-0.843,1.543-2.286,3.755c-0.352,0.558-0.776,1.136-1.215,1.754c-0.244,0.299-0.495,0.606-0.751,0.92
			c-0.286,0.292-0.542,0.567-0.911,0.83c-0.729,0.474-1.578,0.693-2.432,0.886c-0.429,0.093-0.868,0.136-1.307,0.203
			c-0.441,0.022-0.884,0.077-1.33,0.071c-0.883,0-1.809-0.087-2.649-0.342c-0.856-0.339-1.532-0.878-2.177-1.398
			c-1.284-1.051-2.362-2.152-3.283-3.097c-1.828-1.902-2.96-3.248-2.96-3.248L88.826,126.914z"/>
	</g>
	<g>
		<path fill="#FFE1CC" d="M80.615,119.539c0,1.25-0.539,3.818,0,5c0.761,1.672,4.463,4.324,6.627,5c1.531,0.479,5.139,0.549,6.627,0
			c2.104-0.775,5.845-3.332,6.627-5c0.553-1.178,0-5,0-5"/>
		<path d="M80.699,119.542c0,0,0.021,0.132,0.062,0.38c0.037,0.241,0.088,0.633,0.117,1.094c0.038,0.454,0.085,1.006,0.139,1.639
			c0.078,0.589,0.207,1.318,0.491,1.604c0.123,0.151,0.247,0.326,0.376,0.467c0.123,0.101,0.25,0.2,0.378,0.303
			c0.205,0.195,0.603,0.475,0.903,0.717c0.688,0.482,1.451,0.953,2.248,1.398c0.777,0.461,1.701,0.808,2.379,1.02
			c0.575,0.141,0.834,0.145,1.328,0.191c0.471,0.043,0.955,0.045,1.439,0.054c0.944,0.02,1.988-0.036,2.658-0.21l0.127-0.027
			l0.016-0.003c-0.129,0.051-0.029,0.012-0.055,0.021l0.011-0.004l0.044-0.02l0.09-0.036l0.357-0.146l0.359-0.135l0.291-0.138
			c0.382-0.165,0.79-0.374,1.2-0.604c0.805-0.453,1.578-0.916,2.272-1.394c0.315-0.251,0.681-0.487,0.939-0.731
			c0.142-0.121,0.281-0.24,0.418-0.356c0.102-0.114,0.2-0.228,0.297-0.337l0.076-0.082l0.02-0.021l0.01-0.011l0.005-0.005
			c0.04-0.1-0.049,0.129-0.038,0.104l0.027-0.067l0.109-0.267c0.092-0.192,0.098-0.309,0.135-0.433
			c0.08-0.224,0.129-0.573,0.177-0.873c0.079-0.61,0.144-1.168,0.182-1.626c0.079-0.927,0.124-1.456,0.124-1.456l0.168-0.022
			c0,0,0.08,0.521,0.166,1.438c0.041,0.46,0.084,1.019,0.09,1.664c-0.014,0.631,0.029,1.421-0.359,2.144
			c-0.391,0.729-1.057,1.299-1.723,1.914c-0.701,0.58-1.47,1.153-2.312,1.678c-0.838,0.531-1.744,1.031-2.739,1.378
			c-1.031,0.292-2.096,0.336-3.155,0.349c-1.051-0.021-2.135-0.101-3.146-0.355c-1.018-0.316-1.934-0.797-2.77-1.331
			c-0.844-0.521-1.607-1.104-2.301-1.693c-0.652-0.61-1.336-1.231-1.695-1.931c-0.411-0.741-0.347-1.518-0.35-2.15
			c0.027-0.645,0.088-1.201,0.134-1.658c0.101-0.91,0.112-1.436,0.112-1.436L80.699,119.542z"/>
	</g>
	<g>
		<path fill="#FFE1CC" d="M100.615,119.926c0,0-0.538,3.82,0,5c0.759,1.666,4.396,4.223,6.443,5c1.447,0.549,4.955,0.479,6.443,0
			c2.104-0.678,5.703-3.328,6.443-5c0.525-1.184,0-3.75,0-5"/>
		<path d="M100.697,119.938c0,0,0.047,0.521,0.129,1.437c0.039,0.451,0.104,1,0.179,1.604c0.052,0.297,0.085,0.629,0.179,0.922
			c0.067,0.322,0.176,0.578,0.275,0.688c0.121,0.154,0.244,0.312,0.371,0.473c0.127,0.123,0.254,0.203,0.375,0.31
			c0.199,0.188,0.572,0.461,0.878,0.702c0.669,0.484,1.427,0.951,2.211,1.412c0.396,0.224,0.799,0.447,1.212,0.632
			c0.206,0.102,0.412,0.198,0.61,0.265l0.296,0.125l0.146,0.062l0.01,0.005c0.027,0.01-0.197-0.065-0.098-0.032l0.022,0.006
			l0.047,0.012l0.092,0.024c0.586,0.169,0.757,0.147,1.242,0.197c0.452,0.038,0.928,0.032,1.399,0.034
			c0.935,0.004,1.953-0.066,2.674-0.24l0.068-0.016l0.034-0.007l0.009-0.002c-0.168,0.062-0.039,0.015-0.074,0.026l0.021-0.008
			l0.18-0.068l0.355-0.133c0.261-0.081,0.438-0.169,0.615-0.254c0.354-0.146,0.756-0.366,1.15-0.59
			c0.776-0.455,1.528-0.924,2.188-1.416c0.31-0.254,0.649-0.5,0.897-0.748c0.131-0.123,0.277-0.244,0.395-0.362
			c0.097-0.116,0.191-0.229,0.283-0.342l0.037-0.042l0.02-0.021l0.01-0.011l0.004-0.005c-0.014,0.039,0.039-0.098-0.031,0.087
			l0.058-0.132l0.11-0.262c0.074-0.177,0.062-0.252,0.113-0.383c0.073-0.248,0.123-0.601,0.155-0.891
			c0.054-0.624,0.101-1.132,0.138-1.58c0.068-0.921,0.18-1.417,0.18-1.417h0.166c0,0,0.011,0.474,0.107,1.375
			c0.043,0.451,0.104,0.981,0.129,1.616c0.002,0.617,0.062,1.394-0.297,2.115c-0.104,0.172-0.207,0.344-0.314,0.521
			c-0.122,0.165-0.266,0.314-0.399,0.479c-0.262,0.34-0.601,0.617-0.918,0.935c-0.668,0.601-1.416,1.181-2.237,1.712
			c-0.816,0.535-1.722,1.032-2.705,1.354c-1.016,0.271-2.062,0.345-3.105,0.369c-1.031-0.009-2.117-0.062-3.104-0.357
			c-0.992-0.364-1.862-0.869-2.685-1.403c-0.821-0.53-1.573-1.104-2.249-1.694c-0.322-0.314-0.662-0.584-0.934-0.927
			c-0.139-0.164-0.286-0.319-0.41-0.483c-0.105-0.172-0.209-0.34-0.311-0.506c-0.191-0.367-0.256-0.763-0.28-1.115
			c-0.048-0.358-0.029-0.696-0.037-1.016c0.011-0.636,0.051-1.187,0.091-1.64c0.084-0.905,0.161-1.419,0.161-1.419L100.697,119.938z
			"/>
	</g>
	<path fill="#FFE1CC" stroke="#000000" stroke-width="0.5" stroke-miterlimit="10" d="M77.832,124.506c0,0,0.988-4.092,2.168-4.506
		c1.18-0.413,4.506,2.168,4.506,2.168"/>
	<g>
		<path fill="#050505" d="M100.377,120.25c2.758,0,5-4.25,5-8.25h-10C95.377,116,97.614,120.25,100.377,120.25z"/>
		<path d="M100.371,120c0.215,0,0.447-0.146,0.648-0.214c0.205-0.052,0.407-0.175,0.601-0.272c0.202-0.076,0.376-0.236,0.56-0.35
			c0.182-0.113,0.328-0.292,0.49-0.43c0.292-0.314,0.559-0.658,0.78-1.023s0.386-0.768,0.534-1.165
			c0.287-0.802,0.459-1.638,0.533-2.478c0.075-0.838,0.063-1.677-0.019-2.501l0.877,0.876c-0.834,0.1-1.666,0.127-2.5,0.184
			c-0.834,0.037-1.666,0.042-2.5,0.06c-0.834-0.022-1.666-0.021-2.5-0.064c-0.834-0.054-1.666-0.087-2.5-0.186l0.87-0.87
			c-0.081,0.825-0.093,1.664-0.017,2.503c0.074,0.839,0.248,1.674,0.535,2.475c0.148,0.396,0.311,0.797,0.535,1.161
			c0.223,0.366,0.489,0.701,0.782,1.017c0.162,0.137,0.31,0.301,0.491,0.413c0.183,0.112,0.357,0.241,0.559,0.316
			c0.191,0.101,0.396,0.284,0.606,0.336c0.205,0.067,0.425,0.213,0.638,0.213L100.371,120L100.371,120z M100.377,120
			c-0.222,0-0.451-0.072-0.668-0.139c-0.22-0.047-0.436-0.137-0.639-0.235c-0.418-0.166-0.781-0.454-1.125-0.735
			c-0.326-0.307-0.625-0.645-0.883-1.009c-0.256-0.362-0.48-0.753-0.676-1.151c-0.389-0.799-0.803-1.65-0.977-2.521
			c-0.176-0.869-0.41-1.757-0.41-2.644V111h0.377c3.334,0,6.666,0,10,0H105v0.566c0,0.887,0.143,1.772-0.033,2.642
			s-0.332,1.72-0.722,2.519c-0.195,0.397-0.358,0.783-0.616,1.146c-0.256,0.363-0.525,0.695-0.852,1.001
			c-0.346,0.282-0.691,0.556-1.109,0.721c-0.201,0.099-0.412,0.22-0.635,0.269c-0.221,0.066-0.432,0.138-0.65,0.138L100.377,120
			L100.377,120z"/>
	</g>
</g>
</svg>
