<?xml version="1.0" encoding="utf-8"?>
<!-- Generator: Adobe Illustrator 16.0.0, SVG Export Plug-In . SVG Version: 6.00 Build 0)  -->
<!DOCTYPE svg PUBLIC "-//W3C//DTD SVG 1.1//EN" "http://www.w3.org/Graphics/SVG/1.1/DTD/svg11.dtd">
<svg version="1.1" id="Layer_1" xmlns="http://www.w3.org/2000/svg" xmlns:xlink="http://www.w3.org/1999/xlink" x="0px" y="0px"
	 width="200px" height="225px" viewBox="0 0 200 225" enable-background="new 0 0 200 225" xml:space="preserve">
<g id="Ext">
</g>
<g id="Guides">
</g>
<g id="_x31_2_Col_Grid_1_" display="none" enable-background="new    ">
	<g id="Rectangle_xA0_Image_23_" display="inline" opacity="0.102">
	</g>
	<g id="Rectangle_xA0_Image_21_" display="inline" opacity="0.102">
	</g>
	<g id="Rectangle_xA0_Image_19_" display="inline" opacity="0.102">
	</g>
	<g id="Rectangle_xA0_Image_17_" display="inline" opacity="0.102">
	</g>
	<g id="Rectangle_xA0_Image_15_" display="inline" opacity="0.102">
	</g>
	<g id="Rectangle_xA0_Image_13_" display="inline" opacity="0.102">
	</g>
	<g id="Rectangle_xA0_Image_11_" display="inline" opacity="0.102">
	</g>
	<g id="Rectangle_xA0_Image_9_" display="inline" opacity="0.102">
	</g>
	<g id="Rectangle_xA0_Image_7_" display="inline" opacity="0.102">
	</g>
	<g id="Rectangle_xA0_Image_5_" display="inline" opacity="0.102">
	</g>
	<g id="Rectangle_xA0_Image_3_" display="inline" opacity="0.102">
	</g>
	<g id="Rectangle_xA0_Image_1_" display="inline" opacity="0.102">
	</g>
</g>
<g id="Bg">
</g>
<g id="main">
	<g id="Progress">
	</g>
	<g id="Text">
	</g>
</g>
<g id="pane">
</g>
<g>
	<path fill="#894231" stroke="#5E2C22" stroke-width="0.9428" stroke-miterlimit="10" d="M80.452,20.454
		c-2.768-1.631-5.417-2.458-8.96-2.502c-3.041-0.038-5.519,0.73-8.201-1.029c2.359,2.242,1.796,7.858,3.094,10.787
		c1.127,2.543,4.795,7.85,7.858,8.251c1.498-5.172,4.347-8.878,8.25-12.906c-1.017-1.133-2.134-2.22-3.217-3.311"/>
	<g>
		<path fill="#F1D2F7" d="M80.716,22.91c-3.918-2.698-7.234-2.856-11.894-2.755c0.667,2.284,0.093,4.482,0.532,6.867
			c0.501,2.705,2.195,4.154,4.17,6.176"/>
		<path fill="#F1D2F7" d="M80.69,22.952l-1.347-0.781c-0.224-0.134-0.467-0.218-0.7-0.33l-0.701-0.315
			c-0.231-0.11-0.485-0.167-0.726-0.253l-0.731-0.237c-0.497-0.123-1-0.217-1.5-0.325c-0.511-0.053-1.016-0.129-1.525-0.175
			c-0.514-0.021-1.023-0.059-1.537-0.067c-1.029-0.009-2.06,0.021-3.094,0.064l0.354-0.483l0.229,0.922
			c0.043,0.311,0.101,0.623,0.136,0.934c0.056,0.622,0.082,1.24,0.095,1.846c0.019,0.604,0.02,1.201,0.063,1.782
			c0.025,0.29,0.038,0.581,0.081,0.863l0.053,0.427l0.013,0.107c-0.004-0.029,0.014,0.054,0.02,0.076l0.052,0.22
			c0.08,0.284,0.124,0.614,0.226,0.85c0.103,0.252,0.152,0.517,0.298,0.769c0.135,0.25,0.232,0.521,0.401,0.757
			c0.159,0.242,0.302,0.492,0.48,0.728c0.332,0.484,0.868,1.113,1.253,1.576c0.376,0.471,0.652,0.816,1.295,1.585l-0.072,0.07
			c-1.506-1.325-2.045-1.691-2.89-2.611c-0.226-0.214-0.472-0.569-0.669-0.814c-0.204-0.241-0.383-0.575-0.555-0.843
			c-0.179-0.262-0.304-0.611-0.446-0.91c-0.157-0.314-0.204-0.6-0.292-0.897l-0.064-0.224l-0.038-0.145l-0.021-0.119l-0.071-0.472
			c-0.06-0.315-0.065-0.627-0.08-0.941c-0.027-0.625-0.009-1.238,0.013-1.839c0.022-0.603,0.03-1.193,0.008-1.777
			c-0.017-0.29-0.051-0.575-0.078-0.865l-0.169-0.845l-0.097-0.484l0.451,0.001c1.042,0.003,2.086,0.02,3.132,0.075
			c0.524,0.033,1.047,0.093,1.568,0.139c0.521,0.071,1.042,0.168,1.558,0.258c0.51,0.14,1.021,0.27,1.522,0.426l0.736,0.286
			c0.241,0.103,0.494,0.177,0.727,0.303l0.699,0.366c0.228,0.127,0.472,0.231,0.688,0.375l1.298,0.861L80.69,22.952z"/>
	</g>
	<g>
		<g>
			<path fill="#894231" d="M117.48,19.949c2.702-1.738,5.317-2.669,8.856-2.852c3.036-0.159,5.542,0.513,8.153-1.351
				c-2.269,2.332-1.486,7.922-2.667,10.9c-1.026,2.585-4.484,8.03-7.528,8.553c-1.699-5.109-4.691-8.702-8.75-12.573
				c0.97-1.172,2.044-2.302,3.084-3.435"/>
			<path fill="#5E2C22" d="M117.458,19.907l1.925-1.127c0.331-0.168,0.684-0.299,1.025-0.45l1.035-0.438
				c0.351-0.13,0.721-0.201,1.078-0.305l1.086-0.288c0.362-0.102,0.741-0.108,1.109-0.166l1.114-0.138
				c0.755-0.106,1.484-0.095,2.239-0.103c0.75-0.004,1.487,0.01,2.22-0.034c0.368-0.003,0.723-0.079,1.085-0.113
				c0.357-0.052,0.702-0.167,1.052-0.242c0.336-0.126,0.666-0.266,0.995-0.405l0.916-0.562l1.431-0.879l-1.094,1.272
				c-0.293,0.338-0.552,0.709-0.737,1.131c-0.193,0.416-0.342,0.858-0.452,1.313c-0.229,0.908-0.349,1.853-0.447,2.803
				c-0.098,0.953-0.166,1.913-0.282,2.879c-0.121,0.964-0.277,1.951-0.667,2.899c-0.173,0.437-0.401,0.908-0.621,1.336
				c-0.223,0.436-0.458,0.864-0.711,1.284c-0.498,0.841-1.041,1.655-1.64,2.434c-0.6,0.779-1.258,1.521-2.013,2.185
				c-0.378,0.331-0.785,0.639-1.236,0.899c-0.443,0.27-0.952,0.463-1.491,0.587l-0.389,0.087l-0.157-0.415l-0.667-1.774l-0.799-1.72
				l-0.929-1.657c-0.348-0.529-0.686-1.069-1.044-1.594c-0.385-0.506-0.756-1.023-1.152-1.523c-0.412-0.487-0.817-0.981-1.237-1.465
				c-0.843-0.962-1.726-1.898-2.625-2.818l-0.169-0.172l0.161-0.168c1.068-1.118,1.861-1.884,3.249-3.326l0.069,0.064
				c-1.294,1.527-1.958,2.398-2.947,3.569l-0.025-0.321c0.959,0.871,1.899,1.764,2.813,2.691c0.45,0.469,0.873,0.966,1.312,1.448
				c0.423,0.497,0.821,1.015,1.233,1.523c0.389,0.528,0.756,1.071,1.135,1.608c0.343,0.559,0.673,1.13,1.001,1.7l0.848,1.782
				l0.698,1.847l-0.545-0.325c0.397-0.093,0.803-0.228,1.185-0.456c0.386-0.215,0.753-0.485,1.104-0.78
				c0.704-0.591,1.348-1.28,1.938-2.012c0.592-0.734,1.135-1.512,1.641-2.312c0.252-0.4,0.49-0.81,0.714-1.226
				c0.229-0.423,0.429-0.816,0.621-1.268c0.361-0.83,0.534-1.76,0.667-2.699c0.132-0.943,0.219-1.901,0.336-2.861
				c0.117-0.961,0.256-1.929,0.516-2.882c0.126-0.476,0.292-0.949,0.514-1.401c0.212-0.457,0.512-0.876,0.857-1.259l0.337,0.394
				l-0.993,0.586c-0.358,0.145-0.717,0.289-1.079,0.414c-0.375,0.079-0.748,0.187-1.124,0.233c-0.379,0.027-0.758,0.097-1.134,0.089
				c-0.753,0.026-1.502-0.007-2.238-0.02c-0.73-0.011-1.494-0.04-2.216,0.046l-1.101,0.11c-0.364,0.049-0.74,0.044-1.098,0.136
				l-1.075,0.257c-0.356,0.093-0.727,0.154-1.073,0.274l-1.027,0.407c-0.342,0.141-0.692,0.26-1.027,0.417l-1.951,1.08
				L117.458,19.907z"/>
		</g>
		<g>
			<path fill="#F1D2F7" d="M117.366,24.375c3.455-3.269,6.705-3.937,11.324-4.556c-0.305,2.359,0.602,4.444,0.535,6.867
				c-0.08,2.75-1.527,4.443-3.168,6.746"/>
			<path fill="#F1D2F7" d="M117.332,24.338l1.15-1.05c0.188-0.177,0.414-0.317,0.621-0.478l0.635-0.469
				c0.208-0.162,0.447-0.271,0.671-0.412l0.682-0.397c0.472-0.231,0.957-0.437,1.438-0.654c0.498-0.169,0.995-0.345,1.5-0.495
				c0.508-0.125,1.018-0.267,1.528-0.38c1.026-0.215,2.055-0.394,3.083-0.557l0.445-0.071l-0.021,0.494l-0.038,0.861
				c0.02,0.29,0.029,0.577,0.059,0.867c0.068,0.581,0.169,1.162,0.283,1.754c0.113,0.591,0.228,1.194,0.296,1.816
				c0.035,0.311,0.077,0.622,0.066,0.941l0.003,0.477v0.118l-0.016,0.146l-0.022,0.224c-0.04,0.307-0.035,0.587-0.141,0.921
				c-0.094,0.316-0.147,0.658-0.285,0.944c-0.129,0.292-0.22,0.602-0.384,0.873c-0.158,0.272-0.393,0.726-0.584,0.974
				c-0.693,1.038-1.148,1.456-2.432,2.997l-0.082-0.059c0.517-0.859,0.715-1.214,1.015-1.739c0.311-0.516,0.664-1.113,0.918-1.642
				c0.14-0.261,0.271-0.569,0.39-0.833c0.132-0.259,0.2-0.561,0.296-0.829c0.105-0.272,0.119-0.552,0.182-0.817
				c0.064-0.249,0.062-0.586,0.096-0.878l0.021-0.227c0.001-0.023,0.008-0.11,0.007-0.081l-0.003-0.107l-0.014-0.431
				c-0.001-0.284-0.032-0.575-0.053-0.866c-0.047-0.581-0.137-1.17-0.213-1.77c-0.08-0.6-0.151-1.214-0.19-1.838
				c-0.013-0.312-0.005-0.629-0.01-0.942l0.085-0.947l0.424,0.422c-1.027,0.117-2.053,0.249-3.066,0.414
				c-0.505,0.088-1.005,0.204-1.509,0.304c-0.496,0.124-0.982,0.277-1.479,0.408c-0.476,0.183-0.958,0.354-1.432,0.552l-0.684,0.348
				c-0.226,0.121-0.469,0.216-0.68,0.361l-0.645,0.42c-0.212,0.146-0.438,0.269-0.639,0.433l-1.21,0.98L117.332,24.338z"/>
		</g>
	</g>
	<g>
		<g>
			<path fill="#894231" d="M141.541,181.984c-4.327,2.787-8.914,5.138-13.708,6.998l2.715,10.834
				c1.007,4.02,5.079,6.459,9.099,5.451c4.02-1.007,6.459-5.08,5.451-9.099L141.541,181.984z"/>
			<g>
				<path fill="#5E2C22" d="M141.509,182.061l-3.21,2.01l-3.373,1.883l-3.463,1.71l-3.548,1.532l0.138-0.266l1.555,5.969
					l0.775,2.985c0.275,0.992,0.469,2.015,0.857,2.914c0.768,1.791,2.324,3.245,4.168,3.88c0.922,0.318,1.904,0.444,2.871,0.367
					c0.478-0.037,0.973-0.129,1.414-0.257c0.516-0.149,0.93-0.32,1.353-0.544c1.715-0.893,3-2.52,3.532-4.366
					c0.27-0.925,0.33-1.903,0.217-2.86c-0.135-0.929-0.438-1.979-0.65-2.967c-0.477-2-0.934-4.006-1.369-6.016
					C142.322,186.051,141.925,184.053,141.509,182.061z M141.587,181.973c0.579,1.976,1.179,3.944,1.722,5.93
					c0.562,1.979,1.105,3.962,1.631,5.949c0.252,1.018,0.562,1.936,0.765,3.037c0.176,1.078,0.092,2.195-0.196,3.25
					c-0.566,2.117-2.084,3.949-4.037,4.928c-0.49,0.248-1.039,0.449-1.516,0.574c-0.548,0.146-1.071,0.228-1.618,0.26
					c-1.086,0.062-2.182-0.104-3.194-0.48c-2.031-0.761-3.711-2.363-4.527-4.374c-0.404-1-0.574-2.021-0.832-3.011l-0.723-2.998
					l-1.445-5.997l-0.047-0.192l0.185-0.074l3.563-1.44l3.486-1.622l3.401-1.797l3.366-1.999L141.587,181.973z"/>
			</g>
		</g>
		<g>
			<path fill="#894231" d="M59.112,185.495l-3.562,14.207c-1.008,4.019,1.433,8.092,5.451,9.099c4.018,1.008,8.091-1.433,9.1-5.451
				l2.758-11.006C68.055,190.534,63.457,188.232,59.112,185.495z"/>
			<g>
				<path fill="#5E2C22" d="M59.143,185.57l-2.857,11.986c-0.224,1.017-0.518,1.99-0.666,3.008
					c-0.119,0.975-0.039,2.004,0.248,2.955c0.564,1.914,1.949,3.562,3.73,4.428c0.872,0.434,1.893,0.688,2.854,0.729
					c0.98,0.049,1.976-0.115,2.889-0.476c1.837-0.708,3.335-2.208,4.033-4.025c0.338-0.886,0.525-1.938,0.779-2.933l0.731-3.01
					c0.494-2.004,1.007-4.004,1.531-6.002l0.282,0.541l-3.56-1.515c-1.159-0.562-2.319-1.126-3.466-1.708l-3.357-1.906
					L59.143,185.57z M59.082,185.425l3.435,1.86l3.438,1.697c1.175,0.504,2.338,1.026,3.501,1.55l3.565,1.383l0.377,0.146
					l-0.095,0.395c-0.479,2.009-0.969,4.014-1.479,6.015l-0.773,2.999c-0.281,0.997-0.467,1.989-0.881,3.028
					c-0.83,2.024-2.54,3.639-4.572,4.385c-1.016,0.379-2.106,0.539-3.187,0.468c-1.101-0.072-2.118-0.354-3.091-0.849
					c-1.922-0.976-3.379-2.78-3.945-4.84c-0.287-1.032-0.363-2.104-0.203-3.177c0.174-1.022,0.5-2.026,0.743-3.021L59.082,185.425z"
					/>
			</g>
		</g>
		<g>
			
				<ellipse transform="matrix(0.468 0.8837 -0.8837 0.468 250.5736 -15.8053)" fill="#020202" cx="138.414" cy="200.214" rx="5" ry="7.501"/>
			<path d="M131.835,203.688c0,0,0.081,0.129,0.237,0.375c0.168,0.229,0.436,0.551,0.879,0.854c0.432,0.314,1.041,0.585,1.777,0.703
				c0.731,0.132,1.584,0.136,2.48-0.026c0.896-0.161,1.848-0.454,2.777-0.915c0.455-0.234,0.923-0.49,1.388-0.801
				c0.438-0.3,0.887-0.632,1.29-1.02c0.824-0.756,1.531-1.695,1.966-2.748c0.427-1.035,0.472-2.278-0.015-3.146
				c-0.576-1.007-1.565-1.48-2.661-1.691c-1.095-0.172-2.229-0.08-3.276,0.207c-1.066,0.25-2.021,0.683-2.933,1.188
				c-0.847,0.48-1.646,1.062-2.282,1.671c-0.643,0.614-1.136,1.28-1.465,1.931c-0.339,0.646-0.488,1.283-0.497,1.811
				c-0.028,0.527,0.086,0.938,0.171,1.206C131.779,203.549,131.835,203.688,131.835,203.688z M131.729,203.75
				c0,0-0.068-0.146-0.194-0.413c-0.109-0.274-0.234-0.698-0.265-1.257c-0.086-1.112,0.351-2.766,1.558-4.311
				c0.598-0.778,1.351-1.518,2.323-2.144c0.904-0.604,2.027-1.093,3.216-1.407c1.198-0.289,2.514-0.38,3.821-0.098
				c0.651,0.148,1.299,0.4,1.881,0.786c0.297,0.188,0.556,0.421,0.808,0.688c0.117,0.144,0.252,0.298,0.347,0.438l0.237,0.398
				c0.698,1.364,0.478,2.821-0.038,4.01c-0.542,1.188-1.359,2.175-2.273,2.953c-0.45,0.4-0.937,0.733-1.434,1.047
				c-0.244,0.158-0.486,0.273-0.729,0.41c-0.264,0.137-0.512,0.235-0.762,0.353c-1.008,0.421-2.021,0.671-2.967,0.752
				c-1.896,0.18-3.484-0.292-4.377-0.938c-0.455-0.31-0.742-0.651-0.914-0.89C131.811,203.883,131.729,203.75,131.729,203.75z"/>
		</g>
		<g>
			<path fill="#020202" d="M55.463,200.382c-1.041,2.56,1.226,5.897,5.062,7.457c3.838,1.562,7.791,0.752,8.832-1.805
				c1.039-2.562-1.227-5.897-5.064-7.458S56.502,197.824,55.463,200.382z"/>
			<path d="M55.521,200.402c0,0-0.047,0.146-0.135,0.423c-0.068,0.274-0.143,0.688-0.09,1.223c0.034,0.532,0.219,1.175,0.602,1.813
				c0.369,0.646,0.912,1.301,1.613,1.886c0.699,0.583,1.533,1.122,2.484,1.54c0.474,0.199,0.97,0.393,1.505,0.549
				c0.511,0.143,1.054,0.273,1.61,0.334c1.109,0.146,2.284,0.087,3.369-0.258c1.066-0.338,2.049-1.104,2.402-2.03
				c0.4-1.089,0.129-2.149-0.412-3.126c-0.571-0.947-1.37-1.76-2.263-2.379c-0.878-0.658-1.82-1.111-2.794-1.484
				c-0.912-0.34-1.87-0.58-2.746-0.677c-0.884-0.099-1.711-0.049-2.42,0.117c-0.714,0.155-1.298,0.45-1.707,0.78
				c-0.424,0.318-0.664,0.669-0.814,0.906C55.592,200.271,55.521,200.402,55.521,200.402z M55.404,200.359
				c0,0,0.067-0.146,0.192-0.414c0.14-0.26,0.386-0.627,0.794-1.008c0.797-0.781,2.344-1.51,4.303-1.576
				c0.98-0.043,2.029,0.062,3.135,0.404c1.045,0.305,2.141,0.854,3.144,1.562c0.992,0.731,1.905,1.684,2.529,2.868
				c0.305,0.594,0.526,1.252,0.604,1.945c0.046,0.35,0.035,0.695-0.008,1.061c-0.035,0.183-0.066,0.386-0.113,0.546l-0.152,0.438
				c-0.599,1.412-1.857,2.176-3.099,2.545c-1.259,0.349-2.54,0.354-3.725,0.153c-0.597-0.088-1.163-0.245-1.722-0.427
				c-0.28-0.086-0.523-0.197-0.783-0.293c-0.273-0.114-0.508-0.24-0.758-0.357c-0.971-0.502-1.812-1.117-2.482-1.791
				c-1.355-1.339-2.014-2.857-2.092-3.957c-0.055-0.547,0.023-0.988,0.096-1.271C55.355,200.51,55.404,200.359,55.404,200.359z"/>
		</g>
	</g>
	<g>
		<path fill="#894231" stroke="#5E2C22" stroke-width="0.9428" stroke-miterlimit="10" d="M99.667,20.787
			c44.181,0,80,39.626,80,88.508s-35.819,88.508-80,88.508c-44.184,0-80.002-39.626-80.002-88.508S55.483,20.787,99.667,20.787z"/>
		<g>
			<path fill="#0A0A07" d="M85.324,25.407c0.887-5.64,10.397-11.845,16.338-9.341c5.641,2.376,6.484,12.285,6.441,17.466
				c-1.797-2.373-3.795-4.337-5.646-6.582c-0.538,2.901,1.912,4.543,1.329,7.462c-1.159-2.658-3.966-4.466-5.285-7.154
				c-0.524,2.111-0.314,5.109-0.294,7.584c-0.992-3.008-2.781-4.878-4.321-7.468c0.241,1.422-0.06,2.785-0.409,3.989
				c-1.16-2.357-0.863-6.985-2.994-8.826c-2.646-2.286-3.33,0.019-5.16,0.846"/>
			<path fill="#050500" d="M85.275,25.396c0.1-0.409,0.151-0.828,0.29-1.229c0.166-0.39,0.276-0.818,0.494-1.184
				c0.384-0.761,0.863-1.473,1.401-2.136c0.537-0.665,1.142-1.27,1.773-1.848l0.988-0.82l1.053-0.74
				c0.725-0.458,1.469-0.897,2.258-1.253c0.382-0.206,0.798-0.333,1.205-0.485c0.402-0.163,0.823-0.276,1.249-0.378l0.636-0.163
				l0.652-0.095c0.436-0.073,0.874-0.123,1.322-0.111l0.668-0.009c0.224,0.01,0.447,0.051,0.67,0.076l0.671,0.088
				c0.222,0.054,0.438,0.127,0.658,0.19c0.238,0.078,0.391,0.108,0.701,0.227l0.562,0.285c0.369,0.153,0.762,0.448,1.147,0.739
				c0.759,0.581,1.33,1.263,1.861,1.994c0.262,0.363,0.468,0.757,0.703,1.136c0.215,0.388,0.391,0.791,0.586,1.188
				c0.35,0.806,0.639,1.632,0.873,2.468c0.469,1.672,0.766,3.372,0.959,5.076c0.19,1.705,0.278,3.414,0.28,5.127l0.002,2.272
				l-1.508-1.773l-2.764-3.251l-2.9-3.271l1.563-0.404c-0.011,0.26-0.024,0.516-0.048,0.773c-0.01,0.129,0.035,0.26,0.049,0.39
				l0.052,0.392c0.062,0.267,0.161,0.54,0.237,0.812l0.336,0.861c0.12,0.313,0.245,0.618,0.361,0.938l0.154,0.516
				c0.045,0.175,0.111,0.337,0.139,0.523l0.074,0.562c0.016,0.188,0.062,0.373,0.049,0.562l-0.104,1.14l-0.257,2.813l-1.379-2.638
				l-0.461-0.88l-0.584-0.849c-0.434-0.554-0.902-1.104-1.396-1.654c-0.5-0.553-0.996-1.132-1.484-1.736l-0.693-0.965l-0.602-1.059
				l1.51-0.161l-0.139,0.871c-0.039,0.293-0.112,0.573-0.128,0.879c-0.026,0.613-0.065,1.222-0.083,1.84l0.023,3.793l0.023,3.954
				l-1.489-3.713l-0.764-1.903c-0.15-0.311-0.339-0.607-0.506-0.912l-0.517-0.911l-1.172-1.803l-1.159-1.87l1.095-0.402l0.072,1.102
				c-0.015,0.362-0.055,0.722-0.084,1.082c-0.057,0.352-0.137,0.696-0.204,1.044c-0.087,0.339-0.187,0.67-0.28,1.005l-0.388,1.396
				l-0.576-1.311c-0.574-1.307-0.721-2.607-0.92-3.875c-0.195-1.264-0.384-2.525-0.868-3.656c-0.129-0.274-0.262-0.553-0.441-0.792
				c-0.162-0.257-0.372-0.463-0.6-0.666c-0.245-0.222-0.488-0.396-0.74-0.556c-0.264-0.141-0.538-0.278-0.826-0.304
				c-0.584-0.103-1.146,0.244-1.647,0.624c-0.507,0.384-1.021,0.805-1.625,1.061L85.3,23.337c0.577-0.268,1.063-0.691,1.563-1.098
				c0.249-0.203,0.514-0.397,0.81-0.541c0.291-0.15,0.632-0.22,0.96-0.183c0.666,0.065,1.24,0.455,1.73,0.856
				c0.248,0.206,0.494,0.433,0.678,0.701c0.204,0.255,0.355,0.545,0.503,0.833c0.555,1.179,0.786,2.463,1.026,3.723
				c0.244,1.257,0.426,2.549,0.963,3.705l-0.121,0.011c0.084-0.325,0.174-0.648,0.252-0.975c0.057-0.329,0.127-0.658,0.174-0.988
				c0.02-0.333,0.053-0.667,0.061-1l-0.083-0.996L93.793,27.1l0.151,0.238c0.771,1.214,1.569,2.413,2.387,3.604l0.555,0.934
				c0.18,0.313,0.38,0.616,0.544,0.938l0.851,2.002l-0.152,0.025l-0.06-3.805c0.013-0.635,0.049-1.271,0.072-1.906
				c0.015-0.317,0.088-0.632,0.13-0.947l0.146-0.947l0.036-0.23l0.124,0.214l0.552,0.957l0.653,0.896
				c0.47,0.572,0.955,1.133,1.459,1.682c0.501,0.55,0.987,1.114,1.455,1.7c0.221,0.304,0.43,0.615,0.645,0.923l0.53,0.996
				l-0.18,0.02l0.08-0.939c0.015-0.156-0.032-0.312-0.047-0.468l-0.062-0.468c-0.146-0.614-0.365-1.212-0.615-1.802
				c-0.251-0.592-0.478-1.199-0.637-1.832L102.34,28.4c-0.016-0.162-0.061-0.323-0.053-0.486l0.07-0.98l0.018-0.225l0.156,0.18
				l2.852,3.261l2.789,3.329l-0.162,0.054c0.01-1.678-0.063-3.356-0.24-5.024c-0.178-1.667-0.455-3.326-0.896-4.942
				c-0.223-0.809-0.493-1.601-0.809-2.376c-0.18-0.378-0.34-0.766-0.533-1.135c-0.215-0.357-0.401-0.734-0.641-1.076
				c-0.476-0.683-1.012-1.336-1.66-1.851c-0.325-0.254-0.644-0.521-1.032-0.694l-0.558-0.296l-0.588-0.19
				c-0.197-0.062-0.395-0.133-0.595-0.187l-0.618-0.135C99.637,15.6,99.432,15.5,99.225,15.5h-0.626
				c-0.418,0-0.833,0.062-1.247,0.124l-0.622,0.099l-0.61,0.154c-0.408,0.09-0.814,0.196-1.206,0.347
				c-0.396,0.138-0.798,0.259-1.174,0.444c-0.775,0.318-1.511,0.724-2.233,1.146l-1.051,0.688l-0.994,0.771
				c-0.636,0.545-1.248,1.117-1.797,1.752c-0.547,0.632-1.04,1.312-1.441,2.047c-0.228,0.353-0.342,0.758-0.52,1.134
				c-0.15,0.388-0.218,0.81-0.33,1.213L85.275,25.396z"/>
		</g>
		<path fill="#FCEDEB" stroke="#FCEDEB" stroke-width="0.9572" stroke-miterlimit="10" d="M171.324,148.549
			c-11.094-16.902-38.332-28.855-70.201-28.855c-32.451,0-60.113,12.391-70.806,29.779c16.397,28.83,41.767,47.33,70.246,47.33
			C129.344,196.803,154.945,177.905,171.324,148.549z"/>
	</g>
	<g>
		<g>
			<path fill="#894231" d="M69.665,81.083c0,0-2.709,30.374,0,40.001c1.586,5.641,6.989,17.363,12.223,20
				c4.092,2.062,18.334,0,18.334,0c-3.422-0.663,18.17,0.129,18.333,0c5.986-4.771,6.092-22.348,6.112-30.001c0.019-7.5,0-30,0-30"
				/>
			<path fill="#5E2C22" d="M69.712,81.087c-0.441,6.857-0.711,13.728-0.744,20.589c-0.026,1.716-0.036,3.43-0.021,5.143
				c0.027,1.713,0.043,3.427,0.144,5.133c0.073,1.708,0.21,3.409,0.411,5.095c0.225,1.696,0.499,3.312,1.045,4.938
				c0.524,1.59,1.165,3.183,1.852,4.733c0.688,1.556,1.434,3.087,2.256,4.572c0.819,1.485,1.688,2.946,2.673,4.312
				c0.979,1.362,2.046,2.674,3.28,3.724c0.619,0.506,1.279,0.987,1.969,1.235c0.416,0.185,0.775,0.239,1.137,0.318
				c0.34,0.098,0.796,0.118,1.188,0.184c1.644,0.179,3.342,0.177,5.035,0.125c3.389-0.109,6.801-0.494,10.166-0.934l-0.04,1.655
				c-0.138-0.033-0.209-0.032-0.465-0.128l-0.052-0.021c-0.046-0.021-0.092-0.049-0.135-0.078s-0.084-0.062-0.123-0.096
				c0.029,0.059-0.318-0.336-0.267-0.648c0.038-0.369,0.12-0.401,0.19-0.513c0.082-0.102,0.19-0.186,0.295-0.237
				c0.067-0.031,0.1-0.043,0.153-0.061c0.167-0.049,0.222-0.05,0.298-0.062c0.273-0.032,0.481-0.039,0.705-0.049l1.285-0.021
				l2.527,0.024l5.034,0.121l5.025,0.148l2.509,0.13l1.236,0.08h0.136c0.026,0,0.028,0,0.028,0c0.037,0-0.055-0.062-0.168-0.017
				c-0.049-0.006-0.268,0.158-0.215,0.113l0.027-0.043l0.225-0.226l0.451-0.441c0.336-0.286,0.529-0.599,0.741-0.901
				c0.211-0.311,0.45-0.584,0.622-0.959l0.562-1.059l0.463-1.124c0.334-0.737,0.521-1.546,0.787-2.317
				c0.211-0.793,0.414-1.592,0.593-2.396c0.333-1.617,0.612-3.254,0.81-4.904c0.213-1.646,0.362-3.308,0.475-4.971
				c0.467-6.648,0.309-13.155,0.416-19.856l0.386-19.898h0.096l0.011,19.898l0.006,9.949c-0.006,3.352-0.056,6.653-0.269,10
				c-0.103,1.672-0.239,3.318-0.442,4.983c-0.187,1.667-0.457,3.312-0.783,4.957c-0.176,0.819-0.377,1.63-0.588,2.442
				c-0.266,0.797-0.451,1.615-0.793,2.388c-0.56,1.577-1.404,3.09-2.539,4.331l-0.447,0.439l-0.225,0.221
				c-0.17,0.119-0.24,0.045-0.355,0.07l-1.26-0.014l-2.514-0.053L109.491,141l-5.024-0.085l-2.512-0.006l-1.254,0.026
				c-0.207,0.011-0.417,0.021-0.617,0.047c-0.049,0.006-0.102,0.016-0.139,0.025c-0.031,0.001-0.022,0.033,0.006-0.046
				c-0.02-0.079-0.025-0.047-0.016-0.053c0,0,0.004,0.004,0.018,0.008c0.08,0.031,0.188,0.052,0.286,0.072l0.533,0.112l-0.538,0.071
				c-3.408,0.458-6.836,0.791-10.275,0.888c-1.72,0.039-3.445,0.029-5.16-0.17c-0.846-0.115-1.732-0.242-2.526-0.57
				c-0.818-0.31-1.522-0.84-2.187-1.389c-1.31-1.133-2.391-2.492-3.386-3.895c-0.997-1.405-1.868-2.895-2.687-4.405
				c-1.628-3.03-3.015-6.192-4.093-9.464c-0.538-1.635-0.822-3.35-1.032-5.053c-0.191-1.709-0.316-3.426-0.377-5.144
				c-0.089-1.717-0.093-3.438-0.107-5.155c-0.002-1.719,0.016-3.438,0.061-5.155c0.17-6.873,0.576-13.737,1.153-20.586
				L69.712,81.087z"/>
		</g>
		<g>
			<ellipse fill="#E0B6AD" cx="100.665" cy="136" rx="20" ry="10"/>
			<path fill="#E0B6AD" d="M120.712,136.002c0.001,0-0.022,0.381-0.11,1.085c-0.184,0.69-0.504,1.728-1.369,2.765
				c-0.846,1.037-2.114,2.088-3.735,2.994c-1.619,0.912-3.585,1.668-5.782,2.297c-2.203,0.614-4.658,1.041-7.281,1.221
				c-0.66,0.027-1.312,0.076-2.005,0.087c-0.669-0.005-1.34,0.01-2.03-0.013c-1.394-0.055-2.809-0.16-4.235-0.369
				c-2.848-0.43-5.808-1.142-8.544-2.625c-1.371-0.715-2.705-1.609-3.808-2.832c-1.096-1.192-1.978-2.814-1.991-4.61l0.066-0.647
				c0.031-0.197,0.018-0.356,0.086-0.586c0.137-0.434,0.239-0.927,0.439-1.3c0.365-0.778,0.852-1.468,1.401-2.075
				c1.103-1.223,2.436-2.117,3.806-2.832c2.736-1.483,5.699-2.188,8.545-2.621c5.716-0.812,11.144-0.293,15.551,0.922
				c2.197,0.629,4.164,1.382,5.783,2.297c1.621,0.904,2.892,1.956,3.735,2.992c0.865,1.037,1.187,2.074,1.369,2.76
				C120.689,135.618,120.713,136.002,120.712,136.002z M120.618,135.998c0,0-0.027-0.373-0.121-1.068
				c-0.188-0.67-0.511-1.681-1.372-2.693c-0.843-1.012-2.105-2.035-3.721-2.914c-1.611-0.883-3.564-1.633-5.762-2.186
				c-4.388-1.094-9.775-1.466-15.368-0.527c-2.777,0.5-5.648,1.261-8.254,2.692c-1.305,0.696-2.553,1.562-3.543,2.685
				c-0.992,1.113-1.713,2.494-1.719,4.015c0.004,1.502,0.729,2.913,1.719,4.015c0.99,1.123,2.238,1.987,3.543,2.685
				c2.605,1.433,5.477,2.192,8.254,2.692c5.588,0.938,10.982,0.565,15.368-0.527c2.196-0.553,4.149-1.303,5.762-2.186
				c1.615-0.879,2.878-1.902,3.721-2.914c0.863-1.014,1.184-2.024,1.371-2.689C120.592,136.375,120.618,135.998,120.618,135.998z"/>
		</g>
	</g>
	<g>
		<path fill="#894231" stroke="#894231" stroke-width="0.9428" stroke-miterlimit="10" d="M60.682,138.43
			c1.457,3.688,0.333,8.205-2.513,10.096l0,0c-2.845,1.891-6.336,0.434-7.794-3.254l-5.283-13.348
			c-1.46-3.688-0.335-8.206,2.511-10.096l0,0c2.849-1.891,6.337-0.434,7.795,3.253L60.682,138.43z"/>
		<g>
			<path fill="#020202" d="M62.048,140.792c1.045,2.409-0.369,6.004-3.157,8.032c-2.788,2.029-5.896,1.723-6.939-0.686
				c-1.045-2.408,0.37-6.005,3.156-8.033C57.897,138.077,61.004,138.385,62.048,140.792z"/>
			<path d="M62.06,140.788c0,0,0.038,0.13,0.11,0.373c0.07,0.243,0.209,0.592,0.203,1.073c0.069,0.476-0.023,1.049-0.129,1.699
				c-0.097,0.314-0.199,0.651-0.307,1.006c-0.157,0.336-0.322,0.688-0.494,1.058c-0.21,0.349-0.451,0.696-0.689,1.065
				c-0.287,0.332-0.578,0.683-0.898,1.021c-0.361,0.297-0.704,0.637-1.109,0.917c-0.394,0.281-0.842,0.532-1.307,0.738
				c-0.933,0.406-2.02,0.634-3.094,0.428c-1.075-0.195-2.049-0.958-2.486-1.986c-0.418-1.021-0.405-2.188-0.186-3.236
				c0.16-0.514,0.281-1.043,0.543-1.506c0.203-0.491,0.494-0.926,0.786-1.35c0.267-0.441,0.654-0.777,0.966-1.16
				c0.357-0.343,0.734-0.641,1.105-0.938c0.76-0.53,1.594-0.921,2.387-1.116c0.795-0.201,1.568-0.216,2.221-0.068
				c0.654,0.144,1.173,0.448,1.521,0.772c0.353,0.321,0.561,0.64,0.682,0.862C61.999,140.666,62.06,140.788,62.06,140.788z
				 M62.036,140.796c0,0-0.063-0.118-0.181-0.341c-0.127-0.217-0.34-0.523-0.693-0.832c-0.35-0.309-0.863-0.594-1.503-0.717
				c-0.638-0.127-1.388-0.094-2.157,0.123c-0.775,0.218-1.548,0.6-2.297,1.152c-0.338,0.297-0.713,0.594-1.059,0.922
				c-0.303,0.373-0.683,0.698-0.941,1.129c-0.283,0.412-0.566,0.832-0.765,1.31c-0.253,0.451-0.376,0.958-0.538,1.456
				c-0.217,1.023-0.253,2.088,0.141,3.102c0.408,0.978,1.311,1.699,2.336,1.898c1.025,0.206,2.087-0.001,3.002-0.393
				c0.462-0.201,0.891-0.435,1.293-0.715c0.396-0.271,0.74-0.604,1.102-0.892c0.322-0.328,0.615-0.669,0.906-0.992
				c0.24-0.36,0.486-0.704,0.7-1.045c0.177-0.362,0.346-0.711,0.507-1.042c0.109-0.352,0.213-0.686,0.311-0.998
				c0.109-0.645,0.205-1.214,0.139-1.684c0.012-0.477-0.126-0.827-0.194-1.07C62.073,140.926,62.036,140.796,62.036,140.796z"/>
		</g>
		<g>
			<path fill="#894231" d="M139.162,138.43c-1.458,3.688-0.334,8.205,2.512,10.096l0,0c2.848,1.891,6.336,0.434,7.794-3.254
				l5.283-13.348c1.46-3.688,0.336-8.206-2.509-10.096l0,0c-2.85-1.891-6.338-0.434-7.797,3.253L139.162,138.43z"/>
			<g>
				<path fill="#894231" d="M139.206,138.445c0,0-0.089,0.261-0.255,0.75c-0.135,0.492-0.32,1.23-0.366,2.191
					c-0.05,0.958,0.052,2.144,0.479,3.409c0.446,1.241,1.219,2.627,2.576,3.538c0.678,0.454,1.463,0.777,2.327,0.827
					c0.857,0.051,1.748-0.164,2.537-0.614c0.782-0.467,1.462-1.145,1.987-1.947c0.537-0.796,0.849-1.752,1.23-2.722
					c1.49-3.854,3.08-7.968,4.672-12.08c0.756-2.007,0.756-4.231,0.076-6.188c-0.678-1.94-2.127-3.598-3.979-4.019
					c-0.9-0.192-1.848-0.103-2.66,0.297c-0.814,0.386-1.516,0.983-2.055,1.688c-0.553,0.713-0.896,1.488-1.236,2.336
					c-0.352,0.82-0.691,1.611-1.018,2.374C140.861,134.355,139.207,138.445,139.206,138.445z M139.118,138.413
					c-0.001,0,1.593-4.117,3.806-10.363c0.282-0.778,0.576-1.589,0.881-2.428c0.293-0.818,0.666-1.767,1.256-2.576
					c0.572-0.83,1.383-1.555,2.369-2.022c0.978-0.487,2.162-0.623,3.282-0.388c0.274,0.089,0.55,0.14,0.823,0.275l0.41,0.184
					l0.338,0.199c0.508,0.3,0.932,0.674,1.332,1.086c0.775,0.843,1.335,1.865,1.697,2.945c0.709,2.161,0.64,4.608-0.205,6.722
					c-1.659,4.098-3.318,8.192-4.875,12.033c-0.392,0.941-0.73,1.939-1.324,2.796c-0.574,0.853-1.323,1.574-2.191,2.049
					c-0.873,0.464-1.852,0.667-2.775,0.583c-0.924-0.078-1.777-0.469-2.452-0.955c-1.39-1.002-2.132-2.441-2.558-3.712
					c-0.391-1.299-0.483-2.489-0.44-3.457c0.047-0.972,0.233-1.716,0.37-2.219C139.027,138.676,139.118,138.413,139.118,138.413z"/>
			</g>
		</g>
		<g>
			<path fill="#020202" d="M137.434,141.352c-0.783,2.508,1.006,5.931,3.994,7.649c2.99,1.722,6.047,1.085,6.828-1.422
				c0.781-2.506-1.008-5.931-3.994-7.649C141.271,138.209,138.215,138.848,137.434,141.352z"/>
			<path d="M137.445,141.354c0,0-0.023,0.133-0.068,0.383c-0.041,0.248-0.141,0.613-0.079,1.085c-0.016,0.474,0.14,1.03,0.317,1.659
				c0.131,0.302,0.27,0.621,0.416,0.959c0.195,0.312,0.4,0.641,0.613,0.981c0.25,0.317,0.53,0.632,0.809,0.965
				c0.322,0.29,0.652,0.599,1.008,0.892c0.389,0.244,0.766,0.539,1.189,0.768c0.432,0.236,0.881,0.423,1.36,0.573
				c0.953,0.291,2.029,0.385,3.027,0.069c0.998-0.308,1.819-1.121,2.121-2.137c0.282-1.049,0.135-2.104-0.19-3.1
				c-0.215-0.477-0.39-0.969-0.689-1.391c-0.247-0.453-0.574-0.842-0.9-1.221c-0.302-0.4-0.715-0.684-1.055-1.021
				c-0.381-0.289-0.783-0.545-1.151-0.805c-0.804-0.47-1.612-0.768-2.407-0.9c-0.787-0.133-1.537-0.086-2.158,0.107
				c-0.623,0.189-1.104,0.528-1.418,0.872c-0.318,0.345-0.498,0.673-0.602,0.901C137.494,141.229,137.445,141.354,137.445,141.354z
				 M137.42,141.348c0,0,0.048-0.128,0.137-0.365c0.098-0.233,0.271-0.571,0.588-0.931c0.312-0.358,0.795-0.719,1.431-0.931
				c0.633-0.215,1.401-0.283,2.217-0.168c0.808,0.109,1.681,0.408,2.49,0.855c0.401,0.258,0.809,0.514,1.198,0.815
				c0.353,0.347,0.773,0.64,1.086,1.051c0.334,0.39,0.67,0.79,0.926,1.257c0.31,0.435,0.484,0.945,0.699,1.44
				c0.33,1.021,0.467,2.179,0.16,3.237c-0.326,1.07-1.213,1.932-2.261,2.24c-1.046,0.318-2.151,0.209-3.122-0.096
				c-0.484-0.156-0.957-0.357-1.379-0.595c-0.433-0.236-0.811-0.537-1.199-0.794c-0.354-0.303-0.684-0.62-1.004-0.918
				c-0.275-0.342-0.553-0.664-0.799-0.987c-0.21-0.349-0.412-0.681-0.604-0.998c-0.146-0.341-0.282-0.665-0.412-0.969
				c-0.176-0.636-0.327-1.195-0.309-1.677c-0.059-0.478,0.043-0.84,0.086-1.088C137.396,141.48,137.42,141.348,137.42,141.348z"/>
		</g>
	</g>
</g>
</svg>
