<?xml version="1.0" encoding="utf-8"?>
<!-- Generator: Adobe Illustrator 16.0.0, SVG Export Plug-In . SVG Version: 6.00 Build 0)  -->
<!DOCTYPE svg PUBLIC "-//W3C//DTD SVG 1.1//EN" "http://www.w3.org/Graphics/SVG/1.1/DTD/svg11.dtd">
<svg version="1.1" xmlns="http://www.w3.org/2000/svg" xmlns:xlink="http://www.w3.org/1999/xlink" x="0px" y="0px"
	 width="201.332px" height="242.865px" viewBox="0 0 201.332 242.865" enable-background="new 0 0 201.332 242.865"
	 xml:space="preserve">
<g id="Ext">
</g>
<g id="Guides">
</g>
<g id="_x31_2_Col_Grid_1_" display="none" enable-background="new    ">
	<g id="Rectangle_xA0_Image_23_" display="inline" opacity="0.102">
	</g>
	<g id="Rectangle_xA0_Image_21_" display="inline" opacity="0.102">
	</g>
	<g id="Rectangle_xA0_Image_19_" display="inline" opacity="0.102">
	</g>
	<g id="Rectangle_xA0_Image_17_" display="inline" opacity="0.102">
	</g>
	<g id="Rectangle_xA0_Image_15_" display="inline" opacity="0.102">
	</g>
	<g id="Rectangle_xA0_Image_13_" display="inline" opacity="0.102">
	</g>
	<g id="Rectangle_xA0_Image_11_" display="inline" opacity="0.102">
	</g>
	<g id="Rectangle_xA0_Image_9_" display="inline" opacity="0.102">
	</g>
	<g id="Rectangle_xA0_Image_7_" display="inline" opacity="0.102">
	</g>
	<g id="Rectangle_xA0_Image_5_" display="inline" opacity="0.102">
	</g>
	<g id="Rectangle_xA0_Image_3_" display="inline" opacity="0.102">
	</g>
	<g id="Rectangle_xA0_Image_1_" display="inline" opacity="0.102">
	</g>
</g>
<g id="Bg">
</g>
<g id="main">
	<g id="Progress">
	</g>
	<g id="Text">
	</g>
</g>
<g id="pane">
	<ellipse fill="#FCFCFC" stroke="#020200" stroke-miterlimit="10" cx="100.765" cy="136.289" rx="90.009" ry="88.508"/>
	<path fill="#0A0C01" stroke="#020200" stroke-miterlimit="10" d="M88.85,48.5c-0.361,11.083,6.773,20.223,10.131,29.928
		c0.521,0.264,1.721,0.715,2.264,0.933c4.356-8.907,10.82-20.335,8.786-30.284c-6.71-0.498-15.855-1.967-22.259,0.503
		c-1.108,7.008,5.826,16.577,8.76,22.421"/>
	<path fill="#0A0C01" stroke="#020200" stroke-miterlimit="10" d="M178.01,90.056c-9.616,3.759-14.51,13.867-21.431,20.623
		c-0.014,0.59,0.093,1.889,0.128,2.48c9.389,0.813,21.791,2.682,29.459-2.917c-2.314-6.513-4.793-15.68-9.519-20.805
		c-6.44,1.547-11.782,11.627-15.577,16.555"/>
	<path fill="#0A0C01" stroke="#020200" stroke-miterlimit="10" d="M190.336,150.119c-10.812-3.476-21.489-0.303-31.826-0.361
		c-0.385,0.346-1.112,1.193-1.455,1.571c7.726,6.096,17.428,14.627,27.69,15.829c2.082-5.309,5.695-12.314,4.785-18.226
		c-6.628-2.912-17.679-0.024-24.121,0.681"/>
	<path fill="#0A0C01" stroke="#020200" stroke-miterlimit="10" d="M20.491,94.529c10.069,5.203,16.278,16.025,24.062,23.811
		c0.092,0.59,0.158,1.869,0.201,2.455c-9.24-0.607-21.34-0.619-29.713-7.361c1.443-6.146,2.699-14.916,6.725-19.314
		c6.615,2.517,13.267,13.378,17.696,18.867"/>
	<path fill="#0A0C01" stroke="#020200" stroke-miterlimit="10" d="M13.055,156.119c10.812-3.476,21.489-0.303,31.826-0.361
		c0.385,0.346,1.112,1.193,1.455,1.571c-7.726,6.096-17.428,14.627-27.69,15.829c-2.082-5.309-5.695-12.314-4.785-18.226
		c6.628-2.912,17.679-0.024,24.121,0.681"/>
	<path fill="none" stroke="#020200" stroke-miterlimit="10" d="M86.998,142"/>
	<path fill="none" stroke="#020200" stroke-miterlimit="10" d="M39.997,197.33"/>
	<rect x="11.666" y="-16.751" fill="none" width="179" height="16.751"/>
	<text transform="matrix(1 0 0 1 74.5537 -3.9707)" fill="#686868" font-family="'MyriadPro-Regular'" font-size="18">default</text>
</g>
<g id="browserhead">
</g>
</svg>
