<?xml version="1.0" encoding="utf-8"?>
<!-- Generator: Adobe Illustrator 16.0.0, SVG Export Plug-In . SVG Version: 6.00 Build 0)  -->
<!DOCTYPE svg PUBLIC "-//W3C//DTD SVG 1.1//EN" "http://www.w3.org/Graphics/SVG/1.1/DTD/svg11.dtd">
<svg version="1.1" xmlns="http://www.w3.org/2000/svg" xmlns:xlink="http://www.w3.org/1999/xlink" x="0px" y="0px"
	 width="201.332px" height="242.865px" viewBox="0 0 201.332 242.865" enable-background="new 0 0 201.332 242.865"
	 xml:space="preserve">
<g id="Ext">
</g>
<g id="Guides">
</g>
<g id="_x31_2_Col_Grid_1_" display="none" enable-background="new    ">
	<g id="Rectangle_xA0_Image_23_" display="inline" opacity="0.102">
	</g>
	<g id="Rectangle_xA0_Image_21_" display="inline" opacity="0.102">
	</g>
	<g id="Rectangle_xA0_Image_19_" display="inline" opacity="0.102">
	</g>
	<g id="Rectangle_xA0_Image_17_" display="inline" opacity="0.102">
	</g>
	<g id="Rectangle_xA0_Image_15_" display="inline" opacity="0.102">
	</g>
	<g id="Rectangle_xA0_Image_13_" display="inline" opacity="0.102">
	</g>
	<g id="Rectangle_xA0_Image_11_" display="inline" opacity="0.102">
	</g>
	<g id="Rectangle_xA0_Image_9_" display="inline" opacity="0.102">
	</g>
	<g id="Rectangle_xA0_Image_7_" display="inline" opacity="0.102">
	</g>
	<g id="Rectangle_xA0_Image_5_" display="inline" opacity="0.102">
	</g>
	<g id="Rectangle_xA0_Image_3_" display="inline" opacity="0.102">
	</g>
	<g id="Rectangle_xA0_Image_1_" display="inline" opacity="0.102">
	</g>
</g>
<g id="Bg">
</g>
<g id="main">
	<g id="Progress">
	</g>
	<g id="Text">
	</g>
</g>
<g id="pane">
	<path fill="none" stroke="#020200" stroke-miterlimit="10" d="M95.215,140.666"/>
	<path fill="none" stroke="#020200" stroke-miterlimit="10" d="M48.214,195.996"/>
	<path fill="#020200" d="M109.548,153.663c0,0-7.878-6.239-8.334-9.333c-0.201-1.364,2.334-5,2.334-5l5-2.667l4,0.667l2.666,2.333
		c0,0,1.763,2.664,1.667,3.667C116.58,146.483,109.548,153.663,109.548,153.663z"/>
	<path fill="none" stroke="#020200" stroke-miterlimit="10" d="M93.997,140.666"/>
	<path fill="none" stroke="#020200" stroke-miterlimit="10" d="M46.996,195.996"/>
	<path fill="#020200" d="M109.33,153.663c0,0-7.878-6.239-8.334-9.333c-0.201-1.364,2.334-5,2.334-5l5-2.667l4,0.667l2.666,2.333
		c0,0,1.763,2.664,1.667,3.667C116.362,146.483,109.33,153.663,109.33,153.663z"/>
	<path fill="none" stroke="#020200" stroke-miterlimit="10" d="M92.332,140.666"/>
	<path fill="none" stroke="#020200" stroke-miterlimit="10" d="M101,142.666"/>
	<path fill="none" stroke="#020200" stroke-miterlimit="10" d="M99.666,142.666"/>
	<path fill="none" stroke="#020200" stroke-miterlimit="10" d="M87,142.666"/>
	<path fill="none" stroke="#020200" stroke-miterlimit="10" d="M39.998,197.996"/>
	<rect x="11.668" y="-16.084" fill="none" width="179" height="16.75"/>
	<text transform="matrix(1 0 0 1 74.5547 -3.3047)" fill="#686868" font-family="'MyriadPro-Regular'" font-size="18">default</text>
	<rect x="12.002" y="-16.084" fill="none" width="179" height="16.75"/>
	<text transform="matrix(1 0 0 1 74.8887 -3.3047)" fill="#686868" font-family="'MyriadPro-Regular'" font-size="18">default</text>
	<rect x="23.334" y="-16.084" fill="none" width="179" height="16.75"/>
	<text transform="matrix(1 0 0 1 68.293 -3.3047)" fill="#686868" font-family="'MyriadPro-Regular'" font-size="18">default -eye</text>
	<rect x="23.668" y="-16.084" fill="none" width="179" height="16.75"/>
	<text transform="matrix(1 0 0 1 47.459 -3.3047)" fill="#686868" font-family="'MyriadPro-Regular'" font-size="18">default - eye-shut</text>
	<path fill="none" stroke="#020200" stroke-miterlimit="10" d="M92.33,140.666"/>
	<path fill="none" stroke="#020200" stroke-miterlimit="10" d="M100.998,142.666"/>
	<path fill="none" stroke="#020200" stroke-miterlimit="10" d="M99.664,142.666"/>
	<path fill="none" stroke="#020200" stroke-miterlimit="10" d="M86.998,142.666"/>
	<path fill="none" stroke="#020200" stroke-miterlimit="10" d="M39.996,197.996"/>
	<rect x="11.666" y="-16.084" fill="none" width="179" height="16.75"/>
	<text transform="matrix(1 0 0 1 74.5527 -3.3037)" fill="#686868" font-family="'MyriadPro-Regular'" font-size="18">default</text>
	<rect x="12" y="-16.084" fill="none" width="179" height="16.75"/>
	<text transform="matrix(1 0 0 1 74.8867 -3.3037)" fill="#686868" font-family="'MyriadPro-Regular'" font-size="18">default</text>
	<rect x="23.332" y="-16.084" fill="none" width="179" height="16.75"/>
	<text transform="matrix(1 0 0 1 68.292 -3.3037)" fill="#686868" font-family="'MyriadPro-Regular'" font-size="18">default -eye</text>
	<rect x="23.666" y="-16.084" fill="none" width="179" height="16.75"/>
	<text transform="matrix(1 0 0 1 47.457 -3.3037)" fill="#686868" font-family="'MyriadPro-Regular'" font-size="18">default - eye-shut</text>
	<g>
		<polyline fill="none" stroke="#020200" stroke-miterlimit="10" points="109.883,167.579 109.883,162.079 109.383,155.079 
			105.883,152.079 95.383,150.579 87.383,152.579 82.383,155.079 78.883,159.579 76.383,165.579 75.383,169.079 		"/>
		<polyline fill="none" stroke="#020200" stroke-miterlimit="10" points="108.883,167.079 108.883,161.579 109.383,154.579 
			112.883,151.579 123.383,150.079 131.383,152.079 136.383,154.579 139.883,159.079 142.383,165.079 143.383,168.579 		"/>
	</g>
</g>
<g id="browserhead">
</g>
</svg>
