<?xml version="1.0" encoding="utf-8"?>
<!-- Generator: Adobe Illustrator 16.0.0, SVG Export Plug-In . SVG Version: 6.00 Build 0)  -->
<!DOCTYPE svg PUBLIC "-//W3C//DTD SVG 1.1//EN" "http://www.w3.org/Graphics/SVG/1.1/DTD/svg11.dtd">
<svg version="1.1" id="Layer_1" xmlns="http://www.w3.org/2000/svg" xmlns:xlink="http://www.w3.org/1999/xlink" x="0px" y="0px"
	 width="200px" height="255px" viewBox="0 0 200 255" enable-background="new 0 0 200 255" xml:space="preserve">
<g id="Ext">
</g>
<g id="Guides">
</g>
<g id="_x31_2_Col_Grid_1_" display="none" enable-background="new    ">
	<g id="Rectangle_xA0_Image_23_" display="inline" opacity="0.102">
	</g>
	<g id="Rectangle_xA0_Image_21_" display="inline" opacity="0.102">
	</g>
	<g id="Rectangle_xA0_Image_19_" display="inline" opacity="0.102">
	</g>
	<g id="Rectangle_xA0_Image_17_" display="inline" opacity="0.102">
	</g>
	<g id="Rectangle_xA0_Image_15_" display="inline" opacity="0.102">
	</g>
	<g id="Rectangle_xA0_Image_13_" display="inline" opacity="0.102">
	</g>
	<g id="Rectangle_xA0_Image_11_" display="inline" opacity="0.102">
	</g>
	<g id="Rectangle_xA0_Image_9_" display="inline" opacity="0.102">
	</g>
	<g id="Rectangle_xA0_Image_7_" display="inline" opacity="0.102">
	</g>
	<g id="Rectangle_xA0_Image_5_" display="inline" opacity="0.102">
	</g>
	<g id="Rectangle_xA0_Image_3_" display="inline" opacity="0.102">
	</g>
	<g id="Rectangle_xA0_Image_1_" display="inline" opacity="0.102">
	</g>
</g>
<g id="Bg">
</g>
<g id="main">
	<g id="Progress">
	</g>
	<g id="Text">
	</g>
</g>
<g id="pane">
</g>
<g>
	<g>
		
			<ellipse transform="matrix(-0.3441 -0.9389 0.9389 -0.3441 -11.3553 208.0672)" fill="#79A6D3" stroke="#000000" stroke-miterlimit="10" cx="67" cy="108" rx="15" ry="16"/>
		<path fill="#FCFCFC" stroke="#020200" stroke-miterlimit="10" d="M75.033,103.991c0.157,0.292,0.301,0.594,0.417,0.912
			c1.52,4.148-1.03,8.898-5.698,10.608s-9.683-0.267-11.203-4.415c-0.117-0.318-0.202-0.642-0.271-0.966l-6.596,2.417
			c0.092,0.32,0.178,0.64,0.294,0.957c2.85,7.778,11.887,11.62,20.184,8.58s12.713-11.812,9.862-19.589
			c-0.117-0.317-0.259-0.617-0.395-0.92L75.033,103.991z"/>
		<path stroke="#020200" stroke-width="0.5477" stroke-miterlimit="10" d="M58.278,110.131c0.069,0.324,0.154,0.647,0.271,0.966
			c1.52,4.148,6.535,6.125,11.203,4.415s7.218-6.46,5.698-10.608c-0.117-0.318-0.261-0.62-0.417-0.912L58.278,110.131z"/>
	</g>
	<g>
		
			<ellipse transform="matrix(0.3917 -0.9201 0.9201 0.3917 -22.7203 181.636)" fill="#79A6D3" stroke="#000000" stroke-miterlimit="10" cx="126" cy="108" rx="15.001" ry="16.001"/>
		<path fill="#FCFCFC" stroke="#020200" stroke-miterlimit="10" d="M134.601,110.574c-0.086,0.32-0.187,0.639-0.319,0.95
			c-1.73,4.065-6.841,5.783-11.414,3.837c-4.574-1.947-6.879-6.82-5.148-10.885c0.133-0.312,0.292-0.606,0.463-0.89l-6.463-2.751
			c-0.15,0.297-0.309,0.589-0.441,0.899c-3.244,7.623,0.717,16.607,8.848,20.068s17.353,0.086,20.598-7.536
			c0.132-0.311,0.232-0.627,0.341-0.942L134.601,110.574z"/>
		<path stroke="#020200" stroke-width="0.5477" stroke-miterlimit="10" d="M118.182,103.586c-0.171,0.283-0.33,0.578-0.463,0.89
			c-1.73,4.065,0.574,8.938,5.148,10.885c4.573,1.946,9.684,0.229,11.414-3.837c0.133-0.312,0.233-0.63,0.319-0.95L118.182,103.586z
			"/>
	</g>
	<g>
		<path fill="#CFEFFF" d="M74.25,132.636c0,3.515-2.036,6.364-4.549,6.364c-2.512,0-4.549-2.85-4.549-6.364
			c0-3.513,2.037-13.636,4.549-13.636C72.213,119,74.25,129.123,74.25,132.636z"/>
		<path d="M74.25,132.636c0,0-0.003,0.167-0.01,0.48c-0.012,0.313-0.052,0.772-0.163,1.356c-0.125,0.58-0.322,1.286-0.744,2.07
			c-0.21,0.391-0.477,0.805-0.868,1.211c-0.393,0.401-0.873,0.83-1.674,1.115c-0.787,0.316-2.026,0.206-2.736-0.199
			c-0.757-0.379-1.276-0.889-1.692-1.422c-0.814-1.079-1.257-2.294-1.445-3.555c-0.197-1.268-0.075-2.572,0.088-3.889
			c0.17-1.318,0.404-2.652,0.705-3.985c0.333-1.329,0.721-2.655,1.252-3.95c0.271-0.646,0.569-1.287,0.999-1.907
			c0.236-0.308,0.46-0.616,0.908-0.897c0.171-0.133,0.656-0.298,1.059-0.216c0.122,0.012,0.418,0.112,0.503,0.174
			c0.113,0.069,0.228,0.139,0.302,0.212c1.149,1.177,1.421,2.386,1.838,3.517c0.354,1.136,0.611,2.215,0.812,3.213
			c0.41,1.996,0.662,3.662,0.769,4.832C74.268,131.967,74.25,132.636,74.25,132.636z M74.25,132.636c0,0-0.036-2.683-1.054-6.656
			c-0.264-0.992-0.58-2.064-1.004-3.187c-0.458-1.1-0.872-2.348-1.958-3.371c-0.335-0.249-0.547-0.338-0.873-0.112
			c-0.31,0.204-0.529,0.503-0.725,0.792c-0.384,0.591-0.672,1.22-0.918,1.858c-0.493,1.278-0.845,2.599-1.151,3.92
			c-0.331,1.32-0.593,2.647-0.793,3.955c-0.174,1.31-0.367,2.597-0.256,3.835c0.106,1.237,0.473,2.438,1.201,3.497
			c0.37,0.524,0.847,1.024,1.529,1.388c0.644,0.383,1.691,0.497,2.448,0.223c0.761-0.25,1.272-0.661,1.66-1.057
			c0.396-0.398,0.671-0.807,0.89-1.193c0.437-0.777,0.648-1.48,0.789-2.061c0.123-0.581,0.175-1.04,0.191-1.353
			C74.242,132.803,74.25,132.636,74.25,132.636z"/>
	</g>
	<g>
		<path fill="#CFEFFF" d="M133,131.636c0,3.515-2.199,6.364-4.911,6.364s-4.911-2.85-4.911-6.364c0-3.514,2.199-13.636,4.911-13.636
			S133,128.123,133,131.636z"/>
		<path d="M133,131.636c0,0-0.005,0.167-0.012,0.48c-0.012,0.313-0.056,0.772-0.177,1.356c-0.135,0.58-0.346,1.286-0.802,2.07
			c-0.227,0.391-0.515,0.805-0.937,1.211c-0.426,0.401-0.943,0.83-1.807,1.115c-0.851,0.316-2.188,0.206-2.954-0.199
			c-0.816-0.379-1.377-0.889-1.828-1.422c-0.879-1.079-1.356-2.294-1.56-3.555c-0.211-1.268-0.081-2.572,0.096-3.889
			c0.184-1.318,0.438-2.652,0.76-3.985c0.36-1.329,0.779-2.655,1.353-3.95c0.293-0.646,0.615-1.287,1.077-1.907
			c0.256-0.308,0.498-0.616,0.981-0.897c0.184-0.133,0.71-0.298,1.143-0.216c0.131,0.012,0.453,0.112,0.545,0.174
			c0.121,0.069,0.245,0.139,0.326,0.212c1.239,1.177,1.534,2.386,1.983,3.517c0.384,1.136,0.66,2.215,0.879,3.213
			c0.44,1.996,0.713,3.662,0.829,4.832C133.019,130.967,133,131.636,133,131.636z M133,131.636c0,0-0.039-2.683-1.138-6.656
			c-0.286-0.992-0.628-2.064-1.084-3.187c-0.495-1.1-0.939-2.348-2.114-3.371c-0.361-0.249-0.591-0.338-0.943-0.112
			c-0.334,0.204-0.572,0.503-0.78,0.792c-0.415,0.591-0.726,1.22-0.993,1.858c-0.533,1.278-0.913,2.599-1.243,3.92
			c-0.355,1.32-0.638,2.647-0.854,3.955c-0.188,1.31-0.396,2.597-0.277,3.835c0.115,1.237,0.511,2.438,1.297,3.497
			c0.4,0.524,0.914,1.024,1.65,1.388c0.694,0.383,1.826,0.497,2.644,0.223c0.82-0.25,1.373-0.661,1.791-1.057
			c0.428-0.398,0.726-0.807,0.962-1.193c0.47-0.777,0.699-1.48,0.852-2.061c0.132-0.581,0.189-1.04,0.205-1.353
			C132.991,131.803,133,131.636,133,131.636z"/>
	</g>
	<g>
		<path fill="#CFEFFF" d="M75,157.636c0,3.515-2.198,6.364-4.911,6.364c-2.713,0-4.911-2.85-4.911-6.364
			c0-3.513,2.198-13.636,4.911-13.636C72.801,144,75,154.123,75,157.636z"/>
		<path d="M75,157.636c0,0-0.004,0.167-0.012,0.48c-0.013,0.313-0.056,0.772-0.175,1.356c-0.136,0.58-0.348,1.286-0.803,2.07
			c-0.227,0.391-0.515,0.805-0.938,1.211c-0.423,0.401-0.942,0.83-1.807,1.115c-0.849,0.316-2.186,0.206-2.954-0.199
			c-0.817-0.379-1.377-0.889-1.827-1.422c-0.879-1.079-1.357-2.294-1.56-3.555c-0.212-1.268-0.081-2.572,0.096-3.889
			c0.183-1.318,0.437-2.652,0.761-3.984c0.36-1.329,0.778-2.655,1.352-3.95c0.292-0.646,0.614-1.287,1.078-1.907
			c0.255-0.308,0.497-0.615,0.98-0.896c0.186-0.133,0.708-0.299,1.143-0.217c0.132,0.012,0.452,0.112,0.544,0.174
			c0.121,0.069,0.245,0.14,0.326,0.213c1.24,1.177,1.535,2.386,1.984,3.517c0.383,1.136,0.66,2.215,0.878,3.213
			c0.442,1.996,0.714,3.662,0.829,4.832C75.019,156.967,75,157.636,75,157.636z M75,157.636c0,0-0.04-2.683-1.137-6.655
			c-0.285-0.992-0.626-2.064-1.084-3.188c-0.495-1.1-0.941-2.348-2.114-3.371c-0.361-0.249-0.591-0.338-0.942-0.111
			c-0.334,0.203-0.572,0.502-0.782,0.791c-0.415,0.592-0.726,1.221-0.992,1.858c-0.533,1.278-0.912,2.599-1.242,3.92
			c-0.357,1.32-0.64,2.647-0.856,3.955c-0.188,1.31-0.396,2.597-0.276,3.835c0.115,1.237,0.51,2.438,1.295,3.497
			c0.399,0.524,0.914,1.024,1.651,1.388c0.695,0.383,1.826,0.497,2.644,0.223c0.821-0.25,1.374-0.661,1.792-1.057
			c0.428-0.398,0.725-0.807,0.961-1.193c0.471-0.777,0.7-1.48,0.852-2.061c0.132-0.581,0.189-1.04,0.206-1.353
			C74.992,157.803,75,157.636,75,157.636z"/>
	</g>
	<g>
		<path fill="#CFEFFF" d="M132.25,155.636c0,3.515-2.037,6.364-4.55,6.364s-4.549-2.85-4.549-6.364
			c0-3.514,2.036-13.636,4.549-13.636S132.25,152.123,132.25,155.636z"/>
		<path d="M132.25,155.636c0,0-0.004,0.167-0.011,0.48c-0.011,0.313-0.052,0.772-0.164,1.356c-0.124,0.58-0.319,1.286-0.742,2.07
			c-0.21,0.391-0.477,0.805-0.867,1.211c-0.395,0.401-0.875,0.83-1.675,1.115c-0.787,0.316-2.025,0.206-2.736-0.199
			c-0.757-0.379-1.275-0.889-1.693-1.422c-0.813-1.079-1.257-2.294-1.444-3.555c-0.196-1.268-0.075-2.572,0.089-3.889
			c0.17-1.318,0.404-2.652,0.703-3.984c0.334-1.329,0.722-2.655,1.253-3.95c0.271-0.646,0.57-1.287,0.999-1.907
			c0.236-0.308,0.46-0.615,0.908-0.896c0.17-0.133,0.657-0.299,1.059-0.217c0.121,0.012,0.419,0.112,0.505,0.174
			c0.111,0.069,0.228,0.14,0.302,0.213c1.148,1.177,1.422,2.386,1.838,3.517c0.355,1.136,0.611,2.215,0.813,3.213
			c0.409,1.996,0.661,3.662,0.768,4.832C132.268,154.967,132.25,155.636,132.25,155.636z M132.25,155.636
			c0,0-0.036-2.683-1.055-6.655c-0.265-0.992-0.581-2.064-1.004-3.188c-0.458-1.1-0.87-2.348-1.958-3.371
			c-0.334-0.249-0.547-0.338-0.874-0.111c-0.31,0.203-0.53,0.502-0.724,0.791c-0.384,0.592-0.672,1.221-0.919,1.858
			c-0.494,1.278-0.846,2.599-1.151,3.92c-0.33,1.32-0.592,2.647-0.792,3.955c-0.175,1.31-0.366,2.597-0.256,3.835
			c0.106,1.237,0.473,2.438,1.201,3.497c0.369,0.524,0.846,1.024,1.528,1.388c0.643,0.383,1.691,0.497,2.448,0.223
			c0.761-0.25,1.272-0.661,1.66-1.057c0.396-0.398,0.672-0.807,0.89-1.193c0.436-0.777,0.649-1.48,0.789-2.061
			c0.123-0.581,0.176-1.04,0.19-1.353C132.242,155.803,132.25,155.636,132.25,155.636z"/>
	</g>
</g>
</svg>
