<?xml version="1.0" encoding="utf-8"?>
<!-- Generator: Adobe Illustrator 16.0.0, SVG Export Plug-In . SVG Version: 6.00 Build 0)  -->
<!DOCTYPE svg PUBLIC "-//W3C//DTD SVG 1.1//EN" "http://www.w3.org/Graphics/SVG/1.1/DTD/svg11.dtd">
<svg version="1.1" id="Layer_1" xmlns="http://www.w3.org/2000/svg" xmlns:xlink="http://www.w3.org/1999/xlink" x="0px" y="0px"
	 width="200px" height="225px" viewBox="0 0 200 225" enable-background="new 0 0 200 225" xml:space="preserve">
<g id="Ext">
</g>
<g id="Guides">
</g>
<g id="_x31_2_Col_Grid_1_" display="none" enable-background="new    ">
	<g id="Rectangle_xA0_Image_23_" display="inline" opacity="0.102">
	</g>
	<g id="Rectangle_xA0_Image_21_" display="inline" opacity="0.102">
	</g>
	<g id="Rectangle_xA0_Image_19_" display="inline" opacity="0.102">
	</g>
	<g id="Rectangle_xA0_Image_17_" display="inline" opacity="0.102">
	</g>
	<g id="Rectangle_xA0_Image_15_" display="inline" opacity="0.102">
	</g>
	<g id="Rectangle_xA0_Image_13_" display="inline" opacity="0.102">
	</g>
	<g id="Rectangle_xA0_Image_11_" display="inline" opacity="0.102">
	</g>
	<g id="Rectangle_xA0_Image_9_" display="inline" opacity="0.102">
	</g>
	<g id="Rectangle_xA0_Image_7_" display="inline" opacity="0.102">
	</g>
	<g id="Rectangle_xA0_Image_5_" display="inline" opacity="0.102">
	</g>
	<g id="Rectangle_xA0_Image_3_" display="inline" opacity="0.102">
	</g>
	<g id="Rectangle_xA0_Image_1_" display="inline" opacity="0.102">
	</g>
</g>
<g id="Bg">
</g>
<g id="main">
	<g id="Progress">
	</g>
	<g id="Text">
	</g>
</g>
<g id="pane">
</g>
<g>
	<g>
		<path fill="#FFFFFF" stroke="#000000" stroke-miterlimit="10" d="M90.75,139.334c0,0,18.862-4.141,24.667-2
			c0.954,0.352,2.307,2.316,2.333,3.332c0.021,0.786-1.666,2.668-1.666,2.668L90.75,139.334z"/>
		<path fill="#894231" stroke="#000000" stroke-miterlimit="10" d="M86.75,139c0,0-1.742,1.354-1.667,2c0.097,0.828,2.667,2,2.667,2
			l28.334,0.334L86.75,139z"/>
	</g>
	<line fill="none" stroke="#000000" stroke-miterlimit="10" x1="115.417" y1="137.334" x2="114.75" y2="143"/>
	<line fill="none" stroke="#000000" stroke-miterlimit="10" x1="111.417" y1="136.334" x2="110.75" y2="142"/>
	<line fill="none" stroke="#000000" stroke-width="0.974" stroke-miterlimit="10" x1="107.417" y1="136.625" x2="106.75" y2="142"/>
	
		<line fill="none" stroke="#000000" stroke-width="0.7905" stroke-miterlimit="10" x1="103.417" y1="137.459" x2="102.75" y2="141"/>
	
		<line fill="none" stroke="#000000" stroke-width="0.6859" stroke-miterlimit="10" x1="99.792" y1="137.709" x2="99.125" y2="140.375"/>
	<line fill="none" stroke="#000000" stroke-width="0.6474" stroke-miterlimit="10" x1="96.792" y1="138" x2="96.125" y2="140.375"/>
</g>
</svg>
