<?xml version="1.0" encoding="utf-8"?>
<!-- Generator: Adobe Illustrator 16.0.0, SVG Export Plug-In . SVG Version: 6.00 Build 0)  -->
<!DOCTYPE svg PUBLIC "-//W3C//DTD SVG 1.1//EN" "http://www.w3.org/Graphics/SVG/1.1/DTD/svg11.dtd">
<svg version="1.1" id="Layer_1" xmlns="http://www.w3.org/2000/svg" xmlns:xlink="http://www.w3.org/1999/xlink" x="0px" y="0px"
	 width="200px" height="225px" viewBox="0 0 200 225" enable-background="new 0 0 200 225" xml:space="preserve">
<g id="Ext">
</g>
<g id="Guides">
</g>
<g id="_x31_2_Col_Grid_1_" display="none" enable-background="new    ">
	<g id="Rectangle_xA0_Image_23_" display="inline" opacity="0.102">
	</g>
	<g id="Rectangle_xA0_Image_21_" display="inline" opacity="0.102">
	</g>
	<g id="Rectangle_xA0_Image_19_" display="inline" opacity="0.102">
	</g>
	<g id="Rectangle_xA0_Image_17_" display="inline" opacity="0.102">
	</g>
	<g id="Rectangle_xA0_Image_15_" display="inline" opacity="0.102">
	</g>
	<g id="Rectangle_xA0_Image_13_" display="inline" opacity="0.102">
	</g>
	<g id="Rectangle_xA0_Image_11_" display="inline" opacity="0.102">
	</g>
	<g id="Rectangle_xA0_Image_9_" display="inline" opacity="0.102">
	</g>
	<g id="Rectangle_xA0_Image_7_" display="inline" opacity="0.102">
	</g>
	<g id="Rectangle_xA0_Image_5_" display="inline" opacity="0.102">
	</g>
	<g id="Rectangle_xA0_Image_3_" display="inline" opacity="0.102">
	</g>
	<g id="Rectangle_xA0_Image_1_" display="inline" opacity="0.102">
	</g>
</g>
<g id="Bg">
</g>
<g id="main">
	<g id="Progress">
	</g>
	<g id="Text">
	</g>
</g>
<g id="pane">
</g>
<g id="browserhead">
	<g>
		<path fill="#E0B6AD" d="M90.667,141.166c0,0,3.619-4.828,5.374-5.584c2.483-1.067,8.334-1.225,10.748,0
			c1.706,0.866,5.374,5.584,5.374,5.584"/>
		<path fill="#020200" d="M90.639,141.134c-0.001,0,0.216-0.393,0.64-1.044c0.436-0.638,1.027-1.587,1.866-2.601
			c0.432-0.498,0.871-1.062,1.44-1.584c0.451-0.55,1.396-1.102,2.046-1.265c0.709-0.227,1.586-0.431,2.356-0.519
			c0.796-0.134,1.606-0.168,2.419-0.22c0.815,0.042,1.625,0.049,2.427,0.178c0.401,0.046,0.798,0.098,1.192,0.204
			c0.396,0.109,0.779,0.14,1.168,0.323l0.572,0.229c0.114,0.054,0.139,0.039,0.328,0.147l0.226,0.175l0.443,0.342
			c0.147,0.142,0.292,0.285,0.438,0.424c0.594,0.561,1.011,1.097,1.45,1.601c0.84,1.01,1.442,1.948,1.885,2.577
			c0.431,0.646,0.655,1.031,0.655,1.031l-0.057,0.063c0,0-1.061-1.381-2.797-3.274c-0.445-0.455-0.917-0.979-1.461-1.438
			c-0.516-0.513-1.164-0.902-1.872-1.119c-0.342-0.157-0.727-0.181-1.097-0.272c-0.373-0.092-0.756-0.131-1.143-0.166
			c-0.771-0.105-1.562-0.093-2.352-0.113c-0.788,0.033-1.58,0.044-2.351,0.154c-0.388,0.036-0.771,0.085-1.142,0.174
			c-0.373,0.083-0.747,0.121-1.102,0.259c-0.728,0.202-1.368,0.533-1.896,1.052c-0.557,0.45-1.021,0.978-1.465,1.434
			c-1.729,1.904-2.765,3.311-2.765,3.311L90.639,141.134z"/>
	</g>
</g>
</svg>
