<?xml version="1.0" encoding="utf-8"?>
<!-- Generator: Adobe Illustrator 16.0.0, SVG Export Plug-In . SVG Version: 6.00 Build 0)  -->
<!DOCTYPE svg PUBLIC "-//W3C//DTD SVG 1.1//EN" "http://www.w3.org/Graphics/SVG/1.1/DTD/svg11.dtd">
<svg version="1.1" xmlns="http://www.w3.org/2000/svg" xmlns:xlink="http://www.w3.org/1999/xlink" x="0px" y="0px" width="200px"
	 height="255px" viewBox="0 0 200 255" enable-background="new 0 0 200 255" xml:space="preserve">
<g id="Ext">
</g>
<g id="Guides">
</g>
<g id="_x31_2_Col_Grid_1_" display="none" enable-background="new    ">
	<g id="Rectangle_xA0_Image_23_" display="inline" opacity="0.102">
	</g>
	<g id="Rectangle_xA0_Image_21_" display="inline" opacity="0.102">
	</g>
	<g id="Rectangle_xA0_Image_19_" display="inline" opacity="0.102">
	</g>
	<g id="Rectangle_xA0_Image_17_" display="inline" opacity="0.102">
	</g>
	<g id="Rectangle_xA0_Image_15_" display="inline" opacity="0.102">
	</g>
	<g id="Rectangle_xA0_Image_13_" display="inline" opacity="0.102">
	</g>
	<g id="Rectangle_xA0_Image_11_" display="inline" opacity="0.102">
	</g>
	<g id="Rectangle_xA0_Image_9_" display="inline" opacity="0.102">
	</g>
	<g id="Rectangle_xA0_Image_7_" display="inline" opacity="0.102">
	</g>
	<g id="Rectangle_xA0_Image_5_" display="inline" opacity="0.102">
	</g>
	<g id="Rectangle_xA0_Image_3_" display="inline" opacity="0.102">
	</g>
	<g id="Rectangle_xA0_Image_1_" display="inline" opacity="0.102">
	</g>
</g>
<g id="Bg">
</g>
<g id="main">
	<g id="Progress">
	</g>
	<g id="Text">
	</g>
</g>
<g id="pane">
</g>
<g id="browserhead">
	<path fill="none" stroke="#020200" stroke-miterlimit="10" d="M123.313,238.26l4.11-7.741l-2.284-10.77
		c-0.344-1.621,0.473-3.167,1.823-3.453s2.725,0.795,3.068,2.416l2.213,10.435l6.901,6.033c1.039,0.909,1.146,2.488,0.236,3.528
		c-0.908,1.04-2.488,1.146-3.527,0.237l-1.882-1.646l1.037,4.892c0.345,1.621-0.472,3.167-1.823,3.453
		c-1.351,0.287-2.724-0.795-3.068-2.416l-1.078-5.09l-1.311,2.467c-0.646,1.219-2.16,1.684-3.381,1.036
		C123.13,240.993,122.667,239.479,123.313,238.26z"/>
	<path fill="none" stroke="#020200" stroke-miterlimit="10" d="M76.687,238.26l-4.11-7.741l2.284-10.77
		c0.344-1.621-0.473-3.167-1.823-3.453s-2.725,0.795-3.068,2.416l-2.213,10.435l-6.901,6.033c-1.039,0.909-1.146,2.488-0.236,3.528
		c0.908,1.04,2.488,1.146,3.527,0.237l1.882-1.646l-1.037,4.892c-0.345,1.621,0.472,3.167,1.823,3.453
		c1.351,0.287,2.724-0.795,3.068-2.416l1.078-5.09l1.311,2.467c0.646,1.219,2.16,1.684,3.381,1.036
		C76.87,240.993,77.333,239.479,76.687,238.26z"/>
	<path fill="#F90606" stroke="#020200" stroke-miterlimit="10" d="M123.859,31.578c-4.72-2.235-9.981-1.014-11.755,2.73
		c-0.38,0.802-0.558,1.655-0.573,2.522l-3.094,5.018L110,21.493h-0.031c0.784-6.67-6.176-13.277-15.83-14.886
		c-9.857-1.642-18.766,2.546-19.9,9.356c-0.312,1.878,0.018,3.756,0.839,5.53H75l10,20l-17.413-2.888l20.851,27.888l0.705,2.024
		l0.039,0.13l21.076,1.242l0.064-1.839l3.115,3.042l14.475-26.912c0.525-0.507,0.965-1.099,1.285-1.777
		C130.969,38.659,128.581,33.813,123.859,31.578z"/>
	<path fill="none" stroke="#020200" stroke-miterlimit="10" d="M98.909,140.001"/>
	<ellipse fill="none" stroke="#020200" stroke-miterlimit="10" cx="81.577" cy="114.001" rx="16" ry="15"/>
	<ellipse fill="#020200" stroke="#020200" stroke-width="0.5477" stroke-miterlimit="10" cx="81.577" cy="114.001" rx="9" ry="8"/>
	<ellipse fill="none" stroke="#020200" stroke-miterlimit="10" cx="144.577" cy="113.001" rx="16" ry="15"/>
	<ellipse fill="#020200" stroke="#020200" stroke-width="0.5477" stroke-miterlimit="10" cx="144.577" cy="113.001" rx="9" ry="8"/>
	<ellipse fill="#FCFCFC" stroke="#020200" stroke-miterlimit="10" cx="100.01" cy="134.29" rx="90.008" ry="88.508"/>
	<path fill="none" stroke="#020200" stroke-miterlimit="10" d="M86.242,140.001"/>
	<path fill="none" stroke="#020200" stroke-miterlimit="10" d="M39.241,195.331"/>
	<g>
		<g>
			<ellipse fill="none" stroke="#020200" stroke-miterlimit="10" cx="66" cy="112.25" rx="16" ry="15"/>
			<ellipse fill="#020200" stroke="#020200" stroke-width="0.5477" stroke-miterlimit="10" cx="66" cy="112.25" rx="9" ry="8"/>
		</g>
		<g>
			<ellipse fill="none" stroke="#020200" stroke-miterlimit="10" cx="131" cy="111.25" rx="16" ry="15"/>
			<ellipse fill="#020200" stroke="#020200" stroke-width="0.5477" stroke-miterlimit="10" cx="131" cy="111.25" rx="9" ry="8"/>
		</g>
	</g>
	<g>
		<polygon fill="#F4530C" stroke="#F4530C" stroke-miterlimit="10" points="100.219,136.25 113.879,136.25 107.049,148.75 
			100.219,161.25 93.389,148.75 86.559,136.25 		"/>
		<polygon fill="#F4530C" stroke="#F4530C" stroke-miterlimit="10" points="100.219,136.25 113.879,136.25 107.049,131.25 
			100.219,126.25 93.389,131.25 86.559,136.25 		"/>
	</g>
	<path fill="#FFFEFD" stroke="#000000" stroke-miterlimit="10" d="M35,194.769c13.135,16.763,37.477,28.029,65.355,28.029
		c30.078,0,56.057-13.106,68.266-32.09c-11.852-14.484-36.66-24.458-65.355-24.458C71.961,166.25,45.275,178.119,35,194.769z"/>
	<path fill="#F9F9F9" stroke="#020200" stroke-width="0.5477" stroke-miterlimit="10" d="M122.57,178.143
		c7.041,4.876,16.769,3.985,22.766-2.474c5.996-6.458,6.164-16.226,0.778-22.885L122.57,178.143z"/>
	<path fill="#F9F9F9" stroke="#020200" stroke-width="0.5477" stroke-miterlimit="10" d="M82.43,178.143
		c-7.041,4.876-16.769,3.985-22.766-2.474c-5.996-6.458-6.164-16.226-0.778-22.885L82.43,178.143z"/>
</g>
</svg>
