<?xml version="1.0" encoding="utf-8"?>
<!-- Generator: Adobe Illustrator 16.0.0, SVG Export Plug-In . SVG Version: 6.00 Build 0)  -->
<!DOCTYPE svg PUBLIC "-//W3C//DTD SVG 1.1//EN" "http://www.w3.org/Graphics/SVG/1.1/DTD/svg11.dtd">
<svg version="1.1" xmlns="http://www.w3.org/2000/svg" xmlns:xlink="http://www.w3.org/1999/xlink" x="0px" y="0px" width="200px"
	 height="255px" viewBox="0 0 200 255" enable-background="new 0 0 200 255" xml:space="preserve">
<g id="Ext">
</g>
<g id="Guides">
</g>
<g id="_x31_2_Col_Grid_1_" display="none" enable-background="new    ">
	<g id="Rectangle_xA0_Image_23_" display="inline" opacity="0.102">
	</g>
	<g id="Rectangle_xA0_Image_21_" display="inline" opacity="0.102">
	</g>
	<g id="Rectangle_xA0_Image_19_" display="inline" opacity="0.102">
	</g>
	<g id="Rectangle_xA0_Image_17_" display="inline" opacity="0.102">
	</g>
	<g id="Rectangle_xA0_Image_15_" display="inline" opacity="0.102">
	</g>
	<g id="Rectangle_xA0_Image_13_" display="inline" opacity="0.102">
	</g>
	<g id="Rectangle_xA0_Image_11_" display="inline" opacity="0.102">
	</g>
	<g id="Rectangle_xA0_Image_9_" display="inline" opacity="0.102">
	</g>
	<g id="Rectangle_xA0_Image_7_" display="inline" opacity="0.102">
	</g>
	<g id="Rectangle_xA0_Image_5_" display="inline" opacity="0.102">
	</g>
	<g id="Rectangle_xA0_Image_3_" display="inline" opacity="0.102">
	</g>
	<g id="Rectangle_xA0_Image_1_" display="inline" opacity="0.102">
	</g>
</g>
<g id="Bg">
</g>
<g id="main">
	<g id="Progress">
	</g>
	<g id="Text">
	</g>
</g>
<g id="pane">
	<path fill="none" stroke="#020200" stroke-miterlimit="10" d="M37.331,188.33"/>
	<g>
		<g>
			<ellipse fill="#FCFCFC" stroke="#020200" stroke-miterlimit="10" cx="66" cy="108" rx="16" ry="15"/>
			<path fill="none" stroke="#020200" stroke-miterlimit="10" d="M84.332,133"/>
			<g>
				<line x1="75" y1="120" x2="80" y2="125"/>
				<path fill="#020200" d="M75.026,119.974c0,0,1.367,1.133,2.686,2.314c0.337,0.289,0.681,0.569,0.982,0.854
					c0.286,0.299,0.541,0.592,0.736,0.865c0.192,0.277,0.354,0.505,0.448,0.685c0.1,0.173,0.147,0.282,0.147,0.282l-0.053,0.053
					c0,0-0.108-0.047-0.282-0.148c-0.179-0.094-0.408-0.256-0.685-0.448c-0.273-0.195-0.565-0.45-0.865-0.736
					c-0.284-0.302-0.565-0.646-0.854-0.982c-1.182-1.318-2.314-2.686-2.314-2.686L75.026,119.974z"/>
			</g>
			<g>
				<line x1="65" y1="123.292" x2="67.236" y2="130"/>
				<path fill="#020200" d="M65.035,123.28c0,0,0.717,1.625,1.367,3.271c0.172,0.409,0.354,0.814,0.497,1.203
					c0.123,0.396,0.22,0.771,0.272,1.103c0.047,0.333,0.09,0.61,0.094,0.813c0.013,0.2,0.006,0.318,0.006,0.318l-0.07,0.023
					c0,0-0.076-0.091-0.187-0.258c-0.118-0.164-0.25-0.411-0.412-0.707c-0.157-0.297-0.305-0.656-0.444-1.046
					c-0.119-0.397-0.217-0.831-0.324-1.26c-0.468-1.708-0.869-3.438-0.869-3.438L65.035,123.28z"/>
			</g>
			<g>
				<line x1="55" y1="118.714" x2="51.762" y2="125"/>
				<path fill="#020200" d="M55.033,118.731c0,0-0.662,1.647-1.386,3.263c-0.172,0.409-0.335,0.822-0.514,1.196
					c-0.197,0.364-0.398,0.696-0.6,0.965c-0.205,0.267-0.374,0.491-0.516,0.635c-0.135,0.149-0.224,0.227-0.224,0.227l-0.066-0.034
					c0,0,0.012-0.118,0.055-0.313c0.035-0.2,0.119-0.467,0.218-0.789c0.103-0.32,0.256-0.676,0.438-1.048
					c0.2-0.362,0.442-0.735,0.675-1.112c0.896-1.527,1.853-3.023,1.853-3.023L55.033,118.731z"/>
			</g>
		</g>
		<g>
			<ellipse fill="#FCFCFC" stroke="#020200" stroke-miterlimit="10" cx="130" cy="108" rx="16" ry="15"/>
			<path fill="none" stroke="#020200" stroke-miterlimit="10" d="M148.332,133"/>
			<g>
				<line x1="139" y1="120" x2="144" y2="125"/>
				<path fill="#020200" d="M139.026,119.974c0,0,1.367,1.133,2.686,2.314c0.337,0.289,0.681,0.569,0.982,0.854
					c0.286,0.299,0.541,0.592,0.736,0.865c0.192,0.277,0.354,0.505,0.448,0.685c0.1,0.173,0.147,0.282,0.147,0.282l-0.053,0.053
					c0,0-0.108-0.047-0.282-0.148c-0.179-0.094-0.408-0.256-0.685-0.448c-0.273-0.195-0.565-0.45-0.865-0.736
					c-0.284-0.302-0.565-0.646-0.854-0.982c-1.182-1.318-2.314-2.686-2.314-2.686L139.026,119.974z"/>
			</g>
			<g>
				<line x1="129" y1="123.292" x2="131.236" y2="130"/>
				<path fill="#020200" d="M129.035,123.28c0,0,0.717,1.625,1.367,3.271c0.172,0.409,0.354,0.814,0.497,1.203
					c0.123,0.396,0.22,0.771,0.272,1.103c0.047,0.333,0.09,0.61,0.094,0.813c0.013,0.2,0.006,0.318,0.006,0.318l-0.07,0.023
					c0,0-0.076-0.091-0.187-0.258c-0.118-0.164-0.25-0.411-0.412-0.707c-0.157-0.297-0.305-0.656-0.444-1.046
					c-0.119-0.397-0.217-0.831-0.324-1.26c-0.468-1.708-0.869-3.438-0.869-3.438L129.035,123.28z"/>
			</g>
			<g>
				<line x1="119" y1="118.714" x2="115.762" y2="125"/>
				<path fill="#020200" d="M119.033,118.731c0,0-0.662,1.647-1.386,3.263c-0.172,0.409-0.335,0.822-0.514,1.196
					c-0.197,0.364-0.398,0.696-0.6,0.965c-0.205,0.267-0.374,0.491-0.516,0.635c-0.135,0.149-0.224,0.227-0.224,0.227l-0.066-0.034
					c0,0,0.012-0.118,0.055-0.313c0.035-0.2,0.119-0.467,0.218-0.789c0.103-0.32,0.256-0.676,0.438-1.048
					c0.2-0.362,0.442-0.735,0.675-1.112c0.896-1.527,1.853-3.023,1.853-3.023L119.033,118.731z"/>
			</g>
		</g>
	</g>
</g>
<g id="browserhead">
</g>
</svg>
