<?xml version="1.0" encoding="utf-8"?>
<!-- Generator: Adobe Illustrator 16.0.0, SVG Export Plug-In . SVG Version: 6.00 Build 0)  -->
<!DOCTYPE svg PUBLIC "-//W3C//DTD SVG 1.1//EN" "http://www.w3.org/Graphics/SVG/1.1/DTD/svg11.dtd">
<svg version="1.1" xmlns="http://www.w3.org/2000/svg" xmlns:xlink="http://www.w3.org/1999/xlink" x="0px" y="0px" width="200px"
	 height="255px" viewBox="0 0 200 255" enable-background="new 0 0 200 255" xml:space="preserve">
<g id="Ext">
</g>
<g id="Guides">
</g>
<g id="_x31_2_Col_Grid_1_" display="none" enable-background="new    ">
	<g id="Rectangle_xA0_Image_23_" display="inline" opacity="0.102">
	</g>
	<g id="Rectangle_xA0_Image_21_" display="inline" opacity="0.102">
	</g>
	<g id="Rectangle_xA0_Image_19_" display="inline" opacity="0.102">
	</g>
	<g id="Rectangle_xA0_Image_17_" display="inline" opacity="0.102">
	</g>
	<g id="Rectangle_xA0_Image_15_" display="inline" opacity="0.102">
	</g>
	<g id="Rectangle_xA0_Image_13_" display="inline" opacity="0.102">
	</g>
	<g id="Rectangle_xA0_Image_11_" display="inline" opacity="0.102">
	</g>
	<g id="Rectangle_xA0_Image_9_" display="inline" opacity="0.102">
	</g>
	<g id="Rectangle_xA0_Image_7_" display="inline" opacity="0.102">
	</g>
	<g id="Rectangle_xA0_Image_5_" display="inline" opacity="0.102">
	</g>
	<g id="Rectangle_xA0_Image_3_" display="inline" opacity="0.102">
	</g>
	<g id="Rectangle_xA0_Image_1_" display="inline" opacity="0.102">
	</g>
</g>
<g id="Bg">
</g>
<g id="main">
	<g id="Progress">
	</g>
	<g id="Text">
	</g>
</g>
<g id="pane">
	<g>
		<path fill="none" stroke="#020200" stroke-miterlimit="10" d="M99.5,147v5.5l0.5,7c0,0,2.45,2.524,3.5,3
			c2.415,1.094,7.86,1.758,10.5,1.5c2.052-0.2,6.084-1.238,8-2c1.299-0.517,3.933-1.599,5-2.5c1.089-0.919,2.823-3.245,3.5-4.5
			c0.771-1.431,1.989-4.458,2.5-6c0.286-0.864,1-3.5,1-3.5"/>
		<path fill="none" stroke="#020200" stroke-miterlimit="10" d="M99.5,147.5v5.5l-0.5,7c0,0-2.465,2.494-3.5,3
			c-2.382,1.165-7.851,1.603-10.5,1.5c-2.06-0.08-6.044-1.349-8-2c-1.325-0.441-3.899-1.638-5-2.5c-1.122-0.879-2.782-3.269-3.5-4.5
			c-0.817-1.404-2.5-6-2.5-6l-1-3.5"/>
	</g>
	<path fill="none" stroke="#020200" stroke-miterlimit="10" d="M84.332,133"/>
	<path fill="none" stroke="#020200" stroke-miterlimit="10" d="M37.331,188.33"/>
	<path stroke="#020200" stroke-miterlimit="10" d="M99.665,146.997l-8.334-9.333c0,0,1.385-3.999,2.334-5
		c0.975-1.028,3.592-2.51,5-2.667c1.008-0.112,3.104,0.192,4,0.667c0.782,0.415,2.165,1.603,2.666,2.333
		c0.569,0.83,1.667,3.667,1.667,3.667L99.665,146.997z"/>
</g>
<g id="browserhead">
</g>
</svg>
