<?xml version="1.0" encoding="utf-8"?>
<!-- Generator: Adobe Illustrator 16.0.0, SVG Export Plug-In . SVG Version: 6.00 Build 0)  -->
<!DOCTYPE svg PUBLIC "-//W3C//DTD SVG 1.1//EN" "http://www.w3.org/Graphics/SVG/1.1/DTD/svg11.dtd">
<svg version="1.1" id="Layer_1" xmlns="http://www.w3.org/2000/svg" xmlns:xlink="http://www.w3.org/1999/xlink" x="0px" y="0px"
	 width="200px" height="255px" viewBox="0 0 200 255" enable-background="new 0 0 200 255" xml:space="preserve">
<g id="Ext">
</g>
<g id="Guides">
</g>
<g id="_x31_2_Col_Grid_1_" display="none" enable-background="new    ">
	<g id="Rectangle_xA0_Image_23_" display="inline" opacity="0.102">
	</g>
	<g id="Rectangle_xA0_Image_21_" display="inline" opacity="0.102">
	</g>
	<g id="Rectangle_xA0_Image_19_" display="inline" opacity="0.102">
	</g>
	<g id="Rectangle_xA0_Image_17_" display="inline" opacity="0.102">
	</g>
	<g id="Rectangle_xA0_Image_15_" display="inline" opacity="0.102">
	</g>
	<g id="Rectangle_xA0_Image_13_" display="inline" opacity="0.102">
	</g>
	<g id="Rectangle_xA0_Image_11_" display="inline" opacity="0.102">
	</g>
	<g id="Rectangle_xA0_Image_9_" display="inline" opacity="0.102">
	</g>
	<g id="Rectangle_xA0_Image_7_" display="inline" opacity="0.102">
	</g>
	<g id="Rectangle_xA0_Image_5_" display="inline" opacity="0.102">
	</g>
	<g id="Rectangle_xA0_Image_3_" display="inline" opacity="0.102">
	</g>
	<g id="Rectangle_xA0_Image_1_" display="inline" opacity="0.102">
	</g>
</g>
<g id="Bg">
</g>
<g id="main">
	<g id="Progress">
	</g>
	<g id="Text">
	</g>
</g>
<path fill="none" stroke="#020200" stroke-miterlimit="10" d="M37.331,188.33"/>
<g>
	<path fill="none" stroke="#020200" stroke-miterlimit="10" d="M84.332,133"/>
	<path stroke="#020200" stroke-miterlimit="10" d="M99.666,146.997l-8.335-9.333c0,0,1.385-3.999,2.335-5
		c0.974-1.028,3.591-2.51,5-2.667c1.007-0.112,3.104,0.192,4,0.667c0.781,0.415,2.164,1.604,2.665,2.333
		c0.569,0.83,1.667,3.667,1.667,3.667L99.666,146.997z"/>
	<path fill="#FFFFFF" stroke="#000000" stroke-miterlimit="10" d="M65,149.167c0,0,25.938,9.037,35,8.334
		c8.35-0.647,30-12.502,30-12.502s-19.43,24.274-30,25.004C89.283,170.743,65,149.167,65,149.167z"/>
	<path fill="none" stroke="#020200" stroke-width="1.1549" stroke-miterlimit="10" d="M60.393,150.393c0,0-0.884-4.115,0-5
		c0.885-0.884,5,0,5,0"/>
	<path fill="none" stroke="#020200" stroke-width="1.1549" stroke-miterlimit="10" d="M134.607,145.393c0,0,0.884-4.115,0-5
		c-0.885-0.884-5,0-5,0"/>
	<line fill="none" stroke="#000000" stroke-width="0.9128" stroke-miterlimit="10" x1="100" y1="157.502" x2="100" y2="170.004"/>
	<line fill="none" stroke="#000000" stroke-width="0.8943" stroke-miterlimit="10" x1="105" y1="156.5" x2="105" y2="168.5"/>
	<line fill="none" stroke="#000000" stroke-width="0.8164" stroke-miterlimit="10" x1="110" y1="155" x2="110" y2="165"/>
	<line fill="none" stroke="#000000" stroke-width="0.7527" stroke-miterlimit="10" x1="115" y1="151.75" x2="115" y2="160.25"/>
	<line fill="none" stroke="#000000" stroke-width="0.6324" stroke-miterlimit="10" x1="120" y1="150" x2="120" y2="156"/>
	<line fill="none" stroke="#000000" stroke-width="0.4472" stroke-miterlimit="10" x1="125" y1="147.2" x2="125" y2="150.2"/>
	<line fill="none" stroke="#000000" stroke-width="0.8943" stroke-miterlimit="10" x1="95" y1="157.5" x2="95" y2="169.5"/>
	<line fill="none" stroke="#000000" stroke-width="0.8562" stroke-miterlimit="10" x1="90" y1="156" x2="90" y2="167"/>
	<line fill="none" stroke="#000000" stroke-width="0.7745" stroke-miterlimit="10" x1="85" y1="155.5" x2="85" y2="164.5"/>
	<line fill="none" stroke="#000000" stroke-width="0.683" stroke-miterlimit="10" x1="80" y1="154" x2="80" y2="161"/>
	<line fill="none" stroke="#000000" stroke-width="0.5773" stroke-miterlimit="10" x1="75" y1="152.5" x2="75" y2="157.5"/>
	<line fill="none" stroke="#000000" stroke-width="0.4472" stroke-miterlimit="10" x1="70" y1="151" x2="70" y2="154"/>
</g>
<g id="browserhead">
</g>
</svg>
