<?xml version="1.0" encoding="utf-8"?>
<!-- Generator: Adobe Illustrator 16.0.0, SVG Export Plug-In . SVG Version: 6.00 Build 0)  -->
<!DOCTYPE svg PUBLIC "-//W3C//DTD SVG 1.1//EN" "http://www.w3.org/Graphics/SVG/1.1/DTD/svg11.dtd">
<svg version="1.1" id="Layer_1" xmlns="http://www.w3.org/2000/svg" xmlns:xlink="http://www.w3.org/1999/xlink" x="0px" y="0px"
	 width="200px" height="255px" viewBox="0 0 200 255" enable-background="new 0 0 200 255" xml:space="preserve">
<g id="Ext">
</g>
<g id="Guides">
</g>
<g id="_x31_2_Col_Grid_1_" display="none" enable-background="new    ">
	<g id="Rectangle_xA0_Image_23_" display="inline" opacity="0.102">
	</g>
	<g id="Rectangle_xA0_Image_21_" display="inline" opacity="0.102">
	</g>
	<g id="Rectangle_xA0_Image_19_" display="inline" opacity="0.102">
	</g>
	<g id="Rectangle_xA0_Image_17_" display="inline" opacity="0.102">
	</g>
	<g id="Rectangle_xA0_Image_15_" display="inline" opacity="0.102">
	</g>
	<g id="Rectangle_xA0_Image_13_" display="inline" opacity="0.102">
	</g>
	<g id="Rectangle_xA0_Image_11_" display="inline" opacity="0.102">
	</g>
	<g id="Rectangle_xA0_Image_9_" display="inline" opacity="0.102">
	</g>
	<g id="Rectangle_xA0_Image_7_" display="inline" opacity="0.102">
	</g>
	<g id="Rectangle_xA0_Image_5_" display="inline" opacity="0.102">
	</g>
	<g id="Rectangle_xA0_Image_3_" display="inline" opacity="0.102">
	</g>
	<g id="Rectangle_xA0_Image_1_" display="inline" opacity="0.102">
	</g>
</g>
<g id="Bg">
</g>
<g id="main">
	<g id="Progress">
	</g>
	<g id="Text">
	</g>
</g>
<g>
	<path fill="#79A6D3" stroke="#304556" stroke-miterlimit="10" d="M141.413,91.393l26.466-37.667l-33.837-4.869
		C139.089,62.285,142.21,77.021,141.413,91.393z"/>
	<path fill="#F3E3FC" stroke="#F3E3FC" stroke-width="1.5822" stroke-miterlimit="10" d="M152.293,74.084l11.41-17.581
		l-19.783-3.762C147.286,59.557,150.086,66.699,152.293,74.084z"/>
	<path fill="#79A6D3" stroke="#304556" stroke-miterlimit="10" d="M77.451,94.878c-1.886-3.225-3.669-6.418-5.353-9.585
		l-2.097-2.919l-7.223-13.917l-0.754-4.771c-2.05-5.169-3.768-10.208-5.154-15.103l-30.306,9.095l49.77,36.384L77.451,94.878z"/>
	<path fill="#F3E3FC" stroke="#F3E3FC" stroke-width="1.3645" stroke-miterlimit="10" d="M47.15,53.682l-13.736,5.112L60.73,74.407
		C55.361,67.289,50.806,60.35,47.15,53.682z"/>
	<ellipse fill="#79A6D3" stroke="#304556" stroke-miterlimit="10" cx="98.098" cy="127.289" rx="90.009" ry="88.508"/>
	<path fill="#233851" stroke="#233851" stroke-miterlimit="10" d="M86.184,39.5c-0.361,11.083,6.772,20.223,10.131,29.928
		c0.521,0.264,1.721,0.715,2.264,0.933c4.354-8.907,10.819-20.335,8.786-30.284c-6.711-0.498-15.855-1.967-22.259,0.503
		c-1.108,7.008,5.827,16.577,8.76,22.421"/>
	<path fill="#233851" stroke="#233851" stroke-miterlimit="10" d="M175.343,81.056c-9.614,3.759-14.509,13.867-21.43,20.623
		c-0.015,0.59,0.092,1.889,0.127,2.48c9.39,0.813,21.792,2.682,29.46-2.917c-2.314-6.513-4.793-15.68-9.52-20.805
		c-6.44,1.547-11.781,11.627-15.576,16.555"/>
	<path fill="#233851" stroke="#233851" stroke-miterlimit="10" d="M187.67,141.119c-10.812-3.477-21.488-0.303-31.827-0.361
		c-0.384,0.346-1.112,1.193-1.454,1.571c7.727,6.096,17.428,14.627,27.69,15.829c2.082-5.309,5.694-12.314,4.785-18.227
		c-6.628-2.912-17.679-0.023-24.121,0.682"/>
	<path fill="#233851" stroke="#233851" stroke-miterlimit="10" d="M17.825,85.529c10.069,5.203,16.278,16.025,24.062,23.811
		c0.092,0.59,0.158,1.869,0.201,2.455c-9.239-0.607-21.34-0.619-29.713-7.361c1.443-6.146,2.699-14.916,6.726-19.314
		c6.614,2.517,13.266,13.378,17.695,18.867"/>
	<path fill="#233851" stroke="#233851" stroke-miterlimit="10" d="M10.389,147.119c10.811-3.477,21.489-0.303,31.826-0.361
		c0.386,0.346,1.112,1.193,1.455,1.571c-7.726,6.096-17.428,14.627-27.69,15.829c-2.082-5.309-5.696-12.314-4.785-18.227
		c6.628-2.912,17.678-0.023,24.12,0.682"/>
	<path fill="none" stroke="#020200" stroke-miterlimit="10" d="M84.332,133"/>
	<path fill="none" stroke="#304556" stroke-miterlimit="10" d="M139.885,169.5c0,0-6.248,2.962-7.615,4.74
		c-0.66,0.859-1.125,3.074-1.27,4.148c-0.1,0.733-0.189,2.247,0,2.963c0.338,1.262,2.027,3.52,3.173,4.147
		c0.974,0.535,3.372,0.294,4.442,0c1.955-0.538,5.507-2.751,6.979-4.147c0.552-0.522,1.904-2.371,1.904-2.371"/>
	<path fill="none" stroke="#304556" stroke-miterlimit="10" d="M66.288,170c0,0,6.247,2.962,7.614,4.74
		c0.662,0.859,1.126,3.074,1.271,4.148c0.099,0.733,0.191,2.247,0,2.963c-0.337,1.262-2.028,3.52-3.173,4.147
		c-0.974,0.535-3.372,0.294-4.442,0c-1.957-0.538-5.507-2.752-6.98-4.147c-0.552-0.523-1.904-2.371-1.904-2.371"/>
	<path fill="none" stroke="#020200" stroke-miterlimit="10" d="M37.331,188.33"/>
	<path fill="#79A6D3" stroke="#304556" stroke-miterlimit="10" d="M127.93,211.408c-5.382,1.74-10.982,3.001-16.757,3.719
		c0.084,0.488,0.208,0.977,0.39,1.456l2.846,7.59c1.609,4.291,6.508,6.422,10.938,4.761c4.435-1.664,6.721-6.49,5.113-10.781
		L127.93,211.408z"/>
	<path fill="#79A6D3" stroke="#304556" stroke-miterlimit="10" d="M95.709,216.145c-5.933,0-11.728-0.57-17.338-1.647l-1.598,4.257
		c-1.609,4.291,0.678,9.116,5.111,10.78c4.432,1.661,9.329-0.47,10.938-4.761l2.845-7.59c0.131-0.345,0.226-0.693,0.306-1.043
		C95.885,216.141,95.797,216.145,95.709,216.145z"/>
	<g id="browserhead">
	</g>
</g>
</svg>
