<?xml version="1.0" encoding="utf-8"?>
<!-- Generator: Adobe Illustrator 16.0.0, SVG Export Plug-In . SVG Version: 6.00 Build 0)  -->
<!DOCTYPE svg PUBLIC "-//W3C//DTD SVG 1.1//EN" "http://www.w3.org/Graphics/SVG/1.1/DTD/svg11.dtd">
<svg version="1.1" xmlns="http://www.w3.org/2000/svg" xmlns:xlink="http://www.w3.org/1999/xlink" x="0px" y="0px" width="200px"
	 height="255px" viewBox="0 0 200 255" enable-background="new 0 0 200 255" xml:space="preserve">
<g id="Ext">
</g>
<g id="Guides">
</g>
<g id="_x31_2_Col_Grid_1_" display="none" enable-background="new    ">
	<g id="Rectangle_xA0_Image_23_" display="inline" opacity="0.102">
	</g>
	<g id="Rectangle_xA0_Image_21_" display="inline" opacity="0.102">
	</g>
	<g id="Rectangle_xA0_Image_19_" display="inline" opacity="0.102">
	</g>
	<g id="Rectangle_xA0_Image_17_" display="inline" opacity="0.102">
	</g>
	<g id="Rectangle_xA0_Image_15_" display="inline" opacity="0.102">
	</g>
	<g id="Rectangle_xA0_Image_13_" display="inline" opacity="0.102">
	</g>
	<g id="Rectangle_xA0_Image_11_" display="inline" opacity="0.102">
	</g>
	<g id="Rectangle_xA0_Image_9_" display="inline" opacity="0.102">
	</g>
	<g id="Rectangle_xA0_Image_7_" display="inline" opacity="0.102">
	</g>
	<g id="Rectangle_xA0_Image_5_" display="inline" opacity="0.102">
	</g>
	<g id="Rectangle_xA0_Image_3_" display="inline" opacity="0.102">
	</g>
	<g id="Rectangle_xA0_Image_1_" display="inline" opacity="0.102">
	</g>
</g>
<g id="Bg">
</g>
<g id="main">
	<g id="Progress">
	</g>
	<g id="Text">
	</g>
</g>
<g id="pane">
	<path fill="none" stroke="#020200" stroke-miterlimit="10" d="M37.331,188.33"/>
	<g>
		<path fill="none" stroke="#020200" stroke-miterlimit="10" d="M84.332,133"/>
		<path stroke="#020200" stroke-miterlimit="10" d="M99.665,146.997l-8.334-9.333c0,0,1.385-3.999,2.334-5
			c0.975-1.028,3.592-2.51,5-2.667c1.008-0.112,3.104,0.192,4,0.667c0.782,0.415,2.165,1.603,2.666,2.333
			c0.569,0.83,1.667,3.667,1.667,3.667L99.665,146.997z"/>
		<path fill="none" stroke="#020200" stroke-width="1.0544" stroke-miterlimit="10" d="M65,149.167c0,0,25.938,9.037,35,8.334
			c8.35-0.647,30-12.502,30-12.502s-19.43,24.274-30,25.004C89.284,170.743,65,149.167,65,149.167z"/>
		<path fill="none" stroke="#020200" stroke-width="1.1549" stroke-miterlimit="10" d="M60.393,150.393c0,0-0.884-4.116,0-5s5,0,5,0
			"/>
		<path fill="none" stroke="#020200" stroke-width="1.1549" stroke-miterlimit="10" d="M134.607,145.393c0,0,0.884-4.116,0-5
			s-5,0-5,0"/>
	</g>
</g>
<g id="browserhead">
</g>
</svg>
