<?xml version="1.0" encoding="utf-8"?>
<!-- Generator: Adobe Illustrator 16.0.0, SVG Export Plug-In . SVG Version: 6.00 Build 0)  -->
<!DOCTYPE svg PUBLIC "-//W3C//DTD SVG 1.1//EN" "http://www.w3.org/Graphics/SVG/1.1/DTD/svg11.dtd">
<svg version="1.1" id="Layer_1" xmlns="http://www.w3.org/2000/svg" xmlns:xlink="http://www.w3.org/1999/xlink" x="0px" y="0px"
	 width="200px" height="255px" viewBox="0 0 200 255" enable-background="new 0 0 200 255" xml:space="preserve">
<g id="Ext">
</g>
<g id="Guides">
</g>
<g id="_x31_2_Col_Grid_1_" display="none" enable-background="new    ">
	<g id="Rectangle_xA0_Image_23_" display="inline" opacity="0.102">
	</g>
	<g id="Rectangle_xA0_Image_21_" display="inline" opacity="0.102">
	</g>
	<g id="Rectangle_xA0_Image_19_" display="inline" opacity="0.102">
	</g>
	<g id="Rectangle_xA0_Image_17_" display="inline" opacity="0.102">
	</g>
	<g id="Rectangle_xA0_Image_15_" display="inline" opacity="0.102">
	</g>
	<g id="Rectangle_xA0_Image_13_" display="inline" opacity="0.102">
	</g>
	<g id="Rectangle_xA0_Image_11_" display="inline" opacity="0.102">
	</g>
	<g id="Rectangle_xA0_Image_9_" display="inline" opacity="0.102">
	</g>
	<g id="Rectangle_xA0_Image_7_" display="inline" opacity="0.102">
	</g>
	<g id="Rectangle_xA0_Image_5_" display="inline" opacity="0.102">
	</g>
	<g id="Rectangle_xA0_Image_3_" display="inline" opacity="0.102">
	</g>
	<g id="Rectangle_xA0_Image_1_" display="inline" opacity="0.102">
	</g>
</g>
<g id="Bg">
</g>
<g id="main">
	<g id="Progress">
	</g>
	<g id="Text">
	</g>
</g>
<g>
	<path fill="none" stroke="#020200" stroke-miterlimit="10" d="M37.331,188.33"/>
	<ellipse fill="#79A6D3" stroke="#304556" stroke-miterlimit="10" cx="66" cy="108" rx="16" ry="15"/>
	<path fill="#79A6D3" stroke="#304556" stroke-miterlimit="10" d="M84.332,133"/>
	<g>
		<line fill="#79A6D3" stroke="#304556" stroke-miterlimit="10" x1="76" y1="120" x2="81" y2="125"/>
		<path fill="#79A6D3" stroke="#304556" stroke-miterlimit="10" d="M76.035,119.965c0,0,1.406,1.094,2.748,2.252
			c0.338,0.287,0.7,0.549,1.003,0.833c0.292,0.294,0.529,0.604,0.716,0.886c0.378,0.559,0.533,1.028,0.533,1.029l-0.07,0.07
			c0,0-0.47-0.155-1.029-0.534c-0.282-0.187-0.592-0.423-0.886-0.715c-0.283-0.303-0.546-0.665-0.833-1.003
			c-1.158-1.341-2.252-2.748-2.252-2.748L76.035,119.965z"/>
	</g>
	<g>
		<line fill="#79A6D3" stroke="#304556" stroke-miterlimit="10" x1="65.943" y1="123.111" x2="66.292" y2="130.174"/>
		<path fill="#79A6D3" stroke="#304556" stroke-miterlimit="10" d="M65.994,123.109c0,0,0.308,1.754,0.524,3.514
			c0.059,0.44,0.15,0.878,0.185,1.29c0.018,0.415-0.014,0.804-0.064,1.137c-0.095,0.668-0.294,1.122-0.294,1.122l-0.101,0.004
			c0,0-0.244-0.432-0.404-1.087c-0.084-0.328-0.154-0.712-0.177-1.125c-0.006-0.414,0.042-0.859,0.056-1.303
			c0.041-1.772,0.174-3.548,0.174-3.548L65.994,123.109z"/>
	</g>
	<g>
		<line fill="#79A6D3" stroke="#304556" stroke-miterlimit="10" x1="55.389" y1="119.947" x2="51.374" y2="125.767"/>
		<path fill="#79A6D3" stroke="#304556" stroke-miterlimit="10" d="M55.43,119.975c-0.001,0-0.823,1.58-1.721,3.109
			c-0.221,0.385-0.414,0.788-0.637,1.137c-0.237,0.341-0.499,0.629-0.743,0.864c-0.481,0.473-0.915,0.711-0.915,0.711l-0.083-0.057
			c0,0,0.069-0.49,0.34-1.109c0.133-0.312,0.31-0.659,0.543-1c0.246-0.333,0.557-0.658,0.836-1c1.111-1.381,2.297-2.711,2.296-2.712
			L55.43,119.975z"/>
	</g>
	<ellipse fill="#79A6D3" stroke="#304556" stroke-miterlimit="10" cx="130" cy="108" rx="16" ry="15"/>
	<path fill="#79A6D3" stroke="#304556" stroke-miterlimit="10" d="M148.332,133"/>
	<g>
		<line fill="#79A6D3" stroke="#304556" stroke-miterlimit="10" x1="140" y1="120" x2="145" y2="125"/>
		<path fill="#79A6D3" stroke="#304556" stroke-miterlimit="10" d="M140.035,119.965c0,0,1.406,1.094,2.748,2.252
			c0.338,0.287,0.699,0.549,1.003,0.833c0.292,0.294,0.528,0.604,0.716,0.886c0.378,0.559,0.533,1.028,0.533,1.029l-0.07,0.07
			c0,0-0.47-0.155-1.029-0.534c-0.281-0.187-0.592-0.423-0.886-0.715c-0.282-0.303-0.546-0.665-0.833-1.003
			c-1.158-1.341-2.252-2.748-2.252-2.748L140.035,119.965z"/>
	</g>
	<g>
		<line fill="#79A6D3" stroke="#304556" stroke-miterlimit="10" x1="130.201" y1="123.107" x2="130.034" y2="130.176"/>
		<path fill="#79A6D3" stroke="#304556" stroke-miterlimit="10" d="M130.252,123.108c0,0,0.18,1.772,0.266,3.543
			c0.027,0.443,0.086,0.887,0.09,1.3c-0.012,0.415-0.071,0.801-0.146,1.13c-0.144,0.659-0.375,1.097-0.375,1.097l-0.101-0.003
			c0,0-0.213-0.448-0.324-1.114c-0.06-0.333-0.103-0.721-0.095-1.135c0.024-0.413,0.105-0.854,0.15-1.295
			c0.171-1.764,0.434-3.526,0.434-3.526L130.252,123.108z"/>
	</g>
	<g>
		<line fill="#79A6D3" stroke="#304556" stroke-miterlimit="10" x1="119" y1="119.714" x2="115.762" y2="126"/>
		<path fill="#79A6D3" stroke="#304556" stroke-miterlimit="10" d="M119.045,119.737c-0.001,0-0.613,1.672-1.309,3.303
			c-0.17,0.41-0.311,0.834-0.487,1.209c-0.19,0.368-0.414,0.688-0.626,0.952c-0.417,0.531-0.816,0.822-0.816,0.822l-0.09-0.046
			c0,0,0.006-0.495,0.195-1.143c0.092-0.326,0.224-0.693,0.411-1.062c0.202-0.362,0.468-0.723,0.702-1.099
			c0.925-1.512,1.931-2.983,1.93-2.983L119.045,119.737z"/>
	</g>
	<g id="browserhead">
	</g>
</g>
</svg>
