<?xml version="1.0" encoding="utf-8"?>
<!-- Generator: Adobe Illustrator 16.0.0, SVG Export Plug-In . SVG Version: 6.00 Build 0)  -->
<!DOCTYPE svg PUBLIC "-//W3C//DTD SVG 1.1//EN" "http://www.w3.org/Graphics/SVG/1.1/DTD/svg11.dtd">
<svg version="1.1" xmlns="http://www.w3.org/2000/svg" xmlns:xlink="http://www.w3.org/1999/xlink" x="0px" y="0px" width="200px"
	 height="255px" viewBox="0 0 200 255" enable-background="new 0 0 200 255" xml:space="preserve">
<g id="Ext">
</g>
<g id="Guides">
</g>
<g id="_x31_2_Col_Grid_1_" display="none" enable-background="new    ">
	<g id="Rectangle_xA0_Image_23_" display="inline" opacity="0.102">
	</g>
	<g id="Rectangle_xA0_Image_21_" display="inline" opacity="0.102">
	</g>
	<g id="Rectangle_xA0_Image_19_" display="inline" opacity="0.102">
	</g>
	<g id="Rectangle_xA0_Image_17_" display="inline" opacity="0.102">
	</g>
	<g id="Rectangle_xA0_Image_15_" display="inline" opacity="0.102">
	</g>
	<g id="Rectangle_xA0_Image_13_" display="inline" opacity="0.102">
	</g>
	<g id="Rectangle_xA0_Image_11_" display="inline" opacity="0.102">
	</g>
	<g id="Rectangle_xA0_Image_9_" display="inline" opacity="0.102">
	</g>
	<g id="Rectangle_xA0_Image_7_" display="inline" opacity="0.102">
	</g>
	<g id="Rectangle_xA0_Image_5_" display="inline" opacity="0.102">
	</g>
	<g id="Rectangle_xA0_Image_3_" display="inline" opacity="0.102">
	</g>
	<g id="Rectangle_xA0_Image_1_" display="inline" opacity="0.102">
	</g>
</g>
<g id="Bg">
</g>
<g id="main">
	<g id="Progress">
	</g>
	<g id="Text">
	</g>
</g>
<g id="pane">
</g>
<g id="browserhead">
	<g>
		<ellipse fill="#79A6D3" stroke="#000000" stroke-miterlimit="10" cx="67" cy="108" rx="16" ry="15"/>
		<path fill="#FCFCFC" stroke="#020200" stroke-miterlimit="10" d="M75.922,107c0.047,0.328,0.078,0.661,0.078,1
			c0,4.418-4.029,8-9,8s-9-3.582-9-8c0-0.339,0.031-0.672,0.078-1h-7.025C51.03,107.332,51,107.662,51,108c0,8.284,7.163,15,16,15
			c8.836,0,16-6.716,16-15c0-0.338-0.031-0.668-0.054-1H75.922z"/>
		<path stroke="#020200" stroke-width="0.5477" stroke-miterlimit="10" d="M58.078,107c-0.047,0.328-0.078,0.661-0.078,1
			c0,4.418,4.029,8,9,8s9-3.582,9-8c0-0.339-0.031-0.672-0.078-1H58.078z"/>
		<ellipse fill="#79A6D3" stroke="#000000" stroke-miterlimit="10" cx="126" cy="108" rx="16" ry="15"/>
		<path fill="#FCFCFC" stroke="#020200" stroke-miterlimit="10" d="M134.922,107c0.047,0.328,0.078,0.661,0.078,1
			c0,4.418-4.029,8-9,8s-9-3.582-9-8c0-0.339,0.031-0.672,0.078-1h-7.025c-0.022,0.332-0.053,0.662-0.053,1c0,8.284,7.163,15,16,15
			c8.836,0,16-6.716,16-15c0-0.338-0.031-0.668-0.054-1H134.922z"/>
		<path stroke="#020200" stroke-width="0.5477" stroke-miterlimit="10" d="M117.078,107c-0.047,0.328-0.078,0.661-0.078,1
			c0,4.418,4.029,8,9,8s9-3.582,9-8c0-0.339-0.031-0.672-0.078-1H117.078z"/>
		<g>
			<path fill="#CFEFFF" d="M70,133.636c0,3.515-1.119,6.364-2.5,6.364s-2.5-2.849-2.5-6.364C65,130.123,66.119,120,67.5,120
				S70,130.123,70,133.636z"/>
			<path d="M70,133.636c0,0-0.002,0.167-0.006,0.48c-0.006,0.313-0.028,0.773-0.089,1.356c-0.069,0.581-0.177,1.287-0.409,2.071
				c-0.115,0.391-0.262,0.804-0.477,1.211c-0.216,0.401-0.48,0.83-0.92,1.115c-0.432,0.317-1.113,0.206-1.504-0.199
				c-0.416-0.379-0.701-0.889-0.93-1.422c-0.447-1.079-0.691-2.294-0.794-3.555c-0.108-1.267-0.041-2.572,0.049-3.889
				c0.093-1.317,0.222-2.652,0.387-3.984c0.183-1.329,0.396-2.655,0.688-3.95c0.149-0.646,0.313-1.287,0.549-1.907
				c0.13-0.308,0.253-0.616,0.499-0.897c0.094-0.133,0.361-0.298,0.582-0.216c0.067,0.012,0.23,0.112,0.277,0.174
				c0.062,0.069,0.125,0.139,0.166,0.212c0.631,1.177,0.781,2.386,1.01,3.517c0.195,1.136,0.336,2.215,0.447,3.213
				c0.225,1.996,0.363,3.662,0.422,4.832C70.01,132.967,70,133.636,70,133.636z M70,133.636c0,0-0.02-2.683-0.579-6.656
				c-0.145-0.992-0.319-2.064-0.552-3.187c-0.252-1.1-0.479-2.348-1.076-3.371c-0.184-0.249-0.301-0.338-0.48-0.112
				c-0.17,0.204-0.291,0.503-0.398,0.792c-0.211,0.591-0.369,1.22-0.505,1.858c-0.271,1.278-0.464,2.599-0.632,3.92
				c-0.182,1.32-0.326,2.647-0.436,3.955c-0.096,1.309-0.202,2.597-0.141,3.835c0.059,1.237,0.26,2.437,0.66,3.497
				c0.203,0.525,0.465,1.024,0.84,1.387c0.354,0.384,0.93,0.498,1.346,0.224c0.418-0.251,0.699-0.662,0.912-1.057
				c0.218-0.399,0.369-0.807,0.489-1.194c0.24-0.777,0.356-1.48,0.434-2.06c0.067-0.581,0.096-1.04,0.105-1.353
				C69.996,133.803,70,133.636,70,133.636z"/>
		</g>
		<g>
			<path fill="#CFEFFF" d="M130,133.636c0,3.515-1.119,6.364-2.5,6.364s-2.5-2.849-2.5-6.364c0-3.514,1.119-13.636,2.5-13.636
				S130,130.123,130,133.636z"/>
			<path d="M130,133.636c0,0-0.002,0.167-0.006,0.48c-0.006,0.313-0.028,0.773-0.089,1.356c-0.069,0.581-0.177,1.287-0.409,2.071
				c-0.115,0.391-0.262,0.804-0.477,1.211c-0.216,0.401-0.48,0.83-0.92,1.115c-0.432,0.317-1.113,0.206-1.504-0.199
				c-0.416-0.379-0.701-0.889-0.93-1.422c-0.447-1.079-0.691-2.294-0.794-3.555c-0.108-1.267-0.041-2.572,0.049-3.889
				c0.093-1.317,0.222-2.652,0.387-3.984c0.183-1.329,0.396-2.655,0.688-3.95c0.149-0.646,0.313-1.287,0.549-1.907
				c0.13-0.308,0.253-0.616,0.499-0.897c0.094-0.133,0.361-0.298,0.582-0.216c0.067,0.012,0.23,0.112,0.277,0.174
				c0.062,0.069,0.125,0.139,0.166,0.212c0.631,1.177,0.781,2.386,1.01,3.517c0.195,1.136,0.336,2.215,0.447,3.213
				c0.225,1.996,0.363,3.662,0.422,4.832C130.01,132.967,130,133.636,130,133.636z M130,133.636c0,0-0.02-2.683-0.579-6.656
				c-0.145-0.992-0.319-2.064-0.552-3.187c-0.252-1.1-0.479-2.348-1.076-3.371c-0.184-0.249-0.301-0.338-0.48-0.112
				c-0.17,0.204-0.291,0.503-0.398,0.792c-0.211,0.591-0.369,1.22-0.505,1.858c-0.271,1.278-0.464,2.599-0.632,3.92
				c-0.182,1.32-0.326,2.647-0.436,3.955c-0.096,1.309-0.202,2.597-0.141,3.835c0.059,1.237,0.26,2.437,0.66,3.497
				c0.203,0.525,0.465,1.024,0.84,1.387c0.354,0.384,0.93,0.498,1.346,0.224c0.418-0.251,0.699-0.662,0.912-1.057
				c0.218-0.399,0.369-0.807,0.489-1.194c0.24-0.777,0.356-1.48,0.434-2.06c0.067-0.581,0.096-1.04,0.105-1.353
				C129.996,133.803,130,133.636,130,133.636z"/>
		</g>
		<g>
			<path fill="#CFEFFF" d="M70,158.636c0,3.515-1.119,6.364-2.5,6.364s-2.5-2.849-2.5-6.364C65,155.123,66.119,145,67.5,145
				S70,155.123,70,158.636z"/>
			<path d="M70,158.636c0,0-0.002,0.167-0.006,0.48c-0.006,0.313-0.028,0.773-0.089,1.356c-0.069,0.581-0.177,1.287-0.409,2.071
				c-0.115,0.391-0.262,0.804-0.477,1.211c-0.216,0.401-0.48,0.83-0.92,1.115c-0.432,0.317-1.113,0.206-1.504-0.199
				c-0.416-0.379-0.701-0.889-0.93-1.422c-0.447-1.079-0.691-2.294-0.794-3.555c-0.108-1.267-0.041-2.572,0.049-3.889
				c0.093-1.317,0.222-2.652,0.387-3.984c0.183-1.329,0.396-2.655,0.688-3.95c0.149-0.646,0.313-1.287,0.549-1.907
				c0.13-0.308,0.253-0.616,0.499-0.897c0.094-0.133,0.361-0.298,0.582-0.216c0.067,0.012,0.23,0.112,0.277,0.174
				c0.062,0.069,0.125,0.139,0.166,0.212c0.631,1.177,0.781,2.386,1.01,3.517c0.195,1.136,0.336,2.215,0.447,3.213
				c0.225,1.996,0.363,3.662,0.422,4.832C70.01,157.967,70,158.636,70,158.636z M70,158.636c0,0-0.02-2.683-0.579-6.656
				c-0.145-0.992-0.319-2.064-0.552-3.187c-0.252-1.1-0.479-2.348-1.076-3.371c-0.184-0.249-0.301-0.338-0.48-0.112
				c-0.17,0.204-0.291,0.503-0.398,0.792c-0.211,0.591-0.369,1.22-0.505,1.858c-0.271,1.278-0.464,2.599-0.632,3.92
				c-0.182,1.32-0.326,2.647-0.436,3.955c-0.096,1.309-0.202,2.597-0.141,3.835c0.059,1.237,0.26,2.437,0.66,3.497
				c0.203,0.525,0.465,1.024,0.84,1.387c0.354,0.384,0.93,0.498,1.346,0.224c0.418-0.251,0.699-0.662,0.912-1.057
				c0.218-0.399,0.369-0.807,0.489-1.194c0.24-0.777,0.356-1.48,0.434-2.06c0.067-0.581,0.096-1.04,0.105-1.353
				C69.996,158.803,70,158.636,70,158.636z"/>
		</g>
		<g>
			<path fill="#CFEFFF" d="M130,158.636c0,3.515-1.119,6.364-2.5,6.364s-2.5-2.849-2.5-6.364c0-3.514,1.119-13.636,2.5-13.636
				S130,155.123,130,158.636z"/>
			<path d="M130,158.636c0,0-0.002,0.167-0.006,0.48c-0.006,0.313-0.028,0.773-0.089,1.356c-0.069,0.581-0.177,1.287-0.409,2.071
				c-0.115,0.391-0.262,0.804-0.477,1.211c-0.216,0.401-0.48,0.83-0.92,1.115c-0.432,0.317-1.113,0.206-1.504-0.199
				c-0.416-0.379-0.701-0.889-0.93-1.422c-0.447-1.079-0.691-2.294-0.794-3.555c-0.108-1.267-0.041-2.572,0.049-3.889
				c0.093-1.317,0.222-2.652,0.387-3.984c0.183-1.329,0.396-2.655,0.688-3.95c0.149-0.646,0.313-1.287,0.549-1.907
				c0.13-0.308,0.253-0.616,0.499-0.897c0.094-0.133,0.361-0.298,0.582-0.216c0.067,0.012,0.23,0.112,0.277,0.174
				c0.062,0.069,0.125,0.139,0.166,0.212c0.631,1.177,0.781,2.386,1.01,3.517c0.195,1.136,0.336,2.215,0.447,3.213
				c0.225,1.996,0.363,3.662,0.422,4.832C130.01,157.967,130,158.636,130,158.636z M130,158.636c0,0-0.02-2.683-0.579-6.656
				c-0.145-0.992-0.319-2.064-0.552-3.187c-0.252-1.1-0.479-2.348-1.076-3.371c-0.184-0.249-0.301-0.338-0.48-0.112
				c-0.17,0.204-0.291,0.503-0.398,0.792c-0.211,0.591-0.369,1.22-0.505,1.858c-0.271,1.278-0.464,2.599-0.632,3.92
				c-0.182,1.32-0.326,2.647-0.436,3.955c-0.096,1.309-0.202,2.597-0.141,3.835c0.059,1.237,0.26,2.437,0.66,3.497
				c0.203,0.525,0.465,1.024,0.84,1.387c0.354,0.384,0.93,0.498,1.346,0.224c0.418-0.251,0.699-0.662,0.912-1.057
				c0.218-0.399,0.369-0.807,0.489-1.194c0.24-0.777,0.356-1.48,0.434-2.06c0.067-0.581,0.096-1.04,0.105-1.353
				C129.996,158.803,130,158.636,130,158.636z"/>
		</g>
	</g>
</g>
</svg>
