<?xml version="1.0" encoding="utf-8"?>
<!-- Generator: Adobe Illustrator 16.0.0, SVG Export Plug-In . SVG Version: 6.00 Build 0)  -->
<!DOCTYPE svg PUBLIC "-//W3C//DTD SVG 1.1//EN" "http://www.w3.org/Graphics/SVG/1.1/DTD/svg11.dtd">
<svg version="1.1" xmlns="http://www.w3.org/2000/svg" xmlns:xlink="http://www.w3.org/1999/xlink" x="0px" y="0px" width="200px"
	 height="255px" viewBox="0 0 200 255" enable-background="new 0 0 200 255" xml:space="preserve">
<g id="Ext">
</g>
<g id="Guides">
</g>
<g id="_x31_2_Col_Grid_1_" display="none" enable-background="new    ">
	<g id="Rectangle_xA0_Image_23_" display="inline" opacity="0.102">
	</g>
	<g id="Rectangle_xA0_Image_21_" display="inline" opacity="0.102">
	</g>
	<g id="Rectangle_xA0_Image_19_" display="inline" opacity="0.102">
	</g>
	<g id="Rectangle_xA0_Image_17_" display="inline" opacity="0.102">
	</g>
	<g id="Rectangle_xA0_Image_15_" display="inline" opacity="0.102">
	</g>
	<g id="Rectangle_xA0_Image_13_" display="inline" opacity="0.102">
	</g>
	<g id="Rectangle_xA0_Image_11_" display="inline" opacity="0.102">
	</g>
	<g id="Rectangle_xA0_Image_9_" display="inline" opacity="0.102">
	</g>
	<g id="Rectangle_xA0_Image_7_" display="inline" opacity="0.102">
	</g>
	<g id="Rectangle_xA0_Image_5_" display="inline" opacity="0.102">
	</g>
	<g id="Rectangle_xA0_Image_3_" display="inline" opacity="0.102">
	</g>
	<g id="Rectangle_xA0_Image_1_" display="inline" opacity="0.102">
	</g>
</g>
<g id="Bg">
</g>
<g id="main">
	<g id="Progress">
	</g>
	<g id="Text">
	</g>
</g>
<g id="pane">
	<g>
		<path fill="none" stroke="#020200" stroke-miterlimit="10" d="M84.332,133"/>
		<path stroke="#020200" stroke-miterlimit="10" d="M99.666,146.997l-8.335-9.333c0,0,1.385-3.999,2.335-5
			c0.974-1.028,3.591-2.51,5-2.667c1.006-0.112,3.103,0.192,4,0.667c0.781,0.415,2.164,1.603,2.665,2.333
			c0.569,0.83,1.667,3.667,1.667,3.667L99.666,146.997z"/>
		<g>
			<path fill="#020200" d="M84.953,159.857c0,0,1.818-0.795,4.564-1.927c1.373-0.572,2.972-1.242,4.695-1.931
				c1.718-0.705,3.564-1.415,5.406-2.138c0.916-0.378,1.832-0.756,2.733-1.127c0.896-0.387,1.785-0.748,2.659-1.053
				c0.881-0.29,1.738-0.548,2.57-0.739c0.825-0.209,1.613-0.382,2.35-0.519c2.932-0.581,5.02-0.566,5.02-0.566l0.094,0.284
				c0,0-1.661,1.264-4.354,2.559c-0.671,0.333-1.405,0.667-2.19,0.995c-0.78,0.347-1.621,0.655-2.5,0.951
				c-0.883,0.281-1.81,0.525-2.759,0.754c-0.944,0.244-1.903,0.491-2.862,0.738c-1.908,0.527-3.811,1.067-5.608,1.534
				c-1.792,0.482-3.474,0.906-4.915,1.272c-2.877,0.743-4.809,1.198-4.809,1.198L84.953,159.857z"/>
		</g>
	</g>
</g>
<g id="browserhead">
</g>
</svg>
