<?xml version="1.0" encoding="utf-8"?>
<!-- Generator: Adobe Illustrator 16.0.0, SVG Export Plug-In . SVG Version: 6.00 Build 0)  -->
<!DOCTYPE svg PUBLIC "-//W3C//DTD SVG 1.1//EN" "http://www.w3.org/Graphics/SVG/1.1/DTD/svg11.dtd">
<svg version="1.1" id="Layer_1" xmlns="http://www.w3.org/2000/svg" xmlns:xlink="http://www.w3.org/1999/xlink" x="0px" y="0px"
	 width="245px" height="260px" viewBox="0 0 245 260" enable-background="new 0 0 245 260" xml:space="preserve">
<g id="Ext">
</g>
<g id="Guides">
</g>
<g id="_x31_2_Col_Grid_1_" display="none" enable-background="new    ">
	<g id="Rectangle_xA0_Image_23_" display="inline" opacity="0.102">
	</g>
	<g id="Rectangle_xA0_Image_21_" display="inline" opacity="0.102">
	</g>
	<g id="Rectangle_xA0_Image_19_" display="inline" opacity="0.102">
	</g>
	<g id="Rectangle_xA0_Image_17_" display="inline" opacity="0.102">
	</g>
	<g id="Rectangle_xA0_Image_15_" display="inline" opacity="0.102">
	</g>
	<g id="Rectangle_xA0_Image_13_" display="inline" opacity="0.102">
	</g>
	<g id="Rectangle_xA0_Image_11_" display="inline" opacity="0.102">
	</g>
	<g id="Rectangle_xA0_Image_9_" display="inline" opacity="0.102">
	</g>
	<g id="Rectangle_xA0_Image_7_" display="inline" opacity="0.102">
	</g>
	<g id="Rectangle_xA0_Image_5_" display="inline" opacity="0.102">
	</g>
	<g id="Rectangle_xA0_Image_3_" display="inline" opacity="0.102">
	</g>
	<g id="Rectangle_xA0_Image_1_" display="inline" opacity="0.102">
	</g>
</g>
<g id="Bg">
</g>
<g id="main">
	<g id="Progress">
	</g>
	<g id="Text">
	</g>
</g>
<g id="browserhead">
</g>
<g>
	<g id="browserhead_2_">
		<path fill="none" stroke="#020200" stroke-width="0.8072" stroke-miterlimit="10" d="M91.5,137.5c0,0,7.417,1.934,10.179,2.5
			c4.367,0.896,14.667,2.5,20.357,2.5c5.689,0,15.989-1.604,20.355-2.5c2.76-0.566,10.181-2.5,10.181-2.5"/>
	</g>
	<path fill="none" stroke="#020200" stroke-width="0.8072" stroke-miterlimit="10" d="M150.167,134.5c0,0,5.88,0.434,6.732,1.25
		c1.003,0.959-1.923,4.25-1.923,4.25"/>
	<path fill="#A50505" stroke="#020200" stroke-width="1.0033" stroke-miterlimit="10" d="M98.553,139.5
		c0,0,17.18,5.139,25.076,5.111c6.984-0.023,21.731-4.668,21.731-4.668s-10.67,7.39-19.224,7.557
		C115.957,147.7,98.553,139.5,98.553,139.5z"/>
</g>
</svg>
