<?xml version="1.0" encoding="utf-8"?>
<!-- Generator: Adobe Illustrator 16.0.0, SVG Export Plug-In . SVG Version: 6.00 Build 0)  -->
<!DOCTYPE svg PUBLIC "-//W3C//DTD SVG 1.1//EN" "http://www.w3.org/Graphics/SVG/1.1/DTD/svg11.dtd">
<svg version="1.1" xmlns="http://www.w3.org/2000/svg" xmlns:xlink="http://www.w3.org/1999/xlink" x="0px" y="0px" width="200px"
	 height="235px" viewBox="0 0 200 235" enable-background="new 0 0 200 235" xml:space="preserve">
<g id="Ext">
</g>
<g id="Guides">
</g>
<g id="_x31_2_Col_Grid_1_" display="none" enable-background="new    ">
	<g id="Rectangle_xA0_Image_23_" display="inline" opacity="0.102">
	</g>
	<g id="Rectangle_xA0_Image_21_" display="inline" opacity="0.102">
	</g>
	<g id="Rectangle_xA0_Image_19_" display="inline" opacity="0.102">
	</g>
	<g id="Rectangle_xA0_Image_17_" display="inline" opacity="0.102">
	</g>
	<g id="Rectangle_xA0_Image_15_" display="inline" opacity="0.102">
	</g>
	<g id="Rectangle_xA0_Image_13_" display="inline" opacity="0.102">
	</g>
	<g id="Rectangle_xA0_Image_11_" display="inline" opacity="0.102">
	</g>
	<g id="Rectangle_xA0_Image_9_" display="inline" opacity="0.102">
	</g>
	<g id="Rectangle_xA0_Image_7_" display="inline" opacity="0.102">
	</g>
	<g id="Rectangle_xA0_Image_5_" display="inline" opacity="0.102">
	</g>
	<g id="Rectangle_xA0_Image_3_" display="inline" opacity="0.102">
	</g>
	<g id="Rectangle_xA0_Image_1_" display="inline" opacity="0.102">
	</g>
</g>
<g id="Bg">
</g>
<g id="main">
	<g id="Progress">
	</g>
	<g id="Text">
	</g>
</g>
<g id="pane">
</g>
<g id="browserhead">
	<g>
		<g>
			<path fill="#442E24" d="M144.485,198.734c-4.295,2.888-8.857,5.337-13.634,7.3l2.351,9.377c1.008,4.019,5.079,6.458,9.099,5.451
				c4.019-1.007,6.458-5.08,5.451-9.099L144.485,198.734z"/>
			<g>
				<path fill="#231713" d="M144.453,198.812l-3.184,2.082l-3.35,1.96l-3.445,1.787l-3.533,1.611l0.139-0.274l1.469,5.644
					l0.735,2.822c0.234,0.957,0.488,1.856,0.958,2.648c0.918,1.612,2.49,2.829,4.268,3.312c0.887,0.245,1.818,0.313,2.727,0.201
					c0.896-0.106,1.819-0.408,2.59-0.841c1.602-0.875,2.814-2.396,3.357-4.131c0.272-0.868,0.364-1.787,0.299-2.696
					c-0.065-0.89-0.348-1.84-0.555-2.79c-0.449-1.892-0.877-3.789-1.289-5.689C145.214,202.583,144.844,200.694,144.453,198.812z
					 M144.531,198.723c0.55,1.866,1.121,3.728,1.637,5.603c0.534,1.87,1.053,3.744,1.549,5.624c0.235,0.939,0.553,1.854,0.674,2.903
					c0.118,1.024,0.01,2.074-0.288,3.063c-0.581,1.988-2.004,3.706-3.833,4.669c-0.938,0.491-1.904,0.773-2.939,0.881
					c-1.021,0.103-2.062,0.001-3.043-0.295c-1.961-0.587-3.667-1.958-4.641-3.745c-0.51-0.897-0.763-1.899-0.973-2.829l-0.684-2.835
					l-1.367-5.67l-0.047-0.196l0.186-0.079l3.553-1.516l3.472-1.696l3.382-1.869l3.346-2.073L144.531,198.723z"/>
			</g>
		</g>
		<g>
			<path fill="#442E24" d="M69.206,199.824l-2.993,11.939c-1.007,4.019,1.433,8.092,5.451,9.099s8.091-1.433,9.1-5.451l2.215-8.838
				C78.168,204.798,73.562,202.529,69.206,199.824z"/>
			<g>
				<path fill="#231713" d="M69.236,199.9l-2.582,10.876c-0.221,0.909-0.449,1.821-0.438,2.719c0,0.908,0.168,1.814,0.496,2.658
					c0.654,1.689,1.959,3.115,3.588,3.883c1.629,0.777,3.535,0.924,5.233,0.387c1.708-0.522,3.188-1.717,4.06-3.257
					c0.456-0.781,0.693-1.585,0.896-2.522l0.659-2.733c0.433-1.823,0.91-3.636,1.371-5.452l0.295,0.559l-3.564-1.489
					c-1.159-0.562-2.326-1.104-3.475-1.682l-3.363-1.886L69.236,199.9z M69.176,199.755l3.447,1.824l3.445,1.67
					c1.178,0.491,2.337,1.018,3.504,1.524l3.57,1.356l0.396,0.15l-0.101,0.408c-0.449,1.819-0.884,3.643-1.361,5.454l-0.709,2.721
					c-0.209,0.887-0.527,1.899-1.049,2.727c-1.019,1.701-2.691,2.975-4.578,3.519c-1.892,0.555-3.971,0.351-5.709-0.524
					c-1.752-0.867-3.125-2.433-3.789-4.251c-0.336-0.908-0.498-1.88-0.471-2.844c0.016-0.984,0.277-1.901,0.518-2.804
					L69.176,199.755z"/>
			</g>
		</g>
	</g>
	<g>
		<g>
			<path fill="#442E24" d="M88.992,37.731c0-0.619-0.001-1.237-0.002-1.854c-0.828-3.798-2.091-6.963-4.259-10.213
				c-2.13-3.191-4.429-4.959-5.093-9.576c0.094,4.786-4.264,10.063-5.407,14.466c-0.711,2.739-1.491,8.307-1.184,12.568
				C78.115,40.738,83.453,38.921,88.992,37.731z"/>
			<path fill="#231713" d="M88.973,37.693l0.006-1.815v0.015l-0.748-2.663l-0.961-2.587l-1.21-2.474l-1.446-2.341
				c-0.52-0.75-1.078-1.493-1.643-2.208c-0.568-0.727-1.136-1.464-1.644-2.25c-0.23-0.407-0.513-0.787-0.702-1.22
				c-0.184-0.432-0.438-0.837-0.565-1.292c-0.138-0.449-0.329-0.887-0.421-1.348l-0.287-1.381l0.578-0.047l-0.026,0.913
				l-0.114,0.901c-0.111,0.594-0.25,1.181-0.432,1.752c-0.358,1.145-0.828,2.24-1.328,3.313c-1,2.145-2.165,4.199-2.961,6.361
				c-0.196,0.537-0.371,1.088-0.479,1.631l-0.345,1.73c-0.135,0.577-0.17,1.151-0.256,1.726l-0.229,1.722
				c-0.063,0.577-0.084,1.161-0.129,1.74l-0.133,1.741c-0.016,1.158,0.02,2.315,0.014,3.476l-0.662-0.388l3.912-1.639
				c1.334-0.47,2.662-0.951,4.001-1.397l4.092-1.134L88.973,37.693z M89,37.767l-4.066,1.172l-3.974,1.34l-3.902,1.531l-3.813,1.734
				l-0.647,0.295l-0.013-0.683l-0.037-1.789c-0.004-0.597-0.033-1.195-0.018-1.79c0.082-1.185,0.158-2.37,0.279-3.553l0.258-1.772
				c0.097-0.587,0.154-1.189,0.298-1.757l0.38-1.723c0.135-0.605,0.331-1.177,0.549-1.738c0.883-2.239,2.092-4.269,3.107-6.371
				c0.51-1.05,0.985-2.113,1.349-3.208c0.184-0.548,0.323-1.104,0.438-1.664l0.123-0.847l0.037-0.85l0.111-2.479l0.467,2.433
				l0.256,1.331c0.08,0.445,0.258,0.862,0.381,1.296c0.114,0.438,0.354,0.828,0.522,1.246c0.173,0.418,0.44,0.79,0.655,1.188
				c0.482,0.77,1.024,1.509,1.576,2.246c0.561,0.745,1.094,1.489,1.607,2.266l1.408,2.399l1.16,2.526l0.859,2.627l0.627,2.69v0.007
				v0.008L89,37.767z"/>
		</g>
		<g>
			<path fill="#442E24" d="M88.99,35.605c0,0.091,0,0.182,0,0.272c0.12,0.549,0.23,1.111,0.334,1.689L88.99,35.605z"/>
			<path fill="#231713" d="M89.014,35.483l0.023,0.122l0.052,0.272l-0.003-0.021c0.229,0.539,0.42,1.09,0.609,1.645l-0.742,0.13
				c-0.203-0.302-0.251-0.631-0.261-0.966c0.007-0.337,0.052-0.682,0.251-1.052L89.014,35.483z M89.037,35.598
				c0.311,0.283,0.467,0.593,0.585,0.909c0.102,0.319,0.165,0.646,0.073,0.997l-0.611,2.35l-0.131-2.22
				c-0.033-0.572-0.064-1.147-0.059-1.734l-0.003-0.021l0.066-0.352L89.037,35.598z"/>
		</g>
	</g>
	<g>
		<g>
			<path fill="#442E24" d="M134.266,41.089c0.199-4.171-0.546-9.358-1.224-11.97c-1.144-4.402-5.501-9.68-5.407-14.466
				c-0.664,4.617-2.963,6.385-5.093,9.576c-2.168,3.25-3.431,6.415-4.259,10.213c-0.001,0.522-0.001,1.047-0.002,1.571
				C123.828,37.096,129.176,38.812,134.266,41.089z"/>
			<path fill="#231713" d="M134.217,41.015l-0.023-1.652c-0.016-0.575-0.002-1.152-0.041-1.726l-0.16-1.714
				c-0.062-0.57-0.086-1.144-0.179-1.711c-0.198-1.13-0.308-2.278-0.577-3.392l-0.373-1.669c-0.161-0.557-0.35-1.095-0.561-1.615
				c-0.877-2.106-2.043-4.096-3.05-6.18c-0.503-1.042-0.973-2.108-1.336-3.223c-0.186-0.557-0.326-1.129-0.442-1.709l-0.124-0.882
				l-0.04-0.896l0.645,0.052l-0.267,1.39c-0.084,0.464-0.27,0.906-0.4,1.361c-0.122,0.46-0.37,0.872-0.55,1.311
				c-0.184,0.438-0.459,0.825-0.686,1.24c-0.501,0.8-1.053,1.553-1.606,2.292l-0.815,1.106l-0.76,1.108l-1.4,2.385l-1.13,2.447
				l-0.896,2.567l-0.695,2.637l0.01-0.101l-0.011,1.571l-0.378-0.46l4.109,0.991c1.348,0.409,2.697,0.81,4.036,1.239l3.943,1.498
				L134.217,41.015z M134.312,41.156l-4.004-1.476l-3.989-1.274l-4.04-1.077l-4.006-0.856l-0.295-0.078v-0.382v-1.571v-0.057
				l-0.076-0.044l0.648-2.718c0.3-0.888,0.613-1.765,0.93-2.646l1.222-2.553l1.444-2.355l0.824-1.156l0.848-1.103
				c0.566-0.725,1.121-1.448,1.61-2.204c0.22-0.391,0.491-0.756,0.669-1.166c0.176-0.411,0.419-0.795,0.539-1.229
				c0.129-0.428,0.314-0.84,0.4-1.282l0.277-1.322l0.567-2.707l0.077,2.76l0.022,0.829l0.103,0.829
				c0.102,0.551,0.226,1.099,0.396,1.639c0.332,1.08,0.773,2.133,1.254,3.172c0.963,2.076,2.098,4.092,2.941,6.261
				c0.209,0.553,0.387,1.104,0.533,1.658l0.346,1.708c0.246,1.132,0.33,2.286,0.504,3.427c0.081,0.571,0.094,1.151,0.143,1.727
				l0.123,1.727c0.025,0.575-0.001,1.151,0.002,1.727L134.312,41.156z"/>
		</g>
		<g>
			<path fill="#442E24" d="M117.979,35.959c0.002,0,0.003,0,0.005,0c0.094-0.516,0.192-1.023,0.3-1.517c0-0.091,0-0.182,0-0.272
				L117.979,35.959z"/>
			<path fill="#231713" d="M117.979,35.912l0.005-0.001l-0.048,0.039c-0.007-0.525-0.012-1.055,0.021-1.579l-0.008,0.071
				l-0.042-0.272l0.748,0.063c0.098,0.323,0.038,0.62-0.059,0.91c-0.113,0.288-0.264,0.568-0.57,0.823L117.979,35.912z
				 M117.932,35.993c-0.205-0.342-0.254-0.679-0.266-0.987c0.005-0.306,0.047-0.615,0.246-0.889l0.965-1.335l-0.217,1.391
				l-0.042,0.271l-0.008,0.071c-0.167,0.487-0.372,0.968-0.579,1.453l-0.02,0.086l-0.028,0.035h-0.005L117.932,35.993z"/>
		</g>
	</g>
	<path fill="#F1D2F7" d="M120.638,37.217c0.918-6.867,3.178-10.441,6.581-15.128c1.12,3.089,3.067,4.811,4.418,7.773
		c1.532,3.361,1.333,6.626,1.333,10.785"/>
	<path fill="#F1D2F7" d="M87.979,37.658c-0.918-6.867-3.178-10.441-6.58-15.128c-1.121,3.089-3.068,4.811-4.418,7.773
		c-1.533,3.361-1.334,6.626-1.334,10.785"/>
	<g>
		<path fill="#442E24" stroke="#231713" stroke-width="0.9428" stroke-miterlimit="10" d="M106.333,33.787
			c44.18,0,80,39.626,80,88.508s-35.82,88.508-80,88.508c-44.184,0-80.002-39.626-80.002-88.508S62.149,33.787,106.333,33.787z"/>
		<path fill="#EFD8CE" stroke="#EFD8CE" stroke-width="0.9428" stroke-miterlimit="10" d="M177.338,167.284
			c-11.093-15.343-38.332-26.195-70.201-26.195c-32.451,0-60.113,11.248-70.806,27.034c16.397,26.171,41.766,42.966,70.245,42.966
			C135.357,211.089,160.96,193.934,177.338,167.284z"/>
	</g>
	<path stroke="#050500" stroke-width="2.0235" stroke-miterlimit="10" d="M78.286,69.6c7.156,3.849,8.531,15.195,3.07,25.351
		c-5.459,10.149-15.684,15.26-22.845,11.411c-7.156-3.851-8.528-15.201-3.071-25.349C60.901,70.859,71.127,65.75,78.286,69.6z"/>
	<g>
		<ellipse fill="#FEFEFF" stroke="#020200" stroke-width="0.8" stroke-miterlimit="10" cx="79.177" cy="88.726" rx="12.8" ry="12"/>
		
			<ellipse fill="#020200" stroke="#020200" stroke-width="0.4382" stroke-miterlimit="10" cx="79.177" cy="88.726" rx="7.199" ry="6.4"/>
		
			<ellipse fill="#FDFDFE" stroke="#020200" stroke-width="0.8" stroke-miterlimit="10" cx="131.177" cy="87.925" rx="12.8" ry="12"/>
		
			<ellipse fill="#020200" stroke="#020200" stroke-width="0.4382" stroke-miterlimit="10" cx="131.177" cy="87.925" rx="7.199" ry="6.4"/>
	</g>
	<g>
		<g>
			<path fill="#442E24" d="M77.331,102c0,0-2.709,27.881,0,36.718c1.586,5.178,6.989,15.938,12.223,18.358
				c4.092,1.893,18.334,0,18.334,0c-3.422-0.609,18.172,0.118,18.334,0c5.986-4.38,6.091-20.513,6.111-27.538
				c0.018-6.885,0-27.538,0-27.538"/>
			<path fill="#020200" d="M77.378,102.005c-0.452,6.465-0.737,12.944-0.755,19.414c-0.031,1.617-0.018,3.233-0.012,4.849
				c0.041,1.613,0.074,3.228,0.184,4.833c0.031,0.807,0.117,1.604,0.195,2.402c0.059,0.803,0.178,1.591,0.307,2.377
				c0.229,1.572,0.662,3.079,1.256,4.564c1.178,2.965,2.638,5.85,4.336,8.555c0.842,1.357,1.773,2.655,2.787,3.863
				c1.016,1.197,2.129,2.334,3.4,3.123c0.314,0.153,0.666,0.402,0.945,0.482c0.387,0.142,0.771,0.272,1.106,0.315l0.522,0.105
				l0.579,0.069c0.384,0.053,0.772,0.092,1.169,0.107c1.572,0.104,3.175,0.091,4.775,0.022c3.202-0.125,6.422-0.462,9.604-0.844
				l-0.037,1.658c-0.123-0.026-0.203-0.033-0.416-0.103l-0.09-0.033c-0.087-0.039-0.172-0.092-0.246-0.152
				c0.047,0.05-0.291-0.22-0.299-0.609c0.016-0.423,0.133-0.49,0.186-0.574c0.078-0.097,0.182-0.18,0.286-0.233
				c0.1-0.049,0.063-0.028,0.103-0.045c0.215-0.071,0.236-0.058,0.327-0.075c0.261-0.032,0.457-0.038,0.668-0.047l1.208-0.019
				l2.377,0.02l4.732,0.104l4.725,0.133c1.566,0.042,3.164-0.046,4.697-0.031l0.115-0.147h0.006c0.041,0-0.104,0.155-0.176,0.191
				c-0.043,0-0.232,0.23-0.188,0.193l0.056-0.013l0.221-0.179l0.44-0.384c0.329-0.255,0.518-0.534,0.727-0.809
				c0.453-0.504,0.797-1.202,1.18-1.837c0.639-1.368,1.197-2.797,1.564-4.302c0.414-1.486,0.688-3.021,0.94-4.557
				c0.229-1.542,0.409-3.093,0.54-4.651c0.529-6.236,0.373-12.503,0.479-18.802l0.383-18.853h0.096l0.011,18.854l0.003,9.427
				c-0.01,3.15-0.09,6.291-0.328,9.435c-0.119,1.571-0.289,3.135-0.51,4.696c-0.242,1.557-0.508,3.111-0.919,4.636
				c-0.364,1.538-0.927,3.021-1.586,4.456c-0.402,0.683-0.741,1.402-1.271,2.01c-0.242,0.317-0.477,0.644-0.788,0.887l-0.438,0.396
				l-0.219,0.197l-0.055,0.05c-0.061,0.042-0.104,0.029-0.121,0.034l-0.15,0.004c-3.155-0.024-6.301-0.122-9.45-0.175l-4.724-0.067
				l-2.359-0.002l-1.178,0.027c-0.195,0.009-0.393,0.019-0.58,0.043c-0.044,0.007-0.096,0.015-0.124,0.024
				c-0.042,0.027,0.066-0.032-0.001-0.111c0.003-0.001,0.012,0.006,0.037,0.013c0.08,0.026,0.18,0.044,0.273,0.062l0.582,0.111
				l-0.586,0.073c-3.221,0.402-6.453,0.686-9.697,0.797c-1.621,0.057-3.246,0.059-4.868-0.061c-1.604-0.144-3.294-0.313-4.685-1.238
				c-1.385-0.879-2.524-2.071-3.564-3.314c-1.035-1.253-1.973-2.584-2.818-3.97c-1.703-2.763-3.152-5.681-4.328-8.707
				c-0.591-1.511-1.032-3.09-1.252-4.699c-0.126-0.803-0.24-1.606-0.295-2.417c-0.071-0.808-0.152-1.615-0.178-2.426
				c-0.098-1.62-0.118-3.241-0.146-4.862c0.007-1.621,0.004-3.243,0.051-4.863c0.154-6.483,0.576-12.956,1.165-19.413
				L77.378,102.005z"/>
		</g>
		<ellipse stroke="#050500" stroke-miterlimit="10" cx="106.331" cy="137" rx="15" ry="5"/>
		<g>
			<g>
				<path fill="#442E24" d="M105.562,141.925c0,0-0.417,3.821,0,5c0.59,1.667,3.412,4.224,5,5c1.123,0.549,3.845,0.479,5,0
					c1.633-0.677,4.426-3.328,5-5c0.406-1.183,0-3.75,0-5"/>
				<path fill="#020200" d="M105.608,141.93c0,0,0.021,0.466,0.046,1.272c0.015,0.403,0.033,0.892,0.075,1.446
					c0.048,0.548,0.108,1.191,0.234,1.781c0.048,0.12,0.063,0.308,0.129,0.377c0.087,0.157,0.177,0.317,0.269,0.48
					c0.214,0.28,0.381,0.511,0.645,0.79c0.504,0.551,1.104,1.085,1.726,1.628c0.626,0.523,1.327,1.066,2.028,1.418l0.131,0.072
					l0.017,0.009c0.065,0.028-0.08-0.033-0.062-0.026l0.01,0.004l0.041,0.014l0.08,0.027l0.324,0.11l0.505,0.08
					c0.407,0.043,0.827,0.054,1.253,0.049c0.832,0.004,1.767-0.071,2.338-0.345c0.443-0.194,0.74-0.412,1.059-0.614
					c0.324-0.249,0.671-0.487,0.973-0.765c0.617-0.542,1.211-1.083,1.707-1.641c0.484-0.576,0.9-1.091,1.037-1.691
					c0.117-0.57,0.176-1.19,0.205-1.749c0.031-0.555,0.039-0.965,0.049-1.37c0.021-0.813,0.088-1.198,0.088-1.198h0.096
					c0,0,0.004,0.376,0.069,1.18c0.027,0.403,0.06,0.852,0.099,1.412c0.025,0.562,0.045,1.183-0.062,1.879
					c-0.115,0.701-0.558,1.344-1.029,1.977c-0.49,0.627-1.064,1.239-1.713,1.817c-0.644,0.568-1.359,1.157-2.18,1.551
					c-0.85,0.412-1.801,0.47-2.725,0.5c-0.908-0.013-1.905-0.047-2.719-0.501c-0.812-0.438-1.508-1.015-2.161-1.584
					c-0.649-0.576-1.233-1.183-1.731-1.806c-0.484-0.641-0.938-1.259-1.043-1.979c-0.186-1.39-0.049-2.545-0.013-3.35
					c0.071-0.805,0.113-1.265,0.113-1.265L105.608,141.93z"/>
			</g>
			<g>
				<path fill="#442E24" d="M105.557,141.539c0,0,0.417,3.821,0,5c-0.591,1.667-3.412,4.224-5,5c-1.124,0.549-3.845,0.479-5,0
					c-1.633-0.677-4.426-3.328-5-5c-0.407-1.183,0-3.75,0-5"/>
				<path fill="#020200" d="M105.604,141.534c0,0,0.121,0.451,0.266,1.254c0.064,0.402,0.143,0.891,0.211,1.46
					c0.063,0.573,0.143,1.206,0.053,1.981c-0.049,0.21-0.031,0.393-0.147,0.64c-0.068,0.167-0.138,0.337-0.209,0.509
					c-0.187,0.344-0.43,0.773-0.676,1.101c-0.489,0.684-1.056,1.354-1.73,1.953c-0.677,0.606-1.368,1.206-2.271,1.712l-0.165,0.098
					l-0.021,0.012l-0.09,0.039l-0.041,0.016l-0.079,0.03l-0.319,0.123c-0.258,0.073-0.569,0.145-0.842,0.194
					c-0.504,0.073-1.005,0.11-1.502,0.116c-0.996-0.058-1.963-0.102-3.034-0.623c-0.386-0.186-0.824-0.49-1.241-0.788
					c-0.371-0.305-0.738-0.583-1.062-0.902c-0.678-0.604-1.23-1.288-1.714-1.976c-0.245-0.34-0.446-0.712-0.64-1.068
					c-0.08-0.197-0.159-0.392-0.236-0.582c-0.023-0.066-0.028-0.05-0.065-0.186l-0.022-0.131l-0.044-0.259
					c-0.099-0.796-0.007-1.453,0.071-2.015c0.08-0.568,0.168-1.278,0.236-1.677c0.146-0.795,0.221-1.477,0.221-1.477h0.094
					c0,0-0.002,0.689-0.062,1.494c-0.024,0.402-0.055,1.004-0.088,1.563c-0.023,0.56-0.037,1.251,0.07,1.921
					c0.115,0.68,0.547,1.335,1.018,1.959c0.488,0.617,1.061,1.24,1.707,1.809c0.652,0.564,1.332,1.132,2.154,1.521
					c0.795,0.384,1.744,0.447,2.648,0.469c0.912-0.012,1.845-0.027,2.639-0.462c0.791-0.42,1.488-0.986,2.138-1.547
					c0.647-0.566,1.229-1.163,1.726-1.774c0.468-0.604,0.936-1.249,1.03-1.917c0.189-1.354,0.062-2.521,0.032-3.319
					c-0.067-0.803-0.105-1.262-0.105-1.262L105.604,141.534z"/>
			</g>
		</g>
	</g>
	<g>
		<path fill="#442E24" stroke="#442E24" stroke-width="0.9428" stroke-miterlimit="10" d="M143.46,156.769
			c-1.273,3.007,0.07,6.817,3,8.514l0,0c2.931,1.695,6.338,0.632,7.611-2.376l4.611-10.889c1.272-3.006-0.07-6.817-3-8.513l0,0
			c-2.932-1.696-6.338-0.632-7.611,2.375L143.46,156.769z"/>
		<path fill="#442E24" stroke="#442E24" stroke-width="0.9428" stroke-miterlimit="10" d="M72.498,155.16
			c1.273,3.007-0.07,6.817-3,8.514l0,0c-2.931,1.695-6.338,0.632-7.611-2.376l-4.611-10.889c-1.272-3.006,0.07-6.817,3-8.513l0,0
			c2.932-1.696,6.338-0.632,7.611,2.375L72.498,155.16z"/>
	</g>
</g>
</svg>
