<?xml version="1.0" encoding="utf-8"?>
<!-- Generator: Adobe Illustrator 16.0.0, SVG Export Plug-In . SVG Version: 6.00 Build 0)  -->
<!DOCTYPE svg PUBLIC "-//W3C//DTD SVG 1.1//EN" "http://www.w3.org/Graphics/SVG/1.1/DTD/svg11.dtd">
<svg version="1.1" xmlns="http://www.w3.org/2000/svg" xmlns:xlink="http://www.w3.org/1999/xlink" x="0px" y="0px" width="200px"
	 height="255px" viewBox="0 0 200 255" enable-background="new 0 0 200 255" xml:space="preserve">
<g id="Ext">
</g>
<g id="Guides">
</g>
<g id="_x31_2_Col_Grid_1_" display="none" enable-background="new    ">
	<g id="Rectangle_xA0_Image_23_" display="inline" opacity="0.102">
	</g>
	<g id="Rectangle_xA0_Image_21_" display="inline" opacity="0.102">
	</g>
	<g id="Rectangle_xA0_Image_19_" display="inline" opacity="0.102">
	</g>
	<g id="Rectangle_xA0_Image_17_" display="inline" opacity="0.102">
	</g>
	<g id="Rectangle_xA0_Image_15_" display="inline" opacity="0.102">
	</g>
	<g id="Rectangle_xA0_Image_13_" display="inline" opacity="0.102">
	</g>
	<g id="Rectangle_xA0_Image_11_" display="inline" opacity="0.102">
	</g>
	<g id="Rectangle_xA0_Image_9_" display="inline" opacity="0.102">
	</g>
	<g id="Rectangle_xA0_Image_7_" display="inline" opacity="0.102">
	</g>
	<g id="Rectangle_xA0_Image_5_" display="inline" opacity="0.102">
	</g>
	<g id="Rectangle_xA0_Image_3_" display="inline" opacity="0.102">
	</g>
	<g id="Rectangle_xA0_Image_1_" display="inline" opacity="0.102">
	</g>
</g>
<g id="Bg">
</g>
<g id="main">
	<g id="Progress">
	</g>
	<g id="Text">
	</g>
</g>
<g id="pane">
	<g>
		<path fill="#79A6D3" stroke="#304556" stroke-miterlimit="10" d="M32.883,66.754c1.202-1.228,2.44-2.42,3.713-3.579l0.878-1.22
			l5.688-5.044l2.884-1.251c2.455-1.697,5.001-3.274,7.627-4.728l-22.698-6.436l1.867,21.769L32.883,66.754z"/>
		<path fill="#F3E3FC" stroke="#F3E3FC" stroke-miterlimit="10" d="M50.028,53.481l-14.055-3.985l1.189,13.87
			C41.132,59.706,45.435,56.393,50.028,53.481z"/>
		<path fill="#79A6D3" stroke="#304556" stroke-miterlimit="10" d="M159.212,64.497l1.762-20.547l-20,6.086
			C148.208,53.963,154.833,58.84,159.212,64.497z"/>
		<path fill="#F3E3FC" stroke="#F3E3FC" stroke-miterlimit="10" d="M157.843,59.497l1.062-12.372l-12.931,3.666
			C150.175,53.374,154.145,56.288,157.843,59.497z"/>
	</g>
</g>
<g id="browserhead">
</g>
</svg>
