<?xml version="1.0" encoding="utf-8"?>
<!-- Generator: Adobe Illustrator 16.0.0, SVG Export Plug-In . SVG Version: 6.00 Build 0)  -->
<!DOCTYPE svg PUBLIC "-//W3C//DTD SVG 1.1//EN" "http://www.w3.org/Graphics/SVG/1.1/DTD/svg11.dtd">
<svg version="1.1" id="Layer_1" xmlns="http://www.w3.org/2000/svg" xmlns:xlink="http://www.w3.org/1999/xlink" x="0px" y="0px"
	 width="200px" height="255px" viewBox="0 0 200 255" enable-background="new 0 0 200 255" xml:space="preserve">
<g id="Ext">
</g>
<g id="Guides">
</g>
<g id="_x31_2_Col_Grid_1_" display="none" enable-background="new    ">
	<g id="Rectangle_xA0_Image_23_" display="inline" opacity="0.102">
	</g>
	<g id="Rectangle_xA0_Image_21_" display="inline" opacity="0.102">
	</g>
	<g id="Rectangle_xA0_Image_19_" display="inline" opacity="0.102">
	</g>
	<g id="Rectangle_xA0_Image_17_" display="inline" opacity="0.102">
	</g>
	<g id="Rectangle_xA0_Image_15_" display="inline" opacity="0.102">
	</g>
	<g id="Rectangle_xA0_Image_13_" display="inline" opacity="0.102">
	</g>
	<g id="Rectangle_xA0_Image_11_" display="inline" opacity="0.102">
	</g>
	<g id="Rectangle_xA0_Image_9_" display="inline" opacity="0.102">
	</g>
	<g id="Rectangle_xA0_Image_7_" display="inline" opacity="0.102">
	</g>
	<g id="Rectangle_xA0_Image_5_" display="inline" opacity="0.102">
	</g>
	<g id="Rectangle_xA0_Image_3_" display="inline" opacity="0.102">
	</g>
	<g id="Rectangle_xA0_Image_1_" display="inline" opacity="0.102">
	</g>
</g>
<g id="Bg">
</g>
<g id="main">
	<g id="Progress">
	</g>
	<g id="Text">
	</g>
</g>
<g>
	<path fill="none" stroke="#020200" stroke-miterlimit="10" d="M84.332,133"/>
	<path stroke="#020200" stroke-width="1.0158" stroke-miterlimit="10" d="M100.967,146.997l-8.601-9.333c0,0,1.429-3.999,2.408-5
		c1.006-1.028,3.707-2.51,5.16-2.667c1.042-0.112,3.205,0.192,4.128,0.667c0.808,0.415,2.234,1.604,2.752,2.333
		c0.587,0.83,1.72,3.667,1.72,3.667L100.967,146.997z"/>
	<g>
		<path fill="none" stroke="#020200" stroke-width="0.8275" stroke-miterlimit="10" d="M76,162.75c0,0,3.365-5.296,5-6.848
			c1.033-0.982,3.35-2.991,5-3.424c3.501-0.921,15,0,15,0l-0.335-5.481"/>
		<path fill="none" stroke="#020200" stroke-width="0.8275" stroke-miterlimit="10" d="M126,162.75c0,0-3.509-5.229-5-6.848
			c-0.941-1.024-3.367-2.963-5-3.424c-3.465-0.984-15,0-15,0l0.335-5.481"/>
	</g>
	<g id="browserhead">
	</g>
</g>
</svg>
