<?xml version="1.0" encoding="utf-8"?>
<!-- Generator: Adobe Illustrator 16.0.0, SVG Export Plug-In . SVG Version: 6.00 Build 0)  -->
<!DOCTYPE svg PUBLIC "-//W3C//DTD SVG 1.1//EN" "http://www.w3.org/Graphics/SVG/1.1/DTD/svg11.dtd">
<svg version="1.1" id="Layer_1" xmlns="http://www.w3.org/2000/svg" xmlns:xlink="http://www.w3.org/1999/xlink" x="0px" y="0px"
	 width="200px" height="225px" viewBox="0 0 200 225" enable-background="new 0 0 200 225" xml:space="preserve">
<g id="Ext">
</g>
<g id="Guides">
</g>
<g id="_x31_2_Col_Grid_1_" display="none" enable-background="new    ">
	<g id="Rectangle_xA0_Image_23_" display="inline" opacity="0.102">
	</g>
	<g id="Rectangle_xA0_Image_21_" display="inline" opacity="0.102">
	</g>
	<g id="Rectangle_xA0_Image_19_" display="inline" opacity="0.102">
	</g>
	<g id="Rectangle_xA0_Image_17_" display="inline" opacity="0.102">
	</g>
	<g id="Rectangle_xA0_Image_15_" display="inline" opacity="0.102">
	</g>
	<g id="Rectangle_xA0_Image_13_" display="inline" opacity="0.102">
	</g>
	<g id="Rectangle_xA0_Image_11_" display="inline" opacity="0.102">
	</g>
	<g id="Rectangle_xA0_Image_9_" display="inline" opacity="0.102">
	</g>
	<g id="Rectangle_xA0_Image_7_" display="inline" opacity="0.102">
	</g>
	<g id="Rectangle_xA0_Image_5_" display="inline" opacity="0.102">
	</g>
	<g id="Rectangle_xA0_Image_3_" display="inline" opacity="0.102">
	</g>
	<g id="Rectangle_xA0_Image_1_" display="inline" opacity="0.102">
	</g>
</g>
<g id="Bg">
</g>
<g id="main">
	<g id="Progress">
	</g>
	<g id="Text">
	</g>
</g>
<g id="pane">
</g>
<g>
	<g id="browserhead">
		<g>
			<ellipse fill="#FFFFFF" cx="96.866" cy="137.718" rx="18.604" ry="9.139"/>
			<g>
				<g>
					<path fill="none" d="M112.035,138.969c-0.146-0.057-0.296-0.102-0.438-0.162c-2.205-5.1-8.855-8.807-16.721-8.807
						c-7.754,0-14.321,3.605-16.616,8.595c4.877,2.907,10.803,4.63,17.211,4.63C101.6,143.225,107.282,141.648,112.035,138.969z"/>
					<g>
						<path fill="#F9DEFC" d="M95.472,143.225c-6.408,0-12.334-1.723-17.211-4.63c-0.033,0.071-0.074,0.14-0.104,0.212
							c-1.247,0.524-2.577,0.889-3.966,1.065c-1.376,1.468-2.632,3.062-3.718,4.792c5.396,6.852,14.574,11.361,25,11.361
							c10.42,0,19.6-4.514,25-11.363c-1.064-1.691-2.291-3.25-3.63-4.689c-1.692-0.063-3.305-0.421-4.808-1.004
							C107.282,141.648,101.6,143.225,95.472,143.225z"/>
						<path fill="#020200" d="M95.47,143.303l-2.254-0.076c-0.75-0.058-1.5-0.146-2.25-0.218c-0.376-0.034-0.744-0.118-1.117-0.174
							l-1.113-0.188c-0.373-0.053-0.734-0.168-1.104-0.242l-1.103-0.247c-0.37-0.072-0.726-0.204-1.089-0.304l-1.084-0.321
							c-0.365-0.101-0.711-0.255-1.066-0.378l-1.062-0.396c-0.354-0.131-0.691-0.303-1.039-0.448l-1.037-0.461
							c-0.676-0.339-1.34-0.701-2.012-1.052l0.336-0.104l-0.1,0.209l-0.045,0.097l-0.082,0.03l-1.969,0.713l-2.051,0.438
							l0.186-0.096l-1.922,2.312l-1.688,2.479l-0.023-0.454c0.795,0.853,1.547,1.745,2.372,2.562
							c0.897,0.742,1.733,1.562,2.678,2.24l1.447,0.979c0.486,0.319,0.946,0.68,1.479,0.924l1.547,0.81
							c0.518,0.268,1.021,0.562,1.576,0.746l1.627,0.633c0.544,0.207,1.076,0.447,1.646,0.57c1.131,0.277,2.236,0.656,3.383,0.852
							c1.151,0.164,2.295,0.389,3.45,0.502l3.483,0.158l3.507-0.228c1.157-0.138,2.271-0.384,3.405-0.565
							c1.127-0.216,2.229-0.615,3.343-0.91c0.564-0.135,1.09-0.385,1.625-0.601l1.603-0.657c0.547-0.191,1.042-0.492,1.55-0.765
							l1.521-0.823c1.014-0.548,1.899-1.296,2.867-1.916c0.932-0.674,1.75-1.486,2.635-2.221c0.812-0.811,1.545-1.693,2.33-2.533
							l-0.049,0.903l-1.625-2.394l-1.836-2.254l0.471,0.215l-1.282-0.133l-1.263-0.25l-1.231-0.354l-1.194-0.451l0.447-0.032
							c-0.662,0.315-1.316,0.641-1.98,0.944c-0.681,0.269-1.352,0.558-2.035,0.81l-1.037,0.344c-0.348,0.108-0.688,0.242-1.041,0.33
							l-1.055,0.274c-0.354,0.085-0.699,0.199-1.058,0.261l-1.067,0.209c-0.356,0.064-0.707,0.159-1.067,0.202
							c-0.718,0.095-1.433,0.212-2.151,0.286c-0.723,0.053-1.441,0.128-2.162,0.172L95.47,143.303z M95.474,143.145l2.151-0.095
							c0.716-0.063,1.429-0.147,2.142-0.229c0.709-0.104,1.413-0.254,2.117-0.377c0.354-0.06,0.697-0.168,1.046-0.248l1.038-0.272
							c0.349-0.082,0.683-0.218,1.023-0.323l1.016-0.338c0.341-0.106,0.665-0.261,0.998-0.389l0.99-0.4
							c0.649-0.289,1.284-0.613,1.926-0.919c0.625-0.339,1.238-0.696,1.854-1.043l0.195-0.108l0.254,0.078l1.14,0.345l1.157,0.251
							l1.17,0.154l1.177,0.064l0.293,0.018l0.178,0.198l2.013,2.269l1.784,2.466l0.341,0.472l-0.39,0.432
							c-0.812,0.904-1.593,1.847-2.444,2.713c-0.925,0.787-1.791,1.652-2.768,2.375l-1.503,1.031
							c-0.507,0.334-0.988,0.709-1.541,0.967l-1.608,0.848c-0.539,0.277-1.064,0.585-1.64,0.779l-1.692,0.658
							c-0.566,0.213-1.121,0.461-1.715,0.59c-1.176,0.289-2.318,0.675-3.519,0.88c-1.203,0.171-2.414,0.401-3.606,0.516
							l-3.579,0.154l-3.604-0.224c-1.193-0.139-2.373-0.389-3.56-0.578c-1.181-0.224-2.32-0.631-3.48-0.938
							c-0.586-0.139-1.134-0.396-1.691-0.618l-1.669-0.682c-0.566-0.202-1.084-0.514-1.613-0.797l-1.582-0.862
							c-0.543-0.261-1.016-0.642-1.512-0.978l-1.475-1.034c-0.963-0.716-1.812-1.575-2.723-2.356
							c-0.838-0.857-1.6-1.791-2.401-2.683l-0.195-0.218l0.171-0.236l1.8-2.492l2.026-2.302l0.064-0.073l0.122-0.021l1.985-0.361
							l1.926-0.619l-0.127,0.127l0.111-0.216l0.118-0.228l0.218,0.123c0.648,0.368,1.29,0.75,1.945,1.109
							c0.673,0.321,1.336,0.67,2.021,0.969l1.041,0.418c0.35,0.133,0.689,0.295,1.048,0.402l1.067,0.348
							c0.359,0.107,0.709,0.25,1.074,0.33l1.09,0.275c0.365,0.086,0.726,0.193,1.097,0.248l1.108,0.188
							c0.371,0.057,0.738,0.139,1.111,0.174c0.745,0.071,1.488,0.158,2.236,0.218L95.474,143.145z"/>
					</g>
					<g>
						<path fill="#F9DEFC" d="M132.374,122.5c0-3.634-2.372-7.008-6.435-9.805c-0.168-0.117-0.34-0.227-0.516-0.337
							c-6.798-4.452-17.941-7.358-30.551-7.358c-12.602,0-23.742,2.904-30.542,7.353c-0.177,0.113-0.356,0.226-0.528,0.347
							c-4.058,2.796-6.43,6.169-6.43,9.801c0,0.353,0.031,0.703,0.073,1.051c-0.045,0.479-0.073,0.96-0.073,1.449
							c0,8.284,6.717,15,15,15c0.617,0,1.221-0.052,1.815-0.128c1.389-0.178,2.719-0.541,3.966-1.064
							c0.031-0.072,0.072-0.142,0.105-0.213c2.295-4.988,8.862-8.595,16.616-8.595c7.864,0,14.516,3.707,16.721,8.808
							c0.143,0.061,0.293,0.104,0.438,0.161c1.503,0.583,3.115,0.939,4.808,1.003c0.179,0.008,0.353,0.028,0.531,0.028
							c8.282,0,15-6.716,15-15c0-0.487-0.026-0.969-0.073-1.444C132.346,123.206,132.374,122.854,132.374,122.5z"/>
						<path fill="#020200" d="M132.312,122.502c0.002-1.898-0.683-3.697-1.732-5.251c-1.046-1.56-2.454-2.842-3.95-3.966
							c-0.731-0.593-1.539-1.064-2.362-1.521c-0.82-0.459-1.615-0.971-2.488-1.32c-0.859-0.375-1.697-0.798-2.572-1.134
							l-2.652-0.945c-0.881-0.323-1.803-0.521-2.703-0.784c-0.901-0.257-1.808-0.504-2.732-0.668l-2.758-0.563l-2.786-0.396
							c-1.853-0.313-3.734-0.366-5.6-0.542c-1.871-0.08-3.757-0.125-5.617-0.117l-2.82,0.101l-1.41,0.053l-1.396,0.128l-2.793,0.253
							l-2.779,0.411c-1.861,0.226-3.674,0.713-5.508,1.082l-2.697,0.763c-0.448,0.135-0.903,0.245-1.344,0.398l-1.314,0.482
							c-1.776,0.588-3.455,1.403-5.135,2.204l-2.404,1.406c-0.203,0.111-0.388,0.242-0.588,0.373
							c-0.166,0.102-0.37,0.271-0.553,0.404c-0.371,0.285-0.764,0.558-1.116,0.854c-1.4,1.154-2.666,2.547-3.535,4.127
							c-0.878,1.59-1.279,3.359-1.06,5.189l-0.002,0.07c-0.006,0.621-0.105,1.26-0.039,1.865l0.052,0.966
							c0.032,0.312,0.093,0.609,0.138,0.915c0.065,0.607,0.264,1.21,0.412,1.812c0.195,0.592,0.399,1.185,0.66,1.75
							c0.271,0.562,0.535,1.127,0.883,1.646c0.305,0.546,0.703,1.028,1.075,1.527c0.404,0.472,0.815,0.944,1.271,1.366
							c0.459,0.423,0.92,0.841,1.435,1.192c0.485,0.394,1.038,0.683,1.566,1.011c0.554,0.278,1.106,0.569,1.688,0.784
							c0.583,0.216,1.166,0.433,1.775,0.561c0.596,0.179,1.215,0.243,1.828,0.337c0.602,0.072,1.271,0.085,1.826,0.097l0.964-0.073
							l0.482-0.035l0.12-0.01l0.061-0.005l0.03-0.002l0.015-0.001l0.008-0.001c-0.148,0.021-0.037,0.005-0.068,0.009l0.237-0.048
							c0.628-0.134,1.273-0.244,1.886-0.397l1.719-0.601l-0.314,0.312l0.59-1.145c0.239-0.369,0.476-0.766,0.738-1.113
							c0.527-0.692,1.102-1.351,1.748-1.925c0.314-0.297,0.643-0.577,0.989-0.833c0.335-0.272,0.688-0.517,1.05-0.75
							c0.715-0.478,1.467-0.893,2.241-1.257c0.771-0.37,1.565-0.688,2.378-0.952c0.401-0.146,0.812-0.26,1.225-0.367
							c0.41-0.119,0.823-0.219,1.242-0.297c0.831-0.187,1.676-0.304,2.521-0.394c0.854-0.095,1.678-0.119,2.562-0.138
							c0.827,0.021,1.656,0.041,2.523,0.137c0.855,0.088,1.693,0.207,2.524,0.404c0.833,0.17,1.653,0.408,2.459,0.683
							c0.809,0.271,1.599,0.597,2.365,0.968c0.77,0.372,1.515,0.793,2.226,1.27c0.709,0.479,1.394,1,2.016,1.593
							c0.318,0.289,0.625,0.591,0.903,0.921c0.299,0.311,0.559,0.656,0.811,1.007c0.516,0.693,0.922,1.463,1.276,2.251l-0.229-0.229
							c0.539,0.207,1.197,0.459,1.781,0.632l0.896,0.243l0.926,0.17c0.62,0.102,1.244,0.144,1.877,0.193
							c0.59-0.007,1.286-0.012,1.896-0.08c0.617-0.09,1.237-0.147,1.85-0.323c0.622-0.124,1.217-0.339,1.812-0.552
							c0.596-0.215,1.162-0.504,1.729-0.783c0.543-0.328,1.11-0.62,1.608-1.016c0.529-0.354,1.006-0.777,1.479-1.203
							c0.47-0.43,0.896-0.906,1.312-1.389c0.383-0.511,0.791-1.003,1.104-1.562c0.358-0.529,0.632-1.107,0.909-1.684
							c0.27-0.578,0.479-1.186,0.684-1.79c0.154-0.62,0.359-1.229,0.432-1.868c0.048-0.315,0.109-0.632,0.146-0.949l0.056-0.959
							c0.069-0.641-0.027-1.279-0.033-1.926v-0.006v-0.007L132.312,122.502z M132.436,122.498l-0.066,1.064v-0.012
							c0.017,0.641,0.124,1.288,0.064,1.938l-0.043,0.972c-0.029,0.322-0.089,0.642-0.132,0.963
							c-0.063,0.647-0.261,1.271-0.409,1.901c-0.197,0.617-0.4,1.236-0.666,1.828c-0.273,0.591-0.543,1.183-0.898,1.729
							c-0.312,0.573-0.721,1.082-1.104,1.608c-0.416,0.499-0.834,1.003-1.304,1.455c-0.474,0.449-0.946,0.897-1.479,1.277
							c-0.504,0.422-1.076,0.74-1.627,1.096c-0.578,0.306-1.156,0.621-1.767,0.861s-1.223,0.479-1.864,0.629
							c-0.625,0.198-1.287,0.284-1.943,0.396c-0.666,0.091-1.266,0.112-1.961,0.141c-0.651-0.03-1.318-0.057-1.973-0.144l-0.98-0.15
							l-0.979-0.234c-0.654-0.178-1.209-0.369-1.88-0.604l-0.143-0.051l-0.089-0.181c-0.352-0.711-0.74-1.406-1.237-2.032
							c-0.242-0.316-0.49-0.627-0.772-0.912c-0.263-0.302-0.552-0.576-0.854-0.841c-0.588-0.543-1.238-1.021-1.912-1.456
							c-0.675-0.438-1.385-0.821-2.116-1.16c-0.731-0.338-1.483-0.636-2.255-0.878c-0.768-0.246-1.551-0.46-2.346-0.607
							c-0.787-0.171-1.6-0.273-2.393-0.361c-0.783-0.09-1.613-0.112-2.447-0.133c-0.774,0.02-1.609,0.041-2.406,0.131
							c-0.805,0.086-1.607,0.194-2.396,0.373c-0.397,0.072-0.79,0.168-1.178,0.28c-0.391,0.103-0.78,0.209-1.159,0.347
							c-0.768,0.248-1.518,0.55-2.242,0.896c-0.728,0.342-1.433,0.73-2.098,1.176c-0.337,0.217-0.667,0.442-0.976,0.695
							c-0.322,0.236-0.625,0.495-0.914,0.77c-0.596,0.527-1.117,1.129-1.597,1.754c-0.235,0.312-0.425,0.635-0.64,0.957
							l-0.555,1.065l-0.129,0.25l-0.186,0.062l-1.939,0.656c-0.638,0.151-1.268,0.252-1.901,0.381l-0.237,0.047l-0.105,0.013
							l-0.029,0.002l-0.061,0.004l-0.121,0.008l-0.482,0.031l-0.965,0.063c-0.729-0.014-1.355-0.037-2.031-0.121
							c-0.66-0.104-1.326-0.185-1.967-0.381c-0.654-0.146-1.279-0.381-1.904-0.621c-0.623-0.237-1.216-0.554-1.807-0.859
							c-0.564-0.354-1.153-0.675-1.67-1.1c-0.549-0.385-1.039-0.836-1.525-1.293c-0.482-0.457-0.918-0.967-1.346-1.476
							c-0.394-0.537-0.812-1.058-1.133-1.644c-0.365-0.56-0.645-1.164-0.927-1.768c-0.272-0.605-0.484-1.24-0.688-1.872
							c-0.155-0.646-0.356-1.278-0.428-1.956c-0.046-0.332-0.107-0.672-0.139-0.998l-0.045-0.967
							c-0.063-0.682,0.043-1.331,0.059-1.998l-0.002,0.07c-0.223-1.916,0.241-3.982,1.208-5.665
							c0.962-1.709,2.288-3.142,3.794-4.365c0.37-0.306,0.754-0.566,1.131-0.853c0.199-0.142,0.355-0.275,0.589-0.423
							c0.194-0.125,0.396-0.265,0.605-0.379l2.478-1.425c1.722-0.806,3.44-1.622,5.246-2.206l1.339-0.48
							c0.448-0.151,0.91-0.261,1.364-0.393l2.738-0.753c1.856-0.359,3.692-0.837,5.572-1.052l2.809-0.394l2.829-0.235
							c1.888-0.212,3.765-0.148,5.646-0.219c1.899,0.02,3.778,0.092,5.663,0.2c1.877,0.204,3.767,0.284,5.625,0.626l2.794,0.439
							l2.766,0.605c0.926,0.179,1.832,0.44,2.735,0.711c0.9,0.28,1.822,0.488,2.705,0.823l2.652,0.981
							c0.877,0.348,1.718,0.784,2.577,1.172c0.873,0.364,1.66,0.884,2.478,1.353c0.812,0.469,1.636,0.947,2.367,1.542
							c1.504,1.129,2.92,2.418,3.978,3.994C131.739,118.734,132.438,120.609,132.436,122.498z"/>
					</g>
				</g>
				<path fill="#020202" stroke="#020200" stroke-width="1.7652" stroke-miterlimit="10" d="M75.241,135.447
					c-1.959,1.945-6.476,0.574-10.084-3.062c-3.604-3.635-4.942-8.159-2.982-10.104c1.962-1.945,6.476-0.575,10.083,3.061
					C75.866,128.979,77.201,133.504,75.241,135.447z"/>
				
					<ellipse transform="matrix(0.8587 0.5125 -0.5125 0.8587 82.8814 -43.8554)" fill="#020202" stroke="#020200" stroke-width="1.7652" stroke-miterlimit="10" cx="120.966" cy="128.366" rx="5" ry="9.275"/>
			</g>
		</g>
	</g>
	<line fill="#FFFFFF" stroke="#000000" stroke-miterlimit="10" x1="84.5" y1="132.5" x2="84.436" y2="141.291"/>
	
		<line fill="#FFFFFF" stroke="#000000" stroke-width="1.2062" stroke-miterlimit="10" x1="92.5" y1="130.5" x2="92.436" y2="143.291"/>
	
		<line fill="#FFFFFF" stroke="#000000" stroke-width="1.1678" stroke-miterlimit="10" x1="101.5" y1="130.5" x2="101.436" y2="142.489"/>
</g>
</svg>
