<?xml version="1.0" encoding="utf-8"?>
<!-- Generator: Adobe Illustrator 16.0.0, SVG Export Plug-In . SVG Version: 6.00 Build 0)  -->
<!DOCTYPE svg PUBLIC "-//W3C//DTD SVG 1.1//EN" "http://www.w3.org/Graphics/SVG/1.1/DTD/svg11.dtd">
<svg version="1.1" xmlns="http://www.w3.org/2000/svg" xmlns:xlink="http://www.w3.org/1999/xlink" x="0px" y="0px" width="200px"
	 height="225px" viewBox="0 0 200 225" enable-background="new 0 0 200 225" xml:space="preserve">
<g id="Ext">
</g>
<g id="Guides">
</g>
<g id="_x31_2_Col_Grid_1_" display="none" enable-background="new    ">
	<g id="Rectangle_xA0_Image_23_" display="inline" opacity="0.102">
	</g>
	<g id="Rectangle_xA0_Image_21_" display="inline" opacity="0.102">
	</g>
	<g id="Rectangle_xA0_Image_19_" display="inline" opacity="0.102">
	</g>
	<g id="Rectangle_xA0_Image_17_" display="inline" opacity="0.102">
	</g>
	<g id="Rectangle_xA0_Image_15_" display="inline" opacity="0.102">
	</g>
	<g id="Rectangle_xA0_Image_13_" display="inline" opacity="0.102">
	</g>
	<g id="Rectangle_xA0_Image_11_" display="inline" opacity="0.102">
	</g>
	<g id="Rectangle_xA0_Image_9_" display="inline" opacity="0.102">
	</g>
	<g id="Rectangle_xA0_Image_7_" display="inline" opacity="0.102">
	</g>
	<g id="Rectangle_xA0_Image_5_" display="inline" opacity="0.102">
	</g>
	<g id="Rectangle_xA0_Image_3_" display="inline" opacity="0.102">
	</g>
	<g id="Rectangle_xA0_Image_1_" display="inline" opacity="0.102">
	</g>
</g>
<g id="Bg">
</g>
<g id="main">
	<g id="Progress">
	</g>
	<g id="Text">
	</g>
</g>
<g id="pane">
</g>
<g id="browserhead">
	<g>
		<path fill="#422009" stroke="#422009" stroke-width="3" stroke-miterlimit="10" d="M104.259,70.953
			c6.104-8.296,21.058-24.495,32.964-14.593c3.596,2.992,5.864,8.285,8.183,12.429c1.261,2.253,2.562,4.084,2.976,6.844
			c0.716,4.761,1.068,19.415-3.276,21.974c-0.036,7.74-13.091,16.415-19.406,10.363c-1.958-1.874-2.216-4.645-4.698-6.458
			c-1.434-1.046-4.252-1.43-6.095-1.802c-4.304-0.87-10.77,0.854-14.496-1.806c-7.524-5.375,0.854-19.786,4.614-25.257
			c1.928-2.806,3.951-5.999,6.211-8.464c1.762-1.918,4.604-3.311,5.902-6.106"/>
		<ellipse fill="#705750" stroke="#000000" stroke-miterlimit="10" cx="127" cy="81" rx="16" ry="15"/>
		<path fill="#FCFCFC" stroke="#020200" stroke-width="1" stroke-miterlimit="10" d="M135.922,80c0.045,0.328,0.078,0.66,0.078,1
			c0,4.418-4.029,8-9,8c-4.969,0-9-3.582-9-8c0-0.34,0.031-0.672,0.078-1h-7.023c-0.023,0.332-0.055,0.662-0.055,1
			c0,8.284,7.164,15,16,15s16-6.716,16-15c0-0.338-0.031-0.668-0.053-1H135.922z"/>
		<path fill="#020200" stroke="#020200" stroke-width="0.5477" stroke-miterlimit="10" d="M118.078,80
			c-0.047,0.328-0.078,0.66-0.078,1c0,4.418,4.031,8,9,8c4.971,0,9-3.582,9-8c0-0.34-0.033-0.672-0.078-1H118.078z"/>
		<g>
			<ellipse fill="#705750" stroke="#000000" stroke-miterlimit="10" cx="66" cy="81" rx="16" ry="15"/>
			<path fill="#FCFCFC" stroke="#020200" stroke-width="1" stroke-miterlimit="10" d="M74.922,80C74.967,80.328,75,80.66,75,81
				c0,4.418-4.029,8-9,8c-4.969,0-9-3.582-9-8c0-0.34,0.031-0.672,0.078-1h-7.023C50.031,80.332,50,80.662,50,81
				c0,8.284,7.164,15,16,15s16-6.716,16-15c0-0.338-0.031-0.668-0.053-1H74.922z"/>
			<path stroke="#020200" stroke-width="0.5477" stroke-miterlimit="10" d="M57.078,80C57.031,80.328,57,80.66,57,81
				c0,4.418,4.031,8,9,8c4.971,0,9-3.582,9-8c0-0.34-0.033-0.672-0.078-1H57.078z"/>
		</g>
	</g>
	<g>
		<path fill="#CFEFFF" d="M70,106.177c0,3.514-1.119,6.363-2.5,6.363s-2.5-2.85-2.5-6.363s1.119-13.637,2.5-13.637
			S70,102.663,70,106.177z"/>
		<path d="M70,106.177c0,0-0.002,0.166-0.006,0.48c-0.006,0.312-0.029,0.773-0.089,1.355c-0.069,0.581-0.177,1.287-0.409,2.071
			c-0.115,0.392-0.262,0.804-0.477,1.211c-0.216,0.401-0.48,0.829-0.92,1.115c-0.432,0.317-1.113,0.206-1.504-0.199
			c-0.416-0.379-0.701-0.889-0.93-1.423c-0.447-1.078-0.691-2.293-0.795-3.555c-0.107-1.268-0.04-2.572,0.049-3.889
			c0.094-1.317,0.223-2.652,0.387-3.984c0.184-1.329,0.396-2.655,0.688-3.95c0.149-0.646,0.313-1.286,0.549-1.907
			c0.13-0.307,0.253-0.615,0.499-0.896c0.094-0.133,0.361-0.298,0.582-0.217c0.067,0.012,0.23,0.113,0.277,0.175
			c0.062,0.069,0.125,0.139,0.166,0.212c0.631,1.177,0.781,2.387,1.01,3.518c0.195,1.136,0.336,2.215,0.447,3.213
			c0.225,1.995,0.363,3.662,0.422,4.831C70.01,105.507,70,106.177,70,106.177z M70,106.177c0,0-0.02-2.684-0.58-6.656
			c-0.143-0.992-0.318-2.064-0.551-3.188c-0.252-1.1-0.479-2.348-1.076-3.37c-0.184-0.249-0.301-0.338-0.48-0.112
			c-0.17,0.205-0.291,0.504-0.398,0.793c-0.211,0.591-0.369,1.22-0.505,1.857c-0.272,1.279-0.464,2.6-0.632,3.921
			c-0.182,1.32-0.326,2.647-0.436,3.955c-0.096,1.309-0.203,2.597-0.141,3.835c0.059,1.237,0.26,2.437,0.66,3.497
			c0.203,0.524,0.465,1.024,0.84,1.388c0.354,0.383,0.93,0.497,1.346,0.224c0.418-0.251,0.699-0.661,0.912-1.058
			c0.218-0.398,0.369-0.807,0.488-1.193c0.241-0.777,0.357-1.48,0.434-2.06c0.068-0.581,0.097-1.04,0.105-1.353
			C69.996,106.343,70,106.177,70,106.177z"/>
	</g>
	<g>
		<path fill="#CFEFFF" d="M130,111.177c0,3.514-1.119,6.363-2.5,6.363s-2.5-2.85-2.5-6.363s1.119-13.637,2.5-13.637
			S130,107.663,130,111.177z"/>
		<path d="M130,111.177c0,0-0.002,0.166-0.006,0.48c-0.006,0.312-0.029,0.773-0.089,1.355c-0.069,0.581-0.177,1.287-0.409,2.071
			c-0.115,0.392-0.262,0.804-0.477,1.211c-0.216,0.401-0.48,0.829-0.92,1.115c-0.432,0.317-1.113,0.206-1.504-0.199
			c-0.416-0.379-0.701-0.889-0.93-1.423c-0.447-1.078-0.691-2.293-0.795-3.555c-0.107-1.268-0.04-2.572,0.049-3.889
			c0.094-1.317,0.223-2.652,0.387-3.984c0.184-1.329,0.396-2.655,0.688-3.95c0.149-0.646,0.313-1.286,0.549-1.907
			c0.13-0.307,0.253-0.615,0.499-0.896c0.094-0.133,0.361-0.298,0.582-0.217c0.067,0.012,0.23,0.113,0.277,0.175
			c0.062,0.069,0.125,0.139,0.166,0.212c0.631,1.177,0.781,2.387,1.01,3.518c0.195,1.136,0.336,2.215,0.447,3.213
			c0.225,1.995,0.363,3.662,0.422,4.831C130.01,110.507,130,111.177,130,111.177z M130,111.177c0,0-0.02-2.684-0.58-6.656
			c-0.143-0.992-0.318-2.064-0.551-3.188c-0.252-1.1-0.479-2.348-1.076-3.37c-0.184-0.249-0.301-0.338-0.48-0.112
			c-0.17,0.205-0.291,0.504-0.398,0.793c-0.211,0.591-0.369,1.22-0.505,1.857c-0.272,1.279-0.464,2.6-0.632,3.921
			c-0.182,1.32-0.326,2.647-0.436,3.955c-0.096,1.309-0.203,2.597-0.141,3.835c0.059,1.237,0.26,2.437,0.66,3.497
			c0.203,0.524,0.465,1.024,0.84,1.388c0.354,0.383,0.93,0.497,1.346,0.224c0.418-0.251,0.699-0.661,0.912-1.058
			c0.218-0.398,0.369-0.807,0.488-1.193c0.241-0.777,0.357-1.48,0.434-2.06c0.068-0.581,0.097-1.04,0.105-1.353
			C129.996,111.343,130,111.177,130,111.177z"/>
	</g>
	<g>
		<path fill="#CFEFFF" d="M130,139.177c0,3.514-1.119,6.363-2.5,6.363s-2.5-2.85-2.5-6.363s1.119-13.637,2.5-13.637
			S130,135.663,130,139.177z"/>
		<path d="M130,139.177c0,0-0.002,0.166-0.006,0.48c-0.006,0.312-0.029,0.773-0.089,1.355c-0.069,0.581-0.177,1.287-0.409,2.071
			c-0.115,0.392-0.262,0.804-0.477,1.211c-0.216,0.401-0.48,0.829-0.92,1.115c-0.432,0.317-1.113,0.206-1.504-0.199
			c-0.416-0.379-0.701-0.889-0.93-1.423c-0.447-1.078-0.691-2.293-0.795-3.555c-0.107-1.268-0.04-2.572,0.049-3.889
			c0.094-1.317,0.223-2.652,0.387-3.984c0.184-1.329,0.396-2.655,0.688-3.95c0.149-0.646,0.313-1.286,0.549-1.907
			c0.13-0.307,0.253-0.615,0.499-0.896c0.094-0.133,0.361-0.298,0.582-0.217c0.067,0.012,0.23,0.113,0.277,0.175
			c0.062,0.069,0.125,0.139,0.166,0.212c0.631,1.177,0.781,2.387,1.01,3.518c0.195,1.136,0.336,2.215,0.447,3.213
			c0.225,1.995,0.363,3.662,0.422,4.831C130.01,138.507,130,139.177,130,139.177z M130,139.177c0,0-0.02-2.684-0.58-6.656
			c-0.143-0.992-0.318-2.064-0.551-3.188c-0.252-1.1-0.479-2.348-1.076-3.37c-0.184-0.249-0.301-0.338-0.48-0.112
			c-0.17,0.205-0.291,0.504-0.398,0.793c-0.211,0.591-0.369,1.22-0.505,1.857c-0.272,1.279-0.464,2.6-0.632,3.921
			c-0.182,1.32-0.326,2.647-0.436,3.955c-0.096,1.309-0.203,2.597-0.141,3.835c0.059,1.237,0.26,2.437,0.66,3.497
			c0.203,0.524,0.465,1.024,0.84,1.388c0.354,0.383,0.93,0.497,1.346,0.224c0.418-0.251,0.699-0.661,0.912-1.058
			c0.218-0.398,0.369-0.807,0.488-1.193c0.241-0.777,0.357-1.48,0.434-2.06c0.068-0.581,0.097-1.04,0.105-1.353
			C129.996,139.343,130,139.177,130,139.177z"/>
	</g>
	<g>
		<path fill="#CFEFFF" d="M70,131.177c0,3.514-1.119,6.363-2.5,6.363s-2.5-2.85-2.5-6.363s1.119-13.637,2.5-13.637
			S70,127.663,70,131.177z"/>
		<path d="M70,131.177c0,0-0.002,0.166-0.006,0.48c-0.006,0.312-0.029,0.773-0.089,1.355c-0.069,0.581-0.177,1.287-0.409,2.071
			c-0.115,0.392-0.262,0.804-0.477,1.211c-0.216,0.401-0.48,0.829-0.92,1.115c-0.432,0.317-1.113,0.206-1.504-0.199
			c-0.416-0.379-0.701-0.889-0.93-1.423c-0.447-1.078-0.691-2.293-0.795-3.555c-0.107-1.268-0.04-2.572,0.049-3.889
			c0.094-1.317,0.223-2.652,0.387-3.984c0.184-1.329,0.396-2.655,0.688-3.95c0.149-0.646,0.313-1.286,0.549-1.907
			c0.13-0.307,0.253-0.615,0.499-0.896c0.094-0.133,0.361-0.298,0.582-0.217c0.067,0.012,0.23,0.113,0.277,0.175
			c0.062,0.069,0.125,0.139,0.166,0.212c0.631,1.177,0.781,2.387,1.01,3.518c0.195,1.136,0.336,2.215,0.447,3.213
			c0.225,1.995,0.363,3.662,0.422,4.831C70.01,130.507,70,131.177,70,131.177z M70,131.177c0,0-0.02-2.684-0.58-6.656
			c-0.143-0.992-0.318-2.064-0.551-3.188c-0.252-1.1-0.479-2.348-1.076-3.37c-0.184-0.249-0.301-0.338-0.48-0.112
			c-0.17,0.205-0.291,0.504-0.398,0.793c-0.211,0.591-0.369,1.22-0.505,1.857c-0.272,1.279-0.464,2.6-0.632,3.921
			c-0.182,1.32-0.326,2.647-0.436,3.955c-0.096,1.309-0.203,2.597-0.141,3.835c0.059,1.237,0.26,2.437,0.66,3.497
			c0.203,0.524,0.465,1.024,0.84,1.388c0.354,0.383,0.93,0.497,1.346,0.224c0.418-0.251,0.699-0.661,0.912-1.058
			c0.218-0.398,0.369-0.807,0.488-1.193c0.241-0.777,0.357-1.48,0.434-2.06c0.068-0.581,0.097-1.04,0.105-1.353
			C69.996,131.343,70,131.177,70,131.177z"/>
	</g>
</g>
</svg>
