<?xml version="1.0" encoding="utf-8"?>
<!-- Generator: Adobe Illustrator 16.0.0, SVG Export Plug-In . SVG Version: 6.00 Build 0)  -->
<!DOCTYPE svg PUBLIC "-//W3C//DTD SVG 1.1//EN" "http://www.w3.org/Graphics/SVG/1.1/DTD/svg11.dtd">
<svg version="1.1" xmlns="http://www.w3.org/2000/svg" xmlns:xlink="http://www.w3.org/1999/xlink" x="0px" y="0px" width="200px"
	 height="225px" viewBox="0 0 200 225" enable-background="new 0 0 200 225" xml:space="preserve">
<g id="Ext">
</g>
<g id="Guides">
</g>
<g id="_x31_2_Col_Grid_1_" display="none" enable-background="new    ">
	<g id="Rectangle_xA0_Image_23_" display="inline" opacity="0.102">
	</g>
	<g id="Rectangle_xA0_Image_21_" display="inline" opacity="0.102">
	</g>
	<g id="Rectangle_xA0_Image_19_" display="inline" opacity="0.102">
	</g>
	<g id="Rectangle_xA0_Image_17_" display="inline" opacity="0.102">
	</g>
	<g id="Rectangle_xA0_Image_15_" display="inline" opacity="0.102">
	</g>
	<g id="Rectangle_xA0_Image_13_" display="inline" opacity="0.102">
	</g>
	<g id="Rectangle_xA0_Image_11_" display="inline" opacity="0.102">
	</g>
	<g id="Rectangle_xA0_Image_9_" display="inline" opacity="0.102">
	</g>
	<g id="Rectangle_xA0_Image_7_" display="inline" opacity="0.102">
	</g>
	<g id="Rectangle_xA0_Image_5_" display="inline" opacity="0.102">
	</g>
	<g id="Rectangle_xA0_Image_3_" display="inline" opacity="0.102">
	</g>
	<g id="Rectangle_xA0_Image_1_" display="inline" opacity="0.102">
	</g>
</g>
<g id="Bg">
</g>
<g id="main">
	<g id="Progress">
	</g>
	<g id="Text">
	</g>
</g>
<g id="pane">
</g>
<g id="browserhead">
	<g>
		<ellipse fill="#FFFFFF" cx="96.866" cy="137.718" rx="18.605" ry="9.139"/>
		<g>
			<g>
				<path fill="none" d="M112.035,138.969c-0.146-0.057-0.296-0.102-0.438-0.162c-2.205-5.1-8.855-8.807-16.72-8.807
					c-7.754,0-14.321,3.605-16.616,8.595c4.877,2.907,10.803,4.629,17.211,4.629C101.599,143.224,107.282,141.648,112.035,138.969z"
					/>
				<g>
					<path fill="#F9DEFC" d="M95.472,143.224c-6.408,0-12.334-1.722-17.211-4.629c-0.033,0.071-0.074,0.14-0.105,0.212
						c-1.247,0.524-2.577,0.888-3.966,1.065c-1.376,1.468-2.632,3.062-3.718,4.792c5.396,6.851,14.574,11.362,25,11.362
						c10.42,0,19.6-4.514,25-11.364c-1.064-1.691-2.29-3.25-3.629-4.69c-1.692-0.063-3.305-0.42-4.808-1.003
						C107.282,141.648,101.599,143.224,95.472,143.224z"/>
					<path fill="#020200" d="M95.47,143.303l-2.254-0.076c-0.75-0.058-1.5-0.146-2.25-0.218c-0.376-0.035-0.744-0.118-1.117-0.174
						l-1.113-0.188c-0.373-0.053-0.734-0.169-1.104-0.242l-1.103-0.248c-0.37-0.072-0.726-0.204-1.089-0.304l-1.084-0.321
						c-0.365-0.101-0.711-0.254-1.066-0.378l-1.062-0.395c-0.354-0.131-0.691-0.303-1.039-0.449l-1.037-0.46
						c-0.676-0.339-1.34-0.701-2.012-1.052l0.336-0.104l-0.1,0.208l-0.045,0.097l-0.082,0.03l-1.969,0.713l-2.051,0.438l0.186-0.096
						l-1.922,2.312l-1.688,2.479l-0.023-0.454c0.795,0.853,1.547,1.745,2.372,2.562c0.897,0.742,1.733,1.562,2.678,2.24l1.447,0.979
						c0.486,0.319,0.946,0.68,1.479,0.924l1.547,0.81c0.518,0.267,1.021,0.561,1.576,0.746l1.627,0.633
						c0.544,0.206,1.076,0.447,1.646,0.57c1.131,0.277,2.236,0.656,3.383,0.852c1.151,0.163,2.295,0.388,3.45,0.502l3.483,0.158
						l3.507-0.228c1.157-0.138,2.271-0.384,3.405-0.565c1.127-0.216,2.229-0.615,3.342-0.911c0.565-0.134,1.09-0.385,1.625-0.6
						l1.603-0.658c0.547-0.191,1.042-0.491,1.55-0.764l1.521-0.823c1.014-0.548,1.9-1.296,2.868-1.917
						c0.931-0.673,1.75-1.485,2.634-2.22c0.812-0.81,1.546-1.694,2.331-2.533l-0.049,0.903l-1.626-2.394l-1.835-2.254l0.471,0.215
						l-1.283-0.133l-1.262-0.25l-1.232-0.354l-1.195-0.451l0.448-0.032c-0.662,0.315-1.317,0.641-1.981,0.944
						c-0.68,0.269-1.351,0.558-2.035,0.809l-1.037,0.345c-0.348,0.108-0.687,0.242-1.041,0.329l-1.055,0.275
						c-0.354,0.085-0.698,0.199-1.057,0.261l-1.068,0.208c-0.356,0.065-0.707,0.16-1.067,0.203
						c-0.718,0.095-1.433,0.212-2.151,0.286c-0.723,0.052-1.441,0.128-2.162,0.172L95.47,143.303z M95.474,143.145l2.151-0.095
						c0.716-0.064,1.429-0.148,2.142-0.229c0.709-0.105,1.412-0.254,2.117-0.378c0.354-0.059,0.697-0.167,1.046-0.248l1.038-0.272
						c0.348-0.082,0.682-0.218,1.023-0.323l1.016-0.338c0.341-0.107,0.665-0.261,0.998-0.389l0.99-0.401
						c0.65-0.289,1.285-0.613,1.926-0.918c0.625-0.339,1.238-0.697,1.855-1.043l0.195-0.108l0.254,0.077l1.139,0.345l1.158,0.251
						l1.17,0.155l1.176,0.064l0.293,0.017l0.178,0.199l2.013,2.268l1.784,2.466l0.34,0.472l-0.389,0.432
						c-0.812,0.904-1.593,1.846-2.445,2.712c-0.924,0.788-1.79,1.653-2.767,2.375l-1.503,1.031c-0.507,0.334-0.988,0.71-1.541,0.967
						l-1.609,0.848c-0.538,0.278-1.064,0.585-1.639,0.78l-1.693,0.657c-0.566,0.213-1.121,0.461-1.714,0.591
						c-1.176,0.288-2.319,0.674-3.519,0.879c-1.203,0.171-2.414,0.401-3.606,0.516l-3.579,0.154l-3.604-0.224
						c-1.193-0.138-2.373-0.388-3.56-0.578c-1.181-0.223-2.32-0.631-3.48-0.938c-0.586-0.139-1.134-0.396-1.691-0.618l-1.669-0.682
						c-0.566-0.202-1.084-0.513-1.613-0.797l-1.582-0.862c-0.543-0.261-1.016-0.641-1.512-0.978l-1.475-1.034
						c-0.963-0.716-1.812-1.575-2.723-2.356c-0.838-0.857-1.6-1.791-2.401-2.683l-0.195-0.217l0.171-0.237l1.8-2.492l2.026-2.302
						l0.064-0.073l0.122-0.022l1.985-0.361l1.926-0.619l-0.127,0.127l0.111-0.216l0.118-0.228l0.218,0.124
						c0.648,0.368,1.29,0.75,1.945,1.109c0.673,0.321,1.336,0.67,2.021,0.969l1.041,0.418c0.35,0.132,0.689,0.294,1.048,0.402
						l1.067,0.348c0.359,0.107,0.709,0.249,1.074,0.33l1.09,0.275c0.365,0.086,0.726,0.193,1.097,0.248l1.108,0.188
						c0.371,0.056,0.738,0.139,1.111,0.173c0.745,0.072,1.488,0.159,2.236,0.218L95.474,143.145z"/>
				</g>
				<g>
					<path fill="#F9DEFC" d="M132.374,122.5c0-3.634-2.372-7.008-6.435-9.805c-0.168-0.117-0.34-0.227-0.515-0.337
						c-6.798-4.452-17.942-7.358-30.551-7.358c-12.602,0-23.742,2.904-30.542,7.353c-0.177,0.113-0.356,0.226-0.528,0.347
						c-4.058,2.796-6.43,6.169-6.43,9.801c0,0.353,0.031,0.703,0.073,1.051c-0.045,0.478-0.073,0.96-0.073,1.449
						c0,8.284,6.717,15,15,15c0.617,0,1.221-0.052,1.815-0.128c1.389-0.178,2.719-0.541,3.966-1.065
						c0.031-0.072,0.072-0.141,0.105-0.212c2.295-4.989,8.862-8.595,16.616-8.595c7.864,0,14.515,3.707,16.72,8.807
						c0.143,0.061,0.293,0.105,0.438,0.162c1.503,0.583,3.115,0.939,4.808,1.003c0.178,0.007,0.352,0.028,0.531,0.028
						c8.283,0,15-6.716,15-15c0-0.488-0.027-0.969-0.073-1.445C132.346,123.206,132.374,122.854,132.374,122.5z"/>
					<path fill="#020200" d="M132.313,122.502c0.002-1.898-0.683-3.698-1.733-5.251c-1.046-1.56-2.454-2.842-3.95-3.966
						c-0.732-0.593-1.539-1.064-2.363-1.521c-0.82-0.459-1.615-0.971-2.488-1.32c-0.859-0.375-1.697-0.798-2.572-1.134l-2.652-0.945
						c-0.881-0.323-1.803-0.52-2.703-0.784c-0.902-0.257-1.808-0.504-2.733-0.668l-2.758-0.563l-2.786-0.396
						c-1.852-0.313-3.734-0.366-5.6-0.542c-1.871-0.08-3.757-0.125-5.617-0.117l-2.82,0.101l-1.41,0.053l-1.396,0.128l-2.793,0.253
						l-2.779,0.411c-1.861,0.226-3.674,0.713-5.508,1.082l-2.697,0.763c-0.448,0.135-0.903,0.245-1.344,0.398l-1.314,0.482
						c-1.776,0.588-3.455,1.403-5.135,2.204l-2.404,1.406c-0.203,0.111-0.388,0.242-0.588,0.373
						c-0.166,0.102-0.37,0.271-0.553,0.404c-0.371,0.285-0.764,0.558-1.116,0.854c-1.4,1.155-2.666,2.547-3.535,4.127
						c-0.878,1.59-1.279,3.36-1.06,5.19l-0.002,0.07c-0.006,0.621-0.105,1.259-0.039,1.865l0.052,0.966
						c0.032,0.312,0.093,0.609,0.138,0.915c0.065,0.607,0.264,1.21,0.412,1.813c0.195,0.591,0.399,1.184,0.66,1.749
						c0.271,0.562,0.535,1.127,0.883,1.646c0.305,0.546,0.703,1.028,1.075,1.527c0.404,0.472,0.815,0.944,1.271,1.367
						c0.459,0.422,0.92,0.84,1.435,1.192c0.485,0.393,1.038,0.683,1.566,1.01c0.554,0.279,1.106,0.57,1.688,0.785
						c0.583,0.216,1.166,0.432,1.775,0.56c0.596,0.179,1.215,0.243,1.828,0.337c0.602,0.073,1.271,0.085,1.826,0.097l0.964-0.073
						l0.482-0.036l0.12-0.009l0.061-0.005l0.03-0.002l0.015-0.001l0.008-0.001c-0.148,0.02-0.037,0.005-0.068,0.009l0.237-0.048
						c0.628-0.134,1.273-0.244,1.886-0.397l1.719-0.601l-0.314,0.312l0.59-1.145c0.239-0.37,0.476-0.766,0.738-1.114
						c0.527-0.692,1.102-1.35,1.748-1.924c0.314-0.297,0.643-0.578,0.989-0.833c0.335-0.273,0.688-0.517,1.05-0.75
						c0.715-0.478,1.467-0.893,2.241-1.257c0.771-0.37,1.565-0.689,2.378-0.952c0.401-0.146,0.812-0.26,1.225-0.367
						c0.41-0.119,0.823-0.219,1.242-0.297c0.831-0.187,1.676-0.304,2.521-0.394c0.854-0.094,1.678-0.119,2.562-0.137
						c0.827,0.02,1.656,0.04,2.523,0.136c0.855,0.088,1.693,0.207,2.524,0.404c0.833,0.17,1.653,0.408,2.46,0.683
						c0.808,0.27,1.598,0.597,2.365,0.968c0.769,0.372,1.514,0.793,2.225,1.27c0.709,0.478,1.394,0.999,2.016,1.592
						c0.318,0.289,0.625,0.591,0.903,0.921c0.299,0.311,0.558,0.656,0.81,1.007c0.516,0.693,0.922,1.463,1.277,2.251l-0.23-0.229
						c0.539,0.207,1.198,0.459,1.782,0.632l0.896,0.243l0.926,0.17c0.62,0.102,1.244,0.144,1.877,0.194
						c0.59-0.007,1.286-0.012,1.896-0.081c0.617-0.089,1.238-0.147,1.85-0.323c0.622-0.124,1.217-0.338,1.813-0.552
						c0.595-0.214,1.162-0.504,1.729-0.783c0.543-0.328,1.11-0.62,1.609-1.016c0.529-0.354,1.005-0.777,1.479-1.203
						c0.469-0.429,0.896-0.906,1.312-1.388c0.382-0.511,0.791-1.003,1.104-1.562c0.358-0.53,0.632-1.108,0.909-1.684
						c0.27-0.578,0.479-1.186,0.684-1.79c0.154-0.62,0.359-1.23,0.432-1.868c0.047-0.316,0.109-0.632,0.145-0.95l0.055-0.959
						c0.07-0.64-0.027-1.279-0.033-1.926v-0.005v-0.007L132.313,122.502z M132.435,122.498l-0.066,1.065v-0.012
						c0.017,0.641,0.124,1.288,0.064,1.937l-0.043,0.972c-0.029,0.322-0.088,0.642-0.131,0.963c-0.064,0.648-0.261,1.27-0.409,1.901
						c-0.197,0.617-0.401,1.237-0.666,1.829c-0.274,0.59-0.544,1.182-0.899,1.729c-0.312,0.573-0.721,1.082-1.104,1.608
						c-0.416,0.499-0.834,1.003-1.303,1.455c-0.473,0.45-0.947,0.898-1.48,1.278c-0.503,0.422-1.076,0.74-1.627,1.095
						c-0.577,0.306-1.156,0.622-1.766,0.862c-0.61,0.24-1.223,0.479-1.864,0.628c-0.626,0.199-1.288,0.285-1.944,0.396
						c-0.666,0.091-1.266,0.113-1.961,0.141c-0.651-0.031-1.318-0.057-1.973-0.144l-0.98-0.15l-0.979-0.234
						c-0.654-0.178-1.208-0.37-1.879-0.605l-0.143-0.051l-0.088-0.18c-0.352-0.712-0.741-1.407-1.238-2.033
						c-0.242-0.316-0.49-0.627-0.772-0.912c-0.263-0.301-0.552-0.576-0.854-0.841c-0.588-0.542-1.238-1.02-1.912-1.456
						c-0.675-0.437-1.385-0.821-2.116-1.16c-0.731-0.338-1.483-0.635-2.255-0.878c-0.768-0.246-1.551-0.46-2.346-0.607
						c-0.787-0.171-1.6-0.274-2.393-0.361c-0.783-0.09-1.613-0.113-2.447-0.133c-0.774,0.019-1.609,0.041-2.406,0.13
						c-0.805,0.086-1.607,0.195-2.396,0.373c-0.397,0.073-0.79,0.168-1.178,0.281c-0.391,0.102-0.78,0.209-1.159,0.347
						c-0.768,0.247-1.518,0.549-2.242,0.896c-0.728,0.342-1.433,0.73-2.098,1.176c-0.337,0.217-0.667,0.442-0.976,0.695
						c-0.322,0.236-0.625,0.495-0.914,0.769c-0.596,0.528-1.117,1.129-1.597,1.754c-0.235,0.313-0.425,0.635-0.64,0.957
						l-0.555,1.066l-0.129,0.25l-0.186,0.062l-1.939,0.655c-0.638,0.152-1.268,0.253-1.901,0.382l-0.237,0.046l-0.105,0.013
						l-0.029,0.002l-0.061,0.004l-0.121,0.008l-0.482,0.031l-0.965,0.063c-0.729-0.013-1.355-0.036-2.031-0.12
						c-0.66-0.105-1.326-0.185-1.967-0.382c-0.654-0.145-1.279-0.381-1.904-0.62c-0.623-0.238-1.216-0.554-1.807-0.86
						c-0.564-0.354-1.153-0.675-1.67-1.1c-0.549-0.384-1.039-0.835-1.525-1.292c-0.482-0.457-0.918-0.967-1.346-1.476
						c-0.394-0.537-0.812-1.058-1.133-1.643c-0.365-0.56-0.645-1.164-0.927-1.768c-0.272-0.605-0.484-1.24-0.688-1.872
						c-0.155-0.647-0.356-1.278-0.428-1.957c-0.046-0.332-0.107-0.671-0.139-0.998l-0.045-0.966
						c-0.063-0.682,0.043-1.331,0.059-1.998l-0.002,0.07c-0.223-1.916,0.241-3.982,1.208-5.665c0.962-1.709,2.288-3.142,3.794-4.365
						c0.37-0.306,0.754-0.566,1.131-0.853c0.199-0.142,0.355-0.275,0.589-0.423c0.194-0.125,0.396-0.265,0.605-0.379l2.478-1.425
						c1.722-0.806,3.44-1.622,5.246-2.206l1.339-0.48c0.448-0.151,0.91-0.261,1.364-0.393l2.738-0.753
						c1.856-0.359,3.692-0.837,5.572-1.052l2.809-0.394l2.829-0.235c1.888-0.212,3.765-0.148,5.646-0.219
						c1.899,0.02,3.778,0.092,5.663,0.2c1.877,0.204,3.766,0.284,5.625,0.626l2.794,0.439l2.765,0.605
						c0.926,0.179,1.832,0.44,2.736,0.711c0.9,0.28,1.822,0.488,2.705,0.823l2.652,0.981c0.877,0.348,1.718,0.784,2.577,1.172
						c0.874,0.364,1.661,0.884,2.478,1.353c0.812,0.469,1.635,0.947,2.367,1.541c1.504,1.129,2.92,2.419,3.978,3.994
						C131.739,118.734,132.438,120.61,132.435,122.498z"/>
				</g>
			</g>
			<path fill="#020202" stroke="#020200" stroke-width="1.7652" stroke-miterlimit="10" d="M75.241,135.447
				c-1.959,1.945-6.476,0.574-10.084-3.061c-3.604-3.635-4.942-8.16-2.982-10.105c1.962-1.945,6.476-0.575,10.083,3.061
				C75.866,128.978,77.201,133.504,75.241,135.447z"/>
			
				<ellipse transform="matrix(-0.5125 0.8587 -0.8587 -0.5125 293.1925 90.2788)" fill="#020202" stroke="#020200" stroke-width="1.7652" stroke-miterlimit="10" cx="120.969" cy="128.368" rx="9.274" ry="5"/>
		</g>
	</g>
</g>
</svg>
