<?xml version="1.0" encoding="utf-8"?>
<!-- Generator: Adobe Illustrator 16.0.0, SVG Export Plug-In . SVG Version: 6.00 Build 0)  -->
<!DOCTYPE svg PUBLIC "-//W3C//DTD SVG 1.1//EN" "http://www.w3.org/Graphics/SVG/1.1/DTD/svg11.dtd">
<svg version="1.1" xmlns="http://www.w3.org/2000/svg" xmlns:xlink="http://www.w3.org/1999/xlink" x="0px" y="0px" width="200px"
	 height="225px" viewBox="0 0 200 225" enable-background="new 0 0 200 225" xml:space="preserve">
<g id="Ext">
</g>
<g id="Guides">
</g>
<g id="_x31_2_Col_Grid_1_" display="none" enable-background="new    ">
	<g id="Rectangle_xA0_Image_23_" display="inline" opacity="0.102">
	</g>
	<g id="Rectangle_xA0_Image_21_" display="inline" opacity="0.102">
	</g>
	<g id="Rectangle_xA0_Image_19_" display="inline" opacity="0.102">
	</g>
	<g id="Rectangle_xA0_Image_17_" display="inline" opacity="0.102">
	</g>
	<g id="Rectangle_xA0_Image_15_" display="inline" opacity="0.102">
	</g>
	<g id="Rectangle_xA0_Image_13_" display="inline" opacity="0.102">
	</g>
	<g id="Rectangle_xA0_Image_11_" display="inline" opacity="0.102">
	</g>
	<g id="Rectangle_xA0_Image_9_" display="inline" opacity="0.102">
	</g>
	<g id="Rectangle_xA0_Image_7_" display="inline" opacity="0.102">
	</g>
	<g id="Rectangle_xA0_Image_5_" display="inline" opacity="0.102">
	</g>
	<g id="Rectangle_xA0_Image_3_" display="inline" opacity="0.102">
	</g>
	<g id="Rectangle_xA0_Image_1_" display="inline" opacity="0.102">
	</g>
</g>
<g id="Bg">
</g>
<g id="main">
	<g id="Progress">
	</g>
	<g id="Text">
	</g>
</g>
<g id="pane">
</g>
<g id="browserhead">
	<g>
		<g>
			<path fill="#231105" d="M73.241,24.335c0.266,1.163,0.135,2.239-0.389,3.229c-6.269-1.108-7.752,0.167-12.812-3.679
				c-4.054-3.081-7.192-6.966-8.688-11.2c-0.006,5.699-0.094,9.141,3.108,13.68c2.491,3.53,5.903,7.354,10.089,8.637
				c3.025-2.057,6.074-6.169,8.261-8.521"/>
			<path fill="#473733" d="M73.314,24.324l0.133,0.819c0.01,0.281-0.002,0.568-0.004,0.854c-0.043,0.279-0.106,0.556-0.16,0.835
				l-0.316,0.791l-0.033,0.081L72.83,27.69l-1.727-0.228c-0.573-0.088-1.156-0.109-1.732-0.167
				c-1.157-0.094-2.324-0.156-3.498-0.322c-0.574-0.146-1.18-0.193-1.731-0.434l-0.845-0.306c-0.279-0.107-0.53-0.268-0.797-0.398
				l-0.791-0.417c-0.258-0.146-0.494-0.324-0.742-0.484c-0.484-0.341-0.993-0.635-1.458-1.017c-0.926-0.694-1.819-1.472-2.691-2.283
				l-1.245-1.263l-1.16-1.345l-1.066-1.425l-0.961-1.504l-0.839-1.581l-0.698-1.654l1.041-0.178
				c0.013,1.158,0.026,2.316,0.068,3.462c0.006,0.577,0.074,1.138,0.109,1.707c0.025,0.571,0.149,1.116,0.218,1.675
				c0.073,0.558,0.253,1.084,0.37,1.626c0.148,0.534,0.375,1.041,0.557,1.562c0.223,0.505,0.498,0.989,0.742,1.484
				c0.273,0.481,0.606,0.937,0.9,1.409c0.269,0.446,0.673,0.924,1.002,1.384c0.346,0.469,0.713,0.879,1.062,1.325
				c0.35,0.441,0.738,0.854,1.105,1.283c0.376,0.423,0.789,0.804,1.18,1.208c0.4,0.395,0.844,0.734,1.253,1.117
				c0.425,0.362,0.888,0.668,1.329,1.007c0.46,0.309,0.95,0.561,1.425,0.847c0.497,0.231,1.011,0.425,1.517,0.644l-0.516,0.078
				c0.384-0.281,0.773-0.553,1.155-0.841l1.115-0.93c0.724-0.654,1.433-1.332,2.119-2.04l2.056-2.142
				c0.686-0.718,1.377-1.437,2.101-2.12l0.107,0.1c-1.237,1.548-2.39,3.164-3.673,4.694c-0.638,0.769-1.305,1.518-1.998,2.252
				l-1.098,1.058c-0.395,0.327-0.804,0.643-1.207,0.965l-0.23,0.184l-0.285-0.105c-0.57-0.211-1.154-0.403-1.717-0.638
				c-0.533-0.285-1.09-0.544-1.606-0.857c-0.495-0.342-1.018-0.656-1.492-1.025c-0.462-0.381-0.94-0.752-1.372-1.164
				c-0.422-0.422-0.867-0.825-1.268-1.265c-0.394-0.446-0.806-0.873-1.184-1.336c-0.365-0.466-0.754-0.938-1.091-1.407
				c-0.337-0.488-0.683-0.902-1.011-1.451c-0.312-0.516-0.652-1.012-0.932-1.547c-0.254-0.551-0.535-1.089-0.762-1.65
				c-0.185-0.579-0.412-1.146-0.557-1.733c-0.113-0.593-0.285-1.18-0.346-1.775c-0.057-0.594-0.168-1.19-0.176-1.78
				c-0.018-0.59-0.07-1.185-0.062-1.768c-0.014-1.174,0.002-2.335,0.018-3.495l0.038-2.728l1.003,2.549l0.623,1.581l0.761,1.524
				l0.884,1.463l0.993,1.397l1.09,1.328l1.178,1.256l1.245,1.178c0.422,0.389,0.891,0.746,1.331,1.124
				c0.425,0.374,0.919,0.682,1.375,1.026c0.235,0.164,0.461,0.347,0.704,0.495l0.742,0.422c0.25,0.134,0.488,0.299,0.75,0.408
				l0.788,0.314c0.515,0.248,1.091,0.309,1.638,0.469c1.127,0.198,2.287,0.3,3.447,0.432c0.58,0.078,1.162,0.119,1.738,0.227
				l1.73,0.286l-0.137,0.066l0.325-0.739c0.059-0.263,0.128-0.524,0.18-0.789c0.009-0.268,0.03-0.535,0.031-0.806l-0.106-0.823
				L73.314,24.324z"/>
		</g>
		<g>
			<path fill="#231105" d="M123.507,24.335c-0.266,1.163-0.135,2.239,0.39,3.229c6.27-1.108,7.752,0.167,12.812-3.679
				c4.054-3.081,7.192-6.966,8.688-11.2c0.006,5.699,0.095,9.141-3.109,13.68c-2.49,3.53-5.902,7.354-10.088,8.637
				c-3.025-2.057-6.075-6.169-8.261-8.521"/>
			<path fill="#473733" d="M123.58,24.346l-0.106,0.823c0.001,0.271,0.022,0.538,0.031,0.806c0.052,0.265,0.122,0.526,0.181,0.789
				l0.324,0.739l-0.136-0.066l1.729-0.286c0.576-0.107,1.159-0.148,1.738-0.227c1.162-0.132,2.32-0.233,3.449-0.432
				c0.546-0.16,1.122-0.221,1.637-0.469l0.789-0.314c0.261-0.109,0.499-0.274,0.75-0.408l0.742-0.422
				c0.242-0.148,0.469-0.331,0.703-0.495c0.457-0.345,0.951-0.652,1.375-1.026c0.44-0.378,0.909-0.735,1.331-1.124l1.245-1.178
				l1.178-1.256l1.09-1.328l0.993-1.397l0.884-1.463l0.762-1.524l0.621-1.581l1.004-2.549l0.038,2.728
				c0.017,1.16,0.031,2.321,0.018,3.495c0.008,0.583-0.044,1.178-0.062,1.768c-0.008,0.59-0.119,1.187-0.175,1.78
				c-0.061,0.596-0.233,1.183-0.348,1.775c-0.143,0.588-0.371,1.154-0.557,1.733c-0.226,0.562-0.508,1.1-0.762,1.65
				c-0.279,0.535-0.619,1.031-0.932,1.546c-0.328,0.549-0.674,0.964-1.01,1.452c-0.337,0.47-0.725,0.941-1.092,1.407
				c-0.377,0.463-0.789,0.89-1.183,1.336c-0.401,0.439-0.847,0.843-1.267,1.265c-0.432,0.412-0.91,0.783-1.373,1.164
				c-0.475,0.369-0.996,0.684-1.492,1.025c-0.518,0.313-1.072,0.572-1.606,0.857c-0.563,0.234-1.146,0.427-1.717,0.638l-0.286,0.105
				l-0.229-0.184c-0.403-0.322-0.813-0.638-1.208-0.965l-1.097-1.058c-0.692-0.734-1.36-1.483-1.998-2.252
				c-1.283-1.53-2.436-3.146-3.673-4.694l0.107-0.1c0.724,0.685,1.415,1.402,2.1,2.12l2.057,2.143
				c0.688,0.707,1.396,1.385,2.119,2.039l1.115,0.93c0.382,0.288,0.771,0.56,1.154,0.841l-0.514-0.078
				c0.506-0.219,1.019-0.412,1.516-0.644c0.475-0.286,0.965-0.538,1.424-0.847c0.443-0.339,0.906-0.645,1.33-1.007
				c0.41-0.383,0.852-0.723,1.252-1.117c0.393-0.404,0.805-0.785,1.18-1.208c0.367-0.429,0.758-0.842,1.107-1.283
				c0.348-0.446,0.715-0.857,1.061-1.325c0.33-0.461,0.733-0.938,1.002-1.385c0.295-0.473,0.627-0.927,0.9-1.409
				c0.244-0.495,0.521-0.979,0.744-1.483c0.18-0.521,0.408-1.027,0.555-1.562c0.119-0.542,0.298-1.068,0.371-1.626
				c0.068-0.559,0.193-1.104,0.218-1.675c0.035-0.569,0.104-1.13,0.109-1.707c0.042-1.146,0.056-2.304,0.068-3.462l1.042,0.178
				l-0.699,1.654l-0.838,1.581l-0.961,1.504l-1.067,1.425l-1.161,1.345l-1.244,1.263c-0.871,0.812-1.766,1.589-2.691,2.283
				c-0.465,0.382-0.975,0.676-1.459,1.017c-0.248,0.16-0.482,0.338-0.74,0.484l-0.791,0.417c-0.268,0.131-0.52,0.292-0.799,0.398
				l-0.844,0.306c-0.551,0.24-1.156,0.288-1.732,0.434c-1.172,0.166-2.34,0.229-3.496,0.322c-0.578,0.058-1.16,0.079-1.733,0.167
				l-1.727,0.228l-0.104,0.014l-0.031-0.08l-0.317-0.792c-0.054-0.278-0.117-0.556-0.161-0.835
				c-0.002-0.285-0.014-0.572-0.004-0.853l0.133-0.82L123.58,24.346z"/>
		</g>
		<g>
			<g>
				<path fill="#705750" d="M59.049,31.698c-4.724-2.29-8.507-11.205-13.733-11.377c-3.864-0.126-9.623,6.614-9.401,10.684
					c0.403,7.412,17.894,5.572,20.436,0.979"/>
				<path fill="#473733" d="M59.023,31.741c0,0-0.195-0.108-0.562-0.312c-0.187-0.095-0.408-0.229-0.652-0.418
					c-0.248-0.183-0.547-0.377-0.836-0.645c-1.22-1.003-2.711-2.698-4.468-4.724c-0.891-1.001-1.858-2.088-3.013-3.073
					c-1.143-0.968-2.543-1.866-4.135-1.951c-1.594,0.003-3.072,0.962-4.373,2.072c-1.303,1.125-2.416,2.52-3.302,4.017
					c-0.426,0.758-0.81,1.545-1.036,2.36c-0.246,0.822-0.364,1.615-0.193,2.433c0.145,0.735,0.548,1.432,1.117,1.955
					c0.568,0.531,1.283,0.909,2.023,1.188c1.48,0.586,3.072,0.776,4.566,0.863c1.502,0.085,2.938-0.014,4.246-0.188
					c1.307-0.183,2.5-0.422,3.527-0.74c1.025-0.316,1.89-0.686,2.561-1.059c0.667-0.379,1.141-0.764,1.416-1.067
					c0.276-0.303,0.396-0.492,0.396-0.492l0.088,0.049c0,0-0.028,0.049-0.085,0.144c-0.062,0.09-0.123,0.25-0.264,0.412
					c-0.248,0.354-0.71,0.792-1.364,1.253c-0.655,0.461-1.522,0.912-2.562,1.302c-1.039,0.389-2.244,0.75-3.59,0.983
					c-1.346,0.232-2.824,0.392-4.4,0.364c-1.572-0.019-3.252-0.233-4.914-0.853c-0.822-0.325-1.643-0.769-2.334-1.431
					c-0.693-0.656-1.201-1.555-1.361-2.561c-0.02-0.239-0.063-0.393-0.064-0.703l0.034-0.729c0.087-0.467,0.16-0.942,0.325-1.38
					c0.277-0.898,0.708-1.723,1.18-2.512c0.969-1.561,2.152-2.979,3.543-4.133c0.691-0.581,1.441-1.087,2.239-1.496
					c0.797-0.378,1.733-0.673,2.606-0.632c1.807,0.141,3.271,1.148,4.42,2.175c1.159,1.049,2.102,2.172,2.968,3.2
					c1.704,2.081,3.134,3.799,4.312,4.825c0.28,0.273,0.564,0.469,0.802,0.654c0.232,0.192,0.449,0.332,0.635,0.433
					c0.361,0.214,0.555,0.329,0.555,0.329L59.023,31.741z"/>
			</g>
			<g>
				<path fill="#705750" d="M38.837,27.694c6.31-5.959,8.28-0.351,14.436,2.295"/>
				<path fill="#473733" d="M38.805,27.656c0,0,0.187-0.179,0.514-0.492c0.164-0.156,0.363-0.346,0.592-0.563
					c0.254-0.197,0.54-0.419,0.852-0.662c0.314-0.243,0.706-0.431,1.098-0.672c0.432-0.158,0.877-0.392,1.396-0.441
					c0.256-0.044,0.516-0.098,0.784-0.07c0.267,0.016,0.546-0.009,0.808,0.067c0.543,0.088,1.059,0.28,1.557,0.497
					c1.982,0.913,3.562,2.221,4.791,3.126c0.613,0.456,1.137,0.827,1.512,1.08c0.375,0.254,0.585,0.418,0.585,0.418l-0.039,0.092
					c0,0-0.257-0.058-0.698-0.193c-0.224-0.063-0.498-0.141-0.788-0.276c-0.292-0.131-0.642-0.252-0.989-0.438
					c-0.709-0.353-1.496-0.841-2.291-1.393c-0.386-0.286-0.785-0.582-1.19-0.882c-0.402-0.296-0.818-0.572-1.247-0.818
					c-0.436-0.228-0.881-0.431-1.34-0.539c-0.227-0.087-0.461-0.075-0.69-0.108c-0.23-0.044-0.458-0.011-0.685,0.012
					c-0.458,0.002-0.874,0.199-1.287,0.3c-0.383,0.19-0.774,0.33-1.094,0.533c-0.323,0.204-0.619,0.391-0.881,0.557
					c-0.248,0.194-0.465,0.363-0.644,0.503c-0.356,0.28-0.56,0.44-0.56,0.44L38.805,27.656z"/>
			</g>
		</g>
		<g>
			<path fill="#705750" d="M137.967,32.397c4.058-3.328,5.657-12.88,10.701-14.266c3.729-1.023,10.9,4.188,11.635,8.196
				c1.336,7.302-16.102,9.592-19.646,5.719"/>
			<path fill="#473733" d="M137.933,32.361c0,0,0.161-0.156,0.462-0.449c0.156-0.141,0.335-0.327,0.516-0.568
				c0.188-0.236,0.419-0.492,0.627-0.824c0.906-1.272,1.896-3.277,3.068-5.697c0.603-1.203,1.258-2.515,2.141-3.805
				c0.877-1.266,2.067-2.587,3.792-3.145c0.839-0.243,1.818-0.176,2.682,0.007c0.872,0.212,1.719,0.528,2.526,0.933
				c1.621,0.798,3.104,1.901,4.409,3.193c0.643,0.657,1.253,1.358,1.733,2.167c0.262,0.387,0.444,0.832,0.638,1.266l0.202,0.7
				c0.072,0.303,0.065,0.462,0.102,0.7c0.08,1.016-0.205,2.007-0.727,2.807c-0.519,0.805-1.213,1.428-1.936,1.935
				c-1.473,0.99-3.057,1.591-4.582,1.976c-1.525,0.395-3,0.584-4.363,0.672c-1.363,0.086-2.619,0.017-3.72-0.119
				c-1.102-0.137-2.05-0.373-2.795-0.669c-0.744-0.295-1.295-0.614-1.619-0.899c-0.175-0.125-0.271-0.267-0.353-0.339
				c-0.076-0.079-0.116-0.12-0.116-0.12l0.074-0.068c-0.001,0.001,0.16,0.157,0.499,0.387c0.34,0.231,0.889,0.494,1.627,0.707
				c0.739,0.207,1.666,0.364,2.736,0.433c1.072,0.069,2.289,0.024,3.604-0.104c1.312-0.135,2.73-0.373,4.172-0.806
				c1.434-0.434,2.937-0.99,4.24-1.904c0.654-0.444,1.262-0.979,1.69-1.628c0.433-0.642,0.663-1.413,0.632-2.161
				c-0.024-0.835-0.326-1.578-0.756-2.32c-0.411-0.74-0.967-1.417-1.559-2.054c-1.211-1.25-2.617-2.346-4.146-3.137
				c-1.524-0.776-3.186-1.364-4.736-0.996c-1.529,0.454-2.681,1.653-3.567,2.861c-0.892,1.228-1.58,2.51-2.212,3.69
				c-1.236,2.38-2.291,4.376-3.243,5.637c-0.219,0.327-0.464,0.586-0.662,0.821c-0.193,0.241-0.378,0.423-0.538,0.559
				c-0.309,0.284-0.474,0.436-0.474,0.436L137.933,32.361z"/>
		</g>
		<g>
			<path fill="#705750" d="M156.688,23.791c-7.525-4.323-8.134,1.59-13.502,5.598"/>
			<path fill="#473733" d="M156.664,23.835c0,0-0.234-0.107-0.646-0.297c-0.205-0.095-0.455-0.209-0.742-0.34
				c-0.293-0.1-0.625-0.213-0.986-0.336c-0.358-0.122-0.771-0.167-1.188-0.263c-0.425-0.001-0.876-0.097-1.321,0.009
				c-0.225,0.03-0.454,0.052-0.668,0.147c-0.216,0.086-0.447,0.129-0.646,0.267c-0.422,0.213-0.807,0.514-1.177,0.836
				c-0.36,0.34-0.7,0.706-1.022,1.087c-0.324,0.387-0.643,0.768-0.952,1.135c-0.644,0.723-1.296,1.381-1.902,1.889
				c-0.295,0.263-0.607,0.461-0.86,0.657c-0.25,0.199-0.499,0.338-0.701,0.452c-0.398,0.234-0.635,0.351-0.635,0.351l-0.059-0.08
				c0,0,0.166-0.209,0.471-0.543c0.306-0.333,0.729-0.816,1.219-1.403c0.982-1.167,2.215-2.806,3.929-4.156
				c0.434-0.327,0.892-0.634,1.398-0.846c0.237-0.136,0.515-0.177,0.77-0.255c0.255-0.089,0.521-0.098,0.778-0.113
				c0.518-0.073,1.004,0.05,1.461,0.104c0.438,0.143,0.862,0.233,1.225,0.397c0.359,0.163,0.689,0.312,0.982,0.445
				c0.272,0.158,0.511,0.296,0.707,0.409c0.391,0.229,0.615,0.359,0.615,0.359L156.664,23.835z"/>
		</g>
	</g>
	<g>
		<g>
			<path fill="#705750" d="M59.265,186.045c-0.643,0.811-1.133,1.763-1.4,2.832l-3.647,14.55c-1.009,4.019,1.433,8.092,5.451,9.099
				s8.091-1.433,9.1-5.451l3.646-14.55c0.088-0.349,0.14-0.696,0.176-1.043C67.974,190.013,63.521,188.193,59.265,186.045z"/>
			<path fill="#473733" d="M59.282,186.109c-0.73,0.951-1.18,2.046-1.436,3.207l-0.84,3.514l-1.679,7.027l-0.839,3.513
				c-0.301,1.165-0.293,2.308-0.038,3.455c0.511,2.265,2.188,4.221,4.339,5.047c0.543,0.226,1.068,0.345,1.676,0.449
				c0.555,0.059,1.125,0.091,1.697,0.021c1.137-0.118,2.248-0.503,3.193-1.145c0.947-0.632,1.75-1.482,2.283-2.484
				c0.281-0.492,0.48-1.027,0.629-1.572c0.154-0.557,0.285-1.163,0.428-1.742c0.562-2.342,1.125-4.684,1.718-7.018l0.894-3.5
				l0.465-1.745c0.07-0.278,0.176-0.61,0.215-0.844l0.164-0.888l0.303,0.501c-2.258-0.853-4.512-1.71-6.749-2.6
				C63.544,188.271,61.412,187.181,59.282,186.109z M59.287,186c2.226,0.911,4.448,1.809,6.646,2.75
				c2.275,0.746,4.535,1.524,6.791,2.308l0.36,0.125l-0.058,0.377l-0.137,0.893c-0.059,0.36-0.135,0.604-0.201,0.913l-0.412,1.759
				l-0.862,3.508c-0.577,2.338-1.185,4.668-1.794,6.998c-0.158,0.587-0.292,1.156-0.47,1.757c-0.182,0.61-0.419,1.208-0.747,1.756
				c-0.625,1.113-1.543,2.046-2.611,2.727c-1.062,0.693-2.301,1.1-3.559,1.21c-0.627,0.065-1.265,0.023-1.904-0.062
				c-0.577-0.107-1.23-0.265-1.795-0.515c-2.342-0.947-4.121-3.106-4.629-5.556c-0.262-1.202-0.229-2.534,0.098-3.698l0.918-3.494
				l1.834-6.988l0.918-3.494c0.279-1.17,0.789-2.324,1.551-3.257l0.025-0.031L59.287,186z"/>
		</g>
		<g>
			<path fill="#705750" d="M138.329,187.17c-0.039-0.152-0.09-0.299-0.137-0.446c-4.545,2.016-9.293,3.669-14.203,4.928
				l3.438,13.716c1.006,4.019,5.078,6.458,9.097,5.451c4.02-1.007,6.459-5.08,5.451-9.099L138.329,187.17z"/>
			<path fill="#473733" d="M138.28,187.183l-0.137-0.445l0.068,0.032l-3.5,1.382l-3.486,1.423l-7.181,2.294l0.161-0.271
				l3.328,12.748c0.141,0.547,0.267,1.042,0.443,1.566c0.09,0.252,0.199,0.472,0.297,0.709c0.125,0.227,0.246,0.459,0.383,0.681
				c0.561,0.878,1.314,1.628,2.191,2.182c1.748,1.135,3.99,1.393,5.946,0.745c0.988-0.323,1.87-0.833,2.632-1.532
				c0.74-0.705,1.337-1.56,1.732-2.503c0.396-0.943,0.58-1.973,0.545-2.998c-0.023-0.518-0.096-1.013-0.213-1.538l-0.367-1.605
				c-0.48-2.144-0.922-4.296-1.388-6.442C139.292,191.456,138.771,189.324,138.28,187.183z M138.378,187.157
				c0.578,2.118,1.123,4.246,1.748,6.354c0.602,2.112,1.227,4.219,1.814,6.335l0.434,1.59c0.146,0.541,0.258,1.13,0.305,1.709
				c0.089,1.169-0.137,2.353-0.572,3.438c-0.438,1.086-1.119,2.077-1.988,2.867c-0.863,0.778-1.932,1.383-3.039,1.709
				c-2.229,0.684-4.762,0.327-6.68-0.982c-0.963-0.642-1.787-1.488-2.391-2.473c-0.146-0.248-0.276-0.507-0.41-0.762
				c-0.109-0.271-0.234-0.55-0.324-0.816c-0.164-0.52-0.303-1.091-0.424-1.609l-3.078-12.81l-0.051-0.212l0.212-0.06l7.228-2.045
				c2.348-0.869,4.682-1.787,7.01-2.712l0.053-0.021l0.018,0.053L138.378,187.157z"/>
		</g>
		<g>
			<ellipse transform="matrix(0.9786 0.206 -0.206 0.9786 44.122 -8.0993)" cx="60.962" cy="207.868" rx="7.501" ry="5"/>
			<path fill="#473733" d="M68.314,209.416c0,0-0.043,0.149-0.124,0.429c-0.099,0.272-0.274,0.672-0.621,1.093
				c-0.66,0.873-2.089,1.707-3.936,1.991c-1.841,0.292-4.097,0.059-6.22-0.95c-1.057-0.497-2.067-1.213-2.859-2.166
				c-0.771-0.951-1.295-2.228-1.029-3.518c0.258-1.258,1.254-2.255,2.342-2.817c1.109-0.567,2.33-0.819,3.504-0.854
				c2.355-0.086,4.531,0.63,6.101,1.651c1.581,1.015,2.542,2.374,2.788,3.443c0.145,0.529,0.14,0.965,0.117,1.254
				C68.336,209.262,68.314,209.416,68.314,209.416z M68.289,209.41c0,0,0.02-0.152,0.054-0.439c0.016-0.287,0.01-0.718-0.144-1.234
				c-0.266-1.046-1.238-2.364-2.814-3.323c-1.562-0.966-3.707-1.602-6.006-1.541c-1.145,0.032-2.328,0.283-3.402,0.814
				c-1.058,0.544-1.994,1.45-2.258,2.664c-0.254,1.183,0.225,2.428,0.971,3.354c0.763,0.934,1.75,1.646,2.789,2.145
				c2.078,1.002,4.318,1.274,6.145,1.011c1.84-0.25,3.26-1.087,3.92-1.944c0.347-0.416,0.521-0.809,0.621-1.078
				C68.246,209.559,68.289,209.41,68.289,209.41z"/>
		</g>
		<g>
			<path d="M127.214,207.706c0.668,2.724,4.764,4.296,9.152,3.513c4.387-0.783,7.402-3.624,6.736-6.348
				c-0.668-2.724-4.765-4.296-9.15-3.514C129.562,202.142,126.547,204.983,127.214,207.706z"/>
			<g>
				<path fill="#473733" d="M127.227,207.702c0,0,0.051,0.154,0.148,0.445c0.119,0.278,0.32,0.686,0.712,1.103
					c0.744,0.865,2.251,1.694,4.187,1.983c1.92,0.295,4.282,0.124,6.536-0.799c1.118-0.468,2.224-1.124,3.083-2.063
					c0.852-0.912,1.432-2.228,1.111-3.468c-0.324-1.271-1.38-2.161-2.5-2.715c-1.146-0.534-2.389-0.813-3.598-0.876
					c-2.423-0.121-4.703,0.421-6.422,1.322c-1.732,0.89-2.848,2.217-3.166,3.309c-0.186,0.539-0.179,0.996-0.161,1.298
					C127.203,207.542,127.227,207.702,127.227,207.702z M127.201,207.71c0,0-0.027-0.162-0.08-0.466
					c-0.024-0.305-0.042-0.768,0.135-1.32c0.301-1.119,1.408-2.492,3.148-3.438c1.725-0.959,4.039-1.58,6.518-1.432
					c1.234,0.064,2.512,0.345,3.689,0.915c1.148,0.572,2.268,1.545,2.59,2.869c0.342,1.364-0.297,2.719-1.176,3.654
					c-0.892,0.96-2.021,1.617-3.158,2.083c-2.299,0.926-4.672,1.055-6.606,0.73c-1.94-0.324-3.456-1.15-4.2-2.031
					c-0.392-0.423-0.594-0.836-0.713-1.118C127.252,207.865,127.201,207.71,127.201,207.71z"/>
			</g>
		</g>
	</g>
	<g>
		<g>
			<ellipse fill="#705750" stroke="#473733" stroke-miterlimit="10" cx="100.053" cy="108.508" rx="90.008" ry="88.508"/>
			<path fill="#422009" stroke="#422009" stroke-miterlimit="10" d="M10.952,95.864c0,12.117-3.41,26.083,2.051,37.434
				c1.186,2.464,3.128,7.185,4.698,9.368c2.802,3.896,8.756,3.053,12.619,0.838c4.62-2.648,7.479-8.307,9.077-13.223
				c1.895-5.831,0.704-9.115-2.169-13.911c-2.921-4.872-3.561-8.712-1.403-14.625c1.498-4.108,6.102-7.11,4.666-11.889
				c-1.159-3.855-6.934-8.01-10.729-7.724c-5.123,0.386-11.233,5.988-14.194,10.183c-5.62,7.961-5.045,18.962-5.045,28.442"/>
			<path fill="#422009" stroke="#422009" stroke-miterlimit="10" d="M188.998,99.344c0,6.941,0.33,14.046-0.615,20.816
				c-0.827,5.931-3.096,11.58-4.82,17.304c-1.55,5.149-2.502,10.53-4.443,15.344c-1.728,4.272-6.391,7.123-8.767,11.052
				c-1.435-4.814-10.266-7.285-13.252-11.995c-2.342-3.69-3.456-8.008-4.285-12.086c-1.962-9.646-3.367-17.322,7.619-21.037
				c8.128-2.747,17.616,0.652,17.691-10.086c0.029-3.771-0.847-6.984,2.014-8.833c2.461-1.589,6.266-0.943,9.354-0.943"/>
		</g>
		<path fill="#703D05" stroke="#703D05" stroke-miterlimit="10" d="M88.145,16.584c-8.766-0.305-24.617,10.324-8.576,12.979
			c1.766,0.291,7.344-0.603,8.489,0.412c2.278,2.018-0.562,6.424-0.352,8.486c0.297,2.918,0.923,4.023,4.301,3.443
			c4.316-0.74,4.528-5.579,7.318-8.592c5.159-5.567,11.339-0.066,17.94-0.915c0.358-2.279-0.161-7.549-1.741-9.312
			c-1.932-2.156-5.946-1.171-7.228-3.811c-1.719-3.54,1.889-9.448,0.374-13.787c-8.175-2.314-11.743,3.979-14.562,10.888
			c-2.614-2.764-6.472-15.506-10.801-9.328c-2.247,3.207-0.063,7.473,1.403,10.395"/>
	</g>
	<g>
		<path fill="#473733" d="M52.436,132.195c0,0,0.01,0.11,0.028,0.323c0.012,0.218,0.079,0.514,0.214,0.9
			c0.262,0.775,0.881,1.828,1.868,3.009c0.985,1.175,2.305,2.528,3.84,4.024c1.583,1.422,3.583,2.821,5.778,4.289
			c2.211,1.45,4.602,3.058,7.246,4.516c2.645,1.465,5.484,2.957,8.539,4.153c0.76,0.321,1.545,0.547,2.332,0.777
			c0.762,0.153,1.658,0.323,2.463,0.339c1.642,0.125,3.385,0.048,5.105-0.009c1.736-0.099,3.486-0.198,5.242-0.299
			c1.775-0.104,3.553-0.092,5.314-0.105c1.767-0.014,3.533-0.028,5.294-0.043c0.866-0.007,1.777-0.023,2.649,0.011
			c0.883,0.057,1.763,0.113,2.64,0.17c1.721,0.111,3.442,0.21,5.036,0.014c0.405-0.032,0.746-0.17,1.123-0.241l1.116-0.496
			c0.685-0.388,1.366-0.773,2.044-1.243c1.355-0.891,2.643-1.864,3.832-2.886c1.195-1.019,2.326-2.058,3.213-3.21
			c1.842-2.383,3.29-4.806,4.784-7.04c1.517-2.175,2.905-4.169,4.138-5.936c1.23-1.769,2.314-3.303,3.219-4.558
			c1.801-2.518,2.829-3.955,2.829-3.955l0.102,0.066c0,0-0.938,1.499-2.579,4.12c-0.814,1.315-1.821,2.9-2.986,4.711
			c-1.165,1.812-2.479,3.855-3.912,6.086c-1.399,2.203-2.85,4.757-4.667,7.225c-0.931,1.282-2.11,2.38-3.332,3.432
			c-1.223,1.062-2.532,2.068-3.938,3.007c-0.688,0.471-1.462,0.904-2.252,1.329l-1.203,0.517c-0.453,0.097-0.922,0.255-1.367,0.286
			c-1.799,0.207-3.543,0.056-5.286-0.08c-0.858-0.069-1.72-0.14-2.583-0.21c-0.879-0.049-1.725-0.046-2.618-0.054
			c-1.761-0.015-3.527-0.029-5.294-0.043c-1.773-0.01-3.531-0.045-5.273,0.035c-1.759,0.077-3.511,0.154-5.249,0.231
			c-3.442,0.073-7.108,0.189-10.192-1.288c-3.098-1.266-5.931-2.789-8.568-4.313c-2.65-1.523-5.004-3.166-7.199-4.662
			c-2.182-1.515-4.153-2.94-5.752-4.429c-1.521-1.535-2.805-2.897-3.786-4.108c-0.976-1.209-1.589-2.29-1.844-3.092
			c-0.132-0.395-0.199-0.729-0.206-0.938c-0.016-0.213-0.023-0.323-0.023-0.323L52.436,132.195z"/>
	</g>
	<g>
		<g>
			<path fill="#705750" d="M132.234,161.686c0.279-0.481,0.627-0.925,1.048-1.311l10.623-9.753c2.198-2.021,5.504-1.685,7.38,0.746
				c1.877,2.432,1.615,6.04-0.584,8.059l-10.626,9.754c-0.418,0.387-0.877,0.684-1.36,0.9l-0.709-6.522L132.234,161.686z"/>
			<path fill="#473733" d="M132.193,161.657c0.492-0.912,1.333-1.594,2.061-2.297l2.246-2.115l4.491-4.231l2.245-2.116
				c0.199-0.18,0.349-0.342,0.59-0.537l0.615-0.466c0.184-0.172,0.47-0.264,0.712-0.39c0.253-0.117,0.503-0.252,0.772-0.29
				c1.044-0.34,2.191-0.203,3.203,0.164c1.053,0.357,1.873,1.108,2.557,1.989c0.6,0.788,1.023,1.94,1.175,2.987
				c0.077,1.078,0.02,2.199-0.423,3.215c-0.07,0.268-0.23,0.497-0.361,0.739c-0.148,0.23-0.242,0.5-0.443,0.695
				c-0.359,0.427-0.728,0.846-1.105,1.173l-2.246,2.114c-1.498,1.409-3,2.815-4.518,4.204l-2.283,2.074
				c-0.396,0.354-0.735,0.665-1.186,1.044c-0.208,0.154-0.404,0.312-0.622,0.463l-0.774,0.414l-0.568,0.304l-0.062-0.665
				c-0.202-2.179-0.399-4.356-0.558-6.539l0.203,0.25c-1.906-0.678-3.805-1.382-5.695-2.107l-0.055-0.021L132.193,161.657z
				 M132.316,161.656c1.934,0.518,3.861,1.056,5.781,1.62l0.174,0.051l0.029,0.199c0.314,2.166,0.59,4.336,0.86,6.506l-0.63-0.361
				l0.578-0.328c0.198-0.147,0.398-0.32,0.598-0.479l1.096-1.031l2.263-2.098c1.513-1.394,3.042-2.769,4.574-4.141l2.298-2.059
				c0.41-0.339,0.721-0.692,1.037-1.043c0.181-0.159,0.26-0.396,0.396-0.591c0.118-0.207,0.268-0.398,0.329-0.634
				c0.408-0.878,0.473-1.87,0.428-2.829c-0.1-0.47-0.135-0.972-0.338-1.392c-0.096-0.218-0.129-0.441-0.273-0.66l-0.404-0.657
				c-0.553-0.728-1.293-1.462-2.208-1.775c-0.887-0.339-1.9-0.489-2.834-0.2c-0.247,0.027-0.454,0.143-0.67,0.235
				c-0.213,0.108-0.44,0.15-0.644,0.33l-0.623,0.454c-0.162,0.123-0.375,0.33-0.559,0.491l-2.301,2.057l-4.598,4.114l-2.3,2.058
				C133.633,160.178,132.84,160.783,132.316,161.656z"/>
		</g>
		<g>
			<path fill="#705750" d="M58.768,164.559l-0.71,6.522c-0.482-0.217-0.941-0.514-1.359-0.9l-10.625-9.754
				c-2.2-2.019-2.462-5.627-0.584-8.059c1.875-2.431,5.181-2.767,7.38-0.746l10.622,9.753c0.421,0.386,0.768,0.829,1.047,1.311
				L58.768,164.559z"/>
			<path fill="#473733" d="M58.814,164.598l-0.623,6.498l-0.018,0.18l-0.172-0.071c-0.997-0.415-1.721-1.219-2.489-1.875l-2.3-2.057
				l-4.591-4.122l-2.293-2.063c-0.196-0.188-0.369-0.312-0.586-0.55l-0.518-0.571c-0.186-0.167-0.305-0.454-0.457-0.68
				c-0.139-0.242-0.308-0.477-0.38-0.737c-0.458-0.999-0.537-2.112-0.479-3.193c0.148-1.077,0.494-2.142,1.138-3.041l0.108-0.176
				c0.092-0.115,0.1-0.113,0.154-0.176l0.262-0.284c0.188-0.185,0.311-0.39,0.566-0.554l0.699-0.508
				c0.242-0.147,0.506-0.24,0.758-0.361c1.029-0.398,2.212-0.563,3.305-0.233c0.283,0.036,0.537,0.166,0.796,0.278
				c0.252,0.126,0.535,0.201,0.749,0.39l0.682,0.5c0.217,0.17,0.389,0.345,0.585,0.517l2.277,2.081
				c1.515,1.392,3.01,2.804,4.495,4.227l2.236,2.126c0.378,0.365,0.726,0.69,1.117,1.102c0.168,0.198,0.344,0.377,0.504,0.591
				l0.453,0.703l0.207,0.322l-0.373,0.109C62.699,163.536,60.76,164.077,58.814,164.598z M58.752,164.511
				c1.891-0.726,3.788-1.43,5.694-2.107l-0.165,0.431l-0.416-0.571c-0.157-0.188-0.355-0.367-0.531-0.551
				c-0.334-0.315-0.766-0.663-1.139-1l-2.309-2.046c-1.545-1.359-3.078-2.729-4.594-4.12l-2.268-2.091
				c-0.188-0.17-0.377-0.364-0.564-0.513l-0.556-0.419c-0.173-0.164-0.403-0.221-0.606-0.331c-0.21-0.097-0.413-0.217-0.646-0.245
				c-0.886-0.3-1.863-0.179-2.733,0.13c-0.212,0.097-0.443,0.168-0.641,0.282l-0.562,0.381c-0.196,0.096-0.363,0.336-0.545,0.505
				l-0.268,0.277c-0.031,0.033-0.12,0.122-0.104,0.11l-0.097,0.151c-0.578,0.77-0.898,1.702-1.053,2.654
				c-0.064,0.957-0.021,1.955,0.371,2.85c0.061,0.242,0.201,0.429,0.311,0.636c0.133,0.199,0.187,0.419,0.383,0.606l0.508,0.582
				c0.121,0.148,0.356,0.344,0.529,0.514l2.253,2.107l4.499,4.224l2.245,2.115c0.767,0.692,1.441,1.479,2.364,1.886l-0.189,0.108
				l0.798-6.544L58.752,164.511z"/>
		</g>
	</g>
</g>
</svg>
