<?xml version="1.0" encoding="utf-8"?>
<!-- Generator: Adobe Illustrator 16.0.0, SVG Export Plug-In . SVG Version: 6.00 Build 0)  -->
<!DOCTYPE svg PUBLIC "-//W3C//DTD SVG 1.1//EN" "http://www.w3.org/Graphics/SVG/1.1/DTD/svg11.dtd">
<svg version="1.1" xmlns="http://www.w3.org/2000/svg" xmlns:xlink="http://www.w3.org/1999/xlink" x="0px" y="0px" width="200px"
	 height="225px" viewBox="0 0 200 225" enable-background="new 0 0 200 225" xml:space="preserve">
<g id="Ext">
</g>
<g id="Guides">
</g>
<g id="_x31_2_Col_Grid_1_" display="none" enable-background="new    ">
	<g id="Rectangle_xA0_Image_23_" display="inline" opacity="0.102">
	</g>
	<g id="Rectangle_xA0_Image_21_" display="inline" opacity="0.102">
	</g>
	<g id="Rectangle_xA0_Image_19_" display="inline" opacity="0.102">
	</g>
	<g id="Rectangle_xA0_Image_17_" display="inline" opacity="0.102">
	</g>
	<g id="Rectangle_xA0_Image_15_" display="inline" opacity="0.102">
	</g>
	<g id="Rectangle_xA0_Image_13_" display="inline" opacity="0.102">
	</g>
	<g id="Rectangle_xA0_Image_11_" display="inline" opacity="0.102">
	</g>
	<g id="Rectangle_xA0_Image_9_" display="inline" opacity="0.102">
	</g>
	<g id="Rectangle_xA0_Image_7_" display="inline" opacity="0.102">
	</g>
	<g id="Rectangle_xA0_Image_5_" display="inline" opacity="0.102">
	</g>
	<g id="Rectangle_xA0_Image_3_" display="inline" opacity="0.102">
	</g>
	<g id="Rectangle_xA0_Image_1_" display="inline" opacity="0.102">
	</g>
</g>
<g id="Bg">
</g>
<g id="main">
	<g id="Progress">
	</g>
	<g id="Text">
	</g>
</g>
<g id="pane">
</g>
<g id="browserhead">
	<g>
		<g>
			<path fill="#050505" d="M100.377,120.25c2.758,0,5-4.25,5-8.25h-10C95.377,116,97.614,120.25,100.377,120.25z"/>
			<path d="M100.371,120c0.215,0,0.447-0.146,0.648-0.214c0.206-0.051,0.408-0.174,0.601-0.273c0.202-0.076,0.376-0.235,0.559-0.349
				c0.182-0.113,0.329-0.292,0.491-0.429c0.292-0.315,0.558-0.659,0.78-1.024s0.386-0.768,0.534-1.165
				c0.287-0.802,0.46-1.638,0.533-2.477c0.076-0.838,0.064-1.678-0.018-2.502l0.877,0.876c-0.834,0.1-1.666,0.127-2.5,0.184
				c-0.834,0.037-1.666,0.042-2.5,0.06c-0.834-0.022-1.666-0.021-2.5-0.064c-0.834-0.054-1.666-0.087-2.5-0.186l0.87-0.87
				c-0.081,0.825-0.093,1.664-0.017,2.503c0.074,0.839,0.248,1.674,0.535,2.475c0.148,0.397,0.311,0.797,0.535,1.161
				c0.223,0.366,0.489,0.701,0.782,1.017c0.162,0.137,0.31,0.301,0.491,0.413c0.183,0.112,0.357,0.241,0.559,0.316
				c0.191,0.101,0.396,0.285,0.606,0.336c0.205,0.068,0.425,0.213,0.638,0.213H100.371z M100.377,120
				c-0.222,0-0.451-0.072-0.668-0.138c-0.22-0.048-0.436-0.138-0.639-0.236c-0.418-0.166-0.781-0.454-1.125-0.735
				c-0.326-0.307-0.625-0.645-0.883-1.009c-0.256-0.363-0.48-0.753-0.676-1.151c-0.389-0.799-0.803-1.651-0.977-2.521
				c-0.176-0.869-0.41-1.757-0.41-2.644V111h0.377c3.334,0,6.666,0,10,0H105v0.566c0,0.887,0.143,1.772-0.033,2.642
				s-0.332,1.72-0.722,2.518c-0.195,0.398-0.358,0.784-0.616,1.147c-0.256,0.364-0.526,0.695-0.851,1.001
				c-0.346,0.282-0.692,0.555-1.11,0.721c-0.201,0.099-0.412,0.22-0.635,0.268c-0.221,0.066-0.432,0.138-0.65,0.138H100.377z"/>
		</g>
		<g>
			<path fill="#FFE1CC" d="M90.082,135c0,0-0.719-3.804,0-4.999c1.072-1.788,6.943-5.254,10.633-5.185
				c3.432,0.066,8.273,3.504,9.146,5.185c0.629,1.209,0,4.999,0,4.999"/>
			<path d="M90.082,135c0,0-0.182-0.49-0.395-1.383c-0.104-0.447-0.221-0.992-0.303-1.641c-0.046-0.656-0.264-1.392,0.365-2.359
				c0.431-0.591,1.168-1.253,1.919-1.791c0.379-0.253,0.756-0.536,1.165-0.782c0.412-0.236,0.834-0.479,1.264-0.725
				c0.888-0.438,1.804-0.893,2.797-1.227c0.48-0.202,0.998-0.329,1.519-0.454c0.261-0.062,0.517-0.136,0.781-0.188l0.821-0.074
				c0.293-0.012,0.506-0.073,0.865-0.042l0.766,0.099c0.499,0.024,1.047,0.241,1.569,0.386c1.03,0.346,1.946,0.785,2.81,1.288
				c0.443,0.229,0.842,0.512,1.239,0.779c0.404,0.255,0.774,0.546,1.128,0.839c0.365,0.273,0.694,0.584,1.001,0.904
				c0.325,0.281,0.587,0.675,0.838,1.035c0.46,0.773,0.35,1.7,0.279,2.306c-0.081,0.646-0.188,1.193-0.285,1.641
				c-0.2,0.895-0.364,1.39-0.364,1.39s0.01-0.523-0.007-1.426c-0.008-0.451-0.028-0.999-0.094-1.61
				c-0.044-0.294-0.069-0.651-0.155-0.908c-0.052-0.146-0.014-0.263-0.082-0.455l-0.081-0.27l-0.044-0.136l-0.005-0.017
				l-0.003-0.009c-0.007-0.018,0.051,0.118,0.024,0.058l-0.019-0.024l-0.037-0.051c-0.201-0.267-0.374-0.559-0.685-0.829
				c-0.271-0.283-0.568-0.565-0.915-0.824c-0.33-0.273-0.676-0.547-1.061-0.789c-0.376-0.253-0.754-0.521-1.172-0.736
				c-0.805-0.473-1.709-0.898-2.6-1.197c-0.457-0.121-0.863-0.321-1.4-0.352l-0.767-0.099c-0.151-0.016-0.456,0.035-0.676,0.048
				l-0.721,0.062c-0.239,0.049-0.479,0.118-0.72,0.176c-0.479,0.115-0.957,0.229-1.416,0.424c-0.937,0.313-1.814,0.751-2.662,1.168
				c-0.41,0.234-0.814,0.466-1.209,0.692c-0.389,0.234-0.741,0.501-1.101,0.739c-0.683,0.503-1.229,0.942-1.721,1.602
				c-0.123,0.133-0.16,0.501-0.233,0.794c-0.076,0.313-0.125,0.633-0.156,0.937c-0.064,0.609-0.077,1.157-0.08,1.607
				C90.062,134.477,90.082,135,90.082,135z"/>
		</g>
	</g>
</g>
</svg>
