<?xml version="1.0" encoding="utf-8"?>
<!-- Generator: Adobe Illustrator 16.0.0, SVG Export Plug-In . SVG Version: 6.00 Build 0)  -->
<!DOCTYPE svg PUBLIC "-//W3C//DTD SVG 1.1//EN" "http://www.w3.org/Graphics/SVG/1.1/DTD/svg11.dtd">
<svg version="1.1" id="Layer_1" xmlns="http://www.w3.org/2000/svg" xmlns:xlink="http://www.w3.org/1999/xlink" x="0px" y="0px"
	 width="200px" height="225px" viewBox="0 0 200 225" enable-background="new 0 0 200 225" xml:space="preserve">
<g id="Ext">
</g>
<g id="Guides">
</g>
<g id="_x31_2_Col_Grid_1_" display="none" enable-background="new    ">
	<g id="Rectangle_xA0_Image_23_" display="inline" opacity="0.102">
	</g>
	<g id="Rectangle_xA0_Image_21_" display="inline" opacity="0.102">
	</g>
	<g id="Rectangle_xA0_Image_19_" display="inline" opacity="0.102">
	</g>
	<g id="Rectangle_xA0_Image_17_" display="inline" opacity="0.102">
	</g>
	<g id="Rectangle_xA0_Image_15_" display="inline" opacity="0.102">
	</g>
	<g id="Rectangle_xA0_Image_13_" display="inline" opacity="0.102">
	</g>
	<g id="Rectangle_xA0_Image_11_" display="inline" opacity="0.102">
	</g>
	<g id="Rectangle_xA0_Image_9_" display="inline" opacity="0.102">
	</g>
	<g id="Rectangle_xA0_Image_7_" display="inline" opacity="0.102">
	</g>
	<g id="Rectangle_xA0_Image_5_" display="inline" opacity="0.102">
	</g>
	<g id="Rectangle_xA0_Image_3_" display="inline" opacity="0.102">
	</g>
	<g id="Rectangle_xA0_Image_1_" display="inline" opacity="0.102">
	</g>
</g>
<g id="Bg">
</g>
<g id="main">
	<g id="Progress">
	</g>
	<g id="Text">
	</g>
</g>
<g id="pane">
</g>
<g>
	<g>
		<g>
			<path fill="#FFFFFF" d="M83.418,126.979c0,0,9.176,6.771,13.197,7.641c2.904,0.629,9.467,0.316,12.047-0.85
				c2.66-1.201,7.927-7.108,7.927-7.108"/>
			<path d="M83.425,126.969c0,0,1.955,1.374,4.979,3.284c0.754,0.48,1.579,0.988,2.461,1.507c0.887,0.509,1.823,1.048,2.826,1.529
				c1,0.473,2.06,0.967,3.174,1.168c0.582,0.09,1.168,0.178,1.75,0.194c0.581,0.05,1.172,0.053,1.766,0.051
				c1.185,0.021,2.374-0.03,3.536-0.135c1.164-0.098,2.301-0.273,3.377-0.526c0.275-0.048,0.52-0.165,0.778-0.242
				c0.264-0.101,0.5-0.138,0.729-0.297c0.464-0.272,0.938-0.517,1.319-0.843c0.816-0.586,1.534-1.244,2.205-1.829
				c1.307-1.218,2.387-2.247,3.113-2.997c0.726-0.751,1.14-1.181,1.14-1.181l0.02,0.018c0,0-0.405,0.438-1.114,1.205
				c-0.715,0.763-1.758,1.831-3.061,3.06c-0.67,0.594-1.38,1.257-2.212,1.864c-0.392,0.337-0.86,0.583-1.322,0.859
				c-0.221,0.158-0.497,0.217-0.752,0.315c-0.263,0.081-0.518,0.203-0.794,0.254c-1.089,0.265-2.233,0.451-3.404,0.56
				c-1.17,0.115-2.364,0.176-3.559,0.165c-0.597-0.002-1.194-0.011-1.789-0.066c-0.597-0.022-1.182-0.115-1.761-0.211
				c-1.163-0.221-2.219-0.729-3.225-1.213c-1.006-0.493-1.94-1.041-2.826-1.559c-0.88-0.527-1.702-1.043-2.454-1.53
				c-3.002-1.954-4.916-3.385-4.916-3.385L83.425,126.969z"/>
		</g>
		<g>
			<path d="M83.538,126.914c0,0,0.62,0.236,1.649,0.674c1.024,0.439,2.467,1.074,4.113,1.86c0.83,0.39,1.733,0.801,2.644,1.251
				c0.917,0.419,1.884,0.861,2.885,1.318c0.492,0.225,0.983,0.41,1.47,0.597l0.688,0.216c0.21,0.07,0.337,0.081,0.501,0.139
				c0.192,0.036-0.253-0.047-0.2-0.037l0.016,0.002l0.031,0.004l0.063,0.01l0.126,0.017l0.249,0.035l0.499,0.069
				c0.387,0.067,0.51,0.023,0.766,0.046c0.39,0.03,1.032,0.018,1.621,0.019c0.592,0.02,1.205-0.021,1.808-0.023
				c0.589-0.047,1.202-0.07,1.766-0.137c0.542-0.086,1.151-0.115,1.615-0.209c0.232-0.041,0.523-0.072,0.72-0.119
				c0.172-0.053,0.354-0.099,0.54-0.14l0.07-0.016l0.035-0.007l0.009-0.002c0.188-0.094-0.244,0.125-0.195,0.101l0.025-0.013
				l0.187-0.096l0.371-0.191c0.222-0.126,0.55-0.256,0.699-0.357c0.354-0.212,0.702-0.419,1.039-0.619
				c0.791-0.535,1.536-1.039,2.222-1.507c1.39-0.956,2.599-1.765,3.475-2.317c0.876-0.558,1.409-0.867,1.409-0.867l0.274,0.1
				c0,0-1.323,1.543-3.589,3.755c-0.552,0.558-1.217,1.136-1.905,1.755c-0.385,0.299-0.776,0.605-1.178,0.92
				c-0.451,0.291-0.852,0.566-1.432,0.83c-1.143,0.474-2.477,0.692-3.815,0.885c-0.673,0.094-1.361,0.137-2.05,0.203
				c-0.693,0.022-1.389,0.078-2.088,0.071c-1.386,0-2.839-0.087-4.157-0.342c-1.344-0.339-2.405-0.878-3.417-1.397
				c-2.015-1.052-3.706-2.152-5.152-3.098c-2.868-1.902-4.645-3.248-4.645-3.248L83.538,126.914z"/>
			<path d="M83.542,126.902c1.185,0.451,2.354,0.95,3.51,1.471c1.159,0.511,2.328,1.013,3.477,1.552l3.462,1.573
				c0.578,0.27,1.152,0.518,1.746,0.745c0.306,0.118,0.569,0.245,0.879,0.328c0.301,0.098,0.613,0.186,0.917,0.266l-0.019-0.005
				l0.042,0.008l0.004,0.001c0.037,0.08-0.076-0.179,0.105,0.186c-0.275,0.182-0.092,0.049-0.149,0.09l-0.008-0.002l-0.012-0.002
				l-0.021-0.004l-0.084-0.016l-0.084-0.015l-0.043-0.008l-0.009-0.002l-0.001-0.001c-0.01,0.242-0.027-0.336,0.05-0.275
				c0.021,0.003-0.001,0,0.003,0l0.011,0.001l0.022,0.003l0.342,0.047c0.223,0.029,0.461,0.065,0.674,0.088
				c0.462,0.059,0.907,0.029,1.366,0.042c0.918,0.017,1.826-0.01,2.746-0.023l-0.015,0.001l1.192-0.098l0.587-0.048l0.595-0.079
				c0.395-0.056,0.799-0.1,1.185-0.165c0.192-0.035,0.405-0.062,0.582-0.104c0.196-0.05,0.379-0.105,0.588-0.149l-0.04,0.015
				l0.042-0.021c0.025-0.006-0.054,0.012,0.069-0.02c0.337,0.54,0.018,0.231,0.116,0.324l-0.011,0.007l-0.021,0.011l-0.021,0.011
				l-0.08,0.041l-0.08,0.041l-0.04,0.021l-0.009,0.005c0.001-0.001-0.005,0.003,0.002-0.001c0.065,0.052-0.316-0.6-0.165-0.318
				l0.002-0.001l0.021-0.011l0.316-0.164l0.626-0.323c0.438-0.212,0.828-0.484,1.245-0.724c0.187-0.112,0.393-0.264,0.588-0.394
				l0.593-0.406l1.189-0.812l2.387-1.604l0.596-0.4c0.194-0.129,0.403-0.277,0.607-0.399l1.222-0.758l0.089-0.055l0.102,0.036
				l0.275,0.099l0.322,0.115l-0.229,0.238l-2.706,2.818l-0.678,0.703c-0.219,0.241-0.47,0.455-0.706,0.674l-1.437,1.313l-0.01,0.009
				l-0.006,0.004l-1.18,0.915l-0.008,0.006l-0.007,0.005c-0.517,0.333-1.036,0.656-1.639,0.9c-0.565,0.216-1.172,0.375-1.782,0.507
				c-0.604,0.118-1.21,0.219-1.815,0.302l-1.826,0.18c-0.643,0.062-1.229,0.049-1.846,0.077c-0.608,0.038-1.234-0.015-1.837-0.032
				c-0.305-0.015-0.609-0.019-0.915-0.042l-0.917-0.121l-0.917-0.123c-0.345-0.04-0.592-0.185-0.893-0.271
				c-0.574-0.206-1.161-0.373-1.706-0.674c-0.551-0.268-1.121-0.535-1.639-0.853c-1.055-0.613-2.128-1.193-3.139-1.888
				c-1.034-0.654-2.037-1.359-3.021-2.077l-2.977-2.13l-0.021-0.015l0.022-0.012l0.244-0.133L83.542,126.902z M83.538,126.928
				l-0.232,0.13l0.001-0.021l3,2.097c0.995,0.708,2,1.397,3.039,2.038c1.013,0.681,2.096,1.248,3.151,1.86
				c0.523,0.317,1.075,0.572,1.624,0.838c0.536,0.294,1.127,0.46,1.702,0.664c0.291,0.083,0.571,0.234,0.871,0.262l0.906,0.117
				l0.906,0.117c0.304,0.022,0.61,0.024,0.914,0.038c0.611,0.016,1.218,0.065,1.829,0.024c0.608-0.03,1.223-0.021,1.825-0.083
				l1.82-0.187c0.604-0.085,1.205-0.188,1.803-0.307c0.595-0.132,1.184-0.287,1.754-0.507c0.56-0.229,1.082-0.553,1.592-0.886
				l-0.002,0.001l1.178-0.92l-0.002,0.001l1.431-1.318c0.49-0.427,0.921-0.912,1.373-1.378l2.688-2.812l0.01,0.039l-0.274-0.1
				l0.021-0.002c-0.819,0.498-1.634,1-2.424,1.543l-2.393,1.595c-0.796,0.534-1.582,1.079-2.385,1.607
				c-0.416,0.236-0.813,0.51-1.245,0.716l-0.642,0.329l-0.32,0.164l-0.02,0.01c-0.053-0.067-0.006-0.023-0.011-0.042l0.04-0.02
				l0.08-0.041l0.08-0.041c0.017,0.013,0.02-0.057,0.044,0.024l-0.04,0.02l-0.003,0.001l-0.002,0.001
				c-0.387,0.096-0.776,0.2-1.175,0.25c-0.396,0.065-0.793,0.106-1.19,0.16c-0.791,0.123-1.597,0.144-2.393,0.218h-0.002
				c-0.917,0.01-1.834,0.032-2.75,0.012c-0.458-0.015-0.919,0.012-1.375-0.048c-0.229-0.025-0.455-0.062-0.682-0.092l-0.34-0.048
				c-0.007-0.017-0.044,0.03-0.027-0.039l0.042,0.009l0.084,0.016l0.084,0.016c0.006,0.017,0.046-0.027,0.024,0.04l-0.042-0.008
				l-0.003-0.001c-0.307-0.083-0.61-0.169-0.912-0.268c-0.306-0.084-0.597-0.223-0.891-0.337c-0.591-0.229-1.174-0.483-1.747-0.755
				c-1.154-0.525-2.308-1.053-3.452-1.602c-1.143-0.552-2.302-1.065-3.457-1.59C85.875,127.901,84.717,127.393,83.538,126.928z"/>
		</g>
	</g>
	<g>
		<path fill="#FFE1CC" d="M80.615,119.539c0,1.25-0.539,3.818,0,5c0.761,1.672,4.463,4.324,6.627,5c1.531,0.479,5.139,0.549,6.627,0
			c2.104-0.775,5.845-3.332,6.627-5c0.553-1.178,0-5,0-5"/>
		<path d="M80.699,119.542c0,0,0.021,0.132,0.062,0.38c0.037,0.241,0.088,0.633,0.117,1.094c0.038,0.454,0.085,1.006,0.139,1.64
			c0.078,0.589,0.207,1.317,0.491,1.604c0.123,0.151,0.247,0.326,0.376,0.468c0.123,0.101,0.25,0.199,0.378,0.303
			c0.205,0.195,0.603,0.475,0.903,0.717c0.688,0.482,1.451,0.953,2.248,1.398c0.777,0.461,1.701,0.808,2.379,1.02
			c0.575,0.141,0.834,0.145,1.328,0.191c0.471,0.043,0.955,0.045,1.439,0.054c0.944,0.021,1.988-0.036,2.658-0.21l0.127-0.027
			l0.016-0.003c-0.129,0.051-0.029,0.013-0.055,0.021l0.011-0.004l0.044-0.02l0.09-0.036l0.357-0.146l0.359-0.135l0.291-0.139
			c0.382-0.165,0.79-0.374,1.2-0.604c0.805-0.453,1.578-0.916,2.272-1.395c0.315-0.251,0.681-0.486,0.939-0.73
			c0.142-0.121,0.281-0.24,0.418-0.356c0.102-0.114,0.2-0.228,0.297-0.337l0.076-0.082l0.02-0.021l0.01-0.011l0.005-0.005
			c0.04-0.1-0.049,0.129-0.038,0.104l0.027-0.066l0.109-0.268c0.092-0.191,0.098-0.309,0.135-0.433
			c0.08-0.224,0.129-0.573,0.177-0.873c0.079-0.61,0.144-1.168,0.182-1.626c0.079-0.927,0.124-1.456,0.124-1.456l0.168-0.022
			c0,0,0.08,0.521,0.166,1.438c0.041,0.46,0.084,1.019,0.09,1.664c-0.014,0.632,0.029,1.421-0.359,2.144
			c-0.391,0.729-1.057,1.3-1.723,1.914c-0.701,0.58-1.47,1.153-2.312,1.679c-0.838,0.53-1.744,1.03-2.739,1.378
			c-1.031,0.292-2.096,0.336-3.155,0.349c-1.051-0.021-2.135-0.101-3.146-0.354c-1.018-0.316-1.934-0.797-2.77-1.331
			c-0.844-0.521-1.607-1.104-2.301-1.693c-0.652-0.61-1.336-1.231-1.695-1.931c-0.411-0.741-0.347-1.518-0.35-2.15
			c0.027-0.645,0.088-1.201,0.134-1.658c0.101-0.91,0.112-1.436,0.112-1.436L80.699,119.542z"/>
	</g>
	<g>
		<path fill="#FFE1CC" d="M100.615,119.926c0,0-0.538,3.82,0,5c0.759,1.666,4.396,4.223,6.443,5c1.446,0.549,4.955,0.479,6.442,0
			c2.104-0.678,5.703-3.328,6.442-5c0.525-1.184,0-3.75,0-5"/>
		<path d="M100.697,119.938c0,0,0.047,0.521,0.129,1.438c0.039,0.451,0.104,1,0.179,1.604c0.052,0.297,0.085,0.629,0.179,0.922
			c0.067,0.322,0.176,0.578,0.275,0.688c0.121,0.154,0.244,0.312,0.371,0.474c0.127,0.123,0.254,0.203,0.375,0.31
			c0.199,0.188,0.572,0.461,0.878,0.702c0.669,0.484,1.427,0.951,2.211,1.412c0.396,0.224,0.799,0.447,1.212,0.632
			c0.206,0.102,0.412,0.198,0.61,0.265l0.296,0.125l0.146,0.062l0.01,0.005c0.027,0.01-0.197-0.065-0.098-0.032l0.021,0.006
			l0.047,0.012l0.092,0.024c0.586,0.169,0.758,0.147,1.242,0.197c0.452,0.038,0.928,0.032,1.398,0.034
			c0.936,0.004,1.953-0.066,2.674-0.24l0.068-0.016l0.034-0.008l0.009-0.002c-0.168,0.062-0.039,0.016-0.074,0.026l0.021-0.009
			l0.18-0.067l0.355-0.133c0.261-0.081,0.438-0.169,0.615-0.254c0.354-0.146,0.756-0.366,1.15-0.591
			c0.775-0.455,1.527-0.924,2.188-1.416c0.31-0.254,0.648-0.5,0.896-0.748c0.131-0.123,0.277-0.243,0.396-0.361
			c0.097-0.116,0.19-0.229,0.282-0.342l0.037-0.042l0.021-0.021l0.01-0.011l0.005-0.005c-0.015,0.039,0.038-0.099-0.031,0.087
			l0.058-0.132l0.11-0.263c0.074-0.177,0.062-0.252,0.113-0.383c0.072-0.248,0.123-0.601,0.154-0.891
			c0.055-0.624,0.102-1.132,0.139-1.58c0.067-0.921,0.18-1.417,0.18-1.417h0.166c0,0,0.011,0.474,0.106,1.375
			c0.043,0.451,0.104,0.981,0.13,1.616c0.002,0.617,0.062,1.394-0.298,2.115c-0.104,0.172-0.207,0.344-0.313,0.521
			c-0.122,0.165-0.266,0.313-0.399,0.479c-0.262,0.34-0.601,0.617-0.918,0.935c-0.668,0.601-1.416,1.181-2.237,1.712
			c-0.815,0.535-1.722,1.032-2.705,1.354c-1.016,0.271-2.062,0.346-3.104,0.369c-1.031-0.009-2.117-0.062-3.104-0.356
			c-0.992-0.364-1.861-0.869-2.685-1.403c-0.821-0.529-1.573-1.104-2.249-1.693c-0.322-0.314-0.662-0.584-0.934-0.928
			c-0.14-0.164-0.287-0.318-0.41-0.482c-0.105-0.172-0.209-0.34-0.311-0.506c-0.192-0.367-0.257-0.764-0.281-1.115
			c-0.048-0.358-0.029-0.696-0.037-1.016c0.011-0.637,0.051-1.188,0.091-1.641c0.084-0.904,0.161-1.419,0.161-1.419L100.697,119.938
			z"/>
	</g>
	<path fill="#FFE1CC" stroke="#000000" stroke-width="0.5" stroke-miterlimit="10" d="M77.832,124.506c0,0,0.988-4.092,2.168-4.506
		c1.18-0.413,4.506,2.168,4.506,2.168"/>
	<g>
		<path fill="#050505" d="M100.377,120.25c2.758,0,5-4.25,5-8.25h-10C95.377,116,97.614,120.25,100.377,120.25z"/>
		<path d="M100.371,120c0.215,0,0.447-0.146,0.648-0.214c0.205-0.052,0.406-0.175,0.601-0.272c0.202-0.076,0.376-0.236,0.56-0.35
			c0.182-0.113,0.328-0.292,0.49-0.43c0.292-0.314,0.559-0.658,0.78-1.023c0.221-0.365,0.386-0.768,0.534-1.165
			c0.287-0.802,0.459-1.638,0.533-2.478c0.074-0.838,0.062-1.677-0.02-2.501l0.877,0.876c-0.834,0.1-1.666,0.127-2.5,0.184
			c-0.834,0.037-1.666,0.042-2.5,0.06c-0.834-0.022-1.666-0.021-2.5-0.064c-0.834-0.054-1.666-0.087-2.5-0.186l0.87-0.87
			c-0.081,0.825-0.093,1.664-0.017,2.503c0.074,0.839,0.248,1.674,0.535,2.475c0.148,0.396,0.311,0.797,0.535,1.161
			c0.223,0.366,0.489,0.701,0.782,1.017c0.162,0.137,0.31,0.301,0.491,0.413c0.183,0.112,0.357,0.241,0.559,0.316
			c0.191,0.101,0.396,0.284,0.606,0.336c0.205,0.067,0.425,0.213,0.638,0.213L100.371,120L100.371,120z M100.377,120
			c-0.222,0-0.451-0.072-0.668-0.139c-0.22-0.047-0.436-0.137-0.639-0.235c-0.418-0.166-0.781-0.454-1.125-0.735
			c-0.326-0.307-0.625-0.645-0.883-1.009c-0.256-0.362-0.48-0.753-0.676-1.151c-0.389-0.799-0.803-1.649-0.977-2.521
			c-0.176-0.869-0.41-1.757-0.41-2.644V111h0.377c3.334,0,6.666,0,10,0H105v0.566c0,0.887,0.143,1.772-0.033,2.642
			s-0.332,1.72-0.722,2.519c-0.195,0.397-0.358,0.783-0.616,1.146c-0.256,0.363-0.525,0.695-0.852,1.001
			c-0.346,0.282-0.691,0.556-1.109,0.721c-0.201,0.099-0.412,0.22-0.635,0.27c-0.221,0.065-0.432,0.138-0.65,0.138L100.377,120
			L100.377,120z"/>
	</g>
	
		<line fill="#FFFFFF" stroke="#000000" stroke-width="0.5" stroke-miterlimit="10" x1="93.701" y1="129.24" x2="93.75" y2="132.167"/>
	
		<line fill="#FFFFFF" stroke="#000000" stroke-width="0.5" stroke-miterlimit="10" x1="97.462" y1="126.667" x2="97.489" y2="133.251"/>
	
		<line fill="#FFFFFF" stroke="#000000" stroke-width="0.5" stroke-miterlimit="10" x1="102.951" y1="126.751" x2="103" y2="133.584"/>
	
		<line fill="#FFFFFF" stroke="#000000" stroke-width="0.5" stroke-miterlimit="10" x1="107.367" y1="129.657" x2="107.416" y2="132.584"/>
</g>
</svg>
