<?xml version="1.0" encoding="utf-8"?>
<!-- Generator: Adobe Illustrator 16.0.0, SVG Export Plug-In . SVG Version: 6.00 Build 0)  -->
<!DOCTYPE svg PUBLIC "-//W3C//DTD SVG 1.1//EN" "http://www.w3.org/Graphics/SVG/1.1/DTD/svg11.dtd">
<svg version="1.1" xmlns="http://www.w3.org/2000/svg" xmlns:xlink="http://www.w3.org/1999/xlink" x="0px" y="0px" width="200px"
	 height="225px" viewBox="0 0 200 225" enable-background="new 0 0 200 225" xml:space="preserve">
<g id="Ext">
</g>
<g id="Guides">
</g>
<g id="_x31_2_Col_Grid_1_" display="none" enable-background="new    ">
	<g id="Rectangle_xA0_Image_23_" display="inline" opacity="0.102">
	</g>
	<g id="Rectangle_xA0_Image_21_" display="inline" opacity="0.102">
	</g>
	<g id="Rectangle_xA0_Image_19_" display="inline" opacity="0.102">
	</g>
	<g id="Rectangle_xA0_Image_17_" display="inline" opacity="0.102">
	</g>
	<g id="Rectangle_xA0_Image_15_" display="inline" opacity="0.102">
	</g>
	<g id="Rectangle_xA0_Image_13_" display="inline" opacity="0.102">
	</g>
	<g id="Rectangle_xA0_Image_11_" display="inline" opacity="0.102">
	</g>
	<g id="Rectangle_xA0_Image_9_" display="inline" opacity="0.102">
	</g>
	<g id="Rectangle_xA0_Image_7_" display="inline" opacity="0.102">
	</g>
	<g id="Rectangle_xA0_Image_5_" display="inline" opacity="0.102">
	</g>
	<g id="Rectangle_xA0_Image_3_" display="inline" opacity="0.102">
	</g>
	<g id="Rectangle_xA0_Image_1_" display="inline" opacity="0.102">
	</g>
</g>
<g id="Bg">
</g>
<g id="main">
	<g id="Progress">
	</g>
	<g id="Text">
	</g>
</g>
<g id="pane">
</g>
<g id="browserhead">
	<g>
		<path fill="#F9DEFC" stroke="#020200" stroke-width="0.7754" stroke-miterlimit="10" d="M107.705,142.76
			c-3.211-1.386-7.291-2.22-11.737-2.22c-4.448,0-8.527,0.834-11.738,2.22c-1.468-0.794-2.751-1.73-3.803-2.782
			c3.354-2.676,9.062-4.438,15.541-4.438c6.478,0,12.185,1.763,15.543,4.438C110.457,141.03,109.174,141.967,107.705,142.76z"/>
		<g>
			<g>
				<path fill="#F9DEFC" d="M133.374,124.5c0-3.634-2.372-7.008-6.435-9.805c-0.168-0.117-0.34-0.227-0.515-0.337
					c-6.799-4.452-17.942-7.358-30.551-7.358c-12.602,0-23.742,2.904-30.542,7.353c-0.177,0.113-0.356,0.226-0.528,0.347
					c-4.058,2.796-6.43,6.169-6.43,9.801c0,0.353,0.031,0.703,0.074,1.051c-0.046,0.478-0.074,0.96-0.074,1.449
					c0,8.284,6.717,15,15,15c2.056,0,3.999-0.443,5.781-1.193c2.203-5.101,8.856-8.807,16.721-8.807
					c7.865,0,14.516,3.707,16.721,8.807c1.779,0.751,3.724,1.193,5.777,1.193c8.283,0,15-6.716,15-15
					c0-0.488-0.027-0.969-0.073-1.445C133.346,125.206,133.374,124.854,133.374,124.5z"/>
				<path fill="#020200" d="M133.197,124.502c0.002-1.898-0.625-3.698-1.676-5.251c-1.047-1.56-2.426-2.842-3.92-3.966
					c-0.733-0.593-1.526-1.064-2.35-1.521c-0.82-0.459-1.609-0.97-2.48-1.32c-0.859-0.375-1.694-0.798-2.569-1.134l-2.65-0.945
					c-0.882-0.323-1.803-0.52-2.702-0.784c-0.903-0.257-1.807-0.504-2.732-0.668l-2.758-0.563l-2.787-0.396
					c-1.852-0.313-3.732-0.366-5.6-0.542c-1.869-0.08-3.756-0.125-5.617-0.117l-2.82,0.101l-1.408,0.053l-1.398,0.128l-2.793,0.253
					l-2.778,0.411c-1.862,0.226-3.674,0.713-5.507,1.082l-2.699,0.763c-0.447,0.135-0.902,0.245-1.344,0.398l-1.314,0.482
					c-1.775,0.588-3.453,1.403-5.133,2.204l-2.404,1.406c-0.203,0.111-0.389,0.242-0.589,0.373c-0.166,0.102-0.37,0.271-0.554,0.404
					c-0.37,0.285-0.764,0.558-1.115,0.854c-1.4,1.155-2.666,2.547-3.535,4.127c-0.879,1.59-1.28,3.361-1.059,5.189l-0.002,0.072
					c-0.006,0.621-0.107,1.258-0.041,1.864l0.053,0.966c0.033,0.313,0.094,0.609,0.137,0.915c0.066,0.608,0.265,1.21,0.412,1.814
					c0.197,0.591,0.4,1.184,0.662,1.749c0.27,0.562,0.535,1.127,0.883,1.646c0.305,0.547,0.703,1.028,1.074,1.528
					c0.405,0.471,0.816,0.944,1.271,1.367c0.459,0.421,0.92,0.84,1.436,1.191c0.484,0.394,1.038,0.684,1.566,1.011
					c0.554,0.278,1.107,0.569,1.689,0.784c0.582,0.216,1.165,0.432,1.774,0.559c0.597,0.18,1.216,0.243,1.829,0.338
					c0.604,0.073,1.265,0.083,1.832,0.097c0.633-0.053,1.316-0.035,1.893-0.166l0.896-0.149l0.897-0.242
					c0.606-0.132,1.169-0.414,1.758-0.607l-0.315,0.312c0.373-0.796,0.795-1.569,1.325-2.262c0.26-0.35,0.526-0.694,0.829-1.006
					c0.283-0.33,0.594-0.631,0.916-0.92c0.632-0.591,1.324-1.109,2.04-1.583c0.718-0.473,1.47-0.89,2.242-1.256
					c0.773-0.365,1.567-0.687,2.378-0.95c0.811-0.268,1.633-0.499,2.469-0.663c0.83-0.188,1.676-0.303,2.521-0.394
					c0.846-0.095,1.695-0.118,2.546-0.137c0.862,0.02,1.665,0.04,2.541,0.136c0.855,0.088,1.693,0.206,2.524,0.403
					c0.834,0.171,1.654,0.409,2.46,0.683c0.808,0.271,1.599,0.598,2.366,0.968c0.768,0.372,1.514,0.793,2.225,1.271
					c0.71,0.477,1.395,0.999,2.017,1.591c0.318,0.29,0.624,0.592,0.903,0.921c0.299,0.311,0.557,0.657,0.81,1.008
					c0.517,0.692,0.922,1.463,1.278,2.251l-0.232-0.229c0.59,0.205,1.156,0.495,1.769,0.636l0.906,0.254l0.927,0.164
					c0.615,0.141,1.247,0.125,1.873,0.185c0.598-0.005,1.288-0.012,1.9-0.08c0.617-0.089,1.238-0.146,1.85-0.322
					c0.622-0.125,1.218-0.338,1.814-0.552c0.595-0.214,1.162-0.504,1.729-0.783c0.542-0.327,1.11-0.619,1.609-1.016
					c0.53-0.354,1.005-0.776,1.479-1.203c0.469-0.429,0.896-0.906,1.312-1.388c0.382-0.511,0.791-1.003,1.105-1.561
					c0.357-0.531,0.631-1.109,0.909-1.685c0.27-0.578,0.479-1.186,0.683-1.79c0.155-0.62,0.359-1.23,0.433-1.869
					c0.047-0.316,0.109-0.632,0.144-0.949l-0.06-0.96c0.068-0.64-0.151-1.279-0.151-1.926v-0.005v-0.007L133.197,124.502z
					 M133.25,124.498l-0.25,1.065v-0.012c0,0.642,0.308,1.289,0.247,1.937l0.052,0.972c-0.031,0.322-0.043,0.643-0.086,0.964
					c-0.064,0.647-0.238,1.27-0.387,1.901c-0.197,0.616-0.39,1.237-0.654,1.829c-0.274,0.59-0.539,1.183-0.895,1.729
					c-0.312,0.574-0.718,1.082-1.101,1.609c-0.416,0.498-0.833,1.003-1.302,1.454c-0.473,0.451-0.948,0.898-1.481,1.279
					c-0.502,0.422-1.075,0.74-1.626,1.094c-0.576,0.306-1.155,0.623-1.766,0.862c-0.609,0.24-1.223,0.479-1.864,0.627
					c-0.626,0.2-1.289,0.285-1.945,0.396c-0.665,0.09-1.269,0.112-1.957,0.14c-0.657-0.041-1.325-0.009-1.976-0.135l-0.982-0.145
					l-0.964-0.238c-0.651-0.132-1.256-0.414-1.888-0.616l-0.141-0.045l-0.092-0.186c-0.35-0.713-0.74-1.407-1.237-2.033
					c-0.243-0.316-0.491-0.627-0.772-0.912c-0.264-0.301-0.553-0.576-0.854-0.841c-0.589-0.542-1.238-1.02-1.913-1.457
					c-0.675-0.437-1.385-0.821-2.116-1.16c-0.731-0.338-1.484-0.635-2.255-0.877c-0.769-0.247-1.551-0.46-2.346-0.607
					c-0.788-0.171-1.6-0.274-2.394-0.362c-0.775-0.089-1.632-0.112-2.43-0.132c-0.81,0.02-1.62,0.04-2.425,0.131
					c-0.805,0.085-1.609,0.193-2.396,0.372c-0.793,0.154-1.573,0.374-2.338,0.627c-0.768,0.249-1.517,0.552-2.244,0.895
					c-0.727,0.344-1.43,0.733-2.098,1.174s-1.311,0.922-1.891,1.465c-0.297,0.266-0.582,0.541-0.84,0.842
					c-0.278,0.284-0.519,0.598-0.754,0.914c-0.482,0.626-0.855,1.318-1.189,2.024l-0.116,0.245l-0.199,0.067
					c-0.634,0.214-1.243,0.502-1.899,0.643l-0.973,0.251l-1.014,0.159c-0.689,0.136-1.307,0.105-1.959,0.154
					c-0.717-0.018-1.352-0.038-2.025-0.122c-0.66-0.106-1.326-0.185-1.967-0.382c-0.654-0.146-1.28-0.381-1.904-0.62
					c-0.623-0.237-1.216-0.555-1.807-0.86c-0.566-0.354-1.154-0.675-1.672-1.1c-0.547-0.383-1.039-0.835-1.525-1.291
					c-0.482-0.458-0.918-0.967-1.346-1.477c-0.394-0.537-0.812-1.057-1.134-1.643c-0.365-0.559-0.644-1.164-0.927-1.768
					c-0.272-0.605-0.484-1.241-0.688-1.872c-0.156-0.648-0.357-1.279-0.429-1.957c-0.046-0.333-0.107-0.671-0.138-0.999
					l-0.045-0.966c-0.064-0.681,0.043-1.332,0.059-1.999l-0.002,0.072c-0.225-1.917,0.24-3.982,1.207-5.666
					c0.963-1.709,2.287-3.142,3.795-4.365c0.369-0.306,0.754-0.566,1.129-0.853c0.199-0.142,0.356-0.275,0.59-0.423
					c0.194-0.125,0.396-0.265,0.605-0.379l2.479-1.424c1.721-0.807,3.439-1.623,5.246-2.207l1.338-0.48
					c0.448-0.151,0.91-0.261,1.364-0.393l2.738-0.752c1.856-0.36,3.692-0.838,5.573-1.053l2.807-0.394l2.83-0.235
					c1.888-0.212,3.764-0.148,5.646-0.219c1.898,0.02,3.778,0.092,5.664,0.2c1.875,0.204,3.765,0.284,5.623,0.626l2.795,0.439
					l2.764,0.606c0.928,0.178,1.834,0.439,2.737,0.71c0.9,0.28,1.823,0.488,2.704,0.823l2.654,0.981
					c0.875,0.348,1.717,0.784,2.576,1.172c0.875,0.364,1.661,0.884,2.477,1.353c0.814,0.469,1.635,0.947,2.369,1.541
					c1.502,1.129,2.828,2.419,3.885,3.994C132.646,120.734,133.256,122.61,133.25,124.498z"/>
			</g>
			<path fill="#020202" stroke="#020200" stroke-width="1.7652" stroke-miterlimit="10" d="M76.241,137.447
				c-1.959,1.945-6.476,0.574-10.084-3.061c-3.604-3.635-4.942-8.16-2.982-10.105c1.962-1.945,6.476-0.575,10.083,3.061
				C76.866,130.978,78.201,135.504,76.241,137.447z"/>
			
				<ellipse transform="matrix(-0.5125 0.8587 -0.8587 -0.5125 296.4224 92.4451)" fill="#020202" stroke="#020200" stroke-width="1.7652" stroke-miterlimit="10" cx="121.969" cy="130.368" rx="9.274" ry="5"/>
		</g>
	</g>
</g>
</svg>
