<?xml version="1.0" encoding="utf-8"?>
<!-- Generator: Adobe Illustrator 16.0.0, SVG Export Plug-In . SVG Version: 6.00 Build 0)  -->
<!DOCTYPE svg PUBLIC "-//W3C//DTD SVG 1.1//EN" "http://www.w3.org/Graphics/SVG/1.1/DTD/svg11.dtd">
<svg version="1.1" id="Layer_1" xmlns="http://www.w3.org/2000/svg" xmlns:xlink="http://www.w3.org/1999/xlink" x="0px" y="0px"
	 width="200px" height="225px" viewBox="0 0 200 225" enable-background="new 0 0 200 225" xml:space="preserve">
<g id="Ext">
</g>
<g id="Guides">
</g>
<g id="_x31_2_Col_Grid_1_" display="none" enable-background="new    ">
	<g id="Rectangle_xA0_Image_23_" display="inline" opacity="0.102">
	</g>
	<g id="Rectangle_xA0_Image_21_" display="inline" opacity="0.102">
	</g>
	<g id="Rectangle_xA0_Image_19_" display="inline" opacity="0.102">
	</g>
	<g id="Rectangle_xA0_Image_17_" display="inline" opacity="0.102">
	</g>
	<g id="Rectangle_xA0_Image_15_" display="inline" opacity="0.102">
	</g>
	<g id="Rectangle_xA0_Image_13_" display="inline" opacity="0.102">
	</g>
	<g id="Rectangle_xA0_Image_11_" display="inline" opacity="0.102">
	</g>
	<g id="Rectangle_xA0_Image_9_" display="inline" opacity="0.102">
	</g>
	<g id="Rectangle_xA0_Image_7_" display="inline" opacity="0.102">
	</g>
	<g id="Rectangle_xA0_Image_5_" display="inline" opacity="0.102">
	</g>
	<g id="Rectangle_xA0_Image_3_" display="inline" opacity="0.102">
	</g>
	<g id="Rectangle_xA0_Image_1_" display="inline" opacity="0.102">
	</g>
</g>
<g id="Bg">
</g>
<g id="main">
	<g id="Progress">
	</g>
	<g id="Text">
	</g>
</g>
<g id="pane">
</g>
<g>
	<path fill="#422009" stroke="#422009" stroke-width="3" stroke-miterlimit="10" d="M104.259,70.953
		c6.104-8.296,21.058-24.495,32.964-14.593c3.596,2.992,5.864,8.285,8.184,12.429c1.261,2.253,2.562,4.084,2.976,6.844
		c0.716,4.761,1.068,19.415-3.276,21.974c-0.035,7.74-13.09,16.415-19.405,10.363c-1.958-1.874-2.216-4.645-4.698-6.458
		c-1.434-1.046-4.252-1.43-6.095-1.802c-4.304-0.87-10.771,0.854-14.496-1.806c-7.524-5.375,0.854-19.786,4.614-25.257
		c1.928-2.806,3.951-5.999,6.211-8.464c1.762-1.918,4.604-3.311,5.902-6.106"/>
	<g>
		
			<ellipse transform="matrix(0.5303 -0.8478 0.8478 0.5303 -9.019 145.7213)" fill="#705750" stroke="#000000" stroke-miterlimit="10" cx="127" cy="81" rx="15" ry="16"/>
		<path fill="#FCFCFC" stroke="#020200" stroke-miterlimit="10" d="M135.095,84.883c-0.137,0.302-0.284,0.601-0.465,0.889
			c-2.343,3.746-7.658,4.646-11.872,2.01c-4.213-2.635-5.73-7.81-3.388-11.555c0.18-0.289,0.383-0.553,0.596-0.807l-5.954-3.725
			c-0.195,0.27-0.397,0.532-0.577,0.819c-4.393,7.023-1.88,16.516,5.611,21.202c7.491,4.686,17.126,2.791,21.519-4.232
			c0.18-0.287,0.328-0.583,0.486-0.876L135.095,84.883z"/>
		<path fill="#020200" stroke="#020200" stroke-width="0.5477" stroke-miterlimit="10" d="M119.966,75.421
			c-0.213,0.253-0.416,0.518-0.596,0.807c-2.343,3.745-0.825,8.92,3.388,11.555c4.214,2.636,9.529,1.736,11.872-2.01
			c0.181-0.288,0.328-0.587,0.465-0.889L119.966,75.421z"/>
	</g>
	<g>
		
			<ellipse transform="matrix(-0.3432 -0.9393 0.9393 -0.3432 12.5691 170.7894)" fill="#705750" stroke="#000000" stroke-miterlimit="10" cx="66" cy="81" rx="15" ry="16"/>
		<path fill="#FCFCFC" stroke="#020200" stroke-miterlimit="10" d="M74.037,76.999c0.154,0.292,0.299,0.593,0.417,0.912
			c1.516,4.149-1.039,8.897-5.708,10.603c-4.667,1.706-9.682-0.275-11.199-4.425c-0.116-0.319-0.201-0.642-0.27-0.966l-6.596,2.411
			c0.091,0.32,0.175,0.641,0.291,0.958c2.843,7.781,11.877,11.63,20.176,8.598c8.3-3.033,12.724-11.799,9.881-19.58
			c-0.116-0.317-0.259-0.617-0.393-0.921L74.037,76.999z"/>
		<path stroke="#020200" stroke-width="0.5477" stroke-miterlimit="10" d="M57.277,83.123c0.068,0.324,0.153,0.647,0.27,0.966
			c1.517,4.15,6.532,6.13,11.199,4.425c4.67-1.706,7.225-6.453,5.708-10.603c-0.117-0.319-0.262-0.62-0.417-0.912L57.277,83.123z"/>
	</g>
	<g>
		<path fill="#CFEFFF" d="M133.5,134.177c0,3.515-2.91,6.363-6.5,6.363s-6.5-2.851-6.5-6.363s2.91-13.637,6.5-13.637
			S133.5,130.663,133.5,134.177z"/>
		<path d="M133.551,134.182c0,0-0.021,0.202-0.06,0.581c-0.02,0.189-0.043,0.423-0.071,0.697c-0.084,0.267-0.181,0.573-0.289,0.916
			c-0.246,0.672-0.68,1.439-1.343,2.19c-0.142,0.211-0.368,0.348-0.564,0.527c-0.21,0.162-0.401,0.368-0.646,0.509
			c-0.495,0.268-0.993,0.61-1.604,0.759c-0.581,0.247-1.236,0.274-1.907,0.361c-0.698-0.049-1.337-0.021-2.059-0.273
			c-1.412-0.384-2.742-1.282-3.669-2.591c-0.949-1.296-1.296-3.047-1.135-4.683c0.156-1.631,0.518-3.235,0.965-4.818
			c0.452-1.581,1.007-3.139,1.744-4.609c0.371-0.733,0.792-1.446,1.32-2.096c0.525-0.638,1.168-1.274,2.088-1.548
			c0.243-0.069,0.432-0.091,0.749-0.093l0.281,0.025c0.106,0.016,0.247,0.054,0.367,0.085c0.461,0.147,0.831,0.364,1.152,0.628
			c0.648,0.516,1.103,1.136,1.489,1.753c0.763,1.241,1.282,2.487,1.662,3.663c0.779,2.346,1.118,4.366,1.35,5.773
			c0.216,1.414,0.18,2.237,0.18,2.237L133.551,134.182z M133.448,134.177c0,0-0.003-0.812-0.283-2.201
			c-0.258-1.39-0.843-3.346-1.802-5.556c-0.497-1.094-1.055-2.277-1.819-3.377c-0.75-1.046-1.797-2.249-2.938-1.904
			c-0.56,0.146-1.115,0.616-1.578,1.173c-0.468,0.561-0.887,1.204-1.256,1.888c-0.739,1.368-1.328,2.868-1.814,4.395
			c-0.473,1.53-0.863,3.102-1.049,4.653c-0.18,1.527,0.088,3.061,0.924,4.276c0.804,1.216,2.045,2.056,3.291,2.469
			c0.591,0.263,1.339,0.28,1.939,0.353c0.633-0.057,1.262-0.05,1.825-0.262c0.593-0.114,1.084-0.422,1.576-0.659
			c0.242-0.127,0.433-0.319,0.644-0.47c0.196-0.167,0.425-0.293,0.569-0.493c0.684-0.7,1.122-1.461,1.355-2.118
			c0.106-0.335,0.201-0.633,0.284-0.894c0.028-0.274,0.052-0.508,0.071-0.697c0.039-0.379,0.061-0.58,0.061-0.58L133.448,134.177z"
			/>
	</g>
	<g>
		<path fill="#CFEFFF" d="M133.25,108.524c0,3.991-2.91,7.226-6.5,7.226s-6.5-3.237-6.5-7.226s2.91-15.484,6.5-15.484
			S133.25,104.535,133.25,108.524z"/>
		<path d="M133.305,108.526c0,0-0.01,0.223-0.028,0.638c-0.037,0.416-0.109,1.033-0.349,1.777c-0.236,0.742-0.633,1.62-1.305,2.483
			c-0.666,0.863-1.654,1.684-2.938,2.162c-1.285,0.452-2.867,0.526-4.344-0.083c-1.48-0.58-2.78-1.802-3.565-3.345
			c-0.804-1.538-1.029-3.423-0.804-5.181c0.181-1.766,0.531-3.523,0.975-5.26c0.445-1.736,0.987-3.453,1.719-5.087
			c0.371-0.815,0.786-1.613,1.324-2.352c0.54-0.714,1.197-1.479,2.276-1.755c0.132-0.028,0.272-0.034,0.409-0.047l0.051-0.004
			c0.033,0.001-0.037-0.004,0.081,0.001l0.02,0.002l0.076,0.008l0.154,0.016c0.213,0.028,0.587,0.133,0.772,0.245
			c0.452,0.225,0.813,0.529,1.113,0.851c0.612,0.641,1.041,1.348,1.398,2.051c0.717,1.406,1.196,2.792,1.554,4.09
			c0.724,2.593,1.031,4.805,1.248,6.345C133.342,107.628,133.305,108.525,133.305,108.526z M133.195,108.523
			c0,0-0.005-0.884-0.273-2.409c-0.246-1.524-0.817-3.675-1.741-6.143c-0.487-1.221-1.014-2.55-1.754-3.825
			c-0.374-0.629-0.785-1.264-1.284-1.777c-0.246-0.262-0.523-0.476-0.804-0.61c-0.173-0.082-0.202-0.091-0.392-0.129l-0.154-0.015
			l-0.077-0.007l-0.02-0.002c0.105,0.005,0.022,0.002,0.042,0.004l-0.025,0.003c-0.069,0.013-0.138,0.011-0.207,0.026
			c-0.568,0.119-1.164,0.665-1.634,1.296c-0.479,0.639-0.897,1.368-1.27,2.131c-0.741,1.532-1.322,3.194-1.808,4.878
			c-0.474,1.688-0.857,3.41-1.072,5.113c-0.252,1.696-0.079,3.367,0.623,4.814c0.685,1.443,1.865,2.563,3.192,3.166
			c1.333,0.621,2.82,0.626,4.048,0.252c1.239-0.396,2.232-1.149,2.911-1.971c0.698-0.813,1.102-1.681,1.326-2.415
			c0.235-0.735,0.307-1.338,0.343-1.748C133.186,108.743,133.195,108.523,133.195,108.523z"/>
	</g>
	<g>
		<path fill="#CFEFFF" d="M75.5,106.524c0,3.991-2.91,7.226-6.5,7.226s-6.5-3.236-6.5-7.226c0-3.989,2.91-15.484,6.5-15.484
			S75.5,102.535,75.5,106.524z"/>
		<path d="M75.555,106.525c0,0-0.01,0.223-0.028,0.639c-0.037,0.415-0.109,1.033-0.349,1.776c-0.236,0.741-0.633,1.62-1.305,2.483
			c-0.666,0.863-1.654,1.684-2.938,2.162c-1.285,0.452-2.867,0.526-4.344-0.083c-1.48-0.58-2.78-1.802-3.565-3.345
			c-0.804-1.538-1.029-3.424-0.804-5.182c0.181-1.766,0.531-3.523,0.975-5.259c0.445-1.736,0.987-3.453,1.719-5.087
			c0.371-0.815,0.786-1.613,1.324-2.352c0.54-0.714,1.197-1.479,2.276-1.755c0.132-0.028,0.272-0.034,0.409-0.047l0.051-0.004
			c0.033,0.001-0.037-0.004,0.081,0.001l0.02,0.002l0.076,0.008l0.154,0.016c0.213,0.028,0.587,0.133,0.772,0.245
			c0.452,0.225,0.813,0.529,1.113,0.851c0.612,0.641,1.041,1.348,1.398,2.051c0.717,1.406,1.196,2.792,1.554,4.09
			c0.724,2.593,1.031,4.805,1.248,6.346C75.592,105.629,75.555,106.525,75.555,106.525z M75.445,106.523
			c0,0-0.005-0.885-0.273-2.409c-0.246-1.524-0.817-3.675-1.741-6.143c-0.487-1.221-1.014-2.55-1.754-3.825
			c-0.374-0.629-0.785-1.264-1.284-1.777c-0.246-0.262-0.523-0.476-0.804-0.61c-0.173-0.082-0.202-0.091-0.392-0.129l-0.154-0.015
			l-0.077-0.007l-0.02-0.002c0.105,0.005,0.022,0.002,0.042,0.004l-0.025,0.003c-0.069,0.013-0.138,0.011-0.207,0.026
			c-0.568,0.119-1.164,0.665-1.634,1.296c-0.479,0.639-0.897,1.368-1.27,2.131c-0.741,1.532-1.322,3.194-1.808,4.878
			c-0.474,1.688-0.857,3.41-1.072,5.113c-0.252,1.696-0.079,3.366,0.623,4.814c0.685,1.443,1.865,2.563,3.192,3.166
			c1.333,0.621,2.82,0.626,4.048,0.252c1.239-0.396,2.232-1.149,2.911-1.971c0.698-0.813,1.102-1.681,1.326-2.415
			c0.235-0.734,0.307-1.338,0.343-1.748C75.436,106.743,75.445,106.523,75.445,106.523z"/>
	</g>
	<g>
		<path fill="#CFEFFF" d="M75.75,133.927c0,3.515-2.91,6.363-6.5,6.363s-6.5-2.851-6.5-6.363s2.91-13.637,6.5-13.637
			S75.75,130.413,75.75,133.927z"/>
		<path d="M75.801,133.932c0,0-0.021,0.202-0.06,0.581c-0.02,0.189-0.043,0.423-0.071,0.697c-0.084,0.267-0.181,0.573-0.289,0.916
			c-0.246,0.672-0.68,1.439-1.343,2.19c-0.142,0.211-0.368,0.348-0.564,0.527c-0.21,0.162-0.401,0.368-0.646,0.509
			c-0.495,0.268-0.993,0.61-1.604,0.759c-0.581,0.247-1.236,0.274-1.907,0.361c-0.698-0.049-1.337-0.021-2.059-0.273
			c-1.412-0.384-2.742-1.282-3.669-2.591c-0.949-1.296-1.296-3.047-1.135-4.683c0.156-1.631,0.518-3.235,0.965-4.818
			c0.452-1.581,1.007-3.139,1.744-4.609c0.371-0.733,0.792-1.446,1.32-2.096c0.525-0.638,1.168-1.274,2.088-1.548
			c0.243-0.069,0.432-0.091,0.749-0.093l0.281,0.025c0.106,0.016,0.247,0.054,0.367,0.085c0.461,0.147,0.831,0.364,1.152,0.628
			c0.648,0.516,1.103,1.136,1.489,1.753c0.763,1.241,1.282,2.487,1.662,3.663c0.779,2.346,1.118,4.366,1.35,5.773
			c0.216,1.414,0.18,2.237,0.18,2.237L75.801,133.932z M75.698,133.927c0,0-0.003-0.812-0.283-2.201
			c-0.258-1.39-0.843-3.346-1.802-5.556c-0.497-1.094-1.055-2.277-1.819-3.377c-0.75-1.046-1.797-2.249-2.938-1.904
			c-0.56,0.146-1.115,0.616-1.578,1.173c-0.468,0.561-0.887,1.204-1.256,1.888c-0.739,1.368-1.328,2.868-1.814,4.395
			c-0.473,1.53-0.863,3.102-1.049,4.653c-0.18,1.527,0.088,3.061,0.924,4.276c0.804,1.216,2.045,2.056,3.291,2.469
			c0.591,0.263,1.339,0.28,1.939,0.353c0.633-0.057,1.262-0.05,1.825-0.262c0.593-0.114,1.084-0.422,1.576-0.659
			c0.242-0.127,0.433-0.319,0.644-0.47c0.196-0.167,0.425-0.293,0.569-0.493c0.684-0.7,1.122-1.461,1.355-2.118
			c0.106-0.335,0.201-0.633,0.284-0.894c0.028-0.274,0.052-0.508,0.071-0.697c0.039-0.379,0.061-0.58,0.061-0.58L75.698,133.927z"/>
	</g>
</g>
</svg>
