<?xml version="1.0" encoding="utf-8"?>
<!-- Generator: Adobe Illustrator 16.0.0, SVG Export Plug-In . SVG Version: 6.00 Build 0)  -->
<!DOCTYPE svg PUBLIC "-//W3C//DTD SVG 1.1//EN" "http://www.w3.org/Graphics/SVG/1.1/DTD/svg11.dtd">
<svg version="1.1" xmlns="http://www.w3.org/2000/svg" xmlns:xlink="http://www.w3.org/1999/xlink" x="0px" y="0px" width="200px"
	 height="225px" viewBox="0 0 200 225" enable-background="new 0 0 200 225" xml:space="preserve">
<g id="Ext">
</g>
<g id="Guides">
</g>
<g id="_x31_2_Col_Grid_1_" display="none" enable-background="new    ">
	<g id="Rectangle_xA0_Image_23_" display="inline" opacity="0.102">
	</g>
	<g id="Rectangle_xA0_Image_21_" display="inline" opacity="0.102">
	</g>
	<g id="Rectangle_xA0_Image_19_" display="inline" opacity="0.102">
	</g>
	<g id="Rectangle_xA0_Image_17_" display="inline" opacity="0.102">
	</g>
	<g id="Rectangle_xA0_Image_15_" display="inline" opacity="0.102">
	</g>
	<g id="Rectangle_xA0_Image_13_" display="inline" opacity="0.102">
	</g>
	<g id="Rectangle_xA0_Image_11_" display="inline" opacity="0.102">
	</g>
	<g id="Rectangle_xA0_Image_9_" display="inline" opacity="0.102">
	</g>
	<g id="Rectangle_xA0_Image_7_" display="inline" opacity="0.102">
	</g>
	<g id="Rectangle_xA0_Image_5_" display="inline" opacity="0.102">
	</g>
	<g id="Rectangle_xA0_Image_3_" display="inline" opacity="0.102">
	</g>
	<g id="Rectangle_xA0_Image_1_" display="inline" opacity="0.102">
	</g>
</g>
<g id="Bg">
</g>
<g id="main">
	<g id="Progress">
	</g>
	<g id="Text">
	</g>
</g>
<g id="pane">
</g>
<g id="browserhead">
	<g>
		<path fill="#FFE1CC" d="M58.548,44.997c-5.42-0.615-8.285,2.777-11.336,6.904c-3.072,4.158-9.163,5.961-11.234,10.373
			c9.841,4.74,26.554,9.232,29.399-6.039"/>
		<path fill="#FCAD77" d="M58.543,45.07l-0.925,0.021c-0.306,0.022-0.601,0.067-0.896,0.099l-0.879,0.167l-0.85,0.251
			c-0.549,0.212-1.08,0.455-1.57,0.77c-0.492,0.311-0.959,0.657-1.385,1.058c-0.434,0.389-0.836,0.817-1.235,1.249
			c-0.396,0.436-0.769,0.898-1.133,1.373c-0.362,0.475-0.714,0.964-1.06,1.461l-0.516,0.752l-0.129,0.188l-0.162,0.217l-0.274,0.37
			c-0.372,0.487-0.88,1.054-1.327,1.485c-0.461,0.462-0.945,0.893-1.436,1.297c-0.996,0.793-2.02,1.503-3,2.217
			c-0.49,0.355-0.965,0.716-1.43,1.079c-0.459,0.366-0.893,0.743-1.305,1.131l-0.58,0.6l-0.518,0.626l-0.443,0.654l-0.358,0.684
			l-0.602-1.694c1.315,0.614,2.663,1.152,3.999,1.711c1.344,0.541,2.708,1.029,4.09,1.442c1.381,0.413,2.78,0.756,4.188,0.998
			c1.408,0.251,2.825,0.36,4.229,0.396c0.703,0.017,1.402-0.012,2.097-0.076c0.693-0.071,1.375-0.195,2.047-0.362
			c0.662-0.189,1.316-0.41,1.934-0.714c0.614-0.303,1.214-0.651,1.747-1.089c0.278-0.206,0.54-0.433,0.792-0.673
			c0.268-0.226,0.5-0.487,0.732-0.753c0.467-0.525,0.884-1.109,1.24-1.733c0.195-0.304,0.354-0.628,0.506-0.958
			c0.163-0.325,0.316-0.656,0.437-1.002c0.296-0.672,0.507-1.379,0.735-2.088l0.145,0.027c-0.162,0.727-0.305,1.459-0.543,2.168
			c-0.098,0.36-0.229,0.709-0.371,1.055c-0.133,0.349-0.271,0.695-0.451,1.024c-0.32,0.673-0.711,1.317-1.164,1.911
			c-0.226,0.299-0.453,0.597-0.721,0.859c-0.249,0.28-0.516,0.542-0.809,0.778c-0.557,0.501-1.189,0.912-1.844,1.273
			c-0.656,0.362-1.355,0.638-2.064,0.876c-0.717,0.215-1.447,0.383-2.186,0.494c-0.74,0.104-1.485,0.169-2.232,0.186
			c-2.99,0.062-5.955-0.479-8.818-1.279c-2.865-0.813-5.65-1.896-8.329-3.194l-0.132-0.064l0.066-0.121l0.45-0.822l0.538-0.765
			l0.607-0.708l0.658-0.657c0.458-0.417,0.932-0.813,1.42-1.19c0.492-0.372,0.99-0.736,1.494-1.088
			c1.006-0.707,2.023-1.394,2.994-2.138s1.896-1.546,2.682-2.477c0.775-0.94,1.476-1.963,2.277-2.897
			c0.791-0.942,1.645-1.844,2.621-2.605c0.481-0.389,1.008-0.722,1.555-1.012c0.547-0.294,1.13-0.511,1.724-0.689l0.908-0.197
			c0.308-0.032,0.614-0.079,0.924-0.1c0.31-0.004,0.622-0.019,0.931-0.012l0.918,0.066L58.543,45.07z"/>
	</g>
	<g>
		<path fill="#FFE1CC" d="M141.806,43.997c5.42-0.615,8.285,2.777,11.335,6.904c3.073,4.158,9.164,5.961,11.236,10.373
			c-9.843,4.74-26.556,9.232-29.399-6.039"/>
		<path fill="#FCAD77" d="M141.801,43.924l0.912-0.149c0.309-0.034,0.627-0.048,0.946-0.071c0.317-0.011,0.633,0.022,0.952,0.035
			c0.315,0.039,0.632,0.09,0.949,0.143c0.625,0.146,1.249,0.334,1.84,0.604c0.59,0.267,1.165,0.583,1.692,0.956
			c1.083,0.721,1.981,1.649,2.835,2.575c0.424,0.468,0.832,0.944,1.229,1.425l0.591,0.722l0.146,0.181
			c0.002-0.006,0.088,0.098,0.127,0.141l0.306,0.346c0.416,0.452,0.766,0.771,1.231,1.159c0.44,0.372,0.907,0.723,1.396,1.06
			c0.949,0.706,1.961,1.374,2.987,2.076c0.514,0.351,1.029,0.718,1.543,1.098c0.513,0.387,1.018,0.8,1.512,1.241l0.722,0.704
			l0.678,0.775l0.614,0.854l0.523,0.934l0.613,1.094l-1.215,0.601c-1.361,0.672-2.739,1.317-4.172,1.83
			c-1.426,0.528-2.875,1.002-4.35,1.399s-2.975,0.722-4.5,0.94c-1.525,0.208-3.078,0.354-4.643,0.257
			c-0.781-0.048-1.562-0.144-2.34-0.283c-0.775-0.146-1.543-0.353-2.295-0.609c-0.746-0.28-1.479-0.601-2.164-1.013
			c-0.684-0.41-1.342-0.874-1.914-1.428l-0.432-0.408l-0.382-0.457c-0.265-0.295-0.483-0.623-0.7-0.95
			c-0.434-0.65-0.795-1.343-1.08-2.056c-0.162-0.349-0.281-0.712-0.394-1.077c-0.122-0.36-0.232-0.724-0.308-1.096
			c-0.183-0.735-0.257-1.487-0.354-2.227l0.145-0.027c0.163,0.722,0.308,1.447,0.548,2.147c0.098,0.357,0.229,0.702,0.371,1.043
			c0.133,0.345,0.272,0.687,0.45,1.01c0.32,0.664,0.707,1.297,1.156,1.879c0.223,0.293,0.446,0.585,0.712,0.842
			c0.246,0.274,0.51,0.531,0.797,0.761c0.549,0.49,1.172,0.891,1.816,1.243c0.646,0.353,1.334,0.619,2.033,0.851
			c0.707,0.208,1.426,0.371,2.156,0.478c0.73,0.1,1.467,0.159,2.204,0.173c2.958,0.049,5.899-0.502,8.741-1.31
			c2.846-0.818,5.605-1.921,8.281-3.189l-0.066,0.186l-0.432-0.795l-0.518-0.744l-0.589-0.693l-0.644-0.646
			c-0.447-0.412-0.914-0.806-1.396-1.182c-0.486-0.371-0.979-0.734-1.479-1.088c-1-0.709-2.017-1.402-2.993-2.156
			c-0.973-0.753-1.911-1.572-2.707-2.524c-0.782-0.959-1.467-1.971-2.262-2.905c-0.783-0.94-1.623-1.836-2.582-2.591
			c-0.473-0.385-0.988-0.714-1.523-1.002c-0.535-0.291-1.105-0.506-1.688-0.684l-0.891-0.197c-0.302-0.033-0.604-0.081-0.906-0.103
			c-0.304-0.004-0.605-0.021-0.911-0.016l-0.919,0.062L141.801,43.924z"/>
	</g>
</g>
</svg>
