<?xml version="1.0" encoding="utf-8"?>
<!-- Generator: Adobe Illustrator 16.0.0, SVG Export Plug-In . SVG Version: 6.00 Build 0)  -->
<!DOCTYPE svg PUBLIC "-//W3C//DTD SVG 1.1//EN" "http://www.w3.org/Graphics/SVG/1.1/DTD/svg11.dtd">
<svg version="1.1" xmlns="http://www.w3.org/2000/svg" xmlns:xlink="http://www.w3.org/1999/xlink" x="0px" y="0px" width="200px"
	 height="225px" viewBox="0 0 200 225" enable-background="new 0 0 200 225" xml:space="preserve">
<g id="Ext">
</g>
<g id="Guides">
</g>
<g id="_x31_2_Col_Grid_1_" display="none" enable-background="new    ">
	<g id="Rectangle_xA0_Image_23_" display="inline" opacity="0.102">
	</g>
	<g id="Rectangle_xA0_Image_21_" display="inline" opacity="0.102">
	</g>
	<g id="Rectangle_xA0_Image_19_" display="inline" opacity="0.102">
	</g>
	<g id="Rectangle_xA0_Image_17_" display="inline" opacity="0.102">
	</g>
	<g id="Rectangle_xA0_Image_15_" display="inline" opacity="0.102">
	</g>
	<g id="Rectangle_xA0_Image_13_" display="inline" opacity="0.102">
	</g>
	<g id="Rectangle_xA0_Image_11_" display="inline" opacity="0.102">
	</g>
	<g id="Rectangle_xA0_Image_9_" display="inline" opacity="0.102">
	</g>
	<g id="Rectangle_xA0_Image_7_" display="inline" opacity="0.102">
	</g>
	<g id="Rectangle_xA0_Image_5_" display="inline" opacity="0.102">
	</g>
	<g id="Rectangle_xA0_Image_3_" display="inline" opacity="0.102">
	</g>
	<g id="Rectangle_xA0_Image_1_" display="inline" opacity="0.102">
	</g>
</g>
<g id="Bg">
</g>
<g id="main">
	<g id="Progress">
	</g>
	<g id="Text">
	</g>
</g>
<g id="pane">
</g>
<g id="browserhead">
	<path fill="#FFE1CC" stroke="#FCAD77" stroke-width="1.4655" stroke-miterlimit="10" d="M76.502,209.248
		c-1.008,4.018-5.08,6.457-9.1,5.451l0,0c-4.018-1.008-6.458-5.08-5.451-9.1l3.648-14.55c1.007-4.018,5.079-6.457,9.098-5.451l0,0
		c4.02,1.008,6.459,5.08,5.451,9.1L76.502,209.248z"/>
	
		<ellipse transform="matrix(0.9786 0.206 -0.206 0.9786 44.6837 -9.6752)" stroke="#000000" stroke-width="0.25" stroke-miterlimit="10" cx="68.808" cy="209.76" rx="7.659" ry="4.999"/>
	<path fill="#FFE1CC" stroke="#FCAD77" stroke-width="1.4655" stroke-miterlimit="10" d="M134.252,208.801
		c1.005,4.018,5.077,6.457,9.097,5.451l0,0c4.019-1.008,6.458-5.08,5.451-9.1l-3.647-14.55c-1.007-4.018-5.08-6.457-9.098-5.451l0,0
		c-4.02,1.008-6.46,5.08-5.451,9.1L134.252,208.801z"/>
	
		<ellipse transform="matrix(-0.9786 0.206 -0.206 -0.9786 323.6584 384.9958)" stroke="#000000" stroke-width="0.25" stroke-miterlimit="10" cx="141.789" cy="209.346" rx="7.5" ry="5"/>
	<path fill="#FFFFE3" stroke="#F4F071" stroke-miterlimit="10" d="M195.377,102.425c0-3.662-2.625-6.705-6.095-7.363
		c-0.013-0.09-0.027-0.178-0.039-0.268c3.487-0.643,6.134-3.693,6.134-7.369c0-4.143-3.359-7.5-7.5-7.5
		c-0.653,0-1.282,0.092-1.884,0.248c-0.086-0.271-0.179-0.541-0.268-0.812c2.728-1.121,4.651-3.803,4.651-6.936
		c0-4.143-3.359-7.5-7.5-7.5c-1.072,0-2.089,0.229-3.011,0.633c-0.142-0.266-0.284-0.533-0.429-0.797
		c3.392-0.719,5.939-3.729,5.939-7.336c0-4.143-3.359-7.5-7.5-7.5c-1.165,0-2.265,0.273-3.249,0.748
		c0.474-0.984,0.749-2.082,0.749-3.248c0-4.143-3.359-7.5-7.5-7.5c-2.247,0-4.258,0.992-5.632,2.557
		c-0.252-0.238-0.511-0.473-0.766-0.707c0.876-1.229,1.397-2.727,1.397-4.35c0-4.143-3.359-7.5-7.5-7.5
		c-2.298,0-4.351,1.035-5.727,2.66c-0.285-0.188-0.571-0.375-0.86-0.559c0.99-1.271,1.587-2.865,1.587-4.602
		c0-4.143-3.359-7.5-7.5-7.5c-3.354,0-6.189,2.199-7.151,5.234c-0.25-0.107-0.5-0.219-0.753-0.322
		c0.257-0.758,0.404-1.566,0.404-2.412c0-4.143-3.359-7.5-7.5-7.5c-3.392,0-6.252,2.25-7.181,5.338
		c-0.271-0.062-0.541-0.123-0.812-0.184c0.312-0.826,0.493-1.719,0.493-2.654c0-4.143-3.359-7.5-7.5-7.5c-4.144,0-7.5,3.357-7.5,7.5
		c0,0.219,0.013,0.434,0.032,0.648c-0.022-0.002-0.044-0.004-0.065-0.004c0.018-0.213,0.033-0.428,0.033-0.645
		c0-4.143-3.359-7.5-7.5-7.5c-4.144,0-7.5,3.357-7.5,7.5c0,0.334,0.028,0.66,0.07,0.982c-0.049,0.004-0.098,0.012-0.146,0.016
		c0.044-0.326,0.076-0.658,0.076-0.998c0-4.143-3.359-7.5-7.5-7.5c-4.144,0-7.5,3.357-7.5,7.5c0,1.303,0.333,2.529,0.917,3.596
		c-0.338,0.09-0.677,0.178-1.013,0.271c-0.547-3.604-3.649-6.367-7.404-6.367c-4.144,0-7.5,3.357-7.5,7.5
		c0,1.459,0.422,2.816,1.143,3.967c-0.392,0.184-0.78,0.369-1.168,0.555c-0.247-3.918-3.494-7.021-7.475-7.021
		c-4.144,0-7.5,3.357-7.5,7.5c0,1.166,0.272,2.264,0.746,3.248c-0.983-0.475-2.082-0.748-3.246-0.748c-4.144,0-7.5,3.357-7.5,7.5
		c0,2.057,0.826,3.918,2.167,5.273c-0.278,0.262-0.553,0.527-0.827,0.793c-1.124-0.672-2.435-1.066-3.84-1.066
		c-4.144,0-7.5,3.357-7.5,7.5c0,0.887,0.161,1.734,0.441,2.523c-0.146-0.01-0.292-0.023-0.441-0.023c-4.144,0-7.5,3.357-7.5,7.5
		c0,2.09,0.855,3.98,2.235,5.34c-0.707-0.221-1.457-0.34-2.235-0.34c-4.144,0-7.5,3.357-7.5,7.5c0,2.883,1.625,5.381,4.01,6.637
		c-0.105,0.322-0.217,0.643-0.318,0.967c-0.39-0.062-0.786-0.104-1.191-0.104c-4.144,0-7.5,3.357-7.5,7.5
		c0,3.42,2.291,6.299,5.419,7.201c-0.027,0.207-0.06,0.412-0.086,0.619c-3.085,0.93-5.333,3.791-5.333,7.18
		c0,3.145,1.935,5.831,4.676,6.946c0.014,0.365,0.027,0.729,0.044,1.092c-2.766,1.105-4.72,3.803-4.72,6.963
		c0,3.832,2.875,6.986,6.585,7.439c0.17,0.781,0.35,1.561,0.54,2.336c-1.314,1.35-2.125,3.191-2.125,5.225
		c0,3.719,2.709,6.795,6.256,7.389c0.317,0.762,0.644,1.52,0.979,2.27c-1.379,1.361-2.235,3.25-2.235,5.342
		c0,4.143,3.356,7.5,7.5,7.5c0.587,0,1.154-0.074,1.704-0.203c0.477,0.717,0.963,1.426,1.459,2.129
		c-0.425,0.939-0.663,1.977-0.663,3.074c0,4.143,3.356,7.5,7.5,7.5c0.595,0,1.171-0.076,1.725-0.209
		c0.546,0.568,1.097,1.129,1.657,1.68c-0.562,1.053-0.882,2.252-0.882,3.529c0,4.142,3.356,7.499,7.5,7.499
		c1.164,0,2.263-0.273,3.246-0.746c-0.474,0.982-0.746,2.082-0.746,3.246c0,4.143,3.356,7.5,7.5,7.5
		c3.021,0,5.618-1.789,6.805-4.363c0.28,0.137,0.558,0.273,0.838,0.408c-0.093,0.471-0.143,0.957-0.143,1.455
		c0,4.143,3.356,7.5,7.5,7.5c2.738,0,5.128-1.473,6.437-3.666c0.371,0.109,0.739,0.221,1.113,0.324
		c-0.031,0.277-0.05,0.557-0.05,0.842c0,4.144,3.356,7.501,7.5,7.501c3.459,0,6.366-2.348,7.229-5.536
		c0.187,0.02,0.369,0.043,0.555,0.062c0.885,3.155,3.774,5.474,7.216,5.474c3.315,0,6.125-2.154,7.113-5.138
		c0.252-0.014,0.503-0.031,0.755-0.047c0.976,3.009,3.798,5.185,7.132,5.185c4.065,0,7.366-3.236,7.487-7.274
		c0.008-0.002,0.016-0.004,0.022-0.006c0.118,4.04,3.421,7.28,7.49,7.28c4.141,0,7.5-3.357,7.5-7.501
		c0-1.514-0.452-2.918-1.225-4.098c0.416-0.168,0.83-0.336,1.243-0.508c0.206,3.957,3.471,7.105,7.481,7.105
		c4.141,0,7.5-3.357,7.5-7.5c0-1.164-0.275-2.264-0.749-3.246c0.984,0.473,2.084,0.746,3.249,0.746c4.141,0,7.5-3.357,7.5-7.5
		c0-1.164-0.275-2.263-0.749-3.247c0.984,0.475,2.084,0.748,3.249,0.748c4.141,0,7.5-3.357,7.5-7.5c0-1.166-0.275-2.264-0.749-3.248
		c0.984,0.475,2.084,0.748,3.249,0.748c4.141,0,7.5-3.357,7.5-7.5c0-1.166-0.275-2.264-0.749-3.248
		c0.984,0.475,2.084,0.748,3.249,0.748c4.141,0,7.5-3.357,7.5-7.5c0-3.99-3.12-7.244-7.052-7.479
		c0.169-0.404,0.341-0.807,0.502-1.215c1.168,0.752,2.556,1.193,4.05,1.193c4.141,0,7.5-3.357,7.5-7.5
		c0-4.088-3.273-7.406-7.339-7.492c0.001-0.006,0.002-0.012,0.005-0.018c4.063-0.088,7.334-3.404,7.334-7.49
		c0-3.43-2.306-6.316-5.448-7.209c0.007-0.195,0.016-0.393,0.022-0.588C193.084,108.727,195.377,105.847,195.377,102.425z"/>
	
		<ellipse fill="#FFE1CC" stroke="#FCAD77" stroke-width="1.4655" stroke-miterlimit="10" cx="100.377" cy="86.425" rx="45" ry="52.501"/>
	<ellipse fill="#FFFFFF" stroke="#020200" stroke-width="0.8" stroke-miterlimit="10" cx="73.177" cy="87.726" rx="12.8" ry="12"/>
	
		<ellipse fill="#020200" stroke="#020200" stroke-width="0.4382" stroke-miterlimit="10" cx="73.177" cy="87.726" rx="7.2" ry="6.4"/>
	<ellipse fill="#FFFFFF" stroke="#020200" stroke-width="0.8" stroke-miterlimit="10" cx="125.177" cy="86.925" rx="12.8" ry="12"/>
	
		<ellipse fill="#020200" stroke="#020200" stroke-width="0.4382" stroke-miterlimit="10" cx="125.177" cy="86.926" rx="7.2" ry="6.399"/>
	<g>
		<g>
			<path fill="#050505" d="M100.377,119.917c2.758,0,5-4.25,5-8.25h-10C95.377,115.667,97.614,119.917,100.377,119.917z"/>
			<path d="M100.371,119.667c0.215,0,0.447,0.021,0.646-0.047c0.207-0.051,0.409-0.09,0.602-0.19
				c0.201-0.075,0.377-0.194,0.559-0.307s0.328-0.272,0.49-0.409c0.293-0.315,0.559-0.647,0.781-1.013
				c0.223-0.366,0.387-0.763,0.533-1.16c0.287-0.801,0.461-1.636,0.535-2.475c0.075-0.838,0.062-1.676-0.018-2.5l0.877,0.877
				c-0.834,0.1-1.668,0.127-2.5,0.184c-0.834,0.037-1.668,0.042-2.5,0.06c-0.834-0.022-1.668-0.021-2.5-0.064
				c-0.834-0.054-1.668-0.087-2.5-0.186l0.869-0.87c-0.08,0.825-0.094,1.664-0.016,2.503c0.072,0.838,0.247,1.673,0.535,2.475
				c0.148,0.397,0.311,0.797,0.535,1.161c0.223,0.365,0.488,0.701,0.781,1.016c0.162,0.138,0.31,0.301,0.492,0.414
				c0.182,0.112,0.356,0.241,0.559,0.316c0.191,0.101,0.396,0.118,0.605,0.169c0.205,0.068,0.424,0.047,0.639,0.047H100.371z
				 M100.377,119.667c-0.223,0-0.453,0.094-0.668,0.029c-0.221-0.049-0.437-0.055-0.639-0.153c-0.42-0.167-0.781-0.412-1.126-0.694
				c-0.325-0.306-0.626-0.624-0.882-0.988c-0.258-0.363-0.48-0.742-0.676-1.141c-0.389-0.799-0.666-1.646-0.84-2.515
				c-0.178-0.869-0.264-1.651-0.275-2.538H95.27h0.107c3.332,0,6.666,0,10,0h0.105l-0.002,0.002
				c-0.012,0.887-0.098,1.721-0.275,2.59c-0.174,0.869-0.451,1.694-0.84,2.493c-0.195,0.398-0.419,0.771-0.676,1.134
				c-0.257,0.364-0.557,0.689-0.882,0.996c-0.345,0.282-0.707,0.55-1.126,0.717c-0.201,0.098-0.419,0.051-0.643,0.099
				c-0.221,0.066-0.438-0.03-0.658-0.03H100.377z"/>
		</g>
		<g>
			<path fill="#FFE1CC" d="M100.562,119.926c0,0-0.417,3.82,0,5c0.589,1.666,3.412,4.223,5,5c1.123,0.549,3.845,0.479,5,0
				c1.633-0.678,4.425-3.328,5-5c0.406-1.184,0-3.75,0-5"/>
			<path d="M100.635,119.934c0,0,0.012,0.116,0.035,0.336c0.016,0.217,0.076,0.539,0.098,0.941c0.035,0.403,0.08,0.892,0.152,1.442
				c0.08,0.54,0.178,1.188,0.33,1.723c0.049,0.094,0.078,0.283,0.129,0.297c0.097,0.153,0.194,0.311,0.294,0.47
				c0.226,0.259,0.358,0.435,0.623,0.703c0.498,0.52,1.096,1.031,1.72,1.54c0.616,0.497,1.344,0.983,1.969,1.313l0.119,0.066
				l0.016,0.009c0.104,0.045-0.133-0.057-0.105-0.045l0.012,0.003l0.039,0.015l0.082,0.027l0.322,0.111l0.404,0.058
				c0.377,0.04,0.773,0.052,1.18,0.049c0.785,0.009,1.713-0.093,2.127-0.304c0.455-0.209,0.709-0.394,1.004-0.56
				c0.314-0.228,0.66-0.448,0.961-0.708c0.617-0.505,1.205-1.023,1.696-1.549c0.254-0.258,0.442-0.533,0.647-0.778
				c0.078-0.122,0.158-0.241,0.234-0.359l0.031-0.045l0.015-0.021l0.008-0.012c-0.042,0.144-0.011,0.035-0.019,0.065l0.002-0.008
				l0.045-0.127l0.087-0.248c0.138-0.503,0.237-1.115,0.296-1.672c0.061-0.552,0.096-1.046,0.127-1.452
				c0.025-0.409,0.082-0.86,0.117-1.083c0.037-0.219,0.057-0.465,0.057-0.465h0.146c0,0,0.006,0.586,0.072,1.389
				c0.027,0.404,0.062,0.958,0.101,1.52c0.028,0.562,0.048,1.236-0.06,1.94c-0.115,0.707-0.561,1.384-1.032,2.018
				c-0.491,0.631-1.065,1.26-1.714,1.84c-0.643,0.569-1.369,1.172-2.188,1.568c-0.863,0.42-1.817,0.48-2.746,0.514
				c-0.467-0.002-0.934-0.028-1.398-0.089c-0.484-0.086-0.925-0.176-1.343-0.422c-0.817-0.443-1.513-1.02-2.167-1.593
				c-0.649-0.578-1.234-1.188-1.732-1.813c-0.488-0.65-0.938-1.262-1.048-1.997c-0.184-1.399-0.044-2.551-0.007-3.357
				c0.073-0.806,0.115-1.266,0.115-1.266L100.635,119.934z"/>
		</g>
		<g>
			<path fill="#FFE1CC" d="M100.557,119.539c0,0,0.417,3.822,0,5c-0.59,1.668-3.412,4.225-5,5c-1.123,0.549-3.845,0.479-5,0
				c-1.633-0.676-4.426-3.328-5-5c-0.406-1.182,0-3.75,0-5"/>
			<path d="M100.629,119.531c0,0,0.16,0.447,0.352,1.249c0.086,0.401,0.191,0.891,0.291,1.464c0.094,0.581,0.211,1.209,0.146,2.04
				c-0.047,0.236-0.016,0.419-0.146,0.719c-0.06,0.171-0.122,0.345-0.185,0.521c-0.175,0.364-0.453,0.849-0.695,1.186
				c-0.496,0.716-1.064,1.408-1.738,2.043c-0.687,0.633-1.354,1.288-2.33,1.816l-0.177,0.103l-0.022,0.013l-0.133,0.058
				l-0.039,0.015l-0.08,0.03l-0.32,0.122c-0.279,0.082-0.643,0.165-0.942,0.217c-0.534,0.076-1.058,0.111-1.575,0.115
				c-1.042-0.061-2.016-0.08-3.244-0.663c-0.211-0.122-0.377-0.18-0.621-0.354l-0.676-0.487c-0.38-0.327-0.75-0.623-1.076-0.96
				c-0.677-0.64-1.233-1.348-1.722-2.066c-0.245-0.357-0.46-0.745-0.647-1.131c-0.078-0.215-0.154-0.427-0.23-0.635l-0.027-0.077
				l-0.013-0.039l-0.007-0.019c-0.043-0.148-0.012-0.046-0.021-0.081l-0.002-0.009l-0.016-0.133l-0.031-0.262
				c-0.078-0.864,0.054-1.528,0.162-2.092c0.11-0.571,0.223-1.054,0.313-1.451c0.078-0.396,0.188-0.643,0.229-0.854
				c0.051-0.213,0.076-0.262,0.076-0.262h0.147c0,0-0.001,0.402-0.06,1.207c-0.024,0.402-0.053,0.859-0.086,1.419
				c-0.023,0.559-0.033,1.177,0.072,1.838c0.115,0.675,0.545,1.287,1.015,1.909c0.487,0.613,1.06,1.216,1.704,1.78
				c0.655,0.564,1.326,1.115,2.148,1.503c0.781,0.375,1.729,0.436,2.629,0.455c0.912-0.012,1.826-0.025,2.615-0.455
				c0.785-0.414,1.482-0.98,2.131-1.537c0.647-0.563,1.23-1.159,1.725-1.768c0.254-0.301,0.451-0.614,0.651-0.922
				c0.171-0.342,0.335-0.645,0.374-0.978c0.191-1.344,0.066-2.515,0.037-3.312c-0.064-0.803-0.102-1.261-0.102-1.261
				L100.629,119.531z"/>
		</g>
	</g>
	<path fill="#FFE1CC" stroke="#FCAD77" stroke-miterlimit="10" d="M68.877,161.645l-0.66,5.361c-0.449-0.178-0.877-0.422-1.266-0.74
		l-9.865-8.018c-2.046-1.66-2.289-4.625-0.545-6.625c1.742-1.998,4.812-2.273,6.854-0.611l9.868,8.016
		c0.389,0.318,0.713,0.682,0.971,1.078L68.877,161.645z"/>
	<path fill="#FFFFE3" stroke="#F4F071" stroke-miterlimit="10" d="M60.377,144.926c-2.763,0-5,2.238-5,5c0-2.762-2.24-5-5-5
		c-2.763,0-5,2.238-5,5s2.237,5,5,5c0,2.762,2.237,5,5,5c2.76,0,5-2.238,5-5c2.76,0,5-2.238,5-5S63.137,144.926,60.377,144.926z"/>
	<path fill="#FFE1CC" stroke="#FCAD77" stroke-miterlimit="10" d="M124.234,160.105c0.26-0.396,0.583-0.76,0.973-1.078l9.867-8.016
		c2.043-1.662,5.113-1.387,6.854,0.611c1.745,2,1.502,4.965-0.542,6.625l-9.869,8.018c-0.387,0.318-0.814,0.562-1.264,0.74
		l-0.659-5.361L124.234,160.105z"/>
	<path fill="#FFFFE3" stroke="#F4F071" stroke-miterlimit="10" d="M138.095,144.926c2.762,0,5,2.238,5,5c0-2.762,2.239-5,5-5
		c2.762,0,5,2.238,5,5s-2.238,5-5,5c0,2.762-2.238,5-5,5c-2.761,0-5-2.238-5-5c-2.761,0-5-2.238-5-5
		S135.334,144.926,138.095,144.926z"/>
	<g>
		<path fill="#FFE1CC" d="M58.548,44.997c-5.42-0.615-8.285,2.777-11.336,6.904c-3.072,4.158-9.163,5.961-11.234,10.373
			c9.841,4.74,26.554,9.232,29.399-6.039"/>
		<path fill="#FCAD77" d="M58.543,45.07l-0.925,0.021c-0.306,0.022-0.601,0.067-0.896,0.099l-0.879,0.167l-0.85,0.251
			c-0.549,0.212-1.08,0.455-1.57,0.77c-0.492,0.311-0.959,0.657-1.385,1.058c-0.434,0.389-0.836,0.817-1.235,1.249
			c-0.396,0.436-0.769,0.898-1.133,1.372c-0.362,0.476-0.714,0.965-1.06,1.462l-0.516,0.752l-0.129,0.188l-0.162,0.217l-0.274,0.37
			c-0.372,0.487-0.88,1.054-1.327,1.485c-0.461,0.462-0.945,0.893-1.436,1.297c-0.996,0.793-2.02,1.503-3,2.217
			c-0.49,0.355-0.965,0.716-1.43,1.079c-0.459,0.366-0.893,0.743-1.305,1.131l-0.58,0.6l-0.518,0.626l-0.443,0.654l-0.358,0.684
			l-0.602-1.694c1.315,0.614,2.663,1.152,3.999,1.711c1.344,0.541,2.708,1.029,4.09,1.442c1.381,0.413,2.78,0.756,4.188,0.998
			c1.408,0.251,2.825,0.36,4.229,0.396c0.703,0.017,1.402-0.012,2.097-0.076c0.693-0.071,1.375-0.195,2.047-0.362
			c0.662-0.189,1.316-0.41,1.934-0.714c0.614-0.303,1.214-0.651,1.747-1.089c0.278-0.207,0.54-0.433,0.792-0.673
			c0.268-0.226,0.5-0.487,0.732-0.753c0.467-0.525,0.884-1.109,1.24-1.733c0.195-0.304,0.354-0.628,0.506-0.958
			c0.163-0.325,0.316-0.656,0.437-1.002c0.296-0.672,0.507-1.379,0.735-2.088l0.145,0.027c-0.162,0.727-0.305,1.459-0.543,2.168
			c-0.098,0.36-0.229,0.709-0.371,1.055c-0.133,0.349-0.271,0.695-0.451,1.024c-0.32,0.673-0.711,1.317-1.164,1.911
			c-0.226,0.299-0.453,0.597-0.721,0.859c-0.249,0.28-0.516,0.542-0.809,0.778c-0.557,0.501-1.189,0.912-1.844,1.273
			c-0.656,0.362-1.355,0.638-2.064,0.876c-0.717,0.215-1.447,0.383-2.186,0.494c-0.74,0.104-1.485,0.169-2.232,0.186
			c-2.99,0.062-5.955-0.479-8.818-1.279c-2.865-0.813-5.65-1.896-8.329-3.194l-0.132-0.064l0.066-0.121l0.45-0.821l0.538-0.766
			l0.607-0.708l0.658-0.657c0.458-0.417,0.932-0.813,1.42-1.19c0.492-0.372,0.99-0.736,1.494-1.088
			c1.006-0.707,2.023-1.394,2.994-2.138s1.896-1.546,2.682-2.477c0.775-0.94,1.476-1.963,2.277-2.897
			c0.791-0.942,1.645-1.844,2.621-2.605c0.481-0.389,1.008-0.722,1.555-1.012c0.547-0.294,1.13-0.511,1.724-0.689l0.908-0.197
			c0.308-0.032,0.614-0.079,0.924-0.1c0.31-0.004,0.622-0.019,0.931-0.012l0.918,0.066L58.543,45.07z"/>
	</g>
	<g>
		<path fill="#FFE1CC" d="M141.806,43.997c5.42-0.615,8.285,2.777,11.335,6.904c3.073,4.158,9.164,5.961,11.236,10.373
			c-9.843,4.74-26.556,9.232-29.399-6.039"/>
		<path fill="#FCAD77" d="M141.801,43.924l0.912-0.149c0.309-0.034,0.627-0.048,0.946-0.071c0.317-0.011,0.633,0.022,0.952,0.035
			c0.315,0.04,0.632,0.09,0.949,0.143c0.625,0.146,1.249,0.334,1.84,0.604c0.59,0.267,1.165,0.583,1.692,0.956
			c1.083,0.721,1.981,1.649,2.835,2.575c0.424,0.468,0.832,0.944,1.229,1.425l0.591,0.722l0.146,0.181
			c0.002-0.006,0.088,0.098,0.127,0.141l0.306,0.346c0.416,0.452,0.766,0.771,1.231,1.159c0.44,0.372,0.907,0.723,1.396,1.06
			c0.949,0.706,1.961,1.374,2.987,2.076c0.514,0.351,1.029,0.718,1.543,1.098c0.513,0.387,1.018,0.8,1.512,1.241l0.722,0.704
			l0.678,0.775l0.614,0.854l0.523,0.934l0.613,1.094l-1.215,0.601c-1.361,0.672-2.739,1.317-4.172,1.83
			c-1.426,0.528-2.875,1.002-4.35,1.399s-2.975,0.722-4.5,0.94c-1.525,0.208-3.078,0.354-4.643,0.257
			c-0.781-0.048-1.562-0.144-2.34-0.283c-0.775-0.146-1.543-0.353-2.295-0.609c-0.746-0.28-1.479-0.601-2.164-1.013
			c-0.684-0.41-1.342-0.874-1.914-1.428l-0.432-0.408l-0.382-0.457c-0.265-0.295-0.483-0.623-0.7-0.95
			c-0.434-0.65-0.795-1.343-1.08-2.056c-0.162-0.349-0.281-0.712-0.394-1.077c-0.122-0.36-0.232-0.724-0.308-1.096
			c-0.183-0.735-0.257-1.487-0.354-2.227l0.145-0.027c0.163,0.722,0.308,1.447,0.548,2.147c0.098,0.357,0.229,0.702,0.371,1.043
			c0.133,0.345,0.272,0.687,0.45,1.01c0.32,0.663,0.707,1.297,1.156,1.879c0.223,0.293,0.446,0.585,0.712,0.842
			c0.246,0.274,0.51,0.531,0.797,0.761c0.549,0.49,1.172,0.891,1.816,1.243c0.646,0.353,1.334,0.619,2.033,0.851
			c0.707,0.208,1.426,0.371,2.156,0.478c0.73,0.1,1.467,0.159,2.204,0.173c2.958,0.049,5.899-0.502,8.741-1.31
			c2.846-0.818,5.605-1.921,8.281-3.189l-0.066,0.186l-0.432-0.795l-0.518-0.744l-0.589-0.693l-0.644-0.646
			c-0.447-0.412-0.914-0.806-1.396-1.182c-0.486-0.37-0.979-0.734-1.479-1.088c-1-0.709-2.017-1.402-2.993-2.156
			c-0.973-0.753-1.911-1.572-2.707-2.524c-0.782-0.959-1.467-1.971-2.262-2.905c-0.783-0.94-1.623-1.836-2.582-2.591
			c-0.473-0.385-0.988-0.714-1.523-1.002c-0.535-0.291-1.105-0.506-1.688-0.684l-0.891-0.197c-0.302-0.033-0.604-0.081-0.906-0.103
			c-0.304-0.004-0.605-0.021-0.911-0.016l-0.919,0.062L141.801,43.924z"/>
	</g>
	<path fill="#FFFFE3" stroke="#F4F071" stroke-miterlimit="10" d="M140.377,44.925c-0.262,0-0.511,0.039-0.759,0.076
		c-0.273-0.434-0.613-0.859-1.025-1.277c1.082-0.916,1.784-2.27,1.784-3.799c0-2.762-2.24-5-5-5c-2.511,0-4.567,1.854-4.927,4.264
		c-0.557-0.197-1.125-0.393-1.72-0.578c1.004-0.916,1.646-2.221,1.646-3.686c0-2.762-2.24-5-5-5c-2.763,0-5,2.238-5,5
		c0,0.613,0.125,1.193,0.326,1.736c-0.205-0.039-0.413-0.076-0.619-0.111c0.176-0.512,0.293-1.053,0.293-1.625c0-2.762-2.24-5-5-5
		c-2.763,0-5,2.238-5,5c0,0.137,0.028,0.264,0.039,0.398c-0.026-0.002-0.054-0.006-0.08-0.008c0.011-0.131,0.041-0.256,0.041-0.391
		c0-2.762-2.24-5-5-5c-2.763,0-5,2.238-5,5c0-2.762-2.24-5-5-5c-2.763,0-5,2.238-5,5c0,0.135,0.028,0.26,0.039,0.391
		c-0.027,0.002-0.054,0.006-0.08,0.008c0.011-0.135,0.041-0.262,0.041-0.398c0-2.762-2.24-5-5-5c-2.763,0-5,2.238-5,5
		c0,0.572,0.114,1.113,0.291,1.625c-0.206,0.035-0.414,0.072-0.619,0.111c0.203-0.543,0.328-1.123,0.328-1.736c0-2.762-2.24-5-5-5
		c-2.763,0-5,2.238-5,5c0,1.465,0.64,2.77,1.643,3.686c-0.593,0.186-1.162,0.381-1.719,0.578c-0.358-2.41-2.416-4.264-4.924-4.264
		c-2.763,0-5,2.238-5,5c0,1.529,0.7,2.883,1.782,3.799c-1.157,1.17-1.782,2.414-1.782,3.701c0,0.408,0.065,0.811,0.188,1.209
		c-0.112,0.414-0.188,0.842-0.188,1.291c0,2.762,2.237,5,5,5c0,2.762,2.237,5,5,5c1.995,0,3.704-1.178,4.504-2.867
		c0.401,0.104,0.812,0.203,1.225,0.301c-0.453,0.752-0.729,1.625-0.729,2.566c0,2.762,2.237,5,5,5c2.76,0,5-2.238,5-5
		c0-0.316-0.038-0.623-0.095-0.924c0.062,0.008,0.123,0.016,0.185,0.023c-0.054,0.293-0.09,0.592-0.09,0.9c0,2.762,2.237,5,5,5
		c2.76,0,5-2.066,5-4.828c0-0.033-0.011,0.07-0.011,0.07s0.014,0,0.019,0c0,0-0.008-0.105-0.008-0.07c0,2.762,2.237,4.914,5,4.914
		c2.76,0,5-2.11,5-4.872c0-0.034-0.011,0.028-0.011,0.028s0.014,0,0.019,0c0,0-0.008-0.104-0.008-0.07c0,2.762,2.237,4.914,5,4.914
		c2.76,0,5-2.28,5-5.042c0-0.309-0.038-0.63-0.092-0.923c0.062-0.008,0.122-0.026,0.184-0.034c-0.056,0.301-0.092,0.603-0.092,0.919
		c0,2.762,2.237,4.997,5,4.997c2.76,0,5-2.24,5-5.002c0-0.941-0.277-1.814-0.731-2.566c0.414-0.099,0.823-0.198,1.224-0.302
		c0.801,1.69,2.511,2.867,4.508,2.867c2.76,0,5-2.238,5-5c0-0.467-0.084-0.908-0.205-1.338c0.419-0.229,0.821-0.463,1.193-0.701
		c0.911,1.23,2.36,2.039,4.012,2.039c2.76,0,5-2.238,5-5S143.137,44.925,140.377,44.925z"/>
</g>
</svg>
