<?xml version="1.0" encoding="utf-8"?>
<!-- Generator: Adobe Illustrator 16.0.0, SVG Export Plug-In . SVG Version: 6.00 Build 0)  -->
<!DOCTYPE svg PUBLIC "-//W3C//DTD SVG 1.1//EN" "http://www.w3.org/Graphics/SVG/1.1/DTD/svg11.dtd">
<svg version="1.1" xmlns="http://www.w3.org/2000/svg" xmlns:xlink="http://www.w3.org/1999/xlink" x="0px" y="0px" width="200px"
	 height="225px" viewBox="0 0 200 225" enable-background="new 0 0 200 225" xml:space="preserve">
<g id="Ext">
</g>
<g id="Guides">
</g>
<g id="_x31_2_Col_Grid_1_" display="none" enable-background="new    ">
	<g id="Rectangle_xA0_Image_23_" display="inline" opacity="0.102">
	</g>
	<g id="Rectangle_xA0_Image_21_" display="inline" opacity="0.102">
	</g>
	<g id="Rectangle_xA0_Image_19_" display="inline" opacity="0.102">
	</g>
	<g id="Rectangle_xA0_Image_17_" display="inline" opacity="0.102">
	</g>
	<g id="Rectangle_xA0_Image_15_" display="inline" opacity="0.102">
	</g>
	<g id="Rectangle_xA0_Image_13_" display="inline" opacity="0.102">
	</g>
	<g id="Rectangle_xA0_Image_11_" display="inline" opacity="0.102">
	</g>
	<g id="Rectangle_xA0_Image_9_" display="inline" opacity="0.102">
	</g>
	<g id="Rectangle_xA0_Image_7_" display="inline" opacity="0.102">
	</g>
	<g id="Rectangle_xA0_Image_5_" display="inline" opacity="0.102">
	</g>
	<g id="Rectangle_xA0_Image_3_" display="inline" opacity="0.102">
	</g>
	<g id="Rectangle_xA0_Image_1_" display="inline" opacity="0.102">
	</g>
</g>
<g id="Bg">
</g>
<g id="main">
	<g id="Progress">
	</g>
	<g id="Text">
	</g>
</g>
<g id="pane">
</g>
<g id="browserhead">
	<g>
		<path fill="#050505" d="M100.377,120.25c2.758,0,5-4.25,5-8.25h-10C95.377,116,97.614,120.25,100.377,120.25z"/>
		<path d="M100.371,120c0.215,0,0.447-0.146,0.648-0.214c0.206-0.051,0.408-0.174,0.601-0.273c0.202-0.076,0.376-0.235,0.559-0.349
			c0.182-0.113,0.329-0.292,0.491-0.429c0.292-0.315,0.558-0.659,0.78-1.024s0.386-0.768,0.534-1.165
			c0.287-0.802,0.46-1.638,0.533-2.477c0.076-0.838,0.064-1.678-0.018-2.502l0.877,0.876c-0.834,0.1-1.666,0.127-2.5,0.184
			c-0.834,0.037-1.666,0.042-2.5,0.06c-0.834-0.022-1.666-0.021-2.5-0.064c-0.834-0.054-1.666-0.087-2.5-0.186l0.87-0.87
			c-0.081,0.825-0.093,1.664-0.017,2.503c0.074,0.839,0.248,1.674,0.535,2.475c0.148,0.397,0.311,0.797,0.535,1.161
			c0.223,0.366,0.489,0.701,0.782,1.017c0.162,0.137,0.31,0.301,0.491,0.413c0.183,0.112,0.357,0.241,0.559,0.316
			c0.191,0.101,0.396,0.285,0.606,0.336c0.205,0.068,0.425,0.213,0.638,0.213H100.371z M100.377,120
			c-0.222,0-0.451-0.072-0.668-0.138c-0.22-0.048-0.436-0.138-0.639-0.236c-0.418-0.166-0.781-0.454-1.125-0.735
			c-0.326-0.307-0.625-0.645-0.883-1.009c-0.256-0.363-0.48-0.753-0.676-1.151c-0.389-0.799-0.803-1.651-0.977-2.521
			c-0.176-0.869-0.41-1.757-0.41-2.644V111h0.377c3.334,0,6.666,0,10,0H105v0.566c0,0.887,0.143,1.772-0.033,2.642
			s-0.332,1.72-0.722,2.518c-0.195,0.398-0.358,0.784-0.616,1.147c-0.256,0.364-0.526,0.695-0.851,1.001
			c-0.346,0.282-0.692,0.555-1.11,0.721c-0.201,0.099-0.412,0.22-0.635,0.268c-0.221,0.066-0.432,0.138-0.65,0.138H100.377z"/>
	</g>
	<g>
		<path fill="#FFE1CC" d="M95,130c0,0-0.362-1.937,0-2.545c0.542-0.91,3.511-2.675,5.376-2.64c1.735,0.034,4.183,1.784,4.624,2.64
			c0.317,0.615,0,2.545,0,2.545"/>
		<path d="M95,130c0,0-0.127-0.241-0.295-0.69c-0.083-0.226-0.178-0.503-0.25-0.842c-0.051-0.356-0.225-0.714,0.178-1.353
			c0.202-0.284,0.617-0.675,1.016-0.96c0.385-0.284,0.812-0.538,1.26-0.788c0.459-0.229,0.932-0.465,1.449-0.641
			c0.249-0.105,0.521-0.174,0.795-0.24c0.266-0.082,0.553-0.125,0.854-0.14c0.168-0.006,0.252-0.04,0.486-0.021l0.389,0.051
			c0.243,0.011,0.558,0.128,0.838,0.207c0.557,0.188,1.023,0.417,1.475,0.681c0.448,0.26,0.861,0.539,1.23,0.85
			c0.374,0.301,0.705,0.617,0.986,1.061c0.276,0.433,0.182,0.992,0.104,1.29c-0.078,0.336-0.164,0.613-0.238,0.84
			C105.121,129.756,105,130,105,130s-0.035-0.267-0.096-0.732c-0.029-0.229-0.072-0.507-0.141-0.81
			c-0.041-0.138-0.074-0.333-0.131-0.419c-0.036-0.061-0.011-0.088-0.038-0.189l-0.038-0.138l-0.021-0.069l-0.006-0.018
			l-0.001-0.004c-0.007-0.016,0.052,0.121,0.026,0.062l-0.004-0.005l-0.018-0.021c-0.145-0.217-0.416-0.517-0.746-0.771
			c-0.318-0.27-0.697-0.525-1.096-0.756c-0.394-0.234-0.848-0.447-1.265-0.59c-0.216-0.055-0.385-0.154-0.667-0.171l-0.389-0.05
			c-0.025-0.006-0.201,0.019-0.295,0.024c-0.225,0.01-0.455,0.041-0.689,0.115c-0.233,0.056-0.466,0.112-0.692,0.209
			c-0.46,0.155-0.896,0.374-1.315,0.582c-0.41,0.229-0.799,0.46-1.139,0.711c-0.326,0.246-0.557,0.419-0.82,0.771
			c0,0.01-0.021,0.146-0.059,0.289c-0.066,0.127-0.092,0.297-0.133,0.438c-0.061,0.3-0.106,0.577-0.138,0.807
			C95.033,129.733,95,130,95,130z"/>
	</g>
</g>
</svg>
