<?xml version="1.0" encoding="utf-8"?>
<!-- Generator: Adobe Illustrator 16.0.0, SVG Export Plug-In . SVG Version: 6.00 Build 0)  -->
<!DOCTYPE svg PUBLIC "-//W3C//DTD SVG 1.1//EN" "http://www.w3.org/Graphics/SVG/1.1/DTD/svg11.dtd">
<svg version="1.1" id="Layer_1" xmlns="http://www.w3.org/2000/svg" xmlns:xlink="http://www.w3.org/1999/xlink" x="0px" y="0px"
	 width="200px" height="225px" viewBox="0 0 200 225" enable-background="new 0 0 200 225" xml:space="preserve">
<g id="Ext">
</g>
<g id="Guides">
</g>
<g id="_x31_2_Col_Grid_1_" display="none" enable-background="new    ">
	<g id="Rectangle_xA0_Image_23_" display="inline" opacity="0.102">
	</g>
	<g id="Rectangle_xA0_Image_21_" display="inline" opacity="0.102">
	</g>
	<g id="Rectangle_xA0_Image_19_" display="inline" opacity="0.102">
	</g>
	<g id="Rectangle_xA0_Image_17_" display="inline" opacity="0.102">
	</g>
	<g id="Rectangle_xA0_Image_15_" display="inline" opacity="0.102">
	</g>
	<g id="Rectangle_xA0_Image_13_" display="inline" opacity="0.102">
	</g>
	<g id="Rectangle_xA0_Image_11_" display="inline" opacity="0.102">
	</g>
	<g id="Rectangle_xA0_Image_9_" display="inline" opacity="0.102">
	</g>
	<g id="Rectangle_xA0_Image_7_" display="inline" opacity="0.102">
	</g>
	<g id="Rectangle_xA0_Image_5_" display="inline" opacity="0.102">
	</g>
	<g id="Rectangle_xA0_Image_3_" display="inline" opacity="0.102">
	</g>
	<g id="Rectangle_xA0_Image_1_" display="inline" opacity="0.102">
	</g>
</g>
<g id="Bg">
</g>
<g id="main">
	<g id="Progress">
	</g>
	<g id="Text">
	</g>
</g>
<g id="pane">
</g>
<g>
	<g>
		
			<ellipse transform="matrix(-0.3962 -0.9182 0.9182 -0.3962 27.8672 193.3257)" fill="#FFFFE3" stroke="#000000" stroke-miterlimit="10" cx="77.5" cy="87.5" rx="12.5" ry="13.5"/>
		<path fill="#FCFCFC" stroke="#020200" stroke-width="0.8385" stroke-miterlimit="10" d="M84.081,83.753
			c0.144,0.235,0.279,0.479,0.391,0.739c1.459,3.381-0.48,7.468-4.331,9.13s-8.155,0.269-9.614-3.112
			c-0.112-0.26-0.198-0.524-0.269-0.791l-5.443,2.349c0.093,0.26,0.179,0.523,0.291,0.782c2.735,6.338,10.502,9.082,17.348,6.128
			c6.846-2.955,10.178-10.488,7.442-16.826c-0.111-0.258-0.244-0.501-0.371-0.747L84.081,83.753z"/>
		<path stroke="#020200" stroke-width="0.4593" stroke-miterlimit="10" d="M70.259,89.718c0.071,0.266,0.157,0.531,0.27,0.791
			c1.459,3.381,5.763,4.774,9.614,3.113s5.79-5.75,4.331-9.13c-0.112-0.26-0.247-0.503-0.391-0.739L70.259,89.718z"/>
	</g>
	<g>
		
			<ellipse transform="matrix(0.3559 -0.9345 0.9345 0.3559 -3.5094 169.9085)" fill="#FFFFE3" stroke="#000000" stroke-miterlimit="10" cx="121.5" cy="87.5" rx="12.5" ry="13.5"/>
		<path fill="#FCFCFC" stroke="#020200" stroke-width="0.8385" stroke-miterlimit="10" d="M128.831,89.4
			c-0.061,0.269-0.135,0.537-0.235,0.802c-1.311,3.441-5.55,5.021-9.469,3.528c-3.92-1.493-6.036-5.492-4.726-8.933
			c0.101-0.265,0.226-0.514,0.358-0.755l-5.539-2.11c-0.115,0.251-0.236,0.5-0.337,0.763c-2.456,6.451,1.2,13.833,8.168,16.486
			c6.968,2.653,14.607-0.426,17.064-6.877c0.1-0.263,0.175-0.53,0.255-0.794L128.831,89.4z"/>
		<path stroke="#020200" stroke-width="0.4593" stroke-miterlimit="10" d="M114.762,84.042c-0.134,0.241-0.257,0.491-0.357,0.755
			c-1.311,3.441,0.805,7.44,4.724,8.933c3.92,1.493,8.16-0.086,9.471-3.528c0.101-0.265,0.174-0.533,0.234-0.802L114.762,84.042z"/>
	</g>
	<g>
		<path fill="#CFEFFF" d="M85.916,110.637c0,3.513-2.378,6.363-5.312,6.363c-2.934,0-5.312-2.85-5.312-6.363S77.669,97,80.604,97
			C83.538,97,85.916,107.123,85.916,110.637z"/>
		<path d="M85.916,110.637c0,0-0.004,0.166-0.013,0.48c-0.013,0.312-0.06,0.773-0.189,1.355c-0.146,0.581-0.376,1.287-0.869,2.071
			c-0.245,0.393-0.557,0.805-1.014,1.211c-0.458,0.401-1.02,0.829-1.955,1.115c-0.918,0.316-2.366,0.206-3.196-0.199
			c-0.884-0.379-1.49-0.889-1.977-1.423c-0.95-1.078-1.468-2.293-1.687-3.555c-0.229-1.268-0.087-2.572,0.104-3.889
			c0.198-1.317,0.472-2.652,0.823-3.984c0.389-1.329,0.841-2.655,1.462-3.95c0.316-0.646,0.665-1.286,1.166-1.907
			c0.276-0.307,0.538-0.615,1.061-0.896c0.2-0.133,0.767-0.298,1.237-0.217c0.142,0.012,0.489,0.113,0.588,0.175
			c0.132,0.069,0.266,0.139,0.353,0.212c1.342,1.177,1.66,2.387,2.147,3.518c0.414,1.136,0.714,2.215,0.949,3.213
			c0.479,1.995,0.772,3.662,0.897,4.831C85.937,109.967,85.916,110.637,85.916,110.637z M85.916,110.637c0,0-0.042-2.684-1.23-6.656
			c-0.308-0.992-0.678-2.064-1.172-3.188c-0.536-1.1-1.018-2.348-2.287-3.37c-0.391-0.249-0.639-0.338-1.02-0.112
			c-0.361,0.205-0.618,0.504-0.846,0.793c-0.448,0.591-0.784,1.22-1.073,1.857c-0.576,1.279-0.987,2.6-1.344,3.921
			c-0.386,1.32-0.692,2.647-0.926,3.955c-0.204,1.309-0.429,2.597-0.299,3.835c0.125,1.237,0.552,2.438,1.401,3.497
			c0.432,0.524,0.989,1.024,1.786,1.388c0.752,0.383,1.976,0.498,2.859,0.225c0.888-0.251,1.486-0.661,1.938-1.059
			c0.462-0.397,0.784-0.807,1.04-1.192c0.509-0.777,0.756-1.48,0.921-2.061c0.143-0.581,0.204-1.04,0.223-1.353
			C85.908,110.803,85.916,110.637,85.916,110.637z"/>
	</g>
	<g>
		<path fill="#CFEFFF" d="M124.915,109.637c0,3.514-2.396,6.363-5.354,6.363c-2.956,0-5.353-2.85-5.353-6.363
			c0-3.513,2.396-13.637,5.353-13.637C122.519,96,124.915,106.123,124.915,109.637z"/>
		<path d="M124.915,109.637c0,0-0.005,0.166-0.013,0.48c-0.013,0.312-0.061,0.773-0.192,1.355c-0.146,0.58-0.377,1.286-0.874,2.07
			c-0.247,0.393-0.561,0.805-1.021,1.211c-0.464,0.401-1.028,0.829-1.97,1.115c-0.926,0.316-2.384,0.206-3.22-0.199
			c-0.891-0.379-1.502-0.889-1.993-1.423c-0.957-1.078-1.478-2.293-1.699-3.556c-0.23-1.268-0.088-2.571,0.104-3.889
			c0.2-1.317,0.477-2.652,0.828-3.984c0.393-1.329,0.849-2.655,1.474-3.95c0.32-0.646,0.671-1.286,1.175-1.907
			c0.278-0.307,0.542-0.615,1.068-0.896c0.201-0.133,0.774-0.298,1.247-0.217c0.142,0.012,0.493,0.113,0.594,0.175
			c0.131,0.069,0.268,0.139,0.355,0.212c1.351,1.177,1.672,2.387,2.161,3.518c0.419,1.136,0.72,2.215,0.958,3.213
			c0.481,1.995,0.778,3.662,0.903,4.831C124.936,108.967,124.915,109.637,124.915,109.637z M124.915,109.637
			c0,0-0.042-2.684-1.24-6.656c-0.312-0.992-0.684-2.064-1.182-3.188c-0.539-1.1-1.024-2.348-2.304-3.37
			c-0.394-0.249-0.645-0.338-1.029-0.112c-0.363,0.205-0.623,0.504-0.851,0.793c-0.452,0.591-0.79,1.22-1.081,1.857
			c-0.581,1.279-0.995,2.6-1.354,3.921c-0.39,1.32-0.696,2.647-0.933,3.955c-0.205,1.309-0.431,2.597-0.302,3.835
			c0.126,1.237,0.557,2.438,1.414,3.497c0.435,0.524,0.995,1.024,1.798,1.388c0.757,0.383,1.99,0.498,2.881,0.225
			c0.896-0.251,1.498-0.661,1.953-1.059c0.467-0.397,0.791-0.807,1.048-1.192c0.513-0.777,0.763-1.48,0.929-2.061
			c0.144-0.581,0.207-1.04,0.224-1.353C124.906,109.803,124.915,109.637,124.915,109.637z"/>
	</g>
	<g>
		<path fill="#CFEFFF" d="M86.272,134.637c0,3.514-2.028,6.363-4.531,6.363c-2.502,0-4.531-2.85-4.531-6.363
			c0-3.513,2.029-13.637,4.531-13.637C84.244,121,86.272,131.123,86.272,134.637z"/>
		<path d="M86.272,134.637c0,0-0.003,0.166-0.011,0.48c-0.012,0.312-0.051,0.773-0.162,1.355c-0.125,0.58-0.32,1.286-0.741,2.07
			c-0.208,0.393-0.475,0.805-0.864,1.211c-0.391,0.4-0.87,0.829-1.667,1.115c-0.783,0.316-2.018,0.206-2.726-0.199
			c-0.754-0.379-1.271-0.889-1.686-1.423c-0.811-1.078-1.252-2.293-1.439-3.556c-0.196-1.268-0.074-2.571,0.088-3.889
			c0.169-1.316,0.403-2.652,0.702-3.984c0.332-1.328,0.717-2.654,1.247-3.949c0.27-0.646,0.567-1.286,0.995-1.907
			c0.236-0.308,0.458-0.614,0.905-0.896c0.171-0.133,0.654-0.299,1.055-0.217c0.121,0.012,0.417,0.112,0.502,0.174
			c0.112,0.069,0.227,0.14,0.301,0.213c1.144,1.177,1.416,2.387,1.831,3.518c0.353,1.137,0.609,2.215,0.81,3.213
			c0.408,1.995,0.659,3.662,0.766,4.831C86.29,133.967,86.272,134.637,86.272,134.637z M86.272,134.637c0,0-0.037-2.684-1.05-6.656
			c-0.263-0.991-0.578-2.063-1-3.188c-0.457-1.1-0.868-2.348-1.95-3.37c-0.334-0.249-0.545-0.338-0.87-0.112
			c-0.308,0.205-0.527,0.504-0.721,0.793c-0.382,0.592-0.669,1.221-0.915,1.857c-0.491,1.279-0.842,2.6-1.146,3.921
			c-0.33,1.32-0.59,2.647-0.791,3.955c-0.173,1.31-0.365,2.597-0.255,3.835c0.106,1.237,0.471,2.438,1.196,3.497
			c0.368,0.524,0.843,1.024,1.523,1.388c0.642,0.383,1.685,0.497,2.439,0.225c0.758-0.252,1.267-0.661,1.653-1.059
			c0.395-0.397,0.669-0.807,0.887-1.192c0.435-0.777,0.645-1.48,0.786-2.061c0.122-0.581,0.174-1.04,0.19-1.353
			C86.265,134.803,86.272,134.637,86.272,134.637z"/>
	</g>
	<g>
		<path fill="#CFEFFF" d="M124.934,135.637c0,3.514-2.117,6.363-4.729,6.363s-4.728-2.85-4.728-6.363
			c0-3.513,2.116-13.637,4.728-13.637S124.934,132.123,124.934,135.637z"/>
		<path d="M124.934,135.637c0,0-0.004,0.166-0.012,0.48c-0.011,0.312-0.053,0.773-0.17,1.355c-0.129,0.58-0.332,1.286-0.771,2.07
			c-0.218,0.393-0.495,0.805-0.901,1.211c-0.41,0.4-0.908,0.829-1.739,1.115c-0.818,0.316-2.105,0.206-2.845-0.199
			c-0.787-0.379-1.326-0.889-1.76-1.423c-0.846-1.078-1.306-2.293-1.502-3.556c-0.203-1.268-0.077-2.571,0.093-3.889
			c0.177-1.316,0.421-2.652,0.731-3.984c0.347-1.328,0.75-2.654,1.302-3.949c0.282-0.646,0.593-1.286,1.038-1.907
			c0.245-0.308,0.479-0.614,0.943-0.896c0.178-0.133,0.684-0.299,1.101-0.217c0.126,0.012,0.437,0.112,0.524,0.174
			c0.117,0.069,0.237,0.14,0.314,0.213c1.193,1.177,1.478,2.387,1.909,3.518c0.37,1.137,0.636,2.215,0.847,3.213
			c0.425,1.995,0.687,3.662,0.798,4.831C124.952,134.967,124.934,135.637,124.934,135.637z M124.934,135.637
			c0,0-0.037-2.684-1.096-6.656c-0.275-0.991-0.604-2.063-1.043-3.188c-0.477-1.1-0.905-2.348-2.035-3.37
			c-0.348-0.249-0.569-0.338-0.909-0.112c-0.321,0.205-0.55,0.504-0.751,0.793c-0.399,0.592-0.698,1.221-0.955,1.857
			c-0.514,1.279-0.879,2.6-1.197,3.921c-0.343,1.32-0.614,2.647-0.823,3.955c-0.181,1.31-0.381,2.597-0.266,3.835
			c0.11,1.237,0.491,2.438,1.248,3.497c0.384,0.524,0.879,1.024,1.588,1.388c0.669,0.383,1.759,0.497,2.545,0.225
			c0.791-0.252,1.322-0.661,1.726-1.059c0.411-0.397,0.698-0.807,0.925-1.192c0.453-0.777,0.674-1.48,0.82-2.061
			c0.127-0.581,0.183-1.04,0.197-1.353C124.926,135.803,124.934,135.637,124.934,135.637z"/>
	</g>
</g>
</svg>
