<?xml version="1.0" encoding="utf-8"?>
<!-- Generator: Adobe Illustrator 16.0.0, SVG Export Plug-In . SVG Version: 6.00 Build 0)  -->
<!DOCTYPE svg PUBLIC "-//W3C//DTD SVG 1.1//EN" "http://www.w3.org/Graphics/SVG/1.1/DTD/svg11.dtd">
<svg version="1.1" xmlns="http://www.w3.org/2000/svg" xmlns:xlink="http://www.w3.org/1999/xlink" x="0px" y="0px" width="200px"
	 height="235px" viewBox="0 0 200 235" enable-background="new 0 0 200 235" xml:space="preserve">
<g id="Ext">
</g>
<g id="Guides">
</g>
<g id="_x31_2_Col_Grid_1_" display="none" enable-background="new    ">
	<g id="Rectangle_xA0_Image_23_" display="inline" opacity="0.102">
	</g>
	<g id="Rectangle_xA0_Image_21_" display="inline" opacity="0.102">
	</g>
	<g id="Rectangle_xA0_Image_19_" display="inline" opacity="0.102">
	</g>
	<g id="Rectangle_xA0_Image_17_" display="inline" opacity="0.102">
	</g>
	<g id="Rectangle_xA0_Image_15_" display="inline" opacity="0.102">
	</g>
	<g id="Rectangle_xA0_Image_13_" display="inline" opacity="0.102">
	</g>
	<g id="Rectangle_xA0_Image_11_" display="inline" opacity="0.102">
	</g>
	<g id="Rectangle_xA0_Image_9_" display="inline" opacity="0.102">
	</g>
	<g id="Rectangle_xA0_Image_7_" display="inline" opacity="0.102">
	</g>
	<g id="Rectangle_xA0_Image_5_" display="inline" opacity="0.102">
	</g>
	<g id="Rectangle_xA0_Image_3_" display="inline" opacity="0.102">
	</g>
	<g id="Rectangle_xA0_Image_1_" display="inline" opacity="0.102">
	</g>
</g>
<g id="Bg">
</g>
<g id="main">
	<g id="Progress">
	</g>
	<g id="Text">
	</g>
</g>
<g id="pane">
</g>
<g id="browserhead">
	<g>
		<g>
			<g>
				<line fill="#C9C9D6" x1="80.186" y1="105.544" x2="84.424" y2="109.605"/>
				<path fill="#66666B" d="M80.22,105.508c0,0,1.213,0.856,2.361,1.778c0.29,0.228,0.604,0.431,0.862,0.658
					c0.247,0.239,0.443,0.499,0.595,0.737c0.31,0.474,0.421,0.888,0.42,0.888l-0.068,0.072c-0.001,0-0.419-0.094-0.905-0.382
					c-0.245-0.142-0.513-0.327-0.762-0.563c-0.238-0.248-0.455-0.553-0.694-0.833c-0.971-1.108-1.877-2.283-1.877-2.283
					L80.22,105.508z"/>
			</g>
			<g>
				<line fill="#C9C9D6" x1="71.711" y1="108.218" x2="73.607" y2="113.666"/>
				<path fill="#66666B" d="M71.758,108.201c0,0,0.683,1.29,1.279,2.609c0.152,0.328,0.338,0.646,0.462,0.96
					c0.109,0.32,0.165,0.635,0.189,0.913c0.058,0.553-0.033,0.966-0.034,0.966l-0.094,0.033c-0.001,0-0.329-0.268-0.627-0.736
					c-0.153-0.233-0.306-0.515-0.418-0.833c-0.098-0.324-0.15-0.688-0.234-1.04c-0.352-1.404-0.617-2.839-0.617-2.839
					L71.758,108.201z"/>
			</g>
			<g>
				<line fill="#C9C9D6" x1="63.237" y1="104.5" x2="60.492" y2="109.605"/>
				<path fill="#66666B" d="M63.281,104.523c0,0-0.492,1.381-1.064,2.719c-0.14,0.336-0.249,0.688-0.397,0.994
					c-0.162,0.299-0.357,0.554-0.546,0.761c-0.37,0.418-0.737,0.632-0.737,0.632l-0.088-0.047c0,0-0.024-0.425,0.12-0.964
					c0.069-0.271,0.175-0.575,0.334-0.875c0.173-0.292,0.406-0.578,0.61-0.88c0.8-1.215,1.681-2.387,1.681-2.387L63.281,104.523z"/>
			</g>
		</g>
		<g>
			<g>
				<line fill="#C9C9D6" x1="130.186" y1="105.544" x2="134.424" y2="109.605"/>
				<path fill="#66666B" d="M130.22,105.508c0,0,1.213,0.856,2.361,1.778c0.29,0.228,0.604,0.431,0.862,0.658
					c0.247,0.239,0.443,0.499,0.595,0.737c0.31,0.474,0.421,0.888,0.42,0.888l-0.068,0.072c-0.001,0-0.419-0.094-0.905-0.382
					c-0.245-0.142-0.513-0.327-0.762-0.563c-0.238-0.248-0.455-0.553-0.694-0.833c-0.971-1.108-1.877-2.283-1.877-2.283
					L130.22,105.508z"/>
			</g>
			<g>
				<line fill="#C9C9D6" x1="121.711" y1="108.218" x2="123.607" y2="113.666"/>
				<path fill="#66666B" d="M121.758,108.201c0,0,0.683,1.29,1.279,2.609c0.152,0.328,0.338,0.646,0.462,0.96
					c0.109,0.32,0.165,0.635,0.189,0.913c0.058,0.553-0.033,0.966-0.034,0.966l-0.094,0.033c-0.001,0-0.329-0.268-0.627-0.736
					c-0.153-0.233-0.306-0.515-0.418-0.833c-0.098-0.324-0.15-0.688-0.234-1.04c-0.352-1.404-0.617-2.839-0.617-2.839
					L121.758,108.201z"/>
			</g>
			<g>
				<line fill="#C9C9D6" x1="113.237" y1="104.5" x2="110.492" y2="109.605"/>
				<path fill="#66666B" d="M113.281,104.523c0,0-0.492,1.381-1.064,2.719c-0.14,0.336-0.249,0.688-0.397,0.994
					c-0.162,0.299-0.357,0.554-0.546,0.761c-0.37,0.418-0.737,0.632-0.737,0.632l-0.088-0.047c0,0-0.024-0.425,0.12-0.964
					c0.069-0.271,0.175-0.575,0.334-0.875c0.173-0.292,0.406-0.578,0.61-0.88c0.8-1.215,1.681-2.387,1.681-2.387L113.281,104.523z"
					/>
			</g>
		</g>
		<ellipse fill="#C9C9D6" stroke="#66666B" stroke-miterlimit="10" cx="70.777" cy="95.025" rx="12.799" ry="12"/>
		<ellipse fill="#C9C9D6" stroke="#66666B" stroke-miterlimit="10" cx="122.777" cy="94.225" rx="12.799" ry="12"/>
	</g>
</g>
</svg>
