<?xml version="1.0" encoding="utf-8"?>
<!-- Generator: Adobe Illustrator 16.0.0, SVG Export Plug-In . SVG Version: 6.00 Build 0)  -->
<!DOCTYPE svg PUBLIC "-//W3C//DTD SVG 1.1//EN" "http://www.w3.org/Graphics/SVG/1.1/DTD/svg11.dtd">
<svg version="1.1" id="Layer_1" xmlns="http://www.w3.org/2000/svg" xmlns:xlink="http://www.w3.org/1999/xlink" x="0px" y="0px"
	 width="200px" height="235px" viewBox="0 0 200 235" enable-background="new 0 0 200 235" xml:space="preserve">
<g id="Ext">
</g>
<g id="Guides">
</g>
<g id="_x31_2_Col_Grid_1_" display="none" enable-background="new    ">
	<g id="Rectangle_xA0_Image_23_" display="inline" opacity="0.102">
	</g>
	<g id="Rectangle_xA0_Image_21_" display="inline" opacity="0.102">
	</g>
	<g id="Rectangle_xA0_Image_19_" display="inline" opacity="0.102">
	</g>
	<g id="Rectangle_xA0_Image_17_" display="inline" opacity="0.102">
	</g>
	<g id="Rectangle_xA0_Image_15_" display="inline" opacity="0.102">
	</g>
	<g id="Rectangle_xA0_Image_13_" display="inline" opacity="0.102">
	</g>
	<g id="Rectangle_xA0_Image_11_" display="inline" opacity="0.102">
	</g>
	<g id="Rectangle_xA0_Image_9_" display="inline" opacity="0.102">
	</g>
	<g id="Rectangle_xA0_Image_7_" display="inline" opacity="0.102">
	</g>
	<g id="Rectangle_xA0_Image_5_" display="inline" opacity="0.102">
	</g>
	<g id="Rectangle_xA0_Image_3_" display="inline" opacity="0.102">
	</g>
	<g id="Rectangle_xA0_Image_1_" display="inline" opacity="0.102">
	</g>
</g>
<g id="Bg">
</g>
<g id="main">
	<g id="Progress">
	</g>
	<g id="Text">
	</g>
</g>
<g id="pane">
</g>
<g>
	<g>
		<path fill="#343435" d="M72.168,36.992c-1.717-5.258-5.953-7.926-9.938-11.854c-4.776-4.707-9.994-8.567-16.756-11.004
			c-6.67-2.402-14.609-3.39-21.287-1.248c6.506,2.562,12.791,5.438,18.485,9.44c2.776,1.952,5.301,3.661,7.337,6.261
			c2.738,3.492,6.283,6.629,8.865,10.086c0.766,1.025,1.482,3.557,2.768,4.15c1.623,0.752,5.256-0.271,6.764-0.922
			c1.574-0.682,3.286-1.8,4.074-3.18c1.005-1.761,0.41-2.03-1.062-3.456"/>
		<path fill="#343435" d="M138.504,39.733c2.757-3.609,6.246-6.968,9.004-10.667c2.246-3.014,5.029-4.995,8.09-7.258
			c6.279-4.64,13.209-7.976,20.381-10.944c-7.362-2.483-16.115-1.339-23.469,1.446c-7.457,2.825-13.209,7.3-18.475,12.757
			c-3.438,3.564-7.041,6.239-9.354,10.155C129.45,36.363,134.066,37.877,138.504,39.733z"/>
	</g>
	<g>
		<path fill="#C9C9D6" stroke="#66666B" stroke-miterlimit="10" d="M131.52,199.496c-4.647,2.084-9.51,3.789-14.541,5.078
			l1.668,15.443c0.084,0.771,0.287,1.506,0.586,2.184l6.605-5.443l7.615,3.91c0.146-0.729,0.189-1.486,0.107-2.262L131.52,199.496z"
			/>
		<path fill="#C9C9D6" stroke="#66666B" stroke-miterlimit="10" d="M68.453,202.614l-1.451,18.507
			c-0.062,0.771,0.002,1.533,0.171,2.254l7.498-6.424l6.761,7.545c0.277-0.688,0.461-1.426,0.522-2.203l1.169-14.873
			C78.053,206.227,73.148,204.611,68.453,202.614z"/>
	</g>
	<g>
		<g>
			<path fill="#C9C9D6" d="M169.771,64.398c1.607-0.495,3.24-0.786,4.207-0.974c-2.125-2.326-4.33-2.511-6.674-1.915
				c-0.681-0.762-1.369-1.513-2.074-2.25c1.453-0.413,2.875-0.665,3.748-0.835c-2.08-2.276-4.237-2.499-6.527-1.949
				c-0.77-0.739-1.549-1.467-2.346-2.179c1.498-0.435,2.975-0.698,3.873-0.872c-2.232-2.442-4.554-2.521-7.029-1.816
				c-0.863-0.703-1.738-1.394-2.629-2.064c1.748-0.586,3.602-0.914,4.658-1.119c-2.588-2.831-5.291-2.488-8.224-1.429
				c-0.924-0.628-1.854-1.241-2.803-1.836c1.896-0.71,4.037-1.083,5.205-1.31c-2.724-2.979-5.574-2.445-8.685-1.259
				c-0.146,0.1-0.27,0.181-0.404,0.271c-0.039-0.021-0.077-0.043-0.115-0.064l0.396-0.159c-0.135,0.052-0.268,0.104-0.4,0.156
				c-8.422-4.697-17.676-8.115-27.508-9.944c-0.012-0.743-0.024-1.486-0.015-2.236l-0.435,2.108
				c0.152-4.142,1.683-7.896,2.984-10.58c-2.867,0.193-8.998,1.535-10.8,9.558c-0.399-0.037-0.801-0.073-1.202-0.104
				c-0.441-4.316-0.306-10.52,0.278-13.485c-0.44,2.737-2.209,3.319-3.384,4.717c-1.76,2.093-2.864,4.569-3.921,8.476
				c-0.113,0-0.227-0.004-0.342-0.004c-0.491,0-0.98,0.011-1.469,0.019c-0.99-1.786-2.119-3.139-3.645-4.333
				c-1.467-1.147-3.672-1.626-4.224-3.874c0.571,1.909,0.8,5.453,0.607,8.604c-0.958,0.09-1.915,0.193-2.864,0.312
				c-3.028-4.599-9.248-5.467-12.371-5.605c1.377,1.871,2.949,4.379,3.515,7.173c-0.083,0.019-0.165,0.04-0.248,0.06l-0.086-0.274
				c0.002,0.099-0.004,0.196-0.003,0.296c-8.111,1.886-15.789,4.867-22.889,8.748c-0.417-0.087-0.837-0.156-1.15-0.336l2-0.167
				c-2.463,0.094-4.203-0.335-6.533,0.537c-1.927,0.721-3.533,1.963-5.42,2.759c2.244,0.174,4.183-0.885,6.444-0.629
				c0.234,0.024,0.48,0.062,0.73,0.109c-0.744,0.458-1.479,0.93-2.209,1.407c-1.527-0.039-2.889-0.076-4.541,0.543
				c-1.927,0.721-3.533,1.963-5.42,2.759c2.134,0.165,3.994-0.771,6.117-0.645c-0.609,0.445-1.209,0.899-1.807,1.359
				c-1.275-0.021-2.475,0.026-3.891,0.557c-1.927,0.721-3.533,1.963-5.42,2.759c2.1,0.163,3.936-0.741,6.016-0.649
				c-0.898,0.764-1.783,1.544-2.65,2.342c-0.943,0.029-1.883,0.151-2.945,0.549c-1.927,0.721-3.533,1.963-5.42,2.759
				c1.963,0.152,3.693-0.64,5.61-0.668c-0.774,0.773-1.533,1.561-2.278,2.361c-0.932,0.031-1.861,0.154-2.912,0.548
				c-1.927,0.721-3.533,1.963-5.42,2.759c2.082,0.161,3.903-0.725,5.961-0.651C17.576,78.19,9.6,98.078,9.6,119.809
				c0,48.881,40.299,88.508,90.01,88.508c49.708,0,90.008-39.627,90.008-88.508C189.617,98.827,182.178,79.566,169.771,64.398z"/>
			<path fill="#66666B" d="M169.684,64.369l2.166-0.559c0.348-0.099,0.705-0.149,1.059-0.227l1.061-0.213l-0.029,0.091l-0.657-0.635
				c-0.212-0.221-0.482-0.369-0.722-0.558c-0.233-0.197-0.521-0.305-0.787-0.452c-0.262-0.159-0.564-0.218-0.851-0.319
				c-0.282-0.116-0.595-0.112-0.891-0.175c-0.302-0.046-0.606-0.018-0.909-0.031c-0.305,0.014-0.604,0.062-0.907,0.092l-0.896,0.187
				l-0.036,0.008l-0.025-0.026l-2.073-2.246l-0.08-0.085l0.108-0.024l3.752-0.84l-0.038,0.115l-0.642-0.621
				c-0.207-0.216-0.472-0.362-0.703-0.547c-0.229-0.193-0.509-0.302-0.769-0.447c-0.252-0.157-0.547-0.22-0.823-0.322
				c-0.275-0.116-0.58-0.118-0.867-0.183c-0.293-0.052-0.592-0.027-0.89-0.045c-0.295,0.007-0.59,0.051-0.887,0.074l-0.877,0.17
				l-0.043,0.009l-0.029-0.028l-2.346-2.174l-0.115-0.105l0.146-0.033l3.879-0.878l-0.048,0.142l-0.69-0.661
				c-0.223-0.229-0.508-0.38-0.758-0.574c-0.248-0.206-0.555-0.307-0.832-0.456c-0.275-0.163-0.598-0.206-0.896-0.308
				c-0.302-0.105-0.625-0.094-0.937-0.146c-0.156-0.03-0.316-0.006-0.476-0.007l-0.476,0.012c-0.316,0.03-0.631,0.088-0.945,0.131
				l-0.932,0.227l-0.048,0.011l-0.038-0.028l-2.628-2.06l-0.153-0.121l0.182-0.05l2.32-0.633c0.386-0.116,0.783-0.169,1.174-0.256
				l1.176-0.238l-0.057,0.17l-0.81-0.759c-0.263-0.261-0.604-0.419-0.899-0.634c-0.293-0.233-0.668-0.302-0.996-0.462
				c-0.334-0.157-0.713-0.163-1.067-0.253c-0.179-0.051-0.366-0.021-0.548-0.033l-0.553-0.008c-0.365,0.031-0.731,0.092-1.098,0.137
				l-1.078,0.269l-1.061,0.351l-0.055,0.019l-0.047-0.031l-2.801-1.83l-0.213-0.14l0.232-0.067l2.592-0.757
				c0.43-0.14,0.876-0.193,1.312-0.295l1.317-0.27l-0.065,0.202l-0.854-0.794c-0.278-0.272-0.642-0.432-0.957-0.654
				c-0.312-0.234-0.709-0.298-1.06-0.457c-0.356-0.145-0.756-0.143-1.131-0.223c-0.188-0.038-0.387-0.002-0.578-0.008l-0.58,0.014
				c-0.385,0.059-0.769,0.124-1.149,0.193l-1.129,0.317l-1.108,0.394l0.026-0.014l-0.403,0.271l-0.067,0.046l-0.071-0.039
				l-0.117-0.065l-0.242-0.135l0.258-0.104l0.396-0.16l0.098,0.248L144,42.92l-0.057,0.022l-0.06-0.03l-6.546-3.301l-3.395-1.386
				c-1.133-0.458-2.258-0.935-3.396-1.377l-3.493-1.106c-1.166-0.365-2.326-0.746-3.496-1.098l-7.146-1.631l-0.135-0.03
				l-0.002-0.129l-0.017-2.241l0.333,0.036l-0.434,2.108l-0.336-0.041l0.104-1.392c0.048-0.463,0.136-0.921,0.199-1.381
				c0.063-0.461,0.19-0.909,0.283-1.364c0.088-0.457,0.241-0.897,0.36-1.346c0.116-0.45,0.283-0.884,0.429-1.325
				c0.142-0.442,0.323-0.869,0.489-1.303c0.34-0.862,0.728-1.706,1.123-2.542l0.176,0.261c-1.276,0.093-2.545,0.356-3.733,0.825
				c-0.599,0.224-1.172,0.514-1.717,0.844c-0.282,0.15-0.531,0.352-0.793,0.532c-0.269,0.174-0.494,0.401-0.74,0.604
				c-0.25,0.198-0.457,0.442-0.68,0.672c-0.229,0.223-0.425,0.476-0.614,0.73c-0.199,0.25-0.393,0.504-0.55,0.783
				c-0.16,0.275-0.354,0.531-0.484,0.824L109.254,29c-0.125,0.294-0.227,0.599-0.341,0.897c-0.248,0.592-0.356,1.231-0.542,1.844
				l-0.053,0.169l-0.16-0.014l-1.2-0.104l-0.173-0.015l-0.012-0.164l-0.221-3.387c-0.023-1.129-0.02-2.259-0.029-3.389
				c-0.019-0.565,0.033-1.13,0.056-1.694l0.081-1.694c0.02-0.282,0.014-0.565,0.06-0.847l0.107-0.846l0.215-1.69l0.423,0.075
				l-0.23,0.968c-0.14,0.303-0.242,0.625-0.414,0.912c-0.182,0.28-0.348,0.574-0.58,0.813c-0.209,0.262-0.451,0.48-0.688,0.706
				c-0.475,0.439-0.985,0.828-1.387,1.293c-0.199,0.193-0.379,0.499-0.57,0.744l-0.562,0.776c-0.207,0.251-0.331,0.538-0.482,0.813
				l-0.443,0.829c-0.15,0.274-0.299,0.551-0.401,0.853l-0.351,0.886c-0.242,0.585-0.465,1.18-0.631,1.796l-0.551,1.829l-0.053,0.173
				l-0.172,0.223c-0.6-0.008-1.205,0.24-1.809,0.24h-0.132l-0.075-0.345l-0.746-1.331l-0.858-1.194
				c-0.327-0.344-0.646-0.725-0.979-1.061l-0.539-0.48c-0.18-0.148-0.361-0.332-0.537-0.459c-0.396-0.29-0.794-0.53-1.207-0.767
				c-0.42-0.236-0.844-0.485-1.255-0.769c-0.196-0.158-0.411-0.291-0.591-0.472c-0.172-0.188-0.375-0.352-0.52-0.564
				c-0.135-0.221-0.301-0.426-0.403-0.661l-0.267-0.728l0.475-0.129l0.232,1.079c0.078,0.359,0.162,0.719,0.186,1.082
				c0.064,0.724,0.188,1.446,0.203,2.173c0.02,0.727,0.067,1.452,0.062,2.178l-0.059,2.179l-0.006,0.213l-0.225,0.024l-2.854,0.313
				l-0.153,0.017l-0.094-0.13c-0.334-0.464-0.672-0.924-1.075-1.332c-0.183-0.221-0.413-0.396-0.62-0.593
				c-0.205-0.2-0.438-0.369-0.667-0.541c-0.224-0.179-0.46-0.342-0.708-0.489c-0.241-0.155-0.483-0.31-0.742-0.438
				c-0.255-0.134-0.504-0.278-0.771-0.389c-0.266-0.113-0.52-0.248-0.794-0.343c-2.151-0.85-4.474-1.241-6.79-1.354l0.228-0.426
				l0.578,0.833c0.188,0.281,0.396,0.549,0.567,0.842l0.517,0.877c0.165,0.297,0.36,0.576,0.499,0.887l0.423,0.931l0.211,0.466
				c0.063,0.157,0.155,0.304,0.196,0.471l0.576,1.971L79.5,33.79l-0.283,0.068l-0.244,0.059l-0.248,0.061l-0.077-0.245l-0.087-0.274
				l0.537-0.088l-0.002,0.299l-0.002,0.214l-0.211,0.057l-5.912,1.599l-5.789,1.997l-5.641,2.385l-5.467,2.759l-0.102,0.051
				l-0.1-0.021l-0.602-0.129c-0.21-0.068-0.427-0.156-0.637-0.238L53.498,41.9l1.261-0.106l1.999-0.169l0.037,0.594
				c-1.074,0.042-2.141-0.023-3.18-0.02c-1.04,0.001-2.059,0.125-3.023,0.469c-0.247,0.064-0.453,0.178-0.709,0.287l-0.724,0.324
				c-0.249,0.1-0.46,0.242-0.691,0.361l-0.681,0.374L46.4,44.792l-1.451,0.709l-0.096-0.59c0.575,0.024,1.152,0.003,1.735-0.087
				c0.583-0.087,1.165-0.213,1.765-0.327c0.594-0.118,1.209-0.216,1.834-0.243c0.311-0.038,0.629,0.01,0.943,0.016
				c0.16,0.001,0.33,0.031,0.469,0.053l0.447,0.068l0.824,0.125l-0.707,0.451l-2.2,1.192L49.883,46h-0.1
				c-0.441,0-0.888,0.186-1.322,0.203c-0.434,0.021-0.873,0.119-1.293,0.204l-0.639,0.147l-0.617,0.206
				c-0.197,0.062-0.43,0.132-0.6,0.198l-0.609,0.279c-0.409,0.18-0.816,0.364-1.189,0.585l-1.152,0.638
				c-0.395,0.216-0.773,0.448-1.18,0.65l-1.226,0.596l-0.101-0.621l0.734,0.013l0.74-0.06c0.496-0.068,0.994-0.155,1.496-0.258
				c0.504-0.104,1.018-0.412,1.539-0.49L45.16,48h0.807l0.962,0.22l-0.787,0.702l-1.799,1.41l-0.087,0.093l-0.121,0.017
				c-0.408,0.012-0.828-0.011-1.229,0.033l-0.607,0.047l-0.594,0.106c-0.401,0.046-0.776,0.205-1.164,0.312
				c-0.196,0.048-0.35,0.139-0.556,0.227l-0.573,0.256c-0.392,0.16-0.742,0.366-1.101,0.562l-1.086,0.602
				c-0.372,0.201-0.722,0.425-1.11,0.606l-1.153,0.56l-0.105-0.65l0.722,0.013l0.727-0.057c0.486-0.065,0.976-0.15,1.469-0.25
				c0.496-0.102,1-0.193,1.512-0.272l0.781-0.08l0.795-0.009l0.904-0.011l-0.697,0.617l-2.639,2.334l-0.088,0.079l-0.136,0.013
				l-1.093,0.105c-0.371,0.004-0.707,0.164-1.062,0.24l-0.525,0.143c-0.18,0.034-0.312,0.121-0.502,0.198l-1.037,0.466l-1.961,1.086
				c-0.334,0.185-0.658,0.38-1.013,0.542l-1.045,0.507l-0.11-0.68l1.348-0.035l1.367-0.226l1.401-0.27l1.462-0.144l0.938-0.092
				l-0.68,0.705l-2.267,2.354l-0.096,0.1l-0.157,0.016l-1.086,0.107c-0.371,0.005-0.703,0.168-1.057,0.242l-0.521,0.143
				c-0.18,0.033-0.311,0.127-0.5,0.201l-1.031,0.464l-1.953,1.082c-0.332,0.185-0.656,0.379-1.01,0.54l-1.042,0.506l-0.114-0.708
				l0.711,0.014l0.717-0.056c0.48-0.064,0.965-0.146,1.454-0.246c0.491-0.1,0.989-0.191,1.499-0.271l0.773-0.083l0.791-0.015
				l0.805-0.015l-0.535,0.632c-5.389,6.375-9.992,13.441-13.385,21.076c-1.702,3.809-3.188,7.723-4.317,11.742
				c-1.136,4.017-1.991,8.109-2.571,12.243c-0.551,4.136-0.785,8.321-0.766,12.48c0.031,4.21,0.41,8.336,0.998,12.477
				c0.691,4.114,1.557,8.205,2.805,12.189c1.27,3.971,2.691,7.907,4.529,11.657c1.807,3.758,3.807,7.434,6.15,10.888
				c2.311,3.472,4.832,6.812,7.631,9.905c1.349,1.595,2.855,3.043,4.306,4.541c1.526,1.422,3.021,2.879,4.64,4.199
				c1.561,1.387,3.25,2.613,4.893,3.897c1.717,1.184,3.391,2.437,5.18,3.51c3.508,2.261,7.206,4.215,11.004,5.938
				c3.781,1.766,7.73,3.146,11.719,4.356c3.995,1.208,8.094,2.025,12.209,2.699c4.133,0.554,8.293,0.95,12.467,0.966
				c1.043,0.049,2.069-0.006,3.127-0.027c1.045-0.039,2.102-0.022,3.138-0.109c2.073-0.158,4.149-0.279,6.216-0.583
				c2.076-0.216,4.123-0.621,6.18-0.97c1.025-0.188,2.037-0.446,3.057-0.666c1.02-0.221,2.035-0.455,3.035-0.752
				c4.048-1.023,7.972-2.475,11.828-4.053c3.853-1.611,7.553-3.558,11.156-5.66c3.572-2.158,6.989-4.564,10.262-7.158
				c3.222-2.654,6.303-5.481,9.162-8.526c2.818-3.078,5.492-6.297,7.879-9.728c2.355-3.444,4.57-6.998,6.427-10.744
				c3.75-7.461,6.473-15.456,7.924-23.689c0.427-2.048,0.621-4.132,0.913-6.201l0.253-3.125l0.119-1.562l0.043-1.567
				c0.194-4.168-0.015-8.381-0.455-12.524c-0.866-8.321-3.013-16.499-6.228-24.228c-3.225-7.73-7.617-14.96-12.867-21.492
				L169.684,64.369z M169.857,64.428c5.283,6.482,9.729,13.672,13.012,21.38c3.281,7.729,5.516,15.927,6.43,24.29
				c0.462,4.189,0.686,8.378,0.508,12.593l-0.039,1.576l-0.113,1.573l-0.241,3.146c-0.284,2.084-0.474,4.184-0.896,6.246
				c-1.428,8.293-4.139,16.356-7.889,23.891c-1.854,3.782-4.072,7.372-6.434,10.855c-2.396,3.467-5.076,6.723-7.908,9.838
				c-2.873,3.082-5.969,5.947-9.209,8.64c-3.293,2.629-6.732,5.071-10.331,7.267c-3.63,2.137-7.358,4.116-11.243,5.758
				c-3.891,1.61-7.852,3.092-11.938,4.143c-1.01,0.304-2.035,0.546-3.064,0.771c-1.029,0.227-2.051,0.491-3.087,0.686
				c-2.076,0.365-4.146,0.771-6.245,0.986c-2.086,0.305-4.199,0.428-6.307,0.584c-1.055,0.086-2.098,0.067-3.147,0.106
				c-1.038,0.021-2.108,0.074-3.162,0.024c-4.218-0.021-8.423-0.426-12.599-0.99c-4.158-0.686-8.3-1.516-12.336-2.741
				c-4.03-1.227-8.02-2.627-11.839-4.415c-3.835-1.744-7.569-3.725-11.11-6.013c-1.809-1.087-3.496-2.353-5.23-3.552
				c-1.658-1.299-3.363-2.541-4.938-3.943c-1.633-1.335-3.143-2.809-4.684-4.246c-1.463-1.515-2.982-2.98-4.344-4.591
				c-2.824-3.129-5.367-6.506-7.697-10.015c-2.362-3.492-4.379-7.207-6.201-11.004c-1.852-3.791-3.283-7.769-4.561-11.779
				c-1.257-4.025-2.125-8.158-2.82-12.312c-0.588-4.162-0.969-8.402-0.992-12.584c-0.018-4.227,0.225-8.432,0.785-12.611
				c0.59-4.173,1.459-8.304,2.609-12.356c1.145-4.057,2.648-8.004,4.373-11.845c3.436-7.697,8.092-14.818,13.537-21.237l0.27,0.617
				l-0.713,0.012l-0.721,0.076c-0.48,0.074-0.967,0.163-1.459,0.263c-0.494,0.099-0.998,0.185-1.511,0.252l-0.78,0.06L24.8,63.81
				l-1.51-0.031l1.395-0.677l0.996-0.482c0.336-0.151,0.66-0.345,0.988-0.526l2.012-1.107l1.035-0.464
				c0.16-0.062,0.354-0.181,0.549-0.22l0.57-0.155c0.383-0.083,0.754-0.253,1.146-0.26l1.168-0.113l-0.253,0.115l2.288-2.369
				l0.26,0.613l-1.355,0.132l-1.379,0.263l-1.428,0.231l-1.48,0.036l-1.592,0.038l1.481-0.718l1.001-0.485
				c0.336-0.151,0.662-0.347,0.99-0.528l2.02-1.111l1.038-0.463c0.16-0.065,0.358-0.179,0.552-0.218l0.572-0.155
				c0.383-0.084,0.754-0.251,1.148-0.257l1.171-0.11l-0.224,0.091l2.662-2.349l0.207,0.606l-0.723,0.007l-0.728,0.074
				c-0.487,0.074-0.978,0.162-1.474,0.263c-0.498,0.101-1.006,0.188-1.521,0.256L35.6,53.794l-0.796-0.017l-1.39-0.028l1.284-0.622
				l1.106-0.536c0.37-0.171,0.727-0.397,1.092-0.594l1.111-0.612c0.376-0.204,0.75-0.42,1.135-0.576l0.572-0.256
				c0.18-0.074,0.395-0.19,0.606-0.243c0.418-0.117,0.824-0.282,1.258-0.335c0.428-0.09,0.856-0.14,1.288-0.156
				c0.432-0.045,0.852-0.015,1.279-0.025l-0.207,0.068L45.75,48.5l0.176,0.595l-0.735-0.002L44.45,49.16
				c-0.496,0.073-0.994,0.161-1.498,0.264c-0.506,0.102-1.021,0.191-1.545,0.263l-0.796,0.062l-0.808-0.016l-1.332-0.025
				l1.231-0.597l1.179-0.571c0.393-0.193,0.775-0.427,1.162-0.638l1.188-0.653c0.397-0.231,0.804-0.41,1.212-0.588l0.609-0.272
				c0.244-0.096,0.449-0.14,0.676-0.212l0.666-0.191l0.685-0.102c0.456-0.088,0.912-0.08,1.368-0.103
				c0.455-0.017,0.899,0.009,1.35,0.012l-0.181,0.051l2.218-1.409l0.117,0.576l-0.447-0.068c-0.158-0.024-0.285-0.049-0.429-0.049
				c-0.287-0.003-0.571-0.052-0.862-0.016c-0.578,0.025-1.158,0.114-1.746,0.23c-0.586,0.11-1.182,0.239-1.792,0.328
				c-0.61,0.094-1.239,0.118-1.87,0.089l-1.193-0.056l1.098-0.534l1.398-0.682l1.381-0.771l0.709-0.388
				c0.239-0.121,0.471-0.273,0.715-0.37l0.725-0.323c0.229-0.099,0.492-0.235,0.758-0.306c1.031-0.366,2.143-0.497,3.214-0.495
				c1.075-0.002,2.122,0.064,3.161,0.025l0.036,0.594l-1.999,0.165l0.121-0.552c0.166,0.057,0.32,0.121,0.49,0.18l0.574,0.124
				l-0.201,0.03l5.507-2.768l5.681-2.391l5.828-2l5.951-1.599l-0.213,0.271l0.004-0.293l0.02-1.745l0.518,1.657l0.085,0.274
				l-0.325-0.185l0.252-0.061l-0.209,0.322l-0.551-1.892c-0.039-0.16-0.128-0.303-0.189-0.456l-0.203-0.45l-0.408-0.902
				c-0.133-0.302-0.326-0.575-0.485-0.865l-0.502-0.857c-0.167-0.285-0.372-0.55-0.556-0.826l-0.566-0.819l-0.314-0.454l0.541,0.027
				c2.366,0.12,4.738,0.521,6.959,1.403c0.283,0.098,0.549,0.237,0.822,0.355c0.276,0.114,0.535,0.266,0.801,0.404
				c0.268,0.134,0.52,0.295,0.771,0.458c0.258,0.153,0.504,0.324,0.74,0.512c0.24,0.181,0.48,0.358,0.697,0.568
				c0.219,0.207,0.458,0.392,0.65,0.625c0.424,0.431,0.781,0.915,1.132,1.406l-0.245-0.113l2.871-0.312l-0.229,0.24l0.061-2.148
				c0.006-0.716-0.041-1.433-0.059-2.148c-0.014-0.717-0.134-1.423-0.195-2.135c-0.022-0.359-0.104-0.703-0.178-1.049l-0.219-1.038
				l0.475-0.129l0.231,0.635c0.089,0.206,0.236,0.381,0.35,0.574c0.124,0.188,0.309,0.332,0.459,0.502
				c0.16,0.161,0.362,0.286,0.542,0.432c0.384,0.267,0.795,0.508,1.216,0.747c0.427,0.245,0.858,0.507,1.241,0.789
				c0.217,0.157,0.381,0.321,0.572,0.481l0.557,0.483c0.348,0.349,0.676,0.716,1.014,1.074l0.885,1.179l0.767,1.256l-0.206-0.12
				c0.605-0.003,1.206-0.022,1.812-0.013l-0.223,0.171l0.562-1.848c0.169-0.621,0.396-1.226,0.645-1.822l0.358-0.901
				c0.104-0.305,0.259-0.593,0.418-0.879l0.464-0.863c0.159-0.284,0.297-0.588,0.499-0.833l0.565-0.776
				c0.203-0.26,0.345-0.516,0.599-0.777c0.44-0.505,0.957-0.893,1.422-1.322c0.228-0.215,0.462-0.426,0.652-0.666
				c0.218-0.222,0.366-0.489,0.534-0.744c0.156-0.262,0.248-0.558,0.38-0.834l0.218-0.899l0.423,0.076l-0.215,1.661l-0.106,0.831
				c-0.045,0.275-0.041,0.559-0.062,0.838L107,23.165c-0.021,0.561-0.075,1.12-0.059,1.683c0.009,1.123,0.002,2.246,0.022,3.369
				l0.211,3.359l-0.184-0.179l1.204,0.105l-0.211,0.154c0.189-0.628,0.304-1.28,0.56-1.89c0.118-0.307,0.224-0.619,0.354-0.922
				l0.435-0.888c0.136-0.301,0.338-0.566,0.503-0.852c0.164-0.287,0.363-0.55,0.57-0.809c0.199-0.264,0.402-0.524,0.64-0.756
				c0.229-0.237,0.446-0.489,0.706-0.695c0.254-0.211,0.49-0.444,0.77-0.625c0.271-0.187,0.531-0.395,0.824-0.55
				c0.564-0.341,1.156-0.639,1.775-0.868c1.229-0.482,2.533-0.749,3.846-0.842l0.311-0.022l-0.135,0.283
				c-0.396,0.83-0.779,1.665-1.119,2.518c-0.164,0.429-0.347,0.851-0.485,1.287c-0.146,0.436-0.312,0.863-0.427,1.307
				c-0.118,0.443-0.271,0.877-0.358,1.327c-0.092,0.448-0.218,0.89-0.28,1.344c-0.065,0.452-0.152,0.902-0.199,1.357l-0.107,1.367
				l-0.336-0.04l0.436-2.108l0.324-1.561l0.01,1.598l0.012,2.23l-0.135-0.159l7.168,1.651c1.172,0.355,2.336,0.74,3.506,1.109
				l3.502,1.117c1.144,0.446,2.271,0.927,3.406,1.389l3.4,1.398l6.559,3.324l-0.113-0.007l0.4-0.156l0.098,0.248l-0.396,0.158
				l0.017-0.238l0.115,0.063l-0.14,0.006l0.403-0.271l0.016-0.01l0.014-0.004l1.123-0.396l1.149-0.321
				c0.394-0.07,0.789-0.137,1.185-0.196l0.604-0.013c0.199,0.006,0.402-0.029,0.602,0.01c0.393,0.082,0.809,0.085,1.184,0.235
				c0.367,0.165,0.781,0.237,1.105,0.48c0.328,0.229,0.705,0.4,0.992,0.681l0.877,0.82l0.166,0.154l-0.232,0.048l-1.313,0.265
				c-0.435,0.1-0.883,0.153-1.308,0.29l-2.565,0.743l0.021-0.207l2.804,1.842l-0.103-0.013l1.074-0.353l1.1-0.271
				c0.375-0.046,0.75-0.107,1.127-0.139l0.571,0.009c0.189,0.013,0.382-0.016,0.568,0.037c0.368,0.092,0.761,0.102,1.108,0.265
				c0.342,0.165,0.731,0.242,1.033,0.481c0.307,0.222,0.659,0.389,0.928,0.656l0.828,0.779l0.139,0.131l-0.195,0.039l-1.174,0.235
				c-0.389,0.086-0.787,0.139-1.168,0.253l-2.305,0.623l0.026-0.171l2.63,2.069l-0.084-0.018l0.944-0.227
				c0.323-0.044,0.646-0.102,0.967-0.133l0.49-0.012c0.162,0.002,0.326-0.021,0.487,0.009c0.322,0.055,0.656,0.046,0.968,0.154
				c0.31,0.104,0.641,0.151,0.925,0.319c0.287,0.154,0.604,0.261,0.855,0.471c0.257,0.199,0.551,0.356,0.776,0.591l0.702,0.677
				l0.111,0.106l-0.158,0.035l-3.865,0.866l0.031-0.139l2.346,2.183l-0.072-0.019l0.894-0.172c0.301-0.022,0.603-0.067,0.905-0.074
				c0.304,0.019,0.609-0.005,0.908,0.049c0.297,0.065,0.608,0.069,0.892,0.189c0.284,0.105,0.588,0.171,0.848,0.333
				c0.265,0.148,0.552,0.262,0.785,0.459c0.235,0.188,0.504,0.341,0.715,0.56l0.651,0.633l0.089,0.088l-0.127,0.029l-3.744,0.829
				l0.03-0.109l2.072,2.254l-0.062-0.019l0.906-0.188c0.307-0.029,0.612-0.077,0.922-0.091c0.31,0.014,0.621-0.014,0.927,0.034
				c0.303,0.063,0.62,0.062,0.91,0.18c0.291,0.104,0.602,0.166,0.866,0.329c0.271,0.149,0.563,0.261,0.803,0.462
				c0.242,0.191,0.519,0.345,0.729,0.567l0.666,0.645l0.072,0.07l-0.104,0.021l-1.057,0.21c-0.353,0.076-0.709,0.126-1.056,0.224
				L169.857,64.428z"/>
		</g>
		<g>
			<path fill="#C9C9D6" d="M144.479,42.589l-0.127,0.051c0.041-0.016,0.082-0.032,0.123-0.048L144.479,42.589z"/>
			<path fill="#66666B" d="M144.497,42.635c0.011,0.151,0.013,0.276,0.003,0.376l-0.291-0.745c-0.033-0.15-0.012-0.155,0.023-0.121
				c0.039,0.041,0.1,0.134,0.203,0.345l-0.025,0.017l0.039,0.043L144.497,42.635z M144.508,42.629l0.031,0.049l-0.025,0.017
				c0.062,0.227,0.08,0.336,0.079,0.393c-0.005,0.05-0.024,0.062-0.099-0.073l-0.531-0.954l0.24,0.209
				c0.074,0.065,0.161,0.157,0.257,0.274L144.508,42.629z"/>
		</g>
	</g>
	<path fill="#FCFCFC" stroke="#FCFCFC" stroke-width="1.0166" stroke-miterlimit="10" d="M94.146,161.148
		c1.863,0.916,3.283,0.867,5.334,0.861c1.221-0.002,3.551,0.949,4.34-0.127c-0.211,2.59,0.598,5.201,0.492,7.846
		c-0.078,1.939-0.455,3.771-0.537,5.703c-0.615-1.753-0.404-3.139-1.703-4.603c-0.915-1.03-1.736-1.706-1.592-3
		c0,3.239-0.385,6.292-1.168,9.288c-0.277-1.682-0.954-2.588-1.704-4.044c-0.71-1.382-0.628-2.841-0.63-4.466
		c-0.193,1.524-1.02,2.597-1.666,3.92c-0.514,1.051-0.491,2.791-0.832,3.461c0.084-2.401-0.674-5.174-0.668-7.746
		c0.006-2.391,0.668-4.376,0.668-6.749"/>
	<g>
		<g>
			<path fill="#C9C9D6" d="M63.979,107.471c0,0-0.801,15.064,0,20c0.633,3.901,2.834,11.693,5,15c2.906,4.437,10.596,12.047,15,15
				c2.321,1.557,7.266,4.415,10,5c1.223,0.262,5,1.25,5,0"/>
			<path fill="#66666B" d="M64.028,107.474c0,0,0.009,1.153,0.024,3.173c0.009,1.009,0.019,2.233,0.03,3.638
				c0.021,1.403,0.046,2.985,0.072,4.712c0.048,1.724,0.093,3.591,0.239,5.544c0.051,0.979,0.218,1.958,0.345,2.934
				c0.106,0.508,0.212,1.022,0.321,1.543c0.121,0.504,0.242,1.013,0.365,1.525c0.531,2.062,1.16,4.188,1.918,6.29
				c0.794,2.099,1.621,4.167,2.944,5.916c0.651,0.972,1.372,1.806,2.069,2.674c0.723,0.856,1.489,1.701,2.237,2.533
				c1.54,1.637,3.095,3.217,4.671,4.665c0.785,0.727,1.566,1.432,2.346,2.097c0.764,0.694,1.547,1.308,2.318,1.892
				c1.562,1.17,3.15,2.127,4.635,2.985c1.494,0.829,2.871,1.601,4.147,2.11c1.253,0.496,2.478,0.777,3.44,1.003
				c0.973,0.2,1.762,0.317,2.264,0.213c0.266-0.032,0.389-0.41,0.464-0.503c0.032-0.12,0.049-0.417,0.049-0.417h0.1
				c0,0-0.016,0.313-0.046,0.464c-0.078,0.129-0.246,0.434-0.527,0.48c-0.544,0.142-1.352,0.134-2.348-0.031
				c-0.994-0.188-2.2-0.38-3.539-0.839c-1.332-0.466-2.756-1.166-4.285-1.974c-1.52-0.828-3.156-1.746-4.777-2.893
				c-0.809-0.578-1.628-1.184-2.418-1.861c-0.815-0.649-1.603-1.363-2.406-2.088c-1.607-1.449-3.191-3.027-4.766-4.666
				c-1.535-1.668-3.107-3.381-4.44-5.266c-1.386-1.869-2.233-4.061-3.013-6.186c-0.75-2.146-1.363-4.299-1.883-6.398
				c-0.253-1.055-0.475-2.096-0.651-3.12c-0.11-1.038-0.251-2.054-0.276-3.045c-0.095-1.981-0.09-3.856-0.092-5.587
				c0.092-6.919,0.367-11.524,0.367-11.524L64.028,107.474z"/>
		</g>
		<g>
			<path fill="#C9C9D6" d="M133.979,107.471c0,0,0.631,15.04,0,20c-0.498,3.922-2.99,11.596-5,15c-2.694,4.566-10.817,11.738-15,15
				c-2.203,1.719-7.278,4.357-10,5c-1.217,0.287-5,0.502-5,0.502"/>
			<path fill="#66666B" d="M134.027,107.469c0,0,0.125,1.144,0.277,3.148c0.133,2.006,0.37,4.872,0.479,8.322
				c0.041,1.726,0.094,3.596,0.064,5.586c0.014,1-0.08,2.014-0.142,3.121c-0.07,0.514-0.147,1.03-0.235,1.552
				c-0.117,0.534-0.234,1.071-0.354,1.614c-0.521,2.137-1.146,4.289-1.913,6.448c-0.799,2.144-1.597,4.351-2.949,6.396
				c-0.344,0.469-0.623,0.948-1.019,1.405l-1.151,1.375c-0.771,0.906-1.582,1.703-2.364,2.545c-1.623,1.607-3.254,3.146-4.883,4.574
				c-1.62,1.438-3.247,2.754-4.839,3.948l-0.589,0.449c-0.266,0.183-0.426,0.274-0.643,0.415c-0.403,0.257-0.803,0.51-1.193,0.759
				c-0.786,0.496-1.645,0.883-2.413,1.302c-0.772,0.428-1.55,0.733-2.281,1.041c-0.735,0.301-1.419,0.61-2.122,0.782
				c-0.699,0.187-1.3,0.427-1.941,0.521c-0.605,0.05-1.16,0.094-1.662,0.134c-0.998,0.102-1.803,0.092-2.344,0.103
				c-0.541,0.008-0.829,0.012-0.829,0.012l-0.006-0.1c0,0,0.286-0.021,0.821-0.059c0.535-0.036,1.32-0.084,2.315-0.223
				c0.498-0.062,1.05-0.129,1.65-0.203c0.582-0.108,1.191-0.379,1.854-0.584c0.672-0.192,1.337-0.528,2.049-0.855
				c0.707-0.335,1.471-0.648,2.209-1.088c0.743-0.432,1.553-0.814,2.324-1.329c0.758-0.541,1.596-1.004,2.34-1.655
				c1.545-1.223,3.116-2.585,4.721-4.017c1.604-1.433,3.205-2.974,4.793-4.576c1.533-1.656,3.125-3.302,4.375-5.233
				c1.275-1.892,2.097-4.059,2.9-6.158c0.774-2.117,1.416-4.248,1.942-6.328c0.121-0.522,0.24-1.04,0.357-1.553
				c0.09-0.521,0.178-1.037,0.264-1.549c0.076-1.023,0.201-2.031,0.213-3.017c0.08-1.97,0.078-3.833,0.084-5.554
				c-0.057-6.884-0.261-11.47-0.261-11.47L134.027,107.469z"/>
		</g>
	</g>
	<g>
		<path fill="#66666B" d="M154.931,95.61l0.694,0.613c0.222,0.217,0.434,0.457,0.654,0.688c0.21,0.241,0.385,0.507,0.575,0.762
			c0.17,0.271,0.33,0.549,0.489,0.829c0.285,0.579,0.532,1.182,0.695,1.812c0.166,0.629,0.285,1.277,0.329,1.923
			c0.126,1.3-0.031,2.587-0.212,3.834c-0.096,0.625-0.21,1.244-0.333,1.856l-0.188,0.915l-0.049,0.228
			c0.008-0.008-0.02,0.127-0.028,0.185l-0.076,0.455c-0.088,0.61-0.112,1.072-0.12,1.678c-0.012,0.574,0.01,1.155,0.057,1.746
			c0.058,1.179,0.185,2.383,0.293,3.623c0.057,0.621,0.101,1.253,0.133,1.894c0.028,0.645,0.029,1.301-0.011,1.969l-0.103,1.011
			l-0.186,1.023l-0.287,1.024l-0.408,1.002l-0.509,1.251l-1.322-0.607c-2.766-1.269-5.398-2.817-7.893-4.594
			c-1.251-0.886-2.436-1.87-3.558-2.931c-1.117-1.068-2.193-2.202-3.102-3.486c-0.453-0.641-0.869-1.313-1.248-2.009
			c-0.374-0.699-0.694-1.43-0.967-2.178c-0.249-0.762-0.46-1.537-0.569-2.333c-0.107-0.792-0.158-1.599-0.086-2.396l0.049-0.596
			l0.118-0.586c0.066-0.392,0.184-0.77,0.305-1.144c0.237-0.748,0.553-1.465,0.931-2.135c0.173-0.345,0.382-0.666,0.597-0.982
			c0.206-0.321,0.421-0.634,0.664-0.927c0.462-0.602,1.004-1.131,1.522-1.668l0.116,0.101c-0.457,0.58-0.932,1.15-1.326,1.775
			c-0.216,0.3-0.401,0.62-0.575,0.944c-0.186,0.319-0.363,0.642-0.505,0.983c-0.313,0.667-0.562,1.365-0.734,2.079
			c-0.087,0.357-0.174,0.716-0.206,1.083c-0.06,0.363-0.094,0.729-0.092,1.098c-0.034,0.734,0.045,1.47,0.175,2.192
			c0.131,0.723,0.356,1.426,0.614,2.115c0.282,0.679,0.607,1.342,0.983,1.976c0.381,0.631,0.797,1.241,1.25,1.823
			c1.819,2.33,4.095,4.271,6.51,5.975c2.424,1.699,5.015,3.152,7.683,4.438l-0.198,0.069l0.348-0.834l0.254-0.869l0.168-0.894
			l0.099-0.906c0.04-0.606,0.055-1.215,0.043-1.826c-0.018-0.611-0.043-1.223-0.083-1.835c-0.076-1.224-0.176-2.45-0.202-3.683
			c-0.024-1.23,0.023-2.476,0.265-3.693c0.255-1.211,0.613-2.378,0.84-3.585c0.24-1.198,0.409-2.416,0.396-3.634
			c0.002-0.609-0.065-1.216-0.178-1.813c-0.109-0.599-0.303-1.178-0.526-1.741l-0.406-0.817c-0.164-0.256-0.316-0.521-0.49-0.77
			c-0.188-0.239-0.366-0.485-0.561-0.718l-0.625-0.675L154.931,95.61z"/>
	</g>
	<g>
		<path fill="#66666B" d="M44.891,98.708l-0.739,0.556c-0.235,0.196-0.448,0.404-0.669,0.601l-0.616,0.647l-0.543,0.697
			c-0.322,0.491-0.61,0.995-0.828,1.536c-0.218,0.537-0.395,1.088-0.507,1.66c-0.125,0.566-0.202,1.148-0.276,1.729
			c-0.068,0.582-0.104,1.175-0.124,1.771c-0.021,0.596-0.022,1.199-0.015,1.802l0.018,0.911l0.004,0.229l-0.006,0.273l-0.009,0.46
			c-0.02,0.614-0.106,1.379-0.22,1.991c-0.109,0.646-0.252,1.28-0.417,1.895c-0.346,1.23-0.759,2.406-1.135,3.559
			c-0.189,0.574-0.363,1.143-0.525,1.707c-0.155,0.564-0.285,1.119-0.401,1.668l-0.13,0.813l-0.065,0.801l0.012,0.778l0.095,0.753
			l-1.587-1.116c1.426-0.252,2.838-0.573,4.245-0.906c1.403-0.344,2.794-0.743,4.154-1.213c0.679-0.235,1.348-0.493,2.018-0.748
			c0.666-0.264,1.324-0.54,1.969-0.841c1.294-0.597,2.521-1.308,3.686-2.086c0.582-0.39,1.134-0.814,1.663-1.265
			c0.525-0.456,1.007-0.947,1.459-1.469c0.431-0.533,0.835-1.088,1.163-1.688c0.327-0.6,0.616-1.226,0.798-1.887
			c0.106-0.327,0.191-0.661,0.26-1.001c0.089-0.338,0.129-0.685,0.166-1.033c0.081-0.697,0.085-1.415,0.018-2.127
			c-0.015-0.36-0.07-0.717-0.136-1.073c-0.053-0.36-0.117-0.717-0.218-1.069c-0.146-0.72-0.375-1.421-0.596-2.132l0.141-0.067
			c0.29,0.688,0.598,1.368,0.812,2.084c0.129,0.351,0.225,0.711,0.308,1.075c0.095,0.362,0.181,0.725,0.226,1.097
			c0.127,0.735,0.182,1.487,0.156,2.232c-0.012,0.375-0.023,0.749-0.091,1.119c-0.041,0.373-0.107,0.742-0.208,1.103
			c-0.165,0.731-0.443,1.435-0.768,2.108c-0.326,0.675-0.737,1.304-1.178,1.909c-0.461,0.59-0.959,1.15-1.498,1.668
			c-0.544,0.514-1.114,0.997-1.714,1.442c-2.404,1.782-5.137,3.056-7.937,4.06c-2.807,0.993-5.706,1.721-8.643,2.212l-0.153,0.025
			l-0.017-0.146l-0.108-0.932l-0.004-0.938l0.085-0.928l0.158-0.919c0.133-0.604,0.29-1.203,0.471-1.794
			c0.186-0.588,0.382-1.173,0.59-1.751c0.413-1.161,0.845-2.307,1.208-3.475c0.36-1.169,0.652-2.357,0.754-3.569
			c0.088-1.215,0.068-2.456,0.182-3.682c0.1-1.227,0.275-2.456,0.63-3.643c0.168-0.596,0.405-1.171,0.684-1.726
			c0.276-0.555,0.627-1.07,1.008-1.56l0.627-0.687c0.233-0.205,0.456-0.421,0.697-0.616c0.251-0.182,0.497-0.374,0.753-0.547
			l0.787-0.477L44.891,98.708z"/>
	</g>
	<g>
		<path fill="#66666B" d="M49.083,100.266c0,0-0.098,0.031-0.28,0.09c-0.176,0.068-0.461,0.123-0.776,0.276
			c-0.306,0.166-0.688,0.345-1.037,0.685c-0.366,0.31-0.685,0.759-0.934,1.29c-0.129,0.263-0.202,0.568-0.303,0.867
			c-0.047,0.318-0.141,0.634-0.159,0.978c-0.073,0.677-0.073,1.403-0.028,2.156c0.083,1.508,0.383,3.099,0.53,4.756
			c0.012,0.22,0.049,0.39,0.04,0.653l-0.005,0.61c-0.005,0.406-0.01,0.811-0.015,1.213c-0.151,0.841-0.238,1.709-0.595,2.445
			c-0.154,0.379-0.307,0.748-0.54,1.062c-0.216,0.322-0.402,0.662-0.645,0.933c-0.482,0.544-0.934,1.056-1.384,1.473
			c-0.891,0.856-1.657,1.515-2.167,2.013c-0.517,0.491-0.828,0.761-0.827,0.763l-0.08-0.064c0,0,0.224-0.345,0.642-0.931
			c0.201-0.302,0.463-0.654,0.786-1.032c0.321-0.384,0.669-0.833,1.063-1.289c0.412-0.451,0.795-0.97,1.199-1.51
			c0.333-0.577,0.781-1.128,0.989-1.816c0.344-0.642,0.417-1.369,0.618-2.09c0.028-0.4,0.056-0.802,0.084-1.206l0.041-0.609
			c0.021-0.145-0.003-0.382-0.002-0.568c-0.066-1.596-0.297-3.231-0.311-4.783c-0.007-0.775,0.015-1.531,0.139-2.241
			c0.041-0.356,0.161-0.695,0.233-1.023c0.128-0.317,0.224-0.635,0.381-0.91c0.305-0.556,0.68-1.019,1.09-1.325
			c0.39-0.336,0.81-0.505,1.142-0.656c0.335-0.137,0.614-0.172,0.796-0.23c0.186-0.047,0.283-0.072,0.283-0.072L49.083,100.266z"/>
	</g>
	<g>
		<path fill="#66666B" d="M150.995,96.775c0,0,0.302,0.237,0.832,0.652c0.236,0.239,0.539,0.539,0.828,0.921
			c0.129,0.203,0.264,0.421,0.409,0.648c0.109,0.246,0.21,0.514,0.32,0.792c0.086,0.284,0.134,0.594,0.203,0.908
			c0.021,0.318,0.053,0.653,0.053,0.994c-0.024,0.68-0.119,1.392-0.284,2.104c-0.307,1.432-0.827,2.896-1.124,4.364
			c-0.167,0.72-0.203,1.499-0.185,2.131l0.082,0.555c0.051,0.151,0.093,0.299,0.133,0.447c0.119,0.314,0.251,0.626,0.415,0.925
			c0.617,1.215,1.43,2.308,1.98,3.354c0.568,1.032,0.894,2.023,0.914,2.73c0.014,0.354-0.001,0.627-0.054,0.81
			c-0.034,0.182-0.052,0.279-0.052,0.279l-0.101-0.016c0,0-0.007-0.094-0.021-0.273c-0.003-0.178-0.037-0.432-0.122-0.745
			c-0.092-0.31-0.23-0.674-0.432-1.076c-0.206-0.401-0.491-0.825-0.815-1.289c-0.645-0.925-1.512-1.956-2.229-3.302
			c-0.171-0.34-0.312-0.708-0.44-1.093l-0.146-0.635l-0.049-0.566c0.013-0.878,0.122-1.643,0.34-2.414
			c0.391-1.53,0.978-2.95,1.342-4.322c0.197-0.684,0.307-1.354,0.375-1.991c0.021-0.318,0.013-0.629,0.014-0.929
			c-0.048-0.294-0.071-0.586-0.134-0.856c-0.089-0.262-0.162-0.519-0.251-0.758c-0.122-0.224-0.238-0.438-0.347-0.638
			c-0.251-0.378-0.514-0.679-0.733-0.932c-0.502-0.448-0.788-0.705-0.788-0.705L150.995,96.775z"/>
	</g>
	<g>
		<g>
			<path fill="#C9C9D6" d="M134.838,172.773c0.279-0.48,0.627-0.924,1.047-1.311l10.623-9.753c2.199-2.021,5.506-1.685,7.381,0.746
				c1.877,2.433,1.615,6.04-0.584,8.06l-10.625,9.754c-0.418,0.387-0.879,0.684-1.361,0.899l-0.709-6.522L134.838,172.773z"/>
			<path fill="#66666B" d="M134.797,172.746c0.492-0.912,1.332-1.596,2.061-2.297l2.246-2.116l4.49-4.231l2.246-2.115
				c0.199-0.18,0.348-0.342,0.59-0.536l0.614-0.466c0.185-0.172,0.47-0.265,0.713-0.391c0.253-0.117,0.503-0.252,0.772-0.289
				c1.044-0.341,2.191-0.205,3.203,0.163c1.053,0.357,1.873,1.108,2.557,1.989c0.6,0.788,1.023,1.939,1.175,2.986
				c0.077,1.078,0.019,2.199-0.423,3.216c-0.07,0.269-0.23,0.497-0.361,0.739c-0.147,0.229-0.242,0.5-0.443,0.694
				c-0.358,0.427-0.728,0.847-1.104,1.173l-2.245,2.114c-1.498,1.409-3,2.815-4.519,4.204l-2.281,2.075
				c-0.396,0.353-0.735,0.664-1.188,1.043c-0.207,0.153-0.403,0.312-0.621,0.463l-0.774,0.414l-0.567,0.304l-0.062-0.665
				c-0.202-2.179-0.398-4.356-0.559-6.538l0.203,0.25c-1.906-0.679-3.805-1.383-5.694-2.107l-0.056-0.021L134.797,172.746z
				 M134.92,172.745c1.934,0.519,3.861,1.056,5.781,1.62l0.174,0.051l0.029,0.199c0.313,2.166,0.59,4.336,0.859,6.506l-0.63-0.361
				l0.578-0.328c0.199-0.146,0.397-0.32,0.599-0.479l1.097-1.031l2.263-2.098c1.512-1.395,3.041-2.771,4.573-4.143l2.298-2.059
				c0.41-0.339,0.721-0.691,1.037-1.043c0.181-0.159,0.26-0.396,0.396-0.592c0.117-0.206,0.269-0.397,0.328-0.633
				c0.408-0.879,0.473-1.871,0.428-2.83c-0.1-0.469-0.135-0.972-0.338-1.392c-0.096-0.218-0.129-0.44-0.272-0.661l-0.404-0.656
				c-0.553-0.728-1.293-1.461-2.208-1.774c-0.888-0.339-1.9-0.489-2.834-0.2c-0.247,0.027-0.453,0.143-0.671,0.235
				c-0.213,0.108-0.44,0.149-0.644,0.33l-0.625,0.452c-0.16,0.123-0.373,0.332-0.558,0.492l-2.3,2.058l-4.6,4.114l-2.299,2.057
				C136.234,171.266,135.443,171.872,134.92,172.745z"/>
		</g>
		<g>
			<path fill="#C9C9D6" d="M61.371,175.646l-0.709,6.522c-0.482-0.217-0.943-0.515-1.361-0.899l-10.625-9.754
				c-2.199-2.02-2.461-5.627-0.584-8.06c1.876-2.431,5.182-2.767,7.381-0.746l10.623,9.753c0.42,0.387,0.768,0.829,1.047,1.311
				L61.371,175.646z"/>
			<path fill="#66666B" d="M61.418,175.688l-0.622,6.498l-0.017,0.18l-0.172-0.071c-0.998-0.414-1.724-1.217-2.492-1.874
				l-2.299-2.057l-4.592-4.122l-2.292-2.064c-0.196-0.187-0.369-0.311-0.587-0.549l-0.518-0.571
				c-0.186-0.168-0.305-0.453-0.457-0.68c-0.139-0.242-0.308-0.479-0.38-0.738c-0.457-0.998-0.536-2.111-0.479-3.192
				c0.149-1.077,0.495-2.142,1.138-3.041l0.109-0.177c0.09-0.114,0.1-0.112,0.154-0.176l0.26-0.283
				c0.189-0.186,0.312-0.391,0.568-0.555l0.699-0.508c0.242-0.146,0.505-0.24,0.758-0.361c1.028-0.397,2.212-0.562,3.305-0.232
				c0.283,0.035,0.536,0.166,0.796,0.277c0.252,0.127,0.536,0.201,0.749,0.391l0.682,0.5c0.217,0.17,0.389,0.345,0.584,0.517
				l2.278,2.081c1.515,1.393,3.011,2.803,4.496,4.227l2.235,2.127c0.379,0.365,0.727,0.689,1.119,1.102
				c0.167,0.198,0.342,0.378,0.504,0.592l0.451,0.702l0.208,0.322l-0.372,0.108C65.303,174.625,63.363,175.166,61.418,175.688z
				 M61.355,175.6c1.891-0.726,3.789-1.43,5.695-2.106l-0.166,0.432l-0.414-0.571c-0.158-0.188-0.355-0.367-0.531-0.552
				c-0.335-0.315-0.768-0.663-1.139-1l-2.311-2.047c-1.544-1.358-3.078-2.729-4.594-4.119l-2.268-2.091
				c-0.188-0.17-0.377-0.363-0.564-0.513l-0.556-0.419c-0.173-0.164-0.403-0.223-0.606-0.331c-0.21-0.099-0.414-0.218-0.646-0.245
				c-0.887-0.301-1.863-0.18-2.734,0.13c-0.211,0.097-0.443,0.168-0.641,0.282l-0.561,0.381c-0.197,0.096-0.364,0.336-0.546,0.505
				l-0.269,0.276c-0.031,0.033-0.119,0.123-0.104,0.109l-0.096,0.151c-0.579,0.771-0.898,1.703-1.055,2.655
				c-0.063,0.957-0.02,1.955,0.373,2.851c0.061,0.242,0.201,0.429,0.311,0.636c0.133,0.198,0.187,0.418,0.383,0.606l0.507,0.581
				c0.122,0.148,0.356,0.344,0.53,0.514l2.252,2.108l4.5,4.224l2.244,2.115c0.768,0.691,1.442,1.479,2.365,1.885l-0.188,0.107
				l0.797-6.543L61.355,175.6z"/>
		</g>
	</g>
</g>
</svg>
