<?xml version="1.0" encoding="utf-8"?>
<!-- Generator: Adobe Illustrator 16.0.0, SVG Export Plug-In . SVG Version: 6.00 Build 0)  -->
<!DOCTYPE svg PUBLIC "-//W3C//DTD SVG 1.1//EN" "http://www.w3.org/Graphics/SVG/1.1/DTD/svg11.dtd">
<svg version="1.1" id="Layer_1" xmlns="http://www.w3.org/2000/svg" xmlns:xlink="http://www.w3.org/1999/xlink" x="0px" y="0px"
	 width="200px" height="235px" viewBox="0 0 200 235" enable-background="new 0 0 200 235" xml:space="preserve">
<g id="Ext">
</g>
<g id="Guides">
</g>
<g id="_x31_2_Col_Grid_1_" display="none" enable-background="new    ">
	<g id="Rectangle_xA0_Image_23_" display="inline" opacity="0.102">
	</g>
	<g id="Rectangle_xA0_Image_21_" display="inline" opacity="0.102">
	</g>
	<g id="Rectangle_xA0_Image_19_" display="inline" opacity="0.102">
	</g>
	<g id="Rectangle_xA0_Image_17_" display="inline" opacity="0.102">
	</g>
	<g id="Rectangle_xA0_Image_15_" display="inline" opacity="0.102">
	</g>
	<g id="Rectangle_xA0_Image_13_" display="inline" opacity="0.102">
	</g>
	<g id="Rectangle_xA0_Image_11_" display="inline" opacity="0.102">
	</g>
	<g id="Rectangle_xA0_Image_9_" display="inline" opacity="0.102">
	</g>
	<g id="Rectangle_xA0_Image_7_" display="inline" opacity="0.102">
	</g>
	<g id="Rectangle_xA0_Image_5_" display="inline" opacity="0.102">
	</g>
	<g id="Rectangle_xA0_Image_3_" display="inline" opacity="0.102">
	</g>
	<g id="Rectangle_xA0_Image_1_" display="inline" opacity="0.102">
	</g>
</g>
<g id="Bg">
</g>
<g id="main">
	<g id="Progress">
	</g>
	<g id="Text">
	</g>
</g>
<g id="pane">
</g>
<g>
	<g>
		<path fill="#FFFFFF" d="M91.75,149.25c0,0,3.998,3.987,5.75,4.5c1.266,0.37,4.125,0.187,5.25-0.5
			c1.158-0.707,3.453-4.188,3.453-4.188"/>
		<path d="M91.82,149.179c0,0,0.304,0.1,0.793,0.298c0.487,0.2,1.169,0.497,1.923,0.896c0.382,0.194,0.797,0.388,1.2,0.634
			c0.413,0.202,0.861,0.452,1.26,0.657c0.201,0.094,0.416,0.21,0.605,0.291c0.075,0.012,0.146,0.026,0.215,0.044l0.096,0.043
			l0.047,0.023l0.024,0.013l0.003,0.001c0.026,0.008-0.223-0.057-0.114-0.028l0.013,0.002l0.025,0.004l0.415,0.071
			c0.155,0.032,0.183,0.002,0.279,0.011c0.128,0.009,0.381-0.002,0.616-0.005c0.473,0.023,0.959-0.003,1.424-0.044
			c0.431-0.069,0.927-0.081,1.151-0.152l0.092-0.016l0.024-0.003l0.012-0.001l0.006-0.001h0.003c0.03-0.02-0.249,0.171-0.128,0.089
			l0.083-0.054c0.108-0.073,0.224-0.136,0.338-0.196c0.223-0.124,0.289-0.191,0.453-0.286c0.138-0.064,0.33-0.27,0.502-0.379
			c0.181-0.125,0.354-0.254,0.519-0.388c0.664-0.518,1.266-0.954,1.704-1.245c0.439-0.293,0.714-0.45,0.714-0.45l0.168,0.109
			c0,0-0.606,0.964-1.639,2.327c-0.256,0.344-0.549,0.698-0.879,1.073c-0.363,0.374-0.67,0.757-1.215,1.005
			c-0.507,0.25-1.06,0.357-1.618,0.466c-0.562,0.082-1.136,0.141-1.714,0.144c-0.566-0.002-1.192-0.057-1.718-0.195
			c-0.293-0.109-0.539-0.241-0.804-0.361c-0.239-0.146-0.463-0.305-0.689-0.452c-0.451-0.299-0.839-0.64-1.229-0.938
			c-0.37-0.321-0.719-0.624-1.042-0.904c-1.268-1.143-2.061-1.959-2.061-1.959L91.82,149.179z"/>
	</g>
	<g id="browserhead">
		<g>
			<g>
				<g>
					<path fill="#C9C9D6" d="M79.615,139.539c0,1.25-0.539,3.818,0,5c0.761,1.672,4.463,4.324,6.627,5
						c1.531,0.479,5.139,0.549,6.627,0c2.104-0.775,5.845-3.332,6.627-5c0.553-1.178,0-5,0-5"/>
					<path d="M79.665,139.541c0,0,0.067,0.525,0.06,1.459c-0.002,0.462-0.008,1.021,0.027,1.645
						c0.053,0.606,0.113,1.349,0.432,1.809c0.114,0.158,0.227,0.335,0.35,0.486c0.127,0.125,0.256,0.25,0.389,0.377
						c0.23,0.257,0.615,0.522,0.927,0.795c0.694,0.518,1.464,1.02,2.271,1.508c0.797,0.49,1.705,0.917,2.523,1.148
						c0.544,0.135,0.914,0.16,1.418,0.205c0.492,0.043,0.994,0.045,1.495,0.053c0.987,0.019,2.038-0.021,2.85-0.23l0.153-0.036
						c-0.022,0.017,0.096-0.036,0.138-0.053l0.356-0.146c0.248-0.095,0.468-0.195,0.664-0.304c0.41-0.196,0.826-0.428,1.236-0.676
						c0.811-0.493,1.59-0.985,2.291-1.498c0.32-0.274,0.689-0.515,0.951-0.798c0.142-0.139,0.279-0.271,0.416-0.405
						c0.104-0.14,0.206-0.276,0.307-0.409l0.076-0.102l0.019-0.023l0.01-0.014l0.005-0.007c0.023-0.06-0.027,0.073-0.021,0.057
						l0.024-0.067l0.095-0.271c0.078-0.188,0.084-0.333,0.115-0.479c0.07-0.276,0.1-0.623,0.132-0.933
						c0.054-0.624,0.065-1.181,0.069-1.639c0.003-0.921,0.006-1.447,0.006-1.447l0.098-0.014c0,0,0.08,0.521,0.164,1.438
						c0.04,0.459,0.081,1.016,0.087,1.659c-0.015,0.63,0.025,1.41-0.358,2.122c-0.386,0.719-1.051,1.285-1.717,1.896
						c-0.699,0.576-1.467,1.148-2.309,1.668c-0.836,0.529-1.741,1.024-2.729,1.367c-1.018,0.285-2.082,0.33-3.137,0.34
						c-1.049-0.021-2.123-0.097-3.131-0.351c-1.006-0.31-1.922-0.784-2.755-1.315c-0.843-0.521-1.605-1.101-2.298-1.686
						c-0.654-0.611-1.326-1.214-1.689-1.915c-0.404-0.723-0.345-1.495-0.348-2.127c0.025-0.644,0.084-1.198,0.13-1.655
						c0.1-0.912,0.108-1.438,0.109-1.438L79.665,139.541z"/>
				</g>
				<g>
					<path fill="#C9C9D6" d="M99.615,139.926c0,0-0.538,3.82,0,5c0.759,1.666,4.396,4.223,6.443,5c1.447,0.549,4.955,0.479,6.443,0
						c2.104-0.678,5.703-3.328,6.443-5c0.525-1.184,0-3.75,0-5"/>
					<path d="M99.664,139.934c0,0,0.006,0.519,0.013,1.428c0.005,0.451,0.019,1,0.07,1.615c0.037,0.305,0.053,0.639,0.132,0.955
						c0.053,0.332,0.136,0.639,0.266,0.846c0.111,0.158,0.227,0.322,0.343,0.488c0.124,0.139,0.257,0.248,0.382,0.377
						c0.226,0.25,0.592,0.516,0.903,0.781c0.679,0.52,1.439,1.016,2.229,1.516c0.773,0.484,1.693,0.963,2.462,1.226
						c0.547,0.158,0.859,0.17,1.354,0.214c0.479,0.04,0.973,0.032,1.464,0.033c0.974,0.005,2.002-0.057,2.836-0.256
						c0.032-0.008,0.151-0.034,0.112-0.022l0.179-0.067l0.354-0.135c0.25-0.084,0.445-0.188,0.641-0.289
						c0.393-0.181,0.799-0.422,1.197-0.664c0.783-0.496,1.541-0.994,2.209-1.521c0.312-0.275,0.66-0.525,0.91-0.812
						c0.131-0.141,0.273-0.274,0.391-0.412c0.099-0.141,0.195-0.278,0.289-0.414c0.017-0.008,0.07-0.121,0.054-0.045l0.049-0.135
						l0.097-0.267c0.064-0.179,0.053-0.298,0.099-0.445c0.06-0.29,0.091-0.636,0.108-0.937c0.035-0.615,0.028-1.131,0.028-1.585
						c-0.004-0.913,0.063-1.403,0.063-1.403h0.1c0.001,0,0.009,0.477,0.104,1.379c0.043,0.45,0.103,0.98,0.127,1.614
						c0,0.618,0.062,1.38-0.297,2.095c-0.102,0.17-0.207,0.34-0.312,0.516c-0.121,0.164-0.265,0.312-0.397,0.476
						c-0.261,0.337-0.599,0.612-0.916,0.929c-0.668,0.596-1.414,1.174-2.234,1.701c-0.815,0.532-1.715,1.023-2.693,1.342
						c-1.004,0.266-2.047,0.338-3.088,0.36c-1.032-0.008-2.104-0.058-3.088-0.351c-0.977-0.356-1.854-0.86-2.67-1.392
						c-0.82-0.528-1.572-1.099-2.247-1.687c-0.321-0.312-0.663-0.582-0.931-0.918c-0.137-0.162-0.283-0.315-0.406-0.478
						c-0.106-0.172-0.211-0.341-0.312-0.506c-0.347-0.738-0.295-1.481-0.313-2.108c0.009-0.634,0.048-1.185,0.087-1.637
						c0.082-0.904,0.157-1.418,0.158-1.418L99.664,139.934z"/>
				</g>
				<path fill="#C9C9D6" stroke="#000000" stroke-miterlimit="10" d="M76.832,144.506c0,0,0.988-4.092,2.168-4.506
					c1.18-0.413,4.506,2.168,4.506,2.168"/>
			</g>
			<g>
				<path d="M98.977,142.25c2.759,0,5-4.25,5-8.25h-10C93.977,138,96.215,142.25,98.977,142.25z"/>
				<path d="M98.975,142.066c0.215-0.032,0.443-0.021,0.646-0.09c0.208-0.05,0.412-0.109,0.605-0.209
					c0.203-0.076,0.379-0.205,0.562-0.316c0.185-0.113,0.333-0.275,0.498-0.411c0.298-0.313,0.569-0.647,0.798-1.013
					c0.229-0.364,0.402-0.76,0.561-1.156c0.306-0.801,0.498-1.637,0.59-2.479c0.096-0.844,0.102-1.689,0.039-2.525l0.703,0.703
					c-0.834,0.08-1.666,0.103-2.5,0.146c-0.834,0.03-1.667,0.034-2.5,0.049c-0.834-0.019-1.666-0.017-2.5-0.053
					c-0.834-0.043-1.666-0.068-2.5-0.148l0.698-0.697c-0.063,0.836-0.057,1.683,0.038,2.525c0.094,0.844,0.287,1.682,0.593,2.48
					c0.157,0.396,0.331,0.793,0.562,1.156c0.229,0.365,0.5,0.697,0.798,1.012c0.165,0.136,0.315,0.297,0.498,0.41
					c0.184,0.111,0.36,0.24,0.562,0.316c0.193,0.1,0.399,0.159,0.61,0.211C98.542,142.047,98.76,142.034,98.975,142.066z
					 M98.979,142.166c-0.221-0.027-0.451-0.012-0.666-0.077c-0.22-0.048-0.436-0.106-0.637-0.206
					c-0.417-0.166-0.777-0.438-1.121-0.719c-0.324-0.307-0.623-0.637-0.879-0.999c-0.256-0.363-0.479-0.748-0.674-1.146
					c-0.388-0.799-0.61-1.647-0.783-2.517c-0.176-0.868-0.219-1.752-0.219-2.638V134h-0.023c3.334,0,6.666,0,10,0H104v-0.134
					c0,0.886-0.064,1.77-0.242,2.638c-0.173,0.868-0.436,1.719-0.822,2.516c-0.194,0.397-0.41,0.782-0.666,1.146
					c-0.256,0.362-0.551,0.694-0.875,1c-0.344,0.28-0.701,0.553-1.119,0.719c-0.201,0.099-0.417,0.158-0.638,0.206
					C99.419,142.155,99.197,142.139,98.979,142.166z"/>
			</g>
		</g>
	</g>
</g>
</svg>
