<?xml version="1.0" encoding="utf-8"?>
<!-- Generator: Adobe Illustrator 16.0.0, SVG Export Plug-In . SVG Version: 6.00 Build 0)  -->
<!DOCTYPE svg PUBLIC "-//W3C//DTD SVG 1.1//EN" "http://www.w3.org/Graphics/SVG/1.1/DTD/svg11.dtd">
<svg version="1.1" xmlns="http://www.w3.org/2000/svg" xmlns:xlink="http://www.w3.org/1999/xlink" x="0px" y="0px" width="200px"
	 height="235px" viewBox="0 0 200 235" enable-background="new 0 0 200 235" xml:space="preserve">
<g id="Ext">
</g>
<g id="Guides">
</g>
<g id="_x31_2_Col_Grid_1_" display="none" enable-background="new    ">
	<g id="Rectangle_xA0_Image_23_" display="inline" opacity="0.102">
	</g>
	<g id="Rectangle_xA0_Image_21_" display="inline" opacity="0.102">
	</g>
	<g id="Rectangle_xA0_Image_19_" display="inline" opacity="0.102">
	</g>
	<g id="Rectangle_xA0_Image_17_" display="inline" opacity="0.102">
	</g>
	<g id="Rectangle_xA0_Image_15_" display="inline" opacity="0.102">
	</g>
	<g id="Rectangle_xA0_Image_13_" display="inline" opacity="0.102">
	</g>
	<g id="Rectangle_xA0_Image_11_" display="inline" opacity="0.102">
	</g>
	<g id="Rectangle_xA0_Image_9_" display="inline" opacity="0.102">
	</g>
	<g id="Rectangle_xA0_Image_7_" display="inline" opacity="0.102">
	</g>
	<g id="Rectangle_xA0_Image_5_" display="inline" opacity="0.102">
	</g>
	<g id="Rectangle_xA0_Image_3_" display="inline" opacity="0.102">
	</g>
	<g id="Rectangle_xA0_Image_1_" display="inline" opacity="0.102">
	</g>
</g>
<g id="Bg">
</g>
<g id="main">
	<g id="Progress">
	</g>
	<g id="Text">
	</g>
</g>
<g id="pane">
</g>
<g id="browserhead">
	<g>
		<g>
			<g>
				<path fill="#C9C9D6" d="M79.615,139.539c0,1.25-0.539,3.818,0,5c0.761,1.672,4.463,4.324,6.627,5
					c1.531,0.479,5.139,0.549,6.627,0c2.104-0.775,5.845-3.332,6.627-5c0.553-1.178,0-5,0-5"/>
				<path d="M79.665,139.541c0,0,0.067,0.525,0.06,1.459c-0.002,0.462-0.008,1.021,0.027,1.645c0.053,0.606,0.113,1.348,0.432,1.808
					c0.114,0.158,0.227,0.335,0.35,0.487c0.127,0.124,0.256,0.249,0.389,0.377c0.23,0.256,0.615,0.522,0.927,0.794
					c0.694,0.518,1.464,1.02,2.271,1.508c0.797,0.49,1.705,0.917,2.523,1.149c0.544,0.135,0.914,0.16,1.418,0.205
					c0.492,0.043,0.994,0.044,1.495,0.052c0.987,0.019,2.038-0.021,2.85-0.23l0.153-0.036c-0.022,0.016,0.096-0.037,0.138-0.053
					l0.356-0.146c0.248-0.094,0.468-0.195,0.664-0.303c0.41-0.196,0.826-0.428,1.236-0.676c0.811-0.493,1.59-0.985,2.291-1.498
					c0.32-0.274,0.689-0.515,0.951-0.798c0.142-0.138,0.279-0.272,0.416-0.405c0.104-0.14,0.206-0.276,0.307-0.41l0.076-0.101
					l0.019-0.024l0.01-0.013l0.005-0.007c0.023-0.059-0.027,0.074-0.021,0.057l0.024-0.068l0.095-0.27
					c0.078-0.188,0.084-0.333,0.115-0.479c0.07-0.277,0.1-0.624,0.132-0.933c0.054-0.624,0.065-1.181,0.069-1.639
					c0.003-0.921,0.006-1.447,0.006-1.447l0.098-0.014c0,0,0.08,0.521,0.164,1.438c0.04,0.459,0.081,1.017,0.087,1.66
					c-0.015,0.63,0.025,1.41-0.358,2.122c-0.386,0.718-1.051,1.285-1.717,1.896c-0.699,0.577-1.467,1.149-2.309,1.669
					c-0.836,0.529-1.741,1.024-2.729,1.366c-1.018,0.286-2.082,0.33-3.137,0.34c-1.049-0.021-2.123-0.096-3.131-0.35
					c-1.006-0.31-1.922-0.785-2.755-1.316c-0.843-0.52-1.605-1.1-2.298-1.685c-0.654-0.611-1.326-1.214-1.689-1.915
					c-0.404-0.723-0.345-1.495-0.348-2.127c0.025-0.643,0.084-1.199,0.13-1.656c0.1-0.912,0.108-1.438,0.109-1.438L79.665,139.541z"
					/>
			</g>
			<g>
				<path fill="#C9C9D6" d="M99.615,139.926c0,0-0.538,3.82,0,5c0.759,1.666,4.397,4.223,6.443,5c1.448,0.549,4.956,0.479,6.444,0
					c2.104-0.678,5.703-3.328,6.444-5c0.524-1.184,0-3.75,0-5"/>
				<path d="M99.664,139.933c0,0,0.006,0.519,0.013,1.428c0.005,0.451,0.019,1,0.07,1.616c0.037,0.304,0.053,0.638,0.132,0.954
					c0.053,0.333,0.136,0.64,0.266,0.846c0.111,0.159,0.227,0.322,0.343,0.488c0.124,0.139,0.257,0.249,0.382,0.378
					c0.225,0.25,0.592,0.515,0.904,0.781c0.678,0.519,1.439,1.015,2.228,1.515c0.773,0.485,1.693,0.964,2.462,1.226
					c0.547,0.158,0.859,0.17,1.355,0.214c0.479,0.04,0.972,0.032,1.463,0.033c0.974,0.005,2.002-0.056,2.836-0.256
					c0.032-0.007,0.152-0.034,0.113-0.022l0.178-0.068l0.355-0.135c0.25-0.084,0.445-0.188,0.641-0.288
					c0.392-0.181,0.798-0.422,1.197-0.664c0.783-0.497,1.541-0.994,2.209-1.522c0.312-0.276,0.66-0.526,0.909-0.813
					c0.131-0.14,0.274-0.274,0.392-0.412c0.098-0.14,0.194-0.278,0.289-0.413c0.016-0.009,0.069-0.122,0.053-0.046l0.049-0.135
					l0.096-0.266c0.065-0.178,0.053-0.298,0.099-0.445c0.06-0.29,0.091-0.636,0.108-0.937c0.036-0.615,0.029-1.13,0.029-1.585
					c-0.004-0.913,0.063-1.403,0.063-1.403h0.1c0.001,0,0.009,0.477,0.104,1.379c0.043,0.45,0.102,0.98,0.127,1.614
					c0,0.618,0.061,1.38-0.297,2.095c-0.102,0.17-0.207,0.339-0.312,0.515c-0.121,0.164-0.264,0.313-0.398,0.476
					c-0.26,0.337-0.598,0.612-0.916,0.929c-0.667,0.596-1.414,1.174-2.234,1.701c-0.815,0.532-1.714,1.024-2.693,1.342
					c-1.004,0.266-2.047,0.337-3.088,0.36c-1.032-0.008-2.103-0.058-3.088-0.35c-0.977-0.357-1.853-0.861-2.67-1.392
					c-0.82-0.528-1.572-1.099-2.247-1.686c-0.321-0.312-0.663-0.582-0.931-0.919c-0.137-0.162-0.283-0.315-0.406-0.477
					c-0.106-0.172-0.211-0.341-0.312-0.506c-0.347-0.738-0.295-1.482-0.313-2.108c0.009-0.634,0.048-1.185,0.087-1.637
					c0.082-0.904,0.157-1.418,0.158-1.418L99.664,139.933z"/>
			</g>
			<path fill="#C9C9D6" stroke="#000000" stroke-miterlimit="10" d="M76.832,144.506c0,0,0.988-4.092,2.168-4.506
				c1.18-0.413,4.506,2.168,4.506,2.168"/>
		</g>
		<g>
			<path d="M98.977,142.25c2.76,0,5-4.25,5-8.25h-10C93.977,138,96.215,142.25,98.977,142.25z"/>
			<path d="M98.975,142.066c0.215-0.032,0.443-0.021,0.646-0.089c0.208-0.05,0.412-0.11,0.605-0.21
				c0.203-0.075,0.379-0.205,0.562-0.316c0.184-0.113,0.333-0.275,0.498-0.411c0.298-0.313,0.569-0.647,0.798-1.012
				s0.403-0.76,0.56-1.157c0.306-0.8,0.498-1.637,0.591-2.479c0.095-0.843,0.101-1.689,0.038-2.525l0.703,0.703
				c-0.834,0.081-1.666,0.103-2.5,0.147c-0.834,0.03-1.666,0.034-2.5,0.049c-0.834-0.019-1.666-0.017-2.5-0.053
				c-0.834-0.043-1.666-0.069-2.5-0.148l0.698-0.698c-0.063,0.836-0.057,1.683,0.038,2.526c0.094,0.844,0.287,1.681,0.593,2.48
				c0.157,0.396,0.331,0.793,0.562,1.156c0.229,0.365,0.5,0.698,0.798,1.012c0.165,0.136,0.315,0.297,0.498,0.41
				c0.184,0.112,0.36,0.241,0.562,0.316c0.193,0.1,0.399,0.16,0.61,0.211C98.542,142.047,98.76,142.034,98.975,142.066z
				 M98.979,142.166c-0.221-0.028-0.451-0.012-0.666-0.077c-0.22-0.048-0.436-0.107-0.637-0.206
				c-0.417-0.166-0.777-0.438-1.121-0.719c-0.324-0.306-0.623-0.636-0.879-0.999s-0.479-0.748-0.674-1.146
				c-0.388-0.798-0.61-1.647-0.783-2.516c-0.176-0.868-0.219-1.752-0.219-2.638V134h-0.023c3.334,0,6.666,0,10,0H104v-0.134
				c0,0.886-0.065,1.77-0.242,2.638c-0.173,0.868-0.436,1.718-0.822,2.515c-0.195,0.398-0.41,0.783-0.666,1.146
				c-0.256,0.363-0.551,0.694-0.875,1c-0.344,0.281-0.702,0.553-1.119,0.719c-0.201,0.099-0.417,0.158-0.638,0.206
				C99.419,142.155,99.197,142.138,98.979,142.166z"/>
		</g>
	</g>
</g>
</svg>
