<?xml version="1.0" encoding="utf-8"?>
<!-- Generator: Adobe Illustrator 16.0.0, SVG Export Plug-In . SVG Version: 6.00 Build 0)  -->
<!DOCTYPE svg PUBLIC "-//W3C//DTD SVG 1.1//EN" "http://www.w3.org/Graphics/SVG/1.1/DTD/svg11.dtd">
<svg version="1.1" xmlns="http://www.w3.org/2000/svg" xmlns:xlink="http://www.w3.org/1999/xlink" x="0px" y="0px" width="200px"
	 height="235px" viewBox="0 0 200 235" enable-background="new 0 0 200 235" xml:space="preserve">
<g id="Ext">
</g>
<g id="Guides">
</g>
<g id="_x31_2_Col_Grid_1_" display="none" enable-background="new    ">
	<g id="Rectangle_xA0_Image_23_" display="inline" opacity="0.102">
	</g>
	<g id="Rectangle_xA0_Image_21_" display="inline" opacity="0.102">
	</g>
	<g id="Rectangle_xA0_Image_19_" display="inline" opacity="0.102">
	</g>
	<g id="Rectangle_xA0_Image_17_" display="inline" opacity="0.102">
	</g>
	<g id="Rectangle_xA0_Image_15_" display="inline" opacity="0.102">
	</g>
	<g id="Rectangle_xA0_Image_13_" display="inline" opacity="0.102">
	</g>
	<g id="Rectangle_xA0_Image_11_" display="inline" opacity="0.102">
	</g>
	<g id="Rectangle_xA0_Image_9_" display="inline" opacity="0.102">
	</g>
	<g id="Rectangle_xA0_Image_7_" display="inline" opacity="0.102">
	</g>
	<g id="Rectangle_xA0_Image_5_" display="inline" opacity="0.102">
	</g>
	<g id="Rectangle_xA0_Image_3_" display="inline" opacity="0.102">
	</g>
	<g id="Rectangle_xA0_Image_1_" display="inline" opacity="0.102">
	</g>
</g>
<g id="Bg">
</g>
<g id="main">
	<g id="Progress">
	</g>
	<g id="Text">
	</g>
</g>
<g id="pane">
</g>
<g id="browserhead">
	<g>
		<g>
			<path d="M98.977,142.25c2.76,0,5-4.25,5-8.25h-10C93.977,138,96.215,142.25,98.977,142.25z"/>
			<path d="M98.975,142.066c0.215-0.032,0.443-0.021,0.646-0.089c0.208-0.05,0.412-0.11,0.605-0.21
				c0.203-0.075,0.379-0.205,0.562-0.316c0.184-0.113,0.333-0.275,0.498-0.411c0.298-0.313,0.569-0.647,0.798-1.012
				s0.403-0.76,0.56-1.157c0.306-0.8,0.498-1.637,0.591-2.479c0.095-0.843,0.101-1.689,0.038-2.525l0.703,0.703
				c-0.834,0.081-1.666,0.103-2.5,0.147c-0.834,0.03-1.666,0.034-2.5,0.049c-0.834-0.019-1.666-0.017-2.5-0.053
				c-0.834-0.043-1.666-0.069-2.5-0.148l0.698-0.698c-0.063,0.836-0.057,1.683,0.038,2.526c0.094,0.844,0.287,1.681,0.593,2.48
				c0.157,0.396,0.331,0.793,0.562,1.156c0.229,0.365,0.5,0.698,0.798,1.012c0.165,0.136,0.315,0.297,0.498,0.41
				c0.184,0.112,0.36,0.241,0.562,0.316c0.193,0.1,0.399,0.16,0.61,0.211C98.542,142.047,98.76,142.034,98.975,142.066z
				 M98.979,142.166c-0.221-0.028-0.451-0.012-0.666-0.077c-0.22-0.048-0.436-0.107-0.637-0.206
				c-0.417-0.166-0.777-0.438-1.121-0.719c-0.324-0.306-0.623-0.636-0.879-0.999s-0.479-0.748-0.674-1.146
				c-0.388-0.798-0.61-1.647-0.783-2.516c-0.176-0.868-0.219-1.752-0.219-2.638V134h-0.023c3.334,0,6.666,0,10,0H104v-0.134
				c0,0.886-0.065,1.77-0.242,2.638c-0.173,0.868-0.436,1.718-0.822,2.515c-0.195,0.398-0.41,0.783-0.666,1.146
				c-0.256,0.363-0.551,0.694-0.875,1c-0.344,0.281-0.702,0.553-1.119,0.719c-0.201,0.099-0.417,0.158-0.638,0.206
				C99.419,142.155,99.197,142.138,98.979,142.166z"/>
		</g>
		<g>
			<path fill="#C9C9D6" d="M99.162,142.225c0,0-0.418,3.821,0,5c0.59,1.667,3.412,4.224,5,5c1.123,0.549,3.845,0.479,5,0
				c1.633-0.677,4.426-3.328,5-5c0.406-1.183,0-3.75,0-5"/>
			<path d="M99.212,142.229c0,0,0.024,0.467,0.056,1.273c0.017,0.403,0.037,0.892,0.083,1.446c0.052,0.547,0.116,1.19,0.243,1.774
				c0.047,0.117,0.065,0.305,0.129,0.369c0.088,0.157,0.178,0.317,0.27,0.479c0.215,0.279,0.381,0.502,0.644,0.78
				c0.505,0.547,1.106,1.077,1.726,1.619c0.625,0.521,1.326,1.062,2.021,1.408l0.13,0.071l0.017,0.01
				c0.069,0.029-0.086-0.036-0.066-0.028l0.011,0.003l0.04,0.014l0.081,0.027l0.324,0.11l0.494,0.077
				c0.404,0.042,0.821,0.051,1.245,0.046c0.827,0.007,1.762-0.07,2.317-0.336c0.444-0.194,0.737-0.409,1.052-0.608
				c0.323-0.248,0.67-0.484,0.972-0.761c0.614-0.54,1.209-1.077,1.706-1.631c0.485-0.573,0.9-1.08,1.039-1.675
				c0.117-0.563,0.18-1.183,0.213-1.741c0.033-0.555,0.045-1.159,0.057-1.564c0.027-0.814,0.098-1.394,0.099-1.394h0.1
				c0,0,0.005,0.57,0.071,1.374c0.026,0.403,0.06,0.948,0.098,1.509c0.026,0.561,0.046,1.231-0.062,1.929
				c-0.113,0.701-0.557,1.37-1.029,2.003c-0.49,0.628-1.063,1.253-1.713,1.831c-0.643,0.568-1.36,1.162-2.181,1.557
				c-0.851,0.413-1.803,0.474-2.726,0.505c-0.91-0.013-1.908-0.047-2.723-0.502c-0.812-0.438-1.508-1.014-2.161-1.584
				c-0.649-0.576-1.233-1.182-1.731-1.805c-0.484-0.643-0.938-1.26-1.045-1.982c-0.185-1.391-0.047-2.545-0.012-3.351
				c0.072-0.804,0.114-1.264,0.114-1.264L99.212,142.229z"/>
		</g>
		<g>
			<path fill="#C9C9D6" d="M99.157,141.839c0,0,0.417,3.821,0,5c-0.59,1.667-3.413,4.224-5,5c-1.123,0.549-3.845,0.479-5,0
				c-1.633-0.677-4.427-3.328-5-5c-0.406-1.183,0-3.75,0-5"/>
			<path d="M99.207,141.834c0,0,0.125,0.45,0.274,1.253c0.067,0.402,0.148,0.892,0.22,1.46c0.067,0.575,0.15,1.207,0.062,1.988
				c-0.049,0.213-0.031,0.396-0.148,0.647c-0.068,0.167-0.137,0.337-0.207,0.51c-0.187,0.346-0.432,0.782-0.677,1.109
				c-0.489,0.688-1.054,1.362-1.731,1.963c-0.678,0.609-1.369,1.211-2.277,1.722l-0.166,0.098l-0.021,0.012l-0.095,0.042
				l-0.04,0.015l-0.079,0.031l-0.32,0.123c-0.259,0.075-0.576,0.147-0.852,0.198c-0.508,0.074-1.01,0.112-1.51,0.117
				c-1-0.059-1.968-0.102-3.055-0.631c-0.384-0.185-0.827-0.492-1.248-0.793c-0.371-0.306-0.74-0.586-1.064-0.906
				c-0.68-0.605-1.231-1.295-1.714-1.986c-0.245-0.342-0.446-0.716-0.64-1.075c-0.08-0.199-0.159-0.395-0.236-0.587
				c-0.023-0.069-0.027-0.049-0.066-0.189l-0.021-0.132l-0.043-0.259c-0.098-0.803-0.002-1.461,0.08-2.022
				c0.084-0.568,0.174-0.973,0.244-1.371c0.152-0.795,0.23-1.17,0.23-1.17h0.1c0,0-0.002,0.385-0.062,1.189
				c-0.023,0.402-0.054,0.85-0.088,1.41c-0.023,0.56-0.035,1.175,0.071,1.844c0.114,0.679,0.546,1.295,1.017,1.919
				c0.488,0.616,1.061,1.22,1.707,1.787c0.652,0.565,1.332,1.122,2.154,1.511c0.793,0.383,1.742,0.442,2.646,0.464
				c0.912-0.012,1.842-0.028,2.635-0.463c0.791-0.42,1.488-0.987,2.138-1.547c0.647-0.566,1.229-1.164,1.726-1.775
				c0.467-0.602,0.936-1.249,1.029-1.915c0.189-1.353,0.063-2.52,0.033-3.318c-0.067-0.803-0.105-1.262-0.105-1.262L99.207,141.834z
				"/>
		</g>
	</g>
</g>
</svg>
