<?xml version="1.0" encoding="utf-8"?>
<!-- Generator: Adobe Illustrator 16.0.0, SVG Export Plug-In . SVG Version: 6.00 Build 0)  -->
<!DOCTYPE svg PUBLIC "-//W3C//DTD SVG 1.1//EN" "http://www.w3.org/Graphics/SVG/1.1/DTD/svg11.dtd">
<svg version="1.1" id="Layer_1" xmlns="http://www.w3.org/2000/svg" xmlns:xlink="http://www.w3.org/1999/xlink" x="0px" y="0px"
	 width="200px" height="235px" viewBox="0 0 200 235" enable-background="new 0 0 200 235" xml:space="preserve">
<g id="Ext">
</g>
<g id="Guides">
</g>
<g id="_x31_2_Col_Grid_1_" display="none" enable-background="new    ">
	<g id="Rectangle_xA0_Image_23_" display="inline" opacity="0.102">
	</g>
	<g id="Rectangle_xA0_Image_21_" display="inline" opacity="0.102">
	</g>
	<g id="Rectangle_xA0_Image_19_" display="inline" opacity="0.102">
	</g>
	<g id="Rectangle_xA0_Image_17_" display="inline" opacity="0.102">
	</g>
	<g id="Rectangle_xA0_Image_15_" display="inline" opacity="0.102">
	</g>
	<g id="Rectangle_xA0_Image_13_" display="inline" opacity="0.102">
	</g>
	<g id="Rectangle_xA0_Image_11_" display="inline" opacity="0.102">
	</g>
	<g id="Rectangle_xA0_Image_9_" display="inline" opacity="0.102">
	</g>
	<g id="Rectangle_xA0_Image_7_" display="inline" opacity="0.102">
	</g>
	<g id="Rectangle_xA0_Image_5_" display="inline" opacity="0.102">
	</g>
	<g id="Rectangle_xA0_Image_3_" display="inline" opacity="0.102">
	</g>
	<g id="Rectangle_xA0_Image_1_" display="inline" opacity="0.102">
	</g>
</g>
<g id="Bg">
</g>
<g id="main">
	<g id="Progress">
	</g>
	<g id="Text">
	</g>
</g>
<g id="pane">
</g>
<g>
	<g>
		<g>
			<path fill="#FFFFFF" d="M83.825,148.25c0,0,8.057,3.986,11.588,4.5c2.552,0.37,8.313,0.188,10.581-0.5
				c2.335-0.707,6.96-4.188,6.96-4.188"/>
			<path d="M83.827,148.245c0,0,1.75,0.869,4.439,2.03c0.677,0.278,1.411,0.58,2.187,0.898c0.787,0.289,1.604,0.632,2.482,0.893
				c0.863,0.302,1.785,0.522,2.729,0.675c0.956,0.11,1.928,0.151,2.905,0.149c0.975,0.011,1.952-0.018,2.91-0.077
				c0.958-0.053,1.901-0.134,2.805-0.271c0.912-0.107,1.758-0.333,2.532-0.667c0.759-0.347,1.452-0.728,2.079-1.105
				c1.254-0.754,2.266-1.439,2.964-1.931c0.695-0.496,1.093-0.78,1.093-0.78l0.006,0.008c0,0-0.394,0.288-1.084,0.793
				c-0.692,0.5-1.696,1.196-2.944,1.967c-0.622,0.385-1.317,0.778-2.08,1.137c-0.763,0.345-1.645,0.566-2.552,0.673
				c-0.907,0.136-1.853,0.215-2.813,0.266c-0.96,0.057-1.938,0.083-2.915,0.069c-0.976-0.002-1.959-0.048-2.912-0.161
				c-0.951-0.156-1.875-0.383-2.739-0.688c-0.878-0.265-1.695-0.609-2.481-0.903c-0.775-0.323-1.507-0.628-2.184-0.91
				c-2.684-1.176-4.43-2.053-4.43-2.053L83.827,148.245z"/>
		</g>
		<g>
			<path d="M83.965,148.18c0,0,0.613,0.1,1.599,0.297c0.982,0.2,2.357,0.498,3.876,0.896c0.77,0.193,1.606,0.388,2.417,0.634
				c0.833,0.202,1.737,0.452,2.54,0.657c0.405,0.094,0.838,0.21,1.22,0.291c0.15,0.012,0.294,0.025,0.433,0.044l0.194,0.043
				l0.094,0.022l0.049,0.014l0.006,0.001c0.052,0.008-0.449-0.058-0.229-0.028l0.025,0.002l0.051,0.004l0.836,0.071
				c0.312,0.032,0.368,0.002,0.562,0.011c0.258,0.01,0.769-0.002,1.243-0.005c0.953,0.023,1.932-0.003,2.871-0.044
				c0.869-0.068,1.864-0.081,2.319-0.152l0.185-0.016l0.049-0.003l0.023-0.001l0.014-0.001h0.005
				c0.061-0.021-0.501,0.171-0.256,0.089l0.165-0.054c0.218-0.073,0.452-0.136,0.681-0.196c0.45-0.124,0.582-0.191,0.913-0.286
				c0.28-0.063,0.666-0.27,1.012-0.379c0.365-0.125,0.714-0.254,1.047-0.388c1.339-0.518,2.551-0.954,3.433-1.245
				c0.886-0.293,1.441-0.45,1.441-0.45l0.338,0.109c0,0-1.22,0.964-3.303,2.326c-0.516,0.345-1.105,0.699-1.771,1.074
				c-0.733,0.373-1.351,0.756-2.451,1.004c-1.022,0.25-2.136,0.357-3.261,0.467c-1.131,0.082-2.289,0.141-3.454,0.144
				c-1.142-0.002-2.403-0.057-3.463-0.194c-0.59-0.109-1.086-0.242-1.62-0.361c-0.482-0.146-0.934-0.305-1.39-0.452
				c-0.909-0.299-1.691-0.64-2.477-0.938c-0.745-0.32-1.448-0.623-2.1-0.903c-2.555-1.144-4.154-1.959-4.154-1.959L83.965,148.18z"
				/>
			<path d="M83.964,148.175c0.983,0.172,1.965,0.362,2.935,0.602c0.972,0.229,1.949,0.437,2.917,0.683
				c1.935,0.496,3.86,1.024,5.805,1.477l-0.003-0.001l0.434,0.044h0.002c0.113,0.025,0.226,0.048,0.338,0.079H96.39
				c-0.06,0.079-0.164,0.003-0.244,0.012l-0.032-0.004l-0.007-0.001c0.006-0.013-0.019,0.028,0.023-0.027
				c-0.031-0.029-0.009-0.008-0.014-0.015l0.016,0.003l0.063,0.006l0.129,0.011l0.515,0.043c0.34,0.04,0.688,0.032,1.031,0.029
				l2.068-0.022c0.688-0.018,1.382-0.01,2.063-0.047l2.063-0.137l0.002-0.001l0.271-0.021h0.002h0.005l-0.01,0.002
				c0.051,0.109,0.012,0.031,0.02,0.057l-0.009,0.004l-0.018,0.006l-0.036,0.012l-0.07,0.024l-0.143,0.049l-0.035,0.013
				c0.001-0.001-0.008,0.003,0-0.001c-0.041-0.112-0.012-0.031-0.017-0.058l0.018-0.006l0.072-0.023l0.144-0.047l0.576-0.167
				c0.383-0.118,0.768-0.233,1.145-0.363l2.249-0.839l2.257-0.821c0.748-0.288,1.519-0.519,2.281-0.757l0.012-0.004l0.012,0.004
				l0.338,0.108l0.076,0.024l-0.063,0.045l-2.111,1.489c-0.697,0.504-1.406,0.997-2.153,1.425c-0.369,0.215-0.729,0.466-1.117,0.652
				c-0.382,0.195-0.766,0.397-1.173,0.546c-0.402,0.156-0.823,0.274-1.247,0.353l-1.271,0.229c-0.854,0.094-1.717,0.216-2.576,0.229
				l-2.579,0.108l-2.582-0.146c-0.422-0.041-0.872-0.008-1.286-0.136l-1.259-0.285l-0.003-0.001
				c-0.874-0.275-1.741-0.574-2.591-0.915c-0.86-0.314-1.711-0.662-2.545-1.038c-0.846-0.352-1.667-0.762-2.495-1.15l-2.481-1.18
				l-0.011-0.005l0.011-0.005L83.964,148.175z M83.965,148.185l-0.286,0.144l0-0.01l2.488,1.164c0.832,0.385,1.652,0.789,2.5,1.137
				c0.839,0.372,1.685,0.712,2.547,1.021c0.853,0.337,1.718,0.629,2.593,0.9l-0.003-0.001l1.261,0.277
				c0.417,0.126,0.842,0.087,1.275,0.127l2.572,0.137l2.579-0.105c0.863-0.012,1.707-0.132,2.563-0.225l1.271-0.228
				c0.419-0.077,0.834-0.192,1.231-0.346c0.402-0.146,0.782-0.346,1.165-0.541c0.39-0.187,0.737-0.431,1.112-0.647
				c0.748-0.428,1.452-0.917,2.151-1.42l2.109-1.483l0.012,0.069l-0.337-0.11l0.023,0.001c-0.767,0.238-1.531,0.464-2.279,0.751
				l-2.259,0.817l-2.253,0.835c-0.381,0.131-0.764,0.244-1.146,0.362l-0.577,0.166l-0.143,0.045l-0.071,0.023l-0.018,0.006
				c-0.011-0.024,0.013,0.06-0.034-0.052l0.011-0.005l0.036-0.013l0.142-0.049l0.071-0.023l0.036-0.013l0.018-0.006l0.009-0.003
				l0.004-0.002l-0.005,0.002c0.043,0.112,0.012,0.031,0.021,0.057l0.001,0.002h-0.011h-0.005h0.002l-0.27,0.021l0.001-0.001
				l-2.064,0.134c-0.694,0.036-1.38,0.027-2.07,0.043l-2.069,0.018c-0.346,0.003-0.688,0.01-1.034-0.031l-0.515-0.044l-0.128-0.011
				l-0.066-0.008l-0.016-0.002c-0.008-0.007,0.012,0.015-0.022-0.016c0.039-0.056,0.01-0.016,0.021-0.028l0.009,0.002l0.032,0.004
				c0.075,0.028,0.196-0.017,0.231,0.071h-0.002c-0.109-0.031-0.223-0.054-0.335-0.079h0.001l-0.431-0.044l-0.003-0.001
				c-1.945-0.457-3.87-0.99-5.803-1.491c-0.966-0.248-1.943-0.459-2.915-0.689C85.926,148.552,84.949,148.358,83.965,148.185z"/>
		</g>
	</g>
	<g id="browserhead">
		<g>
			<g>
				<g>
					<path fill="#C9C9D6" d="M79.615,139.539c0,1.25-0.539,3.818,0,5c0.761,1.672,4.463,4.324,6.627,5
						c1.531,0.479,5.139,0.549,6.627,0c2.104-0.775,5.845-3.332,6.627-5c0.553-1.178,0-5,0-5"/>
					<path d="M79.665,139.541c0,0,0.067,0.525,0.06,1.459c-0.002,0.462-0.008,1.021,0.027,1.645c0.053,0.606,0.113,1.35,0.432,1.81
						c0.114,0.157,0.227,0.335,0.35,0.485c0.127,0.125,0.256,0.25,0.389,0.377c0.23,0.258,0.615,0.522,0.927,0.795
						c0.694,0.519,1.464,1.021,2.271,1.509c0.797,0.489,1.705,0.917,2.523,1.147c0.544,0.135,0.914,0.16,1.418,0.205
						c0.492,0.043,0.994,0.045,1.495,0.053c0.987,0.02,2.038-0.021,2.85-0.229l0.153-0.036c-0.022,0.018,0.096-0.035,0.138-0.053
						l0.356-0.146c0.248-0.095,0.468-0.194,0.664-0.304c0.41-0.196,0.826-0.428,1.236-0.676c0.811-0.493,1.59-0.985,2.291-1.498
						c0.32-0.274,0.689-0.515,0.951-0.798c0.142-0.139,0.279-0.271,0.416-0.405c0.104-0.14,0.206-0.276,0.307-0.409l0.076-0.102
						l0.019-0.023l0.01-0.014l0.005-0.007c0.023-0.06-0.027,0.073-0.021,0.057l0.024-0.067l0.095-0.271
						c0.078-0.188,0.084-0.333,0.115-0.479c0.07-0.275,0.1-0.623,0.132-0.933c0.054-0.624,0.065-1.181,0.069-1.639
						c0.003-0.921,0.006-1.447,0.006-1.447l0.098-0.014c0,0,0.08,0.521,0.164,1.438c0.04,0.459,0.081,1.017,0.087,1.659
						c-0.015,0.63,0.025,1.41-0.358,2.122c-0.386,0.719-1.051,1.285-1.717,1.896c-0.699,0.576-1.467,1.148-2.309,1.668
						c-0.836,0.529-1.741,1.024-2.729,1.367c-1.018,0.285-2.082,0.33-3.137,0.34c-1.049-0.021-2.123-0.097-3.131-0.351
						c-1.006-0.31-1.922-0.784-2.755-1.315c-0.843-0.521-1.605-1.101-2.298-1.686c-0.654-0.611-1.326-1.214-1.689-1.915
						c-0.404-0.723-0.345-1.495-0.348-2.127c0.025-0.644,0.084-1.198,0.13-1.655c0.1-0.912,0.108-1.438,0.109-1.438L79.665,139.541z
						"/>
				</g>
				<g>
					<path fill="#C9C9D6" d="M99.615,139.926c0,0-0.538,3.82,0,5c0.759,1.666,4.396,4.223,6.443,5c1.446,0.549,4.955,0.479,6.442,0
						c2.104-0.678,5.703-3.328,6.442-5c0.525-1.184,0-3.75,0-5"/>
					<path d="M99.664,139.934c0,0,0.006,0.52,0.013,1.428c0.005,0.451,0.019,1,0.07,1.615c0.037,0.306,0.053,0.64,0.132,0.955
						c0.053,0.332,0.136,0.64,0.266,0.846c0.111,0.158,0.227,0.322,0.343,0.488c0.124,0.14,0.257,0.248,0.382,0.377
						c0.226,0.25,0.592,0.517,0.903,0.781c0.679,0.52,1.438,1.016,2.229,1.516c0.773,0.484,1.693,0.963,2.462,1.227
						c0.548,0.158,0.859,0.17,1.354,0.214c0.479,0.04,0.973,0.032,1.464,0.033c0.974,0.005,2.002-0.058,2.836-0.256
						c0.032-0.009,0.151-0.034,0.112-0.022l0.179-0.066l0.354-0.135c0.25-0.084,0.444-0.188,0.641-0.289
						c0.393-0.182,0.799-0.422,1.197-0.664c0.782-0.496,1.541-0.994,2.209-1.521c0.312-0.275,0.66-0.525,0.91-0.812
						c0.131-0.141,0.272-0.273,0.391-0.412c0.099-0.141,0.195-0.277,0.289-0.413c0.017-0.009,0.07-0.121,0.054-0.046l0.049-0.135
						l0.097-0.267c0.064-0.179,0.053-0.298,0.1-0.444c0.06-0.291,0.091-0.637,0.107-0.938c0.035-0.615,0.028-1.131,0.028-1.585
						c-0.004-0.913,0.063-1.403,0.063-1.403h0.1c0.001,0,0.009,0.477,0.104,1.379c0.043,0.45,0.104,0.98,0.127,1.614
						c0,0.618,0.062,1.38-0.297,2.095c-0.102,0.17-0.207,0.34-0.312,0.516c-0.121,0.164-0.265,0.312-0.397,0.477
						c-0.261,0.337-0.599,0.612-0.916,0.93c-0.668,0.596-1.414,1.174-2.233,1.7c-0.815,0.532-1.716,1.023-2.693,1.343
						c-1.004,0.266-2.047,0.338-3.088,0.359c-1.032-0.008-2.104-0.059-3.088-0.352c-0.978-0.355-1.854-0.859-2.67-1.392
						c-0.82-0.528-1.572-1.099-2.247-1.687c-0.321-0.312-0.663-0.582-0.931-0.918c-0.137-0.162-0.283-0.315-0.406-0.479
						c-0.106-0.172-0.211-0.341-0.312-0.506c-0.347-0.738-0.295-1.48-0.313-2.107c0.009-0.635,0.048-1.186,0.087-1.638
						c0.082-0.903,0.157-1.418,0.158-1.418L99.664,139.934z"/>
				</g>
				<path fill="#C9C9D6" stroke="#000000" stroke-miterlimit="10" d="M76.832,144.506c0,0,0.988-4.092,2.168-4.506
					c1.18-0.413,4.506,2.168,4.506,2.168"/>
			</g>
			<g>
				<path d="M98.977,142.25c2.759,0,5-4.25,5-8.25h-10C93.977,138,96.215,142.25,98.977,142.25z"/>
				<path d="M98.975,142.066c0.215-0.032,0.443-0.021,0.646-0.09c0.208-0.051,0.412-0.109,0.605-0.209
					c0.203-0.076,0.379-0.205,0.562-0.316c0.185-0.113,0.333-0.275,0.498-0.411c0.298-0.313,0.569-0.647,0.798-1.013
					c0.229-0.364,0.402-0.76,0.561-1.156c0.307-0.801,0.498-1.637,0.59-2.479c0.097-0.845,0.103-1.689,0.039-2.525l0.703,0.703
					c-0.834,0.08-1.666,0.103-2.5,0.146c-0.834,0.03-1.667,0.034-2.5,0.05c-0.834-0.02-1.666-0.018-2.5-0.054
					c-0.834-0.043-1.666-0.067-2.5-0.147l0.698-0.697c-0.063,0.836-0.057,1.683,0.038,2.525c0.094,0.844,0.287,1.682,0.593,2.479
					c0.157,0.396,0.331,0.793,0.562,1.155c0.229,0.365,0.5,0.697,0.798,1.013c0.165,0.136,0.315,0.297,0.498,0.41
					c0.184,0.11,0.36,0.239,0.562,0.315c0.193,0.101,0.399,0.159,0.61,0.211C98.542,142.047,98.76,142.034,98.975,142.066z
					 M98.979,142.166c-0.221-0.027-0.451-0.012-0.666-0.077c-0.22-0.048-0.436-0.106-0.637-0.206
					c-0.417-0.166-0.777-0.438-1.121-0.719c-0.324-0.307-0.623-0.637-0.879-0.999c-0.256-0.363-0.479-0.748-0.674-1.146
					c-0.388-0.799-0.61-1.647-0.783-2.518C94.043,135.634,94,134.75,94,133.864V134h-0.023c3.334,0,6.666,0,10,0H104v-0.134
					c0,0.886-0.064,1.77-0.242,2.638c-0.173,0.868-0.436,1.719-0.822,2.516c-0.193,0.397-0.41,0.782-0.666,1.146
					c-0.256,0.361-0.551,0.693-0.875,1c-0.344,0.279-0.701,0.553-1.119,0.719c-0.201,0.1-0.417,0.158-0.638,0.206
					C99.419,142.155,99.197,142.139,98.979,142.166z"/>
			</g>
		</g>
	</g>
</g>
</svg>
