<?xml version="1.0" encoding="utf-8"?>
<!-- Generator: Adobe Illustrator 16.0.0, SVG Export Plug-In . SVG Version: 6.00 Build 0)  -->
<!DOCTYPE svg PUBLIC "-//W3C//DTD SVG 1.1//EN" "http://www.w3.org/Graphics/SVG/1.1/DTD/svg11.dtd">
<svg version="1.1" xmlns="http://www.w3.org/2000/svg" xmlns:xlink="http://www.w3.org/1999/xlink" x="0px" y="0px" width="200px"
	 height="235px" viewBox="0 0 200 235" enable-background="new 0 0 200 235" xml:space="preserve">
<g id="Ext">
</g>
<g id="Guides">
</g>
<g id="_x31_2_Col_Grid_1_" display="none" enable-background="new    ">
	<g id="Rectangle_xA0_Image_23_" display="inline" opacity="0.102">
	</g>
	<g id="Rectangle_xA0_Image_21_" display="inline" opacity="0.102">
	</g>
	<g id="Rectangle_xA0_Image_19_" display="inline" opacity="0.102">
	</g>
	<g id="Rectangle_xA0_Image_17_" display="inline" opacity="0.102">
	</g>
	<g id="Rectangle_xA0_Image_15_" display="inline" opacity="0.102">
	</g>
	<g id="Rectangle_xA0_Image_13_" display="inline" opacity="0.102">
	</g>
	<g id="Rectangle_xA0_Image_11_" display="inline" opacity="0.102">
	</g>
	<g id="Rectangle_xA0_Image_9_" display="inline" opacity="0.102">
	</g>
	<g id="Rectangle_xA0_Image_7_" display="inline" opacity="0.102">
	</g>
	<g id="Rectangle_xA0_Image_5_" display="inline" opacity="0.102">
	</g>
	<g id="Rectangle_xA0_Image_3_" display="inline" opacity="0.102">
	</g>
	<g id="Rectangle_xA0_Image_1_" display="inline" opacity="0.102">
	</g>
</g>
<g id="Bg">
</g>
<g id="main">
	<g id="Progress">
	</g>
	<g id="Text">
	</g>
</g>
<g id="pane">
</g>
<g id="browserhead">
	<g>
		<path fill="#343435" d="M73.167,36.992c-1.715-5.258-5.952-7.926-9.937-11.854c-4.776-4.707-9.994-8.567-16.756-11.004
			c-6.67-2.402-14.609-3.39-21.287-1.248c6.506,2.562,12.791,5.438,18.485,9.44c2.776,1.952,5.301,3.661,7.337,6.261
			c2.738,3.492,6.282,6.629,8.865,10.086c0.766,1.025,1.482,3.557,2.768,4.15c1.624,0.752,5.256-0.271,6.764-0.922
			c1.574-0.682,3.286-1.8,4.074-3.18c1.005-1.761,0.41-2.03-1.063-3.456"/>
		<path fill="#343435" d="M139.504,39.733c2.757-3.609,6.246-6.968,9.004-10.667c2.246-3.014,5.029-4.995,8.09-7.258
			c6.279-4.64,13.208-7.976,20.381-10.944c-7.363-2.483-16.116-1.339-23.469,1.446c-7.457,2.825-13.209,7.3-18.475,12.757
			c-3.438,3.564-7.041,6.239-9.354,10.155C130.45,36.363,135.067,37.877,139.504,39.733z"/>
	</g>
	<g>
		<g>
			<path fill="#66666B" d="M148.152,88.148l0.926-0.014c0.311,0.011,0.629,0.045,0.948,0.067c0.317,0.037,0.624,0.116,0.938,0.176
				c0.307,0.086,0.613,0.184,0.92,0.283c0.6,0.236,1.189,0.516,1.735,0.872c0.546,0.353,1.07,0.752,1.538,1.2
				c0.969,0.876,1.719,1.933,2.426,2.977c0.35,0.527,0.682,1.061,1.004,1.596l0.477,0.802l0.117,0.201
				c0-0.011,0.072,0.108,0.104,0.156l0.25,0.387c0.345,0.51,0.638,0.869,1.04,1.322c0.378,0.432,0.786,0.847,1.218,1.252
				c0.837,0.832,1.741,1.637,2.657,2.48c0.46,0.421,0.918,0.859,1.373,1.311c0.455,0.457,0.898,0.941,1.318,1.462l0.605,0.816
				l0.553,0.881l0.477,0.951l0.374,1.016l0.466,1.267l-1.387,0.442c-2.898,0.924-5.887,1.554-8.927,1.92
				c-1.52,0.188-3.06,0.258-4.604,0.23c-1.545-0.037-3.104-0.15-4.641-0.488c-0.767-0.168-1.527-0.385-2.275-0.644
				c-0.747-0.265-1.476-0.589-2.182-0.959c-0.697-0.395-1.374-0.826-1.991-1.341c-0.614-0.513-1.195-1.075-1.678-1.713l-0.366-0.473
				l-0.307-0.513c-0.215-0.334-0.383-0.693-0.545-1.051c-0.328-0.713-0.578-1.455-0.75-2.205c-0.104-0.371-0.166-0.749-0.221-1.128
				c-0.064-0.376-0.116-0.752-0.133-1.132c-0.064-0.756-0.02-1.512,0.002-2.258l0.154-0.004c0.053,0.737,0.086,1.477,0.216,2.205
				c0.042,0.367,0.12,0.728,0.21,1.086c0.078,0.36,0.164,0.719,0.29,1.066c0.216,0.704,0.502,1.388,0.856,2.031
				c0.176,0.323,0.354,0.646,0.576,0.939c0.201,0.309,0.422,0.602,0.672,0.873c0.468,0.566,1.023,1.057,1.605,1.503
				c0.584,0.446,1.225,0.814,1.879,1.149c0.666,0.312,1.353,0.583,2.058,0.798c0.706,0.21,1.425,0.381,2.151,0.506
				c2.914,0.497,5.904,0.399,8.836,0.032c2.937-0.377,5.831-1.048,8.668-1.895l-0.1,0.185l-0.305-0.851l-0.398-0.813l-0.477-0.774
				l-0.536-0.736c-0.38-0.475-0.78-0.935-1.2-1.379c-0.424-0.44-0.855-0.875-1.297-1.301c-0.881-0.853-1.78-1.692-2.63-2.586
				c-0.847-0.893-1.65-1.846-2.292-2.908c-0.628-1.067-1.15-2.171-1.795-3.216c-0.629-1.048-1.324-2.061-2.156-2.952
				c-0.408-0.452-0.867-0.855-1.352-1.221c-0.484-0.369-1.016-0.667-1.562-0.932l-0.85-0.33c-0.294-0.079-0.585-0.172-0.881-0.239
				c-0.299-0.05-0.596-0.112-0.897-0.153l-0.917-0.078L148.152,88.148z"/>
		</g>
		<g>
			<path fill="#66666B" d="M48.379,90.305l-0.91,0.166c-0.298,0.07-0.582,0.161-0.868,0.238l-0.84,0.303l-0.798,0.38
				c-0.508,0.295-0.992,0.617-1.428,1.003c-0.435,0.383-0.84,0.797-1.197,1.258c-0.365,0.45-0.694,0.936-1.021,1.422
				c-0.322,0.49-0.619,1.005-0.904,1.528c-0.285,0.524-0.556,1.062-0.82,1.605l-0.393,0.822l-0.098,0.206l-0.128,0.241l-0.214,0.408
				c-0.292,0.54-0.712,1.185-1.088,1.681c-0.386,0.529-0.799,1.031-1.222,1.507c-0.86,0.945-1.756,1.812-2.607,2.673
				c-0.427,0.43-0.837,0.86-1.235,1.292c-0.39,0.435-0.756,0.874-1.105,1.311l-0.482,0.67l-0.416,0.686l-0.338,0.701l-0.252,0.717
				l-0.92-1.709c1.388,0.413,2.795,0.759,4.202,1.091c1.409,0.32,2.831,0.586,4.257,0.775c0.713,0.093,1.426,0.162,2.139,0.234
				c0.713,0.063,1.426,0.11,2.137,0.13c1.425,0.046,2.839-0.04,4.229-0.215c0.695-0.088,1.379-0.22,2.054-0.386
				c0.673-0.173,1.325-0.396,1.962-0.66c0.623-0.284,1.234-0.599,1.796-0.989c0.56-0.39,1.099-0.82,1.558-1.33
				c0.243-0.245,0.467-0.506,0.681-0.779c0.231-0.262,0.421-0.554,0.611-0.849c0.384-0.587,0.709-1.226,0.968-1.894
				c0.148-0.329,0.258-0.673,0.359-1.021c0.113-0.345,0.216-0.694,0.283-1.054c0.193-0.709,0.301-1.438,0.422-2.173l0.156,0.004
				c-0.049,0.744-0.078,1.49-0.207,2.227c-0.041,0.371-0.117,0.736-0.206,1.099c-0.077,0.366-0.163,0.729-0.289,1.082
				c-0.216,0.714-0.503,1.411-0.86,2.066c-0.178,0.33-0.356,0.659-0.582,0.96c-0.203,0.315-0.428,0.615-0.68,0.893
				c-0.475,0.58-1.039,1.084-1.631,1.541c-0.594,0.458-1.243,0.836-1.908,1.18c-0.676,0.321-1.372,0.599-2.086,0.821
				c-0.717,0.216-1.443,0.393-2.178,0.522c-2.947,0.517-5.961,0.432-8.914,0.076c-2.955-0.368-5.873-1.015-8.719-1.891l-0.148-0.047
				l0.05-0.138l0.321-0.882l0.416-0.839l0.492-0.792l0.552-0.75c0.39-0.482,0.798-0.946,1.224-1.394
				c0.43-0.442,0.867-0.877,1.312-1.302c0.888-0.852,1.788-1.684,2.636-2.566c0.846-0.884,1.639-1.816,2.273-2.854
				c0.623-1.047,1.16-2.165,1.811-3.21c0.639-1.052,1.346-2.073,2.195-2.975c0.417-0.458,0.887-0.866,1.384-1.237
				c0.495-0.373,1.04-0.676,1.6-0.943l0.868-0.333c0.3-0.079,0.596-0.172,0.898-0.239c0.307-0.05,0.612-0.112,0.918-0.152
				l0.918-0.074L48.379,90.305z"/>
		</g>
		<g>
			<path fill="#66666B" d="M49.471,94.139c0,0-0.102-0.015-0.291-0.042c-0.188-0.016-0.468-0.092-0.818-0.092
				c-0.348,0.015-0.769,0.008-1.232,0.16c-0.465,0.118-0.949,0.382-1.406,0.749c-0.231,0.18-0.43,0.422-0.652,0.646
				c-0.182,0.265-0.405,0.508-0.572,0.809c-0.363,0.577-0.681,1.229-0.971,1.925c-0.588,1.391-1.016,2.952-1.611,4.506
				c-0.086,0.203-0.127,0.372-0.251,0.604l-0.272,0.546c-0.183,0.363-0.365,0.725-0.546,1.084c-0.505,0.689-0.964,1.431-1.608,1.936
				c-0.304,0.273-0.604,0.538-0.951,0.719c-0.335,0.194-0.652,0.418-0.988,0.554c-0.672,0.278-1.303,0.538-1.891,0.716
				c-1.176,0.378-2.153,0.634-2.83,0.857c-0.68,0.214-1.078,0.32-1.078,0.321l-0.043-0.092c0,0.001,0.352-0.211,0.985-0.555
				c0.313-0.182,0.703-0.383,1.16-0.582c0.456-0.204,0.966-0.455,1.521-0.691c0.568-0.225,1.14-0.522,1.74-0.83
				c0.553-0.373,1.197-0.671,1.686-1.198c0.591-0.426,0.975-1.047,1.473-1.607c0.2-0.347,0.402-0.696,0.605-1.047l0.304-0.529
				c0.083-0.121,0.165-0.345,0.247-0.512c0.641-1.463,1.152-3.034,1.82-4.434c0.334-0.699,0.686-1.369,1.109-1.952
				c0.193-0.303,0.449-0.554,0.658-0.817c0.254-0.229,0.48-0.472,0.742-0.65c0.518-0.366,1.058-0.617,1.561-0.712
				c0.498-0.131,0.949-0.098,1.314-0.088c0.361,0.023,0.627,0.115,0.816,0.143c0.188,0.039,0.287,0.059,0.287,0.059L49.471,94.139z"
				/>
		</g>
		<g>
			<path fill="#66666B" d="M147.482,93.539c0,0,0.384,0.011,1.057,0.03c0.332,0.051,0.754,0.112,1.213,0.248
				c0.225,0.087,0.463,0.181,0.715,0.278c0.234,0.132,0.475,0.289,0.729,0.446c0.238,0.178,0.46,0.398,0.704,0.61
				c0.206,0.243,0.429,0.494,0.632,0.768c0.385,0.561,0.732,1.19,1.023,1.861c0.604,1.334,1.056,2.821,1.69,4.177
				c0.294,0.679,0.728,1.326,1.118,1.823l0.397,0.398c0.13,0.091,0.252,0.185,0.372,0.28c0.283,0.182,0.574,0.354,0.884,0.497
				c1.219,0.61,2.521,1.006,3.586,1.519c1.07,0.492,1.921,1.096,2.358,1.652c0.221,0.277,0.371,0.505,0.439,0.683
				c0.08,0.166,0.122,0.255,0.122,0.255l-0.088,0.047c0,0-0.063-0.071-0.181-0.207c-0.107-0.141-0.287-0.325-0.541-0.526
				c-0.258-0.195-0.586-0.406-0.986-0.609c-0.404-0.199-0.886-0.371-1.422-0.551c-1.068-0.36-2.379-0.674-3.755-1.33
				c-0.341-0.171-0.673-0.384-1.005-0.617l-0.496-0.424l-0.376-0.426c-0.512-0.714-0.878-1.394-1.161-2.143
				c-0.596-1.463-0.968-2.953-1.491-4.273c-0.247-0.667-0.558-1.27-0.882-1.824c-0.172-0.268-0.363-0.513-0.541-0.755
				c-0.214-0.208-0.406-0.429-0.617-0.609c-0.227-0.158-0.439-0.321-0.653-0.46c-0.231-0.108-0.452-0.211-0.657-0.307
				c-0.427-0.155-0.818-0.241-1.143-0.313c-0.67-0.062-1.053-0.099-1.053-0.099L147.482,93.539z"/>
		</g>
	</g>
</g>
</svg>
