<?xml version="1.0" encoding="utf-8"?>
<!-- Generator: Adobe Illustrator 16.0.0, SVG Export Plug-In . SVG Version: 6.00 Build 0)  -->
<!DOCTYPE svg PUBLIC "-//W3C//DTD SVG 1.1//EN" "http://www.w3.org/Graphics/SVG/1.1/DTD/svg11.dtd">
<svg version="1.1" xmlns="http://www.w3.org/2000/svg" xmlns:xlink="http://www.w3.org/1999/xlink" x="0px" y="0px" width="200px"
	 height="235px" viewBox="0 0 200 235" enable-background="new 0 0 200 235" xml:space="preserve">
<g id="Ext">
</g>
<g id="Guides">
</g>
<g id="_x31_2_Col_Grid_1_" display="none" enable-background="new    ">
	<g id="Rectangle_xA0_Image_23_" display="inline" opacity="0.102">
	</g>
	<g id="Rectangle_xA0_Image_21_" display="inline" opacity="0.102">
	</g>
	<g id="Rectangle_xA0_Image_19_" display="inline" opacity="0.102">
	</g>
	<g id="Rectangle_xA0_Image_17_" display="inline" opacity="0.102">
	</g>
	<g id="Rectangle_xA0_Image_15_" display="inline" opacity="0.102">
	</g>
	<g id="Rectangle_xA0_Image_13_" display="inline" opacity="0.102">
	</g>
	<g id="Rectangle_xA0_Image_11_" display="inline" opacity="0.102">
	</g>
	<g id="Rectangle_xA0_Image_9_" display="inline" opacity="0.102">
	</g>
	<g id="Rectangle_xA0_Image_7_" display="inline" opacity="0.102">
	</g>
	<g id="Rectangle_xA0_Image_5_" display="inline" opacity="0.102">
	</g>
	<g id="Rectangle_xA0_Image_3_" display="inline" opacity="0.102">
	</g>
	<g id="Rectangle_xA0_Image_1_" display="inline" opacity="0.102">
	</g>
</g>
<g id="Bg">
</g>
<g id="main">
	<g id="Progress">
	</g>
	<g id="Text">
	</g>
</g>
<g id="pane">
</g>
<g id="browserhead">
	<g>
		<g>
			<path d="M98.977,142.25c2.76,0,5-4.25,5-8.25h-10C93.977,138,96.215,142.25,98.977,142.25z"/>
			<path d="M98.975,142.066c0.215-0.032,0.443-0.021,0.646-0.089c0.208-0.05,0.412-0.11,0.605-0.21
				c0.203-0.075,0.379-0.205,0.562-0.316c0.184-0.113,0.333-0.275,0.498-0.411c0.298-0.313,0.569-0.647,0.798-1.012
				s0.403-0.76,0.56-1.157c0.306-0.8,0.498-1.637,0.591-2.479c0.095-0.843,0.101-1.689,0.038-2.525l0.703,0.703
				c-0.834,0.081-1.666,0.103-2.5,0.147c-0.834,0.03-1.666,0.034-2.5,0.049c-0.834-0.019-1.666-0.017-2.5-0.053
				c-0.834-0.043-1.666-0.069-2.5-0.148l0.698-0.698c-0.063,0.836-0.057,1.683,0.038,2.526c0.094,0.844,0.287,1.681,0.593,2.48
				c0.157,0.396,0.331,0.793,0.562,1.156c0.229,0.365,0.5,0.698,0.798,1.012c0.165,0.136,0.315,0.297,0.498,0.41
				c0.184,0.112,0.36,0.241,0.562,0.316c0.193,0.1,0.399,0.16,0.61,0.211C98.542,142.047,98.76,142.034,98.975,142.066z
				 M98.979,142.166c-0.221-0.028-0.451-0.012-0.666-0.077c-0.22-0.048-0.436-0.107-0.637-0.206
				c-0.417-0.166-0.777-0.438-1.121-0.719c-0.324-0.306-0.623-0.636-0.879-0.999s-0.479-0.748-0.674-1.146
				c-0.388-0.798-0.61-1.647-0.783-2.516c-0.176-0.868-0.219-1.752-0.219-2.638V134h-0.023c3.334,0,6.666,0,10,0H104v-0.134
				c0,0.886-0.065,1.77-0.242,2.638c-0.173,0.868-0.436,1.718-0.822,2.515c-0.195,0.398-0.41,0.783-0.666,1.146
				c-0.256,0.363-0.551,0.694-0.875,1c-0.344,0.281-0.702,0.553-1.119,0.719c-0.201,0.099-0.417,0.158-0.638,0.206
				C99.419,142.155,99.197,142.138,98.979,142.166z"/>
		</g>
		<g>
			<path fill="#C9C9D6" d="M94.859,155c0,0-0.362-1.937,0-2.545c0.542-0.91,3.511-2.675,5.376-2.64
				c1.735,0.034,4.183,1.784,4.624,2.64c0.317,0.615,0,2.545,0,2.545"/>
			<path fill="#66666B" d="M94.859,155c0,0-0.127-0.241-0.295-0.69c-0.083-0.226-0.178-0.503-0.25-0.842
				c-0.051-0.356-0.225-0.714,0.178-1.353c0.202-0.284,0.617-0.675,1.016-0.96c0.385-0.284,0.812-0.538,1.26-0.788
				c0.459-0.229,0.932-0.465,1.449-0.641c0.249-0.105,0.521-0.174,0.795-0.24c0.266-0.082,0.553-0.125,0.854-0.14
				c0.168-0.006,0.252-0.04,0.486-0.021l0.389,0.051c0.243,0.011,0.558,0.128,0.838,0.207c0.557,0.188,1.023,0.417,1.475,0.681
				c0.448,0.26,0.861,0.539,1.23,0.85c0.374,0.301,0.705,0.618,0.986,1.061c0.276,0.433,0.182,0.992,0.104,1.29
				c-0.078,0.336-0.164,0.613-0.238,0.84c-0.154,0.451-0.275,0.695-0.275,0.695s-0.035-0.267-0.096-0.732
				c-0.029-0.229-0.072-0.508-0.141-0.81c-0.041-0.138-0.074-0.333-0.131-0.419c-0.036-0.061-0.011-0.088-0.038-0.189l-0.038-0.138
				l-0.021-0.069l-0.006-0.018l-0.001-0.004c-0.007-0.016,0.052,0.121,0.026,0.062l-0.004-0.005l-0.018-0.021
				c-0.145-0.217-0.416-0.517-0.746-0.771c-0.318-0.269-0.697-0.524-1.096-0.755c-0.394-0.233-0.848-0.447-1.265-0.59
				c-0.216-0.055-0.385-0.154-0.667-0.171l-0.389-0.05c-0.025-0.006-0.201,0.019-0.295,0.024c-0.225,0.01-0.455,0.041-0.689,0.115
				c-0.233,0.057-0.466,0.112-0.692,0.209c-0.46,0.155-0.896,0.374-1.315,0.582c-0.41,0.229-0.799,0.46-1.139,0.711
				c-0.326,0.246-0.557,0.419-0.82,0.771c0,0.01-0.021,0.146-0.059,0.289c-0.066,0.127-0.092,0.297-0.133,0.438
				c-0.061,0.3-0.106,0.577-0.138,0.807C94.893,154.733,94.859,155,94.859,155z"/>
		</g>
	</g>
</g>
</svg>
