<?xml version="1.0" encoding="utf-8"?>
<!-- Generator: Adobe Illustrator 16.0.0, SVG Export Plug-In . SVG Version: 6.00 Build 0)  -->
<!DOCTYPE svg PUBLIC "-//W3C//DTD SVG 1.1//EN" "http://www.w3.org/Graphics/SVG/1.1/DTD/svg11.dtd">
<svg version="1.1" xmlns="http://www.w3.org/2000/svg" xmlns:xlink="http://www.w3.org/1999/xlink" x="0px" y="0px" width="200px"
	 height="225px" viewBox="0 0 200 225" enable-background="new 0 0 200 225" xml:space="preserve">
<g id="Ext">
</g>
<g id="Guides">
</g>
<g id="_x31_2_Col_Grid_1_" display="none" enable-background="new    ">
	<g id="Rectangle_xA0_Image_23_" display="inline" opacity="0.102">
	</g>
	<g id="Rectangle_xA0_Image_21_" display="inline" opacity="0.102">
	</g>
	<g id="Rectangle_xA0_Image_19_" display="inline" opacity="0.102">
	</g>
	<g id="Rectangle_xA0_Image_17_" display="inline" opacity="0.102">
	</g>
	<g id="Rectangle_xA0_Image_15_" display="inline" opacity="0.102">
	</g>
	<g id="Rectangle_xA0_Image_13_" display="inline" opacity="0.102">
	</g>
	<g id="Rectangle_xA0_Image_11_" display="inline" opacity="0.102">
	</g>
	<g id="Rectangle_xA0_Image_9_" display="inline" opacity="0.102">
	</g>
	<g id="Rectangle_xA0_Image_7_" display="inline" opacity="0.102">
	</g>
	<g id="Rectangle_xA0_Image_5_" display="inline" opacity="0.102">
	</g>
	<g id="Rectangle_xA0_Image_3_" display="inline" opacity="0.102">
	</g>
	<g id="Rectangle_xA0_Image_1_" display="inline" opacity="0.102">
	</g>
</g>
<g id="Bg">
</g>
<g id="main">
	<g id="Progress">
	</g>
	<g id="Text">
	</g>
</g>
<g id="pane">
</g>
<g id="browserhead">
	<g>
		<g>
			<path fill="#050505" d="M100.377,120.25c2.758,0,5-4.25,5-8.25h-10C95.377,116,97.614,120.25,100.377,120.25z"/>
			<path d="M100.371,120c0.215,0,0.447-0.146,0.648-0.214c0.206-0.051,0.408-0.174,0.601-0.273c0.202-0.076,0.376-0.235,0.559-0.349
				c0.182-0.113,0.329-0.292,0.491-0.429c0.292-0.315,0.558-0.659,0.78-1.024s0.386-0.768,0.534-1.165
				c0.287-0.802,0.46-1.638,0.533-2.477c0.076-0.838,0.064-1.678-0.018-2.502l0.877,0.876c-0.834,0.1-1.666,0.127-2.5,0.184
				c-0.834,0.037-1.666,0.042-2.5,0.06c-0.834-0.022-1.666-0.021-2.5-0.064c-0.834-0.054-1.666-0.087-2.5-0.186l0.87-0.87
				c-0.081,0.825-0.093,1.664-0.017,2.503c0.074,0.839,0.248,1.674,0.535,2.475c0.148,0.397,0.311,0.797,0.535,1.161
				c0.223,0.366,0.489,0.701,0.782,1.017c0.162,0.137,0.31,0.301,0.491,0.413c0.183,0.112,0.357,0.241,0.559,0.316
				c0.191,0.101,0.396,0.285,0.606,0.336c0.205,0.068,0.425,0.213,0.638,0.213H100.371z M100.377,120
				c-0.222,0-0.451-0.072-0.668-0.138c-0.22-0.048-0.436-0.138-0.639-0.236c-0.418-0.166-0.781-0.454-1.125-0.735
				c-0.326-0.307-0.625-0.645-0.883-1.009c-0.256-0.363-0.48-0.753-0.676-1.151c-0.389-0.799-0.803-1.651-0.977-2.521
				c-0.176-0.869-0.41-1.757-0.41-2.644V111h0.377c3.334,0,6.666,0,10,0H105v0.566c0,0.887,0.143,1.772-0.033,2.642
				s-0.332,1.72-0.722,2.518c-0.195,0.398-0.358,0.784-0.616,1.147c-0.256,0.364-0.526,0.695-0.851,1.001
				c-0.346,0.282-0.692,0.555-1.11,0.721c-0.201,0.099-0.412,0.22-0.635,0.268c-0.221,0.066-0.432,0.138-0.65,0.138H100.377z"/>
		</g>
		<g>
			<line fill="#FFE1CC" x1="90.001" y1="130" x2="115" y2="120"/>
			<path d="M89.982,129.953c0,0,6.168-2.704,12.369-5.324c1.546-0.667,3.086-1.347,4.545-1.948c0.738-0.278,1.441-0.573,2.127-0.808
				c0.683-0.24,1.328-0.469,1.923-0.679c0.595-0.214,1.153-0.376,1.641-0.537c0.488-0.16,0.917-0.292,1.273-0.391
				c0.709-0.21,1.121-0.312,1.121-0.313l0.037,0.094c0-0.001-0.369,0.209-1.027,0.546c-0.327,0.175-0.728,0.375-1.192,0.596
				c-0.464,0.22-0.98,0.487-1.558,0.742c-0.576,0.259-1.2,0.538-1.86,0.835c-0.658,0.303-1.371,0.574-2.098,0.882
				c-1.471,0.57-3.055,1.141-4.635,1.724c-6.297,2.38-12.629,4.676-12.629,4.676L89.982,129.953z"/>
		</g>
	</g>
</g>
</svg>
