<?xml version="1.0" encoding="utf-8"?>
<!-- Generator: Adobe Illustrator 16.0.0, SVG Export Plug-In . SVG Version: 6.00 Build 0)  -->
<!DOCTYPE svg PUBLIC "-//W3C//DTD SVG 1.1//EN" "http://www.w3.org/Graphics/SVG/1.1/DTD/svg11.dtd">
<svg version="1.1" xmlns="http://www.w3.org/2000/svg" xmlns:xlink="http://www.w3.org/1999/xlink" x="0px" y="0px" width="200px"
	 height="225px" viewBox="0 0 200 225" enable-background="new 0 0 200 225" xml:space="preserve">
<g id="Ext">
</g>
<g id="Guides">
</g>
<g id="_x31_2_Col_Grid_1_" display="none" enable-background="new    ">
	<g id="Rectangle_xA0_Image_23_" display="inline" opacity="0.102">
	</g>
	<g id="Rectangle_xA0_Image_21_" display="inline" opacity="0.102">
	</g>
	<g id="Rectangle_xA0_Image_19_" display="inline" opacity="0.102">
	</g>
	<g id="Rectangle_xA0_Image_17_" display="inline" opacity="0.102">
	</g>
	<g id="Rectangle_xA0_Image_15_" display="inline" opacity="0.102">
	</g>
	<g id="Rectangle_xA0_Image_13_" display="inline" opacity="0.102">
	</g>
	<g id="Rectangle_xA0_Image_11_" display="inline" opacity="0.102">
	</g>
	<g id="Rectangle_xA0_Image_9_" display="inline" opacity="0.102">
	</g>
	<g id="Rectangle_xA0_Image_7_" display="inline" opacity="0.102">
	</g>
	<g id="Rectangle_xA0_Image_5_" display="inline" opacity="0.102">
	</g>
	<g id="Rectangle_xA0_Image_3_" display="inline" opacity="0.102">
	</g>
	<g id="Rectangle_xA0_Image_1_" display="inline" opacity="0.102">
	</g>
</g>
<g id="Bg">
</g>
<g id="main">
	<g id="Progress">
	</g>
	<g id="Text">
	</g>
</g>
<g id="pane">
</g>
<g id="browserhead">
	<g>
		<path fill="#FFFFFF" stroke="#000000" stroke-width="1.2462" stroke-miterlimit="10" d="M76.503,210.247
			c-1.008,4.019-5.08,6.458-9.099,5.451l0,0c-4.019-1.007-6.458-5.08-5.451-9.099l3.647-14.55c1.007-4.019,5.08-6.458,9.098-5.451
			l0,0c4.02,1.007,6.459,5.08,5.451,9.099L76.503,210.247z"/>
		
			<ellipse transform="matrix(0.9786 0.206 -0.206 0.9786 44.8775 -9.4792)" fill="#020202" stroke="#000000" stroke-width="1.2462" stroke-miterlimit="10" cx="67.964" cy="210.793" rx="7.5" ry="5"/>
	</g>
	<g>
		<path fill="#FFFFFF" stroke="#000000" stroke-width="1.2462" stroke-miterlimit="10" d="M134.251,209.8
			c1.008,4.019,5.08,6.458,9.099,5.451l0,0c4.019-1.007,6.458-5.08,5.451-9.099l-3.647-14.55c-1.007-4.019-5.08-6.458-9.098-5.451
			l0,0c-4.02,1.007-6.459,5.08-5.451,9.099L134.251,209.8z"/>
		
			<ellipse transform="matrix(-0.9786 0.206 -0.206 -0.9786 325.8449 386.7682)" fill="#020202" stroke="#000000" stroke-width="1.2462" stroke-miterlimit="10" cx="142.79" cy="210.346" rx="7.5" ry="5"/>
	</g>
	<path fill="#FFFEFD" stroke="#000000" stroke-miterlimit="10" d="M195.377,103.425c0-3.662-2.625-6.705-6.094-7.364
		c-0.012-0.089-0.027-0.177-0.039-0.267c3.488-0.643,6.133-3.694,6.133-7.369c0-4.143-3.357-7.5-7.5-7.5
		c-0.652,0-1.28,0.092-1.883,0.248c-0.086-0.272-0.178-0.541-0.267-0.812c2.728-1.122,4.649-3.803,4.649-6.936
		c0-4.143-3.357-7.5-7.5-7.5c-1.071,0-2.088,0.229-3.01,0.633c-0.142-0.267-0.284-0.533-0.429-0.798
		c3.393-0.719,5.938-3.729,5.938-7.335c0-4.143-3.357-7.5-7.5-7.5c-1.165,0-2.264,0.273-3.247,0.747
		c0.474-0.983,0.747-2.082,0.747-3.247c0-4.143-3.357-7.5-7.5-7.5c-2.246,0-4.256,0.992-5.63,2.556
		c-0.253-0.238-0.511-0.472-0.767-0.707c0.876-1.228,1.396-2.726,1.396-4.349c0-4.143-3.357-7.5-7.5-7.5
		c-2.297,0-4.349,1.034-5.725,2.659c-0.286-0.187-0.572-0.374-0.861-0.558c0.99-1.271,1.586-2.865,1.586-4.602
		c0-4.143-3.357-7.5-7.5-7.5c-3.353,0-6.188,2.199-7.149,5.233c-0.251-0.107-0.501-0.218-0.754-0.322
		c0.257-0.758,0.403-1.566,0.403-2.411c0-4.143-3.357-7.5-7.5-7.5c-3.391,0-6.252,2.25-7.18,5.337
		c-0.271-0.062-0.541-0.123-0.812-0.183c0.312-0.826,0.492-1.719,0.492-2.654c0-4.143-3.357-7.5-7.5-7.5s-7.5,3.357-7.5,7.5
		c0,0.219,0.014,0.434,0.033,0.647c-0.022-0.001-0.044-0.003-0.065-0.004c0.018-0.213,0.032-0.427,0.032-0.644
		c0-4.143-3.357-7.5-7.5-7.5s-7.5,3.357-7.5,7.5c0,0.334,0.029,0.659,0.071,0.981c-0.048,0.005-0.097,0.012-0.146,0.017
		c0.044-0.327,0.074-0.659,0.074-0.998c0-4.143-3.357-7.5-7.5-7.5s-7.5,3.357-7.5,7.5c0,1.303,0.333,2.528,0.918,3.596
		c-0.338,0.09-0.677,0.178-1.013,0.271c-0.547-3.604-3.649-6.367-7.405-6.367c-4.143,0-7.5,3.357-7.5,7.5
		c0,1.459,0.423,2.815,1.144,3.967c-0.392,0.183-0.78,0.368-1.167,0.555c-0.248-3.918-3.495-7.021-7.477-7.021
		c-4.143,0-7.5,3.357-7.5,7.5c0,1.165,0.273,2.264,0.747,3.247c-0.983-0.474-2.082-0.747-3.247-0.747c-4.143,0-7.5,3.357-7.5,7.5
		c0,2.057,0.828,3.918,2.168,5.272c-0.277,0.263-0.553,0.528-0.826,0.794c-1.125-0.673-2.436-1.066-3.842-1.066
		c-4.143,0-7.5,3.357-7.5,7.5c0,0.887,0.162,1.733,0.443,2.522c-0.146-0.009-0.293-0.022-0.443-0.022c-4.143,0-7.5,3.357-7.5,7.5
		c0,2.09,0.856,3.979,2.236,5.339c-0.707-0.22-1.457-0.339-2.236-0.339c-4.143,0-7.5,3.357-7.5,7.5c0,2.883,1.627,5.381,4.012,6.637
		c-0.106,0.322-0.217,0.643-0.319,0.967c-0.39-0.062-0.786-0.104-1.192-0.104c-4.143,0-7.5,3.357-7.5,7.5
		c0,3.42,2.291,6.299,5.42,7.201c-0.027,0.207-0.059,0.412-0.086,0.619c-3.086,0.93-5.334,3.79-5.334,7.18
		c0,3.144,1.936,5.831,4.678,6.946c0.013,0.364,0.026,0.729,0.043,1.092c-2.766,1.104-4.721,3.803-4.721,6.962
		c0,3.833,2.876,6.987,6.586,7.439c0.17,0.782,0.35,1.561,0.539,2.336c-1.313,1.351-2.125,3.191-2.125,5.225
		c0,3.719,2.708,6.796,6.258,7.389c0.316,0.763,0.643,1.52,0.979,2.271c-1.38,1.36-2.237,3.25-2.237,5.341
		c0,4.143,3.357,7.5,7.5,7.5c0.588,0,1.156-0.074,1.705-0.202c0.477,0.717,0.963,1.426,1.459,2.128
		c-0.424,0.939-0.664,1.978-0.664,3.074c0,4.143,3.357,7.5,7.5,7.5c0.596,0,1.172-0.076,1.727-0.208
		c0.545,0.567,1.096,1.128,1.656,1.68c-0.562,1.052-0.883,2.252-0.883,3.528c0,4.143,3.357,7.5,7.5,7.5
		c1.165,0,2.264-0.273,3.247-0.747c-0.474,0.983-0.747,2.082-0.747,3.247c0,4.143,3.357,7.5,7.5,7.5c3.021,0,5.619-1.79,6.807-4.364
		c0.278,0.137,0.557,0.274,0.837,0.409c-0.093,0.471-0.144,0.957-0.144,1.455c0,4.143,3.357,7.5,7.5,7.5
		c2.74,0,5.129-1.473,6.438-3.666c0.371,0.108,0.74,0.22,1.113,0.324c-0.031,0.276-0.051,0.557-0.051,0.842
		c0,4.143,3.357,7.5,7.5,7.5c3.461,0,6.367-2.348,7.231-5.535c0.185,0.02,0.368,0.043,0.554,0.062
		c0.885,3.156,3.775,5.474,7.215,5.474c3.316,0,6.124-2.153,7.114-5.137c0.252-0.014,0.503-0.031,0.755-0.047
		c0.976,3.008,3.797,5.184,7.131,5.184c4.066,0,7.367-3.236,7.488-7.273c0.008-0.002,0.016-0.004,0.023-0.006
		c0.117,4.04,3.42,7.279,7.488,7.279c4.143,0,7.5-3.357,7.5-7.5c0-1.514-0.451-2.919-1.223-4.098
		c0.416-0.168,0.83-0.336,1.242-0.509c0.206,3.958,3.471,7.106,7.48,7.106c4.143,0,7.5-3.357,7.5-7.5
		c0-1.165-0.273-2.264-0.747-3.247c0.983,0.474,2.082,0.747,3.247,0.747c4.143,0,7.5-3.357,7.5-7.5c0-1.165-0.273-2.264-0.747-3.247
		c0.983,0.474,2.082,0.747,3.247,0.747c4.143,0,7.5-3.357,7.5-7.5c0-1.165-0.273-2.264-0.747-3.247
		c0.983,0.474,2.082,0.747,3.247,0.747c4.143,0,7.5-3.357,7.5-7.5c0-1.165-0.273-2.264-0.747-3.247
		c0.983,0.474,2.082,0.747,3.247,0.747c4.143,0,7.5-3.357,7.5-7.5c0-3.99-3.118-7.243-7.051-7.478
		c0.169-0.404,0.34-0.808,0.502-1.216c1.168,0.752,2.556,1.193,4.049,1.193c4.143,0,7.5-3.357,7.5-7.5
		c0-4.088-3.271-7.405-7.338-7.492c0.001-0.005,0.002-0.011,0.004-0.017c4.064-0.089,7.334-3.404,7.334-7.491
		c0-3.43-2.305-6.315-5.447-7.209c0.008-0.195,0.016-0.392,0.022-0.588C193.084,109.727,195.377,106.847,195.377,103.425z"/>
	
		<ellipse fill="#FFFEFD" stroke="#000000" stroke-width="1.4655" stroke-miterlimit="10" cx="100.377" cy="93.425" rx="45" ry="52.5"/>
	<g>
		<g>
			<ellipse fill="none" stroke="#020200" stroke-width="0.8" stroke-miterlimit="10" cx="73.178" cy="88.726" rx="12.8" ry="12"/>
			
				<ellipse fill="#020200" stroke="#020200" stroke-width="0.4382" stroke-miterlimit="10" cx="73.178" cy="88.726" rx="7.199" ry="6.4"/>
		</g>
		<g>
			<ellipse fill="none" stroke="#020200" stroke-width="0.8" stroke-miterlimit="10" cx="125.178" cy="87.925" rx="12.8" ry="12"/>
			
				<ellipse fill="#020200" stroke="#020200" stroke-width="0.4382" stroke-miterlimit="10" cx="125.178" cy="87.925" rx="7.199" ry="6.4"/>
		</g>
	</g>
	<path fill="#FFFEFD" stroke="#000000" stroke-miterlimit="10" d="M140.377,45.925c-0.26,0-0.51,0.038-0.758,0.076
		c-0.273-0.434-0.613-0.86-1.025-1.277c1.082-0.917,1.783-2.27,1.783-3.799c0-2.762-2.238-5-5-5c-2.51,0-4.566,1.854-4.926,4.264
		c-0.556-0.198-1.125-0.393-1.719-0.579c1.004-0.915,1.645-2.22,1.645-3.685c0-2.762-2.238-5-5-5s-5,2.238-5,5
		c0,0.613,0.126,1.192,0.327,1.735c-0.205-0.038-0.413-0.075-0.62-0.111c0.177-0.512,0.293-1.052,0.293-1.624c0-2.762-2.238-5-5-5
		s-5,2.238-5,5c0,0.136,0.029,0.264,0.04,0.397c-0.026-0.002-0.053-0.005-0.079-0.007c0.01-0.131,0.039-0.257,0.039-0.391
		c0-2.762-2.238-5-5-5s-5,2.238-5,5c0-2.762-2.238-5-5-5s-5,2.238-5,5c0,0.134,0.029,0.26,0.039,0.391
		c-0.026,0.002-0.053,0.005-0.079,0.007c0.011-0.134,0.04-0.262,0.04-0.397c0-2.762-2.238-5-5-5s-5,2.238-5,5
		c0,0.572,0.116,1.112,0.293,1.624c-0.207,0.036-0.415,0.073-0.62,0.111c0.201-0.543,0.327-1.122,0.327-1.735c0-2.762-2.238-5-5-5
		s-5,2.238-5,5c0,1.465,0.641,2.77,1.645,3.685c-0.594,0.187-1.163,0.381-1.719,0.579c-0.359-2.41-2.416-4.264-4.926-4.264
		c-2.762,0-5,2.238-5,5c0,1.529,0.701,2.882,1.783,3.799c-1.158,1.17-1.783,2.413-1.783,3.701c0,0.408,0.067,0.811,0.189,1.209
		c-0.111,0.414-0.189,0.842-0.189,1.291c0,2.762,2.238,5,5,5c0,2.762,2.238,5,5,5c1.996,0,3.705-1.178,4.506-2.868
		c0.4,0.104,0.811,0.203,1.224,0.302c-0.453,0.752-0.729,1.624-0.729,2.566c0,2.762,2.238,5,5,5s5-2.238,5-5
		c0-0.316-0.037-0.623-0.094-0.924c0.062,0.008,0.123,0.016,0.185,0.022c-0.054,0.294-0.091,0.593-0.091,0.901c0,2.762,2.238,5,5,5
		s5-2.438,5-5.199c0-0.034-0.01-0.301-0.01-0.301c0.006,0,0.014,0,0.02,0c0,0-0.01,0.266-0.01,0.301c0,2.762,2.238,5.1,5,5.1
		s5-2.389,5-5.15c0-0.034-0.01-0.25-0.01-0.25c0.006,0,0.014,0,0.02,0c0,0-0.01,0.267-0.01,0.301c0,2.762,2.238,5.1,5,5.1
		s5-2.188,5-4.95c0-0.309-0.037-0.583-0.091-0.876c0.062-0.008,0.123-0.003,0.185-0.011c-0.057,0.301-0.094,0.614-0.094,0.931
		c0,2.762,2.238,5.003,5,5.003s5-2.237,5-4.999c0-0.942-0.276-1.813-0.729-2.565c0.413-0.099,0.823-0.197,1.224-0.301
		c0.801,1.69,2.51,2.868,4.506,2.868c2.762,0,5-2.238,5-5c0-0.467-0.084-0.909-0.204-1.338c0.419-0.229,0.821-0.463,1.193-0.702
		c0.911,1.231,2.361,2.04,4.011,2.04c2.762,0,5-2.238,5-5S143.139,45.925,140.377,45.925z"/>
	<g>
		<g>
			<path fill="#050505" d="M100.376,121.175c2.761,0,5-4.25,5-8.25h-10C95.376,116.925,97.615,121.175,100.376,121.175z"/>
			<path d="M100.371,120.925c0.215,0,0.447-0.107,0.646-0.176c0.207-0.051,0.409-0.154,0.602-0.255
				c0.202-0.075,0.377-0.227,0.559-0.338c0.183-0.113,0.329-0.289,0.491-0.426c0.293-0.315,0.559-0.656,0.781-1.021
				s0.386-0.766,0.533-1.164c0.287-0.801,0.46-1.638,0.534-2.477c0.075-0.838,0.062-1.677-0.018-2.501l0.876,0.876
				c-0.833,0.1-1.667,0.127-2.5,0.184c-0.833,0.037-1.667,0.042-2.5,0.06c-0.833-0.022-1.667-0.021-2.5-0.064
				c-0.833-0.054-1.667-0.087-2.5-0.186l0.87-0.87c-0.081,0.825-0.093,1.664-0.016,2.502c0.073,0.839,0.248,1.674,0.535,2.476
				c0.148,0.397,0.311,0.797,0.535,1.161c0.223,0.365,0.488,0.7,0.781,1.016c0.162,0.138,0.31,0.301,0.492,0.414
				c0.182,0.111,0.356,0.241,0.559,0.316c0.191,0.1,0.396,0.247,0.605,0.298c0.205,0.068,0.425,0.176,0.638,0.176H100.371z
				 M100.376,120.925c-0.222,0-0.452-0.035-0.667-0.1c-0.221-0.049-0.437-0.119-0.639-0.218c-0.419-0.167-0.781-0.444-1.126-0.727
				c-0.325-0.306-0.625-0.641-0.882-1.004s-0.48-0.751-0.676-1.149c-0.389-0.799-0.666-1.649-0.84-2.519
				c-0.178-0.869-0.264-1.524-0.275-2.411l-0.002,0.127h0.106c3.333,0,6.667,0,10,0h0.106l-0.002-0.127
				c-0.012,0.887-0.098,1.656-0.275,2.525c-0.174,0.869-0.451,1.662-0.84,2.461c-0.195,0.398-0.418,0.756-0.676,1.119
				c-0.257,0.364-0.557,0.681-0.882,0.986c-0.345,0.282-0.707,0.546-1.126,0.713c-0.201,0.099-0.419,0.178-0.643,0.226
				c-0.22,0.066-0.438,0.097-0.658,0.097H100.376z"/>
		</g>
		<g>
			<path fill="#FCFCFC" d="M100.562,120.925c0,0-0.417,3.821,0,5c0.59,1.667,3.412,4.224,5,5c1.123,0.549,3.845,0.479,5,0
				c1.633-0.677,4.426-3.328,5-5c0.406-1.183,0-3.75,0-5"/>
			<path d="M100.625,120.932c0,0,0.043,0.468,0.096,1.275c0.027,0.402,0.061,0.892,0.121,1.444c0.064,0.543,0.146,1.189,0.293,1.746
				c0.049,0.104,0.074,0.292,0.131,0.328c0.094,0.155,0.188,0.312,0.285,0.474c0.222,0.267,0.365,0.466,0.629,0.739
				c0.498,0.534,1.093,1.06,1.721,1.577c0.621,0.508,1.344,1.007,1.996,1.351l0.123,0.07l0.016,0.008
				c0.088,0.039-0.111-0.047-0.087-0.037l0.011,0.004l0.039,0.014l0.082,0.028l0.322,0.112l0.443,0.069
				c0.391,0.043,0.797,0.057,1.211,0.054c0.805,0.003,1.734-0.092,2.21-0.331c0.449-0.205,0.721-0.402,1.026-0.58
				c0.318-0.235,0.666-0.461,0.969-0.727c0.621-0.516,1.208-1.048,1.699-1.588c0.252-0.266,0.442-0.55,0.646-0.805
				c0.079-0.129,0.158-0.256,0.234-0.38l0.03-0.047l0.015-0.023l0.008-0.012c-0.035,0.12-0.008,0.028-0.016,0.054l0.003-0.008
				l0.042-0.127l0.083-0.25c0.132-0.528,0.215-1.146,0.261-1.703c0.049-0.553,0.072-1.046,0.094-1.452
				c0.05-0.816,0.139-1.285,0.139-1.285h0.125c0,0,0.006,0.457,0.071,1.261c0.027,0.403,0.062,0.893,0.1,1.454
				c0.026,0.561,0.047,1.203-0.062,1.904c-0.113,0.704-0.559,1.362-1.029,1.995c-0.492,0.63-1.065,1.249-1.715,1.828
				c-0.643,0.569-1.364,1.164-2.185,1.56c-0.856,0.416-1.81,0.475-2.735,0.507c-0.467-0.001-0.934-0.027-1.396-0.089
				c-0.479-0.083-0.922-0.175-1.336-0.418c-0.816-0.441-1.511-1.018-2.164-1.589c-0.65-0.578-1.234-1.186-1.732-1.811
				c-0.487-0.646-0.938-1.261-1.047-1.989c-0.184-1.396-0.045-2.549-0.009-3.355c0.073-0.805,0.114-1.265,0.114-1.265
				L100.625,120.932z"/>
		</g>
		<g>
			<path fill="#FCFCFC" d="M100.558,120.539c0,0,0.417,3.821,0,5c-0.59,1.667-3.412,4.224-5,5c-1.123,0.549-3.845,0.479-5,0
				c-1.633-0.677-4.426-3.328-5-5c-0.406-1.183,0-3.75,0-5"/>
			<path d="M100.619,120.532c0,0,0.145,0.449,0.315,1.251c0.077,0.402,0.171,0.892,0.257,1.462c0.082,0.579,0.183,1.208,0.111,2.017
				c-0.047,0.227-0.021,0.409-0.145,0.688c-0.062,0.169-0.127,0.341-0.191,0.517c-0.18,0.356-0.446,0.817-0.691,1.149
				c-0.496,0.701-1.067,1.38-1.736,2.005c-0.682,0.622-1.352,1.266-2.303,1.779l-0.172,0.1l-0.021,0.013l-0.117,0.05l-0.039,0.016
				l-0.08,0.029l-0.32,0.121c-0.271,0.078-0.613,0.155-0.902,0.206c-0.522,0.072-1.037,0.106-1.545,0.109
				c-1.023-0.056-1.994-0.08-3.162-0.637c-0.379-0.173-0.844-0.499-1.273-0.82c-0.375-0.319-0.744-0.61-1.066-0.94
				c-0.674-0.631-1.232-1.323-1.722-2.028c-0.245-0.35-0.458-0.729-0.647-1.104c-0.078-0.209-0.155-0.414-0.23-0.615l-0.027-0.075
				l-0.014-0.037l-0.006-0.019c-0.037-0.126-0.012-0.039-0.02-0.07l-0.002-0.008l-0.018-0.133l-0.035-0.261
				c-0.082-0.837,0.031-1.497,0.127-2.06c0.099-0.57,0.201-0.861,0.281-1.26c0.172-0.793,0.271-1.053,0.271-1.053h0.125
				c0,0-0.003,0.273-0.062,1.078c-0.023,0.402-0.053,0.794-0.087,1.354c-0.022,0.56-0.034,1.146,0.072,1.811
				c0.114,0.677,0.546,1.276,1.016,1.899c0.488,0.614,1.06,1.209,1.706,1.775c0.653,0.564,1.328,1.114,2.15,1.503
				c0.787,0.379,1.734,0.437,2.637,0.457c0.912-0.012,1.834-0.027,2.625-0.459c0.787-0.417,1.485-0.984,2.135-1.542
				c0.646-0.565,1.229-1.163,1.725-1.772c0.254-0.301,0.451-0.617,0.652-0.925c0.17-0.341,0.336-0.646,0.375-0.982
				c0.19-1.348,0.064-2.517,0.035-3.314c-0.066-0.803-0.104-1.261-0.104-1.261L100.619,120.532z"/>
		</g>
	</g>
	<g>
		<path fill="#F9F9F9" stroke="#020200" stroke-miterlimit="10" d="M68.876,162.645l-0.658,5.361
			c-0.449-0.179-0.877-0.423-1.265-0.74l-9.868-8.018c-2.044-1.66-2.287-4.626-0.543-6.625c1.742-1.998,4.812-2.273,6.855-0.612
			l9.867,8.017c0.39,0.317,0.713,0.682,0.972,1.077L68.876,162.645z"/>
		<path fill="#FFFFFF" stroke="#000000" stroke-width="1.2462" stroke-miterlimit="10" d="M60.377,145.925c-2.762,0-5,2.238-5,5
			c0-2.762-2.238-5-5-5s-5,2.238-5,5s2.238,5,5,5c0,2.762,2.238,5,5,5s5-2.238,5-5c2.762,0,5-2.238,5-5
			S63.139,145.925,60.377,145.925z"/>
	</g>
	<g>
		<path fill="#F9F9F9" stroke="#020200" stroke-miterlimit="10" d="M124.236,161.104c0.259-0.396,0.582-0.76,0.972-1.077
			l9.867-8.017c2.043-1.661,5.113-1.386,6.855,0.612c1.744,1.999,1.501,4.965-0.543,6.625l-9.868,8.018
			c-0.388,0.317-0.815,0.562-1.265,0.74l-0.658-5.361L124.236,161.104z"/>
		<path fill="#FFFFFF" stroke="#000000" stroke-width="1.2462" stroke-miterlimit="10" d="M138.096,145.925c2.762,0,5,2.238,5,5
			c0-2.762,2.238-5,5-5s5,2.238,5,5s-2.238,5-5,5c0,2.762-2.238,5-5,5s-5-2.238-5-5c-2.762,0-5-2.238-5-5
			S135.334,145.925,138.096,145.925z"/>
	</g>
	<g>
		<path d="M58.543,46.075l-0.924,0.025c-0.306,0.024-0.601,0.071-0.895,0.104l-0.877,0.171l-0.846,0.254
			c-0.547,0.215-1.075,0.459-1.562,0.774c-0.488,0.312-0.953,0.659-1.375,1.062c-0.43,0.39-0.829,0.818-1.227,1.25
			c-0.393,0.436-0.765,0.898-1.127,1.373c-0.36,0.476-0.709,0.965-1.054,1.463l-0.513,0.752l-0.129,0.188l-0.162,0.22l-0.274,0.371
			c-0.37,0.489-0.884,1.062-1.33,1.496c-0.462,0.465-0.946,0.897-1.437,1.304c-0.993,0.803-2.011,1.523-2.983,2.246
			c-0.487,0.359-0.958,0.723-1.417,1.089c-0.451,0.369-0.88,0.748-1.293,1.127l-0.578,0.589l-0.516,0.614l-0.44,0.642l-0.358,0.67
			l-0.649-1.828c1.31,0.619,2.647,1.174,3.988,1.716c1.345,0.531,2.709,1.01,4.089,1.413c0.69,0.201,1.386,0.378,2.079,0.558
			c0.694,0.171,1.392,0.325,2.093,0.453c1.4,0.262,2.812,0.392,4.211,0.43c0.701,0.019,1.397-0.007,2.09-0.069
			c0.689-0.068,1.369-0.19,2.039-0.354c0.658-0.186,1.311-0.404,1.926-0.704c0.611-0.3,1.21-0.645,1.742-1.078
			c0.276-0.205,0.537-0.429,0.791-0.667c0.268-0.223,0.5-0.483,0.732-0.746c0.469-0.521,0.887-1.103,1.245-1.725
			c0.196-0.302,0.356-0.625,0.511-0.953c0.164-0.324,0.318-0.654,0.439-0.999c0.299-0.671,0.516-1.375,0.748-2.084l0.152,0.029
			c-0.161,0.728-0.303,1.46-0.542,2.168c-0.097,0.36-0.229,0.71-0.371,1.056c-0.132,0.349-0.272,0.695-0.45,1.024
			c-0.322,0.674-0.711,1.318-1.165,1.912c-0.226,0.3-0.452,0.597-0.721,0.86c-0.249,0.28-0.517,0.543-0.809,0.779
			c-0.558,0.501-1.19,0.912-1.845,1.274c-0.657,0.362-1.356,0.638-2.066,0.876c-0.717,0.215-1.447,0.384-2.187,0.495
			c-0.74,0.104-1.485,0.168-2.231,0.186c-2.992,0.062-5.957-0.479-8.822-1.279c-2.865-0.813-5.652-1.896-8.33-3.194l-0.141-0.068
			l0.07-0.129l0.451-0.822l0.539-0.766l0.607-0.709l0.659-0.657c0.458-0.417,0.933-0.813,1.421-1.191
			c0.492-0.371,0.99-0.735,1.494-1.087c1.007-0.707,2.023-1.393,2.995-2.137c0.971-0.744,1.896-1.545,2.681-2.475
			c0.775-0.94,1.477-1.963,2.277-2.897c0.792-0.942,1.646-1.845,2.623-2.606c0.481-0.389,1.008-0.722,1.555-1.012
			c0.547-0.295,1.131-0.511,1.725-0.69l0.909-0.196c0.309-0.033,0.615-0.079,0.925-0.1c0.31-0.004,0.622-0.019,0.931-0.012
			l0.919,0.066L58.543,46.075z"/>
	</g>
	<g>
		<path d="M142.801,45.919l0.913-0.154c0.309-0.036,0.628-0.052,0.947-0.077c0.318-0.012,0.634,0.021,0.954,0.031
			c0.316,0.038,0.635,0.088,0.953,0.14c0.627,0.143,1.254,0.329,1.848,0.599c0.593,0.266,1.172,0.58,1.702,0.952
			c1.091,0.719,1.991,1.649,2.851,2.574c0.425,0.468,0.834,0.944,1.234,1.424l0.592,0.721l0.147,0.181
			c-0.001-0.011,0.087,0.096,0.126,0.138l0.307,0.346c0.418,0.451,0.762,0.762,1.229,1.148c0.439,0.369,0.906,0.717,1.395,1.053
			c0.953,0.694,1.97,1.353,3.004,2.047c0.518,0.346,1.037,0.71,1.556,1.086c0.52,0.383,1.031,0.795,1.524,1.245l0.723,0.715
			l0.681,0.787l0.616,0.867l0.523,0.947l0.654,1.181l-1.304,0.647c-2.726,1.354-5.583,2.431-8.532,3.255
			c-1.474,0.417-2.984,0.72-4.517,0.928c-1.532,0.197-3.091,0.323-4.66,0.222c-0.784-0.049-1.567-0.147-2.347-0.289
			c-0.779-0.148-1.549-0.357-2.303-0.617c-0.749-0.283-1.483-0.606-2.172-1.021c-0.686-0.414-1.345-0.882-1.918-1.438l-0.434-0.411
			l-0.382-0.461c-0.264-0.297-0.483-0.626-0.698-0.956c-0.434-0.654-0.793-1.35-1.076-2.065c-0.16-0.351-0.279-0.715-0.39-1.081
			c-0.121-0.361-0.229-0.726-0.304-1.098c-0.18-0.737-0.249-1.491-0.342-2.231l0.152-0.029c0.164,0.722,0.309,1.447,0.549,2.147
			c0.098,0.356,0.229,0.701,0.371,1.042c0.133,0.345,0.271,0.686,0.449,1.01c0.32,0.663,0.708,1.296,1.156,1.877
			c0.223,0.293,0.447,0.585,0.712,0.842c0.246,0.274,0.509,0.53,0.797,0.761c0.548,0.489,1.172,0.889,1.815,1.241
			c0.646,0.353,1.334,0.619,2.031,0.85c0.707,0.208,1.426,0.371,2.156,0.477c0.73,0.1,1.465,0.16,2.203,0.173
			c2.956,0.049,5.896-0.502,8.738-1.311c2.846-0.818,5.604-1.922,8.279-3.189l-0.07,0.197l-0.431-0.795l-0.518-0.743l-0.588-0.692
			l-0.642-0.646c-0.449-0.412-0.914-0.806-1.396-1.181c-0.486-0.371-0.979-0.734-1.479-1.088c-1-0.71-2.017-1.402-2.993-2.157
			c-0.973-0.753-1.912-1.573-2.708-2.525c-0.782-0.96-1.467-1.971-2.261-2.906c-0.782-0.939-1.623-1.836-2.58-2.59
			c-0.473-0.385-0.988-0.714-1.523-1.001c-0.534-0.291-1.104-0.506-1.686-0.684l-0.891-0.198c-0.301-0.032-0.604-0.08-0.905-0.102
			c-0.304-0.004-0.606-0.021-0.911-0.016l-0.918,0.062L142.801,45.919z"/>
	</g>
</g>
</svg>
