<?xml version="1.0" encoding="utf-8"?>
<!-- Generator: Adobe Illustrator 16.0.0, SVG Export Plug-In . SVG Version: 6.00 Build 0)  -->
<!DOCTYPE svg PUBLIC "-//W3C//DTD SVG 1.1//EN" "http://www.w3.org/Graphics/SVG/1.1/DTD/svg11.dtd">
<svg version="1.1" xmlns="http://www.w3.org/2000/svg" xmlns:xlink="http://www.w3.org/1999/xlink" x="0px" y="0px" width="200px"
	 height="225px" viewBox="0 0 200 225" enable-background="new 0 0 200 225" xml:space="preserve">
<g id="Ext">
</g>
<g id="Guides">
</g>
<g id="_x31_2_Col_Grid_1_" display="none" enable-background="new    ">
	<g id="Rectangle_xA0_Image_23_" display="inline" opacity="0.102">
	</g>
	<g id="Rectangle_xA0_Image_21_" display="inline" opacity="0.102">
	</g>
	<g id="Rectangle_xA0_Image_19_" display="inline" opacity="0.102">
	</g>
	<g id="Rectangle_xA0_Image_17_" display="inline" opacity="0.102">
	</g>
	<g id="Rectangle_xA0_Image_15_" display="inline" opacity="0.102">
	</g>
	<g id="Rectangle_xA0_Image_13_" display="inline" opacity="0.102">
	</g>
	<g id="Rectangle_xA0_Image_11_" display="inline" opacity="0.102">
	</g>
	<g id="Rectangle_xA0_Image_9_" display="inline" opacity="0.102">
	</g>
	<g id="Rectangle_xA0_Image_7_" display="inline" opacity="0.102">
	</g>
	<g id="Rectangle_xA0_Image_5_" display="inline" opacity="0.102">
	</g>
	<g id="Rectangle_xA0_Image_3_" display="inline" opacity="0.102">
	</g>
	<g id="Rectangle_xA0_Image_1_" display="inline" opacity="0.102">
	</g>
</g>
<g id="Bg">
</g>
<g id="main">
	<g id="Progress">
	</g>
	<g id="Text">
	</g>
</g>
<g id="pane">
</g>
<g id="browserhead">
	<g>
		<path fill="#020200" d="M82.471,144.845c0,0,0.477-0.351,1.311-0.965c0.838-0.609,2.057-1.449,3.569-2.389
			c0.384-0.227,0.785-0.462,1.199-0.706c0.433-0.219,0.878-0.445,1.337-0.677c0.486-0.184,0.983-0.4,1.527-0.526
			c0.524-0.103,1.059-0.208,1.604-0.314c1.113-0.145,2.269-0.305,3.434-0.375c1.167-0.115,2.355-0.127,3.544-0.184
			c1.19,0.002,2.38-0.048,3.555,0.02c1.175,0.014,2.332,0.144,3.454,0.266c0.561,0.1,1.113,0.233,1.652,0.346
			c0.605,0.152,1.015,0.356,1.509,0.561c0.47,0.247,0.926,0.488,1.368,0.721c0.414,0.249,0.814,0.489,1.199,0.72
			c3.008,1.936,4.797,3.502,4.797,3.503l-0.059,0.083c0,0-0.514-0.294-1.413-0.808c-0.448-0.256-0.994-0.566-1.62-0.922
			c-0.619-0.363-1.344-0.729-2.111-1.156c-0.389-0.203-0.793-0.415-1.212-0.634c-0.415-0.19-0.845-0.386-1.286-0.588
			c-0.228-0.095-0.482-0.166-0.725-0.256l-0.369-0.134c-0.047-0.016-0.159-0.061-0.151-0.052l-0.188-0.037
			c-0.508-0.095-1.018-0.21-1.549-0.296c-1.078-0.142-2.194-0.289-3.348-0.357c-1.147-0.114-2.324-0.112-3.498-0.163
			c-1.174,0.019-2.352-0.007-3.506,0.069c-1.162,0.033-2.279,0.152-3.369,0.256c-0.547,0.089-1.084,0.177-1.61,0.262
			c-0.494,0.101-0.972,0.289-1.439,0.44c-0.457,0.207-0.901,0.409-1.331,0.604c-0.42,0.223-0.825,0.438-1.215,0.646
			c-1.539,0.866-2.791,1.651-3.651,2.222c-0.858,0.576-1.349,0.905-1.349,0.905L82.471,144.845z"/>
	</g>
</g>
</svg>
