<?xml version="1.0" encoding="utf-8"?>
<!-- Generator: Adobe Illustrator 16.0.0, SVG Export Plug-In . SVG Version: 6.00 Build 0)  -->
<!DOCTYPE svg PUBLIC "-//W3C//DTD SVG 1.1//EN" "http://www.w3.org/Graphics/SVG/1.1/DTD/svg11.dtd">
<svg version="1.1" id="Layer_1" xmlns="http://www.w3.org/2000/svg" xmlns:xlink="http://www.w3.org/1999/xlink" x="0px" y="0px"
	 width="200px" height="225px" viewBox="0 0 200 225" enable-background="new 0 0 200 225" xml:space="preserve">
<g id="Ext">
</g>
<g id="Guides">
</g>
<g id="_x31_2_Col_Grid_1_" display="none" enable-background="new    ">
	<g id="Rectangle_xA0_Image_23_" display="inline" opacity="0.102">
	</g>
	<g id="Rectangle_xA0_Image_21_" display="inline" opacity="0.102">
	</g>
	<g id="Rectangle_xA0_Image_19_" display="inline" opacity="0.102">
	</g>
	<g id="Rectangle_xA0_Image_17_" display="inline" opacity="0.102">
	</g>
	<g id="Rectangle_xA0_Image_15_" display="inline" opacity="0.102">
	</g>
	<g id="Rectangle_xA0_Image_13_" display="inline" opacity="0.102">
	</g>
	<g id="Rectangle_xA0_Image_11_" display="inline" opacity="0.102">
	</g>
	<g id="Rectangle_xA0_Image_9_" display="inline" opacity="0.102">
	</g>
	<g id="Rectangle_xA0_Image_7_" display="inline" opacity="0.102">
	</g>
	<g id="Rectangle_xA0_Image_5_" display="inline" opacity="0.102">
	</g>
	<g id="Rectangle_xA0_Image_3_" display="inline" opacity="0.102">
	</g>
	<g id="Rectangle_xA0_Image_1_" display="inline" opacity="0.102">
	</g>
</g>
<g id="Bg">
</g>
<g id="main">
	<g id="Progress">
	</g>
	<g id="Text">
	</g>
</g>
<g>
	<ellipse fill="#F980C8" stroke="#000000" stroke-miterlimit="10" cx="66.847" cy="84.5" rx="16" ry="15"/>
	<path fill="#F980C8" stroke="#000000" stroke-miterlimit="10" d="M85.179,109.5"/>
	<g>
		<line fill="none" stroke="#000000" stroke-miterlimit="10" x1="76.847" y1="96.5" x2="81.847" y2="101.5"/>
		<path stroke="#000000" stroke-miterlimit="10" d="M76.882,96.465c0,0,1.406,1.094,2.748,2.252c0.338,0.287,0.7,0.549,1.003,0.833
			c0.292,0.294,0.529,0.604,0.716,0.886c0.378,0.559,0.533,1.028,0.533,1.029l-0.07,0.07c0,0-0.47-0.155-1.029-0.534
			c-0.282-0.187-0.592-0.423-0.886-0.715c-0.283-0.303-0.546-0.665-0.833-1.003c-1.158-1.341-2.252-2.748-2.252-2.748L76.882,96.465
			z"/>
	</g>
	<g>
		<line fill="none" stroke="#000000" stroke-miterlimit="10" x1="66.919" y1="99.607" x2="67.011" y2="106.677"/>
		<path stroke="#000000" stroke-miterlimit="10" d="M66.97,99.606c0,0,0.244,1.765,0.395,3.531c0.043,0.442,0.119,0.883,0.138,1.296
			c0.003,0.415-0.044,0.801-0.106,1.134c-0.119,0.664-0.335,1.109-0.335,1.109l-0.101,0c0,0-0.229-0.439-0.364-1.101
			c-0.072-0.33-0.128-0.716-0.136-1.131c0.009-0.414,0.074-0.856,0.104-1.3c0.105-1.77,0.303-3.54,0.303-3.54H66.97z"/>
	</g>
	<g>
		<line fill="none" stroke="#000000" stroke-miterlimit="10" x1="55.847" y1="96.214" x2="52.608" y2="102.5"/>
		<path stroke="#000000" stroke-miterlimit="10" d="M55.892,96.237c-0.001,0-0.614,1.672-1.309,3.303
			c-0.17,0.41-0.31,0.834-0.487,1.209c-0.191,0.368-0.414,0.688-0.626,0.952c-0.417,0.531-0.816,0.822-0.816,0.822l-0.09-0.046
			c0,0,0.005-0.495,0.195-1.143c0.092-0.326,0.224-0.693,0.411-1.062c0.202-0.362,0.468-0.723,0.702-1.099
			c0.925-1.512,1.931-2.983,1.93-2.983L55.892,96.237z"/>
	</g>
	<ellipse fill="#F980C8" stroke="#000000" stroke-miterlimit="10" cx="130.848" cy="84.5" rx="16" ry="15"/>
	<path fill="#F980C8" stroke="#000000" stroke-miterlimit="10" d="M149.18,109.5"/>
	<g>
		<line fill="none" stroke="#000000" stroke-miterlimit="10" x1="139.848" y1="96.5" x2="144.848" y2="101.5"/>
		<path stroke="#000000" stroke-miterlimit="10" d="M139.882,96.465c0,0,1.406,1.094,2.748,2.252c0.338,0.287,0.7,0.549,1.003,0.833
			c0.292,0.294,0.529,0.604,0.717,0.886c0.377,0.559,0.532,1.028,0.532,1.029l-0.069,0.07c0,0-0.471-0.155-1.029-0.534
			c-0.282-0.187-0.592-0.423-0.887-0.715c-0.282-0.303-0.545-0.665-0.832-1.003c-1.158-1.341-2.252-2.748-2.252-2.748
			L139.882,96.465z"/>
	</g>
	<g>
		<line fill="none" stroke="#000000" stroke-miterlimit="10" x1="130.686" y1="99.619" x2="131.245" y2="106.667"/>
		<path stroke="#000000" stroke-miterlimit="10" d="M130.734,99.615c0,0,0.36,1.744,0.629,3.497
			c0.072,0.438,0.177,0.873,0.224,1.284c0.03,0.414,0.009,0.802-0.031,1.138c-0.075,0.671-0.261,1.129-0.261,1.129l-0.1,0.007
			c0,0-0.257-0.423-0.437-1.074c-0.095-0.325-0.175-0.707-0.211-1.12c-0.018-0.414,0.017-0.86,0.018-1.304
			c-0.013-1.773,0.068-3.552,0.068-3.552L130.734,99.615z"/>
	</g>
	<g>
		<line fill="none" stroke="#000000" stroke-miterlimit="10" x1="119.848" y1="96.214" x2="116.607" y2="102.5"/>
		<path stroke="#000000" stroke-miterlimit="10" d="M119.893,96.237c-0.002,0-0.615,1.672-1.31,3.303
			c-0.17,0.41-0.31,0.834-0.487,1.209c-0.191,0.368-0.414,0.688-0.625,0.952c-0.418,0.531-0.816,0.822-0.816,0.822l-0.09-0.046
			c0,0,0.004-0.495,0.194-1.143c0.093-0.326,0.224-0.693,0.411-1.062c0.202-0.362,0.469-0.723,0.702-1.099
			c0.925-1.512,1.931-2.983,1.93-2.983L119.893,96.237z"/>
	</g>
	<g id="browserhead">
	</g>
</g>
</svg>
