<?xml version="1.0" encoding="utf-8"?>
<!-- Generator: Adobe Illustrator 16.0.0, SVG Export Plug-In . SVG Version: 6.00 Build 0)  -->
<!DOCTYPE svg PUBLIC "-//W3C//DTD SVG 1.1//EN" "http://www.w3.org/Graphics/SVG/1.1/DTD/svg11.dtd">
<svg version="1.1" id="Layer_1" xmlns="http://www.w3.org/2000/svg" xmlns:xlink="http://www.w3.org/1999/xlink" x="0px" y="0px"
	 width="200px" height="225px" viewBox="0 0 200 225" enable-background="new 0 0 200 225" xml:space="preserve">
<g id="Ext">
</g>
<g id="Guides">
</g>
<g id="_x31_2_Col_Grid_1_" display="none" enable-background="new    ">
	<g id="Rectangle_xA0_Image_23_" display="inline" opacity="0.102">
	</g>
	<g id="Rectangle_xA0_Image_21_" display="inline" opacity="0.102">
	</g>
	<g id="Rectangle_xA0_Image_19_" display="inline" opacity="0.102">
	</g>
	<g id="Rectangle_xA0_Image_17_" display="inline" opacity="0.102">
	</g>
	<g id="Rectangle_xA0_Image_15_" display="inline" opacity="0.102">
	</g>
	<g id="Rectangle_xA0_Image_13_" display="inline" opacity="0.102">
	</g>
	<g id="Rectangle_xA0_Image_11_" display="inline" opacity="0.102">
	</g>
	<g id="Rectangle_xA0_Image_9_" display="inline" opacity="0.102">
	</g>
	<g id="Rectangle_xA0_Image_7_" display="inline" opacity="0.102">
	</g>
	<g id="Rectangle_xA0_Image_5_" display="inline" opacity="0.102">
	</g>
	<g id="Rectangle_xA0_Image_3_" display="inline" opacity="0.102">
	</g>
	<g id="Rectangle_xA0_Image_1_" display="inline" opacity="0.102">
	</g>
</g>
<g id="Bg">
</g>
<g id="main">
	<g id="Progress">
	</g>
	<g id="Text">
	</g>
</g>
<g id="browserhead">
</g>
<g>
	<path fill="#FFFFFF" stroke="#000000" stroke-width="1.021" stroke-miterlimit="10" d="M82.755,145.59c0,0,7.182-5.692,9.967-6.883
		c2.974-1.271,9.544-1.974,12.777-2.04c3.797-0.076,11.687,0.086,15.08,1.785c2.141,1.07,6.898,6.628,6.898,6.628
		s-0.452,2.165-1.021,2.55c-0.582,0.393-2.812,0-2.812,0s-13.372-10.93-18.146-10.963c-5.744-0.039-19.167,12.492-19.167,12.492
		s-3.908,0.916-4.601,0C81.172,148.418,82.755,145.59,82.755,145.59z"/>
	<line fill="#FFFFFF" stroke="#020200" stroke-miterlimit="10" x1="83.062" y1="145.562" x2="86.25" y2="148.75"/>
	<line fill="#FFFFFF" stroke="#020200" stroke-miterlimit="10" x1="86" y1="143.312" x2="89.188" y2="146.5"/>
	<line fill="#FFFFFF" stroke="#020200" stroke-miterlimit="10" x1="88.875" y1="141.188" x2="92.062" y2="144.375"/>
	<line fill="#FFFFFF" stroke="#020200" stroke-miterlimit="10" x1="91.688" y1="138.938" x2="94.875" y2="142.125"/>
	
		<line fill="#FFFFFF" stroke="#020200" stroke-width="0.8039" stroke-miterlimit="10" x1="95.25" y1="137.562" x2="97.812" y2="140.125"/>
	<line fill="#FFFFFF" stroke="#020200" stroke-miterlimit="10" x1="126.686" y1="144.195" x2="123.752" y2="147.617"/>
	
		<line fill="#FFFFFF" stroke="#020200" stroke-width="1.149" stroke-miterlimit="10" x1="124.125" y1="141.688" x2="120.752" y2="145.617"/>
	
		<line fill="#FFFFFF" stroke="#020200" stroke-width="1.2361" stroke-miterlimit="10" x1="121.062" y1="138.938" x2="117.377" y2="143.117"/>
	
		<line fill="#FFFFFF" stroke="#020200" stroke-width="0.955" stroke-miterlimit="10" x1="116.438" y1="137.562" x2="113.814" y2="140.992"/>
	
		<line fill="#FFFFFF" stroke="#020200" stroke-width="0.7271" stroke-miterlimit="10" x1="113.125" y1="136.688" x2="111.375" y2="139.562"/>
</g>
</svg>
