<?xml version="1.0" encoding="utf-8"?>
<!-- Generator: Adobe Illustrator 16.0.0, SVG Export Plug-In . SVG Version: 6.00 Build 0)  -->
<!DOCTYPE svg PUBLIC "-//W3C//DTD SVG 1.1//EN" "http://www.w3.org/Graphics/SVG/1.1/DTD/svg11.dtd">
<svg version="1.1" id="Layer_1" xmlns="http://www.w3.org/2000/svg" xmlns:xlink="http://www.w3.org/1999/xlink" x="0px" y="0px"
	 width="200px" height="225px" viewBox="0 0 200 225" enable-background="new 0 0 200 225" xml:space="preserve">
<g id="Ext">
</g>
<g id="Guides">
</g>
<g id="_x31_2_Col_Grid_1_" display="none" enable-background="new    ">
	<g id="Rectangle_xA0_Image_23_" display="inline" opacity="0.102">
	</g>
	<g id="Rectangle_xA0_Image_21_" display="inline" opacity="0.102">
	</g>
	<g id="Rectangle_xA0_Image_19_" display="inline" opacity="0.102">
	</g>
	<g id="Rectangle_xA0_Image_17_" display="inline" opacity="0.102">
	</g>
	<g id="Rectangle_xA0_Image_15_" display="inline" opacity="0.102">
	</g>
	<g id="Rectangle_xA0_Image_13_" display="inline" opacity="0.102">
	</g>
	<g id="Rectangle_xA0_Image_11_" display="inline" opacity="0.102">
	</g>
	<g id="Rectangle_xA0_Image_9_" display="inline" opacity="0.102">
	</g>
	<g id="Rectangle_xA0_Image_7_" display="inline" opacity="0.102">
	</g>
	<g id="Rectangle_xA0_Image_5_" display="inline" opacity="0.102">
	</g>
	<g id="Rectangle_xA0_Image_3_" display="inline" opacity="0.102">
	</g>
	<g id="Rectangle_xA0_Image_1_" display="inline" opacity="0.102">
	</g>
</g>
<g id="Bg">
</g>
<g id="main">
	<g id="Progress">
	</g>
	<g id="Text">
	</g>
</g>
<g id="pane">
</g>
<g id="browserhead">
	<g>
		<g>
			<path fill="#020200" d="M83.53,139.073c0,0,0.49,0.329,1.348,0.905c0.861,0.57,2.113,1.355,3.652,2.222
				c0.389,0.207,0.794,0.422,1.213,0.646c0.431,0.195,0.875,0.396,1.332,0.604c0.468,0.151,0.945,0.339,1.439,0.44
				c0.526,0.084,1.064,0.172,1.61,0.262c1.089,0.104,2.208,0.223,3.37,0.256c1.152,0.076,2.331,0.05,3.505,0.068
				c1.173-0.051,2.351-0.049,3.497-0.162c1.154-0.068,2.27-0.215,3.35-0.357c0.53-0.086,1.041-0.201,1.547-0.296l0.189-0.037
				c-0.008,0.009,0.105-0.036,0.15-0.052l0.371-0.135c0.242-0.09,0.496-0.162,0.723-0.256c0.441-0.201,0.871-0.397,1.287-0.588
				c0.419-0.219,0.824-0.431,1.213-0.634c0.768-0.427,1.49-0.793,2.111-1.156c0.625-0.355,1.17-0.665,1.619-0.922
				c0.898-0.514,1.412-0.808,1.412-0.808l0.059,0.083c0,0-1.787,1.567-4.797,3.503c-0.385,0.23-0.785,0.471-1.199,0.72
				c-0.441,0.233-0.898,0.474-1.367,0.722c-0.494,0.203-0.904,0.408-1.509,0.561c-0.539,0.113-1.091,0.246-1.652,0.346
				c-1.122,0.122-2.28,0.252-3.454,0.266c-1.175,0.068-2.365,0.018-3.555,0.021c-1.188-0.058-2.377-0.069-3.544-0.185
				c-1.165-0.069-2.321-0.229-3.435-0.375c-0.543-0.105-1.078-0.211-1.602-0.313c-0.545-0.126-1.041-0.342-1.527-0.526
				c-0.459-0.231-0.906-0.457-1.338-0.677c-0.414-0.243-0.814-0.479-1.199-0.706c-1.514-0.938-2.732-1.779-3.57-2.389
				c-0.834-0.614-1.311-0.965-1.311-0.965L83.53,139.073z"/>
			<path d="M83.558,139.031c0.631,0.373,1.227,0.776,1.875,1.114l1.916,1.053l0.958,0.527c0.154,0.081,0.332,0.189,0.466,0.248
				l0.493,0.235l0.493,0.235l0.124,0.059l0.031,0.016c-0.032-0.017,0.009,0.003,0.011,0.002l0.063,0.025l0.254,0.103l1.014,0.407
				l-0.046-0.018l1.09,0.285c0.353,0.126,0.716,0.131,1.114,0.198l0.578,0.079c0.073,0.008,0.244,0.038,0.237,0.027l0.291,0.015
				l1.165,0.061l1.165,0.06c0.399,0.022,0.761,0.042,1.153,0.031l2.334-0.012l0.584-0.003l0.072-0.001h0.019h0.009h0.005
				c-0.033,0.001,0.081-0.001-0.073,0.001l0.036-0.002l0.146-0.011l0.291-0.021l1.162-0.083l1.163-0.082
				c0.405-0.021,0.754-0.036,1.144-0.09l2.317-0.267l0.518-0.06l0.571-0.114l1.128-0.227l0.779,1.325
				c0.713,0.062-0.593-2.019-0.756-1.328l-0.022,0.004l-0.039,0.009l-0.038,0.011c-0.001,0-0.009,0.003-0.003,0.001l0.025-0.01
				l0.087-0.033l0.138-0.051l0.274-0.102l0.587-0.213c0.11-0.042,0.356-0.164,0.527-0.241l0.566-0.265
				c0.076-0.037,0.23-0.104,0.241-0.116l0.276-0.147l0.552-0.294l1.067-0.588c1.462-0.802,2.893-1.654,4.335-2.49l0.699-0.405
				l0.479,0.667l0.06,0.082l0.495,0.69l-0.637,0.502c-0.599,0.472-1.185,0.989-1.812,1.396l-1.859,1.285l-0.93,0.642l-0.232,0.16
				c-0.049,0.032-0.055,0.041-0.14,0.092l-0.119,0.07l-0.479,0.282l-0.479,0.282c-0.236,0.141-0.349,0.186-0.529,0.283l-0.986,0.511
				l-0.038,0.02l-0.035,0.015c-0.397,0.164-0.789,0.333-1.274,0.475l-0.346,0.108l-0.36,0.074l-0.63,0.126l-0.63,0.127l-0.079,0.016
				l-0.145,0.017l-0.04,0.003l-0.16,0.011l-0.321,0.022l-1.282,0.088l-1.282,0.088l-0.32,0.022l-0.345,0.001l-0.643-0.001
				L101.049,146l-2.637-0.196c-0.432-0.04-0.842-0.049-1.293-0.115l-1.275-0.171l-1.275-0.17l-0.688-0.096l-0.628-0.14l-0.628-0.139
				l-0.363-0.083l-0.301-0.112l-1.202-0.464l-0.064-0.025l-0.005-0.003l-0.963-0.54l-0.241-0.136l-0.14-0.079l-0.116-0.075
				l-0.462-0.3l-0.463-0.301c-0.188-0.115-0.307-0.22-0.464-0.33l-0.889-0.652l-1.778-1.305c-0.602-0.422-1.163-0.916-1.738-1.366
				l-0.045-0.035l0.033-0.041l0.094-0.118L83.558,139.031z M83.542,139.142l-0.034,0.046l-0.011-0.069
				c0.6,0.427,1.169,0.887,1.79,1.281l1.833,1.223c0.617,0.403,1.207,0.832,1.851,1.188c0.32,0.188,0.625,0.377,0.959,0.534
				l0.984,0.496l-0.01-0.004l1.216,0.417c0.399,0.168,0.822,0.187,1.244,0.288c0.425,0.092,0.833,0.159,1.263,0.193l1.278,0.138
				l1.278,0.138c0.422,0.053,0.854,0.052,1.281,0.08l2.561,0.129l2.57-0.019c0.431-0.013,0.855,0.016,1.282-0.032l1.282-0.101
				l1.281-0.101c0.433-0.013,0.83-0.094,1.258-0.191c0.417-0.104,0.846-0.143,1.239-0.298c0.404-0.119,0.798-0.29,1.191-0.458
				l-0.007,0.004c0.654-0.355,1.314-0.671,1.94-1.07c0.318-0.193,0.638-0.371,0.934-0.594l0.906-0.639l1.813-1.277
				c0.619-0.406,1.161-0.909,1.745-1.361l-0.016,0.133l-0.059-0.083l0.13,0.028c-1.449,0.822-2.891,1.662-4.359,2.45l-1.104,0.595
				c-0.374,0.188-0.729,0.394-1.118,0.568c-0.383,0.171-0.752,0.349-1.146,0.514l-0.589,0.208l-0.296,0.106l-0.148,0.054
				l-0.072,0.026l-0.037,0.014l-0.021,0.007l-0.014,0.005l-0.01,0.002l-0.005,0.001c-0.019,0.073-0.157-0.147-0.082-0.142
				l0.082,0.141l-1.147,0.219c-0.375,0.081-0.772,0.143-1.159,0.172l-2.319,0.244c-0.776,0.092-1.553,0.086-2.329,0.134
				c-0.77,0.024-1.563,0.1-2.339,0.06l-2.332-0.049c-0.781-0.006-1.552-0.104-2.328-0.152l-1.163-0.09
				c-0.388-0.015-0.782-0.103-1.161-0.159c-0.379-0.074-0.777-0.095-1.145-0.234l-1.12-0.344l-0.003-0.001l-0.003-0.002
				l-0.994-0.452c-0.335-0.142-0.658-0.327-0.977-0.495c-0.651-0.325-1.263-0.736-1.886-1.106l-1.864-1.138
				C84.713,139.957,84.136,139.531,83.542,139.142z"/>
		</g>
	</g>
</g>
</svg>
