<?xml version="1.0" encoding="utf-8"?>
<!-- Generator: Adobe Illustrator 16.0.0, SVG Export Plug-In . SVG Version: 6.00 Build 0)  -->
<!DOCTYPE svg PUBLIC "-//W3C//DTD SVG 1.1//EN" "http://www.w3.org/Graphics/SVG/1.1/DTD/svg11.dtd">
<svg version="1.1" id="Layer_1" xmlns="http://www.w3.org/2000/svg" xmlns:xlink="http://www.w3.org/1999/xlink" x="0px" y="0px"
	 width="200px" height="225px" viewBox="0 0 200 225" enable-background="new 0 0 200 225" xml:space="preserve">
<g id="Ext">
</g>
<g id="Guides">
</g>
<g id="_x31_2_Col_Grid_1_" display="none" enable-background="new    ">
	<g id="Rectangle_xA0_Image_23_" display="inline" opacity="0.102">
	</g>
	<g id="Rectangle_xA0_Image_21_" display="inline" opacity="0.102">
	</g>
	<g id="Rectangle_xA0_Image_19_" display="inline" opacity="0.102">
	</g>
	<g id="Rectangle_xA0_Image_17_" display="inline" opacity="0.102">
	</g>
	<g id="Rectangle_xA0_Image_15_" display="inline" opacity="0.102">
	</g>
	<g id="Rectangle_xA0_Image_13_" display="inline" opacity="0.102">
	</g>
	<g id="Rectangle_xA0_Image_11_" display="inline" opacity="0.102">
	</g>
	<g id="Rectangle_xA0_Image_9_" display="inline" opacity="0.102">
	</g>
	<g id="Rectangle_xA0_Image_7_" display="inline" opacity="0.102">
	</g>
	<g id="Rectangle_xA0_Image_5_" display="inline" opacity="0.102">
	</g>
	<g id="Rectangle_xA0_Image_3_" display="inline" opacity="0.102">
	</g>
	<g id="Rectangle_xA0_Image_1_" display="inline" opacity="0.102">
	</g>
</g>
<g id="Bg">
</g>
<g id="main">
	<g id="Progress">
	</g>
	<g id="Text">
	</g>
</g>
<g id="pane">
</g>
<g>
	<g>
		<g>
			<path fill="#FFFFFF" d="M87.031,143.979c0,0,8.182,6.771,11.766,7.641c2.589,0.629,8.441,0.316,10.741-0.85
				c2.37-1.201,7.065-7.108,7.065-7.108"/>
			<path d="M87.039,143.969c0,0,1.69,1.397,4.355,3.32c1.335,0.956,2.914,2.051,4.7,3.056c0.896,0.481,1.846,0.996,2.881,1.218
				c1.065,0.212,2.143,0.269,3.237,0.266c1.092,0.003,2.183-0.072,3.249-0.195c1.066-0.127,2.105-0.323,3.08-0.606
				c0.473-0.203,0.937-0.311,1.333-0.629c0.205-0.137,0.408-0.273,0.608-0.407c0.182-0.154,0.36-0.307,0.536-0.456
				c0.722-0.578,1.336-1.237,1.92-1.808c1.145-1.176,2.037-2.214,2.674-2.931c0.625-0.727,0.981-1.143,0.981-1.143l0.02,0.016
				c0,0-0.34,0.43-0.935,1.183c-0.6,0.749-1.489,1.793-2.608,3.001c-0.579,0.589-1.169,1.252-1.906,1.868
				c-0.18,0.158-0.362,0.318-0.547,0.479c-0.2,0.135-0.404,0.271-0.609,0.408c-0.385,0.312-0.92,0.458-1.392,0.654
				c-0.998,0.289-2.05,0.492-3.128,0.604c-1.078,0.113-2.178,0.177-3.277,0.161c-1.094-0.005-2.216-0.076-3.267-0.296
				c-1.08-0.242-2.02-0.768-2.921-1.261c-1.789-1.023-3.355-2.139-4.681-3.11c-2.646-1.955-4.319-3.372-4.319-3.372L87.039,143.969z
				"/>
		</g>
		<g>
			<path d="M87.137,143.914c0,0,0.553,0.236,1.47,0.674c0.913,0.439,2.2,1.074,3.667,1.86c0.74,0.39,1.544,0.801,2.357,1.251
				c0.817,0.419,1.68,0.861,2.573,1.318c0.438,0.225,0.875,0.41,1.311,0.597l0.613,0.216c0.188,0.07,0.3,0.081,0.448,0.139
				c0.171,0.036-0.227-0.047-0.181-0.037l0.017,0.002l0.028,0.004l0.056,0.01l0.11,0.017l0.221,0.035l0.446,0.069
				c0.343,0.067,0.454,0.023,0.684,0.046c0.345,0.03,0.917,0.018,1.442,0.019c0.527,0.02,1.074-0.021,1.611-0.023
				c0.523-0.047,1.072-0.07,1.573-0.137c0.485-0.086,1.027-0.115,1.441-0.209c0.208-0.041,0.467-0.072,0.643-0.119
				c0.153-0.053,0.313-0.099,0.48-0.14l0.062-0.016l0.031-0.007l0.009-0.002c0.168-0.094-0.219,0.125-0.176,0.101l0.023-0.013
				l0.166-0.096l0.332-0.191c0.196-0.126,0.489-0.256,0.623-0.357c0.314-0.212,0.625-0.419,0.926-0.619
				c0.705-0.535,1.37-1.039,1.98-1.507c1.24-0.956,2.316-1.765,3.1-2.317c0.78-0.558,1.256-0.867,1.256-0.867l0.244,0.1
				c0,0-1.181,1.543-3.199,3.756c-0.492,0.557-1.085,1.135-1.7,1.754c-0.341,0.299-0.69,0.605-1.05,0.92
				c-0.4,0.291-0.759,0.566-1.275,0.83c-1.02,0.474-2.209,0.692-3.401,0.885c-0.601,0.094-1.216,0.137-1.829,0.203
				c-0.617,0.022-1.237,0.078-1.86,0.071c-1.235,0-2.53-0.087-3.707-0.342c-1.198-0.339-2.143-0.878-3.045-1.397
				c-1.796-1.052-3.304-2.152-4.593-3.098c-2.557-1.902-4.141-3.248-4.141-3.248L87.137,143.914z"/>
			<path d="M87.143,143.902c1.057,0.463,2.095,0.971,3.12,1.5c1.029,0.521,2.065,1.031,3.082,1.577
				c1.018,0.544,2.045,1.066,3.075,1.589c0.512,0.269,1.028,0.52,1.558,0.749c0.27,0.115,0.515,0.25,0.792,0.334
				c0.271,0.099,0.549,0.187,0.824,0.269l-0.008-0.002l0.035,0.007l0.004,0.001l0.006,0.001l0.008,0.003l-0.008,0.099
				c-0.025,0.004-0.016,0.001-0.02,0.001H99.61l-0.011-0.002l-0.018-0.003l-0.068-0.015l-0.068-0.014l-0.034-0.007l-0.017-0.004
				l-0.008-0.002h-0.004c-0.001-0.001,0,0,0.003,0l0.006,0.001l0.018-0.104l-0.003-0.001h0l-0.004-0.001
				c0.385,0.052,0.765,0.131,1.145,0.161c0.385,0.027,0.765,0.016,1.153,0.024c0.771,0.017,1.539-0.012,2.312-0.021h-0.007
				l0.917-0.081c0.31-0.032,0.606-0.043,0.911-0.097c0.609-0.091,1.215-0.169,1.818-0.293l-0.007,0.002
				c0.196-0.056,0.391-0.12,0.59-0.168l-0.02,0.008l0.037-0.021l0.002-0.001c0.023,0.055-0.052-0.126,0.1,0.106
				c-0.03,0.033-0.014,0.013-0.022,0.021l-0.012,0.008l-0.019,0.01l-0.072,0.042l-0.072,0.041l-0.036,0.021l-0.01,0.005
				l-0.002,0.001c0.066,0.117-0.092-0.158-0.071-0.132l0.006-0.004l0.019-0.01l0.285-0.166l0.569-0.328
				c0.392-0.214,0.742-0.484,1.114-0.724c0.703-0.524,1.405-1.071,2.111-1.606l2.124-1.596c0.357-0.264,0.701-0.535,1.069-0.793
				l1.092-0.757l0.042-0.03l0.05,0.021l0.244,0.099l0.125,0.051l-0.084,0.1l-2.844,3.35c-0.459,0.576-1.003,1.065-1.5,1.603
				l-0.381,0.394c-0.122,0.134-0.273,0.272-0.405,0.384l-0.824,0.725l-0.005,0.004l-0.003,0.002
				c-0.237,0.165-0.461,0.346-0.711,0.497l-0.376,0.224c-0.114,0.076-0.263,0.154-0.397,0.198c-0.271,0.097-0.524,0.228-0.812,0.297
				c-0.281,0.074-0.562,0.173-0.845,0.226c-0.566,0.126-1.128,0.231-1.703,0.314l-1.712,0.192l-0.008,0.001h-0.004
				c-0.825,0.012-1.647,0.113-2.477,0.051l-1.233-0.056l-1.234-0.182l-0.616-0.093c-0.228-0.07-0.393-0.149-0.593-0.223
				c-0.382-0.154-0.769-0.293-1.146-0.459l-1.093-0.6c-0.38-0.193-0.701-0.438-1.054-0.655c-0.686-0.455-1.395-0.873-2.061-1.359
				l-1.002-0.726c-0.329-0.245-0.678-0.476-0.995-0.738l-3.856-3.084l-0.017-0.014l0.019-0.011l0.221-0.134L87.143,143.902z
				 M87.138,143.929l-0.208,0.131l0.001-0.024l3.915,3.011c0.321,0.26,0.662,0.479,0.996,0.723l1.005,0.712
				c0.668,0.479,1.384,0.89,2.073,1.338c0.351,0.21,0.691,0.462,1.049,0.638l1.077,0.578c0.376,0.161,0.767,0.297,1.149,0.446
				c0.186,0.067,0.399,0.158,0.562,0.207l0.605,0.085l1.21,0.166l1.233,0.044c0.815,0.065,1.639-0.034,2.457-0.043l-0.011,0.001
				l1.712-0.188c0.561-0.08,1.128-0.185,1.683-0.306c0.282-0.053,0.546-0.146,0.819-0.216c0.273-0.062,0.536-0.197,0.805-0.292
				c0.141-0.046,0.244-0.104,0.371-0.184l0.364-0.216c0.242-0.146,0.468-0.326,0.702-0.487l-0.008,0.006l0.825-0.722
				c0.147-0.124,0.267-0.231,0.392-0.367l0.382-0.394c0.498-0.534,1.047-1.026,1.501-1.595l2.845-3.328l0.041,0.15l-0.244-0.1
				l0.092-0.01l-1.095,0.752c-0.357,0.248-0.711,0.524-1.066,0.785l-2.131,1.586c-0.708,0.531-1.404,1.069-2.124,1.601
				c-0.373,0.237-0.728,0.509-1.115,0.718l-0.582,0.333l-0.29,0.167l-0.018,0.01c-0.001,0-0.005,0.002-0.003,0.001
				c0.019,0.027-0.141-0.248-0.076-0.13l0.001-0.001l0.009-0.005l0.036-0.02l0.072-0.041l0.072-0.041l0.018-0.01
				c0.002-0.001,0.009-0.005,0.006-0.004l-0.02,0.021c0.15,0.232,0.073,0.053,0.095,0.108l-0.002,0.001l-0.036,0.021l-0.009,0.005
				l-0.012,0.003c-0.193,0.045-0.383,0.107-0.574,0.16l-0.008,0.002c-0.603,0.121-1.218,0.199-1.824,0.287
				c-0.618,0.083-1.229,0.112-1.844,0.172h-0.002h-0.005c-0.77,0.006-1.545,0.031-2.315,0.009c-0.383-0.011-0.775-0.002-1.159-0.031
				c-0.39-0.033-0.767-0.114-1.146-0.168h-0.003l-0.002-0.001h-0.001l-0.004-0.001l0.017-0.104l0.006,0.001h0.001l0.005,0.001
				l0.009,0.002l0.017,0.004l0.034,0.007l0.068,0.015l0.068,0.014l0.017,0.004l0.006,0.001h-0.004
				c-0.004,0.001,0.005-0.003-0.021,0.001l-0.008,0.098l0.007,0.003c0.004,0.002,0.002,0.001,0.001,0.001l-0.004-0.001l-0.034-0.008
				h-0.001l-0.007-0.002c-0.277-0.084-0.549-0.172-0.819-0.272c-0.275-0.085-0.54-0.229-0.8-0.342
				c-0.528-0.232-1.048-0.489-1.556-0.76c-1.026-0.527-2.053-1.058-3.067-1.606c-1.014-0.553-2.044-1.068-3.072-1.595
				C89.221,144.908,88.191,144.396,87.138,143.929z"/>
		</g>
	</g>
	<g id="browserhead">
		<g>
			<path fill="#020200" d="M76.527,139.061c0,0,0.736,0.346,2.024,0.947c0.646,0.301,1.437,0.645,2.345,1.039
				c0.912,0.383,1.939,0.823,3.08,1.244c1.135,0.434,2.383,0.865,3.714,1.215c1.315,0.348,2.788,0.473,4.305,0.613
				c1.509,0.105,3.067,0.199,4.667,0.229c1.594,0.069,3.217,0.032,4.838,0.049c1.619-0.058,3.242-0.053,4.83-0.168
				c0.795-0.047,1.582-0.095,2.361-0.141c0.771-0.07,1.537-0.14,2.289-0.208c0.758-0.04,1.471-0.185,2.188-0.269l0.531-0.072
				l0.131-0.018c0.008,0,0.076-0.013,0.034-0.004l0.065-0.018l0.262-0.064c0.35-0.084,0.691-0.164,1.033-0.244
				c1.318-0.362,2.523-0.774,3.674-1.205c2.281-0.822,4.164-1.588,5.492-2.104c1.323-0.522,2.082-0.821,2.082-0.821l0.055,0.107
				c0,0-0.698,0.425-1.955,1.104c-0.623,0.35-1.396,0.746-2.287,1.188c-0.896,0.434-1.895,0.949-3.029,1.425
				c-1.113,0.485-2.389,0.996-3.745,1.44c-0.336,0.096-0.677,0.193-1.022,0.292l-0.26,0.069l-0.063,0.019
				c-0.086,0.021-0.062,0.012-0.103,0.019l-0.137,0.021l-0.553,0.084c-0.74,0.098-1.5,0.26-2.268,0.312
				c-0.77,0.053-1.549,0.107-2.34,0.164c-0.789,0.043-1.59,0.045-2.396,0.067c-1.61,0.062-3.243-0.003-4.876-0.002
				c-1.633-0.062-3.265-0.071-4.869-0.188c-1.602-0.074-3.186-0.213-4.717-0.363c-1.513-0.188-2.988-0.34-4.369-0.76
				c-1.356-0.412-2.596-0.895-3.723-1.375c-1.131-0.467-2.145-0.944-3.046-1.363c-0.896-0.428-1.675-0.805-2.31-1.129
				c-1.267-0.65-1.99-1.023-1.99-1.023L76.527,139.061z"/>
		</g>
		<path fill="none" stroke="#020200" stroke-miterlimit="10" d="M126.279,134.5c0,0,4.115-0.884,5,0c0.884,0.884,0,5,0,5"/>
	</g>
</g>
</svg>
