<?xml version="1.0" encoding="utf-8"?>
<!-- Generator: Adobe Illustrator 16.0.0, SVG Export Plug-In . SVG Version: 6.00 Build 0)  -->
<!DOCTYPE svg PUBLIC "-//W3C//DTD SVG 1.1//EN" "http://www.w3.org/Graphics/SVG/1.1/DTD/svg11.dtd">
<svg version="1.1" xmlns="http://www.w3.org/2000/svg" xmlns:xlink="http://www.w3.org/1999/xlink" x="0px" y="0px" width="200px"
	 height="225px" viewBox="0 0 200 225" enable-background="new 0 0 200 225" xml:space="preserve">
<g id="Ext">
</g>
<g id="Guides">
</g>
<g id="_x31_2_Col_Grid_1_" display="none" enable-background="new    ">
	<g id="Rectangle_xA0_Image_23_" display="inline" opacity="0.102">
	</g>
	<g id="Rectangle_xA0_Image_21_" display="inline" opacity="0.102">
	</g>
	<g id="Rectangle_xA0_Image_19_" display="inline" opacity="0.102">
	</g>
	<g id="Rectangle_xA0_Image_17_" display="inline" opacity="0.102">
	</g>
	<g id="Rectangle_xA0_Image_15_" display="inline" opacity="0.102">
	</g>
	<g id="Rectangle_xA0_Image_13_" display="inline" opacity="0.102">
	</g>
	<g id="Rectangle_xA0_Image_11_" display="inline" opacity="0.102">
	</g>
	<g id="Rectangle_xA0_Image_9_" display="inline" opacity="0.102">
	</g>
	<g id="Rectangle_xA0_Image_7_" display="inline" opacity="0.102">
	</g>
	<g id="Rectangle_xA0_Image_5_" display="inline" opacity="0.102">
	</g>
	<g id="Rectangle_xA0_Image_3_" display="inline" opacity="0.102">
	</g>
	<g id="Rectangle_xA0_Image_1_" display="inline" opacity="0.102">
	</g>
</g>
<g id="Bg">
</g>
<g id="main">
	<g id="Progress">
	</g>
	<g id="Text">
	</g>
</g>
<g id="pane">
</g>
<g id="browserhead">
	<g>
		<path fill="#020200" d="M83.53,139.073c0,0,0.49,0.329,1.348,0.905c0.861,0.571,2.113,1.356,3.652,2.222
			c0.389,0.207,0.794,0.422,1.213,0.646c0.431,0.195,0.875,0.396,1.332,0.604c0.468,0.151,0.945,0.339,1.439,0.44
			c0.526,0.085,1.064,0.173,1.61,0.262c1.089,0.104,2.208,0.223,3.37,0.256c1.152,0.076,2.331,0.05,3.505,0.069
			c1.173-0.051,2.351-0.049,3.497-0.163c1.154-0.068,2.27-0.215,3.35-0.357c0.53-0.086,1.041-0.201,1.547-0.296l0.189-0.037
			c-0.008,0.009,0.105-0.036,0.151-0.052l0.37-0.134c0.242-0.09,0.496-0.162,0.723-0.256c0.441-0.202,0.871-0.398,1.287-0.588
			c0.419-0.219,0.824-0.431,1.213-0.634c0.768-0.427,1.491-0.793,2.111-1.156c0.625-0.356,1.17-0.666,1.619-0.922
			c0.899-0.514,1.413-0.808,1.413-0.808l0.059,0.083c0,0-1.788,1.567-4.798,3.503c-0.384,0.231-0.784,0.471-1.199,0.72
			c-0.441,0.233-0.898,0.474-1.367,0.721c-0.494,0.204-0.904,0.409-1.509,0.561c-0.539,0.113-1.091,0.246-1.652,0.346
			c-1.122,0.122-2.28,0.252-3.454,0.266c-1.175,0.068-2.365,0.017-3.555,0.02c-1.188-0.057-2.377-0.069-3.544-0.184
			c-1.165-0.07-2.321-0.23-3.435-0.375c-0.543-0.106-1.078-0.211-1.602-0.314c-0.545-0.126-1.041-0.342-1.527-0.526
			c-0.459-0.232-0.906-0.458-1.338-0.677c-0.414-0.244-0.814-0.479-1.199-0.706c-1.514-0.939-2.732-1.779-3.57-2.389
			c-0.834-0.614-1.311-0.965-1.311-0.965L83.53,139.073z"/>
	</g>
</g>
</svg>
