<?xml version="1.0" encoding="utf-8"?>
<!-- Generator: Adobe Illustrator 16.0.0, SVG Export Plug-In . SVG Version: 6.00 Build 0)  -->
<!DOCTYPE svg PUBLIC "-//W3C//DTD SVG 1.1//EN" "http://www.w3.org/Graphics/SVG/1.1/DTD/svg11.dtd">
<svg version="1.1" xmlns="http://www.w3.org/2000/svg" xmlns:xlink="http://www.w3.org/1999/xlink" x="0px" y="0px" width="200px"
	 height="225px" viewBox="0 0 200 225" enable-background="new 0 0 200 225" xml:space="preserve">
<g id="Ext">
</g>
<g id="Guides">
</g>
<g id="_x31_2_Col_Grid_1_" display="none" enable-background="new    ">
	<g id="Rectangle_xA0_Image_23_" display="inline" opacity="0.102">
	</g>
	<g id="Rectangle_xA0_Image_21_" display="inline" opacity="0.102">
	</g>
	<g id="Rectangle_xA0_Image_19_" display="inline" opacity="0.102">
	</g>
	<g id="Rectangle_xA0_Image_17_" display="inline" opacity="0.102">
	</g>
	<g id="Rectangle_xA0_Image_15_" display="inline" opacity="0.102">
	</g>
	<g id="Rectangle_xA0_Image_13_" display="inline" opacity="0.102">
	</g>
	<g id="Rectangle_xA0_Image_11_" display="inline" opacity="0.102">
	</g>
	<g id="Rectangle_xA0_Image_9_" display="inline" opacity="0.102">
	</g>
	<g id="Rectangle_xA0_Image_7_" display="inline" opacity="0.102">
	</g>
	<g id="Rectangle_xA0_Image_5_" display="inline" opacity="0.102">
	</g>
	<g id="Rectangle_xA0_Image_3_" display="inline" opacity="0.102">
	</g>
	<g id="Rectangle_xA0_Image_1_" display="inline" opacity="0.102">
	</g>
</g>
<g id="Bg">
</g>
<g id="main">
	<g id="Progress">
	</g>
	<g id="Text">
	</g>
</g>
<g id="pane">
</g>
<g id="browserhead">
	<g>
		<path fill="#020200" d="M76.527,139.06c0,0,0.736,0.345,2.024,0.948c0.646,0.3,1.437,0.645,2.345,1.039
			c0.912,0.383,1.939,0.823,3.08,1.244c1.135,0.434,2.383,0.865,3.714,1.215c1.315,0.348,2.788,0.472,4.305,0.613
			c1.509,0.105,3.067,0.199,4.667,0.228c1.594,0.07,3.217,0.033,4.838,0.05c1.619-0.058,3.242-0.053,4.83-0.169
			c0.795-0.047,1.582-0.094,2.361-0.14c0.773-0.07,1.537-0.14,2.289-0.208c0.758-0.04,1.471-0.185,2.188-0.268l0.531-0.073
			l0.131-0.018c0.008,0,0.076-0.011,0.034-0.003l0.065-0.017l0.262-0.066c0.35-0.083,0.693-0.164,1.033-0.244
			c1.32-0.362,2.525-0.774,3.674-1.204c2.281-0.823,4.165-1.588,5.492-2.104c1.325-0.523,2.082-0.823,2.082-0.823l0.055,0.109
			c0,0-0.698,0.425-1.955,1.102c-0.623,0.35-1.395,0.746-2.287,1.188c-0.896,0.433-1.895,0.949-3.029,1.425
			c-1.113,0.485-2.389,0.996-3.745,1.44c-0.336,0.096-0.677,0.194-1.022,0.292l-0.26,0.07l-0.065,0.018
			c-0.086,0.021-0.063,0.012-0.101,0.019l-0.137,0.021l-0.553,0.084c-0.74,0.098-1.5,0.26-2.267,0.312
			c-0.769,0.054-1.55,0.109-2.341,0.165c-0.789,0.042-1.588,0.045-2.394,0.068c-1.61,0.06-3.243-0.003-4.876-0.002
			c-1.633-0.062-3.265-0.071-4.869-0.187c-1.602-0.074-3.186-0.213-4.717-0.364c-1.513-0.188-2.988-0.339-4.369-0.76
			c-1.356-0.412-2.596-0.894-3.723-1.374c-1.131-0.467-2.145-0.946-3.046-1.364c-0.896-0.428-1.675-0.804-2.31-1.128
			c-1.267-0.652-1.99-1.025-1.99-1.025L76.527,139.06z"/>
	</g>
	<path fill="none" stroke="#020200" stroke-miterlimit="10" d="M126.279,134.5c0,0,4.116-0.884,5,0s0,5,0,5"/>
</g>
</svg>
