<?xml version="1.0" encoding="utf-8"?>
<!-- Generator: Adobe Illustrator 16.0.0, SVG Export Plug-In . SVG Version: 6.00 Build 0)  -->
<!DOCTYPE svg PUBLIC "-//W3C//DTD SVG 1.1//EN" "http://www.w3.org/Graphics/SVG/1.1/DTD/svg11.dtd">
<svg version="1.1" id="Layer_1" xmlns="http://www.w3.org/2000/svg" xmlns:xlink="http://www.w3.org/1999/xlink" x="0px" y="0px"
	 width="200px" height="225px" viewBox="0 0 200 225" enable-background="new 0 0 200 225" xml:space="preserve">
<g id="Ext">
</g>
<g id="Guides">
</g>
<g id="_x31_2_Col_Grid_1_" display="none" enable-background="new    ">
	<g id="Rectangle_xA0_Image_23_" display="inline" opacity="0.102">
	</g>
	<g id="Rectangle_xA0_Image_21_" display="inline" opacity="0.102">
	</g>
	<g id="Rectangle_xA0_Image_19_" display="inline" opacity="0.102">
	</g>
	<g id="Rectangle_xA0_Image_17_" display="inline" opacity="0.102">
	</g>
	<g id="Rectangle_xA0_Image_15_" display="inline" opacity="0.102">
	</g>
	<g id="Rectangle_xA0_Image_13_" display="inline" opacity="0.102">
	</g>
	<g id="Rectangle_xA0_Image_11_" display="inline" opacity="0.102">
	</g>
	<g id="Rectangle_xA0_Image_9_" display="inline" opacity="0.102">
	</g>
	<g id="Rectangle_xA0_Image_7_" display="inline" opacity="0.102">
	</g>
	<g id="Rectangle_xA0_Image_5_" display="inline" opacity="0.102">
	</g>
	<g id="Rectangle_xA0_Image_3_" display="inline" opacity="0.102">
	</g>
	<g id="Rectangle_xA0_Image_1_" display="inline" opacity="0.102">
	</g>
</g>
<g id="Bg">
</g>
<g id="main">
	<g id="Progress">
	</g>
	<g id="Text">
	</g>
</g>
<g id="pane">
</g>
<g>
	
		<ellipse transform="matrix(-0.5286 -0.8489 0.8489 -0.5286 25.5072 179.1639)" fill="#F980C8" stroke="#A8548A" stroke-miterlimit="10" cx="62.501" cy="82.5" rx="12.5" ry="13.5"/>
	<path fill="#FCFCFC" stroke="#020200" stroke-width="0.8385" stroke-miterlimit="10" d="M68.45,77.813
		c0.178,0.211,0.347,0.432,0.497,0.672c1.946,3.125,0.638,7.457-2.922,9.673c-3.561,2.217-8.024,1.48-9.971-1.645
		c-0.149-0.241-0.274-0.489-0.384-0.742l-5.032,3.134c0.129,0.245,0.253,0.492,0.402,0.731c3.649,5.859,11.738,7.416,18.067,3.475
		c6.33-3.941,8.501-11.887,4.853-17.747c-0.148-0.239-0.315-0.459-0.479-0.683L68.45,77.813z"/>
	<path stroke="#020200" stroke-width="0.4593" stroke-miterlimit="10" d="M55.671,85.771c0.11,0.253,0.235,0.501,0.385,0.742
		c1.946,3.125,6.41,3.862,9.97,1.645s4.869-6.548,2.922-9.674c-0.15-0.24-0.319-0.461-0.497-0.672L55.671,85.771z"/>
	<g>
		
			<ellipse transform="matrix(0.3895 -0.921 0.921 0.3895 4.6076 169.9516)" fill="#F980C8" stroke="#A8548A" stroke-miterlimit="10" cx="130.5" cy="81.5" rx="12.5" ry="13.5"/>
		<path fill="#FCFCFC" stroke="#020200" stroke-width="0.8385" stroke-miterlimit="10" d="M137.757,83.665
			c-0.069,0.267-0.152,0.532-0.263,0.793c-1.435,3.392-5.729,4.816-9.591,3.183c-3.862-1.634-5.831-5.708-4.397-9.099
			c0.11-0.261,0.241-0.506,0.386-0.741l-5.46-2.31c-0.127,0.246-0.257,0.491-0.366,0.75c-2.688,6.357,0.698,13.867,7.565,16.771
			c6.866,2.904,14.613,0.103,17.303-6.254c0.108-0.259,0.194-0.523,0.282-0.785L137.757,83.665z"/>
		<path stroke="#020200" stroke-width="0.4593" stroke-miterlimit="10" d="M123.894,77.801c-0.145,0.236-0.275,0.481-0.386,0.742
			c-1.434,3.391,0.534,7.465,4.396,9.098s8.157,0.209,9.592-3.183c0.11-0.261,0.193-0.526,0.263-0.793L123.894,77.801z"/>
	</g>
	<g>
		<path fill="#CFEFFF" d="M73.041,103.137c0,3.514-2.148,6.363-4.79,6.363c-2.65,0-4.791-2.85-4.791-6.363
			c0-3.513,2.141-13.637,4.791-13.637C70.893,89.5,73.041,99.623,73.041,103.137z"/>
		<path d="M73.041,103.137c0,0-0.004,0.167-0.011,0.48c-0.012,0.313-0.054,0.773-0.173,1.355c-0.13,0.581-0.339,1.287-0.781,2.071
			c-0.223,0.392-0.504,0.804-0.918,1.211c-0.413,0.401-0.919,0.83-1.759,1.115c-0.828,0.317-2.133,0.206-2.882-0.199
			c-0.802-0.379-1.343-0.889-1.784-1.423c-0.855-1.079-1.322-2.294-1.519-3.556c-0.207-1.267-0.079-2.572,0.093-3.888
			c0.179-1.317,0.424-2.653,0.74-3.984c0.351-1.33,0.759-2.656,1.318-3.951c0.285-0.646,0.598-1.286,1.051-1.906
			c0.249-0.308,0.487-0.616,0.958-0.896c0.181-0.134,0.691-0.298,1.115-0.217c0.13,0.013,0.441,0.113,0.531,0.175
			c0.119,0.069,0.239,0.139,0.318,0.213c1.208,1.177,1.497,2.386,1.932,3.517c0.377,1.136,0.647,2.216,0.86,3.213
			c0.431,1.995,0.696,3.662,0.808,4.832C73.059,102.468,73.041,103.137,73.041,103.137z M73.041,103.137
			c0,0-0.039-2.683-1.111-6.656c-0.278-0.992-0.611-2.063-1.059-3.187c-0.483-1.101-0.918-2.348-2.059-3.371
			c-0.353-0.248-0.576-0.338-0.921-0.112c-0.326,0.204-0.558,0.503-0.761,0.792c-0.404,0.591-0.707,1.221-0.969,1.858
			c-0.519,1.278-0.892,2.599-1.211,3.92c-0.346,1.321-0.622,2.647-0.833,3.955c-0.184,1.309-0.387,2.598-0.27,3.835
			c0.112,1.238,0.498,2.437,1.262,3.498c0.391,0.524,0.892,1.023,1.61,1.387c0.678,0.384,1.78,0.498,2.579,0.225
			c0.801-0.251,1.342-0.661,1.75-1.057c0.416-0.399,0.704-0.807,0.935-1.194c0.46-0.777,0.685-1.48,0.832-2.059
			c0.131-0.581,0.186-1.04,0.203-1.354C73.033,103.304,73.041,103.137,73.041,103.137z"/>
	</g>
	<g>
		<path fill="#CFEFFF" d="M131.29,103.137c0,3.514-2.193,6.363-4.892,6.363c-2.706,0-4.892-2.85-4.892-6.363
			c0-3.513,2.186-13.637,4.892-13.637C129.097,89.5,131.29,99.623,131.29,103.137z"/>
		<path d="M131.29,103.137c0,0-0.003,0.167-0.011,0.48c-0.012,0.313-0.056,0.773-0.176,1.355c-0.134,0.581-0.348,1.287-0.799,2.071
			c-0.228,0.392-0.517,0.804-0.937,1.211c-0.423,0.401-0.94,0.83-1.796,1.115c-0.847,0.317-2.179,0.206-2.945-0.199
			c-0.817-0.379-1.37-0.889-1.821-1.423c-0.873-1.079-1.349-2.294-1.552-3.556c-0.21-1.267-0.08-2.572,0.096-3.888
			c0.184-1.317,0.432-2.653,0.757-3.984c0.355-1.33,0.774-2.656,1.346-3.951c0.29-0.646,0.611-1.286,1.073-1.906
			c0.255-0.308,0.497-0.616,0.979-0.896c0.184-0.134,0.707-0.298,1.14-0.217c0.134,0.013,0.45,0.113,0.542,0.175
			c0.121,0.069,0.245,0.139,0.325,0.213c1.232,1.177,1.528,2.386,1.972,3.517c0.387,1.136,0.661,2.216,0.879,3.213
			c0.44,1.995,0.711,3.662,0.826,4.832C131.31,102.468,131.29,103.137,131.29,103.137z M131.29,103.137c0,0-0.038-2.683-1.135-6.656
			c-0.282-0.992-0.623-2.063-1.081-3.187c-0.493-1.101-0.937-2.348-2.103-3.371c-0.359-0.248-0.589-0.338-0.94-0.112
			c-0.332,0.204-0.569,0.503-0.777,0.792c-0.413,0.591-0.723,1.221-0.99,1.858c-0.529,1.278-0.911,2.599-1.236,3.92
			c-0.355,1.321-0.636,2.647-0.852,3.955c-0.188,1.309-0.395,2.598-0.275,3.835c0.114,1.238,0.508,2.437,1.288,3.498
			c0.401,0.524,0.911,1.023,1.645,1.387c0.692,0.384,1.817,0.498,2.634,0.225c0.817-0.251,1.37-0.661,1.787-1.057
			c0.424-0.399,0.718-0.807,0.955-1.194c0.47-0.777,0.697-1.48,0.849-2.059c0.134-0.581,0.19-1.04,0.206-1.354
			C131.283,103.304,131.29,103.137,131.29,103.137z"/>
	</g>
	<g>
		<path fill="#CFEFFF" d="M75.041,126.137c0,3.514-2.148,6.363-4.79,6.363c-2.65,0-4.791-2.85-4.791-6.363
			c0-3.513,2.141-13.637,4.791-13.637C72.893,112.5,75.041,122.623,75.041,126.137z"/>
		<path d="M75.041,126.137c0,0-0.004,0.168-0.011,0.48c-0.012,0.312-0.054,0.773-0.173,1.355c-0.13,0.58-0.339,1.286-0.781,2.07
			c-0.223,0.393-0.504,0.805-0.918,1.211c-0.413,0.4-0.92,0.83-1.759,1.115c-0.828,0.316-2.133,0.206-2.882-0.199
			c-0.802-0.379-1.343-0.889-1.784-1.423c-0.855-1.079-1.322-2.294-1.519-3.556c-0.207-1.268-0.079-2.572,0.093-3.889
			c0.179-1.316,0.424-2.652,0.74-3.984c0.351-1.33,0.759-2.655,1.318-3.95c0.285-0.646,0.598-1.286,1.051-1.906
			c0.249-0.308,0.487-0.616,0.958-0.896c0.181-0.135,0.691-0.299,1.115-0.217c0.13,0.012,0.441,0.112,0.531,0.174
			c0.119,0.069,0.239,0.14,0.318,0.213c1.208,1.178,1.497,2.387,1.932,3.518c0.377,1.137,0.647,2.216,0.86,3.213
			c0.431,1.995,0.696,3.662,0.808,4.832C75.059,125.468,75.041,126.137,75.041,126.137z M75.041,126.137
			c0,0-0.039-2.683-1.111-6.656c-0.278-0.991-0.611-2.062-1.059-3.187c-0.483-1.101-0.918-2.349-2.059-3.371
			c-0.353-0.248-0.576-0.338-0.921-0.112c-0.326,0.205-0.558,0.504-0.761,0.793c-0.404,0.59-0.707,1.221-0.969,1.857
			c-0.519,1.278-0.892,2.6-1.211,3.92c-0.346,1.321-0.622,2.646-0.833,3.955c-0.184,1.309-0.387,2.598-0.27,3.835
			c0.112,1.238,0.498,2.437,1.262,3.498c0.391,0.524,0.892,1.022,1.61,1.388c0.678,0.383,1.78,0.498,2.579,0.225
			c0.801-0.251,1.342-0.661,1.75-1.057c0.416-0.399,0.704-0.808,0.935-1.194c0.46-0.777,0.685-1.48,0.832-2.06
			c0.131-0.58,0.186-1.039,0.203-1.354C75.033,126.305,75.041,126.137,75.041,126.137z"/>
	</g>
	<g>
		<path fill="#CFEFFF" d="M131.29,128.137c0,3.514-2.094,6.363-4.669,6.363c-2.583,0-4.67-2.85-4.67-6.363
			c0-3.513,2.087-13.637,4.67-13.637C129.196,114.5,131.29,124.623,131.29,128.137z"/>
		<path d="M131.29,128.137c0,0-0.003,0.168-0.011,0.48c-0.011,0.312-0.053,0.773-0.168,1.355c-0.127,0.58-0.332,1.286-0.762,2.07
			c-0.218,0.393-0.493,0.805-0.895,1.211c-0.402,0.4-0.897,0.83-1.714,1.115c-0.809,0.316-2.08,0.206-2.812-0.199
			c-0.78-0.379-1.308-0.889-1.738-1.423c-0.834-1.079-1.288-2.294-1.481-3.556c-0.2-1.268-0.076-2.572,0.092-3.889
			c0.175-1.316,0.412-2.652,0.722-3.984c0.34-1.33,0.739-2.655,1.284-3.95c0.277-0.646,0.584-1.286,1.025-1.906
			c0.243-0.308,0.475-0.616,0.934-0.896c0.176-0.135,0.676-0.299,1.088-0.217c0.127,0.012,0.431,0.112,0.518,0.174
			c0.115,0.069,0.233,0.14,0.311,0.213c1.177,1.178,1.459,2.387,1.882,3.518c0.369,1.137,0.632,2.216,0.84,3.213
			c0.419,1.995,0.679,3.662,0.788,4.832C131.309,127.468,131.29,128.137,131.29,128.137z M131.29,128.137
			c0,0-0.036-2.683-1.083-6.656c-0.271-0.991-0.595-2.062-1.032-3.187c-0.471-1.101-0.895-2.349-2.007-3.371
			c-0.343-0.248-0.562-0.338-0.897-0.112c-0.317,0.205-0.544,0.504-0.742,0.793c-0.395,0.59-0.689,1.221-0.945,1.857
			c-0.505,1.278-0.87,2.6-1.18,3.92c-0.34,1.321-0.607,2.646-0.813,3.955c-0.179,1.309-0.376,2.598-0.263,3.835
			c0.109,1.238,0.484,2.437,1.229,3.498c0.383,0.524,0.87,1.022,1.57,1.388c0.66,0.383,1.734,0.498,2.514,0.225
			c0.78-0.251,1.308-0.661,1.705-1.057c0.405-0.399,0.687-0.808,0.912-1.194c0.449-0.777,0.666-1.48,0.811-2.06
			c0.127-0.58,0.182-1.039,0.196-1.354C131.283,128.305,131.29,128.137,131.29,128.137z"/>
	</g>
</g>
</svg>
