<?xml version="1.0" encoding="utf-8"?>
<!-- Generator: Adobe Illustrator 16.0.0, SVG Export Plug-In . SVG Version: 6.00 Build 0)  -->
<!DOCTYPE svg PUBLIC "-//W3C//DTD SVG 1.1//EN" "http://www.w3.org/Graphics/SVG/1.1/DTD/svg11.dtd">
<svg version="1.1" id="Layer_1" xmlns="http://www.w3.org/2000/svg" xmlns:xlink="http://www.w3.org/1999/xlink" x="0px" y="0px"
	 width="200px" height="255px" viewBox="0 0 200 255" enable-background="new 0 0 200 255" xml:space="preserve">
<g id="Ext">
</g>
<g id="Guides">
</g>
<g id="_x31_2_Col_Grid_1_" display="none" enable-background="new    ">
	<g id="Rectangle_xA0_Image_23_" display="inline" opacity="0.102">
	</g>
	<g id="Rectangle_xA0_Image_21_" display="inline" opacity="0.102">
	</g>
	<g id="Rectangle_xA0_Image_19_" display="inline" opacity="0.102">
	</g>
	<g id="Rectangle_xA0_Image_17_" display="inline" opacity="0.102">
	</g>
	<g id="Rectangle_xA0_Image_15_" display="inline" opacity="0.102">
	</g>
	<g id="Rectangle_xA0_Image_13_" display="inline" opacity="0.102">
	</g>
	<g id="Rectangle_xA0_Image_11_" display="inline" opacity="0.102">
	</g>
	<g id="Rectangle_xA0_Image_9_" display="inline" opacity="0.102">
	</g>
	<g id="Rectangle_xA0_Image_7_" display="inline" opacity="0.102">
	</g>
	<g id="Rectangle_xA0_Image_5_" display="inline" opacity="0.102">
	</g>
	<g id="Rectangle_xA0_Image_3_" display="inline" opacity="0.102">
	</g>
	<g id="Rectangle_xA0_Image_1_" display="inline" opacity="0.102">
	</g>
</g>
<g id="Bg">
</g>
<g id="main">
	<g id="Progress">
	</g>
	<g id="Text">
	</g>
</g>
<g>
	<path fill="none" stroke="#020200" stroke-miterlimit="10" d="M84.332,133"/>
	<path stroke="#020200" stroke-width="1.0468" stroke-miterlimit="10" d="M100.049,146.997l-9.132-9.333c0,0,1.518-3.999,2.558-5
		c1.068-1.028,3.936-2.51,5.479-2.667c1.104-0.112,3.4,0.192,4.382,0.667c0.857,0.415,2.372,1.604,2.922,2.333
		c0.623,0.83,1.826,3.667,1.826,3.667L100.049,146.997z"/>
	<g>
		<path fill="none" stroke="#020200" stroke-miterlimit="10" d="M75,170c0,0,3.365-7.732,5-10c1.033-1.434,3.35-4.367,5-5
			c3.501-1.342,15,0,15,0l-0.335-8.003"/>
		<path fill="none" stroke="#020200" stroke-miterlimit="10" d="M125,170c0,0-3.509-7.636-5-10c-0.941-1.495-3.367-4.324-5-5
			c-3.465-1.436-15,0-15,0l0.335-8.003"/>
	</g>
	<g id="browserhead">
	</g>
</g>
</svg>
