<?xml version="1.0" encoding="utf-8"?>
<!-- Generator: Adobe Illustrator 16.0.0, SVG Export Plug-In . SVG Version: 6.00 Build 0)  -->
<!DOCTYPE svg PUBLIC "-//W3C//DTD SVG 1.1//EN" "http://www.w3.org/Graphics/SVG/1.1/DTD/svg11.dtd">
<svg version="1.1" id="Layer_1" xmlns="http://www.w3.org/2000/svg" xmlns:xlink="http://www.w3.org/1999/xlink" x="0px" y="0px"
	 width="200px" height="255px" viewBox="0 0 200 255" enable-background="new 0 0 200 255" xml:space="preserve">
<g id="Ext">
</g>
<g id="Guides">
</g>
<g id="_x31_2_Col_Grid_1_" display="none" enable-background="new    ">
	<g id="Rectangle_xA0_Image_23_" display="inline" opacity="0.102">
	</g>
	<g id="Rectangle_xA0_Image_21_" display="inline" opacity="0.102">
	</g>
	<g id="Rectangle_xA0_Image_19_" display="inline" opacity="0.102">
	</g>
	<g id="Rectangle_xA0_Image_17_" display="inline" opacity="0.102">
	</g>
	<g id="Rectangle_xA0_Image_15_" display="inline" opacity="0.102">
	</g>
	<g id="Rectangle_xA0_Image_13_" display="inline" opacity="0.102">
	</g>
	<g id="Rectangle_xA0_Image_11_" display="inline" opacity="0.102">
	</g>
	<g id="Rectangle_xA0_Image_9_" display="inline" opacity="0.102">
	</g>
	<g id="Rectangle_xA0_Image_7_" display="inline" opacity="0.102">
	</g>
	<g id="Rectangle_xA0_Image_5_" display="inline" opacity="0.102">
	</g>
	<g id="Rectangle_xA0_Image_3_" display="inline" opacity="0.102">
	</g>
	<g id="Rectangle_xA0_Image_1_" display="inline" opacity="0.102">
	</g>
</g>
<g id="Bg">
</g>
<g id="main">
	<g id="Progress">
	</g>
	<g id="Text">
	</g>
</g>
<g id="browserhead">
</g>
<g>
	<path fill="none" stroke="#020200" stroke-miterlimit="10" d="M84.332,133"/>
	<path stroke="#020200" stroke-miterlimit="10" d="M99.666,146.997l-8.335-9.333c0,0,1.385-3.999,2.335-5
		c0.974-1.028,3.591-2.51,5-2.667c1.006-0.112,3.104,0.192,4,0.667c0.781,0.415,2.164,1.604,2.665,2.333
		c0.569,0.83,1.667,3.667,1.667,3.667L99.666,146.997z"/>
	<path fill="none" stroke="#020200" stroke-miterlimit="10" d="M79.167,163.297c0,0,6.264-5.738,8.626-7.129
		c2.988-1.76,9.676-3.726,13.027-3.667c3.15,0.055,9.449,1.992,12.147,3.87c1.977,1.375,6.866,7.13,6.866,7.13
		s-6.354-0.621-8.45-1.02c-2.471-0.47-7.357-1.924-9.858-2.036c-3.094-0.139-9.254,0.946-12.323,1.425
		C86.697,162.261,79.167,163.297,79.167,163.297z"/>
	<polyline fill="none" stroke="#020200" stroke-miterlimit="10" points="82.834,159.437 86.667,161.686 88.334,156.225 
		92.834,160.08 96.001,153.976 99.501,159.598 102.501,153.334 106.168,160.722 109.501,155.421 112.501,162.167 115.167,158.917 	
		"/>
</g>
</svg>
